<svg width="259" height="52" viewBox="0 0 259 52" fill="none" xmlns="http://www.w3.org/2000/svg">
<mask id="path-1-inside-1_1_28826" fill="white">
<path d="M244.907 0.613591C246.324 0.514503 248.585 0.39144 249.769 0.194905L252.801 0.0131243C252.946 0.00440078 253.093 0.0102751 253.236 0.0381958C254.066 0.200235 254.077 0.407656 254.374 0.692997C255.007 1.30069 254.84 1.91585 255.051 2.53377C255.7 4.43136 255.786 6.32334 256.872 8.2149C257.922 10.0423 258.437 11.8714 258.437 13.7156C258.437 17.444 259.168 21.1632 258.964 24.8938C258.887 26.3079 258.707 27.7305 258.317 29.142C258.008 30.2616 257.247 31.3624 256.782 32.477C256.365 33.4767 256.507 34.4949 256.556 35.4981C256.617 36.7351 257.192 37.9599 257.459 39.194C257.707 40.3356 257.625 41.4803 257.625 42.6229C257.625 44.1386 257.564 45.6527 257.835 47.1671C258.03 48.2524 258.968 49.3495 258.693 50.4372C258.554 50.9878 256.535 50.9032 254.825 51.0652C253.126 51.2262 251.805 51.2088 250.055 51.0977C248.266 50.9842 246.98 51.0819 245.163 51.1158C241.611 51.1819 237.822 51.1281 234.327 50.9858C232.116 50.8958 230.089 50.8779 227.826 50.8703C226.068 50.8645 224.364 50.7749 222.588 50.809C221.194 50.8357 220.311 51.1245 218.826 51.1302C217.805 51.1341 216.706 51.1542 215.695 51.1158C214.958 51.0877 214.364 50.973 213.633 50.9425C212.964 50.9146 212.792 51.0257 212.219 51.058C211.486 51.0993 210.571 51.0652 209.826 51.0652C207.507 51.0652 205.217 50.9065 202.918 50.9389C200.779 50.9691 198.946 51.1912 196.762 51.1952C193.502 51.2011 190.028 51.345 186.799 51.2276C184.685 51.1508 182.429 51.2812 180.357 51.1518C178.891 51.0603 177.687 50.9399 176.143 50.9353L175.957 50.9348C175.172 50.9326 174.413 50.9304 173.63 50.9028C168.957 50.738 164.226 50.8703 159.543 50.8703C157.622 50.8703 156.076 50.744 154.2 50.6898C152.065 50.6281 149.803 50.6754 147.654 50.6754C145.804 50.6754 143.949 50.6637 142.1 50.6754C140.563 50.6851 139.018 50.8424 137.45 50.8667C134.765 50.9082 132.089 50.8804 129.398 50.9353C127.264 50.9788 125.226 51.1608 123.077 51.2096C116.898 51.35 110.502 51.3749 104.294 51.3901C100.718 51.3988 97.1398 51.3901 93.5635 51.3901C89.1526 51.3901 84.9202 51.1428 80.515 51.1302C74.8038 51.1139 69.125 50.8703 63.388 50.8703C58.2409 50.8703 53.3213 50.7651 48.1573 50.9353C44.1926 51.0659 40.1073 51.3131 36.1172 51.3251C30.4584 51.3421 24.5465 51.6282 19.0203 51.9098C17.7889 51.9726 15.6983 52.0673 14.4902 51.9279C13.3364 51.7946 13.0304 51.455 11.6457 51.455C10.1495 51.455 8.88345 51.5947 7.43171 51.6644C6.89888 51.6899 4.68103 52.0481 4.46682 51.9567C3.87687 51.7052 3.61241 51.2961 3.45848 51.0075C3.32673 50.7604 3.18072 50.3308 2.16415 50.1845C1.86978 50.1422 1.49753 50.185 1.23108 50.1484C0.629819 50.066 0.676267 49.1797 0.598935 49.0151C0.402249 48.5965 0.510465 48.1467 0.689267 47.7302C1.27774 46.3592 1.28985 44.9764 1.63742 43.6011C1.83026 42.8379 2.13614 42.0935 2.16415 41.3272C2.186 40.7299 2.45617 40.1343 2.43506 39.5369C2.42553 39.2669 1.88818 39.0807 1.65246 38.8223C0.801054 37.8888 1.09665 36.8535 0.86984 35.8987C0.661741 35.0226 0.550901 34.1527 0.147459 33.2819C-0.325411 32.2613 0.485624 31.2513 0.538756 30.232C0.580992 29.4219 0.409605 28.5656 1.09561 27.7704C1.67773 27.0957 1.75967 26.4134 2.37485 25.7347C2.59112 25.4961 2.92459 25.1748 2.69092 24.9226C2.48093 24.696 1.99261 24.458 1.77286 24.2224C1.38119 23.8025 1.50354 23.4016 1.33642 22.9808C1.08459 22.3466 1.08057 21.7135 1.08057 21.0714C1.08057 20.3239 0.538756 19.5962 0.538756 18.8625C0.538756 17.6717 1.08057 16.4894 1.08057 15.3037C1.08057 14.507 1.62237 13.7578 1.62237 12.9576L1.62237 10.4455C1.62237 9.72448 3.02441 9.00991 2.29962 8.27986C1.94955 7.92726 2.16415 7.52433 2.16415 7.16818C2.16415 6.77647 1.89328 6.38861 1.89328 6.00236C1.89328 5.05379 1.13922 4.05709 2.02872 3.11848C2.53314 2.5862 2.42749 2.03399 2.72101 1.49427C2.77454 1.39587 3.62157 0.500174 3.97018 0.469208C5.39319 0.342812 8.41 0.408629 10.0203 0.469209C13.2195 0.589558 16.3619 0.454771 19.5621 0.454771C21.3362 0.454771 23.1379 0.558507 24.9049 0.516131C26.3548 0.481359 27.4194 0.202572 28.9233 0.194898C32.2481 0.177932 35.48 0.324835 38.7961 0.324835C40.8047 0.324835 42.6732 0.454772 44.6958 0.454772C46.6896 0.454772 48.6364 0.474773 50.6255 0.505303C56.6593 0.597914 62.7148 0.454773 68.7459 0.454773C71.7863 0.454773 74.88 0.512846 77.8662 0.36093L78.1731 0.345292C80.2502 0.239363 82.396 0.129931 84.5184 0.129931C86.1455 0.129931 87.5482 0.225375 89.1237 0.295962C90.3955 0.352939 91.6962 0.305156 92.9765 0.339274C95.0002 0.393199 96.8389 0.454774 98.8912 0.454774L109.592 0.454774C119.948 0.454775 128.995 2.09796 139.632 1.71805C142.415 1.61866 145.1 1.36685 147.909 1.3138C150.816 1.25892 153.783 1.29937 156.699 1.29937C158.27 1.29937 159.806 1.20711 161.326 1.11579L161.515 1.10446C163.682 0.974512 166.101 0.974518 168.332 0.974524L168.378 0.974524C171.085 0.974524 173.777 1.10446 176.475 1.10446C177.443 1.10446 178.392 1.07527 179.334 1.02506C180.807 0.946542 181.565 0.610639 182.826 0.425902C184.553 0.172717 186.028 0.194903 188.003 0.194903C190.649 0.194903 193.079 0.560919 195.648 0.44034C198.273 0.317207 200.995 0.509455 203.655 0.519746C207.418 0.534303 211.225 0.701993 214.973 0.714652C217.933 0.724652 220.873 0.77962 223.822 0.779621C225.264 0.779621 226.53 0.649684 227.976 0.649684C229.849 0.649684 231.469 0.844589 233.304 0.844589C234.904 0.844589 236.431 0.870115 237.999 0.905949C238.903 0.92658 239.776 0.922592 240.618 0.84459C242.058 0.711152 243.478 0.71358 244.907 0.613591Z"/>
</mask>
<path d="M244.907 0.613591C246.324 0.514503 248.585 0.39144 249.769 0.194905L252.801 0.0131243C252.946 0.00440078 253.093 0.0102751 253.236 0.0381958C254.066 0.200235 254.077 0.407656 254.374 0.692997C255.007 1.30069 254.84 1.91585 255.051 2.53377C255.7 4.43136 255.786 6.32334 256.872 8.2149C257.922 10.0423 258.437 11.8714 258.437 13.7156C258.437 17.444 259.168 21.1632 258.964 24.8938C258.887 26.3079 258.707 27.7305 258.317 29.142C258.008 30.2616 257.247 31.3624 256.782 32.477C256.365 33.4767 256.507 34.4949 256.556 35.4981C256.617 36.7351 257.192 37.9599 257.459 39.194C257.707 40.3356 257.625 41.4803 257.625 42.6229C257.625 44.1386 257.564 45.6527 257.835 47.1671C258.03 48.2524 258.968 49.3495 258.693 50.4372C258.554 50.9878 256.535 50.9032 254.825 51.0652C253.126 51.2262 251.805 51.2088 250.055 51.0977C248.266 50.9842 246.98 51.0819 245.163 51.1158C241.611 51.1819 237.822 51.1281 234.327 50.9858C232.116 50.8958 230.089 50.8779 227.826 50.8703C226.068 50.8645 224.364 50.7749 222.588 50.809C221.194 50.8357 220.311 51.1245 218.826 51.1302C217.805 51.1341 216.706 51.1542 215.695 51.1158C214.958 51.0877 214.364 50.973 213.633 50.9425C212.964 50.9146 212.792 51.0257 212.219 51.058C211.486 51.0993 210.571 51.0652 209.826 51.0652C207.507 51.0652 205.217 50.9065 202.918 50.9389C200.779 50.9691 198.946 51.1912 196.762 51.1952C193.502 51.2011 190.028 51.345 186.799 51.2276C184.685 51.1508 182.429 51.2812 180.357 51.1518C178.891 51.0603 177.687 50.9399 176.143 50.9353L175.957 50.9348C175.172 50.9326 174.413 50.9304 173.63 50.9028C168.957 50.738 164.226 50.8703 159.543 50.8703C157.622 50.8703 156.076 50.744 154.2 50.6898C152.065 50.6281 149.803 50.6754 147.654 50.6754C145.804 50.6754 143.949 50.6637 142.1 50.6754C140.563 50.6851 139.018 50.8424 137.45 50.8667C134.765 50.9082 132.089 50.8804 129.398 50.9353C127.264 50.9788 125.226 51.1608 123.077 51.2096C116.898 51.35 110.502 51.3749 104.294 51.3901C100.718 51.3988 97.1398 51.3901 93.5635 51.3901C89.1526 51.3901 84.9202 51.1428 80.515 51.1302C74.8038 51.1139 69.125 50.8703 63.388 50.8703C58.2409 50.8703 53.3213 50.7651 48.1573 50.9353C44.1926 51.0659 40.1073 51.3131 36.1172 51.3251C30.4584 51.3421 24.5465 51.6282 19.0203 51.9098C17.7889 51.9726 15.6983 52.0673 14.4902 51.9279C13.3364 51.7946 13.0304 51.455 11.6457 51.455C10.1495 51.455 8.88345 51.5947 7.43171 51.6644C6.89888 51.6899 4.68103 52.0481 4.46682 51.9567C3.87687 51.7052 3.61241 51.2961 3.45848 51.0075C3.32673 50.7604 3.18072 50.3308 2.16415 50.1845C1.86978 50.1422 1.49753 50.185 1.23108 50.1484C0.629819 50.066 0.676267 49.1797 0.598935 49.0151C0.402249 48.5965 0.510465 48.1467 0.689267 47.7302C1.27774 46.3592 1.28985 44.9764 1.63742 43.6011C1.83026 42.8379 2.13614 42.0935 2.16415 41.3272C2.186 40.7299 2.45617 40.1343 2.43506 39.5369C2.42553 39.2669 1.88818 39.0807 1.65246 38.8223C0.801054 37.8888 1.09665 36.8535 0.86984 35.8987C0.661741 35.0226 0.550901 34.1527 0.147459 33.2819C-0.325411 32.2613 0.485624 31.2513 0.538756 30.232C0.580992 29.4219 0.409605 28.5656 1.09561 27.7704C1.67773 27.0957 1.75967 26.4134 2.37485 25.7347C2.59112 25.4961 2.92459 25.1748 2.69092 24.9226C2.48093 24.696 1.99261 24.458 1.77286 24.2224C1.38119 23.8025 1.50354 23.4016 1.33642 22.9808C1.08459 22.3466 1.08057 21.7135 1.08057 21.0714C1.08057 20.3239 0.538756 19.5962 0.538756 18.8625C0.538756 17.6717 1.08057 16.4894 1.08057 15.3037C1.08057 14.507 1.62237 13.7578 1.62237 12.9576L1.62237 10.4455C1.62237 9.72448 3.02441 9.00991 2.29962 8.27986C1.94955 7.92726 2.16415 7.52433 2.16415 7.16818C2.16415 6.77647 1.89328 6.38861 1.89328 6.00236C1.89328 5.05379 1.13922 4.05709 2.02872 3.11848C2.53314 2.5862 2.42749 2.03399 2.72101 1.49427C2.77454 1.39587 3.62157 0.500174 3.97018 0.469208C5.39319 0.342812 8.41 0.408629 10.0203 0.469209C13.2195 0.589558 16.3619 0.454771 19.5621 0.454771C21.3362 0.454771 23.1379 0.558507 24.9049 0.516131C26.3548 0.481359 27.4194 0.202572 28.9233 0.194898C32.2481 0.177932 35.48 0.324835 38.7961 0.324835C40.8047 0.324835 42.6732 0.454772 44.6958 0.454772C46.6896 0.454772 48.6364 0.474773 50.6255 0.505303C56.6593 0.597914 62.7148 0.454773 68.7459 0.454773C71.7863 0.454773 74.88 0.512846 77.8662 0.36093L78.1731 0.345292C80.2502 0.239363 82.396 0.129931 84.5184 0.129931C86.1455 0.129931 87.5482 0.225375 89.1237 0.295962C90.3955 0.352939 91.6962 0.305156 92.9765 0.339274C95.0002 0.393199 96.8389 0.454774 98.8912 0.454774L109.592 0.454774C119.948 0.454775 128.995 2.09796 139.632 1.71805C142.415 1.61866 145.1 1.36685 147.909 1.3138C150.816 1.25892 153.783 1.29937 156.699 1.29937C158.27 1.29937 159.806 1.20711 161.326 1.11579L161.515 1.10446C163.682 0.974512 166.101 0.974518 168.332 0.974524L168.378 0.974524C171.085 0.974524 173.777 1.10446 176.475 1.10446C177.443 1.10446 178.392 1.07527 179.334 1.02506C180.807 0.946542 181.565 0.610639 182.826 0.425902C184.553 0.172717 186.028 0.194903 188.003 0.194903C190.649 0.194903 193.079 0.560919 195.648 0.44034C198.273 0.317207 200.995 0.509455 203.655 0.519746C207.418 0.534303 211.225 0.701993 214.973 0.714652C217.933 0.724652 220.873 0.77962 223.822 0.779621C225.264 0.779621 226.53 0.649684 227.976 0.649684C229.849 0.649684 231.469 0.844589 233.304 0.844589C234.904 0.844589 236.431 0.870115 237.999 0.905949C238.903 0.92658 239.776 0.922592 240.618 0.84459C242.058 0.711152 243.478 0.71358 244.907 0.613591Z" fill="#191411" stroke="#191411" stroke-width="3" mask="url(#path-1-inside-1_1_28826)"/>
</svg>
