<svg width="56" height="64" viewBox="0 0 56 64" fill="none" xmlns="http://www.w3.org/2000/svg">
<mask id="path-1-inside-1_1_28863" fill="white">
<path d="M52.953 0.755189C53.2043 0.655128 53.5785 0.535204 53.8461 0.361768C53.9566 0.290152 54.0685 0.217872 54.1931 0.175339C54.5101 0.0671795 54.8765 0.150197 54.9379 0.479377C54.9587 0.590588 54.9744 0.714281 54.9998 0.852919C55.1367 1.60085 55.1005 2.35797 55.1462 3.11849C55.2864 5.45399 55.3051 7.78258 55.5399 10.1106C55.7668 12.3597 55.8784 14.6109 55.8784 16.8807C55.8784 21.4695 56.0362 26.047 55.9923 30.6385C55.9756 32.3789 55.9365 34.1299 55.8523 35.867C55.7855 37.245 55.6209 38.5998 55.5204 39.9717C55.4303 41.2021 55.461 42.4552 55.4716 43.6899C55.4847 45.2124 55.609 46.7198 55.6669 48.2388C55.7204 49.6438 55.7027 51.0527 55.7027 52.459C55.7027 54.3244 55.6896 56.1879 55.7482 58.0518C55.7902 59.3875 55.9931 60.7378 55.9337 62.0765C55.9036 62.7543 55.4671 62.6501 55.0974 62.8495C54.73 63.0476 54.4442 63.0262 54.0659 62.8895C53.6792 62.7497 53.401 62.87 53.0083 62.9117C52.2402 62.9931 51.421 62.9269 50.6653 62.7518C50.1872 62.6409 49.7491 62.6189 49.2596 62.6096C48.8797 62.6024 48.5111 62.4922 48.1272 62.5341C47.8258 62.567 47.6347 62.9225 47.3136 62.9295C47.0931 62.9342 46.8553 62.959 46.6368 62.9117C46.4775 62.8772 46.3489 62.736 46.191 62.6985C46.0463 62.6641 46.0091 62.8008 45.8851 62.8406C45.7267 62.8915 45.5289 62.8495 45.3677 62.8495C44.8663 62.8495 44.3713 62.6541 43.8741 62.694C43.4117 62.7311 43.0154 63.0045 42.5432 63.0094C41.8383 63.0168 41.0871 63.1938 40.389 63.0494C39.932 62.9549 39.4442 63.1154 38.9962 62.9561C38.6791 62.8434 38.4189 62.6953 38.0851 62.6896C37.9008 62.6864 37.7243 62.6863 37.5416 62.6496C36.5313 62.4468 35.5083 62.6096 34.4958 62.6096C34.0805 62.6096 33.7461 62.4542 33.3406 62.3875C32.8789 62.3116 32.3899 62.3697 31.9251 62.3697C31.5253 62.3697 31.124 62.3554 30.7243 62.3697C30.3919 62.3817 30.0579 62.5753 29.7188 62.6052C29.1383 62.6563 28.5598 62.622 27.9779 62.6896C27.5166 62.7432 27.0759 62.9671 26.6112 63.0272C25.2752 63.2 23.8922 63.2306 22.5501 63.2493C21.7769 63.2601 21.0032 63.2493 20.2299 63.2493C19.2762 63.2493 18.3611 62.9449 17.4087 62.9295C16.1738 62.9094 14.9459 62.6096 13.7055 62.6096C12.5926 62.6096 11.5289 62.4801 10.4124 62.6896C9.55515 62.8504 8.67185 63.1546 7.80913 63.1693C6.58561 63.1902 5.30735 63.5424 4.11249 63.889C3.84625 63.9662 3.39422 64.0829 3.13301 63.9112C2.88355 63.7472 2.81737 63.3293 2.51799 63.3293C2.19449 63.3293 1.92074 63.5012 1.60685 63.5869C1.49164 63.6184 1.01211 64.0591 0.965795 63.9467C0.838239 63.6372 0.781057 63.1336 0.747777 62.7784C0.719293 62.4744 0.687722 61.9456 0.467923 61.7656C0.404275 61.7134 0.323785 61.7661 0.266172 61.7212C0.136174 61.6197 0.146219 60.5289 0.129499 60.3263C0.0869725 59.811 0.110368 59.2575 0.149026 58.7448C0.276262 57.0575 0.278882 55.3556 0.354032 53.6628C0.395731 52.7236 0.461866 51.8073 0.467924 50.8642C0.472646 50.1292 0.531061 49.396 0.526499 48.6608C0.524435 48.3285 0.408254 48.0993 0.357286 47.7813C0.173197 46.6324 0.237108 45.3582 0.18807 44.183C0.14308 43.1047 0.119112 42.0341 0.0318814 40.9623C-0.07036 39.7062 0.104998 38.4631 0.116488 37.2086C0.125616 36.2115 0.0885643 35.1576 0.236887 34.179C0.36275 33.3485 0.380465 32.5088 0.51348 31.6735C0.560244 31.3799 0.632342 30.9844 0.581816 30.674C0.53641 30.3951 0.430834 30.1022 0.383322 29.8122C0.298636 29.2954 0.325087 28.802 0.288951 28.284C0.2345 27.5036 0.233634 26.7243 0.233634 25.9341C0.233634 25.0141 0.116488 24.1185 0.116488 23.2154C0.116488 21.7498 0.233634 20.2947 0.233634 18.8353C0.233634 17.8548 0.35078 16.9327 0.35078 15.9478L0.35078 12.856C0.35078 11.9686 0.653923 11.0891 0.497211 10.1906C0.421524 9.75663 0.467926 9.26072 0.467926 8.82238C0.467926 8.34027 0.409355 7.86291 0.409355 7.38752C0.409355 6.22006 0.246319 4.99334 0.43864 3.83813C0.547703 3.18303 0.52486 2.50338 0.588329 1.83911C0.599899 1.718 0.783039 0.615607 0.858417 0.577495C1.1661 0.42193 1.81838 0.502936 2.16655 0.577495C2.85826 0.725617 3.53771 0.559726 4.22964 0.559726C4.61323 0.559726 5.00279 0.6874 5.38484 0.635245C5.69833 0.592449 5.92851 0.249326 6.25368 0.239881C6.97257 0.219001 7.67136 0.399804 8.38836 0.399804C8.82264 0.399804 9.22663 0.559726 9.66395 0.559726C10.095 0.559726 10.516 0.584342 10.9461 0.621918C12.2507 0.735901 13.56 0.559726 14.864 0.559727C15.5214 0.559727 16.1903 0.631201 16.8359 0.444227C17.3056 0.308223 17.7927 0.159921 18.2742 0.159921C18.6261 0.159921 18.9293 0.27739 19.27 0.364266C19.545 0.434391 19.8262 0.375582 20.103 0.417574C20.5406 0.483942 20.9381 0.559727 21.3819 0.559727L23.6955 0.559727C25.9348 0.559727 27.8909 2.58211 30.1907 2.11453C30.7923 1.9922 31.373 1.68228 31.9804 1.61699C32.6088 1.54945 33.2504 1.59922 33.8808 1.59922C34.2345 1.59922 34.58 1.47608 34.9221 1.35934C35.3907 1.1994 35.9137 1.19941 36.3962 1.19942L36.406 1.19942C36.9914 1.19942 37.5735 1.35934 38.1567 1.35934C38.3661 1.35934 38.5712 1.32341 38.7749 1.26161C39.0935 1.16498 39.2573 0.751558 39.5299 0.524189C39.9034 0.212577 40.2223 0.239883 40.6493 0.239883C41.2214 0.239883 41.7467 0.690364 42.3024 0.541959C42.8698 0.390411 43.4583 0.627023 44.0335 0.639689C44.8472 0.657606 45.6703 0.863992 46.4806 0.879573C47.1207 0.89188 47.7564 0.959534 48.394 0.959534C48.7058 0.959534 48.9795 0.799612 49.2921 0.799612C49.697 0.799612 50.0473 1.0395 50.4441 1.0395C50.79 1.0395 51.1201 1.07091 51.4593 1.11501C51.6546 1.14041 51.8435 1.1355 52.0255 1.0395C52.3369 0.875265 52.6439 0.878252 52.953 0.755189Z"/>
</mask>
<path d="M52.953 0.755189C53.2043 0.655128 53.5785 0.535204 53.8461 0.361768C53.9566 0.290152 54.0685 0.217872 54.1931 0.175339C54.5101 0.0671795 54.8765 0.150197 54.9379 0.479377C54.9587 0.590588 54.9744 0.714281 54.9998 0.852919C55.1367 1.60085 55.1005 2.35797 55.1462 3.11849C55.2864 5.45399 55.3051 7.78258 55.5399 10.1106C55.7668 12.3597 55.8784 14.6109 55.8784 16.8807C55.8784 21.4695 56.0362 26.047 55.9923 30.6385C55.9756 32.3789 55.9365 34.1299 55.8523 35.867C55.7855 37.245 55.6209 38.5998 55.5204 39.9717C55.4303 41.2021 55.461 42.4552 55.4716 43.6899C55.4847 45.2124 55.609 46.7198 55.6669 48.2388C55.7204 49.6438 55.7027 51.0527 55.7027 52.459C55.7027 54.3244 55.6896 56.1879 55.7482 58.0518C55.7902 59.3875 55.9931 60.7378 55.9337 62.0765C55.9036 62.7543 55.4671 62.6501 55.0974 62.8495C54.73 63.0476 54.4442 63.0262 54.0659 62.8895C53.6792 62.7497 53.401 62.87 53.0083 62.9117C52.2402 62.9931 51.421 62.9269 50.6653 62.7518C50.1872 62.6409 49.7491 62.6189 49.2596 62.6096C48.8797 62.6024 48.5111 62.4922 48.1272 62.5341C47.8258 62.567 47.6347 62.9225 47.3136 62.9295C47.0931 62.9342 46.8553 62.959 46.6368 62.9117C46.4775 62.8772 46.3489 62.736 46.191 62.6985C46.0463 62.6641 46.0091 62.8008 45.8851 62.8406C45.7267 62.8915 45.5289 62.8495 45.3677 62.8495C44.8663 62.8495 44.3713 62.6541 43.8741 62.694C43.4117 62.7311 43.0154 63.0045 42.5432 63.0094C41.8383 63.0168 41.0871 63.1938 40.389 63.0494C39.932 62.9549 39.4442 63.1154 38.9962 62.9561C38.6791 62.8434 38.4189 62.6953 38.0851 62.6896C37.9008 62.6864 37.7243 62.6863 37.5416 62.6496C36.5313 62.4468 35.5083 62.6096 34.4958 62.6096C34.0805 62.6096 33.7461 62.4542 33.3406 62.3875C32.8789 62.3116 32.3899 62.3697 31.9251 62.3697C31.5253 62.3697 31.124 62.3554 30.7243 62.3697C30.3919 62.3817 30.0579 62.5753 29.7188 62.6052C29.1383 62.6563 28.5598 62.622 27.9779 62.6896C27.5166 62.7432 27.0759 62.9671 26.6112 63.0272C25.2752 63.2 23.8922 63.2306 22.5501 63.2493C21.7769 63.2601 21.0032 63.2493 20.2299 63.2493C19.2762 63.2493 18.3611 62.9449 17.4087 62.9295C16.1738 62.9094 14.9459 62.6096 13.7055 62.6096C12.5926 62.6096 11.5289 62.4801 10.4124 62.6896C9.55515 62.8504 8.67185 63.1546 7.80913 63.1693C6.58561 63.1902 5.30735 63.5424 4.11249 63.889C3.84625 63.9662 3.39422 64.0829 3.13301 63.9112C2.88355 63.7472 2.81737 63.3293 2.51799 63.3293C2.19449 63.3293 1.92074 63.5012 1.60685 63.5869C1.49164 63.6184 1.01211 64.0591 0.965795 63.9467C0.838239 63.6372 0.781057 63.1336 0.747777 62.7784C0.719293 62.4744 0.687722 61.9456 0.467923 61.7656C0.404275 61.7134 0.323785 61.7661 0.266172 61.7212C0.136174 61.6197 0.146219 60.5289 0.129499 60.3263C0.0869725 59.811 0.110368 59.2575 0.149026 58.7448C0.276262 57.0575 0.278882 55.3556 0.354032 53.6628C0.395731 52.7236 0.461866 51.8073 0.467924 50.8642C0.472646 50.1292 0.531061 49.396 0.526499 48.6608C0.524435 48.3285 0.408254 48.0993 0.357286 47.7813C0.173197 46.6324 0.237108 45.3582 0.18807 44.183C0.14308 43.1047 0.119112 42.0341 0.0318814 40.9623C-0.07036 39.7062 0.104998 38.4631 0.116488 37.2086C0.125616 36.2115 0.0885643 35.1576 0.236887 34.179C0.36275 33.3485 0.380465 32.5088 0.51348 31.6735C0.560244 31.3799 0.632342 30.9844 0.581816 30.674C0.53641 30.3951 0.430834 30.1022 0.383322 29.8122C0.298636 29.2954 0.325087 28.802 0.288951 28.284C0.2345 27.5036 0.233634 26.7243 0.233634 25.9341C0.233634 25.0141 0.116488 24.1185 0.116488 23.2154C0.116488 21.7498 0.233634 20.2947 0.233634 18.8353C0.233634 17.8548 0.35078 16.9327 0.35078 15.9478L0.35078 12.856C0.35078 11.9686 0.653923 11.0891 0.497211 10.1906C0.421524 9.75663 0.467926 9.26072 0.467926 8.82238C0.467926 8.34027 0.409355 7.86291 0.409355 7.38752C0.409355 6.22006 0.246319 4.99334 0.43864 3.83813C0.547703 3.18303 0.52486 2.50338 0.588329 1.83911C0.599899 1.718 0.783039 0.615607 0.858417 0.577495C1.1661 0.42193 1.81838 0.502936 2.16655 0.577495C2.85826 0.725617 3.53771 0.559726 4.22964 0.559726C4.61323 0.559726 5.00279 0.6874 5.38484 0.635245C5.69833 0.592449 5.92851 0.249326 6.25368 0.239881C6.97257 0.219001 7.67136 0.399804 8.38836 0.399804C8.82264 0.399804 9.22663 0.559726 9.66395 0.559726C10.095 0.559726 10.516 0.584342 10.9461 0.621918C12.2507 0.735901 13.56 0.559726 14.864 0.559727C15.5214 0.559727 16.1903 0.631201 16.8359 0.444227C17.3056 0.308223 17.7927 0.159921 18.2742 0.159921C18.6261 0.159921 18.9293 0.27739 19.27 0.364266C19.545 0.434391 19.8262 0.375582 20.103 0.417574C20.5406 0.483942 20.9381 0.559727 21.3819 0.559727L23.6955 0.559727C25.9348 0.559727 27.8909 2.58211 30.1907 2.11453C30.7923 1.9922 31.373 1.68228 31.9804 1.61699C32.6088 1.54945 33.2504 1.59922 33.8808 1.59922C34.2345 1.59922 34.58 1.47608 34.9221 1.35934C35.3907 1.1994 35.9137 1.19941 36.3962 1.19942L36.406 1.19942C36.9914 1.19942 37.5735 1.35934 38.1567 1.35934C38.3661 1.35934 38.5712 1.32341 38.7749 1.26161C39.0935 1.16498 39.2573 0.751558 39.5299 0.524189C39.9034 0.212577 40.2223 0.239883 40.6493 0.239883C41.2214 0.239883 41.7467 0.690364 42.3024 0.541959C42.8698 0.390411 43.4583 0.627023 44.0335 0.639689C44.8472 0.657606 45.6703 0.863992 46.4806 0.879573C47.1207 0.89188 47.7564 0.959534 48.394 0.959534C48.7058 0.959534 48.9795 0.799612 49.2921 0.799612C49.697 0.799612 50.0473 1.0395 50.4441 1.0395C50.79 1.0395 51.1201 1.07091 51.4593 1.11501C51.6546 1.14041 51.8435 1.1355 52.0255 1.0395C52.3369 0.875265 52.6439 0.878252 52.953 0.755189Z" fill="#DBD6C2" stroke="#191411" stroke-width="3" mask="url(#path-1-inside-1_1_28863)"/>
<path d="M16.0776 34.4363C16.0399 34.5615 16 34.4989 16 34.2763C16 33.5736 16.3567 33.3162 16.6168 33.8589C16.8099 34.2763 16.877 34.2415 16.9735 33.7615C17.0406 33.3788 17.0889 33.3441 17.0889 33.6363C17.0889 33.9215 17.1665 34.0189 17.2924 33.8589C17.4267 33.6989 17.4477 33.5389 17.3511 33.4415C17.2735 33.3441 17.2441 33.1214 17.284 32.8988C17.3218 32.6762 17.4183 32.6762 17.5253 32.9614C17.6113 33.2188 17.6596 33.6015 17.6218 33.7963C17.5924 33.9911 17.6113 34.1511 17.6889 34.1511C17.7561 34.1511 17.8148 33.9563 17.8148 33.7336C17.8148 33.4762 17.8924 33.4762 18.0666 33.7684C18.2009 34.0259 18.4337 34.1233 18.5785 34.0259C18.8009 33.9006 18.7904 33.8658 18.5198 33.8032C18.1044 33.7406 17.9806 33.1284 18.3079 32.8431C18.4526 32.7179 18.6561 32.9058 18.7904 33.2606C19.0611 34.0258 19.5709 34.3459 19.6779 33.8032C19.7157 33.5806 19.6485 33.4832 19.5038 33.5458C19.359 33.6432 19.2625 33.511 19.2625 33.1632C19.2625 32.4883 19.7345 32.8431 19.8311 33.6084C19.8604 33.8937 19.938 34.1511 19.9947 34.1511C20.0534 34.1511 20.0723 33.8937 20.0325 33.6084C19.9947 33.2884 20.022 32.9058 20.0996 32.7805C20.1667 32.6205 20.2255 32.7458 20.2255 33.0032C20.2255 33.2606 20.2549 33.3858 20.3031 33.2606C20.3409 33.1006 20.4584 33.2606 20.5549 33.5806C20.6514 33.9006 20.8738 34.158 21.0458 34.1232C21.3354 34.0885 21.3459 34.0606 21.1319 33.7684C20.8528 33.351 20.8717 33.3232 21.3438 33.191C21.585 33.0936 21.6438 33.191 21.5473 33.5736C21.4508 33.9563 21.5284 34.1163 21.8557 34.2485C22.097 34.3111 22.3193 34.2485 22.3466 34.0885C22.376 33.9285 22.4914 33.8937 22.5984 34.0606C22.7537 34.2554 22.7809 34.1232 22.7138 33.518C22.6362 32.7805 22.6467 32.7805 22.8103 33.518C22.9928 34.2833 23.3012 34.0328 23.1565 33.2327C23.0977 32.9127 23.1271 32.9127 23.253 33.2675C23.36 33.5249 23.4754 33.6502 23.5236 33.4901C23.5614 33.3649 23.6013 33.4554 23.6013 33.7128C23.6013 33.9702 23.66 34.158 23.7271 34.158C23.7943 34.158 23.8132 33.9354 23.7754 33.6432C23.7083 33.2606 23.7167 33.2606 23.853 33.6432C24.0565 34.2833 24.5664 34.3181 24.5664 33.7058C24.5664 33.3858 24.6251 33.4206 24.7489 33.7684C24.8937 34.1511 24.9314 34.1511 24.9314 33.7058C24.9314 33.2606 24.9503 33.2606 25.0279 33.7058C25.114 34.1233 25.1433 34.1232 25.2021 33.671C25.2608 33.1562 25.4727 33.0936 26.4756 33.3162C26.5616 33.351 26.591 33.5389 26.5532 33.7615C26.4378 34.3667 27.0064 34.2067 27.2666 33.5388C27.4008 33.2188 27.4407 32.9614 27.3631 32.9614C27.2855 32.9614 27.2183 32.7666 27.2183 32.544C27.2183 32.3214 27.3337 32.3492 27.5183 32.6066C27.682 32.864 27.7785 33.2467 27.7407 33.5041C27.6925 33.7893 27.7219 33.7615 27.8184 33.4762C27.9254 33.1562 28.0701 33.1214 28.282 33.3789C28.4855 33.6363 28.6303 33.6363 28.7058 33.3789C28.8611 32.871 29.073 32.8014 28.9765 33.3162C28.9387 33.511 29.0247 33.5736 29.159 33.4415C29.352 33.2814 29.3709 33.1562 29.245 32.864C29.138 32.6066 29.1863 32.6066 29.3898 32.8014C29.8052 33.184 30.4808 33.2814 30.4116 32.9266C30.3822 32.7666 30.4598 32.544 30.5941 32.4188C30.7284 32.3214 30.8647 32.3562 30.8941 32.544C30.9235 32.704 31.0976 32.9266 31.2613 33.0519C31.4921 33.1771 31.5613 33.0866 31.513 32.6971C31.4753 32.377 31.4942 32.1544 31.5508 32.1544C31.6095 32.1544 31.6956 32.4396 31.7333 32.8292C31.8005 33.4345 31.8298 33.4345 31.9369 32.9266C32.0334 32.4814 32.0711 32.4814 32.1194 32.8292C32.197 33.4693 32.4194 33.5041 32.3712 32.8918C32.3607 32.6344 32.4194 32.3492 32.5159 32.2518C32.6313 32.0918 32.6502 32.217 32.583 32.6066C32.497 33.0519 32.5054 33.0519 32.6796 32.6066C32.795 32.2866 32.8831 32.1614 32.8831 32.3214C32.8831 32.4814 32.9796 32.4188 33.095 32.1961C33.2292 31.9387 33.3845 31.9735 33.5482 32.2588C33.8755 32.8362 34.4251 33.024 34.5133 32.5788C34.5426 32.384 34.4545 32.2935 34.3014 32.384C34.0496 32.544 34.0496 32.544 34.272 32.1892C34.4063 31.9944 34.551 31.9039 34.5993 31.9944C34.6371 32.0918 34.7147 31.9596 34.7545 31.737C34.8511 31.2222 35.063 31.6117 35.0546 32.2796C35.0546 32.537 35.0063 32.5023 34.9392 32.1544C34.8427 31.6465 34.8238 31.6465 34.8238 32.2518C34.8238 32.7944 34.9014 32.9266 35.1721 32.8571C35.3651 32.8223 35.5203 32.6623 35.4993 32.5023C35.4889 32.3422 35.5371 32.217 35.6064 32.217C35.6735 32.217 35.7134 32.377 35.7029 32.537C35.6651 32.9823 36.3113 32.8223 36.4162 32.3422C36.4749 32.0848 36.5022 32.1474 36.5022 32.4675C36.5022 32.9127 36.561 32.9127 36.7813 32.4396C36.9848 31.9874 37.119 31.9248 37.2827 32.217C37.4652 32.5718 37.4862 32.5023 37.417 31.6744C37.3687 31.1665 37.3792 30.9369 37.4359 31.1665C37.6666 32.1266 38.1492 32.5092 38.4681 31.9666C38.6905 31.5839 38.7681 31.5491 38.7283 31.9039C38.6905 32.1613 38.766 32.384 38.9024 32.384C39.0367 32.384 39.1143 32.224 39.0765 32.064C39.0472 31.8692 39.173 31.7787 39.3661 31.8065C39.5486 31.8692 39.771 31.7718 39.857 31.6118C40.0794 31.1665 40.0312 30.2064 39.7899 30.1716C39.6745 30.1716 39.0178 30.109 38.3338 30.0464C37.6583 29.949 37.0708 30.0116 37.0414 30.1716C37.012 30.2969 36.7897 30.3316 36.54 30.2064C36.2882 30.0464 35.5371 29.9838 34.8804 30.0116C32.3145 30.109 26.1126 30.6865 24.9923 30.9369C24.9251 30.9369 24.5685 30.8743 24.2013 30.7769C23.7859 30.6795 23.5068 30.7769 23.4586 31.0969C23.3915 31.417 23.3621 31.417 23.3621 31.0969C23.3621 30.7421 22.4075 30.6169 19.8499 30.6169" fill="#191411"/>
</svg>
