<svg width="511" height="64" viewBox="0 0 511 64" fill="none" xmlns="http://www.w3.org/2000/svg">
<path d="M483.196 0.755188C485.991 0.633234 490.451 0.481772 492.787 0.239883L499.201 -5.15772e-07C501.266 0.206039 501.239 0.473514 501.873 0.852919C503.123 1.60085 502.792 2.35797 503.209 3.11849C504.489 5.45399 504.659 7.78258 506.802 10.1107C508.872 12.3598 509.89 14.6109 509.89 16.8807C509.89 21.4695 511.331 26.047 510.929 30.6385C510.777 32.3789 510.421 34.1299 509.653 35.8671C509.043 37.245 507.541 38.5999 506.624 39.9717C505.801 41.2021 506.082 42.4553 506.178 43.6899C506.298 45.2124 507.432 46.7199 507.96 48.2388C508.449 49.6438 508.287 51.0527 508.287 52.459C508.287 54.3244 508.168 56.1879 508.702 58.0518C509.086 59.3875 510.937 60.7378 510.395 62.0766C510.12 62.7543 506.137 62.6501 502.764 62.8495C499.411 63.0477 496.804 63.0262 493.351 62.8895C489.822 62.7498 487.284 62.8701 483.701 62.9117C476.692 62.9932 469.216 62.927 462.321 62.7518C457.958 62.6409 453.96 62.6189 449.494 62.6096C446.027 62.6024 442.664 62.4922 439.16 62.5341C436.41 62.567 434.667 62.9225 431.737 62.9295C429.724 62.9343 427.554 62.959 425.561 62.9117C424.107 62.8772 422.934 62.736 421.493 62.6985C420.172 62.6641 419.833 62.8008 418.702 62.8406C417.256 62.8915 415.452 62.8495 413.98 62.8495C409.405 62.8495 404.888 62.6541 400.351 62.694C396.132 62.7312 392.515 63.0045 388.206 63.0094C381.775 63.0168 374.92 63.1938 368.549 63.0494C364.379 62.9549 359.928 63.1154 355.84 62.9561C352.947 62.8434 350.572 62.6953 347.526 62.6896L347.159 62.6889C345.61 62.6862 344.113 62.6836 342.567 62.6496C333.349 62.4468 324.013 62.6096 314.774 62.6096C310.984 62.6096 307.933 62.4542 304.233 62.3875C300.02 62.3116 295.558 62.3697 291.317 62.3697C287.668 62.3697 284.007 62.3554 280.36 62.3697C277.327 62.3817 274.279 62.5753 271.184 62.6052C265.887 62.6563 260.608 62.622 255.298 62.6896C251.089 62.7432 247.068 62.9671 242.827 63.0272C230.636 63.2 218.017 63.2306 205.77 63.2493C198.714 63.2601 191.654 63.2493 184.598 63.2493C175.896 63.2493 167.545 62.9449 158.854 62.9295C147.586 62.9094 136.382 62.6096 125.063 62.6096C114.908 62.6096 105.202 62.4801 95.0131 62.6896C87.1907 62.8504 79.1306 63.1546 71.2583 63.1693C60.0937 63.1902 48.4295 63.5424 37.5265 63.889C35.097 63.9662 30.9722 64.0829 28.5887 63.9112C26.3124 63.7472 25.7086 63.3293 22.9767 63.3293C20.0247 63.3293 17.5268 63.5012 14.6625 63.5869C13.6113 63.6184 9.23553 64.0591 8.81289 63.9467C7.64895 63.6372 7.12716 63.1336 6.82348 62.7784C6.56353 62.4744 6.27548 61.9456 4.26983 61.7656C3.68902 61.7134 2.95456 61.7661 2.42883 61.7212C1.24261 61.6197 1.33426 60.5289 1.18167 60.3263C0.793638 59.811 1.00714 59.2575 1.35989 58.7448C2.5209 57.0575 2.5448 55.3556 3.23056 53.6628C3.61105 52.7236 4.21454 51.8073 4.26983 50.8642C4.31293 50.1292 4.84595 49.396 4.80429 48.6608C4.78549 48.3285 3.72531 48.0993 3.26025 47.7812C1.58041 46.6324 2.16363 45.3582 1.71615 44.183C1.3056 43.1047 1.08691 42.0341 0.290922 40.9623C-0.642031 39.7062 0.958128 38.4631 1.06296 37.2086C1.14624 36.2115 0.808134 35.1576 2.16159 34.179C3.31009 33.3485 3.47177 32.5088 4.68551 31.6735C5.11221 31.3798 5.77011 30.9844 5.30908 30.674C4.89474 30.3951 3.93136 30.1022 3.4978 29.8122C2.72507 29.2954 2.96643 28.802 2.63669 28.284C2.13983 27.5036 2.1319 26.7243 2.1319 25.9341C2.1319 25.0141 1.06296 24.1184 1.06296 23.2154C1.06296 21.7498 2.1319 20.2947 2.1319 18.8353C2.1319 17.8548 3.20087 16.9327 3.20087 15.9478L3.20087 12.856C3.20087 11.9686 5.96704 11.0891 4.53708 10.1906C3.8464 9.75662 4.26984 9.2607 4.26984 8.82237C4.26984 8.34026 3.73535 7.86289 3.73535 7.38751C3.73535 6.22004 2.24765 4.99333 4.00259 3.83812C4.9978 3.18301 4.78934 2.50336 5.3685 1.83909C5.47406 1.71798 7.14523 0.615587 7.83304 0.577476C10.6406 0.421911 16.5927 0.502917 19.7698 0.577476C26.0816 0.725599 32.2816 0.559708 38.5955 0.559708C42.0957 0.559708 45.6505 0.687382 49.1367 0.635227C51.9973 0.592431 54.0976 0.249308 57.0648 0.239864C63.6247 0.218983 70.0012 0.399787 76.5437 0.399787C80.5066 0.399787 84.193 0.55971 88.1836 0.55971C92.1172 0.55971 95.9583 0.584326 99.8828 0.621903C111.787 0.735886 123.735 0.559712 135.634 0.559712C141.632 0.559712 147.736 0.631187 153.628 0.444213L154.233 0.424965C158.332 0.294592 162.565 0.159907 166.752 0.159907C169.963 0.159908 172.73 0.277377 175.839 0.364253C178.348 0.434378 180.914 0.375569 183.44 0.417561C187.433 0.483929 191.061 0.559715 195.11 0.559715L216.222 0.559716C236.655 0.559717 254.505 2.58211 275.49 2.11452C280.98 1.99219 286.279 1.68227 291.821 1.61698C297.555 1.54944 303.41 1.59922 309.162 1.59922C312.262 1.59922 315.292 1.48567 318.292 1.37328L318.664 1.35933C322.941 1.19939 327.713 1.1994 332.115 1.19941L332.204 1.19941C337.546 1.19941 342.858 1.35933 348.18 1.35933C350.091 1.35933 351.962 1.3234 353.821 1.2616C356.728 1.16497 358.223 0.751552 360.71 0.524184C364.119 0.212572 367.028 0.239877 370.925 0.239878C376.145 0.239878 380.939 0.690359 386.009 0.541954C391.187 0.390406 396.557 0.627019 401.806 0.639685C409.231 0.657602 416.741 0.863989 424.135 0.87957C429.976 0.891877 435.777 0.959531 441.595 0.959532C444.44 0.959532 446.938 0.799609 449.791 0.799609C453.485 0.79961 456.681 1.03949 460.302 1.03949C463.459 1.03949 466.471 1.07091 469.566 1.11501C471.349 1.14041 473.072 1.1355 474.733 1.03949C477.574 0.875264 480.375 0.878251 483.196 0.755188Z" fill="#E5D9CF"/>
</svg>
