<svg width="65" height="64" viewBox="0 0 65 64" fill="none" xmlns="http://www.w3.org/2000/svg">
<path d="M61.2677 0.755189C61.5504 0.656697 61.9691 0.53896 62.2739 0.369887C62.4093 0.294739 62.5454 0.217043 62.6938 0.17272C63.0562 0.0645093 63.4718 0.151072 63.5449 0.522115C63.5646 0.62207 63.5815 0.73179 63.6069 0.852919C63.7634 1.60085 63.722 2.35797 63.7742 3.11849C63.9345 5.45399 63.9558 7.78258 64.2242 10.1106C64.4835 12.3597 64.611 14.6109 64.611 16.8807C64.611 21.4695 64.7914 26.047 64.7412 30.6385C64.7221 32.3789 64.6775 34.1299 64.5812 35.867C64.5049 37.245 64.3168 38.5998 64.2019 39.9717C64.0989 41.2021 64.134 42.4552 64.1461 43.6899C64.161 45.2124 64.3031 46.7198 64.3693 48.2388C64.4305 49.6438 64.4102 51.0527 64.4102 52.459C64.4102 54.3244 64.3953 56.1879 64.4622 58.0518C64.5102 59.3875 64.7421 60.7378 64.6742 62.0765C64.6398 62.7543 64.141 62.6501 63.7184 62.8495C63.2986 63.0476 62.972 63.0262 62.5395 62.8895C62.0976 62.7497 61.7797 62.87 61.3309 62.9117C60.4531 62.9931 59.5168 62.9269 58.6532 62.7518C58.1068 62.6409 57.6061 62.6189 57.0467 62.6096C56.6125 62.6024 56.1913 62.4922 55.7525 62.5341C55.408 62.567 55.1897 62.9225 54.8227 62.9295C54.5706 62.9342 54.2989 62.959 54.0492 62.9117C53.8671 62.8772 53.7202 62.7359 53.5397 62.6985C53.3743 62.6641 53.3318 62.8008 53.1901 62.8406C53.0091 62.8915 52.7831 62.8495 52.5988 62.8495C52.0258 62.8495 51.4601 62.6541 50.8918 62.694C50.3633 62.7311 49.9104 63.0045 49.3708 63.0094C48.5652 63.0168 47.7067 63.1938 46.9088 63.0494C46.3866 62.9549 45.8291 63.1154 45.3171 62.9561C44.9547 62.8434 44.6573 62.6953 44.2758 62.6896C44.0652 62.6864 43.8635 62.6863 43.6547 62.6496C42.5001 62.4468 41.3309 62.6096 40.1738 62.6096C39.6991 62.6096 39.3169 62.4542 38.8536 62.3875C38.3259 62.3116 37.767 62.3697 37.2358 62.3697C36.7789 62.3697 36.3203 62.3554 35.8635 62.3697C35.4837 62.3817 35.1019 62.5753 34.7144 62.6052C34.0509 62.6563 33.3898 62.622 32.7248 62.6896C32.1976 62.7432 31.6939 62.9671 31.1628 63.0272C29.6359 63.2 28.0554 63.2306 26.5215 63.2493C25.6379 63.2601 24.7536 63.2493 23.8699 63.2493C22.78 63.2493 21.7342 62.9449 20.6456 62.9295C19.2343 62.9094 17.8311 62.6096 16.4134 62.6096C15.1416 62.6096 13.9259 62.4801 12.6499 62.6896C11.6702 62.8504 10.6607 63.1546 9.67472 63.1693C8.27641 63.1902 6.81554 63.5424 5.44999 63.889C5.14571 63.9662 4.62911 64.0829 4.33059 63.9112C4.04549 63.7472 3.96986 63.3293 3.62771 63.3293C3.25799 63.3293 2.94514 63.5012 2.58641 63.5869C2.45474 63.6184 1.9067 64.0591 1.85377 63.9467C1.70799 63.6372 1.64264 63.1336 1.60461 62.7784C1.57205 62.4744 1.53597 61.9456 1.28478 61.7656C1.21203 61.7134 1.12005 61.7661 1.0542 61.7212C0.905633 61.6197 0.917112 60.5289 0.898004 60.3263C0.849401 59.811 0.876142 59.2575 0.92032 58.7448C1.06573 57.0575 1.06873 55.3556 1.15461 53.6628C1.20227 52.7236 1.27785 51.8073 1.28478 50.8642C1.29017 50.1292 1.35693 49.396 1.35172 48.6608C1.34936 48.3285 1.21658 48.0993 1.15833 47.7813C0.947943 46.6324 1.02099 45.3582 0.964945 44.183C0.913523 43.1047 0.886133 42.0341 0.78644 40.9623C0.669592 39.7062 0.870005 38.4631 0.883131 37.2086C0.893565 36.2115 0.851218 35.1576 1.02073 34.179C1.16458 33.3485 1.18482 32.5088 1.33684 31.6735C1.39028 31.3799 1.47268 30.9844 1.41494 30.674C1.36305 30.3951 1.24238 30.1022 1.18809 29.8122C1.0913 29.2954 1.12153 28.802 1.08023 28.284C1.01801 27.5036 1.01701 26.7243 1.01701 25.9341C1.01701 25.0141 0.883132 24.1185 0.883132 23.2154C0.883132 21.7498 1.01701 20.2947 1.01701 18.8353C1.01701 17.8548 1.1509 16.9327 1.1509 15.9478L1.1509 12.856C1.1509 11.9686 1.49735 11.0891 1.31825 10.1906C1.23175 9.75663 1.28478 9.26072 1.28478 8.82238C1.28478 8.34027 1.21784 7.86291 1.21784 7.38752C1.21784 6.22006 1.03151 4.99334 1.25131 3.83813C1.37595 3.18303 1.34984 2.50338 1.42238 1.8391C1.4356 1.718 1.64491 0.615606 1.73105 0.577495C2.08268 0.42193 2.82815 0.502936 3.22607 0.577495C4.01659 0.725617 4.7931 0.559726 5.58388 0.559726C6.02227 0.559726 6.46748 0.6874 6.90411 0.635245C7.26238 0.592449 7.52544 0.249326 7.89706 0.239881C8.71865 0.219 9.51727 0.399804 10.3367 0.399804C10.833 0.399804 11.2947 0.559726 11.7945 0.559726C12.2872 0.559726 12.7683 0.584342 13.2598 0.621918C14.7508 0.735901 16.2471 0.559726 17.7374 0.559726C18.4887 0.559726 19.2532 0.631201 19.9911 0.444227C20.5278 0.308223 21.0845 0.15992 21.6349 0.159921C22.0369 0.159921 22.3835 0.27739 22.7729 0.364266C23.0871 0.434391 23.4085 0.375582 23.7249 0.417573C24.225 0.483942 24.6793 0.559727 25.1864 0.559727L27.8306 0.559727C30.3897 0.559727 32.6253 2.58211 35.2536 2.11453C35.9412 1.9922 36.6049 1.68228 37.2991 1.61699C38.0172 1.54945 38.7504 1.59922 39.4709 1.59922C39.8752 1.59922 40.2701 1.47608 40.661 1.35934C41.1966 1.1994 41.7943 1.19941 42.3457 1.19942L42.3568 1.19942C43.0259 1.19942 43.6911 1.35934 44.3576 1.35934C44.597 1.35934 44.8314 1.32341 45.0642 1.26161C45.4283 1.16498 45.6155 0.751558 45.927 0.524189C46.3539 0.212577 46.7183 0.239883 47.2063 0.239883C47.8601 0.239883 48.4605 0.690364 49.0956 0.541959C49.744 0.390411 50.4166 0.627023 51.074 0.639689C52.004 0.657606 52.9446 0.863992 53.8707 0.879573C54.6022 0.89188 55.3288 0.959534 56.0574 0.959534C56.4138 0.959534 56.7266 0.799612 57.0839 0.799612C57.5466 0.799612 57.9469 1.0395 58.4004 1.0395C58.7957 1.0395 59.173 1.07091 59.5607 1.11501C59.7839 1.14041 59.9997 1.1355 60.2078 1.0395C60.5636 0.875265 60.9144 0.878252 61.2677 0.755189Z" fill="#E5D9CF"/>
<path d="M36.126 25.5463H38.0843V22.2338C37.1361 22.1352 36.1834 22.0865 35.2301 22.0879C32.3968 22.0879 30.4593 23.8171 30.4593 26.9838V29.7129H27.2614V33.4213H30.4593V42.9213H34.2926V33.4213H37.4801L37.9593 29.7129H34.2926V27.3483C34.2926 26.2546 34.5843 25.5463 36.126 25.5463Z" fill="#191411"/>
</svg>
