<svg width="331" height="4" viewBox="0 0 331 4" fill="none" xmlns="http://www.w3.org/2000/svg">
<path d="M1.06812 3.7891C0.548482 3.86962 -9.46929e-06 3.82936 -9.4564e-06 3.68621C-9.4157e-06 3.2344 4.90768 3.06889 8.4874 3.41781C11.1433 3.68621 12.0671 3.66385 13.3951 3.35519C14.3189 3.10916 14.9829 3.08679 14.9829 3.27467C14.9829 3.45808 16.0511 3.5207 17.7832 3.41781C19.6308 3.31492 19.9194 3.21205 18.5914 3.14942C17.5233 3.08679 17.1191 2.94365 17.6676 2.8005C18.1873 2.65735 19.5153 2.65735 20.9876 2.84076C22.1712 3.00627 22.8351 3.2523 22.3154 3.37755C21.9113 3.5028 22.1711 3.6057 23.2393 3.6057C24.1631 3.6057 24.9715 3.48044 24.9715 3.33729C24.9715 3.17178 26.0395 3.17179 28.4356 3.35967C30.2832 3.52518 33.4876 3.58781 35.4796 3.52518C38.5396 3.44466 38.3954 3.42229 34.6713 3.38203C28.9553 3.34177 27.252 2.94811 31.7556 2.76471C33.7475 2.68419 36.5477 2.80497 38.3953 3.03311C42.1194 3.52518 49.1346 3.73095 50.6069 3.38203C51.1265 3.23888 50.2027 3.17626 48.2108 3.21652C46.2188 3.27915 44.8908 3.19414 44.8908 2.97048C44.8908 2.53656 51.3863 2.76471 52.7143 3.25678C53.1184 3.44019 54.1865 3.6057 54.9659 3.6057C55.7743 3.6057 56.0342 3.44019 55.4857 3.25678C54.9661 3.05101 55.3412 2.80497 56.4094 2.72445C57.3332 2.62156 58.1416 2.70209 58.1416 2.8676C58.1416 3.03311 58.5457 3.11363 59.2097 3.03311C59.7294 2.93023 61.346 3.03311 62.674 3.23888C64.002 3.44466 67.0619 3.61017 69.4292 3.5878C73.4131 3.56544 73.5575 3.54755 70.6129 3.35967C66.7734 3.09127 67.0332 3.07337 73.5287 2.98838C76.8486 2.92575 77.6568 2.98839 76.3288 3.23442C75.0009 3.48045 76.0691 3.58334 80.5726 3.66833C83.8925 3.70859 86.9525 3.66833 87.3278 3.56544C87.732 3.46256 89.3198 3.44019 90.7921 3.54755C92.9284 3.6728 93.3036 3.58781 92.3798 3.19863C91.3117 2.72445 91.4561 2.72445 93.7079 3.19863C96.2194 3.69069 100.463 3.52965 98.4711 3.01522C97.6628 2.80944 98.067 2.80945 99.7991 3.03759C101.271 3.20311 102.859 3.28362 103.523 3.18073C104.043 3.10021 104.591 3.15837 104.591 3.32388C104.591 3.48939 105.4 3.61018 106.323 3.61018C107.247 3.61018 107.507 3.46702 106.987 3.27914C106.064 3.03311 106.179 3.03311 108.056 3.27914C110.856 3.69069 117.871 3.71307 117.871 3.31942C117.871 3.11364 118.679 3.13601 120.383 3.35968C122.374 3.60571 122.894 3.60571 122.894 3.31942C122.894 3.03312 123.154 3.03312 124.222 3.31942C125.406 3.58782 125.81 3.58781 126.618 3.29704C127.426 2.96602 130.342 2.92575 144.141 3.0689C145.325 3.09127 145.729 3.21205 145.21 3.3552C143.622 3.74438 151.445 3.64149 155.025 3.21205C156.873 3.00628 157.421 2.84077 156.353 2.84077C155.285 2.84077 154.361 2.71551 154.361 2.57237C154.361 2.42922 155.949 2.44711 158.489 2.61263C160.741 2.77814 162.069 3.02418 161.549 3.18969C160.885 3.3731 161.289 3.3552 162.617 3.17179C164.09 2.96602 166.082 2.94366 168.997 3.10917C171.798 3.27469 173.79 3.27469 174.829 3.10918C176.965 2.78262 179.881 2.73788 178.553 3.0689C178.033 3.19416 179.217 3.23443 181.065 3.14943C183.72 3.04655 183.98 2.96602 182.248 2.77814C180.776 2.61263 181.44 2.61263 184.24 2.73788C189.956 2.98392 199.252 3.04654 198.299 2.8184C197.895 2.71551 198.963 2.57237 200.811 2.49185C202.658 2.42923 204.535 2.45159 204.939 2.57237C205.343 2.67526 207.739 2.81841 209.991 2.89893C213.166 2.97945 214.119 2.92129 213.455 2.67079C212.936 2.46501 213.195 2.32187 213.975 2.32187C214.783 2.32187 215.967 2.50527 216.486 2.75578C217.41 3.14496 217.814 3.14495 219.287 2.8184C220.615 2.53211 221.134 2.53211 221.798 2.75578C222.866 3.16733 225.927 3.18969 225.263 2.79604C225.118 2.63053 225.927 2.44711 227.254 2.38449C228.842 2.2816 229.102 2.36212 228.178 2.61263C226.994 2.89893 227.11 2.89893 229.506 2.61263C231.094 2.40686 232.306 2.32634 232.306 2.42922C232.306 2.53211 233.634 2.49185 235.222 2.34871C237.07 2.18319 239.206 2.20556 241.458 2.38897C245.961 2.76025 253.525 2.88103 254.737 2.59474C255.142 2.46948 253.929 2.41133 251.822 2.46948C248.357 2.57237 248.357 2.57237 251.418 2.34423C253.265 2.21898 255.257 2.16082 255.921 2.21898C256.441 2.2816 257.509 2.19661 258.057 2.05347C259.385 1.72244 262.301 1.97295 262.186 2.40239C262.186 2.5679 261.522 2.54554 260.598 2.32187C259.27 1.99532 259.01 1.99531 259.01 2.38449C259.01 2.73341 260.078 2.81842 263.802 2.77368C266.458 2.75132 268.594 2.64842 268.306 2.54554C268.161 2.44265 268.825 2.36213 269.778 2.36213C270.702 2.36213 271.25 2.46501 271.106 2.5679C270.586 2.85419 279.478 2.75131 280.921 2.44265C281.73 2.27713 282.105 2.31739 282.105 2.52316C282.105 2.80946 282.913 2.80947 285.944 2.50528C288.745 2.21451 290.592 2.17425 292.844 2.36213C295.356 2.59027 295.644 2.54554 294.692 2.01321C294.028 1.68666 294.172 1.53903 294.951 1.68665C298.127 2.30397 304.767 2.55002 309.155 2.2011C312.215 1.95507 313.283 1.93269 312.735 2.16083C312.215 2.32634 313.254 2.46949 315.131 2.46949C316.978 2.46949 318.046 2.36661 317.527 2.26372C317.123 2.13847 318.855 2.08031 321.511 2.09821C324.022 2.13847 327.082 2.07584 328.266 1.97296C331.326 1.68666 330.662 1.06934 327.342 1.04697C325.754 1.04697 316.719 1.00671 307.307 0.966453C298.012 0.903826 289.928 0.944082 289.524 1.04697C289.12 1.12749 286.06 1.14985 282.625 1.06933C279.16 0.966442 268.825 0.926182 259.789 0.944074C224.483 1.0067 139.147 1.37799 123.731 1.53902C122.807 1.53902 117.9 1.49876 112.848 1.43613C107.132 1.3735 103.292 1.43614 102.628 1.64191C101.704 1.84769 101.3 1.84769 101.3 1.64191C101.3 1.41377 88.1649 1.33325 52.974 1.33325" fill="#C54B38"/>
</svg>
