<svg width="95" height="81" viewBox="0 0 95 81" fill="none" xmlns="http://www.w3.org/2000/svg">
<path d="M36.4368 72.3471C36.5351 72.0521 36.5351 71.6589 36.5843 71.3393L36.8055 71.6588L37.5429 71.1181L35.8714 68.832L35.8222 70.1594C35.7977 70.946 35.6993 71.6097 35.5519 72.1013C35.4044 72.5929 35.1831 72.4454 34.9619 72.5929L35.9206 73.1091C36.4122 72.7896 36.2401 72.9616 36.4368 72.3471Z" fill="#191411"/>
<path d="M64.3614 57.5508L64.9022 56.8134C63.6732 55.5106 62.4933 54.8223 61.3871 54.6502C61.1167 54.6011 60.8464 54.6011 60.576 54.6011C59.7894 54.6502 59.0519 54.9452 58.4374 55.3631C56.7659 56.4938 55.7089 58.5586 55.1436 59.8614L55.9793 60.2301C56.5201 59.0011 57.5771 57.0592 58.9536 56.1251C59.6419 55.6581 60.3793 55.4123 61.2396 55.5597C61.6821 55.6335 62.1983 55.8547 62.7391 56.1988C62.1 56.1743 61.4363 56.248 60.748 56.543C59.2732 57.2067 57.8966 58.8044 56.9871 61.9016L57.872 62.1474C58.7324 59.1977 59.9368 57.8949 61.1167 57.3787C62.272 56.8625 63.4765 57.1083 64.3614 57.5508Z" fill="#191411"/>
<path d="M32.4802 66.9405L33.1931 66.3505C31.4478 64.2612 29.8992 63.7695 28.5227 63.3025L28.0557 64.0645C28.0557 64.0645 30.8825 65.8835 31.2758 71.0947L32.2344 71.5126C31.9886 68.0958 30.6367 66.1293 29.7272 64.7774C30.5875 65.1706 31.4478 65.7114 32.4802 66.9405Z" fill="#191411"/>
<path d="M36.5111 64.3347C35.6999 62.5894 34.348 60.4263 32.4798 57.8699C32.4798 57.8699 32.4798 57.8698 32.4798 57.8453C32.4552 57.8207 32.4552 57.7961 32.4061 57.7224C32.3815 57.6978 32.3815 57.6978 32.3323 57.6486C32.3077 57.624 32.2832 57.624 32.2586 57.5995C32.234 57.5749 32.1111 57.5503 32.1111 57.5503L31.8899 57.5749C31.8899 57.5749 31.6932 57.6978 31.6932 57.7224C31.6932 57.7224 31.6195 57.8207 31.6195 57.8699C31.5949 57.919 31.5949 57.9436 31.5949 57.9682L31.5703 58.1648L31.6932 58.3123C31.6932 58.3123 31.6932 58.3369 31.7178 58.3369C31.7178 58.3615 31.7424 58.3615 31.7424 58.4106C31.7915 58.5335 31.8899 58.7548 31.9882 59.0252C32.1848 59.5905 32.4798 60.4017 32.7502 61.4095C33.3156 63.4252 33.8809 66.1537 33.9547 69.0051L34.8642 68.9805C34.7904 66.0307 34.2005 63.2285 33.6105 61.1637C34.4709 62.4911 35.2083 63.7201 35.6753 64.728L36.5111 64.3347Z" fill="#191411"/>
<path d="M51.4073 67.9963C51.2844 65.6365 51.3582 62.441 48.6051 59.5159L47.9414 60.155C50.4733 62.8343 50.3749 65.6366 50.4978 68.0701L51.4073 67.9963Z" fill="#191411"/>
<path d="M49.4162 71.5618L49.49 73.0858L50.3995 73.0367L50.2274 69.6199L49.3425 69.4724C48.7525 70.9719 47.7693 73.7741 47.6956 76.8221L48.605 76.8467C48.6542 75.126 48.9984 72.3976 49.4162 71.5618Z" fill="#191411"/>
<path d="M50.5215 55.8058L51.3327 56.2237C52.7338 53.4461 54.2824 51.6517 55.9047 50.3243C54.307 52.7578 53.0287 55.3142 52.3405 58.1165L53.2254 58.3377C54.0611 54.8963 55.8801 51.7746 58.0924 48.7511L57.5025 48.0874C54.9952 49.5131 52.5863 51.7254 50.5215 55.8058Z" fill="#191411"/>
<path d="M54.4309 67.9473C54.013 69.5205 52.6119 74.4858 52.0957 75.2724L52.8577 75.764C53.3739 75.002 54.6767 70.5774 54.9717 69.4467C55.2666 70.602 55.365 72.2244 55.3896 73.9696H56.2991C56.2745 71.5361 56.2745 69.1517 55.2421 67.7752L54.6767 67.0132L54.4309 67.9473Z" fill="#191411"/>
<path d="M49.7609 53.9366L50.6212 53.5925C49.6626 51.1344 47.5486 50.0774 45.8279 48.5288L45.1396 49.1433C46.9586 51.6506 48.4581 53.5679 48.4581 55.9769H49.3676C49.3676 54.207 48.6302 52.7322 47.6715 51.2573C48.5564 51.9947 49.3184 52.8059 49.7609 53.9366Z" fill="#191411"/>
<path d="M40.1494 60.4019C40.1494 60.4019 37.7897 62.6141 36.3885 66.375L37.2489 66.6946C37.7159 65.4655 38.2567 64.5069 38.7975 63.6711C38.3796 65.1706 38.355 66.4242 38.4042 67.7762L39.3137 67.7516C39.2399 65.5884 39.1908 64.1136 40.8869 60.9672L40.1494 60.4019Z" fill="#191411"/>
<path d="M45.3115 68.0954C44.697 65.1211 44.23 64.4574 43.0747 63.1055L42.2881 63.5233C43.0009 66.3747 43.3696 69.1278 42.9272 71.6842L43.8367 71.8317C44.2054 69.7178 43.9596 67.5301 43.5417 65.3178C43.8613 65.9323 44.0825 66.7435 44.402 68.2921L45.3115 68.0954Z" fill="#191411"/>
<path d="M39.7809 70.8732L40.4938 69.2754C40.715 68.7592 40.9608 68.1693 41.182 67.5793C41.305 69.3738 41.5262 70.8978 41.9195 72.0777L42.7798 71.7827C42.2145 70.062 41.8457 67.8497 41.9932 64.4084L41.0837 64.3101C40.9117 65.4162 40.6658 66.252 40.3955 67.014L39.6826 66.8911C39.5105 67.8989 39.5351 68.5626 39.6089 69.1279L39.7809 70.8732Z" fill="#191411"/>
<path d="M57.9457 66.4486C56.3725 60.5738 50.1044 56.395 46.4172 56.395C46.2206 56.395 46.0485 56.5671 46.4664 57.1079C47.253 58.1157 51.2351 61.4341 51.9479 63.8676L52.8329 63.6218C52.2675 61.6799 50.4977 59.4922 48.4574 57.7961C52.2675 59.3201 55.8809 62.2945 57.0608 66.6945L57.9457 66.4486Z" fill="#191411"/>
<path d="M46.762 61.9743L47.4748 61.3844C46.2703 59.9095 45.3854 59.1721 43.7631 58.9754C43.5419 58.9509 43.124 58.9263 42.6815 58.9263C42.6815 58.9263 41.9441 58.9263 41.8703 59.1475C41.7966 59.3687 42.5094 59.9587 42.5094 59.9587C44.648 62.1464 45.5821 63.9654 45.9262 65.8827C46.2458 67.8 45.9508 69.6682 45.5575 71.5609L46.467 71.7576C46.8849 69.8402 47.2044 67.8246 46.8357 65.7352C46.5162 63.8916 45.6067 61.9497 43.8614 59.9587C44.8446 60.1307 45.8033 60.7944 46.762 61.9743Z" fill="#191411"/>
<path d="M47.8355 61.4221L47.0996 62.8125L47.9034 63.238L48.6394 61.8476L47.8355 61.4221Z" fill="#191411"/>
<path d="M59.9856 71.6602C60.551 67.5306 59.7644 65.7853 61.6817 59.7384L62.1733 58.2144L60.9443 59.2468C58.904 60.992 58.437 62.0982 57.5029 64.1138L58.3387 64.5071C59.0024 63.0814 59.5432 62.1965 60.3543 61.2378C59.1253 65.9328 59.5677 69.2267 59.1007 72.7417L59.9856 71.6602Z" fill="#191411"/>
<path d="M47.326 77.5104C46.1707 77.5104 44.9908 77.2646 43.9092 76.7976L9.56955 61.7048C6.49692 60.3529 4.50586 57.3048 4.50586 53.9372V27.2423C4.50586 23.8747 6.49692 20.8266 9.56955 19.4747L43.9092 4.40649C46.0723 3.44784 48.555 3.44784 50.7182 4.40649L85.0578 19.4747C88.1305 20.8266 90.1215 23.8747 90.1215 27.2423V53.9618C90.1215 57.3294 88.1305 60.3775 85.0578 61.7294L50.7182 76.7976C49.6366 77.2646 48.4813 77.5104 47.326 77.5104ZM47.326 4.57856C46.2936 4.57856 45.2366 4.7998 44.2779 5.21767L9.93826 20.2858C7.18519 21.4903 5.39078 24.2188 5.39078 27.2423V53.9618C5.39078 56.9607 7.16061 59.6892 9.93826 60.9182L44.2779 75.9618C46.2198 76.8222 48.4321 76.8222 50.374 75.9618L84.7137 60.8937C87.4668 59.6892 89.2612 56.9607 89.2612 53.9372V27.2423C89.2612 24.2434 87.4913 21.5149 84.7137 20.2858L50.374 5.21767C49.3908 4.7998 48.3584 4.57856 47.326 4.57856Z" fill="#191411"/>
<path d="M47.3257 77.5844C46.1212 77.5844 44.9659 77.3386 43.8843 76.8716L9.54466 61.8034C6.42287 60.4269 4.40723 57.3542 4.40723 53.9621V27.2425C4.40723 23.8503 6.42287 20.7531 9.54466 19.4012L43.8843 4.33301C46.072 3.37435 48.5793 3.37435 50.7916 4.33301L85.1313 19.4012C88.253 20.7777 90.2687 23.8503 90.2687 27.2425V53.9621C90.2687 57.3542 88.253 60.4515 85.1313 61.8034L50.7916 76.8716C49.6854 77.3632 48.5056 77.5844 47.3257 77.5844ZM47.3257 3.76764C46.1704 3.76764 45.015 4.01346 43.9581 4.4805L9.6184 19.5487C6.57035 20.876 4.60387 23.8995 4.60387 27.2425V53.9621C4.60387 57.2805 6.57035 60.304 9.6184 61.6559L43.9581 76.6995C45.015 77.1665 46.1704 77.4124 47.3257 77.4124C48.5056 77.4124 49.6363 77.1665 50.6933 76.6995L85.0329 61.6313C88.081 60.304 90.0475 57.2805 90.0475 53.9375V27.2425C90.0475 23.9241 88.081 20.9006 85.0329 19.5487L50.6933 4.4805C49.6117 4.01346 48.481 3.76764 47.3257 3.76764ZM47.3257 76.6995C46.2687 76.6995 45.2117 76.4783 44.2285 76.0604L9.88879 60.9677C7.11113 59.7386 5.29214 56.9855 5.29214 53.9375V27.2425C5.29214 24.1945 7.08655 21.4414 9.88879 20.2123L44.2285 5.14418C45.2117 4.7263 46.2441 4.50507 47.3257 4.50507C48.4072 4.50507 49.4396 4.7263 50.4229 5.14418L84.7625 20.2123C87.5402 21.4414 89.3592 24.1945 89.3592 27.2425V53.9621C89.3592 57.0101 87.5648 59.7632 84.7625 60.9922L50.4229 76.0604C49.415 76.4783 48.3827 76.6995 47.3257 76.6995ZM47.3257 4.67714C46.2687 4.67714 45.2609 4.89837 44.3022 5.31625L9.96253 20.3844C7.23404 21.5889 5.48879 24.2682 5.48879 27.2425V53.9621C5.48879 56.9364 7.25862 59.6403 9.96253 60.8202L44.3022 75.8883C46.2195 76.7241 48.4072 76.7241 50.3245 75.8883L84.6642 60.8202C87.3927 59.6157 89.138 56.9364 89.138 53.9621V27.2425C89.138 24.2682 87.3681 21.5889 84.6642 20.3844L50.3245 5.31625C49.3905 4.87379 48.3581 4.67714 47.3257 4.67714Z" fill="#191411"/>
<path d="M47.3245 80.8302C46.1692 80.8302 45.0385 80.5844 43.9815 80.1174L5.68428 63.3039C2.66082 61.9766 0.694336 58.9777 0.694336 55.6838V25.4983C0.694336 22.2045 2.66082 19.2056 5.68428 17.8782L43.9815 1.06482C46.12 0.130738 48.5536 0.130738 50.6921 1.06482L88.9893 17.8782C92.0128 19.2056 93.9793 22.2045 93.9793 25.4983V55.6838C93.9793 59.0023 92.0128 61.9766 88.9893 63.3039L50.6921 80.1174C49.6105 80.5844 48.4552 80.8302 47.3245 80.8302ZM47.3245 0.966494C46.2675 0.966494 45.2105 1.18772 44.2027 1.6056L5.90551 18.419C3.10327 19.6481 1.28428 22.4257 1.28428 25.4983V55.6838C1.28428 58.7565 3.10327 61.5341 5.90551 62.7631L44.2027 79.5766C46.1692 80.4369 48.4552 80.4369 50.4217 79.5766L88.7189 62.7631C91.5212 61.5341 93.3402 58.7565 93.3402 55.6838V25.4983C93.3402 22.4257 91.5212 19.6481 88.7189 18.419L50.4217 1.6056C49.4385 1.18772 48.3815 0.966494 47.3245 0.966494Z" fill="#191411"/>
<path d="M47.3242 80.9289C46.1443 80.9289 45.0136 80.6831 43.932 80.2161L5.63481 63.4027C2.56218 62.0507 0.595703 59.0273 0.595703 55.6842V25.4988C0.595703 22.1557 2.56218 19.1323 5.63481 17.7803L43.932 0.966916C46.0951 0.0328378 48.5532 0.0328378 50.7164 0.966916L89.0136 17.7803C92.0862 19.1323 94.0527 22.1557 94.0527 25.4988V55.6842C94.0527 59.0273 92.0862 62.0507 89.0136 63.4027L50.7164 80.2161C49.6348 80.6831 48.5041 80.9289 47.3242 80.9289ZM47.3242 0.450713C46.1935 0.450713 45.0628 0.671947 44.0058 1.13899L5.70855 17.9524C2.70967 19.2552 0.792348 22.2295 0.792348 25.4988V55.6842C0.792348 58.9535 2.73425 61.9032 5.70855 63.2306L44.0058 80.044C45.0628 80.5111 46.1689 80.7323 47.3242 80.7323C48.4795 80.7323 49.5857 80.5111 50.6426 80.044L88.9398 63.2306C91.9387 61.9032 93.856 58.9535 93.856 55.6842V25.4988C93.856 22.2295 91.9142 19.2552 88.9398 17.9524L50.6426 1.13899C49.5857 0.696528 48.4549 0.450713 47.3242 0.450713ZM47.3242 80.3144C46.2426 80.3144 45.1856 80.0932 44.1778 79.6507L5.88062 62.8373C3.02922 61.5837 1.21023 58.7815 1.21023 55.6597V25.4988C1.21023 22.4016 3.0538 19.5747 5.88062 18.3211L44.1778 1.5077C45.1856 1.06524 46.2426 0.844011 47.3242 0.844011C48.4058 0.844011 49.4873 1.06524 50.4706 1.5077L88.7678 18.3211C91.6192 19.5747 93.4382 22.377 93.4382 25.4988V55.6842C93.4382 58.7814 91.5946 61.6083 88.7678 62.8619L50.4706 79.6507C49.4627 80.0932 48.3812 80.3144 47.3242 80.3144ZM47.3242 1.04066C46.2672 1.04066 45.2348 1.26189 44.2516 1.67976L5.95436 18.4932C3.17671 19.7222 1.38229 22.4507 1.38229 25.4988V55.6842C1.38229 58.7077 3.17671 61.4608 5.95436 62.6898L44.2516 79.5032C46.1935 80.3636 48.4549 80.3636 50.3968 79.5032L88.6695 62.6898C91.4471 61.4608 93.2415 58.7323 93.2415 55.6842V25.4988C93.2415 22.4753 91.4471 19.7222 88.6695 18.4932L50.3722 1.67976C49.4136 1.26189 48.3812 1.04066 47.3242 1.04066Z" fill="#191411"/>
<path d="M28.2505 32.6984C28.2505 32.7476 28.2505 32.8459 28.2505 32.8459H25.7186C25.7186 32.8459 25.7186 32.7476 25.7186 32.6984C26.0382 32.5018 26.1857 32.2068 26.1857 31.4694V21.0716C26.1857 19.7196 25.9153 19.695 24.6616 20.285L24.5879 20.1621L27.7588 18.3677V31.4694C27.7834 32.2068 27.9555 32.5018 28.2505 32.6984Z" fill="#191411"/>
<path d="M28.3483 32.9441H25.6444V32.6491L25.6936 32.6245C25.964 32.477 26.1114 32.2312 26.1114 31.4938V21.096C26.1114 20.4815 26.0623 20.1865 25.9148 20.0882C25.7427 19.9653 25.3494 20.1128 24.7349 20.4078L24.6612 20.4323L24.5137 20.1619L24.5874 20.1128L27.8813 18.2446V31.5184C27.8813 32.2558 28.0533 32.5016 28.3237 32.6491L28.3729 32.6737V32.9441H28.3483ZM25.8165 32.7474H28.1517C27.8075 32.5262 27.6846 32.1575 27.6846 31.4692V18.515L25.0545 20.0145C25.5215 19.8178 25.8165 19.7686 26.0131 19.8916C26.2589 20.039 26.3081 20.4569 26.3081 21.0714V31.4692C26.3081 32.1821 26.1606 32.5262 25.8165 32.7474Z" fill="#191411"/>
<path d="M41.2057 25.5707C41.2057 29.9461 38.6493 32.9695 35.5521 32.9695C32.6269 32.9695 29.8984 29.6265 29.8984 25.5707C29.8984 21.2198 32.4057 18.1718 35.5521 18.1718C38.5018 18.1472 41.2057 21.4656 41.2057 25.5707ZM39.3376 23.8746C38.5264 20.2366 36.5599 17.6801 34.0281 18.6634C31.4716 19.6466 30.9554 23.6042 31.7666 27.2422C32.5778 30.9047 34.5688 33.4366 37.0515 32.4779C39.6571 31.4701 40.1487 27.5371 39.3376 23.8746Z" fill="#191411"/>
<path d="M35.5518 33.0684C32.5037 33.0684 29.7998 29.5533 29.7998 25.5712C29.7998 21.2941 32.2579 18.074 35.5518 18.074C38.5998 18.074 41.3037 21.5891 41.3037 25.5712C41.3037 29.8483 38.8456 33.0684 35.5518 33.0684ZM35.5518 18.246C32.3808 18.246 29.9965 21.3924 29.9965 25.5712C29.9965 29.455 32.602 32.8717 35.5518 32.8717C38.7227 32.8717 41.1071 29.7254 41.1071 25.5712C41.1071 21.6628 38.5261 18.246 35.5518 18.246ZM36.0188 32.7734C35.5763 32.7734 35.1339 32.6505 34.716 32.4293C33.3641 31.6919 32.2579 29.8237 31.6925 27.2427C30.906 23.6784 31.2992 19.598 34.0032 18.541C34.8635 18.2215 35.6747 18.2706 36.4367 18.6639C37.7886 19.4013 38.8702 21.2695 39.4356 23.8259C40.2222 27.4148 39.8043 31.4952 37.1004 32.5276C36.7317 32.6997 36.3629 32.7734 36.0188 32.7734ZM35.1093 18.541C34.7652 18.541 34.421 18.6148 34.0769 18.7377C32.2579 19.4259 30.8076 22.4002 31.8892 27.2181C32.43 29.7254 33.5115 31.5689 34.8143 32.2818C35.5272 32.6505 36.2646 32.6997 37.0512 32.4047C39.6568 31.3969 40.0501 27.4148 39.2635 23.8997C38.7227 21.417 37.6411 19.5734 36.3384 18.8606C35.9451 18.6393 35.5272 18.541 35.1093 18.541Z" fill="#191411"/>
<path d="M54.1597 25.5707C54.1597 29.9461 51.6033 32.9695 48.506 32.9695C45.5809 32.9695 42.8524 29.6265 42.8524 25.5707C42.8524 21.2198 45.3597 18.1718 48.506 18.1718C51.4558 18.1472 54.1597 21.4656 54.1597 25.5707ZM52.2915 23.8746C51.4803 20.2366 49.5139 17.6801 46.982 18.6634C44.4256 19.6466 43.9094 23.6042 44.7206 27.2422C45.5317 30.9047 47.5228 33.4366 50.0055 32.4779C52.6111 31.4701 53.1027 27.5371 52.2915 23.8746Z" fill="#191411"/>
<path d="M48.5057 33.0684C45.4577 33.0684 42.7538 29.5533 42.7538 25.5712C42.7538 21.2941 45.2119 18.074 48.5057 18.074C51.5538 18.074 54.2577 21.5891 54.2577 25.5712C54.2577 29.8483 51.775 33.0684 48.5057 33.0684ZM48.5057 18.246C45.3348 18.246 42.9504 21.3924 42.9504 25.5712C42.9504 29.455 45.556 32.8717 48.5057 32.8717C51.6767 32.8717 54.061 29.7254 54.061 25.5712C54.061 21.6628 51.48 18.246 48.5057 18.246ZM48.9728 32.7734C48.5303 32.7734 48.0879 32.6505 47.67 32.4293C46.318 31.6919 45.2119 29.8237 44.6465 27.2427C43.8599 23.6784 44.2532 19.598 46.9571 18.541C47.8175 18.2215 48.6286 18.2706 49.3907 18.6639C50.7426 19.4013 51.8242 21.2695 52.3895 23.8259C53.1761 27.4148 52.7582 31.4952 50.0543 32.5276C49.6856 32.6997 49.3169 32.7734 48.9728 32.7734ZM48.0633 18.541C47.7191 18.541 47.375 18.6148 47.0309 18.7377C45.2119 19.4259 43.7616 22.4002 44.8432 27.2181C45.384 29.7254 46.4655 31.5689 47.7683 32.2818C48.4812 32.6505 49.2186 32.6997 50.0052 32.4047C52.6108 31.3969 53.0041 27.4148 52.2175 23.8997C51.6767 21.417 50.5951 19.5734 49.2923 18.8606C48.899 18.6393 48.4812 18.541 48.0633 18.541Z" fill="#191411"/>
<path d="M58.3631 28.2008C56.7654 28.2008 55.3643 26.9717 55.3643 25.3494C55.3643 23.727 56.7654 22.498 58.3631 22.498C59.9609 22.498 61.362 23.727 61.362 25.3494C61.3374 26.9471 59.9609 28.2008 58.3631 28.2008ZM60.4279 25.3494C60.4279 23.8499 59.6414 22.6209 58.3631 22.6209C57.0849 22.6209 56.2983 23.8499 56.2983 25.3494C56.2983 26.8242 57.0849 28.0533 58.3631 28.0533C59.6168 28.0533 60.4279 26.8242 60.4279 25.3494ZM65.5654 22.0063L59.6168 33.3382H59.5184L65.4671 22.0063H65.5654ZM69.4492 30.0689C69.4492 31.6667 68.0726 32.9203 66.4503 32.9203C64.8525 32.9203 63.4514 31.6913 63.4514 30.0689C63.4514 28.4466 64.8525 27.2175 66.4503 27.2175C68.0726 27.2175 69.4492 28.4466 69.4492 30.0689ZM68.5151 30.0689C68.5151 28.5695 67.7285 27.3404 66.4503 27.3404C65.1721 27.3404 64.3855 28.5695 64.3855 30.0689C64.3855 31.5438 65.1721 32.7728 66.4503 32.7728C67.7285 32.7974 68.5151 31.5438 68.5151 30.0689Z" fill="#191411"/>
<path d="M59.6655 33.4365H59.3459L65.3928 21.908H65.7124L59.6655 33.4365ZM66.4498 33.0186C64.7537 33.0186 63.3772 31.6912 63.3772 30.0688C63.3772 28.4465 64.7537 27.1191 66.4498 27.1191C68.1459 27.1191 69.5224 28.4465 69.5224 30.0688C69.547 31.6912 68.1459 33.0186 66.4498 33.0186ZM67.1627 27.3895C68.023 27.7337 68.6129 28.7661 68.6129 30.0688C68.6129 31.3716 68.023 32.3795 67.1627 32.7482C68.4163 32.4532 69.3504 31.3716 69.3504 30.0688C69.3504 28.7661 68.4163 27.6845 67.1627 27.3895ZM65.7616 27.3895C64.5079 27.6845 63.5493 28.7906 63.5493 30.0688C63.5493 31.3471 64.4833 32.4532 65.737 32.7482C64.8766 32.4041 64.2867 31.3716 64.2867 30.0688C64.3113 28.7661 64.8766 27.7337 65.7616 27.3895ZM66.4498 27.4387C65.3191 27.4387 64.4833 28.5448 64.4833 30.0688C64.4833 31.3716 65.147 32.699 66.4498 32.699C67.728 32.699 68.4163 31.3716 68.4163 30.0688C68.4163 28.5448 67.6051 27.4387 66.4498 27.4387ZM58.3627 28.2744C56.6666 28.2744 55.29 26.9471 55.29 25.3493C55.29 23.727 56.6666 22.3996 58.3627 22.3996C60.0588 22.3996 61.4353 23.727 61.4353 25.3493C61.4353 26.9716 60.0588 28.2744 58.3627 28.2744ZM59.0509 22.67C59.9113 23.0141 60.5012 24.0465 60.5012 25.3493C60.5012 26.6521 59.9113 27.6599 59.0509 28.0286C60.3046 27.7337 61.2386 26.6521 61.2386 25.3493C61.2632 24.0465 60.3291 22.9649 59.0509 22.67ZM57.6498 22.67C56.3962 22.9649 55.4375 24.0711 55.4375 25.3493C55.4375 26.6275 56.3716 27.7337 57.6252 28.0286C56.7649 27.6845 56.175 26.6521 56.175 25.3493C56.1995 24.0465 56.7895 23.0141 57.6498 22.67ZM58.3627 22.7191C57.2319 22.7191 56.3962 23.8253 56.3962 25.3493C56.3962 26.6521 57.0599 27.9795 58.3627 27.9795C59.6409 27.9795 60.3291 26.6521 60.3291 25.3493C60.3291 23.8253 59.4934 22.7191 58.3627 22.7191Z" fill="#191411"/>
<path d="M20.5812 41.4496C20.5812 41.4496 20.5812 41.5234 20.5812 41.5725C20.3846 41.6954 20.2863 41.8921 20.2863 42.3837V43.8831C19.9175 44.6943 18.5902 46.1446 15.8617 46.1446C13.1332 46.1446 10.9209 43.9323 10.9209 41.1792C10.9209 38.4262 13.4036 36.2139 16.1321 36.2139C17.6315 36.2139 18.541 36.6072 19.6963 37.3692L19.2784 38.9424H19.1801C18.1723 37.3446 16.5254 36.1401 14.7064 36.5334C12.3466 37.0496 11.4863 39.8519 12.2237 42.2854C12.9611 44.7189 14.7801 46.0954 17.2628 45.7759C18.0986 45.653 18.7131 45.2843 19.1801 44.7681V42.9245C19.1801 42.0887 18.7868 41.548 18.1231 41.5234C18.1231 41.4496 18.1231 41.4005 18.1231 41.4005H20.5812V41.4496Z" fill="#191411"/>
<path d="M15.8379 46.2426C13.0603 46.2426 10.7988 43.9812 10.7988 41.1789C10.7988 38.4504 13.2323 36.1152 16.1083 36.1152C17.6569 36.1152 18.5664 36.5331 19.7463 37.2951L19.7955 37.3197L19.353 39.0404H19.1318L19.1072 38.9912C18.2223 37.5901 16.5999 36.2136 14.7318 36.6314C13.8469 36.8281 13.134 37.3443 12.667 38.1555C12.0033 39.2862 11.8804 40.8102 12.3228 42.2851C13.0849 44.7677 14.8793 46.0214 17.2636 45.7018C17.9765 45.6035 18.591 45.2839 19.0826 44.7677V42.9488C19.0826 42.1376 18.7139 41.6705 18.0994 41.6214H18.0011V41.3264H20.6558V41.5722L20.6066 41.5968C20.4346 41.6951 20.3363 41.8426 20.3363 42.3342V43.8583C19.943 44.7677 18.5418 46.2426 15.8379 46.2426ZM13.2323 37.1722C11.8804 38.0571 10.9955 39.532 10.9955 41.1789C10.9955 43.8582 13.1832 46.046 15.8379 46.046C16.3296 46.046 16.7966 45.9968 17.2145 45.8985C14.8055 46.1689 12.9128 44.8661 12.1508 42.3342C11.6837 40.8348 11.8312 39.237 12.5195 38.0571C12.7161 37.7376 12.962 37.418 13.2323 37.1722ZM18.4681 41.5476C18.9597 41.7197 19.2547 42.2359 19.2547 42.9733V44.8415L19.2301 44.8661C19.0826 45.0136 18.9351 45.161 18.7877 45.2839C19.5251 44.8415 19.9675 44.2761 20.1642 43.8583V42.3834C20.1642 41.9409 20.2379 41.6951 20.4346 41.5476H18.4681ZM15.3955 36.3856C17.0178 36.3856 18.3944 37.5901 19.2055 38.8437L19.5742 37.418C18.4681 36.7052 17.5832 36.3119 16.1083 36.3119C15.8134 36.3119 15.4938 36.3365 15.1988 36.3856C15.2726 36.3856 15.3463 36.3856 15.3955 36.3856Z" fill="#191411"/>
<path d="M28.9874 45.9481V46.0464H26.8735V45.9481C27.2422 45.5794 26.9472 45.0878 26.4064 44.1291L24.9316 41.5481C24.7349 41.5727 24.5137 41.5727 24.317 41.5727H23.0388V45.1369C23.0388 45.6285 23.1371 45.8252 23.3338 45.9481C23.3338 45.9727 23.3338 46.0464 23.3338 46.0464H21.6377C21.6377 46.0464 21.6377 45.9727 21.6377 45.9481C21.8343 45.8252 21.9327 45.604 21.9327 45.1369V37.271C21.9327 36.7794 21.8343 36.5827 21.6377 36.4598C21.6377 36.4352 21.6377 36.3369 21.6377 36.3369H24.317C26.4556 36.3369 28.3975 37.1481 28.3975 38.9425C28.3975 40.2453 27.3651 41.0319 25.964 41.3514L27.2176 43.5391C28.0042 45.014 28.4466 45.4811 28.9874 45.9481ZM27.2913 38.9671C27.2913 37.8855 26.9226 36.4598 24.2924 36.4598H23.0142V41.4498H24.2924C26.898 41.4743 27.2913 40.0486 27.2913 38.9671Z" fill="#191411"/>
<path d="M29.0866 46.1452H26.776V45.924L26.8005 45.8994C27.0955 45.6045 26.8743 45.2112 26.3335 44.2279L24.8586 41.6469C24.662 41.6469 24.4899 41.6715 24.2933 41.6715H23.0888V45.1374C23.0888 45.629 23.1871 45.7765 23.3592 45.8748L23.4084 45.8994V46.1452H21.5156V45.8994L21.5648 45.8748C21.7369 45.7765 21.8352 45.629 21.8352 45.1374V37.2715C21.8352 36.7799 21.7369 36.6324 21.5648 36.5341L21.5156 36.5095V36.2637H24.2933C26.2106 36.2637 28.4721 36.9765 28.4721 38.9676C28.4721 40.1721 27.6117 41.057 26.0877 41.4503L27.2676 43.5396C28.1033 44.9899 28.5458 45.457 29.062 45.8994L29.0866 45.924V46.1452ZM26.9972 45.9732H28.8899C28.3983 45.5307 27.9559 45.0391 27.1447 43.638L25.8419 41.3519C25.5961 41.4257 25.3257 41.4994 25.0307 41.524L26.5302 44.1296C27.0218 45.0391 27.3167 45.5799 26.9972 45.9732ZM21.7614 45.9732H23.1626C22.9905 45.8257 22.9167 45.5799 22.9167 45.162V36.4603H21.7369C21.9335 36.6078 22.0072 36.8536 22.0072 37.2961V45.162C22.0072 45.5553 21.9335 45.8011 21.7614 45.9732ZM23.0888 41.3765H24.2933C26.2352 41.3765 27.1938 40.5899 27.1938 38.9676C27.1938 38.3776 27.1938 36.5586 24.2933 36.5586H23.0888V41.3765ZM25.8419 36.6078C26.8743 36.9519 27.3659 37.7385 27.3659 38.9922C27.3659 40.1475 26.8989 40.9341 25.9402 41.3028C26.8251 41.1061 28.2754 40.5162 28.2754 38.9922C28.2754 38.0089 27.6117 36.9765 25.8419 36.6078Z" fill="#191411"/>
<path d="M37.5918 46.0462H35.4778V45.9479C35.8465 45.5792 35.7236 45.1122 35.3303 44.1043L34.642 42.3345H31.2007L30.832 43.3915C30.3895 44.6451 30.3158 45.3334 30.9057 45.9479V46.0462H29.2588V45.9479C29.8487 45.3334 30.2666 44.6943 30.7091 43.3915L32.7985 37.5412L32.3314 36.3613H33.4376L36.1415 43.3915C36.7068 44.768 37.0755 45.3334 37.5918 45.9479V46.0462ZM34.6174 42.2362L32.8722 37.7133L31.2744 42.2362H34.6174Z" fill="#191411"/>
<path d="M37.6907 46.1452H35.3801V45.924L35.4047 45.8994C35.7243 45.5799 35.6259 45.1128 35.2326 44.1542L34.569 42.4581H31.2505L30.9064 43.4413C30.4885 44.6212 30.3902 45.3095 30.9556 45.8994L30.9801 45.924V46.1452H29.1611V45.924L29.1857 45.8994C29.7265 45.3341 30.1444 44.7441 30.6114 43.3676L32.6762 37.5419L32.1846 36.2637H33.4874L33.512 36.3128L36.2159 43.343C36.7812 44.7195 37.1254 45.2603 37.6662 45.8748L37.6907 45.8994V46.1452ZM35.5768 45.9732H37.4695C36.9533 45.3586 36.6092 44.7933 36.0438 43.4413L33.3645 36.4603H32.4796L32.8974 37.5665L34.741 42.3352L35.4047 44.0804C35.798 45.0637 35.9209 45.5799 35.5768 45.9732ZM29.4069 45.9732H30.8081C30.4148 45.5061 30.341 44.9899 30.4885 44.3262C30.169 44.9899 29.8494 45.4816 29.4069 45.9732ZM31.398 42.1385H34.4952L32.8974 37.9598L31.398 42.1385Z" fill="#191411"/>
<path d="M45.3339 37.5168L44.916 38.9671H44.8177C44.0311 37.0989 43.0233 36.4107 41.9171 36.4107C40.5406 36.4107 39.754 37.1973 39.6803 38.0084C39.4099 40.7861 45.3585 39.852 45.3585 43.3179C45.3585 44.9649 43.8836 46.1202 41.9171 46.1202C40.2702 46.1202 39.2378 45.5548 38.1562 44.7436L38.5741 43.1705H38.6725C39.3853 44.5961 40.6635 45.8498 42.4825 45.8498C43.6624 45.8498 44.6456 45.0878 44.744 44.2029C45.1127 41.2531 39.1395 42.1872 39.1395 38.7213C39.1395 37.5906 40.049 36.1895 42.2613 36.1895C43.3428 36.214 44.4982 36.8777 45.3339 37.5168Z" fill="#191411"/>
<path d="M41.8924 46.2426C40.2455 46.2426 39.2131 45.7018 38.0824 44.8415L38.0332 44.7923L38.4757 43.0717H38.6969L38.7215 43.1208C39.1148 43.9074 40.2701 45.751 42.4578 45.751C43.5393 45.751 44.5226 45.0627 44.6455 44.2024C44.8176 42.8504 43.5885 42.3588 42.1628 41.7934C40.7125 41.2281 39.041 40.5644 39.041 38.7208C39.041 37.4672 40.0488 36.1152 42.2611 36.1152C43.4902 36.1152 44.7438 36.951 45.3583 37.4426L45.4075 37.4918L45.3829 37.5409L44.9405 39.0404H44.7192L44.6947 38.9912C43.9818 37.3197 43.0477 36.4839 41.8924 36.4839C40.5159 36.4839 39.803 37.2705 39.7293 38.008C39.6064 39.2616 40.8109 39.7041 42.212 40.2448C43.7114 40.8102 45.4075 41.4493 45.4075 43.3175C45.4321 45.0136 43.9572 46.2426 41.8924 46.2426ZM38.2544 44.7432C39.336 45.5543 40.3438 46.046 41.8924 46.046C42.384 46.046 42.8511 45.9722 43.269 45.8247C43.0232 45.8985 42.7528 45.9476 42.4578 45.9476C40.8846 45.9476 39.4835 44.989 38.6231 43.3175L38.2544 44.7432ZM39.9751 37.0739C39.4589 37.5409 39.2377 38.1554 39.2377 38.7454C39.2377 40.4661 40.7617 41.0806 42.2366 41.646C43.6623 42.2113 45.0142 42.7275 44.8421 44.227C44.7684 44.7923 44.3505 45.3085 43.7852 45.6035C44.6947 45.1365 45.26 44.3007 45.26 43.3175C45.26 41.5722 43.6868 40.9823 42.1874 40.4169C40.7863 39.8761 39.4589 39.3845 39.5818 38.008C39.6064 37.6884 39.7539 37.3689 39.9751 37.0739ZM42.1137 36.3119C43.2444 36.3856 44.1539 37.246 44.8667 38.8191L45.2354 37.5409C44.7192 37.1476 43.4656 36.2873 42.2857 36.2873C42.212 36.3119 42.1628 36.3119 42.1137 36.3119Z" fill="#191411"/>
<path d="M53.3478 37.5166L52.9299 38.9669H52.8316C52.045 37.0987 51.0372 36.4104 49.9311 36.4104C48.5545 36.4104 47.7679 37.197 47.6942 38.0082C47.4238 40.7858 53.3724 39.8518 53.3724 43.3177C53.3724 44.9646 51.8975 46.1199 49.9311 46.1199C48.2841 46.1199 47.2517 45.5546 46.1702 44.7434L46.588 43.1702H46.6864C47.3992 44.5959 48.6774 45.8495 50.4964 45.8495C51.6763 45.8495 52.6595 45.0875 52.7579 44.2026C53.1266 41.2529 47.1534 42.187 47.1534 38.7211C47.1534 37.5903 48.0629 36.1892 50.2752 36.1892C51.3813 36.2138 52.5367 36.8775 53.3478 37.5166Z" fill="#191411"/>
<path d="M49.9317 46.2433C48.2848 46.2433 47.2524 45.7026 46.1217 44.8422L46.0725 44.7931L46.515 43.0724H46.7362L46.7608 43.1216C47.1541 43.9081 48.3094 45.7517 50.4971 45.7517C51.5787 45.7517 52.5619 45.0634 52.6848 44.2031C52.8569 42.8512 51.6278 42.3595 50.2021 41.7942C48.7518 41.2288 47.0803 40.5651 47.0803 38.7215C47.0803 37.4679 48.0881 36.116 50.3004 36.116C51.5295 36.116 52.7831 36.9517 53.3976 37.4433L53.4468 37.4925L53.4222 37.5417L52.9798 39.0411H52.7585L52.734 38.9919C52.0211 37.3204 51.087 36.4847 49.9317 36.4847C48.5552 36.4847 47.8423 37.2713 47.7686 38.0087C47.6457 39.2623 48.8502 39.7048 50.2513 40.2456C51.7507 40.8109 53.4468 41.45 53.4468 43.3182C53.4714 45.0143 51.9965 46.2433 49.9317 46.2433ZM46.2937 44.7439C47.3753 45.5551 48.3831 46.0467 49.9317 46.0467C50.4233 46.0467 50.8904 45.973 51.3083 45.8255C51.0625 45.8992 50.7921 45.9484 50.4971 45.9484C48.9239 45.9484 47.5228 44.9897 46.6625 43.3182L46.2937 44.7439ZM48.0144 37.0746C47.4982 37.5417 47.277 38.1562 47.277 38.7461C47.277 40.4668 48.801 41.0813 50.2759 41.6467C51.7016 42.2121 53.0535 42.7283 52.8814 44.2277C52.8077 44.7931 52.3898 45.3093 51.8245 45.6042C52.734 45.1372 53.2993 44.3014 53.2993 43.3182C53.2993 41.5729 51.7261 40.983 50.2267 40.4176C48.8256 39.8769 47.4982 39.3852 47.6211 38.0087C47.6457 37.6891 47.7686 37.3696 48.0144 37.0746ZM50.1284 36.3126C51.2591 36.3864 52.1686 37.2467 52.8814 38.8199L53.2502 37.5417C52.734 37.1484 51.4803 36.288 50.3004 36.288C50.2513 36.3126 50.2021 36.3126 50.1284 36.3126Z" fill="#191411"/>
<path d="M60.0832 41.1548V41.2777H54.7491V41.1548H60.0832Z" fill="#191411"/>
<path d="M60.2054 41.0564H54.6747V41.3514H60.2054V41.0564Z" fill="#191411"/>
<path d="M66.9905 38.0574L66.9168 38.1066C66.3023 37.3937 65.4174 36.4842 63.8933 36.4842H62.738V41.0071L65.9336 40.7122V41.425L62.738 41.13V45.1613C62.738 45.6529 62.8364 45.8496 63.033 45.9725C63.033 45.9971 63.033 46.0708 63.033 46.0708H61.3369C61.3369 46.0708 61.3369 45.9971 61.3369 45.9725C61.5336 45.8496 61.6319 45.6284 61.6319 45.1613V37.2954C61.6319 36.8038 61.5336 36.6071 61.3369 36.4842C61.3369 36.4597 61.3369 36.3613 61.3369 36.3613H66.5727L66.9905 38.0574Z" fill="#191411"/>
<path d="M63.131 46.1452H61.2383V45.8994L61.2874 45.8748C61.4595 45.7765 61.5578 45.629 61.5578 45.1374V37.2715C61.5578 36.7799 61.4595 36.6324 61.2874 36.5341L61.2383 36.5095V36.2637H66.6215L66.6461 36.3374L67.1131 38.1072L66.9165 38.2302L66.8673 38.181C66.1791 37.419 65.3433 36.5832 63.893 36.5832H62.8115V40.9095L66.007 40.6145V41.524L62.8115 41.229V45.162C62.8115 45.6536 62.9098 45.8011 63.0819 45.8994L63.131 45.924V46.1452ZM61.4841 45.9732H62.8852C62.7131 45.8257 62.6394 45.5799 62.6394 45.162V36.4603H61.4595C61.6562 36.6078 61.7299 36.8536 61.7299 37.2961V45.162C61.7299 45.5553 61.6562 45.8011 61.4841 45.9732ZM63.131 41.057L65.8103 41.3028V40.8112L63.131 41.057ZM64.655 36.4603C65.6383 36.657 66.3266 37.2715 66.8673 37.886L66.4986 36.4603H64.655Z" fill="#191411"/>
<path d="M73.7503 44.3752L73.4553 46.0467H67.8263C67.8263 46.0467 67.8263 45.9729 67.8263 45.9483C68.0229 45.8254 68.1213 45.6042 68.1213 45.1372V37.2712C68.1213 36.7796 68.0229 36.583 67.8263 36.4601C67.8263 36.4355 67.8263 36.3372 67.8263 36.3372H73.0129L73.3079 37.8858L73.2341 37.9349C72.595 37.2221 71.7347 36.4601 70.2106 36.4601H69.252V40.5651L72.7425 40.2701V40.983L69.252 40.688V45.9729H70.3827C71.9067 45.9729 73.062 45.1863 73.7012 44.3506L73.7503 44.3752Z" fill="#191411"/>
<path d="M73.5287 46.1452H67.7275V45.8994L67.7767 45.8748C67.9488 45.7765 68.0471 45.629 68.0471 45.1374V37.2715C68.0471 36.7799 67.9488 36.6324 67.7767 36.5341L67.7275 36.5095V36.2637H73.0862L73.4057 37.9352L73.2337 38.0827L73.1845 38.0089C72.5454 37.2961 71.7097 36.5586 70.2102 36.5586H69.3253V40.4424L72.8158 40.1475V41.057H72.7175L69.3253 40.762V45.8503H70.3577C72.1767 45.8503 73.2337 44.7441 73.6024 44.2525L73.6516 44.1788L73.8482 44.3262L73.5287 46.1452ZM71.218 45.9732H73.3566L73.627 44.5229C73.2583 44.9653 72.4717 45.7028 71.218 45.9732ZM67.9733 45.9732H69.1287V36.4603H67.9488C68.1454 36.6078 68.2192 36.8536 68.2192 37.2961V45.162C68.2192 45.5553 68.1454 45.8011 67.9733 45.9732ZM69.6694 40.6145L72.6192 40.8603V40.3441L69.6694 40.6145ZM70.9968 36.4603C72.0046 36.657 72.6683 37.1977 73.1845 37.7631L72.9387 36.4603H70.9968Z" fill="#191411"/>
<path d="M83.7527 41.204C83.7527 43.957 81.4175 46.0464 78.1974 46.0464H74.7314C74.7314 46.0464 74.7314 45.9727 74.7314 45.9481C74.9281 45.8252 75.0264 45.604 75.0264 45.1369V37.271C75.0264 36.7794 74.9281 36.5827 74.7314 36.4598C74.7314 36.4352 74.7314 36.3369 74.7314 36.3369H78.1974C81.3929 36.3615 83.7527 38.4755 83.7527 41.204ZM82.6465 41.204C82.6465 38.6475 80.9504 36.4598 78.1974 36.4598H76.1326V45.9481H78.1974C80.9504 45.9481 82.6465 43.7604 82.6465 41.204Z" fill="#191411"/>
<path d="M78.1736 46.1452H74.6094V45.8994L74.6585 45.8748C74.8306 45.7765 74.9289 45.629 74.9289 45.1374V37.2715C74.9289 36.7799 74.8306 36.6324 74.6585 36.5341L74.6094 36.5095V36.2637H78.1736C81.3937 36.2637 83.8273 38.3776 83.8273 41.2044C83.8273 44.0313 81.4183 46.1452 78.1736 46.1452ZM74.8798 45.9732H76.0351V36.4603H74.8552C75.0518 36.6078 75.1256 36.8536 75.1256 37.2961V45.162C75.1256 45.5553 75.0518 45.8011 74.8798 45.9732ZM76.2071 45.8748H78.1736C80.3368 45.8748 82.549 44.2771 82.549 41.2044C82.549 38.1564 80.3613 36.5586 78.1736 36.5586H76.2071V45.8748ZM79.7222 36.6324C81.5412 37.2469 82.7457 38.9922 82.7457 41.2044C82.7457 43.3922 81.5904 45.1128 79.8451 45.7519C82.1066 45.162 83.6552 43.4167 83.6552 41.2044C83.6552 38.9676 82.0328 37.1732 79.7222 36.6324Z" fill="#191411"/>
</svg>
