<svg width="75" height="72" viewBox="0 0 75 72" fill="none" xmlns="http://www.w3.org/2000/svg">
<path d="M66.7268 66.4011H7.97818C6.82287 66.4011 5.88879 65.4671 5.88879 64.3118V44.5486C5.88879 43.3933 6.82287 42.4592 7.97818 42.4592H66.7268C67.8821 42.4592 68.8162 43.3933 68.8162 44.5486V64.3118C68.8162 65.4671 67.8821 66.4011 66.7268 66.4011ZM7.97818 43.0738C7.16701 43.0738 6.50332 43.7374 6.50332 44.5486V64.3118C6.50332 65.1229 7.16701 65.7866 7.97818 65.7866H66.7268C67.538 65.7866 68.2016 65.1229 68.2016 64.3118V44.5486C68.2016 43.7374 67.538 43.0738 66.7268 43.0738H7.97818Z" fill="#191411"/>
<path d="M67.2432 0.745117H7.46216C3.48004 0.745117 0.235352 3.84232 0.235352 7.65238V64.877C0.235352 68.687 3.48004 71.7842 7.46216 71.7842H67.2432C71.2253 71.7842 74.47 68.687 74.47 64.877V7.65238C74.47 3.84232 71.2253 0.745117 67.2432 0.745117ZM74.003 64.877C74.003 68.4412 70.9795 71.3418 67.2432 71.3418H7.46216C3.72585 71.3418 0.702382 68.4412 0.702382 64.877V7.65238C0.702382 4.08813 3.72585 1.18758 7.46216 1.18758H67.2432C70.9795 1.18758 74.003 4.08813 74.003 7.65238V64.877Z" fill="#191411"/>
<path d="M65.4237 2.46582H9.30527C5.29857 2.46582 2.0293 5.58761 2.0293 9.42225V63.1563C2.0293 66.991 5.29857 70.1128 9.30527 70.1128H65.4237C69.4304 70.1128 72.6997 66.991 72.6997 63.1563V9.42225C72.6751 5.58761 69.4304 2.46582 65.4237 2.46582ZM71.2248 41.6234V55.9049L71.274 63.1563C71.274 66.2535 68.6438 68.7608 65.4237 68.7608H9.30527C6.08516 68.7608 3.45499 66.2535 3.45499 63.1563L3.40583 55.9049H3.38125V53.8893V53.6681V42.4591V41.6725V41.6479L3.45499 9.44683C3.45499 6.34962 6.08516 3.84236 9.30527 3.84236H65.4237C68.6438 3.84236 71.274 6.34962 71.274 9.44683L71.2248 41.6234Z" fill="#191411"/>
<path d="M20.6869 12.3484L20.097 14.4132H19.9495C18.8188 11.7584 17.3931 10.7506 15.8199 10.7506C13.8534 10.7506 12.7473 11.8568 12.6243 13.0366C12.2556 16.9942 20.7115 15.6914 20.7115 20.6076C20.7115 22.9674 18.5975 24.6143 15.7953 24.6143C13.4355 24.6143 11.9852 23.8277 10.4366 22.6724L11.0266 20.411H11.1741C12.1819 22.4266 14.0255 24.221 16.6065 24.221C18.278 24.221 19.6791 23.1394 19.8512 21.8858C20.3674 17.6825 11.8623 19.0344 11.8623 14.0691C11.8623 12.4713 13.1406 10.4802 16.3361 10.4802C17.8601 10.4802 19.5316 11.4389 20.6869 12.3484Z" fill="#191411"/>
<path d="M15.8194 24.7122C13.4842 24.7122 12.0339 23.9502 10.4116 22.7458L10.3624 22.6966L10.977 20.3122H11.2474L11.2719 20.3614C11.8373 21.4921 13.4842 24.1223 16.6306 24.1223C18.2038 24.1223 19.6295 23.1145 19.777 21.8608C20.0228 19.8944 18.1792 19.1569 16.2127 18.3949C14.1479 17.5838 11.7881 16.6497 11.7881 14.0441C11.7881 12.2743 13.2138 10.3569 16.3356 10.3569C18.13 10.3569 20.0228 11.6597 20.7356 12.2251L20.7848 12.2743L20.7602 12.3234L20.1457 14.4374H19.8753L19.8507 14.3882C18.8429 12.0039 17.4663 10.7994 15.8194 10.7994C13.8284 10.7994 12.8205 11.9547 12.7222 13.0117C12.5501 14.8307 14.3691 15.4944 16.2865 16.2318C18.425 17.043 20.8339 17.9525 20.8339 20.5826C20.8094 22.9916 18.72 24.7122 15.8194 24.7122ZM10.5591 22.6229C12.1077 23.8027 13.558 24.5156 15.7948 24.5156C18.5971 24.5156 20.6127 22.8687 20.6127 20.6072C20.6127 18.0754 18.3758 17.2396 16.1881 16.4284C14.1971 15.691 12.3289 14.9782 12.5256 13.0117C12.5993 12.2988 13.0418 11.5614 13.8529 11.0944C12.5501 11.7581 11.9602 12.9379 11.9602 14.0687C11.9602 16.5513 14.1479 17.4117 16.2619 18.2474C18.2775 19.034 20.1948 19.796 19.9244 21.91C19.7524 23.2374 18.2529 24.3189 16.606 24.3189C14.3446 24.3189 12.3535 22.9424 11.1244 20.5089L10.5591 22.6229ZM20.0228 14.2899L20.5881 12.3726C19.8507 11.8072 18.0563 10.5782 16.3602 10.5782C15.8194 10.5782 15.3278 10.6273 14.8853 10.7502C15.1803 10.7011 15.4999 10.6519 15.844 10.6519C17.5647 10.6519 18.9658 11.881 20.0228 14.2899Z" fill="#191411"/>
<path d="M30.7885 22.107L30.3461 24.4914H22.1115C22.1115 24.4914 22.1115 24.393 22.1115 24.3439C22.431 24.1718 22.5539 23.8768 22.5539 23.1886V12.0042C22.5539 11.2914 22.4064 11.021 22.1115 10.8489C22.1115 10.7997 22.1115 10.7014 22.1115 10.7014H24.5696C24.5696 10.7014 24.5696 10.8243 24.5696 10.8489C24.2746 11.021 24.1271 11.2914 24.1271 12.0042V24.3685H25.9215C28.1092 24.3685 29.7316 23.2377 30.6656 22.0333L30.7885 22.107Z" fill="#191411"/>
<path d="M30.4205 24.5894H22.0138V24.2944L22.063 24.2698C22.3088 24.1223 22.4808 23.9011 22.4808 23.1883V12.0039C22.4808 11.2911 22.3334 11.0698 22.063 10.9223L22.0138 10.8978V10.6028H24.644V10.8978L24.5948 10.9223C24.349 11.0698 24.2015 11.2911 24.2015 12.0039V24.2698H25.8976C28.5032 24.2698 30.0272 22.6721 30.568 21.9838L30.6171 21.91L30.863 22.0821L30.4205 24.5894ZM26.6842 24.4173H30.2484L30.6663 22.1804C30.1501 22.8441 28.8473 24.1469 26.6842 24.4173ZM22.2104 24.4173H24.0294V12.0039C24.0294 11.3402 24.1523 10.9961 24.4719 10.7994V10.7749H22.2104V10.7994C22.53 10.9961 22.6529 11.3402 22.6529 12.0285V23.2128C22.6529 23.8519 22.53 24.1961 22.2104 24.4173Z" fill="#191411"/>
<path d="M45.7109 17.5591C45.7109 21.4429 42.4416 24.6384 38.5332 24.6384C34.6249 24.6384 31.3556 21.4674 31.3556 17.5591C31.3556 13.6507 34.6249 10.4797 38.5332 10.4797C42.4416 10.4797 45.7109 13.6507 45.7109 17.5591ZM43.8182 15.9367C42.7366 12.4462 39.836 9.93895 36.5176 10.9468C33.2237 11.9546 32.1913 15.6663 33.2483 19.1323C34.3053 22.6228 37.2304 25.13 40.5243 24.1222C43.8427 23.139 44.8751 19.4272 43.8182 15.9367Z" fill="#191411"/>
<path d="M38.5328 24.7126C34.5261 24.7126 31.2814 21.4925 31.2814 17.5596C31.2814 13.602 34.5506 10.4065 38.5328 10.4065C42.5149 10.4065 45.7842 13.6266 45.7842 17.5596C45.8087 21.4925 42.5395 24.7126 38.5328 24.7126ZM36.2467 10.9473C33.4691 11.8814 31.4534 14.4869 31.4534 17.5596C31.4534 21.3942 34.6244 24.5406 38.5328 24.5406C39.0244 24.5406 39.516 24.4914 39.983 24.3931C38.6065 24.6635 37.23 24.3193 36.0009 23.4344C34.7227 22.5004 33.7149 20.9763 33.1495 19.2065C32.5104 17.0925 32.6333 14.9786 33.4691 13.3562C34.1082 12.2009 35.0669 11.3897 36.2467 10.9473ZM38.0166 10.8244C37.5495 10.8244 37.0579 10.8981 36.5663 11.0456C35.3127 11.4389 34.3048 12.2501 33.6903 13.43C32.8546 15.0031 32.7317 17.0679 33.3708 19.1328C33.9115 20.878 34.8948 22.3529 36.1484 23.2624C37.5004 24.2456 39.0244 24.516 40.5484 24.049C43.1294 23.2624 45.0467 20.2389 43.7439 15.9618C42.8836 13.2087 40.7451 10.8244 38.0166 10.8244ZM37.9428 10.6523C40.278 10.6523 42.7853 12.2747 43.8914 15.9126C44.8747 19.1573 44.1372 22.992 40.8188 24.1719C43.5965 23.2132 45.6121 20.6076 45.6121 17.5596C45.6121 13.7003 42.4411 10.5786 38.5328 10.5786C37.992 10.5786 37.4512 10.6523 36.935 10.7506C37.2546 10.6769 37.5987 10.6523 37.9428 10.6523Z" fill="#191411"/>
<path d="M63.7279 14.4625L60.9256 22.7709L61.5893 24.4915H60.0407L56.1815 14.4625C56.1815 14.4625 56.034 14.1183 55.9357 13.9217L52.9614 22.7709L53.6251 24.4915H52.0765L48.2173 14.4625C47.4061 12.496 46.8899 11.7094 46.1525 10.8245V10.677H49.2005V10.8245C48.6843 11.3407 48.8564 12.029 49.3972 13.4792L52.9122 22.5742L55.6653 14.4871C55.7391 14.2412 55.8128 13.9709 55.9111 13.725C55.272 12.2993 54.805 11.6111 54.1659 10.8491V10.677H57.2139V10.8245C56.6977 11.3407 56.8698 12.029 57.4106 13.4792L60.9256 22.5742L63.6787 14.4871C64.2932 12.6926 64.3424 11.734 63.5067 10.8491V10.677H65.8664V10.8245C64.9078 11.734 64.3424 12.6189 63.7279 14.4625Z" fill="#191411"/>
<path d="M61.7124 24.5895H59.9426L59.918 24.5404L56.0588 14.5113L55.9113 14.1918L53.0108 22.7705L53.699 24.5895H51.9538L51.9292 24.5404L48.07 14.5113C47.2588 12.5448 46.7672 11.7828 46.0052 10.8979L45.9806 10.8733V10.5784H49.2007V10.8733L49.1761 10.8979C48.7091 11.365 48.8566 12.0286 49.3974 13.4543L52.8141 22.3035L55.4689 14.4376C55.5426 14.1918 55.6163 13.946 55.6901 13.7247C55.0756 12.3236 54.6085 11.6599 53.9694 10.8979L53.9448 10.8733V10.5784H57.165V10.8733L57.1404 10.8979C56.6733 11.365 56.8208 12.0286 57.3616 13.4543L60.7784 22.3035L63.4331 14.4376C64.0722 12.5203 64.0476 11.7091 63.2856 10.8979L63.261 10.8733V10.5784H65.7929V10.8733L65.7683 10.8979C64.9817 11.7091 64.4163 12.5449 63.7527 14.4867L60.9504 22.7705L61.7124 24.5895ZM60.0901 24.4175H61.4421L60.8029 22.7951L57.2141 13.5281C56.6488 12.0532 56.5013 11.365 57.0175 10.8242V10.7996H54.1661V10.8242C54.8052 11.5862 55.2722 12.2745 55.9113 13.7002L55.9359 13.7247V13.7493L56.2555 14.4376L60.0901 24.4175ZM52.1013 24.4175H53.4532L52.8387 22.7951L52.7649 22.6231L49.2499 13.5281C48.6845 12.0532 48.537 11.365 49.0532 10.8242V10.7996H46.2018V10.8242C46.9393 11.6845 47.4554 12.4957 48.2666 14.4622L52.1013 24.4175ZM63.5068 10.7996C64.2197 11.5616 64.2689 12.3728 63.9739 13.5527C64.5147 12.2007 65.0309 11.4879 65.67 10.7996V10.775H63.5068V10.7996Z" fill="#191411"/>
<path d="M17.6135 32.7012C17.6135 32.7012 17.6135 32.7749 17.6135 32.7995C17.4169 32.9224 17.3185 33.0945 17.3185 33.5861V35.0118C16.9498 35.7738 15.6962 37.1749 13.1152 37.1749C10.5096 37.1749 8.39563 35.061 8.39563 32.4554C8.39563 29.8498 10.7554 27.7358 13.3856 27.7358C14.8113 27.7358 15.6716 28.1046 16.8023 28.842L16.409 30.3414H16.3107C15.3521 28.8174 13.7789 27.6621 12.0336 28.0308C9.77218 28.5224 8.961 31.2018 9.67385 33.537C10.3867 35.8722 12.1074 37.1749 14.4671 36.88C15.2537 36.7817 15.8437 36.4129 16.2861 35.9213V34.1515C16.2861 33.3403 15.9174 32.8487 15.2783 32.7995C15.2783 32.7258 15.2783 32.7012 15.2783 32.7012H17.6135Z" fill="#191411"/>
<path d="M13.0905 37.273C10.4357 37.273 8.27258 35.1098 8.27258 32.4551C8.27258 29.8495 10.6078 27.6372 13.3363 27.6372C14.8111 27.6372 15.6961 28.0305 16.8022 28.7679L16.8514 28.7925L16.4089 30.4394H16.1877L16.1631 30.3903C15.3273 29.0383 13.7787 27.7601 11.9843 28.1288C11.1486 28.3009 10.4603 28.8171 10.0178 29.5791C9.37874 30.6607 9.25584 32.1109 9.69829 33.5121C10.4357 35.8718 12.1318 37.0763 14.3933 36.7813C15.0815 36.683 15.6715 36.388 16.1385 35.8964V34.1758C16.1385 33.4137 15.7944 32.9467 15.2044 32.9221H15.1061V32.6272H17.638V32.873L17.5888 32.8975C17.4413 32.9959 17.343 33.1434 17.343 33.5858V35.0607C17.0234 35.8964 15.6715 37.273 13.0905 37.273ZM10.5586 28.6942C9.305 29.5545 8.46924 30.9311 8.46924 32.4551C8.46924 35.0115 10.534 37.1009 13.0905 37.1009C13.5329 37.1009 13.9262 37.0517 14.2949 36.978C12.0335 37.1992 10.2636 35.9456 9.5508 33.5612C9.10834 32.1355 9.23125 30.6115 9.89494 29.4808C10.0916 29.1858 10.3128 28.9154 10.5586 28.6942ZM15.6223 32.7992C16.0894 32.9713 16.3597 33.4629 16.3597 34.1512V35.9456L16.3352 35.9702C16.2123 36.0931 16.0894 36.216 15.9665 36.3143C16.6301 35.8964 17.0234 35.3802 17.2201 34.9869V33.5858C17.2201 33.1679 17.2938 32.9467 17.4659 32.7992H15.6223ZM12.6726 27.883C14.2212 27.883 15.5486 29.0137 16.3106 30.2182L16.6547 28.8663C15.5977 28.178 14.762 27.8093 13.3609 27.8093C13.0905 27.8093 12.8201 27.8339 12.5743 27.883C12.5988 27.883 12.648 27.883 12.6726 27.883Z" fill="#191411"/>
<path d="M25.6516 37.0274V37.1257H23.6113V37.0274C23.9555 36.6832 23.6851 36.2162 23.1689 35.3067L21.7432 32.824C21.5465 32.8486 21.3499 32.8486 21.1532 32.8486H19.9242V36.2408C19.9242 36.7078 20.0225 36.9045 20.2192 37.0274C20.2192 37.0519 20.2192 37.1257 20.2192 37.1257H18.5968C18.5968 37.1257 18.5968 37.0519 18.5968 37.0274C18.7934 36.9045 18.8918 36.7078 18.8918 36.2408V28.7436C18.8918 28.2765 18.7934 28.0799 18.5968 27.957C18.5968 27.9324 18.5968 27.8586 18.5968 27.8586H21.1532C23.1935 27.8586 25.0616 28.6207 25.0616 30.3659C25.0616 31.6195 24.0784 32.357 22.751 32.6765L23.9309 34.7659C24.7175 36.1179 25.1354 36.5603 25.6516 37.0274ZM24.0046 30.3659C24.0046 29.3335 23.6605 27.9815 21.1532 27.9815H19.9242V32.7503H21.1532C23.6605 32.7257 24.0046 31.3737 24.0046 30.3659Z" fill="#191411"/>
<path d="M25.7504 37.1992H23.5381V36.978L23.5627 36.9534C23.8331 36.683 23.6364 36.2897 23.1202 35.3802L21.7191 32.9221C21.547 32.9221 21.3504 32.9467 21.1783 32.9467H20.0476V36.2405C20.0476 36.7076 20.1459 36.8551 20.2934 36.9288L20.3426 36.9534V37.1992H18.5236V36.9534L18.5727 36.9288C18.7202 36.8305 18.8185 36.683 18.8185 36.2405V28.7433C18.8185 28.2763 18.7202 28.1288 18.5727 28.0551L18.5236 28.0305V27.7847H21.1783C23.6118 27.7847 25.1604 28.7925 25.1604 30.3657C25.1604 31.4964 24.3493 32.3567 22.899 32.7255L24.0297 34.7165C24.8163 36.0931 25.2588 36.5355 25.7258 36.978L25.7504 37.0025V37.1992ZM23.7347 37.0271H25.5046C25.0375 36.6093 24.5951 36.1422 23.8331 34.7903L22.604 32.6271C22.3828 32.7009 22.1124 32.7746 21.842 32.7992L23.2677 35.2819C23.7593 36.1422 24.0297 36.6338 23.7347 37.0271ZM18.7448 37.0271H20.0722C19.9001 36.8796 19.8509 36.6338 19.8509 36.2405V27.9567H18.7448C18.9169 28.1042 18.9906 28.3255 18.9906 28.7433V36.2405C18.9906 36.6338 18.9169 36.8796 18.7448 37.0271ZM20.023 32.6517H21.1537C23.0219 32.6517 23.9068 31.9143 23.9068 30.3657C23.9068 28.3009 22.3336 28.0551 21.1537 28.0551H20.023V32.6517ZM22.7023 28.1042C23.6364 28.4484 24.1035 29.2104 24.1035 30.3657C24.1035 31.4472 23.661 32.1847 22.8007 32.5534C23.6364 32.3567 24.9638 31.7914 24.9638 30.3657C24.9638 29.4316 24.3493 28.4729 22.7023 28.1042Z" fill="#191411"/>
<path d="M35.5083 32.4554C35.5083 35.061 33.3206 37.1749 30.715 37.1749C28.1095 37.1749 25.9218 35.0364 25.9218 32.4554C25.9218 29.8498 28.1095 27.7358 30.715 27.7358C33.3206 27.7358 35.5083 29.8498 35.5083 32.4554ZM34.2301 31.3738C33.5173 29.0386 31.5508 27.3671 29.3631 28.0308C27.1508 28.6945 26.4625 31.2018 27.1754 33.5124C27.8882 35.8476 29.8547 37.5191 32.0424 36.8554C34.2793 36.1917 34.9676 33.709 34.2301 31.3738Z" fill="#191411"/>
<path d="M30.7157 37.273C28.0118 37.273 25.8241 35.1098 25.8241 32.4551C25.8241 29.8003 28.0118 27.6372 30.7157 27.6372C33.4196 27.6372 35.6073 29.8003 35.6073 32.4551C35.6073 35.1098 33.4196 37.273 30.7157 37.273ZM28.2576 28.4975C26.9057 29.3087 26.0207 30.7836 26.0207 32.4551C26.0207 35.0115 28.1347 37.1009 30.7157 37.1009C30.1258 37.0272 29.5358 36.8059 29.0196 36.4126C28.1593 35.7735 27.471 34.7657 27.1023 33.5612C26.7336 32.3568 26.7336 31.1523 27.1023 30.1445C27.3481 29.4562 27.7414 28.9154 28.2576 28.4975ZM30.3716 27.9813C30.052 27.9813 29.7325 28.0305 29.4129 28.1288C28.4051 28.4484 27.6677 29.1612 27.299 30.1936C26.9548 31.1769 26.9548 32.3322 27.299 33.4875C27.6431 34.6428 28.3068 35.626 29.1425 36.2406C30.0274 36.9042 31.0353 37.0763 32.0677 36.7568C34.3291 36.0685 34.8453 33.5366 34.1816 31.3735C33.5917 29.5791 32.166 27.9813 30.3716 27.9813ZM30.7403 27.8339C32.461 28.0305 33.7883 29.5791 34.3291 31.3735C34.8945 33.2171 34.6241 35.3311 33.1984 36.4126C34.5258 35.6015 35.4107 34.1266 35.4107 32.4797C35.4107 29.8987 33.3213 27.8339 30.7403 27.8339Z" fill="#191411"/>
<path d="M47.5534 30.3905L45.6852 35.9458L46.1277 37.1011H45.0953L42.5143 30.3905C42.5143 30.3905 42.416 30.1447 42.3668 30.0218L40.3757 35.9458L40.8182 37.1011H39.7858L37.2048 30.3905C36.664 29.0877 36.3199 28.5469 35.8282 27.957V27.8586H37.8685V27.957C37.5243 28.3011 37.6227 28.7681 37.9914 29.7268L40.3511 35.7983L42.1947 30.3905C42.2439 30.2184 42.2931 30.0464 42.3422 29.8989C41.9243 28.9402 41.6048 28.4732 41.1623 27.9815V27.8832H43.2025V27.9815C42.8584 28.3257 42.9567 28.7927 43.3255 29.7514L45.6852 35.8229L47.5288 30.4151C47.9467 29.2106 47.9713 28.5715 47.4059 27.9815V27.8832H48.9791V27.9815C48.3646 28.5715 47.9958 29.1614 47.5534 30.3905Z" fill="#191411"/>
<path d="M46.2754 37.1999H45.0217L44.9972 37.1508L42.3424 30.2927L40.4251 35.9463L40.8921 37.1999H39.6631L39.6385 37.1508L37.0575 30.4401C36.5167 29.1374 36.1971 28.6212 35.6809 28.0312L35.6564 28.0066V27.7854H37.8687V28.0312L37.8441 28.0558C37.5491 28.3508 37.6474 28.7932 37.9916 29.7273L40.253 35.5776L42.0229 30.3172C42.072 30.1943 42.0966 30.0469 42.1458 29.9239C41.7279 28.9899 41.4329 28.5474 40.9905 28.0558L40.9659 28.0312V27.81H43.1782V28.0558L43.1536 28.0804C42.8586 28.3753 42.9569 28.8178 43.3011 29.7519L45.5625 35.6022L47.3078 30.4156C47.7257 29.1619 47.7256 28.5966 47.2094 28.0804L47.1849 28.0558V27.81H48.9547V28.0558L48.9301 28.0804C48.4139 28.6212 48.0206 29.1865 47.6027 30.4893L45.7346 36.02L46.2754 37.1999ZM45.1446 37.0279H45.9804L45.5625 35.9709L45.5134 35.8726L43.1536 29.801C42.7849 28.8424 42.6865 28.3508 43.0061 27.982H41.1871C41.605 28.4737 41.9245 28.9407 42.3424 29.8748L42.367 29.8994V29.9239L42.5636 30.3664L45.1446 37.0279ZM39.8106 37.0279H40.6463L40.253 35.9709L40.2039 35.8726L37.8441 29.801C37.4754 28.8424 37.3525 28.3508 37.6966 27.982H35.8776C36.3692 28.5474 36.7134 29.1128 37.2296 30.391L39.8106 37.0279ZM47.4553 27.9575C47.8486 28.3999 47.9223 28.8424 47.824 29.4569C48.1189 28.7686 48.4385 28.3508 48.8072 27.9575H47.4553Z" fill="#191411"/>
<path d="M56.747 29.4812L56.6733 29.5304C56.0833 28.8667 55.2476 27.9818 53.7727 27.9818H53.4777V36.241C53.4777 36.708 53.5761 36.9047 53.7727 37.0276C53.7727 37.0522 53.7727 37.1259 53.7727 37.1259H52.1258C52.1258 37.1259 52.1258 37.0522 52.1258 37.0276C52.3224 36.9047 52.4208 36.708 52.4208 36.241V27.9818H52.1258C50.6509 27.9818 49.8152 28.8421 49.2252 29.5304L49.1515 29.4812L49.5694 27.8589H56.28L56.747 29.4812Z" fill="#191411"/>
<path d="M53.8706 37.1992H52.0516V36.9534L52.1007 36.9288C52.2482 36.8305 52.3711 36.683 52.3711 36.2405V28.0551H52.1745C50.798 28.0551 49.9868 28.8417 49.3477 29.5791L49.2985 29.6282L49.0773 29.5299L49.5443 27.7847H56.4024L56.8695 29.5299L56.6728 29.6282L56.6236 29.5791C55.9845 28.8417 55.1734 28.0551 53.7968 28.0551H53.6002V36.2405C53.6002 36.683 53.6985 36.8551 53.8706 36.9288L53.9197 36.9534V37.1992H53.8706ZM52.2974 37.0271H53.6248C53.4527 36.8796 53.3789 36.6338 53.3789 36.2405V27.9567H52.5432V36.2405C52.5432 36.6338 52.4695 36.8551 52.2974 37.0271ZM49.6918 27.9567L49.3477 29.3087C49.8639 28.7433 50.503 28.1534 51.4371 27.9567H49.6918ZM54.5097 27.9567C55.4438 28.1534 56.0829 28.7433 56.5991 29.3087L56.2549 27.9567H54.5097Z" fill="#191411"/>
<path d="M64.5392 28.7438V36.241C64.5392 36.708 64.6375 36.9047 64.8341 37.0276C64.8341 37.0522 64.8341 37.1259 64.8341 37.1259H63.1872C63.1872 37.1259 63.1872 37.0522 63.1872 37.0276C63.4084 36.9047 63.4822 36.708 63.4822 36.241V31.6935H58.8855V36.241C58.8855 36.708 58.9839 36.9047 59.1805 37.0276C59.1805 37.0522 59.1805 37.1259 59.1805 37.1259H57.5336C57.5336 37.1259 57.5336 37.0522 57.5336 37.0276C57.7548 36.9047 57.8285 36.708 57.8285 36.241V28.7438C57.8285 28.2768 57.7302 28.0801 57.5336 27.9572C57.5336 27.9326 57.5336 27.8589 57.5336 27.8589H59.1805C59.1805 27.8589 59.1805 27.9326 59.1805 27.9572C58.9839 28.0801 58.8855 28.2768 58.8855 28.7438V31.5952H63.4822V28.7438C63.4822 28.2768 63.3838 28.0801 63.1872 27.9572C63.1872 27.9326 63.1872 27.8589 63.1872 27.8589H64.8341C64.8341 27.8589 64.8341 27.9326 64.8341 27.9572C64.6129 28.0801 64.5392 28.2768 64.5392 28.7438Z" fill="#191411"/>
<path d="M64.9076 37.1992H63.0886V36.9534L63.1377 36.9288C63.3098 36.8305 63.3835 36.683 63.3835 36.2405V31.7668H58.959V36.2405C58.959 36.7076 59.0573 36.8551 59.2048 36.9288L59.2539 36.9534V37.1992H57.4349V36.9534L57.4841 36.9288C57.6562 36.8305 57.7299 36.683 57.7299 36.2405V28.7433C57.7299 28.2763 57.6316 28.1288 57.4841 28.0551L57.4349 28.0305V27.7847H59.2539V28.0305L59.2048 28.0551C59.0573 28.1534 58.959 28.3009 58.959 28.7433V31.4964H63.3835V28.7433C63.3835 28.2763 63.2852 28.1288 63.1377 28.0551L63.0886 28.0305V27.7847H64.9076V28.0305L64.8584 28.0551C64.7109 28.1534 64.6126 28.3009 64.6126 28.7433V36.2405C64.6126 36.7076 64.7109 36.8551 64.8584 36.9288L64.9076 36.9534V37.1992ZM63.3344 37.0271H64.6618C64.4897 36.8796 64.4405 36.6338 64.4405 36.2405V28.7433C64.4405 28.3255 64.5143 28.1042 64.6863 27.9567H63.3344C63.5064 28.1042 63.5802 28.35 63.5802 28.7433V36.2405C63.5802 36.6338 63.5064 36.8796 63.3344 37.0271ZM57.7053 37.0271H59.0327C58.8606 36.8796 58.8115 36.6338 58.8115 36.2405V28.7433C58.8115 28.3255 58.8852 28.1042 59.0573 27.9567H57.7053C57.8774 28.1042 57.9511 28.35 57.9511 28.7433V36.2405C57.9266 36.6338 57.8774 36.8796 57.7053 37.0271Z" fill="#191411"/>
<path d="M65.8665 31.4716C65.8665 31.0783 66.186 30.7588 66.5793 30.7588C66.9726 30.7588 67.2922 31.0783 67.2922 31.4716C67.2922 31.8649 66.9726 32.1845 66.5793 32.1845C66.186 32.1845 65.8665 31.8649 65.8665 31.4716ZM67.2922 36.4616C67.2922 36.8549 66.9726 37.199 66.5793 37.199C66.186 37.199 65.8665 36.8795 65.8665 36.4616C65.8665 36.0683 66.186 35.7487 66.5793 35.7487C66.9972 35.7487 67.2922 36.0683 67.2922 36.4616Z" fill="#191411"/>
<path d="M66.579 37.2724C66.1365 37.2724 65.7678 36.9037 65.7678 36.4613C65.7678 36.0188 66.1365 35.6501 66.579 35.6501C67.0215 35.6501 67.3902 36.0188 67.3902 36.4613C67.3902 36.9037 67.046 37.2724 66.579 37.2724ZM66.579 35.8467C66.2349 35.8467 65.9645 36.1171 65.9645 36.4613C65.9645 36.8054 66.2349 37.1004 66.579 37.1004C66.9231 37.1004 67.1935 36.8054 67.1935 36.4613C67.2181 36.1171 66.9477 35.8467 66.579 35.8467ZM66.579 32.2825C66.1365 32.2825 65.7678 31.9138 65.7678 31.4713C65.7678 31.0289 66.1365 30.6602 66.579 30.6602C67.0215 30.6602 67.3902 31.0289 67.3902 31.4713C67.3902 31.9138 67.046 32.2825 66.579 32.2825ZM66.579 30.8568C66.2349 30.8568 65.9645 31.1272 65.9645 31.4713C65.9645 31.8155 66.2349 32.0859 66.579 32.0859C66.9231 32.0859 67.1935 31.8155 67.1935 31.4713C67.2181 31.1272 66.9477 30.8568 66.579 30.8568Z" fill="#191411"/>
<path d="M32.7556 51.2104C32.6573 52.169 31.8215 53.1031 30.445 53.1031C29.6092 53.1031 28.8718 52.7098 28.3556 52.2182L28.7243 51.112H28.7735C28.9455 52.3165 29.6584 52.9802 30.3958 53.0294C31.5511 53.0785 32.0182 52.1199 32.0673 51.2841C32.1411 49.7601 31.0103 48.8506 29.1914 49.6126C29.1668 49.588 29.1668 49.5389 29.1668 49.5389L29.6338 46.8349H31.8707C32.2394 46.8349 32.4606 46.7366 32.5835 46.4417C32.6081 46.4417 32.6573 46.4417 32.6573 46.4417L32.5098 47.4986H29.6092L29.2651 49.5143C30.9612 48.6294 32.9277 49.5389 32.7556 51.2104Z" fill="#191411"/>
<path d="M30.4448 53.2016C29.6582 53.2016 28.8717 52.8575 28.2817 52.2921L28.2325 52.243L28.6258 51.0139H28.8471V51.0877C28.9946 52.1446 29.6091 52.8821 30.3711 52.9066C30.3957 52.9066 30.4203 52.9066 30.4448 52.9066C31.4772 52.9066 31.8951 52.0217 31.9443 51.2351C31.9934 50.5469 31.7476 49.9815 31.3052 49.662C30.789 49.2932 30.0515 49.2932 29.1912 49.6374L29.1175 49.662L29.0929 49.6128H29.0683V49.5882V49.5636C29.0437 49.5145 29.0437 49.4899 29.0437 49.4899V49.4653V49.4407L29.5108 46.6631H31.8214C32.1901 46.6631 32.3376 46.5647 32.4359 46.3189L32.4605 46.2698H32.6817L32.5096 47.5234H29.6091L29.3141 49.2932C30.2482 48.8754 31.2806 48.9245 32.018 49.4407C32.608 49.834 32.8784 50.4731 32.8046 51.186C32.7555 52.1692 31.9443 53.2016 30.4448 53.2016ZM28.4538 52.1938C28.8225 52.5379 29.2895 52.8083 29.7566 52.9312C29.2649 52.6608 28.8962 52.0955 28.7242 51.358L28.4538 52.1938ZM30.789 49.2687C31.0348 49.3178 31.256 49.4161 31.4527 49.5391C31.9443 49.8832 32.1901 50.4977 32.1655 51.2597C32.1409 51.8497 31.8951 52.4888 31.3789 52.8329C32.1655 52.5379 32.608 51.8497 32.6817 51.186C32.7555 50.5469 32.4851 49.9815 31.9689 49.6128C31.6247 49.4161 31.2069 49.2932 30.789 49.2687ZM29.6091 47.4005H32.3867L32.4851 46.7122C32.313 46.8843 32.0672 46.9089 31.846 46.9089H29.7074L29.6091 47.4005Z" fill="#191411"/>
<path d="M37.8191 49.907V49.9807H34.4023V49.907H37.8191Z" fill="#191411"/>
<path d="M37.9181 49.8093H34.3047V50.0551H37.9181V49.8093Z" fill="#191411"/>
<path d="M40.6465 52.9804C40.6465 53.005 40.6465 53.0541 40.6465 53.0541H39.565C39.565 53.0541 39.565 53.005 39.565 52.9804C39.7125 52.9066 39.7616 52.7592 39.7616 52.4642V47.9904C39.7616 47.4005 39.6387 47.4005 39.0979 47.6463L39.0734 47.5971L40.4253 46.8105V52.4642C40.4499 52.7837 40.5236 52.9066 40.6465 52.9804Z" fill="#191411"/>
<path d="M40.7447 53.1523H39.4665V52.9311L39.5157 52.9065C39.614 52.8573 39.6632 52.759 39.6632 52.464V47.9903C39.6632 47.892 39.6632 47.6462 39.5894 47.597C39.5157 47.5478 39.2699 47.6707 39.1224 47.7445L39.0486 47.7936L38.9503 47.5724L40.5235 46.6875V52.464C40.5235 52.7836 40.5972 52.8573 40.671 52.9065L40.7201 52.9311V53.1523H40.7447ZM39.7369 52.9557H40.4743C40.4006 52.8573 40.3514 52.6853 40.3514 52.464V46.9825L39.614 47.4003C39.6386 47.4003 39.6877 47.4249 39.7123 47.4249C39.8352 47.4987 39.8598 47.6953 39.8598 47.9657V52.464C39.8598 52.6853 39.8106 52.8573 39.7369 52.9557Z" fill="#191411"/>
<path d="M46.2995 51.9977L46.152 53.0547H42.1699V52.9809C43.5956 51.8994 45.4638 49.982 45.3409 48.1876C45.2917 47.4502 44.9967 46.8357 44.2347 46.8111C43.6202 46.8111 42.8828 47.4748 42.7107 48.6792H42.6615L42.2928 47.6468C42.8336 47.1798 43.5465 46.7619 44.2101 46.7128C45.1688 46.639 45.9062 47.2044 46.0783 47.991C46.3979 49.5396 45.0459 50.744 43.0057 52.3664H45.5129C45.8816 52.3664 46.1029 52.2681 46.2258 51.9731C46.2504 51.9977 46.2995 51.9977 46.2995 51.9977Z" fill="#191411"/>
<path d="M46.2265 53.1526H42.0723V52.956L42.0969 52.9314C42.8589 52.3415 45.3661 50.2767 45.2432 48.2119C45.2186 47.7448 45.0466 46.9582 44.2108 46.9336C43.6455 46.9336 42.9572 47.5482 42.7851 48.7281V48.8018H42.5885L42.1706 47.6465L42.2198 47.5973C42.8589 47.032 43.5963 46.6878 44.1862 46.6387C44.2354 46.6387 44.2846 46.6387 44.3337 46.6387C45.2432 46.6387 45.9807 47.1795 46.1527 47.9906C46.4723 49.5146 45.2432 50.7191 43.2522 52.2923H45.489C45.8332 52.2923 46.0052 52.194 46.1036 51.9482L46.1281 51.899H46.3739L46.2265 53.1526ZM42.3672 52.956H46.079L46.1773 52.2677C46.0298 52.4152 45.8332 52.489 45.5136 52.489H42.9326C42.7114 52.6856 42.5147 52.8331 42.3672 52.956ZM44.7762 46.8599C45.1695 47.0811 45.3907 47.5236 45.4399 48.1873C45.5136 49.4163 44.7024 50.6454 43.8421 51.5795C45.3415 50.3012 46.2265 49.2688 45.9807 48.0398C45.8577 47.4253 45.3907 47.0074 44.7762 46.8599ZM42.3918 47.6957L42.6622 48.4577C42.8097 47.794 43.1293 47.3024 43.4734 47.0074C43.1293 47.1549 42.736 47.4007 42.3918 47.6957Z" fill="#191411"/>
<path d="M16.4093 55.635V55.7088C15.9914 56.0529 15.7948 56.2495 15.3523 57.2082L14.2216 59.6663V61.2886C14.2216 61.6082 14.2708 61.7311 14.4182 61.8048C14.4182 61.8294 14.4182 61.8786 14.4182 61.8786H13.3121C13.3121 61.8786 13.3121 61.8294 13.3121 61.8048C13.435 61.7311 13.5088 61.5836 13.5088 61.2886V59.7646C13.5088 59.7646 12.0093 56.9624 11.8372 56.5937C11.6406 56.225 11.3456 55.9546 11.0507 55.7333V55.6596H12.5993V55.7333C12.378 55.9546 12.378 56.3479 12.6976 56.9624L14.1233 59.6417L15.3277 57.0607C15.6965 56.225 15.6473 55.9791 15.3277 55.7088V55.635H16.4093Z" fill="#191411"/>
<path d="M14.4927 61.9527H13.2145V61.756L13.2636 61.7314C13.3619 61.6823 13.4111 61.5839 13.4111 61.289V59.7895C13.2636 59.5437 11.9117 56.9873 11.7396 56.6432C11.543 56.299 11.248 56.0041 10.9776 55.8074L10.953 55.7828V55.5862H12.6982V55.7828L12.6737 55.8074C12.5508 55.9303 12.4033 56.2007 12.7966 56.9381L14.124 59.4454L15.2547 57.0365C15.6234 56.2007 15.5496 56.0286 15.2793 55.8074L15.2547 55.7828V55.5862H16.4837V55.7828L16.4592 55.8074C16.0413 56.1515 15.8692 56.3236 15.4267 57.2823L14.296 59.7158V61.3136C14.296 61.6085 14.3452 61.7069 14.4435 61.756L14.4927 61.7806V61.9527ZM13.4848 61.756H14.2469C14.1731 61.6577 14.124 61.4856 14.124 61.2644V59.765L12.6491 56.9627C12.3295 56.3974 12.2804 55.9795 12.477 55.7091H11.2234C11.4692 55.9057 11.7396 56.1761 11.9117 56.5203C12.1083 56.889 13.5832 59.6666 13.6077 59.6912V59.7404V61.2644C13.5832 61.5102 13.5586 61.6577 13.4848 61.756ZM15.5251 55.7091C15.6971 55.8812 15.7463 56.0778 15.6971 56.3482C15.8692 56.0532 16.0413 55.9057 16.2379 55.7091H15.5251Z" fill="#191411"/>
<path d="M21.572 60.772L21.3754 61.8535H17.762C17.762 61.8535 17.762 61.8044 17.762 61.7798C17.8849 61.706 17.9586 61.5585 17.9586 61.2636V56.2245C17.9586 55.9049 17.8849 55.782 17.762 55.7083C17.762 55.6837 17.762 55.6345 17.762 55.6345H21.0804L21.277 56.6178L21.2279 56.6423C20.81 56.1753 20.2692 55.6837 19.286 55.6837H18.6715V58.3139L20.9083 58.1172V58.5597L18.6715 58.363V61.8044H19.3843C20.3675 61.8044 21.105 61.2882 21.5229 60.7474L21.572 60.772Z" fill="#191411"/>
<path d="M21.4488 61.9523H17.6633V61.7557L17.7125 61.7311C17.8108 61.682 17.86 61.5836 17.86 61.2887V56.2495C17.86 55.9546 17.8108 55.8563 17.7125 55.8071L17.6633 55.7825V55.5613H21.1538L21.1784 55.635L21.3751 56.6674L21.2276 56.7903L21.1784 56.7166C20.7605 56.2495 20.2443 55.8071 19.2857 55.8071H18.7449V58.2406L20.9818 58.044V58.7076L18.7449 58.511V61.7065H19.384C20.5393 61.7065 21.203 60.9937 21.4488 60.6987L21.498 60.625L21.67 60.7479L21.4488 61.9523ZM20.1952 61.7557H21.2767L21.4242 60.9691C21.203 61.2395 20.7851 61.5836 20.1952 61.7557ZM17.9337 61.7557H18.5728V55.7088H17.9337C18.0075 55.8071 18.0566 55.9792 18.0566 56.2004V61.2395C18.0321 61.5099 18.0075 61.6574 17.9337 61.7557ZM19.3348 58.3635L20.8097 58.4864V58.2406L19.3348 58.3635ZM20.0477 55.7088C20.5147 55.8562 20.8589 56.1266 21.1293 56.397L21.0064 55.7088H20.0477Z" fill="#191411"/>
<path d="M28.0864 61.8538H26.7098V61.8046C26.9311 61.5834 26.8819 61.2638 26.6115 60.6001L26.1691 59.4694H23.9568L23.711 60.1577C23.416 60.9688 23.3914 61.4113 23.7601 61.8046V61.8783H22.7031V61.8046C23.0964 61.4113 23.3422 60.9934 23.6372 60.1577L24.9646 56.3968L24.6696 55.6348H25.3825L27.1277 60.1577C27.4964 61.0426 27.7176 61.4113 28.0618 61.8046V61.8538H28.0864ZM26.1691 59.3957L25.0383 56.4951L24.0059 59.3957H26.1691Z" fill="#191411"/>
<path d="M28.1842 61.9521H26.6356V61.7555L26.6602 61.7309C26.8323 61.5588 26.8077 61.313 26.5373 60.6247L26.1194 59.5432H24.03L23.8088 60.1577C23.5138 61.018 23.5138 61.3622 23.8334 61.7063L23.858 61.7309V61.9275H22.6289V61.7309L22.6535 61.7063C22.9976 61.3376 23.268 60.9689 23.563 60.084L24.8904 56.3476L24.5708 55.4873H25.4803L27.2501 60.0594C27.6188 60.9443 27.8401 61.2884 28.1596 61.6817L28.1842 61.7063V61.9521ZM26.8568 61.7555H27.9384C27.6434 61.3867 27.3976 61.018 27.0535 60.1823L25.3328 55.7085H24.8412L25.087 56.3722L26.2915 59.4694L26.7093 60.551C26.9306 61.1164 27.0289 61.4851 26.8568 61.7555ZM22.8993 61.7555H23.6367C23.4647 61.5096 23.3909 61.2638 23.4401 60.9443C23.268 61.2884 23.0959 61.5342 22.8993 61.7555ZM24.1283 59.2974H26.0211L25.0378 56.7409L24.1283 59.2974Z" fill="#191411"/>
<path d="M34.1818 61.8049V61.8787H32.8298V61.8049C33.051 61.5837 32.879 61.2641 32.5348 60.6496L31.5762 58.9781C31.4533 58.9781 31.3058 59.0027 31.1829 59.0027H30.3471V61.2887C30.3471 61.6083 30.4209 61.7312 30.5438 61.8049C30.5438 61.8295 30.5438 61.8787 30.5438 61.8787H29.4376C29.4376 61.8787 29.4376 61.8295 29.4376 61.8049C29.5605 61.7312 29.6343 61.5837 29.6343 61.2887V56.2496C29.6343 55.9301 29.5605 55.8072 29.4376 55.7334C29.4376 55.7088 29.4376 55.6597 29.4376 55.6597H31.1583C32.5348 55.6597 33.7885 56.1759 33.7885 57.3312C33.7885 58.1669 33.1248 58.6831 32.2398 58.8798L33.051 60.2809C33.5672 61.1904 33.8376 61.4854 34.1818 61.8049ZM33.0756 57.3066C33.0756 56.6183 32.8544 55.6843 31.1583 55.6843H30.3225V58.9044H31.1583C32.8544 58.9044 33.0756 57.9949 33.0756 57.3066Z" fill="#191411"/>
<path d="M34.2798 61.9525H32.7312V61.7559L32.7558 61.7313C32.9278 61.5592 32.8049 61.3134 32.4608 60.6989L32.4362 60.6743L31.5021 59.0519C31.3792 59.0519 31.2809 59.0765 31.158 59.0765H30.4206V61.2642C30.4206 61.5592 30.4697 61.6575 30.568 61.7067L30.6172 61.7313V61.9279H29.339V61.7313L29.3882 61.7067C29.4865 61.6575 29.5356 61.5592 29.5356 61.2642V56.2251C29.5356 55.9056 29.4619 55.8318 29.3882 55.7827L29.339 55.7581V55.5369H31.158C32.8049 55.5369 33.8865 56.2251 33.8865 57.3067C33.8865 58.0687 33.3457 58.6587 32.387 58.9045L33.1245 60.2073C33.6653 61.1413 33.9356 61.4363 34.2552 61.7067L34.2798 61.7313V61.9525ZM32.9524 61.7559H34.0094C33.7144 61.4855 33.4194 61.1413 32.9524 60.3056L32.1412 58.8553C31.9937 58.9045 31.8463 58.929 31.6742 58.9536L32.6083 60.6006C32.9278 61.1659 33.1245 61.51 32.9524 61.7559ZM29.6094 61.7559H30.3714C30.2977 61.6575 30.2485 61.4855 30.2485 61.2642V55.7089H29.6094C29.6831 55.8073 29.7323 55.9793 29.7323 56.2006V61.2397C29.7323 61.5101 29.6831 61.6575 29.6094 61.7559ZM30.4206 58.8307H31.158C32.387 58.8307 32.977 58.3391 32.977 57.3313C32.977 56.6676 32.7803 55.8073 31.158 55.8073H30.4206V58.8307ZM32.5099 55.9056C32.9524 56.176 33.1736 56.643 33.1736 57.3067C33.1736 57.9212 32.9524 58.3883 32.5345 58.6587C33.0753 58.462 33.6898 58.0933 33.6898 57.3067C33.6898 56.5693 33.1982 56.1514 32.5099 55.9056Z" fill="#191411"/>
<path d="M39.8849 56.3725L39.6145 57.3066H39.5653C39.0491 56.1021 38.41 55.6597 37.6972 55.6597C36.8123 55.6597 36.2961 56.1513 36.2469 56.6921C36.0748 58.4619 39.8849 57.8965 39.8849 60.1088C39.8849 61.1658 38.9262 61.9278 37.6726 61.9278C36.6156 61.9278 35.9519 61.5837 35.2637 61.0429L35.5341 60.0351H35.6078C36.0503 60.9446 36.886 61.7557 38.0659 61.7557C38.8279 61.7557 39.467 61.2641 39.5162 60.6988C39.7374 58.806 35.9273 59.4206 35.9273 57.1837C35.9273 56.4708 36.5173 55.5613 37.943 55.5613C38.6067 55.5368 39.3687 55.9546 39.8849 56.3725Z" fill="#191411"/>
<path d="M37.6723 62.0015C36.6153 62.0015 35.9271 61.6574 35.2142 61.092L35.165 61.0429L35.46 59.8876H35.6567L35.6812 59.9367C35.927 60.4283 36.6645 61.6082 38.041 61.6082C38.7293 61.6082 39.3438 61.1658 39.4176 60.6496C39.5159 59.7892 38.7539 59.4943 37.8444 59.1501C36.8857 58.7814 35.8287 58.3635 35.8287 57.1345C35.8287 56.2987 36.4924 55.4138 37.9427 55.4138C38.7293 55.4138 39.5405 55.9546 39.9583 56.2742L40.0075 56.3233L39.7125 57.3803H39.5159L39.4913 57.3311C39.0488 56.2742 38.4343 55.7334 37.7215 55.7334C36.8611 55.7334 36.4187 56.225 36.3695 56.692C36.2958 57.4786 37.0578 57.749 37.9427 58.0931C38.9259 58.4619 40.0321 58.8797 40.0321 60.1088C39.9829 61.2149 39.0243 62.0015 37.6723 62.0015ZM35.3863 60.9937C36.0745 61.5099 36.7136 61.8295 37.6969 61.8295C37.746 61.8295 37.7952 61.8295 37.8198 61.8295C36.9103 61.7557 36.1237 61.1658 35.5829 60.2071L35.3863 60.9937ZM36.222 56.4216C36.0745 56.6429 36.0008 56.9133 36.0008 57.1591C36.0008 58.2406 36.9595 58.6339 37.9181 59.0026C38.803 59.3468 39.7371 59.7155 39.6142 60.6987C39.5896 60.8216 39.565 60.9445 39.4913 61.0675C39.7125 60.7971 39.8109 60.4775 39.8109 60.1088C39.8109 59.0026 38.803 58.6339 37.8444 58.2652C36.9349 57.9211 36.0745 57.6015 36.1483 56.6675C36.1729 56.5937 36.1974 56.4954 36.222 56.4216ZM38.2622 55.6596C38.7784 55.8563 39.2209 56.3479 39.5896 57.1099L39.7863 56.3971C39.4913 56.1758 38.8768 55.7825 38.2622 55.6596Z" fill="#191411"/>
<path d="M50.7489 58.7326C50.7489 60.4779 49.2741 61.9282 47.5288 61.9282C45.759 61.9282 44.3087 60.5025 44.3087 58.7326C44.3087 56.9628 45.7836 55.5371 47.5288 55.5371C49.2741 55.5371 50.7489 56.9628 50.7489 58.7326ZM49.8886 57.9952C49.397 56.422 48.0942 55.2913 46.5947 55.7583C45.0953 56.2008 44.6528 57.8969 45.1199 59.4455C45.6115 61.0187 46.9143 62.1494 48.4137 61.7069C49.9132 61.2399 50.3802 59.5684 49.8886 57.9952Z" fill="#191411"/>
<path d="M47.5294 62.0017C45.6858 62.0017 44.2109 60.5268 44.2109 58.7324C44.2109 56.9134 45.7104 55.4631 47.5294 55.4631C49.3729 55.4631 50.8478 56.938 50.8478 58.7324C50.8478 60.5268 49.3484 62.0017 47.5294 62.0017ZM45.5137 56.3481C44.8255 56.9134 44.3584 57.7738 44.3584 58.7324C44.3584 60.3056 45.5383 61.5838 47.0623 61.805C46.8165 61.7313 46.5461 61.6084 46.3249 61.4117C45.735 60.9693 45.2679 60.281 45.0221 59.4698C44.7271 58.5112 44.7763 57.5279 45.1696 56.7905C45.2925 56.6184 45.3908 56.471 45.5137 56.3481ZM47.2836 55.7335C47.0869 55.7335 46.8657 55.7581 46.6445 55.8318C46.0791 56.0039 45.6612 56.3726 45.3662 56.8888C44.9975 57.5771 44.9484 58.5112 45.2188 59.4207C45.4646 60.2073 45.8825 60.8464 46.4478 61.2643C47.0378 61.7067 47.7014 61.8296 48.3897 61.6084C49.8892 61.1414 50.2333 59.4453 49.7908 58.0196C49.4221 56.7905 48.488 55.7335 47.2836 55.7335ZM47.9473 55.6598C48.9059 55.9793 49.6433 56.9134 49.9629 57.9704C50.307 59.0765 50.2087 60.3056 49.5204 61.0922C50.2087 60.5268 50.6512 59.6665 50.6512 58.7078C50.6512 57.1592 49.4713 55.881 47.9473 55.6598Z" fill="#191411"/>
<path d="M56.1818 60.772L55.9852 61.8535H52.2734C52.2734 61.8535 52.2734 61.8044 52.2734 61.7798C52.4209 61.706 52.4701 61.5585 52.4701 61.2636V56.2245C52.4701 55.9049 52.3963 55.782 52.2734 55.7083C52.2734 55.6837 52.2734 55.6345 52.2734 55.6345H53.3796C53.3796 55.6345 53.3796 55.6837 53.3796 55.7083C53.2567 55.782 53.1829 55.9049 53.1829 56.2245V61.8044H53.9941C54.9773 61.8044 55.7148 61.2882 56.1327 60.7474L56.1818 60.772Z" fill="#191411"/>
<path d="M56.0596 61.9525H52.1758V61.7313L52.2249 61.7067C52.3233 61.6575 52.3724 61.5592 52.3724 61.2642V56.2251C52.3724 55.9056 52.2987 55.8318 52.2249 55.7827L52.1758 55.7581V55.5369H53.454V55.7581L53.4048 55.7827C53.3311 55.8318 53.2573 55.9056 53.2573 56.2251V61.7067H53.9702C55.1255 61.7067 55.7892 60.9938 56.035 60.6989L56.0842 60.6251L56.2562 60.748V60.7972L56.0596 61.9525ZM54.8305 61.7559H55.9121L56.0596 60.9693C55.8138 61.2397 55.4205 61.5838 54.8305 61.7559ZM52.4462 61.7559H53.0853V56.2251C53.0853 55.9793 53.1099 55.8318 53.2082 55.7335H52.4462C52.5445 55.8318 52.5691 56.0039 52.5691 56.2251V61.2642C52.5691 61.51 52.5445 61.6575 52.4462 61.7559Z" fill="#191411"/>
<path d="M63.4085 58.7317C63.4085 60.5016 61.9091 61.8535 59.8443 61.8535H57.6074C57.6074 61.8535 57.6074 61.8044 57.6074 61.7798C57.7303 61.706 57.8041 61.5585 57.8041 61.2636V56.2245C57.8041 55.9049 57.7303 55.782 57.6074 55.7083C57.6074 55.6837 57.6074 55.6345 57.6074 55.6345H59.8443C61.9091 55.6345 63.4085 56.9865 63.4085 58.7317ZM62.7203 58.7317C62.7203 57.0848 61.6387 55.6837 59.8443 55.6837H58.5169V61.8044H59.8443C61.6387 61.8044 62.7203 60.3787 62.7203 58.7317Z" fill="#191411"/>
<path d="M59.8448 61.9523H57.5342V61.7557L57.5833 61.7311C57.6817 61.682 57.7308 61.5836 57.7308 61.2887V56.2495C57.7308 55.9546 57.6817 55.8563 57.5833 55.8071L57.5342 55.7825V55.5613H59.8448C61.9342 55.5613 63.5074 56.9378 63.5074 58.7814C63.5074 60.5758 61.9342 61.9523 59.8448 61.9523ZM57.8046 61.7557H58.4437V55.7088H57.8046C57.8783 55.8071 57.9275 55.9792 57.9275 56.2004V61.2395C57.9029 61.5099 57.8783 61.6574 57.8046 61.7557ZM58.6158 61.7065H59.8448C61.6638 61.7065 62.6225 60.2071 62.6225 58.7568C62.6225 57.2819 61.6638 55.8071 59.8448 55.8071H58.6158V61.7065ZM61.3442 55.9792C62.2537 56.4954 62.8191 57.5032 62.8191 58.7322C62.8191 59.9613 62.2537 60.9445 61.3934 61.4607C62.5733 60.9937 63.3599 59.9613 63.3599 58.7322C63.3353 57.4786 62.5241 56.4462 61.3442 55.9792Z" fill="#191411"/>
</svg>
