<svg width="17" height="18" viewBox="0 0 17 18" fill="none" xmlns="http://www.w3.org/2000/svg">
<path d="M8.06707 12.5514L12.0762 8.60183L8.06707 4.49756L4.33159 8.60183L8.06707 12.5514ZM9.28051 8.60183L8.06707 9.74388L7.02019 8.60183L8.06707 7.17425L9.28051 8.60183Z" fill="white"/>
<path d="M8.44647 17.2203L10.1833 16.4947L16.2505 10.2609L17 8.60733L16.2386 6.96562L10.1001 0.803267L6.74528 0.767578L0.70189 7.037L6.43472e-07 8.61922L0.559132 10.3442L6.73338 16.4709L8.43457 17.2322L8.44647 17.2203ZM15.2036 7.98871L15.4654 8.59543L15.2869 9.29732L9.08887 15.4121L7.72078 15.4716L1.58223 9.30922L1.3443 8.61922L1.49895 7.84596L7.68509 1.73119L9.05318 1.83826L15.1917 8.00061L15.2036 7.98871Z" fill="white"/>
</svg>
