<svg width="117" height="75" viewBox="0 0 117 75" fill="none" xmlns="http://www.w3.org/2000/svg">
<path d="M97.1457 22.074H20.0842C19.9121 22.074 19.7646 21.9265 19.7646 21.7299C19.7646 21.5332 19.9121 21.3857 20.0842 21.3857H97.1211C97.2931 21.3857 97.4406 21.5332 97.4406 21.7299C97.4652 21.9265 97.3177 22.074 97.1457 22.074Z" fill="#191411"/>
<path d="M89.451 58.0359H27.7772C27.6297 58.0359 27.5068 57.8884 27.5068 57.6918C27.5068 57.4951 27.6297 57.3477 27.7772 57.3477H89.451C89.5985 57.3477 89.7214 57.4951 89.7214 57.6918C89.7214 57.8884 89.5985 58.0359 89.451 58.0359Z" fill="#191411"/>
<path d="M59.1673 15.2894C58.9953 15.3877 58.6265 15.4614 58.1595 15.4614C57.0779 15.4614 56.2422 14.7732 56.2422 13.5195C56.2422 12.3151 57.0534 11.5039 58.2578 11.5039C58.7495 11.5039 59.0444 11.6022 59.1673 11.676L59.0444 12.0939C58.8478 11.9955 58.5774 11.9218 58.2578 11.9218C57.3483 11.9218 56.7584 12.5117 56.7584 13.5195C56.7584 14.4536 57.2992 15.0682 58.2333 15.0682C58.5282 15.0682 58.8478 14.9944 59.0444 14.8961L59.1673 15.2894Z" fill="#191411"/>
<path d="M63.1739 15.2403C62.9527 15.314 62.5102 15.4615 61.994 15.4615C61.404 15.4615 60.937 15.314 60.5437 14.9453C60.1996 14.6258 60.0029 14.1096 60.0029 13.5196C60.0029 12.3643 60.7895 11.5286 62.0923 11.5286C62.5348 11.5286 62.8789 11.6269 63.051 11.7006L62.9281 12.1185C62.7314 12.0202 62.461 11.9464 62.0677 11.9464C61.1337 11.9464 60.5191 12.5364 60.5191 13.495C60.5191 14.4783 61.1091 15.0436 62.0186 15.0436C62.3381 15.0436 62.5594 14.9945 62.6823 14.9453V13.79H61.8957V13.3967H63.1739V15.2403Z" fill="#191411"/>
<path d="M53.5878 66.7862V66.4912L53.9565 66.1225C54.866 65.2622 55.2839 64.7951 55.2839 64.2543C55.2839 63.8856 55.1118 63.5661 54.571 63.5661C54.2515 63.5661 53.9811 63.7381 53.809 63.861L53.6615 63.5169C53.9073 63.3203 54.2515 63.1482 54.6693 63.1482C55.4313 63.1482 55.7509 63.6644 55.7509 64.1806C55.7509 64.8443 55.2839 65.3605 54.5218 66.0979L54.2269 66.3683H55.8246V66.7616H53.5878V66.7862Z" fill="#191411"/>
<path d="M59.2909 64.9673C59.2909 66.1717 58.8484 66.8354 58.0618 66.8354C57.3736 66.8354 56.9065 66.1963 56.882 65.0164C56.882 63.8365 57.3982 63.1729 58.111 63.1729C58.873 63.1729 59.2909 63.8365 59.2909 64.9673ZM57.3736 65.0164C57.3736 65.9505 57.6685 66.4667 58.0864 66.4667C58.578 66.4667 58.8239 65.9013 58.8239 64.9918C58.8239 64.1069 58.6026 63.5416 58.111 63.5416C57.6686 63.5416 57.3736 64.0578 57.3736 65.0164Z" fill="#191411"/>
<path d="M60.2988 66.7862V66.4912L60.6675 66.1225C61.577 65.2622 61.9949 64.7951 61.9949 64.2543C61.9949 63.8856 61.8229 63.5661 61.2821 63.5661C60.9625 63.5661 60.6921 63.7381 60.5201 63.861L60.3726 63.5169C60.6184 63.3203 60.9625 63.1482 61.3804 63.1482C62.1424 63.1482 62.462 63.6644 62.462 64.1806C62.462 64.8443 61.9949 65.3605 61.2329 66.0979L60.9379 66.3683H62.5357V66.7616H60.2988V66.7862Z" fill="#191411"/>
<path d="M64.673 63.6886L64.0339 64.0327L63.9355 63.664L64.7221 63.2461H65.14V66.7858H64.673V63.6886Z" fill="#191411"/>
<path d="M58.6269 74.5542C43.2637 74.5542 28.8101 70.7196 17.9207 63.7631C6.90842 56.733 0.836914 47.3184 0.836914 37.2648C0.836914 27.2112 6.90842 17.8212 17.8961 10.7911C28.7855 3.83464 43.2392 0 58.6269 0C73.99 0 88.4436 3.83464 99.333 10.7911C110.345 17.8212 116.392 27.2358 116.392 37.2648C116.392 47.2939 110.321 56.7084 99.333 63.7386C88.4436 70.7196 73.99 74.5542 58.6269 74.5542ZM58.6269 1.45028C27.4336 1.45028 2.04138 17.5263 2.04138 37.2648C2.04138 57.0034 27.409 73.0793 58.6023 73.0793C89.7956 73.0793 115.163 57.0034 115.163 37.2648C115.188 17.5263 89.7956 1.45028 58.6269 1.45028Z" fill="#191411"/>
<path d="M58.6276 71.4327C27.9751 71.4327 3.02539 56.1187 3.02539 37.2651C3.02539 18.436 27.9751 3.12207 58.6276 3.12207C89.2802 3.12207 114.205 18.436 114.205 37.2651C114.205 56.1187 89.2556 71.4327 58.6276 71.4327ZM58.6276 3.8595C28.3193 3.8595 3.63992 18.8539 3.63992 37.2897C3.63992 55.7254 28.2947 70.7198 58.6276 70.7198C88.9606 70.7198 113.615 55.7254 113.615 37.2897C113.591 18.8539 88.936 3.8595 58.6276 3.8595Z" fill="#191411"/>
<path d="M20.3545 37.9277V38.0506H17.8226V37.9277C18.2405 37.5098 17.8964 36.9199 17.2573 35.7892L15.512 32.7165C15.2662 32.7411 15.0204 32.7411 14.7746 32.7411H13.2506V36.9445C13.2506 37.5098 13.3735 37.7556 13.6193 37.9031C13.6193 37.9277 13.6193 38.026 13.6193 38.026H11.6036C11.6036 38.026 11.6036 37.9523 11.6036 37.9031C11.8494 37.7556 11.9724 37.5098 11.9724 36.9445V27.6529C11.9724 27.0629 11.8494 26.8417 11.6036 26.6942C11.6036 26.6696 11.6036 26.5713 11.6036 26.5713H14.7746C17.3064 26.5713 19.617 27.5299 19.617 29.6685C19.617 31.2171 18.388 32.1512 16.7411 32.5199L18.2159 35.1009C19.1746 36.797 19.7154 37.3624 20.3545 37.9277ZM18.3143 29.6685C18.3143 28.3903 17.8964 26.6942 14.7746 26.6942H13.2506V32.5936H14.7746C17.8718 32.6182 18.3143 30.9467 18.3143 29.6685Z" fill="#191411"/>
<path d="M20.4277 38.1494H17.7238V37.9036L17.7484 37.8791C18.0925 37.5349 17.8467 37.0433 17.2076 35.9126L15.4624 32.8399C15.2412 32.8645 14.9953 32.8645 14.7741 32.8645H13.3484V36.9696C13.3484 37.5595 13.4713 37.7316 13.668 37.8545L13.7171 37.8791V38.1494H11.5294V37.8791L11.5786 37.8545C11.7752 37.7316 11.8981 37.5595 11.8981 36.9696V27.6779C11.8981 27.088 11.7752 26.9159 11.5786 26.793L11.5294 26.7684V26.498H14.7987C17.0601 26.498 19.7149 27.3338 19.7149 29.6936C19.7149 31.0947 18.6825 32.1517 16.8881 32.5941L18.2892 35.0768C19.2724 36.7975 19.8132 37.3383 20.4032 37.8791L20.4277 37.9036V38.1494ZM17.9205 37.9528H20.2311C19.6412 37.412 19.1004 36.8467 18.1417 35.1506L16.5931 32.4467L16.716 32.4221C18.4858 32.0042 19.5182 30.9964 19.5182 29.669C19.5182 28.4399 18.6333 27.1617 16.2981 26.7684C17.7238 27.1372 18.4121 28.0958 18.4121 29.669C18.4121 31.4388 17.478 32.4466 15.5853 32.6679L17.3797 35.7897C17.9942 36.8712 18.3384 37.4858 17.9205 37.9528ZM11.7261 37.9528H13.4713C13.2501 37.7807 13.1518 37.4858 13.1518 36.9696V26.6701H11.7015C11.9473 26.8422 12.0456 27.1372 12.0456 27.6779V36.9696C12.0456 37.4858 11.9719 37.7807 11.7261 37.9528ZM13.3484 32.545H14.7741C17.0847 32.545 18.2155 31.6109 18.2155 29.6936C18.2155 28.9807 18.2155 26.8176 14.7741 26.8176H13.3484V32.545Z" fill="#191411"/>
<path d="M32.5713 32.2753C32.5713 35.4954 29.8674 38.1501 26.6227 38.1501C23.378 38.1501 20.6741 35.5199 20.6741 32.2753C20.6741 29.0306 23.378 26.4004 26.6227 26.4004C29.8674 26.425 32.5713 29.0306 32.5713 32.2753ZM30.9981 30.9479C30.1132 28.0719 27.6797 25.9825 24.9512 26.8183C22.2227 27.654 21.3623 30.7266 22.2473 33.6026C23.1322 36.5032 25.5657 38.5926 28.2942 37.7568C31.0227 36.9211 31.883 33.8484 30.9981 30.9479Z" fill="#191411"/>
<path d="M26.6224 38.2478C23.3039 38.2478 20.5754 35.5685 20.5754 32.2992C20.5754 29.0053 23.2794 26.3506 26.6224 26.3506C29.9408 26.3506 32.6693 29.0299 32.6693 32.2992C32.6447 35.5685 29.9408 38.2478 26.6224 38.2478ZM24.0414 27.088C22.0995 28.0221 20.7475 29.9886 20.7475 32.2746C20.7475 35.4456 23.3777 38.0511 26.5978 38.0511C26.7699 38.0511 26.9419 38.0511 27.0894 38.0266C27.0648 38.0266 27.0402 38.0266 27.0402 38.0266C26.1553 38.0266 25.295 37.7316 24.4838 37.1417C23.4023 36.3551 22.5665 35.1014 22.124 33.6266C21.5833 31.8813 21.6816 30.1115 22.3944 28.7595C22.8123 28.0467 23.3777 27.4813 24.0414 27.088ZM26.1799 26.7193C25.7866 26.7193 25.3933 26.7685 24.9754 26.9159C23.943 27.2355 23.1073 27.9238 22.5911 28.8824C21.9028 30.1852 21.8045 31.9059 22.3207 33.602C22.7632 35.0523 23.5743 36.2567 24.6067 37.0187C25.7129 37.8299 26.9665 38.0511 28.2447 37.6824C31.047 36.8221 31.7106 33.6757 30.8749 30.9964C30.2112 28.6858 28.4414 26.7193 26.1799 26.7193ZM26.1799 26.5227C28.5151 26.5227 30.3587 28.5629 31.0715 30.8981C31.809 33.3562 31.3665 36.183 29.228 37.4366C31.1453 36.478 32.4481 34.5361 32.4481 32.2746C32.4481 29.1037 29.8179 26.4981 26.5978 26.4981C26.4503 26.4981 26.2782 26.4981 26.1307 26.5227C26.1553 26.5227 26.1799 26.5227 26.1799 26.5227Z" fill="#191411"/>
<path d="M42.4283 28.5877L42.33 28.6369C41.5926 27.8011 40.5602 26.7196 38.7412 26.7196H38.3725V36.9699C38.3725 37.5352 38.4954 37.781 38.7412 37.9285C38.7412 37.9531 38.7412 38.0514 38.7412 38.0514H36.7009C36.7009 38.0514 36.7009 37.9777 36.7009 37.9285C36.9468 37.781 37.0697 37.5352 37.0697 36.9699V26.7196H36.7009C34.882 26.7196 33.8495 27.8011 33.1121 28.6369L33.0138 28.5877L33.53 26.5967H41.8384L42.4283 28.5877Z" fill="#191411"/>
<path d="M38.8398 38.1494H36.6275V37.8791L36.6767 37.8545C36.8733 37.7316 37.0208 37.5349 37.0208 36.9696V26.8176H36.7504C35.0298 26.8176 34.0465 27.8008 33.2354 28.7103L33.1862 28.7595L32.965 28.6366L33.5303 26.498H41.9862L42.0108 26.5718L42.5516 28.6366L42.3303 28.7595L42.2812 28.7103C41.47 27.8008 40.4868 26.8176 38.7661 26.8176H38.4957V36.9696C38.4957 37.5349 38.6186 37.7316 38.8152 37.8545L38.8644 37.8791V38.1494H38.8398ZM36.8488 37.9528H38.6186C38.3728 37.7561 38.2745 37.4612 38.2745 36.9696V26.6701H37.1929V36.9696C37.1929 37.4858 37.0946 37.7807 36.8488 37.9528ZM39.4298 26.6701C40.7326 26.8913 41.5929 27.6779 42.3057 28.4645L41.8387 26.6701H39.4298ZM33.6532 26.6701L33.1862 28.4399C33.8745 27.6534 34.7348 26.8668 36.0376 26.6701H33.6532Z" fill="#191411"/>
<path d="M51.6208 38.0514H49.0889V37.9285C49.5068 37.5106 49.3839 36.9207 48.9169 35.7408L48.1057 33.6514H44.0744L43.6319 34.9051C43.1157 36.4045 43.0174 37.1911 43.7057 37.9285V38.0514H41.7638V37.9285C42.4766 37.1911 42.9437 36.4291 43.4845 34.9051L45.9426 27.9978L45.4018 26.5967H46.7046L49.9001 34.9051C50.5638 36.552 51.0063 37.1911 51.6208 37.9285V38.0514ZM48.0811 33.5285L46.0163 28.1699L44.1236 33.5285H48.0811Z" fill="#191411"/>
<path d="M51.7194 38.1494H49.0155V37.9036L49.0401 37.8791C49.4334 37.4858 49.3105 36.945 48.868 35.7897L48.0814 33.774H44.1485L43.7306 34.9539C43.239 36.355 43.1161 37.1662 43.8044 37.8791L43.8289 37.9036V38.1494H41.715V37.9036L41.7395 37.8791C42.3787 37.1908 42.8703 36.5025 43.4356 34.8802L45.8692 27.9975L45.3038 26.498H46.8032L46.8278 26.5472L50.0234 34.8556C50.687 36.4779 51.1049 37.117 51.7194 37.8545L51.744 37.8791V38.1494H51.7194ZM49.2122 37.9528H51.5228C50.9083 37.2399 50.4904 36.5517 49.8267 34.9293L46.6312 26.6701H45.5496L46.0658 27.9729L48.2289 33.602L49.0401 35.6913C49.4826 36.8958 49.6055 37.5103 49.2122 37.9528ZM41.887 37.9528H43.6077C43.0669 37.3629 43.0178 36.6992 43.2636 35.7897C42.8211 36.8221 42.4032 37.412 41.887 37.9528ZM44.2468 33.4299H47.934L46.0166 28.4399L44.2468 33.4299Z" fill="#191411"/>
<path d="M60.4957 28.5877L60.3974 28.6369C59.6599 27.8011 58.6275 26.7196 56.8085 26.7196H56.4398V36.9699C56.4398 37.5352 56.5627 37.781 56.8085 37.9285C56.8085 37.9531 56.8085 38.0514 56.8085 38.0514H54.7683C54.7683 38.0514 54.7683 37.9777 54.7683 37.9285C55.0141 37.781 55.137 37.5352 55.137 36.9699V26.7196H54.7683C52.9493 26.7196 51.9169 27.8011 51.1795 28.6369L51.0812 28.5877L51.5974 26.5967H59.9058L60.4957 28.5877Z" fill="#191411"/>
<path d="M56.9316 38.1494H54.7193V37.8791L54.7685 37.8545C54.9651 37.7316 55.1126 37.5349 55.1126 36.9696V26.8176H54.8422C53.1216 26.8176 52.1383 27.8008 51.3272 28.7103L51.278 28.7595L51.0568 28.6366L51.6221 26.498H60.0534L60.078 26.5718L60.6188 28.6366L60.3975 28.7595L60.3484 28.7103C59.5372 27.8008 58.554 26.8176 56.8333 26.8176H56.5629V36.9696C56.5629 37.5349 56.6858 37.7316 56.8825 37.8545L56.9316 37.8791V38.1494ZM54.9406 37.9528H56.7104C56.4646 37.7561 56.3663 37.4612 56.3663 36.9696V26.6701H55.2847V36.9696C55.2601 37.4858 55.1618 37.7807 54.9406 37.9528ZM57.497 26.6701C58.7998 26.8913 59.6601 27.6779 60.373 28.4645L59.9059 26.6701H57.497ZM51.7205 26.6701L51.2534 28.4399C51.9417 27.6534 52.802 26.8668 54.1048 26.6701H51.7205Z" fill="#191411"/>
<path d="M63.1248 27.6782V36.9699C63.1248 37.5352 63.2477 37.781 63.4935 37.9285C63.4935 37.9531 63.4935 38.0514 63.4935 38.0514H61.4532C61.4532 38.0514 61.4532 37.9777 61.4532 37.9285C61.6991 37.781 61.822 37.5352 61.822 36.9699V27.6782C61.822 27.1129 61.6991 26.8671 61.4532 26.7196C61.4532 26.695 61.4532 26.5967 61.4532 26.5967H63.4935C63.4935 26.5967 63.4935 26.695 63.4935 26.7196C63.2477 26.8671 63.1248 27.1129 63.1248 27.6782Z" fill="#191411"/>
<path d="M63.6167 38.1494H61.4044V37.8791L61.4536 37.8545C61.6502 37.7316 61.7731 37.5595 61.7731 36.9696V27.6779C61.7731 27.088 61.6502 26.9159 61.4536 26.793L61.4044 26.7684V26.498H63.6167V26.7684L63.5675 26.793C63.3709 26.9159 63.248 27.088 63.248 27.6779V36.9696C63.248 37.5595 63.3709 37.7316 63.5675 37.8545L63.6167 37.8791V38.1494ZM61.6256 37.9528H63.3955C63.1497 37.7807 63.0513 37.4858 63.0513 36.9696V27.6779C63.0513 27.1372 63.1497 26.8422 63.3955 26.6701H61.5765C61.8223 26.8422 61.9206 27.1372 61.9206 27.6779V36.9696C61.9452 37.4858 61.8469 37.7807 61.6256 37.9528Z" fill="#191411"/>
<path d="M76.5467 32.2743C76.5467 35.4944 73.8428 38.1491 70.5981 38.1491C67.3534 38.1491 64.6495 35.519 64.6495 32.2743C64.6495 29.0296 67.3534 26.3994 70.5981 26.3994C73.8428 26.424 76.5467 29.0296 76.5467 32.2743ZM74.9736 30.9469C74.0886 28.0709 71.6551 25.9815 68.9266 26.8173C66.1981 27.653 65.3378 30.7257 66.2227 33.6016C67.1076 36.5022 69.5412 38.5916 72.2696 37.7558C75.0227 36.9201 75.8585 33.8475 74.9736 30.9469Z" fill="#191411"/>
<path d="M70.5978 38.2478C67.2794 38.2478 64.5509 35.5685 64.5509 32.2992C64.5509 29.0053 67.2548 26.3506 70.5978 26.3506C73.9163 26.3506 76.6448 29.0299 76.6448 32.2992C76.6448 35.5685 73.9409 38.2478 70.5978 38.2478ZM68.0414 27.088C66.0995 28.0221 64.7476 29.9886 64.7476 32.2746C64.7476 35.4456 67.3777 38.0511 70.5978 38.0511C70.7699 38.0511 70.942 38.0511 71.0895 38.0266C71.0649 38.0266 71.0403 38.0266 71.0403 38.0266C70.1554 38.0266 69.295 37.7316 68.4839 37.1417C67.4023 36.3551 66.5666 35.1014 66.1241 33.6266C65.5833 31.8813 65.6816 30.1115 66.3945 28.7595C66.8124 28.0467 67.3531 27.4813 68.0414 27.088ZM70.1554 26.7193C69.7621 26.7193 69.3688 26.7685 68.9509 26.9159C67.9185 27.2355 67.0828 27.9238 66.5665 28.8824C65.8783 30.1852 65.78 31.9059 66.2962 33.602C66.7386 35.0523 67.5498 36.2567 68.5822 37.0187C69.6883 37.8299 70.942 38.0511 72.2202 37.6824C75.0224 36.8221 75.6861 33.6757 74.8504 30.9964C74.1867 28.6858 72.4168 26.7193 70.1554 26.7193ZM70.18 26.5227C72.5152 26.5227 74.3587 28.5629 75.0716 30.8981C75.809 33.3562 75.3666 36.183 73.228 37.4366C75.1453 36.478 76.4481 34.5361 76.4481 32.2746C76.4481 29.1037 73.8179 26.4981 70.5978 26.4981C70.4503 26.4981 70.2783 26.4981 70.1308 26.5227C70.1554 26.5227 70.1554 26.5227 70.18 26.5227Z" fill="#191411"/>
<path d="M87.7805 26.5717C87.7805 26.5717 87.7805 26.67 87.7805 26.6946C87.2397 26.965 86.7481 27.8253 86.7481 28.5382V38.0265H86.5023L78.7101 28.0466V36.06C78.7101 36.7728 79.2017 37.6332 79.7671 37.9035C79.7671 37.9281 79.7671 38.0265 79.7671 38.0265H77.5548C77.5548 38.0265 77.5548 37.9527 77.5548 37.9035C78.1202 37.6332 78.6118 36.7482 78.6118 36.06V27.8991L77.5548 26.5471H79.2017L86.6252 35.9371V28.5136C86.6252 27.8008 86.1336 26.965 85.5928 26.67C85.5928 26.6454 85.5928 26.5471 85.5928 26.5471H87.7805V26.5717Z" fill="#191411"/>
<path d="M86.8212 38.1493H86.4279L86.4034 38.1247L78.7832 28.366V36.1091C78.7832 36.7727 79.2503 37.6085 79.7911 37.8789L79.8402 37.9035V38.1739H77.4559V37.9035L77.505 37.8789C78.0212 37.6085 78.5129 36.7727 78.5129 36.1091V27.9973L77.3575 26.5225H79.2503L79.2749 26.547L86.5263 35.7403V28.5627C86.5263 27.899 86.0592 27.0878 85.543 26.8174L85.4939 26.7929V26.5225H87.8782V26.7929L87.8291 26.8174C87.3129 27.0878 86.8458 27.899 86.8458 28.5627V38.1493H86.8212ZM86.5508 37.9526H86.6492V36.1828L79.152 26.6699H77.7263L78.7832 28.0219L86.5508 37.9526ZM77.6771 37.9526H79.5944C79.152 37.6577 78.7587 37.0431 78.6358 36.4286C78.5374 37.0431 78.1441 37.6577 77.6771 37.9526ZM85.6905 26.6699C86.1575 26.9649 86.5508 27.6286 86.6737 28.2431C86.7721 27.6286 87.1899 26.9649 87.657 26.6699H85.6905Z" fill="#191411"/>
<path d="M97.9559 38.0514H95.4241V37.9285C95.8419 37.5106 95.719 36.9207 95.252 35.7408L94.4408 33.6514H90.385L89.9425 34.9051C89.4263 36.4045 89.328 37.1911 90.0162 37.9285V38.0514H88.0743V37.9285C88.7872 37.1911 89.2542 36.4291 89.795 34.9051L92.2531 27.9978L91.7123 26.5967H93.0151L96.2107 34.9051C96.8743 36.552 97.3168 37.1911 97.9313 37.9285V38.0514H97.9559ZM94.4162 33.5285L92.3514 28.1699L90.4587 33.5285H94.4162Z" fill="#191411"/>
<path d="M98.03 38.1494H95.3261V37.9036L95.3507 37.8791C95.744 37.4858 95.621 36.945 95.1786 35.7897L94.392 33.774H90.459L90.0412 34.9539C89.5495 36.355 89.4266 37.1662 90.1149 37.8791L90.1395 37.9036V38.1494H88.0255V37.9036L88.0501 37.8791C88.6892 37.1908 89.1808 36.5025 89.7462 34.8802L92.1797 27.9975L91.6143 26.498H93.1138L93.1384 26.5472L96.3339 34.8556C96.9976 36.4779 97.4155 37.117 98.03 37.8545L98.0546 37.8791V38.1494H98.03ZM95.5227 37.9528H97.8333C97.2188 37.2399 96.8009 36.5517 96.1372 34.9293L92.9663 26.6701H91.8602L92.3764 27.9729L94.5395 33.602L95.3507 35.6913C95.8177 36.8958 95.9406 37.5103 95.5227 37.9528ZM88.1976 37.9528H89.9183C89.3775 37.3629 89.3283 36.6992 89.5741 35.7897C89.1317 36.8221 88.7384 37.412 88.1976 37.9528ZM90.5819 33.4299H94.2691L92.3518 28.4399L90.5819 33.4299Z" fill="#191411"/>
<path d="M105.946 36.0604L105.577 38.0514H98.7433C98.7433 38.0514 98.7433 37.9777 98.7433 37.9285C99.0137 37.781 99.112 37.5352 99.112 36.9699V27.6782C99.112 27.0883 98.9891 26.8671 98.7433 26.7196C98.7433 26.695 98.7433 26.5967 98.7433 26.5967H100.784C100.784 26.5967 100.784 26.695 100.784 26.7196C100.538 26.8671 100.415 27.0883 100.415 27.6782V37.9285H101.914C103.733 37.9285 105.085 36.9944 105.847 35.9866L105.946 36.0604Z" fill="#191411"/>
<path d="M105.676 38.1494H98.67V37.8791L98.7192 37.8545C98.9158 37.7316 99.0388 37.5595 99.0388 36.9696V27.6779C99.0388 27.088 98.9158 26.9159 98.7192 26.793L98.67 26.7684V26.498H100.882V26.7684L100.833 26.793C100.637 26.9159 100.514 27.088 100.514 27.6779V37.8299H101.915C104.078 37.8299 105.331 36.5025 105.774 35.9372L105.823 35.8634L106.044 36.0109L105.676 38.1494ZM102.8 37.9528H105.528L105.848 36.1584C105.405 36.7237 104.397 37.6824 102.8 37.9528ZM98.9159 37.9528H100.366V27.6779C100.366 27.1372 100.464 26.8422 100.71 26.6701H98.8913C99.1371 26.8422 99.2354 27.1372 99.2354 27.6779V36.9696C99.2354 37.4858 99.1371 37.7807 98.9159 37.9528Z" fill="#191411"/>
<path d="M36.3064 47.0969C36.3064 47.0969 36.3064 47.1952 36.3064 47.2198C36.0606 47.3673 35.9377 47.5885 35.9377 48.1785V49.9483C35.4953 50.907 33.9221 52.6277 30.702 52.6277C27.4819 52.6277 24.8517 49.9975 24.8517 46.7528C24.8517 43.5081 27.7768 40.8779 31.0215 40.8779C32.7913 40.8779 33.8483 41.345 35.2495 42.2545L34.7578 44.1226H34.6349C33.4305 42.2299 31.4886 40.8042 29.35 41.2712C26.5478 41.8857 25.54 45.1796 26.4249 48.0802C27.3098 50.9561 29.4483 52.5785 32.3735 52.2098C33.3567 52.0869 34.0941 51.6198 34.6349 51.0299V48.8422C34.6349 47.8344 34.1679 47.2198 33.3813 47.1707C33.3813 47.0723 33.3813 47.0478 33.3813 47.0478H36.3064V47.0969Z" fill="#191411"/>
<path d="M30.727 52.7263C27.4578 52.7263 24.7784 50.047 24.7784 46.7777C24.7784 43.5576 27.6544 40.8291 31.0466 40.8291C32.8656 40.8291 33.9472 41.3207 35.3237 42.2302L35.3729 42.2548L34.8567 44.2459H34.6108L34.5863 44.1967C33.5293 42.5252 31.612 40.9028 29.3997 41.3945C28.3673 41.6157 27.5069 42.2548 26.9416 43.2135C26.155 44.5408 26.0075 46.3844 26.5237 48.1051C27.4332 51.0548 29.5472 52.5297 32.374 52.1609C33.2343 52.038 33.9717 51.6693 34.5617 51.0302V48.8917C34.5617 47.933 34.1438 47.3676 33.3818 47.3185H33.2835V46.9989H36.3807V47.2693L36.3315 47.2939C36.1349 47.4168 36.012 47.5889 36.012 48.1788V49.9978C35.5695 51.0056 33.9226 52.7263 30.727 52.7263ZM27.8757 41.8861C26.155 42.9185 24.9751 44.7375 24.9751 46.7777C24.9751 49.9487 27.5561 52.5542 30.727 52.5542C31.4891 52.5542 32.1773 52.4559 32.7673 52.2838C32.6444 52.3084 32.5215 52.333 32.3986 52.3576C29.5226 52.7263 27.2611 51.1531 26.3516 48.1788C25.8108 46.409 25.9583 44.5163 26.7695 43.1397C27.0891 42.6235 27.4578 42.2056 27.8757 41.8861ZM33.7259 47.171C34.365 47.3431 34.7583 47.9822 34.7583 48.8917V51.104L34.7338 51.1285C34.4634 51.4235 34.1684 51.6693 33.8488 51.8414C34.955 51.276 35.5941 50.4894 35.8645 49.9241V48.1788C35.8645 47.638 35.9628 47.3431 36.2086 47.171H33.7259ZM30.2108 41.1241C32.1527 41.1241 33.7751 42.5498 34.7338 44.0492L35.1762 42.3285C33.8734 41.4682 32.8164 41.0012 31.0466 41.0012C30.5796 41.0012 30.1125 41.0503 29.6701 41.1487C29.8421 41.1487 30.0388 41.1241 30.2108 41.1241Z" fill="#191411"/>
<path d="M46.2881 52.4316V52.5545H43.7562V52.4316C44.1741 52.0137 43.83 51.4238 43.1909 50.2931L41.4456 47.2204C41.1998 47.245 40.954 47.245 40.7082 47.245H39.1842V51.4484C39.1842 52.0137 39.3071 52.2596 39.5529 52.407C39.5529 52.4316 39.5529 52.5299 39.5529 52.5299H37.5372C37.5372 52.5299 37.5372 52.4562 37.5372 52.407C37.783 52.2596 37.9059 52.0137 37.9059 51.4484V42.1568C37.9059 41.5668 37.783 41.3456 37.5372 41.1981C37.5372 41.1735 37.5372 41.0752 37.5372 41.0752H40.7082C43.24 41.0752 45.5506 42.0339 45.5506 44.1724C45.5506 45.721 44.3216 46.6551 42.6747 47.0238L44.1495 49.6048C45.1328 51.3009 45.649 51.8417 46.2881 52.4316ZM44.2724 44.1724C44.2724 42.8942 43.8546 41.1981 40.7328 41.1981H39.2087V47.0975H40.7328C43.83 47.1221 44.2724 45.426 44.2724 44.1724Z" fill="#191411"/>
<path d="M46.3858 52.628H43.6818V52.3822L43.7064 52.3576C44.0506 52.0134 43.8047 51.5218 43.1656 50.3911L41.4204 47.3185C41.1992 47.343 40.9533 47.343 40.7321 47.343H39.3064V51.4481C39.3064 52.038 39.4293 52.2101 39.626 52.333L39.6751 52.3576V52.628H37.4874V52.3576L37.5366 52.333C37.7332 52.2101 37.8561 52.038 37.8561 51.4481V42.1565C37.8561 41.5665 37.7332 41.3944 37.5366 41.2715L37.4874 41.247V40.9766H40.7567C43.0182 40.9766 45.6729 41.8123 45.6729 44.1721C45.6729 45.5732 44.6405 46.6302 42.8461 47.0727L44.2472 49.5553C45.2304 51.276 45.7712 51.8168 46.3612 52.3576L46.3858 52.3822V52.628ZM43.8785 52.4559H46.1891C45.5992 51.9151 45.0584 51.3497 44.0997 49.6537L42.5511 46.9497L42.674 46.9252C44.4439 46.5073 45.4763 45.4995 45.4763 44.1721C45.4763 42.943 44.5913 41.6648 42.2561 41.2715C43.6818 41.6402 44.3701 42.5989 44.3701 44.1721C44.3701 45.9419 43.436 46.9497 41.5433 47.171L43.3377 50.2928C43.9277 51.3743 44.2718 51.9889 43.8785 52.4559ZM37.6841 52.4559H39.4293C39.2081 52.2838 39.1098 51.9889 39.1098 51.4727V41.1732H37.6595C37.9053 41.3453 38.0036 41.6403 38.0036 42.181V51.4727C38.0036 51.9643 37.9053 52.2592 37.6841 52.4559ZM39.3064 47.0235H40.7321C43.0427 47.0235 44.1735 46.0894 44.1735 44.1721C44.1735 43.4592 44.1735 41.2961 40.7321 41.2961H39.3064V47.0235Z" fill="#191411"/>
<path d="M56.464 52.5299H53.9321V52.407C54.35 51.9892 54.2271 51.3992 53.76 50.2193L52.9489 48.1299H48.893L48.4505 49.3836C47.9343 50.883 47.836 51.6696 48.5243 52.407V52.5299H46.5824V52.407C47.2952 51.6696 47.7623 50.9076 48.3031 49.3836L50.7612 42.4763L50.2204 41.0752H51.5232L54.7187 49.3836C55.3824 51.0305 55.8249 51.6696 56.4394 52.407V52.5299H56.464ZM52.9243 48.007L50.8595 42.6484L48.9668 48.007H52.9243Z" fill="#191411"/>
<path d="M56.5626 52.628H53.8587V52.3822L53.8833 52.3576C54.2766 51.9643 54.1537 51.4235 53.7112 50.2682L52.9246 48.2525H48.9917L48.5738 49.4324C48.0822 50.8335 47.9593 51.6447 48.6475 52.3576L48.6721 52.3822V52.628H46.5336V52.3822L46.5582 52.3576C47.1973 51.6693 47.6889 50.981 48.2542 49.3587L50.6878 42.476L50.1224 40.9766H51.6218L51.6464 41.0257L54.8419 49.3341C55.5056 50.9565 55.9235 51.5956 56.538 52.333L56.5626 52.3576V52.628ZM54.0554 52.4559H56.366C55.7514 51.743 55.3336 51.0548 54.6699 49.4324L51.4989 41.1732H50.3928L50.909 42.476L53.0721 48.1051L53.8833 50.1944C54.3257 51.3989 54.4487 51.9889 54.0554 52.4559ZM46.7302 52.4559H48.4509C47.9101 51.8659 47.8609 51.2023 48.1068 50.2928C47.6643 51.3252 47.2464 51.8905 46.7302 52.4559ZM49.09 47.933H52.7771L50.8598 42.943L49.09 47.933Z" fill="#191411"/>
<path d="M65.2882 50.5633L64.9195 52.5544H58.1597H56.8077L63.4938 41.2225H60.9374C59.1429 41.2225 58.1105 42.3041 57.3485 43.1398L57.2748 43.0907L57.791 41.0996H64.9195L58.2089 52.456H61.2323C63.0267 52.456 64.4033 51.522 65.1653 50.5141L65.2882 50.5633Z" fill="#191411"/>
<path d="M64.9933 52.628H56.6357L63.3218 41.2961H60.9374C59.1184 41.2961 58.086 42.4268 57.4223 43.1889L57.3732 43.238L57.1765 43.1151L57.7419 40.9766H65.1162L58.4056 52.333H61.2816C63.4447 52.333 64.6983 51.0056 65.1408 50.4403L65.1899 50.3665L65.4112 50.514L64.9933 52.628ZM62.1173 52.4559H64.8458L65.1653 50.6615C64.7229 51.2023 63.7151 52.1855 62.1173 52.4559ZM56.9553 52.4559H58.086L58.1352 52.3822L64.7721 41.1732H63.6167L56.9553 52.4559ZM57.8648 41.1732L57.3978 42.943C58.1352 42.1319 58.9709 41.3944 60.2491 41.1732H57.8648Z" fill="#191411"/>
<path d="M68.0906 42.1812V51.4728C68.0906 52.0382 68.2135 52.284 68.4593 52.4315C68.4593 52.456 68.4593 52.5544 68.4593 52.5544H66.4191C66.4191 52.5544 66.4191 52.4806 66.4191 52.4315C66.6649 52.284 66.7878 52.0382 66.7878 51.4728V42.1812C66.7878 41.6158 66.6649 41.37 66.4191 41.2225C66.4191 41.1979 66.4191 41.0996 66.4191 41.0996H68.4593C68.4593 41.0996 68.4593 41.1979 68.4593 41.2225C68.1889 41.3454 68.0906 41.5912 68.0906 42.1812Z" fill="#191411"/>
<path d="M68.5581 52.628H66.3458V52.3576L66.395 52.333C66.5916 52.2101 66.7145 52.038 66.7145 51.4481V42.1565C66.7145 41.5665 66.5916 41.3944 66.395 41.2715L66.3458 41.247V40.9766H68.5581V41.247L68.509 41.2715C68.3123 41.3944 68.1894 41.5665 68.1894 42.1565V51.4481C68.1894 52.038 68.3123 52.2101 68.509 52.333L68.5581 52.3576V52.628ZM66.5671 52.4559H68.3369C68.0911 52.2838 67.9927 51.9889 67.9927 51.4727V42.181C67.9927 41.6403 68.0911 41.3453 68.3369 41.1732H66.5179C66.7637 41.3453 66.862 41.6403 66.862 42.181V51.4727C66.8866 51.9643 66.7883 52.2592 66.5671 52.4559Z" fill="#191411"/>
<path d="M80.012 41.0744C80.012 41.0744 80.012 41.1727 80.012 41.1973C79.4712 41.4677 78.9796 42.328 78.9796 43.0409V52.5291H78.7337L70.9416 42.5492V50.5627C70.9416 51.2755 71.4332 52.1358 71.9985 52.4062C71.9985 52.4308 71.9985 52.5291 71.9985 52.5291H69.7863C69.7863 52.5291 69.7863 52.4554 69.7863 52.4062C70.3516 52.1358 70.8432 51.2509 70.8432 50.5627V42.4018L69.7863 41.0498H71.4332L78.8566 50.4397V43.0163C78.8566 42.3034 78.365 41.4677 77.8242 41.1727C77.8242 41.1481 77.8242 41.0498 77.8242 41.0498H80.012V41.0744Z" fill="#191411"/>
<path d="M79.0781 52.6278H78.6848L78.6602 52.6032L71.0401 42.8446V50.5876C71.0401 51.2513 71.5071 52.087 72.0479 52.3574L72.0971 52.382V52.6524H69.7127V52.382L69.7619 52.3574C70.2781 52.087 70.7697 51.2513 70.7697 50.5876V42.4758L69.6144 41.001H71.5071L71.5317 41.0256L78.7831 50.2189V43.0412C78.7831 42.3775 78.3161 41.5663 77.7999 41.2959L77.7507 41.2714V41.001H80.1351V41.2714L80.0859 41.2959C79.5697 41.5663 79.1027 42.3775 79.1027 43.0412V52.6278H79.0781ZM78.7831 52.4557H78.8814V50.6859L71.3842 41.173H69.9585L71.0155 42.525L78.7831 52.4557ZM69.9094 52.4557H71.8267C71.3842 52.1608 70.9909 51.5462 70.868 50.9317C70.7697 51.5216 70.3764 52.1608 69.9094 52.4557ZM77.9228 41.173C78.3898 41.468 78.7831 42.1317 78.906 42.7462C79.0043 42.1317 79.4222 41.468 79.8892 41.173H77.9228Z" fill="#191411"/>
<path d="M92.2538 47.0969C92.2538 47.0969 92.2538 47.1952 92.2538 47.2198C92.008 47.3673 91.8851 47.5885 91.8851 48.1785V49.9483C91.4426 50.907 89.8695 52.6277 86.6494 52.6277C83.4292 52.6277 80.7991 49.9975 80.7991 46.7528C80.7991 43.5081 83.7242 40.8779 86.9689 40.8779C88.7387 40.8779 89.7957 41.345 91.1968 42.2545L90.7052 44.1226H90.5823C89.3778 42.2299 87.4359 40.8042 85.2974 41.2712C82.4952 41.8857 81.4873 45.1796 82.3723 48.0802C83.2572 50.9561 85.3957 52.5785 88.3209 52.2098C89.3041 52.0869 90.0415 51.6198 90.5823 51.0299V48.8422C90.5823 47.8344 90.1153 47.2198 89.3287 47.1707C89.3287 47.0723 89.3287 47.0478 89.3287 47.0478H92.2538V47.0969Z" fill="#191411"/>
<path d="M86.6735 52.7263C83.4042 52.7263 80.7249 50.047 80.7249 46.7777C80.7249 43.5576 83.6008 40.8291 86.993 40.8291C88.812 40.8291 89.8936 41.3207 91.2701 42.2302L91.3193 42.2548L90.8031 44.2459H90.5573L90.5327 44.1967C89.4757 42.5252 87.5584 40.9028 85.3461 41.3945C84.3137 41.6157 83.4533 42.2548 82.888 43.2135C82.1014 44.5408 81.9539 46.3844 82.4701 48.1051C83.3796 51.0548 85.4936 52.5297 88.3204 52.1609C89.1807 52.038 89.9181 51.6693 90.5081 51.0302V48.8917C90.5081 47.933 90.0902 47.3676 89.3282 47.3185H89.2299V46.9989H92.3271V47.2693L92.2779 47.2939C92.0813 47.4168 91.9584 47.5889 91.9584 48.1788V49.9978C91.5159 51.0056 89.869 52.7263 86.6735 52.7263ZM83.8221 41.8861C82.1014 42.9185 80.9215 44.7375 80.9215 46.7777C80.9215 49.9487 83.5025 52.5542 86.6735 52.5542C87.4355 52.5542 88.1237 52.4559 88.7137 52.2838C88.5908 52.3084 88.4679 52.333 88.345 52.3576C85.469 52.7263 83.2075 51.1531 82.298 48.1788C81.7573 46.409 81.9047 44.5163 82.7159 43.1397C83.0355 42.6235 83.4042 42.2056 83.8221 41.8861ZM89.6723 47.171C90.3114 47.3431 90.7047 47.9822 90.7047 48.8917V51.104L90.6802 51.1285C90.4098 51.4235 90.1148 51.6693 89.7952 51.8414C90.9014 51.276 91.5405 50.4894 91.8109 49.9241V48.1788C91.8109 47.638 91.9092 47.3431 92.155 47.171H89.6723ZM86.1573 41.1241C88.0992 41.1241 89.7215 42.5498 90.6802 44.0492L91.1226 42.3285C89.8198 41.4682 88.7628 41.0012 86.993 41.0012C86.526 41.0012 86.0589 41.0503 85.6165 41.1487C85.7885 41.1487 85.9852 41.1241 86.1573 41.1241Z" fill="#191411"/>
</svg>
