<svg width="3" height="447" viewBox="0 0 3 447" fill="none" xmlns="http://www.w3.org/2000/svg">
<path d="M2.77057 445.554C2.8357 446.258 2.80313 447 2.68735 447C2.32192 447 2.18805 440.357 2.47026 435.512C2.68735 431.917 2.66927 430.666 2.41962 428.869C2.22062 427.618 2.20253 426.719 2.35449 426.719C2.50283 426.719 2.55348 425.273 2.47026 422.929C2.38705 420.428 2.30384 420.037 2.25318 421.835C2.20253 423.281 2.08675 423.828 1.97097 423.085C1.85519 422.382 1.85519 420.584 2.00353 418.591C2.1374 416.989 2.33639 416.091 2.4377 416.794C2.53901 417.341 2.62223 416.989 2.62223 415.544C2.62223 414.293 2.52092 413.199 2.40514 413.199C2.27127 413.199 2.27128 411.753 2.42324 408.51C2.55711 406.009 2.60776 401.672 2.55711 398.975C2.49198 394.833 2.47389 395.028 2.44132 400.069C2.40876 407.806 2.09036 410.112 1.94202 404.016C1.87689 401.32 1.97459 397.529 2.15911 395.029C2.55711 389.988 2.72354 380.492 2.44133 378.499C2.32554 377.796 2.27489 379.046 2.30746 381.742C2.35811 384.439 2.28936 386.236 2.10845 386.236C1.75749 386.236 1.94202 377.444 2.34002 375.647C2.48836 375.1 2.62223 373.654 2.62223 372.599C2.62223 371.505 2.48836 371.153 2.34002 371.895C2.17358 372.599 1.97459 372.091 1.90946 370.645C1.82624 369.395 1.89137 368.3 2.02524 368.3C2.15911 368.3 2.22424 367.753 2.15911 366.854C2.07589 366.151 2.15911 363.963 2.32554 362.165C2.49198 360.368 2.62585 356.226 2.60776 353.021C2.58967 347.629 2.5752 347.433 2.42324 351.419C2.20615 356.616 2.19167 356.265 2.12293 347.472C2.07228 342.979 2.12294 341.885 2.32193 343.682C2.52093 345.48 2.60415 344.034 2.67289 337.938C2.70546 333.444 2.67289 329.302 2.58967 328.794C2.50645 328.247 2.48836 326.098 2.5752 324.105C2.6765 321.213 2.60776 320.705 2.29298 321.956C1.90946 323.402 1.90946 323.206 2.29298 320.158C2.69098 316.759 2.56072 311.014 2.14464 313.711C1.9782 314.805 1.97821 314.258 2.16274 311.913C2.29661 309.92 2.36172 307.771 2.27851 306.872C2.21338 306.169 2.26042 305.427 2.39429 305.427C2.52816 305.427 2.62586 304.332 2.62586 303.082C2.62586 301.831 2.51007 301.48 2.35811 302.183C2.15911 303.434 2.15911 303.277 2.35811 300.737C2.69098 296.947 2.70908 287.451 2.39068 287.451C2.22425 287.451 2.24234 286.357 2.42324 284.052C2.62224 281.355 2.62224 280.652 2.39068 280.652C2.15912 280.652 2.15912 280.3 2.39068 278.854C2.60777 277.252 2.60776 276.705 2.37258 275.611C2.10484 274.517 2.07228 270.57 2.18806 251.892C2.20615 250.29 2.30384 249.743 2.41962 250.446C2.7344 252.595 2.65118 242.006 2.30384 237.16C2.13741 234.659 2.00354 233.917 2.00354 235.362C2.00354 236.808 1.90223 238.059 1.78645 238.059C1.67067 238.059 1.68514 235.91 1.81901 232.471C1.95288 229.423 2.15188 227.625 2.28575 228.329C2.4341 229.228 2.41962 228.681 2.27128 226.883C2.10484 224.89 2.08676 222.194 2.22063 218.247C2.3545 214.457 2.3545 211.761 2.22063 210.354C1.95651 207.462 1.92032 203.516 2.18806 205.313C2.28937 206.016 2.32194 204.414 2.25319 201.913C2.16998 198.318 2.10484 197.967 1.95288 200.311C1.81901 202.304 1.81901 201.405 1.92032 197.615C2.11932 189.878 2.16997 177.295 1.98545 178.585C1.90223 179.132 1.78645 177.686 1.72133 175.185C1.67067 172.684 1.68876 170.144 1.78645 169.597C1.86967 169.05 1.98545 165.807 2.05058 162.759C2.11571 158.46 2.06867 157.171 1.86605 158.07C1.69962 158.773 1.58384 158.421 1.58384 157.366C1.58384 156.272 1.73218 154.67 1.9348 153.967C2.24958 152.716 2.24957 152.169 1.98545 150.176C1.75389 148.379 1.75389 147.675 1.9348 146.777C2.26767 145.331 2.28576 141.189 1.96736 142.087C1.83349 142.283 1.68514 141.189 1.63449 139.391C1.55127 137.242 1.6164 136.89 1.81902 138.141C2.05058 139.743 2.05058 139.587 1.81902 136.343C1.65258 134.194 1.58745 132.553 1.67067 132.553C1.75389 132.553 1.72133 130.755 1.60555 128.606C1.47168 126.105 1.48977 123.214 1.63811 120.166C1.93842 114.07 2.0361 103.832 1.80454 102.191C1.70323 101.643 1.6562 103.285 1.70323 106.137C1.78645 110.826 1.78645 110.826 1.60193 106.684C1.50062 104.183 1.45358 101.487 1.50062 100.588C1.55127 99.8849 1.48253 98.4391 1.36675 97.6967C1.09901 95.8992 1.30162 91.9525 1.64897 92.1088C1.78284 92.1088 1.76475 93.0075 1.58384 94.2579C1.31972 96.0555 1.31971 96.4071 1.63449 96.4071C1.9167 96.4071 1.98546 94.9614 1.94928 89.9205C1.93119 86.3255 1.84797 83.4339 1.76475 83.8246C1.68153 84.02 1.6164 83.1212 1.6164 81.8317C1.6164 80.5813 1.69962 79.8387 1.78283 80.0341C2.0144 80.7375 1.93118 68.7021 1.68153 66.7483C1.54766 65.6542 1.58022 65.146 1.74665 65.146C1.97821 65.146 1.97822 64.0521 1.73219 59.949C1.49701 56.1586 1.46444 53.6577 1.6164 50.6097C1.80093 47.2101 1.76475 46.8193 1.33419 48.1088C1.07007 49.0076 0.950665 48.8123 1.07006 47.7573C1.56937 43.4589 1.76837 34.4711 1.48616 28.5315C1.28716 24.3894 1.26906 22.9436 1.45359 23.6861C1.58746 24.3895 1.70324 22.9827 1.70324 20.4427C1.70324 17.9418 1.62002 16.4962 1.53681 17.1995C1.4355 17.7466 1.38847 15.402 1.40294 11.807C1.4355 8.40734 1.38485 4.26515 1.30163 2.66302C1.07007 -1.47907 0.570766 -0.580288 0.552675 3.91349C0.552675 6.06269 0.520114 18.2936 0.487551 31.0325C0.436896 43.615 0.469456 54.5566 0.552673 55.1036C0.6178 55.6507 0.635886 59.7926 0.570759 64.4427C0.487542 69.1318 0.454979 83.1213 0.469451 95.3522C0.520103 143.143 0.820409 258.652 0.950661 279.519C0.950661 280.769 0.918093 287.412 0.867439 294.251C0.816785 301.988 0.867447 307.185 1.03388 308.084C1.20031 309.334 1.20031 309.881 1.03388 309.881C0.849356 309.881 0.784228 327.661 0.784226 375.295" fill="#C54B38"/>
</svg>
