<svg width="41" height="29" viewBox="0 0 41 29" fill="none" xmlns="http://www.w3.org/2000/svg">
<path fill-rule="evenodd" clip-rule="evenodd" d="M19.008 26.832L16.616 28.856L14.672 28.8L10.752 25.496L7.08 21.936L3.456 18.328L0 14.512L3.656 10.928L7.144 7.184L10.776 3.584L14.664 0.216L16.8 0L18.704 2.064L14.16 6.408L9.152 10.296L4.344 14.512L9.176 18.696L14.064 22.728L19.016 26.824L19.008 26.832ZM17.584 2.176L12.472 6.072L7.6 10.16L3.12 14.512L7.936 18.464L12.768 22.608L17.432 26.952L16.048 28.272L15.064 28.4L10.488 23.792L6.152 18.936L1.32 14.512L6.072 10.016L10.424 5.176L15.248 0.808L16.016 0.784L17.584 2.176Z" fill="#191411"/>
<path d="M18.2961 20.312L17.1281 19.824L13.0481 15.632L12.5441 14.52L13.0561 13.416L17.1841 9.27205L19.4401 9.24805L23.5041 13.464L23.9761 14.528L23.6001 15.688L19.4481 19.808L18.3041 20.32L18.2961 20.312ZM13.7521 14.104L13.5761 14.512L13.6961 14.984L17.8641 19.096L18.7841 19.136L22.9121 14.992L23.0721 14.528L22.9681 14.008L18.8081 9.89605L17.8881 9.96805L13.7601 14.112L13.7521 14.104Z" fill="#191411"/>
<path d="M18.2961 17.168L15.6001 14.512L18.2961 11.752L20.8081 14.512L18.2961 17.168ZM17.4801 14.512L18.2961 15.28L19.0001 14.512L18.2961 13.552L17.4801 14.512Z" fill="#191411"/>
<path d="M23.6161 14.3198L29.2161 14.3438L34.8161 14.4878L40.4161 14.4958" stroke="#191411" stroke-width="1.2"/>
</svg>
