<svg width="138" height="95" viewBox="0 0 138 95" fill="none" xmlns="http://www.w3.org/2000/svg">
<mask id="path-1-inside-1_1_36963" fill="white">
<path d="M130.491 1.12098C131.144 0.964458 132.133 0.775186 132.796 0.49471C132.99 0.412828 133.186 0.334508 133.392 0.292163L134.094 0.147969C134.558 0.0524449 135.119 0.0868807 135.312 0.520185C135.406 0.731809 135.447 0.977055 135.535 1.26605C135.873 2.37626 135.783 3.50011 135.896 4.629C136.242 8.09576 136.288 11.5523 136.866 15.008C137.425 18.3465 137.7 21.6881 137.7 25.0573C137.7 31.8688 138.089 38.6635 137.981 45.479C137.94 48.0625 137.844 50.6616 137.636 53.2401C137.472 55.2856 137.066 57.2966 136.818 59.333C136.596 61.1594 136.672 63.0195 136.698 64.8522C136.73 67.1122 137.036 69.3498 137.179 71.6045C137.311 73.69 137.267 75.7813 137.267 77.8688C137.267 80.6378 137.235 83.4039 137.38 86.1707C137.483 88.1534 137.983 90.1577 137.837 92.1449C137.762 93.1509 136.687 92.9963 135.776 93.2922C134.87 93.5864 134.166 93.5545 133.234 93.3516C132.281 93.1442 131.595 93.3227 130.628 93.3845C128.735 93.5054 126.716 93.4072 124.854 93.1472C123.676 92.9826 122.596 92.9499 121.39 92.9361C120.453 92.9255 119.545 92.7618 118.599 92.8241C117.856 92.8729 117.386 93.4006 116.594 93.4109C116.051 93.418 115.465 93.4548 114.926 93.3845C114.534 93.3333 114.217 93.1237 113.828 93.068C113.471 93.017 113.379 93.2199 113.074 93.279C112.684 93.3546 112.196 93.2922 111.799 93.2922C110.563 93.2922 109.344 93.0022 108.118 93.0614C106.979 93.1166 106.002 93.5223 104.838 93.5296C103.102 93.5405 101.25 93.8033 99.5299 93.589C98.4038 93.4487 97.2017 93.6869 96.0978 93.4505C95.3165 93.2832 94.6751 93.0633 93.8525 93.0548C93.3985 93.0502 92.9636 93.0499 92.5133 92.9955C90.0237 92.6944 87.5026 92.9361 85.0076 92.9361C83.984 92.9361 83.1599 92.7054 82.1608 92.6064C81.0231 92.4937 79.818 92.5801 78.6726 92.5801C77.6873 92.5801 76.6985 92.5588 75.7136 92.5801C74.8944 92.5978 74.0713 92.8852 73.2357 92.9296C71.8051 93.0055 70.3795 92.9545 68.9456 93.0548C67.8088 93.1344 66.7228 93.4668 65.5776 93.556C62.2852 93.8125 58.8773 93.8579 55.5699 93.8857C53.6645 93.9017 51.7579 93.8857 49.8524 93.8857C47.5022 93.8857 45.2471 93.4339 42.8999 93.4109C39.8569 93.3811 36.8311 92.9361 33.7743 92.9361C31.0318 92.9361 28.4106 92.744 25.6591 93.0548C23.5466 93.2935 21.3699 93.7451 19.2439 93.767C16.2288 93.798 13.0788 94.3207 10.1344 94.8352C9.47825 94.9499 8.36431 95.123 7.72064 94.8682C7.10589 94.6248 6.94282 94.0044 6.20506 94.0044C5.40785 94.0044 4.73326 94.2596 3.95974 94.3868C3.67584 94.4335 2.49414 95.0878 2.38 94.9209C2.06567 94.4614 1.92475 93.714 1.84274 93.1867C1.77255 92.7354 1.69474 91.9505 1.1531 91.6833C0.996241 91.6059 0.797907 91.6841 0.655924 91.6173C0.335581 91.4668 0.360331 89.8475 0.319117 89.5468C0.21432 88.782 0.271983 87.9603 0.367243 87.1993C0.680796 84.6947 0.687251 82.1685 0.872447 79.6558C0.9752 78.2616 1.13816 76.9015 1.1531 75.5016C1.16474 74.4105 1.3087 73.3222 1.29745 72.2309C1.29235 71.7376 1.00605 71.3974 0.880459 70.9253C0.4268 69.22 0.584301 67.3286 0.463467 65.5841C0.352596 63.9835 0.29353 62.3944 0.078564 60.8035C-0.173389 58.9389 0.258755 57.0937 0.28706 55.2315C0.309552 53.7515 0.218243 52.1871 0.583768 50.7344C0.893918 49.5017 0.937589 48.2552 1.26536 47.0154C1.3806 46.5795 1.55827 45.9924 1.43376 45.5317C1.32187 45.1177 1.0617 44.6829 0.944608 44.2525C0.735929 43.4853 0.801114 42.753 0.712064 41.9841C0.577878 40.8256 0.575742 39.6689 0.575742 38.4959C0.575742 37.1303 0.287062 35.8008 0.287062 34.4604C0.287062 32.2849 0.575743 30.1249 0.575743 27.9586C0.575743 26.5032 0.864424 25.1345 0.864424 23.6725L0.864425 19.0831C0.864425 17.7659 1.61146 16.4604 1.22528 15.1267C1.03876 14.4825 1.15311 13.7464 1.15311 13.0957C1.15311 12.3801 1.00876 11.6715 1.00876 10.9659C1.00876 9.2329 0.606994 7.41199 1.08093 5.69723C1.3497 4.7248 1.29341 3.71595 1.44981 2.72992C1.47832 2.55015 1.92964 0.91379 2.11539 0.857218C2.8736 0.626302 4.481 0.746545 5.33902 0.857219C7.04358 1.07709 8.71793 0.830843 10.423 0.830843C11.3683 0.830843 12.3283 1.02036 13.2698 0.942941C14.0423 0.879416 14.6095 0.370093 15.4109 0.356073C17.1824 0.325079 18.9044 0.593458 20.6713 0.593458C21.7415 0.593458 22.7371 0.830843 23.8147 0.830843C24.8771 0.830843 25.9144 0.867382 26.9742 0.923159C30.1891 1.09235 33.4156 0.830843 36.6291 0.830843C38.2491 0.830843 39.8974 0.936939 41.4886 0.659399C42.646 0.457518 43.8463 0.237382 45.033 0.237382C45.8999 0.237382 46.6473 0.41175 47.4868 0.540707C48.1644 0.644799 48.8574 0.557504 49.5396 0.619835C50.6179 0.718351 51.5976 0.830844 52.6911 0.830844L58.3926 0.830844C63.9107 0.830844 68.7312 3.83283 74.3985 3.13875C75.8811 2.95717 77.3122 2.49713 78.8089 2.40022C80.3573 2.29996 81.9384 2.37385 83.492 2.37385C84.3636 2.37385 85.2151 2.19106 86.0581 2.01777C87.2129 1.78036 88.5017 1.78037 89.6907 1.78038L89.7147 1.78038C91.1573 1.78038 92.5918 2.01777 94.0289 2.01777C94.5451 2.01777 95.0505 1.96443 95.5525 1.8727C96.3375 1.72926 96.7413 1.11559 97.4129 0.778093C98.3334 0.315544 99.1191 0.356076 100.171 0.356076C101.581 0.356076 102.876 1.02476 104.245 0.80447C105.643 0.579516 107.094 0.930737 108.511 0.949538C110.516 0.976133 112.545 1.28249 114.541 1.30562C116.119 1.32388 117.685 1.42431 119.257 1.42431C120.025 1.42431 120.7 1.18692 121.47 1.18692C122.468 1.18692 123.331 1.543 124.309 1.543C125.161 1.543 125.975 1.58963 126.811 1.6551C127.292 1.69279 127.757 1.6855 128.206 1.543C128.973 1.29922 129.73 1.30366 130.491 1.12098Z"/>
</mask>
<path d="M130.491 1.12098C131.144 0.964458 132.133 0.775186 132.796 0.49471C132.99 0.412828 133.186 0.334508 133.392 0.292163L134.094 0.147969C134.558 0.0524449 135.119 0.0868807 135.312 0.520185C135.406 0.731809 135.447 0.977055 135.535 1.26605C135.873 2.37626 135.783 3.50011 135.896 4.629C136.242 8.09576 136.288 11.5523 136.866 15.008C137.425 18.3465 137.7 21.6881 137.7 25.0573C137.7 31.8688 138.089 38.6635 137.981 45.479C137.94 48.0625 137.844 50.6616 137.636 53.2401C137.472 55.2856 137.066 57.2966 136.818 59.333C136.596 61.1594 136.672 63.0195 136.698 64.8522C136.73 67.1122 137.036 69.3498 137.179 71.6045C137.311 73.69 137.267 75.7813 137.267 77.8688C137.267 80.6378 137.235 83.4039 137.38 86.1707C137.483 88.1534 137.983 90.1577 137.837 92.1449C137.762 93.1509 136.687 92.9963 135.776 93.2922C134.87 93.5864 134.166 93.5545 133.234 93.3516C132.281 93.1442 131.595 93.3227 130.628 93.3845C128.735 93.5054 126.716 93.4072 124.854 93.1472C123.676 92.9826 122.596 92.9499 121.39 92.9361C120.453 92.9255 119.545 92.7618 118.599 92.8241C117.856 92.8729 117.386 93.4006 116.594 93.4109C116.051 93.418 115.465 93.4548 114.926 93.3845C114.534 93.3333 114.217 93.1237 113.828 93.068C113.471 93.017 113.379 93.2199 113.074 93.279C112.684 93.3546 112.196 93.2922 111.799 93.2922C110.563 93.2922 109.344 93.0022 108.118 93.0614C106.979 93.1166 106.002 93.5223 104.838 93.5296C103.102 93.5405 101.25 93.8033 99.5299 93.589C98.4038 93.4487 97.2017 93.6869 96.0978 93.4505C95.3165 93.2832 94.6751 93.0633 93.8525 93.0548C93.3985 93.0502 92.9636 93.0499 92.5133 92.9955C90.0237 92.6944 87.5026 92.9361 85.0076 92.9361C83.984 92.9361 83.1599 92.7054 82.1608 92.6064C81.0231 92.4937 79.818 92.5801 78.6726 92.5801C77.6873 92.5801 76.6985 92.5588 75.7136 92.5801C74.8944 92.5978 74.0713 92.8852 73.2357 92.9296C71.8051 93.0055 70.3795 92.9545 68.9456 93.0548C67.8088 93.1344 66.7228 93.4668 65.5776 93.556C62.2852 93.8125 58.8773 93.8579 55.5699 93.8857C53.6645 93.9017 51.7579 93.8857 49.8524 93.8857C47.5022 93.8857 45.2471 93.4339 42.8999 93.4109C39.8569 93.3811 36.8311 92.9361 33.7743 92.9361C31.0318 92.9361 28.4106 92.744 25.6591 93.0548C23.5466 93.2935 21.3699 93.7451 19.2439 93.767C16.2288 93.798 13.0788 94.3207 10.1344 94.8352C9.47825 94.9499 8.36431 95.123 7.72064 94.8682C7.10589 94.6248 6.94282 94.0044 6.20506 94.0044C5.40785 94.0044 4.73326 94.2596 3.95974 94.3868C3.67584 94.4335 2.49414 95.0878 2.38 94.9209C2.06567 94.4614 1.92475 93.714 1.84274 93.1867C1.77255 92.7354 1.69474 91.9505 1.1531 91.6833C0.996241 91.6059 0.797907 91.6841 0.655924 91.6173C0.335581 91.4668 0.360331 89.8475 0.319117 89.5468C0.21432 88.782 0.271983 87.9603 0.367243 87.1993C0.680796 84.6947 0.687251 82.1685 0.872447 79.6558C0.9752 78.2616 1.13816 76.9015 1.1531 75.5016C1.16474 74.4105 1.3087 73.3222 1.29745 72.2309C1.29235 71.7376 1.00605 71.3974 0.880459 70.9253C0.4268 69.22 0.584301 67.3286 0.463467 65.5841C0.352596 63.9835 0.29353 62.3944 0.078564 60.8035C-0.173389 58.9389 0.258755 57.0937 0.28706 55.2315C0.309552 53.7515 0.218243 52.1871 0.583768 50.7344C0.893918 49.5017 0.937589 48.2552 1.26536 47.0154C1.3806 46.5795 1.55827 45.9924 1.43376 45.5317C1.32187 45.1177 1.0617 44.6829 0.944608 44.2525C0.735929 43.4853 0.801114 42.753 0.712064 41.9841C0.577878 40.8256 0.575742 39.6689 0.575742 38.4959C0.575742 37.1303 0.287062 35.8008 0.287062 34.4604C0.287062 32.2849 0.575743 30.1249 0.575743 27.9586C0.575743 26.5032 0.864424 25.1345 0.864424 23.6725L0.864425 19.0831C0.864425 17.7659 1.61146 16.4604 1.22528 15.1267C1.03876 14.4825 1.15311 13.7464 1.15311 13.0957C1.15311 12.3801 1.00876 11.6715 1.00876 10.9659C1.00876 9.2329 0.606994 7.41199 1.08093 5.69723C1.3497 4.7248 1.29341 3.71595 1.44981 2.72992C1.47832 2.55015 1.92964 0.91379 2.11539 0.857218C2.8736 0.626302 4.481 0.746545 5.33902 0.857219C7.04358 1.07709 8.71793 0.830843 10.423 0.830843C11.3683 0.830843 12.3283 1.02036 13.2698 0.942941C14.0423 0.879416 14.6095 0.370093 15.4109 0.356073C17.1824 0.325079 18.9044 0.593458 20.6713 0.593458C21.7415 0.593458 22.7371 0.830843 23.8147 0.830843C24.8771 0.830843 25.9144 0.867382 26.9742 0.923159C30.1891 1.09235 33.4156 0.830843 36.6291 0.830843C38.2491 0.830843 39.8974 0.936939 41.4886 0.659399C42.646 0.457518 43.8463 0.237382 45.033 0.237382C45.8999 0.237382 46.6473 0.41175 47.4868 0.540707C48.1644 0.644799 48.8574 0.557504 49.5396 0.619835C50.6179 0.718351 51.5976 0.830844 52.6911 0.830844L58.3926 0.830844C63.9107 0.830844 68.7312 3.83283 74.3985 3.13875C75.8811 2.95717 77.3122 2.49713 78.8089 2.40022C80.3573 2.29996 81.9384 2.37385 83.492 2.37385C84.3636 2.37385 85.2151 2.19106 86.0581 2.01777C87.2129 1.78036 88.5017 1.78037 89.6907 1.78038L89.7147 1.78038C91.1573 1.78038 92.5918 2.01777 94.0289 2.01777C94.5451 2.01777 95.0505 1.96443 95.5525 1.8727C96.3375 1.72926 96.7413 1.11559 97.4129 0.778093C98.3334 0.315544 99.1191 0.356076 100.171 0.356076C101.581 0.356076 102.876 1.02476 104.245 0.80447C105.643 0.579516 107.094 0.930737 108.511 0.949538C110.516 0.976133 112.545 1.28249 114.541 1.30562C116.119 1.32388 117.685 1.42431 119.257 1.42431C120.025 1.42431 120.7 1.18692 121.47 1.18692C122.468 1.18692 123.331 1.543 124.309 1.543C125.161 1.543 125.975 1.58963 126.811 1.6551C127.292 1.69279 127.757 1.6855 128.206 1.543C128.973 1.29922 129.73 1.30366 130.491 1.12098Z" fill="#191411" stroke="#191411" stroke-width="3" mask="url(#path-1-inside-1_1_36963)"/>
</svg>
