<svg width="90" height="79" viewBox="0 0 90 79" fill="none" xmlns="http://www.w3.org/2000/svg">
<path d="M42.9344 9.77877C43.426 8.94301 44.3109 8.45138 45.2941 8.47596C46.2774 8.47596 47.1623 8.96759 47.6539 9.80334L64.1232 37.5307C64.2461 37.5061 64.369 37.5061 64.4919 37.4816L47.9489 9.63127C47.3835 8.69719 46.4003 8.13184 45.2941 8.13184C44.188 8.13184 43.1802 8.67262 42.6148 9.6067L25.998 37.3095C26.121 37.3587 26.2193 37.4078 26.3176 37.457L42.9344 9.77877Z" fill="#191411"/>
<path d="M78.2082 78.973L85.7546 78.9975C87.1803 78.9975 88.4831 78.2601 89.1959 77.0311C89.9088 75.7774 89.9088 74.3026 89.1959 73.049L48.7602 2.69809C48.0473 1.44446 46.7691 0.707031 45.3188 0.707031C43.8931 0.707031 42.5904 1.44446 41.8775 2.67351L1.17136 72.8523C0.458506 74.1059 0.458506 75.5808 1.17136 76.8344C1.8842 78.088 3.16242 78.8255 4.6127 78.8255L12.1591 78.8501M87.844 76.2445C87.4015 77.0065 86.6149 77.4489 85.7546 77.4489L4.6127 77.2769C3.72778 77.2769 2.96577 76.8098 2.52331 76.0724C2.08085 75.3104 2.08085 74.4009 2.52331 73.6635L43.2295 3.48468C43.6719 2.72267 44.4585 2.28022 45.3188 2.28022C46.2038 2.28022 46.9658 2.74725 47.4082 3.48468L87.8194 73.8355C88.2864 74.573 88.2864 75.4825 87.844 76.2445Z" fill="#191411"/>
<path d="M47.1369 33.5238C47.2319 33.5238 47.309 33.4468 47.309 33.3518C47.309 33.2567 47.2319 33.1797 47.1369 33.1797C47.0419 33.1797 46.9648 33.2567 46.9648 33.3518C46.9648 33.4468 47.0419 33.5238 47.1369 33.5238Z" fill="#191411"/>
<path d="M44.2613 25.7079H44.3351C44.458 25.7079 44.5809 25.8062 44.5809 25.9537V26.1504H45.0233C45.1462 26.1504 45.2691 26.2487 45.2691 26.3962C45.2691 26.5437 45.1708 26.642 45.0233 26.642H44.5563V26.8386H44.9987C45.1216 26.8386 45.2446 26.937 45.2446 27.0844C45.2446 27.2319 45.1462 27.3303 44.9987 27.3303H44.5563V27.5269H44.9987C45.1216 27.5269 45.2446 27.6252 45.2446 27.7727C45.2446 27.9202 45.1462 28.0185 44.9987 28.0185H44.5563V28.2152H44.9987C45.1216 28.2152 45.2446 28.3135 45.2446 28.461C45.2446 28.5839 45.1462 28.7068 44.9987 28.7068H44.5563V29.0755C44.5563 29.1493 44.5317 29.223 44.5071 29.2967L43.7451 30.6241L45.7853 29.0509V26.0029C45.7853 25.88 45.8837 25.7571 46.0311 25.7571H46.1049V25.29H44.2613V25.7079Z" fill="#191411"/>
<path d="M47.2095 31.6308L46.2017 29.9102L42.3671 32.8353L41.2609 34.6297C41.2117 34.728 41.2363 34.8509 41.3347 34.9001C41.3592 34.9247 41.4084 34.9247 41.433 34.9247H48.881C49.0039 34.9247 49.0777 34.8264 49.0777 34.728C49.0777 34.7035 49.0777 34.6543 49.0531 34.6297L47.2095 31.6308ZM45.7838 32.1716C45.7838 31.9258 45.9805 31.7292 46.2263 31.7292C46.4721 31.7292 46.6687 31.9258 46.6687 32.1716C46.6687 32.4174 46.4721 32.6141 46.2263 32.6141C45.9805 32.5895 45.7838 32.3928 45.7838 32.1716ZM47.1358 34.0152C46.7671 34.0152 46.4721 33.7202 46.4721 33.3515C46.4721 32.9828 46.7671 32.6878 47.1358 32.6878C47.5045 32.6878 47.7995 32.9828 47.7995 33.3515C47.7995 33.7202 47.5045 34.0152 47.1358 34.0152Z" fill="#191411"/>
<path d="M46.2262 32.1238C46.2015 32.1238 46.1768 32.1485 46.1768 32.1732C46.1768 32.1979 46.2015 32.2227 46.2262 32.2227C46.2509 32.2227 46.2756 32.1979 46.2756 32.1732C46.2756 32.1238 46.2509 32.1238 46.2262 32.1238Z" fill="#191411"/>
<path d="M49.7163 22.9796C45.7834 20.4724 40.5722 21.6277 38.065 25.5361C36.8605 27.4288 36.4426 29.6902 36.9342 31.8779C37.7946 35.7372 41.2113 38.4902 45.1443 38.5148C45.7588 38.5148 46.3733 38.4411 46.9633 38.3182C51.5108 37.3104 54.3867 32.812 53.3789 28.2645C52.9365 26.0768 51.6091 24.1841 49.7163 22.9796ZM37.4013 31.7796C36.4672 27.5025 39.1711 23.25 43.4482 22.3159C44.0136 22.193 44.5789 22.1193 45.1689 22.1193C47.5532 22.1193 49.8147 23.2009 51.3141 25.0444L38.6795 34.6802C38.0895 33.8444 37.6471 32.8366 37.4013 31.7796ZM51.8549 34.3606C50.7242 36.1305 48.9298 37.3841 46.865 37.8266C46.2996 37.9495 45.7342 38.0232 45.1443 38.0232C42.7599 38.0232 40.4985 36.9416 38.999 35.0981L51.6337 25.4623C53.5264 28.0925 53.6247 31.6321 51.8549 34.3606Z" fill="#191411"/>
<path d="M27.6443 44.2644V48.8365C27.6443 49.1069 27.6934 49.2298 27.8164 49.3035C27.8164 49.3281 27.8164 49.3527 27.8164 49.3527H26.8085V49.3035C26.9314 49.2298 27.0052 49.1069 27.0052 48.8365V46.0588H24.2029V48.8365C24.2029 49.1069 24.2521 49.2298 24.375 49.3035C24.375 49.3281 24.375 49.3527 24.375 49.3527H23.3672V49.3035C23.4901 49.2298 23.5393 49.1069 23.5393 48.8365V44.2644C23.5393 43.994 23.4901 43.8711 23.3672 43.7974C23.3672 43.7728 23.3672 43.7236 23.3672 43.7236H24.375C24.375 43.7236 24.375 43.7728 24.375 43.7974C24.2521 43.8711 24.2029 43.994 24.2029 44.2644V45.9851H27.0052V44.2644C27.0052 43.994 26.956 43.8711 26.8085 43.7974C26.8085 43.7728 26.8085 43.7236 26.8085 43.7236H27.8164C27.8164 43.7236 27.8164 43.7728 27.8164 43.7974C27.6934 43.8465 27.6443 43.9694 27.6443 44.2644Z" fill="#191411"/>
<path d="M27.915 49.4517H26.7351V49.255L26.7843 49.2305C26.858 49.1813 26.9318 49.1321 26.9318 48.8372V46.1578H24.3262V48.8372C24.3262 49.1321 24.3999 49.1813 24.4491 49.2305L24.4982 49.255V49.4517H23.3184V49.255L23.3675 49.2305C23.4413 49.1813 23.515 49.1321 23.515 48.8372V44.2651C23.515 43.9947 23.4658 43.9209 23.3675 43.8718L23.3184 43.8472V43.626H24.4982V43.8472L24.4491 43.8718C24.3753 43.9209 24.3262 43.9701 24.3262 44.2651V45.912H26.9318V44.2651C26.9318 43.9947 26.8826 43.9209 26.7843 43.8718L26.7351 43.8472V43.626H27.915V43.8226L27.8658 43.8472C27.7921 43.8964 27.7429 43.9455 27.7429 44.2405V48.8126C27.7429 49.1076 27.8167 49.1567 27.8658 49.2059L27.915 49.2305V49.4517ZM26.9809 49.255H27.62C27.5463 49.1567 27.5217 49.0092 27.5217 48.8126V44.2405C27.5217 44.0439 27.5463 43.8964 27.62 43.798H26.9563C27.0301 43.921 27.0547 44.0684 27.0547 44.2405V48.8126C27.0792 49.0338 27.0547 49.1567 26.9809 49.255ZM23.5396 49.255H24.1787C24.105 49.1567 24.0804 49.0092 24.0804 48.8126V44.2405C24.0804 44.0193 24.105 43.8964 24.1787 43.798H23.515C23.5887 43.8964 23.6133 44.0439 23.6133 44.2405V48.8126C23.6379 49.0338 23.6133 49.1567 23.5396 49.255Z" fill="#191411"/>
<path d="M35.0191 46.5267C35.0191 48.1245 33.6917 49.4027 32.094 49.4027C30.4962 49.4027 29.1688 48.0999 29.1688 46.5267C29.1688 44.9289 30.4962 43.6507 32.094 43.6507C33.6917 43.6262 35.0191 44.9289 35.0191 46.5267ZM34.2571 45.863C33.8146 44.4373 32.6347 43.4295 31.2828 43.8228C29.9308 44.2407 29.513 45.7401 29.9554 47.1658C30.3979 48.5915 31.5778 49.6239 32.9297 49.206C34.2817 48.8127 34.6996 47.2887 34.2571 45.863Z" fill="#191411"/>
<path d="M32.0937 49.5004C30.4221 49.5004 29.0702 48.173 29.0702 46.5261C29.0702 44.8791 30.4221 43.5518 32.0937 43.5518C33.7652 43.5518 35.1171 44.8791 35.1171 46.5261C35.1171 48.173 33.7652 49.5004 32.0937 49.5004ZM30.2255 44.4367C29.6356 44.9529 29.2668 45.6903 29.2668 46.5261C29.2668 47.9026 30.2747 49.0579 31.6266 49.2791C31.43 49.2054 31.2333 49.1071 31.0367 48.9596C30.4959 48.5663 30.078 47.9518 29.8568 47.2143C29.5864 46.354 29.6356 45.4445 30.0043 44.7808C30.078 44.6579 30.1518 44.535 30.2255 44.4367ZM31.897 43.8222C31.7004 43.8222 31.5283 43.8467 31.3071 43.9205C30.8154 44.068 30.4221 44.4121 30.1763 44.8545C29.8322 45.4937 29.8076 46.3048 30.0534 47.1406C30.2747 47.8534 30.668 48.4434 31.1596 48.8121C31.7004 49.2054 32.2903 49.3037 32.9048 49.1317C34.2568 48.7138 34.5763 47.1897 34.183 45.887C33.8389 44.7808 32.9786 43.8222 31.897 43.8222ZM32.6099 43.773C33.4456 44.0925 34.0601 44.9037 34.3551 45.8378C34.6501 46.7964 34.5763 47.878 34.011 48.5909C34.5763 48.0747 34.945 47.3372 34.945 46.5261C34.945 45.1495 33.9372 43.9942 32.6099 43.773Z" fill="#191411"/>
<path d="M40.697 49.3035V49.3527H39.468V49.3035C39.6892 49.0823 39.5171 48.8119 39.1976 48.2465L38.3372 46.7471C38.2143 46.7471 38.0914 46.7717 37.9685 46.7717H37.2311V48.8365C37.2311 49.1069 37.2803 49.2298 37.4032 49.3035C37.4032 49.3281 37.4032 49.3527 37.4032 49.3527H36.4199V49.3035C36.5428 49.2298 36.592 49.1069 36.592 48.8365V44.2644C36.592 43.9694 36.5428 43.8711 36.4199 43.7974C36.4199 43.7728 36.4199 43.7236 36.4199 43.7236H37.9931C39.2467 43.7236 40.3775 44.1907 40.3775 45.2477C40.3775 46.0097 39.7629 46.4521 38.9763 46.6488L39.7138 47.927C40.1317 48.7382 40.3775 49.0086 40.697 49.3035ZM39.6892 45.2477C39.6892 44.6086 39.468 43.7974 37.9439 43.7974H37.2065V46.6979H37.9439C39.4926 46.6979 39.6892 45.8622 39.6892 45.2477Z" fill="#191411"/>
<path d="M40.7954 49.4509H39.3697V49.2542L39.3943 49.2296C39.5417 49.0822 39.4188 48.8609 39.1239 48.3201L38.2635 46.8453C38.1652 46.8453 38.0669 46.8453 37.944 46.8453H37.2803V48.8118C37.2803 49.1067 37.354 49.1559 37.4032 49.2051L37.4524 49.2296V49.4263H36.2725V49.2296L36.3216 49.2051C36.3954 49.1559 36.4445 49.1067 36.4445 48.8118V44.2397C36.4445 43.9447 36.3954 43.8956 36.3216 43.8464L36.2725 43.8218V43.6006H37.9194C39.4188 43.6006 40.3775 44.2397 40.3775 45.2229C40.3775 45.9112 39.8859 46.452 39.0255 46.6732L39.6892 47.8285C40.1808 48.6643 40.4267 48.9347 40.7216 49.1805L40.7462 49.2051V49.4509H40.7954ZM39.5909 49.2542H40.525C40.2546 49.0084 40.0088 48.7134 39.5663 47.9514L38.8289 46.6486C38.706 46.6978 38.5831 46.7224 38.4356 46.747L39.2713 48.2218C39.5663 48.7134 39.7384 49.033 39.5909 49.2542ZM36.5674 49.2542H37.2065C37.1328 49.1559 37.1082 49.0084 37.1082 48.8118V43.7972H36.5674C36.6412 43.8956 36.6658 44.043 36.6658 44.2397V48.8118C36.6658 49.033 36.6412 49.1559 36.5674 49.2542ZM37.3049 46.5995H37.9686C39.0747 46.5995 39.6155 46.157 39.6155 45.2475C39.6155 44.6576 39.4434 43.871 37.9686 43.871H37.3049V46.5995ZM39.2468 44.0185C39.6155 44.2643 39.7875 44.6822 39.7875 45.2475C39.7875 45.7883 39.6155 46.1816 39.2713 46.452C39.7384 46.2799 40.23 45.9358 40.23 45.2475C40.2546 44.6084 39.8121 44.2151 39.2468 44.0185Z" fill="#191411"/>
<path d="M47.6299 44.2644V48.8365C47.6299 49.1069 47.6791 49.2298 47.8266 49.3035C47.8266 49.3281 47.8266 49.3527 47.8266 49.3527H46.8188V49.3035C46.9417 49.2298 47.0154 49.1069 47.0154 48.8365V43.9694L44.8031 47.8287H44.7294L42.4188 44.3136V48.394C42.4188 48.7382 42.6646 49.156 42.935 49.3035C42.935 49.3281 42.935 49.3527 42.935 49.3527H41.8534V49.3035C42.1238 49.156 42.3696 48.7382 42.3696 48.394V44.2153L42.0009 43.7236H42.7383L45.0489 47.2879L47.1137 43.7236H47.8512C47.8512 43.7236 47.8512 43.7728 47.8512 43.7974C47.6791 43.8465 47.6299 43.9694 47.6299 44.2644Z" fill="#191411"/>
<path d="M47.8998 49.4517H46.72V49.255L46.7691 49.2305C46.8429 49.1813 46.9166 49.1321 46.9166 48.8372V44.3143L44.8518 47.9031H44.6797L44.6552 47.8539L42.5166 44.6092V48.3947C42.5166 48.7143 42.7378 49.1076 42.9836 49.2305L43.0328 49.255V49.4517H41.7792V49.255L41.8283 49.2305C42.0741 49.1076 42.2954 48.7143 42.2954 48.3947V44.2405L41.8529 43.626H42.8116L42.8362 43.6751L45.073 47.1165L47.0887 43.626H47.1624H47.9736V43.8472L47.9244 43.8718C47.8507 43.9209 47.7769 43.9701 47.7769 44.2651V48.8372C47.7769 49.1321 47.8507 49.1813 47.9244 49.2305L47.9736 49.255V49.4517H47.8998ZM46.9904 49.255H47.6295C47.5557 49.1567 47.5311 49.0092 47.5311 48.8126V44.2405C47.5311 44.0193 47.5557 43.8964 47.6295 43.798H47.1133L47.0887 43.8472V48.8126C47.0887 49.0338 47.0641 49.1567 46.9904 49.255ZM42.025 49.255H42.6887C42.5412 49.1321 42.4183 48.9355 42.3445 48.7142C42.2954 48.9355 42.1725 49.1321 42.025 49.255ZM42.2954 43.9947L44.7289 47.7064L44.9255 47.3623L42.6395 43.8472H42.1479L42.2954 44.0684V43.9947Z" fill="#191411"/>
<path d="M55.0273 46.5257C55.0273 48.1235 53.6999 49.4017 52.1021 49.4017C50.5044 49.4017 49.177 48.0989 49.177 46.5257C49.177 44.928 50.5044 43.6498 52.1021 43.6498C53.6999 43.6252 55.0273 44.928 55.0273 46.5257ZM54.2653 45.862C53.8228 44.4363 52.6429 43.4285 51.291 43.8218C49.939 44.2397 49.5211 45.7391 49.9636 47.1648C50.4061 48.5905 51.5859 49.6229 52.9379 49.2051C54.2653 48.8118 54.6832 47.2877 54.2653 45.862Z" fill="#191411"/>
<path d="M52.1028 49.5004C50.4313 49.5004 49.0793 48.173 49.0793 46.5261C49.0793 44.8791 50.4313 43.5518 52.1028 43.5518C53.7743 43.5518 55.1263 44.8791 55.1263 46.5261C55.1263 48.173 53.7743 49.5004 52.1028 49.5004ZM50.2346 44.4367C49.6447 44.9529 49.276 45.6903 49.276 46.5261C49.276 47.9026 50.2838 49.0579 51.6358 49.2791C51.4391 49.2054 51.2425 49.1071 51.0458 48.9596C50.505 48.5663 50.0872 47.9518 49.8659 47.2143C49.5955 46.354 49.6447 45.4445 50.0134 44.7808C50.0626 44.6579 50.1363 44.535 50.2346 44.4367ZM51.8816 43.8222C51.6849 43.8222 51.5129 43.8467 51.2916 43.9205C50.8 44.068 50.4067 44.4121 50.1609 44.8545C49.8168 45.4937 49.7922 46.3048 50.038 47.1406C50.2592 47.8534 50.6525 48.4434 51.1441 48.8121C51.6849 49.2054 52.2749 49.3037 52.8894 49.1317C54.2414 48.7138 54.5609 47.1897 54.1676 45.887C53.8235 44.7808 52.9631 43.8222 51.8816 43.8222ZM52.5944 43.773C53.4302 44.0925 54.0447 44.9037 54.3397 45.8378C54.6346 46.7964 54.5609 47.878 53.9955 48.5909C54.5609 48.0747 54.9296 47.3372 54.9296 46.5261C54.9296 45.1495 53.9218 43.9942 52.5944 43.773Z" fill="#191411"/>
<path d="M61.3448 43.7248C61.3448 43.7248 61.3448 43.7739 61.3448 43.7985C61.0744 43.946 60.8286 44.3639 60.8286 44.708V49.3784H60.7057L56.871 44.4622V48.3952C56.871 48.7393 57.1168 49.1572 57.3872 49.3047C57.3872 49.3292 57.3872 49.3538 57.3872 49.3538H56.3057V49.3047C56.5761 49.1572 56.8219 48.7393 56.8219 48.3952V44.3885L56.3057 43.7248H57.1168L60.7548 48.346V44.6834C60.7548 44.3393 60.509 43.9214 60.2386 43.7739C60.2386 43.7494 60.2386 43.7002 60.2386 43.7002H61.3448V43.7248Z" fill="#191411"/>
<path d="M60.9517 49.4517H60.7059L60.6813 49.4271L56.9941 44.7075V48.3947C56.9941 48.7143 57.2154 49.1076 57.4612 49.2305L57.5103 49.255V49.4517H56.2321V49.255L56.2813 49.2305C56.5271 49.1076 56.7483 48.7143 56.7483 48.3947V44.4126L56.1338 43.626H57.1908L57.2154 43.6506L60.7059 48.0751V44.683C60.7059 44.388 60.4846 43.9947 60.2388 43.8718L60.1897 43.8472V43.626H61.4433V43.8472L61.3941 43.8718C61.1483 43.9947 60.9271 44.388 60.9271 44.683V49.4517H60.9517ZM56.5271 49.255H57.1908C57.0433 49.1321 56.9204 48.9355 56.8466 48.7388C56.7975 48.9355 56.6746 49.1321 56.5271 49.255ZM56.9204 44.3388L56.945 44.388L60.7304 49.2305V48.4439L57.0925 43.8226H56.5025L56.9204 44.3388ZM60.4846 43.8226C60.6321 43.9455 60.755 44.1422 60.8288 44.3634C60.9025 44.1668 61.0254 43.9701 61.1729 43.8226H60.4846Z" fill="#191411"/>
<path d="M66.2608 48.3948L66.0887 49.3781H62.8195V49.3289C62.9424 49.2552 62.9915 49.1323 62.9915 48.8619V44.2898C62.9915 44.0194 62.9424 43.8965 62.8195 43.8228C62.8195 43.7982 62.8195 43.749 62.8195 43.749H65.8429L66.015 44.6339L65.9658 44.6585C65.5971 44.2406 65.1055 43.7982 64.196 43.7982H63.6306V46.1825L65.6709 46.0105V46.4284L63.6306 46.2563V49.3289H64.2943C65.1792 49.3289 65.8429 48.8619 66.2362 48.3703L66.2608 48.3948Z" fill="#191411"/>
<path d="M66.162 49.4517H62.7207V49.255L62.7699 49.2305C62.8436 49.1813 62.8928 49.1321 62.8928 48.8372V44.2651C62.8928 43.9701 62.819 43.8964 62.7699 43.8718L62.7207 43.8472V43.626H65.9162L65.9408 43.6997L66.1129 44.6584L65.9654 44.7813L65.9162 44.7075C65.5229 44.2651 65.0559 43.8718 64.2201 43.8718H63.7531V46.0595L65.7933 45.8874V46.502H65.695L63.7531 46.3299V49.2059H64.3185C65.3509 49.2059 65.9654 48.5668 66.1866 48.2964L66.2358 48.2226L66.4079 48.3455L66.162 49.4517ZM65.0805 49.255H66.0145L66.1375 48.5913C65.9162 48.8126 65.5721 49.1075 65.0805 49.255ZM62.9665 49.255H63.5073V43.798H62.9665C63.0403 43.8964 63.0648 44.0439 63.0648 44.2405V48.8126C63.0648 49.0338 63.0403 49.1567 62.9665 49.255ZM64.3185 46.1824L65.5475 46.2807V46.0595L64.3185 46.1824ZM64.933 43.8226C65.3263 43.9455 65.5967 44.1913 65.8425 44.4126L65.7196 43.8226H64.933Z" fill="#191411"/>
<path d="M20.1968 54.689C19.8281 54.9348 19.4593 54.9102 19.1889 54.8365C19.8772 55.4264 19.7789 57.737 17.3945 57.737C16.0426 57.737 15.1577 56.9504 15.0348 56.2376C14.8381 54.9839 15.9443 54.2219 17.1733 54.5415C16.5096 54.3203 15.4281 54.0499 15.4772 53.042C15.5264 52.4767 15.8951 52.1571 16.5096 51.9605C17.1241 51.7638 17.7633 51.813 18.6728 52.1571L18.5253 52.9929H18.4761C17.9353 52.108 17.1733 51.7638 16.6325 51.9851C16.313 52.1325 16.1163 52.5258 16.1163 52.9929C16.1163 53.6812 16.6571 54.3203 17.6158 54.6644C17.6158 54.6644 17.6158 54.689 17.5912 54.7136C16.2884 54.2465 15.5755 55.1068 15.6985 56.2622C15.7722 56.975 16.4113 57.6141 17.4683 57.6141C19.8281 57.6141 19.9018 55.1314 19.0415 54.7136C18.8448 55.1068 18.6236 55.5001 18.304 55.7214C17.9599 55.9672 17.5174 55.9672 17.3945 55.6968C17.1979 55.2789 17.9353 54.861 18.4515 54.5661L18.4761 54.6152C17.9599 54.8856 17.6158 55.2052 17.7141 55.4756C17.7878 55.7214 18.0828 55.6722 18.3532 55.5247C18.6727 55.3281 18.9431 54.7873 19.2135 54.2219C19.5085 53.6074 19.7297 52.9929 20.0493 52.7471C20.418 52.5013 20.7621 52.5996 20.9342 52.9191C21.2046 53.5337 20.7867 54.3202 20.1968 54.689ZM20.5901 53.2879C20.3688 52.9929 20.123 52.9683 19.9018 53.1158C19.7052 53.2633 19.4593 53.8532 19.2135 54.3448C19.1644 54.4677 19.0906 54.5906 19.0169 54.7136C19.2381 54.8119 19.7052 54.9594 20.1722 54.6644C20.6884 54.3203 20.8359 53.6812 20.5901 53.2879Z" fill="#191411"/>
<path d="M17.3942 57.8353C16.0177 57.8353 15.0836 57.0487 14.9607 56.2621C14.8624 55.6967 15.0345 55.1805 15.4278 54.8364C15.6981 54.5906 16.0669 54.4431 16.4602 54.3939C15.8948 54.1727 15.354 53.7794 15.4032 53.042C15.4523 52.4766 15.7965 52.0833 16.4847 51.8621C17.0993 51.6409 17.7875 51.7146 18.7216 52.0588L18.7954 52.0833L18.6233 53.0666H18.4266L18.4021 53.0174C17.8859 52.1325 17.1238 51.8621 16.6568 52.0588C16.3618 52.1817 16.1898 52.5258 16.1898 52.9928C16.1898 53.6811 16.706 54.2465 17.6155 54.566L17.7138 54.5906L17.6892 54.6889C17.6892 54.6889 17.6892 54.7135 17.6646 54.7627L17.6155 54.8364L17.5417 54.8118C17.0009 54.6152 16.5585 54.6398 16.2389 54.8856C15.8948 55.156 15.7227 55.6476 15.7719 56.2621C15.821 56.9012 16.4356 57.5403 17.4434 57.5403C18.4758 57.5403 19.1886 57.0241 19.3853 56.1884C19.5082 55.6476 19.3607 55.0822 19.0412 54.861C18.8445 55.2297 18.6479 55.5984 18.3283 55.8196C18.0825 55.9917 17.7875 56.0655 17.5663 56.0163C17.4188 55.9671 17.3205 55.8934 17.2713 55.7705C17.0501 55.2543 17.8367 54.8118 18.3529 54.5414L18.4512 54.4923L18.525 54.7135L18.4512 54.7381C17.935 55.033 17.6646 55.3034 17.7384 55.5001C17.7629 55.5493 17.7875 55.5738 17.8367 55.5984C17.935 55.623 18.0825 55.5984 18.2546 55.5001C18.4758 55.3772 18.6724 55.0331 18.8691 54.6398L18.7954 54.5906L18.8691 54.6152C18.8937 54.5414 18.9428 54.4677 18.9674 54.3939L19.0412 54.2465C19.1149 54.099 19.1886 53.9515 19.2624 53.7794C19.4836 53.3124 19.6557 52.9191 19.9261 52.7224C20.1227 52.5749 20.3194 52.5258 20.516 52.5749C20.6881 52.6241 20.8602 52.7224 20.9585 52.9191C21.3026 53.509 20.8356 54.3448 20.2456 54.7381C19.9998 54.9101 19.7294 54.9593 19.4345 54.9347C19.6803 55.328 19.7294 55.9426 19.5328 56.4833C19.2378 57.3683 18.4758 57.8353 17.3942 57.8353ZM16.4602 54.5906C16.116 54.6152 15.7965 54.7627 15.5507 54.9839C15.2065 55.3034 15.059 55.7459 15.1574 56.2375C15.2311 56.7046 15.6736 57.1962 16.3618 57.4666C15.8948 57.1962 15.649 56.7537 15.5998 56.3113C15.5507 55.6476 15.7473 55.0822 16.1406 54.7627C16.2143 54.6889 16.3127 54.6398 16.4602 54.5906ZM17.5909 55.3034C17.468 55.4509 17.3942 55.5738 17.4434 55.7213C17.468 55.7951 17.5171 55.8442 17.6155 55.8442C17.7384 55.8688 17.8613 55.8442 18.0088 55.7951C17.935 55.8196 17.8367 55.7951 17.7875 55.7705C17.6892 55.7459 17.6155 55.6722 17.5909 55.5738C17.5663 55.5001 17.5663 55.4018 17.5909 55.3034ZM19.1641 54.6643C19.5082 54.8118 19.8523 54.7627 20.1473 54.5906C20.3931 54.4431 20.5652 54.1973 20.6143 53.9269C20.6635 53.7057 20.6143 53.509 20.516 53.3615C20.4177 53.2386 20.3194 53.1649 20.221 53.1403C20.1227 53.1157 20.049 53.1403 19.9507 53.214C19.8032 53.3124 19.6311 53.7057 19.459 54.0498C19.4099 54.1727 19.3361 54.2956 19.287 54.3939C19.2624 54.4677 19.2132 54.566 19.1641 54.6643ZM16.2635 52.1571C15.821 52.3537 15.6244 52.6487 15.5752 53.0666C15.5261 53.7794 16.116 54.099 16.6814 54.2956C16.2389 53.9515 15.9931 53.509 15.9931 53.0174C16.0177 52.6733 16.0914 52.3783 16.2635 52.1571ZM20.1719 52.9191C20.1965 52.9191 20.221 52.9191 20.2456 52.9191C20.3931 52.9437 20.5406 53.042 20.6635 53.214C20.7864 53.3861 20.8356 53.6319 20.7864 53.8777C20.9339 53.5828 20.9585 53.2878 20.811 53.042C20.7372 52.9191 20.6143 52.8208 20.4914 52.7962C20.344 52.7716 20.1965 52.7962 20.049 52.9191C20.049 52.9191 20.0244 52.9191 20.0244 52.9437C20.0736 52.9191 20.1227 52.9191 20.1719 52.9191ZM17.5171 51.9604C17.8613 52.1079 18.2054 52.4029 18.4758 52.8208L18.5741 52.2308C18.1808 52.0833 17.8367 51.985 17.5171 51.9604Z" fill="#191411"/>
<path d="M29.7085 57.6867H28.4795V57.6375C28.7007 57.4163 28.6269 57.1459 28.4057 56.5559L28.0124 55.5235H26.0214L25.8001 56.1381C25.5543 56.8755 25.5051 57.2688 25.8493 57.6375V57.6867H24.8906V57.6375C25.2348 57.2688 25.4806 56.9001 25.7264 56.1381L26.9308 52.7459L26.6605 52.0576H27.2996L28.8728 56.1381C29.1923 56.9492 29.4135 57.2688 29.7085 57.6375V57.6867ZM27.9633 55.4744L26.9554 52.8442L26.0214 55.4744H27.9633Z" fill="#191411"/>
<path d="M29.8075 57.7847H28.3818V57.588L28.4064 57.5635C28.5539 57.416 28.5293 57.1947 28.3081 56.5802L27.9393 55.6216H26.0712L25.8745 56.1623C25.6041 56.9243 25.6041 57.2439 25.8991 57.5635L25.9237 57.588V57.7847H24.793V57.588L24.8176 57.5635C25.1371 57.2439 25.3583 56.8998 25.6533 56.1132L26.8578 52.7456L26.5628 51.959H27.3986L27.4231 52.0081L28.9963 56.0886C29.3159 56.8752 29.5125 57.1947 29.8321 57.5635L29.8567 57.588V57.7847H29.8075ZM28.6276 57.6126H29.5617C29.2913 57.2685 29.0946 56.9244 28.7751 56.1869L27.2265 52.1556H26.784L27.0053 52.7456L27.0298 52.7947L28.0868 55.5478L28.4555 56.5065C28.6522 57.0227 28.7751 57.3422 28.6276 57.6126ZM25.0388 57.6126H25.6779C25.5304 57.416 25.4812 57.1947 25.5058 56.9489C25.3583 57.1947 25.2108 57.3914 25.0388 57.6126ZM26.1449 55.3758H27.841L26.9561 53.0897L26.1449 55.3758Z" fill="#191411"/>
<path d="M35.9541 52.0568C35.9541 52.0568 35.9541 52.106 35.9541 52.1306C35.6838 52.278 35.4379 52.6959 35.4379 53.0401V57.7104H35.315L31.4804 52.7942V56.7272C31.4804 57.0713 31.7262 57.4892 31.9966 57.6367C31.9966 57.6613 31.9966 57.6859 31.9966 57.6859H30.915V57.6367C31.1854 57.4892 31.4312 57.0713 31.4312 56.7272V52.7205L30.915 52.0568H31.7262L35.3642 56.678V53.0155C35.3642 52.6713 35.1184 52.2535 34.848 52.106C34.848 52.0814 34.848 52.0322 34.848 52.0322H35.9541V52.0568Z" fill="#191411"/>
<path d="M35.5356 57.7847H35.2653L35.2407 57.7601L31.5781 53.0651V56.7277C31.5781 57.0473 31.7993 57.4405 32.0451 57.5635L32.0943 57.588V57.7847H30.8161V57.588L30.8653 57.5635C31.1111 57.4405 31.3323 57.0473 31.3323 56.7277V52.7456L30.7178 51.959H31.7748L31.7993 51.9836L35.2898 56.4081V53.016C35.2898 52.721 35.0686 52.3277 34.8228 52.2048L34.7736 52.1802V51.959H36.0273V52.1802L35.9781 52.2048C35.7323 52.3277 35.5111 52.721 35.5111 53.016V57.7847H35.5356ZM31.1356 57.6126H31.7993C31.6519 57.4897 31.5289 57.2931 31.4552 57.0964C31.406 57.2931 31.2831 57.4651 31.1356 57.6126ZM31.406 52.5243L35.3636 57.588V56.8014L35.3144 56.7523L31.701 52.1556H31.1111L31.406 52.5243ZM35.0686 52.1556C35.2161 52.2785 35.339 52.4752 35.4127 52.6964C35.4865 52.4998 35.6094 52.3031 35.7569 52.1556H35.0686Z" fill="#191411"/>
<path d="M41.7783 53.0409L41.7291 53.0654C41.3604 52.6476 40.8688 52.1314 39.9593 52.1314H39.7872V57.1705C39.7872 57.4409 39.861 57.5638 39.9839 57.6375C39.9839 57.6621 39.9839 57.6867 39.9839 57.6867H38.9761V57.6375C39.099 57.5638 39.1727 57.4409 39.1727 57.1705V52.1314H39.0006C38.1157 52.1314 37.5995 52.6721 37.2308 53.0654L37.1816 53.0409L37.4275 52.0576H41.5079L41.7783 53.0409Z" fill="#191411"/>
<path d="M40.0573 57.7847H38.8774V57.588L38.9266 57.5635C39.0003 57.5143 39.0741 57.4651 39.0741 57.1702V52.2294H39.0003C38.1154 52.2294 37.5992 52.7947 37.3042 53.1389L37.2551 53.188L37.083 53.0897L37.378 51.959H41.6059L41.9009 53.0897L41.7288 53.188L41.6797 53.1389C41.3847 52.7947 40.8685 52.2294 39.9836 52.2294H39.9098V57.1702C39.9098 57.4651 39.9836 57.5143 40.0573 57.5635L40.1065 57.588V57.7847H40.0573ZM39.1478 57.6126H39.7869C39.7132 57.5143 39.6886 57.3668 39.6886 57.1702V52.1556H39.2461V57.1702C39.2461 57.3668 39.2216 57.5143 39.1478 57.6126ZM40.6718 52.1556C41.0651 52.3031 41.3601 52.5489 41.6059 52.8193L41.4338 52.1556H40.6718ZM37.5009 52.1556L37.3288 52.8193C37.5746 52.5489 37.8696 52.3031 38.2629 52.1556H37.5009Z" fill="#191411"/>
<path d="M43.8678 52.5974V57.1695C43.8678 57.4399 43.917 57.5628 44.0645 57.6365C44.0645 57.6611 44.0645 57.6857 44.0645 57.6857H43.0566V57.6365C43.1795 57.5628 43.2287 57.4399 43.2287 57.1695V52.5974C43.2287 52.327 43.1795 52.2041 43.0566 52.1304C43.0566 52.1058 43.0566 52.0566 43.0566 52.0566H44.0645C44.0645 52.0566 44.0645 52.1058 44.0645 52.1304C43.917 52.2041 43.8678 52.3024 43.8678 52.5974Z" fill="#191411"/>
<path d="M44.1633 57.7845H42.9834V57.5879L43.0326 57.5633C43.1063 57.5141 43.1555 57.465 43.1555 57.17V52.5979C43.1555 52.303 43.0817 52.2292 43.0326 52.2046L42.9834 52.1801V51.9834H44.1633V52.2046L44.1141 52.2292C44.0158 52.2784 43.9666 52.3521 43.9666 52.6225V57.1946C43.9666 57.4895 44.0404 57.5387 44.1141 57.5879L44.1633 57.6125V57.7845ZM43.2292 57.6125H43.8683C43.7946 57.5141 43.77 57.3666 43.77 57.17V52.5979C43.77 52.4259 43.7946 52.2538 43.8683 52.1555H43.2046C43.2784 52.2538 43.303 52.4013 43.303 52.5979V57.17C43.3275 57.3666 43.303 57.5141 43.2292 57.6125Z" fill="#191411"/>
<path d="M50.1132 56.1871C50.1132 57.3178 48.7859 57.7111 47.7289 57.7111H45.5166V57.6619C45.6395 57.5882 45.6887 57.4653 45.6887 57.1949V52.6228C45.6887 52.3524 45.6395 52.2295 45.5166 52.1558C45.5166 52.1312 45.5166 52.082 45.5166 52.082H47.3848C48.4172 52.082 49.7691 52.3033 49.7691 53.434C49.7691 54.2943 48.9825 54.6139 48.1468 54.7122C49.0808 54.7859 50.1132 55.2038 50.1132 56.1871ZM46.3278 54.663H47.3848C48.7121 54.663 49.13 54.0977 49.13 53.4094C49.13 52.6966 48.7121 52.1312 47.3848 52.1312H46.3278V54.663ZM49.4741 56.1871C49.4741 55.4742 49.0563 54.7368 47.7289 54.7368H46.3278V57.6373H47.7289C49.0563 57.6373 49.4741 56.8999 49.4741 56.1871Z" fill="#191411"/>
<path d="M47.7266 57.7847H45.416V57.588L45.4652 57.5635C45.5389 57.5143 45.5881 57.4651 45.5881 57.1702V52.5981C45.5881 52.3031 45.5143 52.2294 45.4652 52.2048L45.416 52.1802V51.959H47.3825C49.0048 51.959 49.8406 52.4506 49.8406 53.4093C49.8406 53.8763 49.6194 54.4417 48.6607 54.6875C49.2998 54.835 50.1847 55.2283 50.1847 56.1869C50.1847 57.3668 48.8574 57.7847 47.7266 57.7847ZM45.6864 57.6126H46.2272V52.1556H45.6864C45.7601 52.254 45.7847 52.4014 45.7847 52.5981V57.1702C45.7847 57.3668 45.7601 57.5143 45.6864 57.6126ZM46.4238 57.5389H47.7266C49.2261 57.5389 49.3736 56.5802 49.3736 56.1623C49.3736 55.7445 49.2015 54.8104 47.7266 54.8104H46.4238V57.5389ZM48.9803 54.9579C49.521 55.3266 49.5702 55.9411 49.5702 56.1623C49.5702 56.4081 49.521 57.0227 48.9557 57.3914C49.5456 57.1947 50.0127 56.8014 50.0127 56.1623C50.0127 55.4986 49.4719 55.1545 48.9803 54.9579ZM46.4238 54.5646H47.3825C48.4886 54.5646 49.0294 54.1713 49.0294 53.3847C49.0294 52.5735 48.4886 52.2048 47.3825 52.2048H46.4238V54.5646ZM48.587 52.2785C49.0786 52.5489 49.2015 52.9914 49.2015 53.4093C49.2015 53.8026 49.0786 54.245 48.587 54.5154C49.2998 54.3433 49.6685 53.9501 49.6685 53.4093C49.6685 52.7702 49.2015 52.4506 48.587 52.2785Z" fill="#191411"/>
<path d="M52.2751 52.5984V57.1705C52.2751 57.4409 52.3242 57.5638 52.4717 57.6375C52.4717 57.6621 52.4717 57.6867 52.4717 57.6867H51.4639V57.6375C51.5868 57.5638 51.6359 57.4409 51.6359 57.1705V52.5984C51.6359 52.328 51.5868 52.2051 51.4639 52.1314C51.4639 52.1068 51.4639 52.0576 51.4639 52.0576H52.4717C52.4717 52.0576 52.4717 52.1068 52.4717 52.1314C52.3488 52.2051 52.2751 52.3034 52.2751 52.5984Z" fill="#191411"/>
<path d="M52.5695 57.7845H51.3896V57.5879L51.4388 57.5633C51.5126 57.5141 51.5617 57.465 51.5617 57.17V52.5979C51.5617 52.303 51.488 52.2292 51.4388 52.2046L51.3896 52.1801V51.9834H52.5695V52.2046L52.5204 52.2292C52.4221 52.2784 52.3729 52.3521 52.3729 52.6225V57.1946C52.3729 57.4895 52.4466 57.5387 52.5204 57.5879L52.5695 57.6125V57.7845ZM51.6355 57.6125H52.2746C52.2008 57.5141 52.1762 57.3666 52.1762 57.17V52.5979C52.1762 52.4259 52.2008 52.2538 52.2746 52.1555H51.6109C51.6846 52.2538 51.7092 52.4013 51.7092 52.5979V57.17C51.7338 57.3666 51.7092 57.5141 51.6355 57.6125Z" fill="#191411"/>
<path d="M59.6979 54.8604C59.6979 56.4581 58.3706 57.7363 56.7728 57.7363C55.175 57.7363 53.8477 56.4335 53.8477 54.8604C53.8477 53.2626 55.175 51.9844 56.7728 51.9844C58.3706 51.9844 59.6979 53.2626 59.6979 54.8604ZM58.9114 54.1967C58.4689 52.771 57.289 51.7631 55.937 52.1564C54.5851 52.5743 54.1672 54.0738 54.6097 55.4995C55.0521 56.9252 56.232 57.9576 57.584 57.5397C58.9359 57.1464 59.3538 55.6224 58.9114 54.1967Z" fill="#191411"/>
<path d="M56.7735 57.8353C55.102 57.8353 53.75 56.5079 53.75 54.861C53.75 53.2141 55.102 51.8867 56.7735 51.8867C58.445 51.8867 59.7969 53.2141 59.7969 54.861C59.7723 56.5079 58.4204 57.8353 56.7735 57.8353ZM54.8807 52.7716C54.2908 53.2878 53.9221 54.0253 53.9221 54.861C53.9221 56.2376 54.9299 57.3929 56.2818 57.6141C56.0852 57.5403 55.8885 57.442 55.6919 57.2945C55.1511 56.9012 54.7332 56.2867 54.512 55.5493C54.2416 54.6889 54.2908 53.7795 54.6595 53.1158C54.7332 52.9929 54.807 52.87 54.8807 52.7716ZM56.5522 52.1817C56.3556 52.1817 56.1835 52.2063 55.9623 52.28C55.4707 52.4275 55.0774 52.7716 54.8316 53.2141C54.4874 53.8532 54.4628 54.6644 54.7087 55.5001C54.9299 56.213 55.3232 56.8029 55.8148 57.1716C56.3556 57.5649 56.9455 57.6633 57.5601 57.4912C58.912 57.0733 59.2316 55.5493 58.8383 54.2465C58.4941 53.1158 57.6338 52.1817 56.5522 52.1817ZM57.2651 52.1079C58.1008 52.4275 58.7154 53.2387 59.0103 54.1727C59.3053 55.1314 59.2316 56.213 58.6662 56.9258C59.2316 56.4096 59.6003 55.6722 59.6003 54.861C59.6003 53.4845 58.5925 52.3537 57.2651 52.1079Z" fill="#191411"/>
<path d="M65.3525 53.0409L65.3033 53.0654C64.9346 52.6476 64.443 52.1314 63.5335 52.1314H63.3614V57.1705C63.3614 57.4409 63.4352 57.5638 63.5581 57.6375C63.5581 57.6621 63.5581 57.6867 63.5581 57.6867H62.5503V57.6375C62.6732 57.5638 62.7469 57.4409 62.7469 57.1705V52.1314H62.5748C61.6899 52.1314 61.1737 52.6721 60.805 53.0654L60.7559 53.0409L61.0017 52.0576H65.0821L65.3525 53.0409Z" fill="#191411"/>
<path d="M63.6325 57.7847H62.4526V57.588L62.5018 57.5635C62.5755 57.5143 62.6493 57.4651 62.6493 57.1702V52.2294H62.5755C61.6906 52.2294 61.1744 52.7947 60.8794 53.1389L60.8303 53.188L60.6582 53.0897L60.9532 51.959H65.1811L65.4761 53.0897L65.304 53.188L65.2549 53.1389C64.9599 52.7947 64.4437 52.2294 63.5588 52.2294H63.485V57.1702C63.485 57.4651 63.5588 57.5143 63.6325 57.5635L63.6817 57.588V57.7847H63.6325ZM62.723 57.6126H63.3621C63.2884 57.5143 63.2638 57.3668 63.2638 57.1702V52.1556H62.8213V57.1702C62.8213 57.3668 62.7968 57.5143 62.723 57.6126ZM64.247 52.1556C64.6403 52.3031 64.9353 52.5489 65.1811 52.8193L65.009 52.1556H64.247ZM61.0515 52.1556L60.8794 52.8193C61.1252 52.5489 61.4202 52.3031 61.8135 52.1556H61.0515Z" fill="#191411"/>
<path d="M67.442 52.5994V57.1714C67.442 57.4418 67.4912 57.5647 67.6387 57.6385C67.6387 57.6631 67.6387 57.6876 67.6387 57.6876H66.6309V57.6385C66.7538 57.5647 66.8029 57.4418 66.8029 57.1714V52.5994C66.8029 52.329 66.7538 52.2061 66.6309 52.1323C66.6309 52.1078 66.6309 52.0586 66.6309 52.0586H67.6387C67.6387 52.0586 67.6387 52.1078 67.6387 52.1323C67.4912 52.2061 67.442 52.3044 67.442 52.5994Z" fill="#191411"/>
<path d="M67.7131 57.7855H66.5332V57.5889L66.5824 57.5643C66.6561 57.5151 66.7053 57.4659 66.7053 57.171V52.5989C66.7053 52.3039 66.6315 52.2302 66.5824 52.2056L66.5332 52.181V51.9844H67.7131V52.2056L67.6639 52.2302C67.5656 52.2793 67.5164 52.3531 67.5164 52.6235V57.1956C67.5164 57.4905 67.5902 57.5397 67.6639 57.5889L67.7131 57.6134V57.7855ZM66.8036 57.6134H67.4427C67.3689 57.5151 67.3444 57.3676 67.3444 57.171V52.5989C67.3444 52.4268 67.3689 52.2548 67.4427 52.1564H66.779C66.8528 52.2548 66.8773 52.4023 66.8773 52.5989V57.171C66.9019 57.3676 66.8773 57.5151 66.8036 57.6134Z" fill="#191411"/>
<path d="M74.5947 56.1148C74.1522 57.0243 73.3902 57.7617 71.9645 57.7617C70.3668 57.7617 68.9902 56.4835 68.9902 54.8857C68.9902 53.288 70.4405 52.0098 72.0383 52.0098C72.8986 52.0098 73.4394 52.231 74.1277 52.698L73.8818 53.6075H73.8081C73.2182 52.6735 72.2595 51.9852 71.2025 52.2064C69.826 52.5014 69.3344 54.1237 69.7522 55.5494C70.1947 56.9751 71.35 57.7126 72.7757 57.4913C73.5131 57.393 74.1277 56.9014 74.521 56.1148H74.5947Z" fill="#191411"/>
<path d="M71.9631 57.8353C70.3162 57.8353 68.915 56.4834 68.915 54.861C68.915 53.2387 70.3407 51.8867 72.0368 51.8867C72.9463 51.8867 73.4871 52.1325 74.1754 52.575L74.2245 52.5996L73.9541 53.6566H73.7821L73.7575 53.6074C73.2413 52.7962 72.3318 52.0096 71.2502 52.2554C70.7586 52.3538 70.3407 52.6733 70.0703 53.1158C69.7016 53.7549 69.6279 54.6398 69.8737 55.4755C70.2916 56.8521 71.3977 57.5649 72.7743 57.3437C73.4871 57.2454 74.0771 56.7783 74.4704 56.0163L74.5195 55.9426L74.7407 56.0409L74.6916 56.1392C74.1262 57.27 73.2167 57.8353 71.9631 57.8353ZM70.0212 52.8454C69.4558 53.3616 69.0871 54.0744 69.0871 54.861C69.0871 56.385 70.4145 57.6633 71.9631 57.6633C72.2581 57.6633 72.5039 57.6387 72.7497 57.5649C71.2994 57.7616 70.1195 56.9996 69.6771 55.5493C69.4067 54.6644 69.4804 53.7303 69.8983 53.042C69.9229 52.9683 69.972 52.8945 70.0212 52.8454ZM71.9877 52.0588C72.7497 52.2063 73.4134 52.7716 73.8312 53.3862L74.0279 52.6733C73.4134 52.2554 72.8972 52.0588 72.0614 52.0588C72.0123 52.0588 72.0122 52.0588 71.9877 52.0588Z" fill="#191411"/>
<path d="M34.4536 63.5128L34.3799 63.562C33.7408 62.8246 32.8313 61.8905 31.2581 61.8905H30.0536V66.5363L33.3229 66.2413V66.9787L30.0536 66.6592V70.7888C30.0536 71.2804 30.1519 71.5017 30.3732 71.6246C30.3732 71.6491 30.3732 71.7229 30.3732 71.7229H28.6279C28.6279 71.7229 28.6279 71.6491 28.6279 71.6246C28.8492 71.5017 28.9475 71.2804 28.9475 70.7888V62.7262C28.9475 62.2346 28.8492 62.0134 28.6279 61.8905C28.6279 61.8659 28.6279 61.7676 28.6279 61.7676H33.9866L34.4536 63.5128Z" fill="#191411"/>
<path d="M30.4712 71.8219H28.5293V71.5761L28.5785 71.5515C28.7505 71.4532 28.8489 71.2811 28.8489 70.7895V62.7269C28.8489 62.2353 28.7505 62.0632 28.5785 61.9649L28.5293 61.9403V61.6699H34.06L34.5516 63.5381L34.355 63.661L34.3058 63.6118C33.6176 62.8252 32.7327 61.9895 31.2578 61.9895H30.1516V66.4386L33.4209 66.1437V67.0777H33.3226L30.1516 66.7828V70.814C30.1516 71.3057 30.25 71.4778 30.422 71.5761L30.4712 71.6007V71.8219ZM28.7751 71.6252H30.2254C30.0533 71.4777 29.9796 71.2073 29.9796 70.7895V61.8666H28.7751C28.9718 62.0141 29.0455 62.2844 29.0455 62.7269V70.7895C29.0209 71.2319 28.9472 71.4777 28.7751 71.6252ZM30.4466 66.5861L33.2489 66.8565V66.3403L30.4466 66.5861ZM31.9952 61.8666C33.0276 62.0632 33.7405 62.7023 34.3058 63.3414L33.9125 61.8666H31.9952Z" fill="#191411"/>
<path d="M44.3102 71.6236V71.7219H42.1225V71.6236C42.4912 71.2549 42.1962 70.7387 41.6309 69.7554L40.1069 67.1007C39.8856 67.1252 39.689 67.1252 39.4677 67.1252H38.165V70.7878C38.165 71.2794 38.2633 71.5007 38.4845 71.6236C38.4845 71.6482 38.4845 71.7219 38.4845 71.7219H36.7393C36.7393 71.7219 36.7393 71.6482 36.7393 71.6236C36.9605 71.5007 37.0588 71.2794 37.0588 70.7878V62.7253C37.0588 62.2091 36.9605 62.0124 36.7393 61.8895C36.7393 61.8649 36.7393 61.7666 36.7393 61.7666H39.4923C41.7046 61.7666 43.6957 62.6023 43.6957 64.4459C43.6957 65.7733 42.6387 66.5845 41.213 66.9286L42.4912 69.1901C43.3024 70.6403 43.7694 71.132 44.3102 71.6236ZM42.565 64.4459C42.565 63.3398 42.1962 61.8649 39.4923 61.8649H38.165V67.0023H39.4923C42.1717 67.0269 42.565 65.5521 42.565 64.4459Z" fill="#191411"/>
<path d="M44.4084 71.8198H42.024V71.5985L42.0486 71.574C42.3436 71.279 42.1469 70.8611 41.5816 69.8779L41.557 69.8287L40.0576 67.2231C39.8609 67.2477 39.6642 67.2477 39.4676 67.2477H38.2386V70.8119C38.2386 71.3036 38.3369 71.4756 38.509 71.574L38.5581 71.5985V71.8444H36.6162V71.5985L36.6654 71.574C36.8374 71.4756 36.9358 71.3036 36.9358 70.8119V62.7494C36.9358 62.2578 36.8374 62.0857 36.6654 61.9874L36.6162 61.9628V61.6924H39.4676C41.4587 61.6924 43.7693 62.4298 43.7693 64.47C43.7693 65.6991 42.8844 66.6086 41.3358 67.0019L42.5648 69.1404C43.4252 70.6399 43.8922 71.1069 44.3838 71.574L44.4084 71.5985V71.8198ZM42.2453 71.6231H44.1872C43.6955 71.1561 43.2285 70.6644 42.3927 69.2142L41.0654 66.879C40.8196 66.9773 40.5246 67.0265 40.2296 67.0756L41.7782 69.7795C42.2698 70.689 42.5894 71.2298 42.2453 71.6231ZM36.862 71.6231H38.3123C38.1402 71.4756 38.0665 71.2052 38.0665 70.7874V61.8645H36.862C37.0587 62.0119 37.1324 62.2823 37.1324 62.7248V70.7874C37.1324 71.2298 37.0587 71.4756 36.862 71.6231ZM38.2631 66.9281H39.4922C41.5078 66.9281 42.4665 66.117 42.4665 64.47C42.4665 63.8555 42.4665 61.9874 39.4922 61.9874H38.2631V66.9281ZM41.0408 62.0119C42.1224 62.3807 42.6631 63.1918 42.6631 64.47C42.6631 65.6745 42.1715 66.4611 41.1883 66.8544C42.7369 66.5103 43.5972 65.6254 43.5972 64.47C43.5972 63.4376 42.8844 62.3807 41.0408 62.0119Z" fill="#191411"/>
<path d="M52.5463 70.0022L52.2267 71.7229H46.4502C46.4502 71.7229 46.4502 71.6491 46.4502 71.6246C46.6714 71.5017 46.7697 71.2804 46.7697 70.7888V62.7262C46.7697 62.2346 46.6714 62.0134 46.4502 61.8905C46.4502 61.8659 46.4502 61.7676 46.4502 61.7676H51.7843L52.0792 63.3408L52.0055 63.3899C51.3418 62.6525 50.4815 61.8659 48.8837 61.8659H47.9005V66.0693L51.4893 65.7497V66.4871L47.9005 66.1922V71.6246H49.0558C50.629 71.6246 51.8089 70.8134 52.4725 69.953L52.5463 70.0022Z" fill="#191411"/>
<path d="M52.2992 71.8219H46.3506V71.5761L46.3998 71.5515C46.5718 71.4532 46.6701 71.2811 46.6701 70.7895V62.7269C46.6701 62.2353 46.5718 62.0632 46.3998 61.9649L46.3506 61.9403V61.6699H51.8321L51.8567 61.7437L52.1763 63.366L52.0042 63.5135L51.9551 63.4398C51.3159 62.7023 50.431 61.9403 48.907 61.9403H47.9975V65.947L51.5863 65.6275V66.5615H51.488L47.9975 66.2666V71.5023H49.0545C50.9227 71.5023 52.0042 70.347 52.3975 69.8554L52.4467 69.7817L52.6433 69.9291L52.2992 71.8219ZM49.9148 71.6252H52.1517L52.4221 70.1258C52.0288 70.5928 51.2176 71.3794 49.9148 71.6252ZM46.5964 71.6252H47.8009V61.8666H46.5964C46.793 62.0141 46.8668 62.2844 46.8668 62.7269V70.7895C46.8668 71.2319 46.793 71.4777 46.5964 71.6252ZM48.3171 66.1437L51.3897 66.3895V65.8733L48.3171 66.1437ZM49.6936 61.8666C50.7506 62.0632 51.4389 62.6286 51.9796 63.2185L51.7338 61.8666H49.6936Z" fill="#191411"/>
<path d="M61.0502 70.0022L60.7306 71.7229H54.9541C54.9541 71.7229 54.9541 71.6491 54.9541 71.6246C55.1753 71.5017 55.2737 71.2804 55.2737 70.7888V62.7262C55.2737 62.2346 55.1753 62.0134 54.9541 61.8905C54.9541 61.8659 54.9541 61.7676 54.9541 61.7676H60.2882L60.5832 63.3408L60.5094 63.3899C59.8457 62.6525 58.9854 61.8659 57.3876 61.8659H56.4044V66.0693L59.9932 65.7497V66.4871L56.4044 66.1922V71.6246H57.5597C59.1329 71.6246 60.3128 70.8134 60.9764 69.953L61.0502 70.0022Z" fill="#191411"/>
<path d="M60.8285 71.8219H54.8799V71.5761L54.929 71.5515C55.1011 71.4532 55.1994 71.2811 55.1994 70.7895V62.7269C55.1994 62.2353 55.1011 62.0632 54.929 61.9649L54.8799 61.9403V61.6699H60.3614L60.386 61.7437L60.7056 63.366L60.5335 63.5135L60.4843 63.4398C59.8452 62.7023 58.9603 61.9403 57.4363 61.9403H56.5268V65.947L60.1156 65.6275V66.5615H60.0173L56.5268 66.2666V71.5023H57.5838C59.452 71.5023 60.5335 70.347 60.9268 69.8554L60.976 69.7817L61.1726 69.9291L60.8285 71.8219ZM58.4441 71.6252H60.681L60.9514 70.1258C60.5581 70.5928 59.7223 71.3794 58.4441 71.6252ZM55.1257 71.6252H56.3302V61.8666H55.1257C55.3223 62.0141 55.3961 62.2844 55.3961 62.7269V70.7895C55.3715 71.2319 55.2978 71.4777 55.1257 71.6252ZM56.8218 66.1437L59.8944 66.3895V65.8733L56.8218 66.1437ZM58.1983 61.8666C59.2553 62.0632 59.9436 62.6286 60.4843 63.2185L60.2385 61.8666H58.1983Z" fill="#191411"/>
<path d="M83.5658 70.6429L77.101 60.0977C76.9781 60.1714 76.8307 60.196 76.6832 60.2206L83.1971 70.8396C83.7625 71.7737 83.7625 72.9044 83.1971 73.8384C82.6072 74.7725 81.5748 75.3379 80.4195 75.3379L10.9535 75.1904C9.79823 75.1904 8.76583 74.625 8.17588 73.691C7.61052 72.7569 7.61052 71.6261 8.17588 70.6921L14.4932 60.491C14.3703 60.4172 14.2474 60.3681 14.1491 60.2697L7.83175 70.4954C7.16806 71.5524 7.16806 72.8306 7.83175 73.8876C8.47086 74.9446 9.65074 75.5837 10.9535 75.5837L80.4195 75.7312C81.7223 75.7312 82.9021 75.0921 83.5413 74.0351C84.2295 72.9781 84.2295 71.6999 83.5658 70.6429Z" fill="#191411"/>
</svg>
