<svg width="77" height="42" viewBox="0 0 77 42" fill="none" xmlns="http://www.w3.org/2000/svg">
<mask id="path-1-inside-1_1_28802" fill="white">
<path d="M72.8103 0.495593C73.1464 0.431734 73.6422 0.355546 74.0077 0.246721C74.1755 0.196749 74.3431 0.143165 74.5159 0.115015L74.6423 0.0944192C75.0208 0.0327745 75.4616 0.0691225 75.5808 0.433574C75.5938 0.473423 75.6077 0.515412 75.6247 0.559728C75.813 1.05056 75.7632 1.54742 75.826 2.04651C76.0189 3.57918 76.0445 5.10732 76.3674 6.63511C76.6794 8.11109 76.8328 9.58841 76.8328 11.078C76.8328 14.0894 77.0498 17.0933 76.9894 20.1065C76.9665 21.2487 76.9128 22.3977 76.797 23.5377C76.7051 24.4421 76.4788 25.3312 76.3406 26.2314C76.2167 27.0389 76.2589 27.8613 76.2735 28.6715C76.2914 29.6707 76.4623 30.6599 76.5419 31.6567C76.6155 32.5787 76.5911 33.5033 76.5911 34.4262C76.5911 35.6504 76.5732 36.8733 76.6538 38.0965C76.7115 38.9731 76.9905 39.8592 76.9088 40.7377C76.8675 41.1825 76.2673 41.1141 75.7589 41.245C75.2537 41.375 74.8608 41.361 74.3405 41.2712C73.8089 41.1795 73.4264 41.2585 72.8864 41.2858C71.8303 41.3392 70.7038 41.2958 69.6648 41.1809C69.0074 41.1081 68.405 41.0937 67.7319 41.0876C67.2095 41.0828 66.7028 41.0105 66.1748 41.038C65.7605 41.0596 65.4977 41.2929 65.0563 41.2975C64.7529 41.3006 64.426 41.3169 64.1256 41.2858C63.9065 41.2631 63.7297 41.1705 63.5126 41.1459C63.3136 41.1233 63.2625 41.213 63.092 41.2392C62.8742 41.2725 62.6023 41.245 62.3806 41.245C61.6912 41.245 61.0105 41.1167 60.3269 41.143C59.691 41.1673 59.1461 41.3467 58.4968 41.3499C57.5277 41.3548 56.4948 41.4709 55.5348 41.3762C54.9065 41.3141 54.2357 41.4195 53.6198 41.315C53.1838 41.241 52.826 41.1438 52.367 41.14L52.3117 41.1396C52.0782 41.1378 51.8527 41.1361 51.6198 41.1138C50.2306 40.9807 48.8239 41.0876 47.4318 41.0876C46.8606 41.0876 46.4008 40.9856 45.8434 40.9418C45.2085 40.892 44.5361 40.9301 43.897 40.9301C43.3473 40.9301 42.7955 40.9207 42.246 40.9301C41.7889 40.938 41.3297 41.065 40.8634 41.0846C40.0651 41.1182 39.2697 41.0957 38.4696 41.14C37.8353 41.1752 37.2294 41.3222 36.5904 41.3616C34.7533 41.475 32.8518 41.4951 31.0064 41.5074C29.9432 41.5144 28.8794 41.5074 27.8162 41.5074C26.5048 41.5074 25.2466 41.3076 23.9369 41.2975C22.239 41.2843 20.5507 41.0876 18.8451 41.0876C17.3149 41.0876 15.8523 41.0026 14.317 41.14C13.1383 41.2456 11.9238 41.4452 10.7375 41.4549C9.05521 41.4686 7.29761 41.6997 5.65468 41.9272C5.2886 41.9778 4.66705 42.0544 4.3079 41.9417C3.96488 41.8341 3.87389 41.5598 3.46225 41.5598C3.01742 41.5598 2.64103 41.6727 2.20943 41.7289C2.05102 41.7496 1.39166 42.0388 1.32797 41.9651C1.15259 41.7619 1.07396 41.4314 1.0282 41.1983C0.989027 40.9988 0.945624 40.6518 0.6434 40.5337C0.555876 40.4994 0.445212 40.534 0.365988 40.5045C0.187239 40.438 0.201056 39.7221 0.178061 39.5891C0.119589 39.251 0.151762 38.8877 0.204916 38.5513C0.379866 37.444 0.383467 36.3271 0.4868 35.2162C0.544135 34.5999 0.635069 33.9986 0.643401 33.3796C0.649893 32.8973 0.730216 32.4162 0.723937 31.9337C0.721098 31.7156 0.561354 31.5652 0.491271 31.3564C0.238143 30.6025 0.326026 29.7663 0.258605 28.9951C0.196738 28.2875 0.163787 27.5849 0.0438373 26.8815C-0.0967419 26.0572 0.144378 25.2414 0.16017 24.4181C0.172721 23.7638 0.121779 23.0722 0.325721 22.4299C0.498786 21.885 0.523147 21.3339 0.706039 20.7857C0.770339 20.593 0.869468 20.3335 0.800002 20.1298C0.737571 19.9468 0.592399 19.7545 0.527068 19.5643C0.410628 19.2251 0.446998 18.9013 0.397308 18.5614C0.32244 18.0492 0.32125 17.5378 0.32125 17.0192C0.32125 16.4155 0.160171 15.8277 0.160171 15.2351C0.160171 14.2733 0.32125 13.3184 0.32125 12.3607C0.32125 11.7172 0.482322 11.1121 0.482322 10.4658L0.482322 8.43674C0.482322 7.85439 0.899147 7.27724 0.68367 6.68758C0.579597 6.40279 0.643402 6.07735 0.643402 5.78969C0.643402 5.4733 0.562866 5.16003 0.562866 4.84806C0.562866 4.08191 0.338692 3.27688 0.603134 2.51877C0.753097 2.08886 0.72168 1.64284 0.808952 1.20691C0.82486 1.12744 1.07668 0.40399 1.18032 0.378979C1.60338 0.27689 2.50027 0.33005 2.97901 0.37898C3.93011 0.476185 4.86436 0.367319 5.81576 0.367319C6.34319 0.367319 6.87885 0.451105 7.40416 0.416878C7.83521 0.388793 8.1517 0.163619 8.59881 0.157421C9.58728 0.143718 10.5481 0.26237 11.534 0.26237C12.1311 0.26237 12.6866 0.367319 13.2879 0.367319C13.8807 0.367319 14.4595 0.383473 15.0508 0.408133C16.8447 0.482934 18.6449 0.367319 20.438 0.367319C21.3419 0.367319 22.2616 0.414224 23.1494 0.291523C23.7952 0.20227 24.465 0.104947 25.1271 0.104947C25.6108 0.104947 26.0278 0.182036 26.4962 0.239048C26.8743 0.285068 27.261 0.246475 27.6417 0.274032C28.2433 0.317586 28.7899 0.36732 29.4001 0.36732L32.5814 0.36732C35.6603 0.36732 38.35 1.69451 41.5122 1.38766C42.3395 1.30738 43.1379 1.104 43.9731 1.06115C44.8371 1.01683 45.7193 1.04949 46.5861 1.04949C47.0531 1.04949 47.5098 0.974974 47.9618 0.901216L48.0179 0.892066C48.6623 0.787107 49.3814 0.787112 50.0448 0.787117L50.0582 0.787117C50.8631 0.787117 51.6635 0.892066 52.4654 0.892066C52.7534 0.892066 53.0354 0.868486 53.3155 0.82793C53.7535 0.764516 53.9788 0.493209 54.3536 0.343999C54.8672 0.139503 55.3056 0.157423 55.8928 0.157423C56.6794 0.157423 57.4018 0.453051 58.1657 0.35566C58.9459 0.256207 59.7551 0.411483 60.5461 0.419796C61.665 0.431553 62.7966 0.566995 63.9108 0.577219C64.7909 0.585296 65.6651 0.629694 66.5417 0.629694C66.9705 0.629694 67.3468 0.524745 67.7767 0.524745C68.3334 0.524745 68.815 0.682169 69.3606 0.682169C69.8363 0.682169 70.2902 0.702785 70.7566 0.731728C71.0251 0.748392 71.2849 0.74517 71.5351 0.682169C71.9633 0.574392 72.3853 0.576353 72.8103 0.495593Z"/>
</mask>
<path d="M72.8103 0.495593C73.1464 0.431734 73.6422 0.355546 74.0077 0.246721C74.1755 0.196749 74.3431 0.143165 74.5159 0.115015L74.6423 0.0944192C75.0208 0.0327745 75.4616 0.0691225 75.5808 0.433574C75.5938 0.473423 75.6077 0.515412 75.6247 0.559728C75.813 1.05056 75.7632 1.54742 75.826 2.04651C76.0189 3.57918 76.0445 5.10732 76.3674 6.63511C76.6794 8.11109 76.8328 9.58841 76.8328 11.078C76.8328 14.0894 77.0498 17.0933 76.9894 20.1065C76.9665 21.2487 76.9128 22.3977 76.797 23.5377C76.7051 24.4421 76.4788 25.3312 76.3406 26.2314C76.2167 27.0389 76.2589 27.8613 76.2735 28.6715C76.2914 29.6707 76.4623 30.6599 76.5419 31.6567C76.6155 32.5787 76.5911 33.5033 76.5911 34.4262C76.5911 35.6504 76.5732 36.8733 76.6538 38.0965C76.7115 38.9731 76.9905 39.8592 76.9088 40.7377C76.8675 41.1825 76.2673 41.1141 75.7589 41.245C75.2537 41.375 74.8608 41.361 74.3405 41.2712C73.8089 41.1795 73.4264 41.2585 72.8864 41.2858C71.8303 41.3392 70.7038 41.2958 69.6648 41.1809C69.0074 41.1081 68.405 41.0937 67.7319 41.0876C67.2095 41.0828 66.7028 41.0105 66.1748 41.038C65.7605 41.0596 65.4977 41.2929 65.0563 41.2975C64.7529 41.3006 64.426 41.3169 64.1256 41.2858C63.9065 41.2631 63.7297 41.1705 63.5126 41.1459C63.3136 41.1233 63.2625 41.213 63.092 41.2392C62.8742 41.2725 62.6023 41.245 62.3806 41.245C61.6912 41.245 61.0105 41.1167 60.3269 41.143C59.691 41.1673 59.1461 41.3467 58.4968 41.3499C57.5277 41.3548 56.4948 41.4709 55.5348 41.3762C54.9065 41.3141 54.2357 41.4195 53.6198 41.315C53.1838 41.241 52.826 41.1438 52.367 41.14L52.3117 41.1396C52.0782 41.1378 51.8527 41.1361 51.6198 41.1138C50.2306 40.9807 48.8239 41.0876 47.4318 41.0876C46.8606 41.0876 46.4008 40.9856 45.8434 40.9418C45.2085 40.892 44.5361 40.9301 43.897 40.9301C43.3473 40.9301 42.7955 40.9207 42.246 40.9301C41.7889 40.938 41.3297 41.065 40.8634 41.0846C40.0651 41.1182 39.2697 41.0957 38.4696 41.14C37.8353 41.1752 37.2294 41.3222 36.5904 41.3616C34.7533 41.475 32.8518 41.4951 31.0064 41.5074C29.9432 41.5144 28.8794 41.5074 27.8162 41.5074C26.5048 41.5074 25.2466 41.3076 23.9369 41.2975C22.239 41.2843 20.5507 41.0876 18.8451 41.0876C17.3149 41.0876 15.8523 41.0026 14.317 41.14C13.1383 41.2456 11.9238 41.4452 10.7375 41.4549C9.05521 41.4686 7.29761 41.6997 5.65468 41.9272C5.2886 41.9778 4.66705 42.0544 4.3079 41.9417C3.96488 41.8341 3.87389 41.5598 3.46225 41.5598C3.01742 41.5598 2.64103 41.6727 2.20943 41.7289C2.05102 41.7496 1.39166 42.0388 1.32797 41.9651C1.15259 41.7619 1.07396 41.4314 1.0282 41.1983C0.989027 40.9988 0.945624 40.6518 0.6434 40.5337C0.555876 40.4994 0.445212 40.534 0.365988 40.5045C0.187239 40.438 0.201056 39.7221 0.178061 39.5891C0.119589 39.251 0.151762 38.8877 0.204916 38.5513C0.379866 37.444 0.383467 36.3271 0.4868 35.2162C0.544135 34.5999 0.635069 33.9986 0.643401 33.3796C0.649893 32.8973 0.730216 32.4162 0.723937 31.9337C0.721098 31.7156 0.561354 31.5652 0.491271 31.3564C0.238143 30.6025 0.326026 29.7663 0.258605 28.9951C0.196738 28.2875 0.163787 27.5849 0.0438373 26.8815C-0.0967419 26.0572 0.144378 25.2414 0.16017 24.4181C0.172721 23.7638 0.121779 23.0722 0.325721 22.4299C0.498786 21.885 0.523147 21.3339 0.706039 20.7857C0.770339 20.593 0.869468 20.3335 0.800002 20.1298C0.737571 19.9468 0.592399 19.7545 0.527068 19.5643C0.410628 19.2251 0.446998 18.9013 0.397308 18.5614C0.32244 18.0492 0.32125 17.5378 0.32125 17.0192C0.32125 16.4155 0.160171 15.8277 0.160171 15.2351C0.160171 14.2733 0.32125 13.3184 0.32125 12.3607C0.32125 11.7172 0.482322 11.1121 0.482322 10.4658L0.482322 8.43674C0.482322 7.85439 0.899147 7.27724 0.68367 6.68758C0.579597 6.40279 0.643402 6.07735 0.643402 5.78969C0.643402 5.4733 0.562866 5.16003 0.562866 4.84806C0.562866 4.08191 0.338692 3.27688 0.603134 2.51877C0.753097 2.08886 0.72168 1.64284 0.808952 1.20691C0.82486 1.12744 1.07668 0.40399 1.18032 0.378979C1.60338 0.27689 2.50027 0.33005 2.97901 0.37898C3.93011 0.476185 4.86436 0.367319 5.81576 0.367319C6.34319 0.367319 6.87885 0.451105 7.40416 0.416878C7.83521 0.388793 8.1517 0.163619 8.59881 0.157421C9.58728 0.143718 10.5481 0.26237 11.534 0.26237C12.1311 0.26237 12.6866 0.367319 13.2879 0.367319C13.8807 0.367319 14.4595 0.383473 15.0508 0.408133C16.8447 0.482934 18.6449 0.367319 20.438 0.367319C21.3419 0.367319 22.2616 0.414224 23.1494 0.291523C23.7952 0.20227 24.465 0.104947 25.1271 0.104947C25.6108 0.104947 26.0278 0.182036 26.4962 0.239048C26.8743 0.285068 27.261 0.246475 27.6417 0.274032C28.2433 0.317586 28.7899 0.36732 29.4001 0.36732L32.5814 0.36732C35.6603 0.36732 38.35 1.69451 41.5122 1.38766C42.3395 1.30738 43.1379 1.104 43.9731 1.06115C44.8371 1.01683 45.7193 1.04949 46.5861 1.04949C47.0531 1.04949 47.5098 0.974974 47.9618 0.901216L48.0179 0.892066C48.6623 0.787107 49.3814 0.787112 50.0448 0.787117L50.0582 0.787117C50.8631 0.787117 51.6635 0.892066 52.4654 0.892066C52.7534 0.892066 53.0354 0.868486 53.3155 0.82793C53.7535 0.764516 53.9788 0.493209 54.3536 0.343999C54.8672 0.139503 55.3056 0.157423 55.8928 0.157423C56.6794 0.157423 57.4018 0.453051 58.1657 0.35566C58.9459 0.256207 59.7551 0.411483 60.5461 0.419796C61.665 0.431553 62.7966 0.566995 63.9108 0.577219C64.7909 0.585296 65.6651 0.629694 66.5417 0.629694C66.9705 0.629694 67.3468 0.524745 67.7767 0.524745C68.3334 0.524745 68.815 0.682169 69.3606 0.682169C69.8363 0.682169 70.2902 0.702785 70.7566 0.731728C71.0251 0.748392 71.2849 0.74517 71.5351 0.682169C71.9633 0.574392 72.3853 0.576353 72.8103 0.495593Z" fill="#DBD6C2" stroke="#191411" stroke-width="3" mask="url(#path-1-inside-1_1_28802)"/>
<path d="M26.341 28H21.7219V14.3574H25.2961C26.4224 14.3574 27.3013 14.5104 27.9328 14.8164C28.5643 15.1159 29.0461 15.5326 29.3781 16.0664C29.7102 16.5938 29.8762 17.2057 29.8762 17.9023C29.8762 19.2435 29.1828 20.2038 27.7961 20.7832C28.7922 20.972 29.5832 21.3822 30.1691 22.0137C30.7616 22.6452 31.0578 23.4004 31.0578 24.2793C31.0578 24.9759 30.8788 25.5977 30.5207 26.1445C30.1626 26.6914 29.6353 27.1374 28.9387 27.4824C28.2486 27.8275 27.3827 28 26.341 28ZM25.3547 16.0957H23.675V20.1973H24.9738C26.0155 20.1973 26.7544 19.9987 27.1906 19.6016C27.6333 19.2044 27.8547 18.6901 27.8547 18.0586C27.8547 16.75 27.0214 16.0957 25.3547 16.0957ZM25.5012 21.9355H23.675V26.2617H25.5988C26.6665 26.2617 27.3892 26.1803 27.7668 26.0176C28.1509 25.8483 28.4569 25.5879 28.6848 25.2363C28.9191 24.8848 29.0363 24.5072 29.0363 24.1035C29.0363 23.6868 28.9126 23.306 28.6652 22.9609C28.4243 22.6159 28.0793 22.3587 27.6301 22.1895C27.1809 22.0202 26.4712 21.9355 25.5012 21.9355ZM38.1918 22.5996V26.418C38.1918 26.724 38.296 26.877 38.5043 26.877C38.7191 26.877 39.0544 26.7174 39.5102 26.3984V27.4824C39.1065 27.7428 38.781 27.9186 38.5336 28.0098C38.2927 28.1074 38.0388 28.1562 37.7719 28.1562C37.0102 28.1562 36.5609 27.8568 36.4242 27.2578C35.669 27.8438 34.865 28.1367 34.0121 28.1367C33.3871 28.1367 32.8663 27.9316 32.4496 27.5215C32.0329 27.1048 31.8246 26.584 31.8246 25.959C31.8246 25.3926 32.0264 24.888 32.4301 24.4453C32.8402 23.9961 33.4197 23.6413 34.1684 23.3809L36.4437 22.5996V22.1211C36.4437 21.0404 35.9034 20.5 34.8227 20.5C33.8526 20.5 32.9086 21.0013 31.9906 22.0039V20.0605C32.6807 19.2467 33.6736 18.8398 34.9691 18.8398C35.9392 18.8398 36.7172 19.0938 37.3031 19.6016C37.4984 19.7643 37.6742 19.9824 37.8305 20.2559C37.9867 20.5228 38.0844 20.793 38.1234 21.0664C38.169 21.3333 38.1918 21.8444 38.1918 22.5996ZM36.4437 26.2227V23.5566L35.2523 24.0156C34.6469 24.2565 34.2172 24.5007 33.9633 24.748C33.7159 24.9889 33.5922 25.2917 33.5922 25.6562C33.5922 26.0273 33.7094 26.3301 33.9437 26.5645C34.1846 26.7988 34.4939 26.916 34.8715 26.916C35.4379 26.916 35.962 26.6849 36.4437 26.2227ZM47.6207 25.9004V27.6582C46.7288 27.9902 45.8564 28.1562 45.0035 28.1562C43.5973 28.1562 42.4742 27.7396 41.6344 26.9062C40.801 26.0729 40.3844 24.9564 40.3844 23.5566C40.3844 22.1439 40.7913 21.0046 41.6051 20.1387C42.4189 19.2728 43.4898 18.8398 44.818 18.8398C45.2802 18.8398 45.6936 18.8854 46.0582 18.9766C46.4293 19.0612 46.885 19.224 47.4254 19.4648V21.3594C46.527 20.7865 45.6936 20.5 44.9254 20.5C44.1246 20.5 43.4671 20.7832 42.9527 21.3496C42.4384 21.9095 42.1812 22.6257 42.1812 23.498C42.1812 24.416 42.4579 25.1452 43.0113 25.6855C43.5712 26.2259 44.3232 26.4961 45.2672 26.4961C45.9508 26.4961 46.7353 26.2975 47.6207 25.9004ZM55.2918 19.0156H57.4109L53.573 23.4199L58.1922 28H55.8094L51.3074 23.4199L55.2918 19.0156ZM49.452 14.3574H51.2293V28H49.452V14.3574Z" fill="#191411"/>
</svg>
