<svg width="200" height="93" viewBox="0 0 200 93" fill="none" xmlns="http://www.w3.org/2000/svg">
<mask id="path-1-inside-1_1_36977" fill="white">
<path d="M189.118 1.09738C190.13 0.933322 191.702 0.732513 192.655 0.424714C192.8 0.377714 192.948 0.33796 193.099 0.316928L194.884 0.0691594C195.211 0.0237595 195.561 0.034551 195.83 0.226401C196.2 0.490714 196.238 0.817413 196.428 1.2394C196.917 2.32624 196.788 3.42642 196.951 4.53155C197.452 7.92532 197.518 11.3091 198.357 14.692C199.167 17.9603 199.566 21.2315 199.566 24.5298C199.566 31.1979 200.129 37.8496 199.972 44.5215C199.913 47.0506 199.773 49.595 199.473 52.1193C199.234 54.1217 198.646 56.0904 198.287 58.0839C197.965 59.8718 198.075 61.6928 198.113 63.4869C198.159 65.6993 198.603 67.8898 198.81 70.097C199.001 72.1386 198.938 74.186 198.938 76.2295C198.938 78.9401 198.891 81.648 199.101 84.3566C199.251 86.2975 199.975 88.2597 199.763 90.205C199.656 91.1898 198.097 91.0384 196.776 91.3282C195.464 91.6161 194.444 91.585 193.092 91.3863C191.711 91.1832 190.718 91.358 189.315 91.4186C186.572 91.5369 183.646 91.4407 180.948 91.1862C179.24 91.0251 177.675 90.9931 175.927 90.9796C174.57 90.9691 173.254 90.8089 171.883 90.8699C170.806 90.9177 170.124 91.4343 168.977 91.4444C168.189 91.4513 167.34 91.4873 166.56 91.4186C165.991 91.3684 165.532 91.1632 164.968 91.1087C164.451 91.0588 164.318 91.2574 163.875 91.3153C163.31 91.3892 162.603 91.3282 162.027 91.3282C160.237 91.3282 158.469 91.0442 156.693 91.1022C155.042 91.1562 153.626 91.5534 151.94 91.5606C149.423 91.5712 146.74 91.8285 144.246 91.6187C142.614 91.4813 140.872 91.7145 139.272 91.4831C138.14 91.3193 137.21 91.1041 136.018 91.0958C135.36 91.0912 134.73 91.091 134.077 91.0377C130.469 90.743 126.815 90.9796 123.199 90.9796C121.716 90.9796 120.522 90.7537 119.074 90.6568C117.425 90.5465 115.678 90.631 114.018 90.631C112.59 90.631 111.157 90.6102 109.73 90.631C108.543 90.6484 107.35 90.9297 106.139 90.9731C104.065 91.0474 101.999 90.9976 99.9211 91.0958C98.2736 91.1737 96.6996 91.4991 95.04 91.5864C90.2684 91.8375 85.3294 91.882 80.5361 91.9091C77.7746 91.9248 75.0114 91.9091 72.2498 91.9091C68.8437 91.9091 65.5755 91.4669 62.1738 91.4444C57.7636 91.4152 53.3784 90.9796 48.9483 90.9796C44.9737 90.9796 41.1748 90.7915 37.1871 91.0958C34.1255 91.3295 30.9709 91.7716 27.8897 91.7929C23.52 91.8233 18.9548 92.335 14.6875 92.8387C13.7366 92.9509 12.1222 93.1205 11.1893 92.871C10.2984 92.6327 10.0621 92.0253 8.99284 92.0253C7.83744 92.0253 6.8598 92.2752 5.73876 92.3997C5.32731 92.4455 3.61469 93.0859 3.44927 92.9226C2.99372 92.4728 2.7895 91.7411 2.67063 91.2249C2.5689 90.7831 2.45616 90.0147 1.67115 89.7531C1.44384 89.6773 1.15638 89.7539 0.950617 89.6886C0.486338 89.5412 0.522212 87.956 0.462489 87.6616C0.310618 86.9129 0.394175 86.1085 0.532237 85.3636C0.986659 82.9117 0.996013 80.4386 1.2644 77.9788C1.41333 76.614 1.64952 75.2825 1.67115 73.912C1.68803 72.8439 1.89665 71.7786 1.88035 70.7103C1.87298 70.2273 1.45805 69.8943 1.27603 69.4321C0.618557 67.7627 0.846813 65.9111 0.671688 64.2034C0.510998 62.6365 0.425412 61.0808 0.113858 59.5234C-0.251285 57.698 0.374997 55.8917 0.416028 54.0688C0.448636 52.6199 0.316296 51.0884 0.846021 49.6663C1.29553 48.4595 1.35881 47.2393 1.83386 46.0256C2.00087 45.5989 2.25836 45.0242 2.07792 44.5732C1.91575 44.1678 1.53869 43.7422 1.369 43.3208C1.06656 42.5698 1.16102 41.8529 1.03196 41.1003C0.837507 39.9661 0.834409 38.8337 0.834409 37.6855C0.83441 36.3486 0.416029 35.0471 0.416029 33.7349C0.416029 31.6052 0.83441 29.4907 0.83441 27.37C0.83441 25.9452 1.25279 24.6053 1.25279 23.1742L1.25279 18.6813C1.25279 17.3919 2.33545 16.1139 1.77576 14.8082C1.50545 14.1776 1.67116 13.457 1.67116 12.82C1.67116 12.1195 1.46197 11.4258 1.46197 10.735C1.46197 9.03852 0.879699 7.25595 1.56657 5.57729C1.95608 4.62533 1.8745 3.63772 2.10117 2.67245C2.1425 2.49646 2.79657 0.89455 3.06577 0.83917C4.16463 0.613114 6.4942 0.730826 7.7377 0.83917C10.2081 1.05441 12.6347 0.813349 15.1059 0.813349C16.4758 0.813349 17.8671 0.998875 19.2316 0.923088C20.3512 0.8609 21.1732 0.362299 22.3346 0.348575C24.902 0.318233 27.3977 0.580962 29.9584 0.580962C31.5094 0.580963 32.9523 0.81335 34.5141 0.81335C36.0537 0.81335 37.5571 0.84912 39.0931 0.903723C43.7524 1.06935 48.4284 0.81335 53.0856 0.81335C55.4334 0.813351 57.8224 0.917212 60.1284 0.645515L60.3654 0.617543C61.9693 0.428095 63.6263 0.232383 65.2652 0.232383C66.5216 0.232383 67.6048 0.403081 68.8214 0.529322C69.8034 0.631223 70.8078 0.545766 71.7966 0.606785C73.3592 0.703226 74.7791 0.813351 76.3639 0.813351L84.6269 0.813352C92.6241 0.813352 99.6104 3.75213 107.824 3.07267C109.973 2.89492 112.047 2.44456 114.216 2.34969C116.46 2.25154 118.751 2.32387 121.003 2.32387C122.216 2.32387 123.402 2.15887 124.576 1.99555L124.722 1.97529C126.396 1.74288 128.263 1.74289 129.986 1.7429L130.021 1.7429C132.112 1.7429 134.191 1.97529 136.274 1.97529C137.022 1.97529 137.754 1.92308 138.482 1.83327C139.62 1.69286 140.205 1.09211 141.178 0.761712C142.512 0.3089 143.651 0.348579 145.176 0.348579C147.219 0.348579 149.095 1.00318 151.08 0.787533C153.106 0.567315 155.208 0.911142 157.263 0.929548C160.169 0.955583 163.108 1.25549 166.002 1.27813C168.288 1.29601 170.559 1.39432 172.836 1.39432C173.949 1.39432 174.927 1.16194 176.043 1.16194C177.489 1.16194 178.74 1.51052 180.157 1.51052C181.393 1.51052 182.572 1.55617 183.783 1.62025C184.481 1.65715 185.155 1.65002 185.806 1.51052C186.918 1.27187 188.014 1.27621 189.118 1.09738Z"/>
</mask>
<path d="M189.118 1.09738C190.13 0.933322 191.702 0.732513 192.655 0.424714C192.8 0.377714 192.948 0.33796 193.099 0.316928L194.884 0.0691594C195.211 0.0237595 195.561 0.034551 195.83 0.226401C196.2 0.490714 196.238 0.817413 196.428 1.2394C196.917 2.32624 196.788 3.42642 196.951 4.53155C197.452 7.92532 197.518 11.3091 198.357 14.692C199.167 17.9603 199.566 21.2315 199.566 24.5298C199.566 31.1979 200.129 37.8496 199.972 44.5215C199.913 47.0506 199.773 49.595 199.473 52.1193C199.234 54.1217 198.646 56.0904 198.287 58.0839C197.965 59.8718 198.075 61.6928 198.113 63.4869C198.159 65.6993 198.603 67.8898 198.81 70.097C199.001 72.1386 198.938 74.186 198.938 76.2295C198.938 78.9401 198.891 81.648 199.101 84.3566C199.251 86.2975 199.975 88.2597 199.763 90.205C199.656 91.1898 198.097 91.0384 196.776 91.3282C195.464 91.6161 194.444 91.585 193.092 91.3863C191.711 91.1832 190.718 91.358 189.315 91.4186C186.572 91.5369 183.646 91.4407 180.948 91.1862C179.24 91.0251 177.675 90.9931 175.927 90.9796C174.57 90.9691 173.254 90.8089 171.883 90.8699C170.806 90.9177 170.124 91.4343 168.977 91.4444C168.189 91.4513 167.34 91.4873 166.56 91.4186C165.991 91.3684 165.532 91.1632 164.968 91.1087C164.451 91.0588 164.318 91.2574 163.875 91.3153C163.31 91.3892 162.603 91.3282 162.027 91.3282C160.237 91.3282 158.469 91.0442 156.693 91.1022C155.042 91.1562 153.626 91.5534 151.94 91.5606C149.423 91.5712 146.74 91.8285 144.246 91.6187C142.614 91.4813 140.872 91.7145 139.272 91.4831C138.14 91.3193 137.21 91.1041 136.018 91.0958C135.36 91.0912 134.73 91.091 134.077 91.0377C130.469 90.743 126.815 90.9796 123.199 90.9796C121.716 90.9796 120.522 90.7537 119.074 90.6568C117.425 90.5465 115.678 90.631 114.018 90.631C112.59 90.631 111.157 90.6102 109.73 90.631C108.543 90.6484 107.35 90.9297 106.139 90.9731C104.065 91.0474 101.999 90.9976 99.9211 91.0958C98.2736 91.1737 96.6996 91.4991 95.04 91.5864C90.2684 91.8375 85.3294 91.882 80.5361 91.9091C77.7746 91.9248 75.0114 91.9091 72.2498 91.9091C68.8437 91.9091 65.5755 91.4669 62.1738 91.4444C57.7636 91.4152 53.3784 90.9796 48.9483 90.9796C44.9737 90.9796 41.1748 90.7915 37.1871 91.0958C34.1255 91.3295 30.9709 91.7716 27.8897 91.7929C23.52 91.8233 18.9548 92.335 14.6875 92.8387C13.7366 92.9509 12.1222 93.1205 11.1893 92.871C10.2984 92.6327 10.0621 92.0253 8.99284 92.0253C7.83744 92.0253 6.8598 92.2752 5.73876 92.3997C5.32731 92.4455 3.61469 93.0859 3.44927 92.9226C2.99372 92.4728 2.7895 91.7411 2.67063 91.2249C2.5689 90.7831 2.45616 90.0147 1.67115 89.7531C1.44384 89.6773 1.15638 89.7539 0.950617 89.6886C0.486338 89.5412 0.522212 87.956 0.462489 87.6616C0.310618 86.9129 0.394175 86.1085 0.532237 85.3636C0.986659 82.9117 0.996013 80.4386 1.2644 77.9788C1.41333 76.614 1.64952 75.2825 1.67115 73.912C1.68803 72.8439 1.89665 71.7786 1.88035 70.7103C1.87298 70.2273 1.45805 69.8943 1.27603 69.4321C0.618557 67.7627 0.846813 65.9111 0.671688 64.2034C0.510998 62.6365 0.425412 61.0808 0.113858 59.5234C-0.251285 57.698 0.374997 55.8917 0.416028 54.0688C0.448636 52.6199 0.316296 51.0884 0.846021 49.6663C1.29553 48.4595 1.35881 47.2393 1.83386 46.0256C2.00087 45.5989 2.25836 45.0242 2.07792 44.5732C1.91575 44.1678 1.53869 43.7422 1.369 43.3208C1.06656 42.5698 1.16102 41.8529 1.03196 41.1003C0.837507 39.9661 0.834409 38.8337 0.834409 37.6855C0.83441 36.3486 0.416029 35.0471 0.416029 33.7349C0.416029 31.6052 0.83441 29.4907 0.83441 27.37C0.83441 25.9452 1.25279 24.6053 1.25279 23.1742L1.25279 18.6813C1.25279 17.3919 2.33545 16.1139 1.77576 14.8082C1.50545 14.1776 1.67116 13.457 1.67116 12.82C1.67116 12.1195 1.46197 11.4258 1.46197 10.735C1.46197 9.03852 0.879699 7.25595 1.56657 5.57729C1.95608 4.62533 1.8745 3.63772 2.10117 2.67245C2.1425 2.49646 2.79657 0.89455 3.06577 0.83917C4.16463 0.613114 6.4942 0.730826 7.7377 0.83917C10.2081 1.05441 12.6347 0.813349 15.1059 0.813349C16.4758 0.813349 17.8671 0.998875 19.2316 0.923088C20.3512 0.8609 21.1732 0.362299 22.3346 0.348575C24.902 0.318233 27.3977 0.580962 29.9584 0.580962C31.5094 0.580963 32.9523 0.81335 34.5141 0.81335C36.0537 0.81335 37.5571 0.84912 39.0931 0.903723C43.7524 1.06935 48.4284 0.81335 53.0856 0.81335C55.4334 0.813351 57.8224 0.917212 60.1284 0.645515L60.3654 0.617543C61.9693 0.428095 63.6263 0.232383 65.2652 0.232383C66.5216 0.232383 67.6048 0.403081 68.8214 0.529322C69.8034 0.631223 70.8078 0.545766 71.7966 0.606785C73.3592 0.703226 74.7791 0.813351 76.3639 0.813351L84.6269 0.813352C92.6241 0.813352 99.6104 3.75213 107.824 3.07267C109.973 2.89492 112.047 2.44456 114.216 2.34969C116.46 2.25154 118.751 2.32387 121.003 2.32387C122.216 2.32387 123.402 2.15887 124.576 1.99555L124.722 1.97529C126.396 1.74288 128.263 1.74289 129.986 1.7429L130.021 1.7429C132.112 1.7429 134.191 1.97529 136.274 1.97529C137.022 1.97529 137.754 1.92308 138.482 1.83327C139.62 1.69286 140.205 1.09211 141.178 0.761712C142.512 0.3089 143.651 0.348579 145.176 0.348579C147.219 0.348579 149.095 1.00318 151.08 0.787533C153.106 0.567315 155.208 0.911142 157.263 0.929548C160.169 0.955583 163.108 1.25549 166.002 1.27813C168.288 1.29601 170.559 1.39432 172.836 1.39432C173.949 1.39432 174.927 1.16194 176.043 1.16194C177.489 1.16194 178.74 1.51052 180.157 1.51052C181.393 1.51052 182.572 1.55617 183.783 1.62025C184.481 1.65715 185.155 1.65002 185.806 1.51052C186.918 1.27187 188.014 1.27621 189.118 1.09738Z" fill="#DBD6C2" stroke="#191411" stroke-width="3" mask="url(#path-1-inside-1_1_36977)"/>
</svg>
