<svg width="26" height="29" viewBox="0 0 26 29" fill="none" xmlns="http://www.w3.org/2000/svg">
<path d="M7.07159 0.482422L6.80818 3.006L3.26816 3.59593C3.26816 3.59593 2.62037 12.1389 0.41626 26.4611C0.41626 26.4611 6.86194 28.0724 18.5356 28.7142C18.5356 28.7142 24.433 25.3686 25.7017 25.2621C25.7017 25.2621 25.2447 10.574 25.0324 3.75706C25.0324 3.75706 17.6379 1.35912 7.07159 0.482422Z" fill="#8A644F"/>
<path d="M13.2028 2.84478C13.2028 3.13702 12.9259 3.37462 12.5845 3.37462C12.2432 3.37462 11.9663 3.13702 11.9663 2.84478C11.9663 2.55255 12.2432 2.31494 12.5845 2.31494C12.9259 2.31494 13.2028 2.55255 13.2028 2.84478Z" fill="#372825"/>
<path d="M11.4825 2.41879C11.453 2.52804 11.4422 2.67006 11.4825 2.83939C11.5121 2.95683 11.6089 3.04695 11.7271 3.07153C12.0524 3.13708 12.7217 3.24906 12.8749 3.11796C13.0765 2.94044 13.0469 2.66459 12.8749 2.56081C12.7539 2.48707 12.2002 2.30681 11.8777 2.20576C11.711 2.15387 11.5282 2.24673 11.4798 2.41879H11.4825Z" fill="#191411"/>
<path d="M17.5062 3.44293C17.5062 3.73516 17.2294 3.97277 16.888 3.97277C16.5466 3.97277 16.2698 3.73516 16.2698 3.44293C16.2698 3.15069 16.5466 2.91309 16.888 2.91309C17.2294 2.91309 17.5062 3.15069 17.5062 3.44293Z" fill="#372825"/>
<path d="M15.7834 3.01694C15.7539 3.12618 15.7431 3.2682 15.7834 3.43753C15.813 3.55497 15.9098 3.6451 16.028 3.66968C16.3533 3.73523 17.0226 3.8472 17.1758 3.71611C17.3774 3.53858 17.3478 3.26274 17.1758 3.15895C17.0548 3.08521 16.5011 2.90496 16.1786 2.80391C16.0119 2.75201 15.8291 2.84487 15.7808 3.01694H15.7834Z" fill="#191411"/>
<path d="M7.07125 0.482422C7.07125 0.482422 11.4069 3.03877 12.8745 4.64195L3.26782 3.59593L6.80784 3.006L7.07125 0.482422Z" fill="#4D2E2E"/>
<path d="M25.032 3.75687L18.1643 3.62305L20.0405 5.42014L18.5352 28.7141C18.5352 28.7141 24.4326 25.3684 25.7013 25.2619C25.7013 25.2619 25.2443 10.5738 25.032 3.75687Z" fill="#B18E7C"/>
<path d="M19.9527 6.76416L18.5334 28.7144C18.5334 28.7144 24.4308 25.3687 25.6995 25.2622C25.6995 25.2622 25.4629 17.6478 25.2506 10.839C23.9066 9.96506 20.4499 7.11102 19.9527 6.76416Z" fill="#856759"/>
<path d="M20.0408 5.42041L18.5355 28.7143L20.3472 20.9306L20.0408 5.42041Z" fill="#5D3E2E"/>
<path d="M20.3478 20.9307L18.5334 28.7144C18.5334 28.7144 24.4308 25.3688 25.6995 25.2623L20.3478 20.9334V20.9307Z" fill="#AB8570"/>
<path d="M20.3478 20.9307L18.5334 28.7144C18.5334 28.7144 19.8398 27.9743 21.3558 27.1768L20.3478 20.9307Z" fill="#8A685B"/>
<path d="M7.07128 0.482422L9.39635 2.91314L6.80786 3.006L7.07128 0.482422Z" fill="#A67F6A"/>
<path d="M9.39632 2.91309H9.38288L6.80784 3.00594L3.26782 3.59587L9.39632 4.26227V2.91309Z" fill="#805740"/>
<path d="M17.998 5.42014H20.0409L18.1647 3.62305L17.998 5.42014Z" fill="#805740"/>
<path d="M18.5356 28.714L20.0409 5.42011L3.26816 3.5957C3.26816 3.5957 1.93763 12.1387 0.41626 26.4608C0.41626 26.4608 6.86193 28.0722 18.5356 28.714Z" fill="#D4AD8E"/>
<g style="mix-blend-mode:screen" opacity="0.12">
<path d="M5.04731 13.3623C6.81328 13.1602 8.57657 12.9472 10.3452 12.7642C13.2186 12.4692 16.0947 12.1988 18.9708 11.9558L19.3579 5.7943L3.64689 4.03271C3.64689 4.03271 3.12274 7.4958 2.36743 13.6928C3.25176 13.5507 4.14685 13.4661 5.04731 13.365V13.3623Z" fill="#D4AD8E"/>
</g>
<g style="mix-blend-mode:multiply" opacity="0.32">
<path d="M1.66394 19.9092C1.33064 22.7523 1.35483 22.4164 0.97583 26.1034C0.97583 26.1034 7.01294 27.6574 17.9502 28.2801L18.0335 25.8358C17.5282 25.6555 6.20924 22.9462 1.66663 19.9119L1.66394 19.9092Z" fill="#D4AD8E"/>
</g>
<path d="M8.30798 5.86529C8.30798 6.15752 8.03113 6.39513 7.68976 6.39513C7.34839 6.39513 7.07153 6.15752 7.07153 5.86529C7.07153 5.57306 7.34839 5.33545 7.68976 5.33545C8.03113 5.33545 8.30798 5.57306 8.30798 5.86529Z" fill="#372825"/>
<path d="M15.38 6.6817C15.38 6.97393 15.1031 7.21154 14.7618 7.21154C14.4204 7.21154 14.1436 6.97393 14.1436 6.6817C14.1436 6.38946 14.4204 6.15186 14.7618 6.15186C15.1031 6.15186 15.38 6.38946 15.38 6.6817Z" fill="#372825"/>
<path d="M7.31605 5.69619C7.31605 5.69619 7.19509 7.22017 7.45851 10.6423C7.67086 13.4035 7.79719 15.2388 8.43154 17.5657C8.84817 19.0924 9.81583 19.9036 11.3721 19.767C12.9392 19.6332 14.044 17.6477 14.4471 15.3453C14.9767 12.3247 15.1406 8.66221 15.0197 6.92247L14.3584 6.54831C14.3584 6.54831 14.3692 13.0375 13.5144 16.1537C12.5978 19.4885 10.762 19.4093 9.76207 18.538C9.01483 17.8853 8.46649 14.4031 8.22457 11.3633C7.9961 8.512 8.10093 5.99388 8.10093 5.99388C8.10093 5.99388 8.13587 5.63884 7.31605 5.69073V5.69619Z" fill="#856759"/>
<path d="M14.8263 8.97342C14.8854 8.49274 14.9392 8.00932 14.9795 7.52864C14.9956 7.34839 15.0091 7.17086 15.0225 6.99061C15.0279 6.91687 15.0359 6.84039 15.044 6.76665C15.0494 6.70657 15.0951 6.38429 14.7806 6.31328C14.4177 6.23135 14.3586 6.46896 14.3075 6.62737C14.2753 6.72842 13.9823 9.28204 13.9124 9.74087C13.7834 10.5848 13.5845 11.7018 13.3022 12.9254C13.0845 13.8567 12.7109 15.0256 12.555 15.3452C12.5173 15.4244 12.4824 15.5063 12.4421 15.5855C11.3857 17.6612 9.14129 18.5024 8.12256 16.6042C7.68712 15.7931 7.52047 13.3514 7.61723 10.9071C7.70056 8.79589 7.92366 6.81035 7.98279 5.99101C7.99892 5.75067 7.97204 5.55403 7.73012 5.49667C7.27049 5.3847 7.25705 5.83807 7.2463 5.92819C7.0447 7.63516 6.53668 12.5294 6.9345 15.5282C7.4237 19.2043 11.8077 19.6495 13.3829 15.5282C13.4635 15.3179 13.5468 15.1048 13.614 14.8891C14.2403 12.8544 14.7537 9.58246 14.829 8.97888L14.8263 8.97342Z" fill="#191411"/>
</svg>
