<svg width="102" height="67" viewBox="0 0 102 67" fill="none" xmlns="http://www.w3.org/2000/svg">
<path d="M15.8294 17.6928C15.0428 19.3397 13.6171 20.7162 11.0115 20.7162C8.11098 20.7162 5.57915 18.3565 5.55457 15.4313C5.55457 12.5062 8.18473 10.1218 11.1099 10.1218C12.7076 10.1218 13.6663 10.5397 14.9199 11.3509L14.4775 13.047H14.3791C13.2976 11.3263 11.5278 10.0727 9.61043 10.4905C7.07859 11.0559 6.16909 14.0302 6.98026 16.6358C7.79143 19.2414 9.9054 20.5933 12.511 20.1755C13.8384 19.9788 14.9691 19.0939 15.7311 17.619L15.8294 17.6928Z" fill="#191411"/>
<path d="M10.9868 20.84C9.56112 20.84 8.16001 20.2746 7.10302 19.2668C6.02146 18.2344 5.43152 16.8824 5.43152 15.4322C5.43152 12.507 8.0371 10.0243 11.1097 9.99976H11.1343C12.7812 9.99976 13.7645 10.4422 14.9935 11.2534L15.0673 11.3025L14.5756 13.1707H14.3053L14.2561 13.1215C13.027 11.1796 11.3064 10.2456 9.61029 10.6143C8.67621 10.8109 7.91419 11.3763 7.42257 12.2366C6.73431 13.4411 6.58681 15.0634 7.07843 16.612C7.86503 19.1439 9.95441 20.4713 12.4863 20.078C13.8136 19.8813 14.8952 19.021 15.608 17.5953L15.6572 17.497L15.9768 17.6444L15.9276 17.7673C14.9444 19.8076 13.2974 20.84 10.9868 20.84ZM7.76671 11.3763C6.4885 12.3349 5.65274 13.8098 5.65274 15.4322C5.65274 16.8087 6.2181 18.1115 7.2505 19.0701C8.25833 20.0288 9.61029 20.5696 10.9622 20.5696C10.9622 20.5696 10.9622 20.5696 10.9868 20.5696C11.8963 20.5696 12.7075 20.3975 13.4203 20.0534C13.1254 20.1763 12.8304 20.25 12.5108 20.2992C9.8561 20.7171 7.66838 19.316 6.83262 16.6612C6.341 15.0634 6.48849 13.3428 7.20134 12.0891C7.37341 11.8433 7.57007 11.5975 7.76671 11.3763ZM10.4952 10.2947C12.1421 10.3685 13.5433 11.5729 14.4036 12.8757L14.7723 11.4255C13.617 10.6634 12.6583 10.2701 11.1097 10.2701C10.9131 10.2701 10.6918 10.2701 10.4952 10.2947Z" fill="#191411"/>
<path d="M25.5627 18.7998L25.2432 20.5942L19.2454 20.6188C19.2454 20.6188 19.2454 20.545 19.2454 20.5205C19.4666 20.3976 19.565 20.1763 19.565 19.6355L19.5404 11.2534C19.5404 10.7372 19.4421 10.516 19.2208 10.3931C19.2208 10.3685 19.2208 10.2702 19.2208 10.2702L24.7516 10.2456L25.0711 11.8925L24.9974 11.9417C24.3091 11.1797 23.3996 10.3685 21.7527 10.3685H20.7203V14.7193L24.432 14.3752V15.1372L20.6957 14.8422L20.7203 20.4959H21.9247C23.5471 20.4959 24.7761 19.6355 25.4644 18.7506L25.5627 18.7998Z" fill="#191411"/>
<path d="M19.0989 20.7424V20.4474L19.1481 20.4228C19.3201 20.3245 19.4185 20.1524 19.4185 19.6608L19.3939 11.2787C19.3939 10.7625 19.2956 10.615 19.1235 10.5167L19.0743 10.4921V10.1725L24.8263 10.1479L25.1704 11.9669L24.9492 12.139L24.8755 12.0407C24.1626 11.2541 23.3023 10.5167 21.7291 10.5167H20.8196V14.6217L24.5313 14.2776V15.31L20.795 15.015L20.8196 20.3982H21.9012C23.8431 20.3982 24.9492 19.1938 25.3425 18.7021L25.4162 18.6038L25.662 18.7759L25.3179 20.7424H25.2196H19.0989ZM19.4185 10.3938C19.5905 10.5658 19.6643 10.8362 19.6643 11.2541L19.6889 19.6362C19.6889 20.0541 19.6151 20.3245 19.4676 20.4966H20.6229L20.5984 14.7446V10.3938H19.4185ZM25.3916 19.0463C24.9984 19.5133 24.2363 20.2016 23.081 20.4966H25.1458L25.3916 19.0463ZM21.4587 14.7938L24.3101 15.015V14.5234L21.4587 14.7938ZM22.8106 10.3938C23.7201 10.615 24.3838 11.1312 24.8755 11.672L24.6296 10.3692L22.8106 10.3938Z" fill="#191411"/>
<path d="M36.8469 20.4719V20.5702H34.5609V20.4719C34.9542 20.0786 34.6346 19.5624 34.0447 18.53L32.4469 15.7769C32.2257 15.8015 32.0045 15.8015 31.7832 15.8015H30.4067V19.587C30.4067 20.1032 30.505 20.3244 30.7263 20.4473C30.7263 20.4719 30.7263 20.5456 30.7263 20.5456H28.9073C28.9073 20.5456 28.9073 20.4719 28.9073 20.4473C29.1285 20.3244 29.2268 20.1032 29.2268 19.5624L29.2022 11.1803C29.2022 10.6395 29.1039 10.4428 28.8827 10.3199C28.8827 10.2953 28.8827 10.197 28.8827 10.197H31.7587C34.0447 10.197 36.1095 11.0328 36.1341 12.9747C36.1341 14.3758 35.0279 15.2115 33.5531 15.5557L34.8805 17.8909C35.79 19.4395 36.2816 19.9557 36.8469 20.4719ZM35.0034 13.0238C35.0034 11.8685 34.6101 10.3445 31.8078 10.3691H30.4313L30.4559 15.7032H31.8324C34.6101 15.6786 35.0034 14.1546 35.0034 13.0238Z" fill="#191411"/>
<path d="M28.833 20.7171V20.4221L28.8822 20.3975C29.0543 20.2992 29.1526 20.1271 29.1526 19.6355L29.128 11.2534C29.128 10.7372 29.0297 10.5897 28.8576 10.4914L28.8085 10.4668V10.1472H31.8074H31.8319C33.0364 10.1472 34.1425 10.393 34.9046 10.8355C35.8141 11.3517 36.2811 12.1137 36.2811 13.0724C36.2811 14.3506 35.3716 15.3092 33.7738 15.7271L35.0275 17.9148C35.9124 19.4634 36.404 19.955 36.9202 20.4221L36.9694 20.4467V20.7171H34.4621V20.4467L34.4867 20.4221C34.7817 20.1271 34.5604 19.6847 33.9951 18.6768L32.4219 15.9483C32.2252 15.9729 32.0286 15.9729 31.8319 15.9729H30.5783V19.6601C30.5783 20.1763 30.6766 20.3238 30.8487 20.4221L30.8979 20.4467V20.7416L28.833 20.7171ZM29.128 10.3685C29.3001 10.5405 29.3738 10.7863 29.3738 11.2288L29.3984 19.6109C29.3984 20.0288 29.3247 20.2992 29.1772 20.4712H30.5537C30.3817 20.2992 30.3325 20.0288 30.3325 19.6109V15.7025L30.3079 10.3685H29.128ZM32.6185 15.7763L34.2163 18.5293C34.7571 19.4634 35.0766 20.0288 34.7571 20.4712H36.6498C36.1336 20.0042 35.6666 19.4634 34.8062 18.0131L33.4297 15.6042C33.1839 15.6534 32.9135 15.7271 32.6185 15.7763ZM30.5537 10.4914L30.5783 15.5796H31.8319C33.8967 15.5796 34.9046 14.7439 34.9046 13.0232C34.9046 12.2858 34.7325 11.745 34.3884 11.3271C33.8967 10.7617 33.0364 10.4668 31.8565 10.4668C31.8565 10.4668 31.8565 10.4668 31.8319 10.4668L30.5537 10.4914ZM35.1258 13.0232C35.1258 14.1785 34.7079 14.9651 33.8476 15.4076C34.7817 15.1372 36.0353 14.4981 36.0353 13.0232C36.0353 12.1629 35.6174 11.4746 34.7817 11.0076C34.4867 10.8355 34.1671 10.7126 33.7984 10.6143C34.0934 10.7617 34.3392 10.9584 34.5358 11.1796C34.9291 11.6221 35.1258 12.2366 35.1258 13.0232Z" fill="#191411"/>
<path d="M47.9566 11.9905L47.8583 12.0396C47.1946 11.2776 46.2605 10.3189 44.6136 10.3189H44.294L44.3186 19.5614C44.3186 20.0776 44.4415 20.2988 44.6627 20.4217C44.6627 20.4463 44.6627 20.5201 44.6627 20.5201H42.8192C42.8192 20.5201 42.8192 20.4463 42.8192 20.4217C43.0404 20.2988 43.1633 20.0776 43.1633 19.5614L43.1387 10.3189H42.8192C41.1722 10.3189 40.2627 11.3022 39.5991 12.0642L39.5007 12.015L39.9678 10.2206L47.465 10.196L47.9566 11.9905Z" fill="#191411"/>
<path d="M42.6966 20.6672V20.3723L42.7458 20.3477C42.9179 20.2494 43.0162 20.0773 43.0162 19.5857L42.9916 10.4661H42.7949C41.148 10.4661 40.2139 11.5231 39.6486 12.1622L39.5748 12.236L39.3044 12.1131L39.8206 10.122H39.919L47.5145 10.0974L48.0307 12.0885L47.7603 12.2114L47.6866 12.1376C47.1212 11.4985 46.1871 10.4661 44.5402 10.4661H44.4173L44.4419 19.5857C44.4419 20.0773 44.5648 20.2494 44.7368 20.3477L44.786 20.3723V20.6672H42.6966ZM43.262 10.3186L43.2866 19.5611C43.2866 19.979 43.2128 20.2494 43.0408 20.4214H44.4419C44.2698 20.2494 44.1961 19.979 44.1961 19.5611L44.1715 10.3186H43.262ZM40.0664 10.3432L39.6977 11.7689C40.2385 11.179 40.9022 10.589 41.8363 10.3432H40.0664ZM45.5972 10.3186C46.5313 10.5644 47.1949 11.1544 47.7357 11.7443L47.367 10.3186H45.5972Z" fill="#191411"/>
<path d="M52.7004 11.1795L52.725 19.5616C52.725 20.0778 52.8233 20.299 53.0691 20.4219C53.0691 20.4465 53.0691 20.5202 53.0691 20.5202H51.2255C51.2255 20.5202 51.2255 20.4465 51.2255 20.4219C51.4467 20.299 51.5451 20.0778 51.5451 19.537L51.5205 11.1549C51.5205 10.6387 51.4222 10.4174 51.2009 10.2945C51.2009 10.27 51.2009 10.1716 51.2009 10.1716H53.0445C53.0445 10.1716 53.0445 10.27 53.0445 10.2945C52.7987 10.442 52.7004 10.6633 52.7004 11.1795Z" fill="#191411"/>
<path d="M51.1025 20.6672V20.3723L51.1516 20.3477C51.3237 20.2494 51.422 20.0773 51.422 19.5857L51.3974 11.2036C51.3974 10.6874 51.2991 10.5399 51.127 10.4415L51.0779 10.417V10.0974H53.1427V10.417L53.0935 10.4415C52.9215 10.5399 52.8231 10.6874 52.8231 11.2036L52.8477 19.5857C52.8477 20.1019 52.946 20.2494 53.1181 20.3477L53.1919 20.3723V20.6672H51.1025ZM51.3974 10.3186C51.5695 10.4907 51.6433 10.7611 51.6433 11.179L51.6678 19.5611C51.6678 19.979 51.5941 20.2494 51.4466 20.4214H52.8231C52.6511 20.2494 52.5773 19.979 52.5773 19.5611L52.5527 11.179C52.5527 10.7365 52.6265 10.4907 52.7986 10.3186H51.3974Z" fill="#191411"/>
<path d="M62.6318 11.9662L62.558 12.0154C61.8943 11.2534 60.9603 10.2947 59.3133 10.2947H58.0843L58.1089 15.1372L61.501 14.8176V15.5796L58.1089 15.2601V19.5617C58.1089 20.0779 58.2072 20.2992 58.4284 20.4221C58.4284 20.4467 58.4284 20.5204 58.4284 20.5204H56.6094C56.6094 20.5204 56.6094 20.4467 56.6094 20.4221C56.8306 20.2992 56.929 20.0779 56.929 19.5372L56.9044 11.155C56.9044 10.6388 56.8061 10.4176 56.5848 10.2947C56.5848 10.2701 56.5848 10.1718 56.5848 10.1718L62.1647 10.1472L62.6318 11.9662Z" fill="#191411"/>
<path d="M56.4864 20.644V20.349L56.5355 20.3244C56.7076 20.2261 56.8059 20.054 56.8059 19.5624L56.7813 11.1803C56.7813 10.6641 56.683 10.5166 56.511 10.4183L56.4618 10.3937V10.0741L62.2383 10.0496L62.7545 12.0406L62.5087 12.1881L62.435 12.1144C61.8696 11.4753 60.9355 10.4429 59.2886 10.4429H58.1825V15.0149L61.5746 14.6954V15.7278H61.4517L58.1825 15.4328V19.587C58.1825 20.1032 58.2808 20.2507 58.4528 20.349L58.502 20.3736V20.6686L56.4864 20.644ZM56.7813 10.2954C56.9534 10.4674 57.0272 10.7378 57.0272 11.1557L57.0517 19.5378C57.0517 19.9557 56.978 20.2261 56.8305 20.3982H58.207C58.035 20.2261 57.9858 19.9557 57.9858 19.5378V15.1133L57.9612 10.2954H56.7813ZM58.7724 15.187L61.378 15.4328V14.9412L58.7724 15.187ZM60.2964 10.2954C61.2797 10.5658 61.9679 11.1803 62.4104 11.6965L62.0417 10.2954H60.2964Z" fill="#191411"/>
<path d="M67.3763 11.1306L67.4009 19.5127C67.4009 20.0289 67.4992 20.2502 67.745 20.3731C67.745 20.3977 67.745 20.4714 67.745 20.4714H65.9014C65.9014 20.4714 65.9014 20.3977 65.9014 20.3731C66.1227 20.2502 66.221 20.0289 66.221 19.5127L66.1964 11.1306C66.1964 10.6144 66.0981 10.3932 65.8768 10.2457C65.8768 10.2211 65.8768 10.1228 65.8768 10.1228H67.7204C67.7204 10.1228 67.7204 10.2211 67.7204 10.2457C67.4746 10.3932 67.3763 10.6144 67.3763 11.1306Z" fill="#191411"/>
<path d="M65.7774 20.6194V20.3244L65.8265 20.2998C65.9986 20.2015 66.0969 20.0295 66.0969 19.5378L66.0724 11.1557C66.0724 10.6395 65.974 10.492 65.802 10.3937L65.7528 10.3691V10.0496H67.8176V10.3691L67.7685 10.3937C67.5964 10.492 67.4981 10.6641 67.4981 11.1557L67.5226 19.5378C67.5226 20.054 67.621 20.2015 67.793 20.2998L67.8668 20.3244V20.6194H65.7774ZM66.0724 10.2708C66.2444 10.4429 66.3182 10.7132 66.3182 11.1311L66.3428 19.5132C66.3428 19.9311 66.269 20.2015 66.1215 20.3736H67.4981C67.326 20.2015 67.2523 19.9557 67.2523 19.5132L67.2277 11.1311C67.2277 10.6887 67.3014 10.4429 67.4735 10.2708H66.0724Z" fill="#191411"/>
<path d="M77.6015 18.676L77.282 20.4704L71.2842 20.495C71.2842 20.495 71.2842 20.4213 71.2842 20.3967C71.5054 20.2738 71.6038 20.0525 71.6038 19.5118L71.5792 11.1296C71.5792 10.6134 71.4809 10.3922 71.2596 10.2693C71.2596 10.2447 71.2596 10.1464 71.2596 10.1464L76.7904 10.1218L77.1099 11.7687L77.0362 11.8179C76.3479 11.0559 75.4384 10.2447 73.7915 10.2447H72.7591V14.5956L76.4708 14.2514V15.0134L72.7345 14.7185L72.7591 20.3721H73.9636C75.5859 20.3721 76.8149 19.5118 77.5032 18.6268L77.6015 18.676Z" fill="#191411"/>
<path d="M71.1612 20.5942V20.2992L71.2103 20.2746C71.3824 20.1763 71.4807 20.0042 71.4807 19.5126L71.4561 11.1305C71.4561 10.6143 71.3578 10.4668 71.1858 10.3685L71.1366 10.3439V10.0243L76.8885 9.99976L77.2327 11.8187L77.0114 11.9908L76.9377 11.8925C76.2249 11.1059 75.3645 10.3685 73.7913 10.3685H72.8818V14.4735L76.5936 14.1294V15.1618L72.8573 14.8668L72.8818 20.25H73.9634C75.9053 20.25 77.0115 19.0456 77.4048 18.5539L77.4785 18.4556L77.7243 18.6277L77.3802 20.5942H77.2818H71.1612ZM71.4561 10.2701C71.6282 10.4422 71.702 10.7126 71.702 11.1305L71.7265 19.5126C71.7265 19.9305 71.6528 20.2009 71.5053 20.3729H72.6606L72.636 14.621V10.2701H71.4561ZM77.4293 18.8981C77.036 19.3651 76.274 20.0534 75.1187 20.3484H77.1835L77.4293 18.8981ZM73.521 14.6701L76.3723 14.8914V14.3998L73.521 14.6701ZM74.8483 10.2456C75.7578 10.4668 76.4215 10.983 76.9131 11.5238L76.6673 10.221L74.8483 10.2456Z" fill="#191411"/>
<path d="M90.6297 15.2594C90.6297 18.1846 88.147 20.446 84.7056 20.446H81.0185C81.0185 20.446 81.0185 20.3723 81.0185 20.3477C81.2397 20.2248 81.338 20.0036 81.338 19.4628L81.3134 11.0807C81.3134 10.5645 81.2151 10.3432 80.9939 10.2203C80.9939 10.1957 80.9939 10.0974 80.9939 10.0974H84.681C88.0978 10.0974 90.6051 12.3589 90.6297 15.2594ZM89.4498 15.2594C89.4498 12.5309 87.6308 10.2203 84.681 10.2203H82.4688L82.4933 20.3477H84.7056C87.6554 20.3477 89.4498 17.9879 89.4498 15.2594Z" fill="#191411"/>
<path d="M80.8954 20.5696V20.2746L80.9446 20.25C81.1167 20.1517 81.215 19.9796 81.215 19.488L81.1904 11.1059C81.1904 10.5897 81.0921 10.4422 80.92 10.3439L80.8708 10.3193V9.99976H84.6809C84.6809 9.99976 84.6809 9.99976 84.7055 9.99976C88.1468 9.99976 90.7278 12.2612 90.7524 15.2847C90.7524 16.735 90.1379 18.0869 89.0317 19.0701C87.9256 20.0534 86.377 20.5942 84.7055 20.5942L80.8954 20.5696ZM81.1904 10.2456C81.3625 10.4176 81.4362 10.688 81.4362 11.1059L81.4608 19.488C81.4608 19.9059 81.3871 20.1763 81.2396 20.3484H82.3949L82.3703 10.2456H81.1904ZM82.5915 10.3439L82.6161 20.2254H84.7055C86.082 20.2254 87.2373 19.7092 88.0977 18.7506C88.8843 17.8411 89.3267 16.612 89.3267 15.2601C89.3267 12.04 86.9915 10.3439 84.6809 10.3439H82.5915ZM86.7949 10.5405C88.6139 11.4009 89.5725 13.3428 89.5725 15.2601C89.5725 16.6612 89.1301 17.964 88.2697 18.8981C87.8764 19.3651 87.3848 19.7092 86.8686 19.9796C87.6306 19.7338 88.2943 19.3405 88.8597 18.8489C89.9167 17.9148 90.482 16.6366 90.482 15.2601C90.482 13.0478 89.0072 11.2288 86.7949 10.5405Z" fill="#191411"/>
<path d="M94.2924 11.5969C93.8008 11.6461 93.4567 11.6952 93.2846 11.6952C93.4567 11.8181 93.6779 12.0394 94.0466 12.3835C94.3416 12.6539 94.2187 12.9489 94.0466 13.0718C93.8746 13.1947 93.555 13.2438 93.3829 12.8751C93.1617 12.4081 93.0142 12.1131 92.9651 11.941C92.8913 12.1377 92.7684 12.4081 92.5472 12.8997C92.3751 13.2684 92.0556 13.2438 91.8589 13.1209C91.6868 12.998 91.5639 12.7031 91.8589 12.4327C92.2276 12.0885 92.4734 11.8427 92.6209 11.7444C92.4243 11.7444 92.1047 11.6952 91.5885 11.6461C91.1952 11.5969 91.1215 11.3019 91.1952 11.0807C91.269 10.8841 91.5148 10.6628 91.8589 10.8595C92.3014 11.1053 92.5963 11.2528 92.7438 11.3757C92.6947 11.179 92.6209 10.8841 92.5226 10.3679C92.4489 9.97456 92.6947 9.80249 92.9405 9.80249C93.1617 9.80249 93.4321 9.97456 93.3583 10.3679C93.26 10.8595 93.1863 11.179 93.1371 11.3757C93.3092 11.2528 93.5796 11.1053 94.0466 10.8595C94.3908 10.6628 94.6366 10.8841 94.7103 11.0807C94.784 11.2528 94.7103 11.5477 94.2924 11.5969Z" fill="#191411"/>
<path d="M92.1537 13.3182C92.0308 13.3182 91.9079 13.269 91.8096 13.1953C91.6621 13.0969 91.5884 12.9249 91.5884 12.7774C91.5884 12.6545 91.6129 12.4824 91.8096 12.3104C92.0308 12.0891 92.2029 11.9171 92.3504 11.8187C92.252 11.8187 92.1046 11.7941 91.9571 11.7696L91.6129 11.7204C91.3426 11.6712 91.2196 11.5483 91.1459 11.45C91.0722 11.3271 91.0476 11.155 91.0967 10.983C91.1459 10.8109 91.2688 10.688 91.4163 10.6388C91.5146 10.5897 91.7113 10.5651 91.9325 10.688L92.2766 10.8846C92.3995 10.9584 92.4979 11.0076 92.5716 11.0567C92.5224 10.8847 92.4979 10.6634 92.4241 10.3439C92.375 10.0735 92.4487 9.92599 92.5224 9.82767C92.7191 9.58186 93.1861 9.58186 93.3828 9.82767C93.4565 9.92599 93.5303 10.0735 93.4811 10.3439C93.4319 10.6143 93.3828 10.8601 93.3336 11.0567C93.5057 10.9584 93.7023 10.8355 93.9727 10.688C94.1939 10.5651 94.3906 10.5897 94.4889 10.6388C94.6364 10.688 94.7593 10.8355 94.8085 10.983C94.8576 11.155 94.8331 11.3271 94.7593 11.4746C94.6856 11.5729 94.5627 11.6958 94.3169 11.745L94.0465 11.7696C93.8744 11.7941 93.7269 11.8187 93.5794 11.8187C93.7269 11.9416 93.899 12.1137 94.1202 12.3104C94.3169 12.4824 94.3414 12.6545 94.3414 12.7774C94.3414 12.9495 94.2431 13.0969 94.0956 13.1953C93.9727 13.2936 93.8006 13.3428 93.6532 13.2936C93.5303 13.269 93.3828 13.1707 93.2599 12.9495L93.2107 12.8511C93.1124 12.6053 93.0141 12.4333 92.9403 12.2858C92.9157 12.3595 92.8912 12.4333 92.842 12.507C92.7928 12.6299 92.7191 12.7774 92.6453 12.9495C92.5224 13.1953 92.3749 13.269 92.252 13.2936C92.2275 13.3182 92.1783 13.3182 92.1537 13.3182ZM92.9403 11.6467L92.6945 11.8187C92.5224 11.9416 92.2766 12.1874 91.9325 12.507C91.8342 12.6053 91.785 12.6791 91.785 12.7774C91.785 12.8757 91.8588 12.974 91.9079 12.9986C91.9817 13.0478 92.1046 13.0724 92.1783 13.0478C92.2766 13.0232 92.3504 12.9495 92.3995 12.8266C92.4733 12.6545 92.547 12.507 92.5962 12.3841C92.6945 12.1629 92.7683 12.0154 92.8174 11.8925L92.9403 11.6467ZM92.9895 11.6712L93.0632 11.9171C93.1124 12.0891 93.2353 12.3349 93.4319 12.7528L93.4811 12.8511C93.5303 12.974 93.6286 13.0478 93.7023 13.0724C93.7761 13.0969 93.8744 13.0724 93.9481 13.0232C94.0219 12.974 94.0956 12.8757 94.0956 12.802C94.0956 12.7036 94.0465 12.6299 93.9481 12.5316C93.5794 12.1874 93.3336 11.9662 93.1861 11.8433L92.9895 11.6712ZM93.0141 11.5975H93.2844C93.4319 11.5975 93.6777 11.5729 94.0219 11.5238L94.2923 11.4992C94.4152 11.4746 94.5135 11.4254 94.5627 11.3517C94.6118 11.278 94.6118 11.1796 94.5872 11.0813C94.5627 11.0076 94.4889 10.9338 94.4152 10.8846C94.3169 10.8601 94.2185 10.8601 94.0956 10.9338C93.6532 11.1796 93.3828 11.3271 93.2107 11.45L92.9649 11.5975H93.0141ZM91.5884 10.8601C91.5638 10.8601 91.5146 10.8601 91.49 10.8846C91.4163 10.9092 91.3425 10.983 91.318 11.0813C91.2934 11.1796 91.2934 11.278 91.3426 11.3517C91.3917 11.4254 91.49 11.4746 91.6129 11.4992L91.9571 11.5483C92.2766 11.5729 92.4733 11.5975 92.6208 11.5975H92.8912L92.6699 11.4254C92.547 11.3517 92.3749 11.2534 92.1291 11.1059L91.785 10.9092C91.7359 10.8846 91.6621 10.8601 91.5884 10.8601ZM92.9403 9.87683C92.842 9.87683 92.7437 9.92599 92.6945 9.97516C92.6454 10.0489 92.6208 10.1472 92.6453 10.2947C92.7191 10.7617 92.7928 11.0813 92.842 11.2779L92.9157 11.5483L92.9895 11.2779C93.0632 11.0567 93.137 10.7126 93.2107 10.2947C93.2353 10.1718 93.2107 10.0489 93.1615 9.97516C93.137 9.92599 93.0386 9.87683 92.9403 9.87683Z" fill="#191411"/>
<path d="M25.0717 26.5186L25.0963 34.9007C25.0963 35.4169 25.1946 35.6381 25.4158 35.761C25.4158 35.7856 25.4158 35.8594 25.4158 35.8594H23.5722C23.5722 35.8594 23.5722 35.7856 23.5722 35.761C23.8181 35.6381 23.9164 35.4169 23.9164 34.8761L23.8918 29.7878L18.7544 29.8124L18.7789 34.9007C18.7789 35.4169 18.8773 35.6381 19.0985 35.761C19.0985 35.7856 19.0985 35.8594 19.0985 35.8594H17.2549C17.2549 35.8594 17.2549 35.7856 17.2549 35.761C17.5007 35.6381 17.5991 35.4169 17.5991 34.8761L17.5745 26.494C17.5745 25.9778 17.4762 25.7566 17.2303 25.6336C17.2303 25.6091 17.2303 25.5107 17.2303 25.5107H19.0739C19.0739 25.5107 19.0739 25.6091 19.0739 25.6336C18.8527 25.7566 18.7544 25.9778 18.7544 26.5186V29.6895L23.8918 29.6649V26.494C23.8918 25.9778 23.7935 25.7566 23.5477 25.6336C23.5477 25.6091 23.5477 25.5107 23.5477 25.5107H25.3912C25.3912 25.5107 25.3912 25.6091 25.3912 25.6336C25.17 25.7811 25.0717 26.0024 25.0717 26.5186Z" fill="#191411"/>
<path d="M17.1563 36.0309V35.908C17.1563 35.908 17.1563 35.8343 17.1563 35.8097V35.736L17.23 35.7114C17.4021 35.6131 17.5004 35.4656 17.5004 34.9494L17.4759 26.5672C17.4759 26.051 17.3775 25.9036 17.2055 25.8052L17.1317 25.7807V25.4365H19.1965V25.7561L19.1474 25.7807C18.9753 25.879 18.877 26.051 18.877 26.5427V29.5907H23.7686V26.5427C23.7686 26.0265 23.6703 25.879 23.4982 25.7807L23.4244 25.7561V25.4365H25.4893V25.7561L25.4401 25.7807C25.268 25.879 25.1697 26.051 25.1697 26.5427L25.1943 34.9248C25.1943 35.441 25.2926 35.5885 25.4647 35.6868L25.5138 35.7114V35.7851C25.5138 35.8097 25.5138 35.8835 25.5138 35.8835V36.0064H23.449V35.8835C23.449 35.8835 23.449 35.8097 23.449 35.7851V35.7114L23.5228 35.6622C23.6948 35.5639 23.7932 35.4164 23.7932 34.9002L23.7686 29.9348H18.877V34.9002C18.877 35.4164 18.9753 35.5639 19.1474 35.6622L19.1965 35.6868V35.7605C19.1965 35.7851 19.1965 35.8589 19.1965 35.8589V35.9818L17.1563 36.0309ZM17.4513 25.6823C17.6233 25.8544 17.6971 26.1248 17.6971 26.5427L17.7217 34.9248C17.7217 35.3427 17.6479 35.6131 17.4759 35.7851H18.8524C18.6803 35.6131 18.6311 35.3427 18.6311 34.9248L18.6066 29.7136V26.5672C18.6066 26.1248 18.6803 25.879 18.8524 25.7069L17.4513 25.6823ZM24.039 29.8365L24.0636 34.9248C24.0636 35.3427 23.9898 35.6131 23.8178 35.7851H25.1943C25.0222 35.6131 24.9731 35.3427 24.9731 34.9248L24.9485 26.5427C24.9485 26.1002 25.0222 25.8544 25.1943 25.6823H23.7686C23.9407 25.8544 24.0144 26.1248 24.0144 26.5427L24.039 29.8365Z" fill="#191411"/>
<path d="M37.51 25.5103C37.51 25.5103 37.51 25.6086 37.51 25.6332C37.043 25.879 36.8955 26.6656 36.8955 27.2801L36.9201 32.3684C36.9201 34.4332 35.4698 35.9326 33.3804 35.9326C31.1681 35.9326 29.3245 34.7036 29.3245 32.0242L29.3 26.4935C29.3 25.9527 29.2016 25.7561 28.9558 25.6332C28.9558 25.6086 28.9558 25.5103 28.9558 25.5103H30.7994C30.7994 25.5103 30.7994 25.6086 30.7994 25.6332C30.5782 25.7561 30.4798 25.9773 30.4798 26.5181L30.5044 32.0488C30.5044 34.4823 31.7826 35.9572 33.9212 35.7851C35.7402 35.6376 36.8463 34.0399 36.8463 32.3929V27.4522C36.8463 26.641 36.453 25.7315 35.7402 25.6332C35.7402 25.6086 35.7402 25.5103 35.7402 25.5103H37.51Z" fill="#191411"/>
<path d="M33.356 36.0555C31.3403 36.0555 29.2018 34.9985 29.1772 32.0242L29.1526 26.4935C29.1526 25.9773 29.0543 25.8298 28.8822 25.7315L28.8085 25.7069V25.3874H30.8733V25.7069L30.8241 25.7315C30.6521 25.8298 30.5537 26.0019 30.5537 26.4935L30.5783 32.0242C30.5783 33.327 30.947 34.3349 31.6353 34.974C32.2007 35.4902 32.9627 35.7114 33.8722 35.6377C35.6911 35.4902 36.6744 33.8432 36.6744 32.3684V27.4276C36.6744 26.6656 36.3303 25.8298 35.6666 25.7315L35.5682 25.7069V25.3628H37.6331V25.6823L37.5593 25.7069C37.0431 25.9773 37.0185 26.9606 37.0185 27.2555L37.0431 32.3438C37.0431 33.3762 36.6744 34.3103 36.0353 34.974C35.3224 35.6868 34.3884 36.0555 33.356 36.0555ZM29.1526 25.6332C29.3247 25.8052 29.3984 26.0511 29.3984 26.4935L29.423 32.0242C29.423 34.4086 30.8979 35.4902 32.5202 35.736C32.1269 35.6131 31.7828 35.4164 31.4632 35.146C30.7258 34.4823 30.3325 33.4008 30.3325 32.0242L30.3079 26.4935C30.3079 26.0511 30.3817 25.8052 30.5537 25.6332H29.1526ZM36.0599 25.6332C36.4286 25.8298 36.6744 26.2477 36.7973 26.6902C36.8465 26.2969 36.994 25.879 37.2643 25.6086L36.0599 25.6332Z" fill="#191411"/>
<path d="M51.693 26.4446L51.7175 34.8267C51.7175 35.3429 51.8159 35.5641 52.0617 35.6871C52.0617 35.7116 52.0617 35.7854 52.0617 35.7854H50.2181C50.2181 35.7854 50.2181 35.7116 50.2181 35.6871C50.4393 35.5641 50.5622 35.3429 50.5622 34.8021L50.5377 25.8792L46.4818 32.9585H46.3589L42.1064 26.5183L42.131 34.0155C42.131 34.6547 42.5734 35.4412 43.065 35.6871C43.065 35.7116 43.065 35.7854 43.065 35.7854H41.074C41.074 35.7854 41.074 35.7116 41.074 35.6871C41.5656 35.4412 42.008 34.6547 42.008 34.0155L41.9835 26.3708L41.3198 25.4613H42.6472L46.8997 31.9999L50.6606 25.4368H52.0371C52.0371 25.4368 52.0371 25.5351 52.0371 25.5597C51.7913 25.7072 51.693 25.9284 51.693 26.4446Z" fill="#191411"/>
<path d="M40.951 35.9579V35.835C40.951 35.835 40.951 35.7612 40.951 35.7366V35.6629L41.0248 35.6383C41.4672 35.4171 41.8851 34.6551 41.8851 34.0651L41.8605 26.445L41.074 25.3635H42.7209L42.77 25.4126L46.9242 31.7791L50.6114 25.3389H52.1846V25.6584L52.1354 25.683C51.9633 25.7813 51.865 25.9288 51.865 26.445L51.8896 34.8271C51.8896 35.3433 51.9879 35.4908 52.16 35.5892L52.2091 35.6137V35.6875C52.2091 35.7121 52.2091 35.7858 52.2091 35.7858V35.9087H50.1443V35.7858C50.1443 35.7858 50.1443 35.7121 50.1443 35.6875V35.6137L50.2181 35.5646C50.3901 35.4663 50.4885 35.2942 50.4885 34.8026L50.4639 26.3221L46.6047 33.0573H46.3343L46.3097 33.0081L42.303 26.9121L42.3276 34.016C42.3276 34.6059 42.7455 35.3433 43.1879 35.5646L43.2617 35.5892V35.6629C43.2617 35.6875 43.2617 35.7612 43.2617 35.7612V35.8841L40.951 35.9579ZM42.0572 34.5076C41.9343 34.9746 41.6639 35.4417 41.3198 35.7121H42.7946C42.4751 35.4417 42.1801 34.9746 42.0572 34.5076ZM50.6605 25.7076V25.9042L50.6851 34.8271C50.6851 35.245 50.6114 35.5154 50.4393 35.6875H51.8158C51.6438 35.5154 51.57 35.245 51.57 34.8271L51.5455 26.445C51.5455 26.0026 51.6192 25.7567 51.7913 25.5847H50.7097L50.6605 25.7076ZM41.9834 26.1501L42.2047 26.4942L46.408 32.8607L46.8259 32.1232L46.8013 32.0741L42.5734 25.5847H41.541L41.9589 26.1746V26.1501H41.9834Z" fill="#191411"/>
<path d="M64.0571 35.7851H61.7711V35.6868C62.1644 35.2935 62.0415 34.7773 61.6236 33.6957L60.8862 31.8276H57.2236L56.8303 32.9583C56.3633 34.3103 56.2895 35.0231 56.9041 35.6868V35.7851H55.1588V35.6868C55.7979 35.0231 56.2158 34.3348 56.7074 32.9583L58.8951 26.7147L58.4035 25.4365H59.5834L62.484 32.9337C63.0985 34.4086 63.4672 34.9985 64.0326 35.6622L64.0571 35.7851ZM60.837 31.7047L58.9689 26.8868L57.2728 31.7293L60.837 31.7047Z" fill="#191411"/>
<path d="M55.036 35.9325V35.6621L55.0606 35.6129C55.6505 34.9984 56.0684 34.3593 56.5846 32.909L58.7723 26.7146L58.2315 25.3135H59.6572L59.6818 25.3872L62.5824 32.8844C63.1969 34.3347 63.5656 34.9246 64.131 35.5883L64.1556 35.6129V35.8833H61.6237V35.6129L61.6729 35.5883C61.9924 35.2688 61.9187 34.8263 61.5008 33.7448L60.8125 31.9503H57.322L56.9533 32.9828C56.4617 34.4085 56.4617 35.023 57.0025 35.5883L57.0271 35.6129V35.8833L55.036 35.9325ZM56.388 34.1135C56.093 34.728 55.7734 35.195 55.3556 35.6621H56.7321C56.3634 35.2196 56.2651 34.7526 56.388 34.1135ZM61.0092 31.8274L61.722 33.6464C62.0908 34.5805 62.2874 35.195 61.9433 35.6621H63.8606C63.3444 35.023 62.9511 34.4084 62.3611 33.0073L59.4852 25.5839H58.5757L59.0181 26.7392L61.0092 31.8274ZM58.969 27.2308L57.4449 31.5816H60.6651L58.969 27.2308Z" fill="#191411"/>
<path d="M76.3731 25.4128C76.3731 25.4128 76.3731 25.5112 76.3731 25.5357C75.8814 25.7816 75.439 26.5681 75.439 27.1827L75.4636 35.7614H75.2423L68.1876 26.7894L68.2122 34.0162C68.2122 34.6553 68.6546 35.4419 69.1708 35.6877C69.1708 35.7123 69.1708 35.786 69.1708 35.786H67.1798C67.1798 35.786 67.1798 35.7123 67.1798 35.6877C67.6714 35.4419 68.1139 34.6553 68.1139 34.0162L68.0893 26.6665L67.1306 25.462H68.6301L75.3407 33.9179L75.3161 27.2073C75.3161 26.5681 74.8736 25.8061 74.382 25.5603C74.382 25.5357 74.382 25.4374 74.382 25.4374L76.3731 25.4128Z" fill="#191411"/>
<path d="M67.0321 35.8836V35.7607C67.0321 35.7607 67.0321 35.687 67.0321 35.6624V35.5887L67.1059 35.5641C67.5729 35.3429 67.9908 34.5809 67.9908 33.9909L67.9662 26.6658L66.8846 25.2892H68.6791L75.2176 33.5239L75.193 27.1574C75.193 26.592 74.7751 25.8546 74.3327 25.6088L74.2589 25.5842V25.2646H76.4712V25.5842L76.3975 25.6088C75.955 25.83 75.5371 26.592 75.5371 27.1574L75.5617 35.8591H75.1684L75.1193 35.8099L68.2857 27.1082L68.3103 33.9909C68.3103 34.5809 68.7282 35.3183 69.1952 35.5395L69.269 35.5641V35.6378C69.269 35.6624 69.269 35.7362 69.269 35.7362V35.8591L67.0321 35.8836ZM68.1383 34.4825C68.0154 34.9496 67.7204 35.392 67.4008 35.6624H68.8757C68.5561 35.392 68.2858 34.925 68.1383 34.4825ZM75.2913 35.6378H75.3405V34.0892L68.5807 25.5596H67.4008L68.0891 26.42L75.2913 35.6378ZM74.6277 25.535C74.9718 25.8054 75.2668 26.2479 75.3897 26.7149C75.5126 26.2479 75.8075 25.7809 76.1517 25.535H74.6277Z" fill="#191411"/>
<path d="M86.2538 33.9414L85.9342 35.7358L79.9364 35.7604C79.9364 35.7604 79.9364 35.6866 79.9364 35.6621C80.1577 35.5392 80.256 35.3179 80.256 34.8017L80.2314 26.4196C80.2314 25.9034 80.1331 25.6822 79.9119 25.5347C79.9119 25.5101 79.9119 25.4118 79.9119 25.4118L85.4426 25.3872L85.7621 27.0341L85.6884 27.0833C85.0001 26.3213 84.0906 25.5101 82.4437 25.5101H81.4113V29.861L85.123 29.5168V30.2788L81.3867 29.9839L81.4113 35.6375H82.6158C84.2381 35.6375 85.4672 34.7772 86.1554 33.8922L86.2538 33.9414Z" fill="#191411"/>
<path d="M79.8134 35.8587V35.7358C79.8134 35.7358 79.8134 35.6621 79.8134 35.6375V35.5638L79.8871 35.5146C80.0592 35.4163 80.1575 35.2442 80.1575 34.7526L80.1329 26.3705C80.1329 25.8543 80.0346 25.7068 79.8625 25.6085L79.8134 25.5839V25.2643L85.5653 25.2397L85.9094 27.0587L85.6882 27.2308L85.6145 27.1325C84.9016 26.3459 84.0413 25.6085 82.4927 25.6085C82.4927 25.6085 82.4927 25.6085 82.4681 25.6085H81.5586V29.7135L85.2703 29.3694V30.4018L81.534 30.1068L81.5586 35.49H82.6402C84.5821 35.49 85.6882 34.2856 86.0815 33.7939L86.1553 33.6956L86.4011 33.8677L86.0569 35.8342L79.8134 35.8587ZM80.1083 25.5101C80.2804 25.6822 80.3541 25.9526 80.3541 26.3705L80.3787 34.7526C80.3787 35.1705 80.305 35.4409 80.1575 35.6129H81.3128L81.2882 29.861V25.5101H80.1083ZM86.1061 34.1627C85.7128 34.6297 84.9508 35.318 83.7955 35.6129H85.8603L86.1061 34.1627ZM82.1731 29.9101L85.0245 30.1314V29.6397L82.1731 29.9101ZM83.5251 25.5101C84.4346 25.7314 85.0983 26.2476 85.5899 26.7883L85.3441 25.4856L83.5251 25.5101Z" fill="#191411"/>
<path d="M14.0361 58.9644V59.0136H12.9546V58.9644C13.1266 58.7924 12.9791 58.522 12.7087 58.0549L11.9713 56.7521C11.873 56.7521 11.7747 56.7767 11.6518 56.7767H11.0126V58.5711C11.0126 58.8169 11.0618 58.9153 11.1601 58.989C11.1601 59.0136 11.1601 59.0382 11.1601 59.0382H10.2998C10.2998 59.0382 10.2998 59.0136 10.2998 58.989C10.3981 58.9153 10.4473 58.8169 10.4473 58.5711V54.6382C10.4473 54.3924 10.3981 54.294 10.2998 54.2203C10.2998 54.1957 10.2998 54.1711 10.2998 54.1711H11.6518C12.7333 54.1711 13.692 54.5644 13.7166 55.4739C13.7166 56.1376 13.2004 56.5309 12.5121 56.6784L13.1512 57.7845C13.5445 58.4974 13.7657 58.7186 14.0361 58.9644ZM13.1512 55.4739C13.1512 54.9332 12.9546 54.2203 11.6518 54.2203H11.0126V56.7276H11.6518C12.9791 56.7276 13.1758 55.9901 13.1512 55.4739Z" fill="#191411"/>
<path d="M10.2012 59.1362V58.8904L10.2503 58.8658C10.2995 58.8412 10.3487 58.8166 10.3487 58.5708V54.6379C10.3487 54.3921 10.2995 54.3675 10.2503 54.3429L10.2012 54.3183V54.0725H11.676C13.0034 54.0725 13.8392 54.6379 13.8392 55.4982C13.8392 56.1127 13.4213 56.5798 12.6839 56.7764L13.2246 57.7351C13.6425 58.4479 13.8637 58.6692 14.1096 58.8904L14.1587 58.915V59.1362H12.8559V58.915L12.8805 58.8904C12.9788 58.7921 12.9051 58.62 12.6347 58.153L11.9218 56.8993C11.8481 56.8993 11.7498 56.8993 11.676 56.8993H11.1598V58.5708C11.1598 58.8166 11.209 58.8412 11.2582 58.8658L11.3073 58.8904V59.1362H10.2012ZM10.5207 54.2692C10.5699 54.3675 10.5699 54.4904 10.5699 54.6133V58.5463C10.5699 58.6692 10.5699 58.7921 10.5207 58.8904H10.9386C10.8894 58.7921 10.8894 58.6692 10.8894 58.5463V54.2692H10.5207ZM12.1431 56.801L12.8313 58.0055C13.0526 58.4233 13.2246 58.6937 13.1509 58.8904H13.7654C13.5688 58.6937 13.3475 58.4233 13.0034 57.8334L12.3889 56.7518C12.3151 56.7764 12.2414 56.7764 12.1431 56.801ZM11.1352 54.3429V56.6044H11.6515C12.1922 56.6044 12.5855 56.4815 12.8068 56.2111C12.9543 56.039 13.028 55.7932 13.028 55.4736C13.028 55.1541 12.9543 54.9083 12.8068 54.7116C12.5855 54.4658 12.2168 54.3429 11.6515 54.3429H11.1352ZM13.2738 55.4736C13.2738 55.8423 13.1755 56.1373 13.0034 56.3585C13.323 56.1865 13.5933 55.9161 13.5933 55.4736C13.5933 55.0558 13.3475 54.7608 13.0034 54.5641C13.2001 54.7854 13.2738 55.0803 13.2738 55.4736Z" fill="#191411"/>
<path d="M19.5917 58.9897H18.5101V58.9406C18.6822 58.7685 18.633 58.5227 18.4364 58.0065L18.1168 57.1462H16.3962L16.1995 57.687C15.9783 58.3261 15.9537 58.6702 16.2487 58.9652V59.0143H15.4375V58.9652C15.7325 58.6456 15.9291 58.3261 16.1749 57.687L17.2073 54.7618L16.9861 54.1719H17.5269L18.8788 57.687C19.1738 58.3752 19.3459 58.6702 19.6163 58.9652V58.9897H19.5917ZM18.0923 57.097L17.2073 54.8356L16.3962 57.1216L18.0923 57.097Z" fill="#191411"/>
<path d="M15.2891 59.1371V58.9159L15.3136 58.8913C15.584 58.6209 15.7807 58.3259 16.0019 57.6622L17.0343 54.7617L16.7639 54.0488H17.5751L17.5997 54.1226L18.9516 57.6376C19.222 58.3013 19.3941 58.5717 19.6645 58.8913L19.6891 58.9159V59.1371H18.3863V58.9159L18.4109 58.8913C18.5338 58.7684 18.5092 58.5963 18.3125 58.0801L17.993 57.2689H16.4444L16.2969 57.7114C16.0756 58.3505 16.0756 58.6209 16.2969 58.8667L16.3215 58.8913V59.1125L15.2891 59.1371ZM15.9036 58.5226C15.8298 58.6455 15.7315 58.7684 15.6332 58.8913H16.0019C15.9528 58.7684 15.9282 58.6455 15.9036 58.5226ZM18.2634 57.2198L18.5583 57.9818C18.7058 58.3751 18.8042 58.6455 18.7058 58.8913H19.3695C19.1483 58.6209 18.9762 58.3259 18.7304 57.736L17.403 54.2946H17.1326L18.2634 57.2198ZM17.2064 55.155L16.5673 56.9494H17.8946L17.2064 55.155Z" fill="#191411"/>
<path d="M21.8767 54.5891V58.5221C21.8767 58.7679 21.9259 58.8662 22.0488 58.9399C22.0488 58.9645 22.0488 58.9891 22.0488 58.9891H21.1885C21.1885 58.9891 21.1885 58.9645 21.1885 58.9399C21.2868 58.8662 21.336 58.7679 21.336 58.5221V54.5891C21.336 54.3433 21.2868 54.245 21.1885 54.1712C21.1885 54.1467 21.1885 54.1221 21.1885 54.1221H22.0488V54.1712C21.9259 54.245 21.8767 54.3433 21.8767 54.5891Z" fill="#191411"/>
<path d="M21.0664 59.1125V58.8667L21.1156 58.8421C21.1647 58.8175 21.2139 58.793 21.2139 58.5472V54.6142C21.2139 54.3684 21.1647 54.3192 21.1156 54.3192L21.0664 54.2946V54.0488H22.1726V54.2946L22.0988 54.3192C22.0496 54.3438 22.0005 54.3684 22.0005 54.6142V58.5472C22.0005 58.793 22.0496 58.8175 22.0988 58.8421L22.1726 58.8667V59.1125H21.0664ZM21.4105 54.2455C21.4597 54.3438 21.4597 54.4667 21.4597 54.5896V58.5226C21.4597 58.6455 21.4597 58.7684 21.4105 58.8667H21.8284C21.7792 58.7684 21.7793 58.6455 21.7793 58.5226V54.5896C21.7793 54.4667 21.7792 54.3438 21.8284 54.2455H21.4105Z" fill="#191411"/>
<path d="M27.3828 54.6863L27.1861 55.3992H27.137C26.7437 54.4651 26.2275 54.121 25.6867 54.121C24.9984 54.121 24.6051 54.5142 24.556 54.9321C24.4331 56.3332 27.4074 55.8662 27.4074 57.5869C27.4074 58.4226 26.6699 58.988 25.6867 59.0126C24.8509 59.0126 24.3347 58.7422 23.7939 58.3243L23.9906 57.5377H24.0398C24.4085 58.2506 25.0476 58.8651 25.9571 58.8651C26.547 58.8651 27.0386 58.4718 27.0878 58.0293C27.2599 56.5545 24.2856 57.0215 24.261 55.2763C24.261 54.7109 24.7035 53.998 25.8342 53.998C26.3995 54.0472 26.9649 54.3668 27.3828 54.6863Z" fill="#191411"/>
<path d="M25.6621 59.1361C24.8264 59.1361 24.2856 58.8658 23.7202 58.4233L23.6465 58.3741L23.8923 57.4155H24.1135L24.1381 57.4892C24.3348 57.8825 24.9001 58.7674 25.9325 58.7674C26.4487 58.7674 26.8912 58.4479 26.9403 58.0546C27.0141 57.4401 26.4241 57.1942 25.7359 56.9239C24.9739 56.6289 24.1135 56.2848 24.1135 55.3015C24.1135 54.6132 24.6789 53.925 25.8096 53.9004C26.4487 53.9004 27.0878 54.3183 27.4074 54.5641L27.4811 54.6132L27.2353 55.4982H27.0141L26.9895 55.4244C26.6454 54.6132 26.2029 54.2199 25.6375 54.2199C24.9984 54.2199 24.6789 54.5887 24.6297 54.9082C24.5806 55.4736 25.1459 55.6948 25.8342 55.9406C26.6208 56.2356 27.4811 56.5551 27.5057 57.563C27.5057 58.0054 27.3091 58.3987 26.9649 58.6691C26.6454 58.9887 26.1783 59.1361 25.6621 59.1361ZM23.9415 58.3004C24.3593 58.5954 24.728 58.8166 25.2442 58.8903C24.7772 58.7183 24.3593 58.3496 24.0644 57.8334L23.9415 58.3004ZM24.4331 55.1294C24.4085 55.2032 24.4085 55.2523 24.4085 55.3261C24.4085 56.1373 25.1213 56.4077 25.8588 56.7026C26.547 56.973 27.2353 57.2434 27.2107 57.9808C27.2353 57.8579 27.2599 57.7596 27.2599 57.6367C27.2599 56.801 26.4979 56.5306 25.7604 56.2602C25.1459 55.9898 24.4822 55.744 24.4331 55.1294ZM26.5225 54.3183C26.7437 54.5149 26.9649 54.7853 27.137 55.1294L27.2599 54.7362C27.0878 54.6132 26.8174 54.4412 26.5225 54.3183Z" fill="#191411"/>
<path d="M32.1279 58.1287L31.9804 58.9645H29.1536C29.1536 58.9645 29.1536 58.9399 29.1536 58.9153C29.2519 58.8416 29.301 58.7432 29.301 58.4974V54.5645C29.301 54.3186 29.2519 54.2203 29.1536 54.1466C29.1536 54.122 29.1536 54.0974 29.1536 54.0974H31.7591L31.9066 54.8594L31.8821 54.884C31.5625 54.5153 31.12 54.1466 30.358 54.1466H29.8664V56.1868L31.6117 56.0393V56.3835L29.8664 56.236V58.8907H30.4318C31.1938 58.8907 31.7837 58.4974 32.1033 58.055L32.1279 58.1287Z" fill="#191411"/>
<path d="M29.0303 59.0871V58.8413L29.0794 58.8167C29.1286 58.7922 29.1778 58.7676 29.1778 58.5218V54.5888C29.1778 54.343 29.1286 54.2938 29.0794 54.2938L29.0303 54.2692V54.0234H31.8571L32.0291 54.9575L31.8571 55.105L31.7833 55.0067C31.4638 54.638 31.0705 54.3184 30.3576 54.3184H29.9889V56.1128L31.7342 55.9653V56.5799L29.9889 56.4324V58.8413H30.4314C31.3163 58.8413 31.8325 58.3005 32.0046 58.0547L32.0783 57.9564L32.275 58.1039L32.1029 59.1117L29.0303 59.0871ZM29.3498 54.2201C29.399 54.3184 29.399 54.4413 29.399 54.5642V58.4972C29.399 58.6201 29.399 58.743 29.3498 58.8413H29.7185V54.2201H29.3498ZM31.9308 58.4234C31.7833 58.5709 31.5867 58.7184 31.3163 58.8413H31.8571L31.9308 58.4234ZM30.9476 56.2357L31.4638 56.2849V56.1866L30.9476 56.2357ZM31.1934 54.2201C31.39 54.3184 31.5621 54.4413 31.7096 54.5642L31.6359 54.2201H31.1934Z" fill="#191411"/>
<path d="M38.3706 56.5058C38.3706 57.8823 37.1907 58.9393 35.5929 58.9393H33.8477C33.8477 58.9393 33.8477 58.9147 33.8477 58.8901C33.946 58.8164 33.9951 58.7181 33.9951 58.4723V54.5393C33.9951 54.2935 33.946 54.1952 33.8477 54.1214C33.8477 54.0968 33.8477 54.0723 33.8477 54.0723H35.5929C37.1907 54.0968 38.3706 55.1538 38.3706 56.5058ZM37.8298 56.5304C37.8298 55.2522 36.9694 54.146 35.5929 54.146H34.5605V58.9147H35.5929C36.9694 58.9147 37.8298 57.8086 37.8298 56.5304Z" fill="#191411"/>
<path d="M33.7246 59.0871V58.8413L33.7738 58.8167C33.8229 58.7922 33.8721 58.7676 33.8721 58.5218V54.5888C33.8721 54.343 33.8229 54.2938 33.7738 54.2938L33.7246 54.2692V54.0234H35.5928C37.2397 54.0234 38.4933 55.1296 38.4933 56.5799C38.4933 57.2927 38.1984 57.9318 37.6576 58.3989C37.1168 58.8659 36.3794 59.1363 35.5928 59.1363L33.7246 59.0871ZM34.0687 54.2201C34.1179 54.3184 34.1179 54.4413 34.1179 54.5642V58.4972C34.1179 58.6201 34.1179 58.743 34.0687 58.8413H34.4375V54.2201H34.0687ZM34.6587 54.2692V58.7922H35.5682C36.1827 58.7922 36.7235 58.5463 37.1168 58.1285C37.4855 57.7106 37.6821 57.1452 37.6821 56.5307C37.6821 55.4 36.9447 54.2692 35.5682 54.2692H34.6587ZM37.2151 54.6626C37.6576 55.105 37.928 55.7441 37.928 56.5061C37.928 57.1698 37.7067 57.8089 37.3134 58.2514C37.2888 58.276 37.2643 58.3251 37.2151 58.3497C37.3134 58.276 37.4118 58.2268 37.4855 58.153C37.9771 57.7352 38.2229 57.1452 38.2229 56.5061C38.2475 55.7441 37.8542 55.0804 37.2151 54.6626Z" fill="#191411"/>
<path d="M47.4166 56.3336C47.097 56.5548 46.802 56.5302 46.5562 56.4565C47.1462 56.9481 47.0724 58.9638 45.0076 58.9638C43.8523 58.9638 43.0657 58.2755 42.9674 57.6855C42.7953 56.604 43.754 55.9403 44.7864 56.2107C44.221 56.0386 43.2624 55.7928 43.3361 54.9325C43.3607 54.4408 43.7048 54.1705 44.221 53.9984C44.7372 53.8263 45.3026 53.8755 46.0892 54.1705L45.9663 54.8833H45.9171C45.4501 54.1213 44.7864 53.8263 44.3194 54.023C44.0244 54.1459 43.8769 54.49 43.8769 54.9079C43.8769 55.5224 44.3439 56.0386 45.1797 56.3336C45.1797 56.3336 45.1797 56.3582 45.1551 56.3827C44.0244 55.9649 43.4344 56.7269 43.5082 57.7347C43.5573 58.3492 44.1227 58.9146 45.0322 58.9146C47.0724 58.9146 47.1216 56.776 46.3842 56.4073C46.2121 56.7515 46.0155 57.071 45.7451 57.2922C45.4501 57.5135 45.0814 57.5135 44.9585 57.2677C44.7864 56.8989 45.4255 56.5548 45.868 56.309L45.8925 56.3582C45.4501 56.604 45.1551 56.8744 45.2289 57.1202C45.3026 57.3168 45.5484 57.2922 45.7696 57.1693C46.0646 56.9973 46.2613 56.5302 46.5071 56.0386C46.7775 55.4978 46.9495 54.9816 47.2445 54.7604C47.5641 54.5392 47.859 54.6375 48.0065 54.9079C48.2769 55.3503 47.9082 56.014 47.4166 56.3336ZM47.7361 55.1291C47.5641 54.8587 47.3428 54.8341 47.1462 54.9816C46.9741 55.1045 46.7529 55.6207 46.5562 56.0386C46.5071 56.1369 46.4579 56.2598 46.4087 56.3582C46.6054 56.4565 46.9987 56.5794 47.392 56.309C47.859 56.014 47.9819 55.4487 47.7361 55.1291Z" fill="#191411"/>
<path d="M45.0079 59.0867C43.8034 59.0867 42.9677 58.3739 42.8693 57.7102C42.7956 57.194 42.9185 56.7515 43.2626 56.432C43.4593 56.2353 43.7297 56.1124 44.0246 56.0633C43.5822 55.8666 43.1889 55.5225 43.2381 54.908C43.2626 54.3918 43.5822 54.0476 44.1967 53.851C44.7375 53.6543 45.3274 53.7281 46.1386 54.023L46.2369 54.0476L46.0649 54.9571H45.8436L45.8191 54.908C45.3766 54.1705 44.7621 53.9493 44.3688 54.0968C44.1475 54.1951 44.0001 54.4901 44.0001 54.8588C44.0001 55.4242 44.4425 55.9158 45.2045 56.1862L45.3028 56.2353L45.2783 56.3337C45.2783 56.3337 45.2783 56.3582 45.2537 56.4074L45.2045 56.5057L45.1062 56.4566C44.6637 56.2845 44.295 56.3091 44.0246 56.5303C43.7297 56.7515 43.5822 57.1694 43.6313 57.6856C43.6805 58.2018 44.1721 58.7426 45.0325 58.7426C45.8928 58.7426 46.5073 58.3247 46.6548 57.6119C46.7531 57.1694 46.6548 56.7515 46.409 56.5549C46.2615 56.8498 46.0649 57.1694 45.7945 57.3661C45.5732 57.5135 45.3029 57.5873 45.1062 57.5381C44.9833 57.5135 44.885 57.4152 44.8358 57.3169C44.6392 56.8499 45.3274 56.4565 45.7945 56.1862L45.9174 56.1124L46.0157 56.3828L45.9174 56.432C45.4995 56.6532 45.2783 56.899 45.3274 57.0465C45.352 57.0957 45.352 57.0957 45.3766 57.0957C45.4503 57.1202 45.5732 57.0957 45.6962 57.0219C45.8682 56.9236 46.0403 56.6286 46.1878 56.3337L46.0157 56.1862L46.2369 56.2599C46.2615 56.2108 46.2861 56.1616 46.3107 56.1124L46.3844 55.9895C46.4582 55.8666 46.5073 55.7191 46.5565 55.5962C46.7286 55.2029 46.9006 54.8342 47.1464 54.6867C47.3185 54.5638 47.5151 54.5147 47.6872 54.5638C47.8593 54.5884 48.0068 54.7113 48.1051 54.8834C48.4001 55.3996 48.0068 56.1616 47.466 56.5057C47.2693 56.6286 47.0481 56.7024 46.8515 56.7024C46.8515 56.7024 46.8515 56.7024 46.8269 56.7024C47.0235 57.0465 47.0481 57.5627 46.876 58.0052C46.6302 58.6688 45.942 59.0867 45.0079 59.0867ZM43.9017 56.3582C43.7297 56.4074 43.5576 56.5057 43.4347 56.6286C43.1643 56.899 43.0414 57.2677 43.1151 57.6856C43.1643 57.9806 43.4101 58.3001 43.7788 58.5459C43.5576 58.3247 43.4347 58.0297 43.4101 57.7593C43.361 57.1694 43.533 56.6778 43.9017 56.3828C43.8772 56.3582 43.9017 56.3582 43.9017 56.3582ZM45.1062 57.0465C45.0816 57.1202 45.057 57.1694 45.0816 57.2186C45.1062 57.2677 45.1308 57.2923 45.2045 57.3169C45.2291 57.3169 45.2537 57.3169 45.2783 57.3169C45.2045 57.2677 45.1554 57.2186 45.1308 57.1202C45.1062 57.0957 45.1062 57.0711 45.1062 57.0465ZM46.5811 56.2845C46.8515 56.3828 47.1219 56.3582 47.3431 56.2107C47.5397 56.0878 47.6872 55.8666 47.7364 55.6454C47.761 55.4733 47.7364 55.3012 47.6626 55.1783C47.5889 55.08 47.5151 55.0063 47.4414 55.0063C47.3677 54.9817 47.3185 55.0063 47.2448 55.0554C47.1218 55.1292 46.9744 55.4733 46.8269 55.7683C46.7777 55.8666 46.7286 55.9649 46.6794 56.0633C46.6548 56.137 46.6056 56.2107 46.5811 56.2845ZM43.9017 54.2688C43.6314 54.4409 43.5084 54.6376 43.4839 54.9325C43.4593 55.4242 43.7788 55.6945 44.1967 55.8666C43.9263 55.5962 43.7788 55.2521 43.7788 54.8834C43.7543 54.6621 43.8034 54.4409 43.9017 54.2688ZM47.466 54.7605C47.5889 54.785 47.7364 54.8342 47.8593 55.0309C47.933 55.1292 47.9576 55.2521 47.9822 55.3504C48.0068 55.2029 48.0068 55.0309 47.933 54.908C47.8839 54.8096 47.7855 54.7359 47.6872 54.7113C47.5889 54.7359 47.5152 54.7359 47.466 54.7605ZM45.3274 54.0722C45.5241 54.1951 45.7207 54.3918 45.8928 54.613L45.9665 54.2443C45.7453 54.1705 45.5241 54.0968 45.3274 54.0722Z" fill="#191411"/>
<path d="M56.4383 54.5159V58.4488C56.4383 58.6946 56.4875 58.793 56.5858 58.8667C56.5858 58.8913 56.5858 58.9159 56.5858 58.9159H55.7254C55.7254 58.9159 55.7254 58.8913 55.7254 58.8667C55.8484 58.793 55.8975 58.6946 55.8729 58.4488V56.0399H53.464V58.4488C53.464 58.6946 53.5132 58.793 53.6115 58.8667C53.6115 58.8913 53.6115 58.9159 53.6115 58.9159H52.7512C52.7512 58.9159 52.7512 58.8913 52.7512 58.8667C52.8495 58.793 52.8986 58.6946 52.8986 58.4488V54.5159C52.8986 54.27 52.8495 54.1717 52.7266 54.098C52.7266 54.0734 52.7266 54.0488 52.7266 54.0488H53.5869V54.098C53.4886 54.1717 53.4394 54.27 53.4394 54.5159V56.0153H55.8484V54.5159C55.8484 54.27 55.7992 54.1717 55.6763 54.098C55.6763 54.0734 55.6763 54.0488 55.6763 54.0488H56.5366V54.098C56.4875 54.1471 56.4383 54.27 56.4383 54.5159Z" fill="#191411"/>
<path d="M52.6525 59.0383V58.7925L52.7017 58.7679C52.7508 58.7433 52.8 58.7188 52.8 58.4729V54.54C52.8 54.2942 52.7508 54.2696 52.7017 54.245L52.6279 54.2204V53.9746H53.7341V54.2204L53.6849 54.245C53.6357 54.2696 53.5866 54.2942 53.5866 54.54V55.9165H55.7497V54.54C55.7497 54.2942 55.7006 54.2696 55.6514 54.245L55.5777 54.2204V53.9746H56.6838V54.2204L56.6346 54.245C56.5855 54.2696 56.5363 54.2942 56.5363 54.54V58.4729C56.5363 58.7188 56.5855 58.7433 56.6346 58.7679L56.6838 58.7925V59.0383H55.5777V58.7925L55.6514 58.7679C55.7006 58.7433 55.7497 58.7188 55.7497 58.4729V56.1869H53.5866V58.4729C53.5866 58.6942 53.6357 58.7433 53.6849 58.7679L53.7341 58.7925V59.0383H52.6525ZM52.9966 54.1713C53.0458 54.2696 53.0458 54.3925 53.0458 54.5154V58.4484C53.0458 58.5713 53.0458 58.6942 52.9966 58.7925H53.4145C53.3653 58.6942 53.3654 58.5713 53.3654 58.4484V54.5154C53.3654 54.3679 53.3899 54.245 53.4145 54.1713H52.9966ZM56.0201 56.1132V58.4484C56.0201 58.5713 56.0201 58.6942 55.9709 58.7925H56.3888C56.3397 58.6942 56.3397 58.5713 56.3397 58.4484V54.5154C56.3397 54.3679 56.3642 54.245 56.3888 54.1713H55.9709C56.0201 54.2696 56.0201 54.3925 56.0201 54.5154V56.1132Z" fill="#191411"/>
<path d="M62.3858 58.8905H61.3042V58.8413C61.4763 58.6693 61.4272 58.4234 61.2305 57.9072L60.8864 57.0223H59.1657L58.9691 57.5385C58.7478 58.1776 58.7232 58.5218 59.0182 58.8167V58.8659H58.207V58.8167C58.502 58.4972 58.6987 58.1776 58.9445 57.5385L59.9769 54.6134L59.7556 54.0234H60.2964L61.6484 57.5385C61.9433 58.2268 62.1154 58.5218 62.3858 58.8167V58.8905ZM60.8618 56.9732L59.9769 54.7117L59.1657 56.9977L60.8618 56.9732Z" fill="#191411"/>
<path d="M58.085 59.014V58.7928L58.1096 58.7682C58.3799 58.4978 58.5766 58.2029 58.7978 57.5392L59.8302 54.6386L59.5598 53.9258H60.371L60.3956 53.9995L61.7475 57.5146C62.0179 58.1783 62.19 58.4487 62.4604 58.7682L62.485 58.7928V59.014H61.1822V58.7928L61.2068 58.7682C61.3297 58.6453 61.3051 58.4733 61.1084 57.9571L60.7889 57.1459H59.2403L59.0928 57.5883C58.8716 58.2274 58.8716 58.4978 59.0928 58.7437L59.1174 58.7682V58.9895L58.085 59.014ZM58.6995 58.3995C58.6257 58.5224 58.5274 58.6453 58.4291 58.7682H58.7978C58.7487 58.6699 58.6995 58.547 58.6995 58.3995ZM61.0593 57.0967L61.3542 57.8587C61.5017 58.252 61.6001 58.5224 61.5017 58.7682H62.1654C61.9442 58.4978 61.7721 58.2029 61.5263 57.6129L60.1989 54.1716H59.904L61.0593 57.0967ZM60.0023 55.0565L59.3632 56.8509H60.6906L60.0023 55.0565Z" fill="#191411"/>
<path d="M68.3098 53.998V54.0472C68.0886 54.1701 67.8674 54.5388 67.8674 54.8338V58.8651H67.769L64.4506 54.6371V58.0293C64.4506 58.3243 64.6718 58.693 64.8931 58.8159C64.8931 58.8405 64.8931 58.8651 64.8931 58.8651H63.959C63.959 58.8651 63.959 58.8405 63.959 58.8159C64.2048 58.693 64.4014 58.3243 64.4014 58.0293V54.5634L63.959 53.998H64.6718L67.8182 57.9802V54.8338C67.8182 54.5388 67.597 54.1701 67.3758 54.0472C67.3758 54.0226 67.3758 53.998 67.3758 53.998H68.3098Z" fill="#191411"/>
<path d="M63.8612 59.0132V58.7674L63.9349 58.7429C64.1316 58.6445 64.3037 58.325 64.3037 58.0546V54.6378L63.7383 53.9004H64.7461L67.7204 57.6613V54.8591C67.7204 54.6132 67.5483 54.2937 67.3517 54.1954L67.278 54.1708V53.925H68.4578V54.1708L68.3841 54.1954C68.1875 54.2937 68.0154 54.6132 68.0154 54.8591V59.0132H67.7204L67.6712 58.9641L64.574 55.0311V58.0792C64.574 58.325 64.7461 58.6445 64.9428 58.7429L65.0165 58.7674V59.0132H63.8612ZM64.4511 58.4725C64.402 58.5708 64.3282 58.6691 64.2545 58.7674H64.6232C64.5495 58.6691 64.5003 58.5708 64.4511 58.4725ZM64.5249 54.5395L64.5495 54.5641L67.745 58.6445V58.1038L67.7204 58.0792L64.5986 54.1462H64.2053L64.5249 54.5395ZM67.6467 54.1216C67.7204 54.2199 67.7942 54.3183 67.8433 54.4166C67.8925 54.2937 67.9662 54.1954 68.04 54.1216H67.6467Z" fill="#191411"/>
<path d="M74.6264 56.4325C74.6264 57.8091 73.4465 58.8661 71.8488 58.8661H70.1035C70.1035 58.8661 70.1035 58.8415 70.1035 58.8169C70.2018 58.7432 70.251 58.6448 70.251 58.399V54.4661C70.251 54.2202 70.2018 54.1219 70.1035 54.0482C70.1035 54.0236 70.1035 53.999 70.1035 53.999H71.8488C73.4465 53.999 74.6264 55.056 74.6264 56.4325ZM74.0856 56.4325C74.0856 55.1543 73.2253 54.0482 71.8488 54.0728H70.8164V58.8415H71.8488C73.2499 58.8169 74.0856 57.7107 74.0856 56.4325Z" fill="#191411"/>
<path d="M70.0059 58.9895V58.7437L70.055 58.7191C70.1042 58.6945 70.1534 58.6699 70.1534 58.4241V54.4911C70.1534 54.2453 70.1042 54.2207 70.055 54.1962L70.0059 54.1716V53.9258H71.874C73.521 53.9258 74.7746 55.0319 74.7746 56.4822C74.7746 57.9325 73.521 59.0386 71.874 59.0386L70.0059 58.9895ZM70.3254 54.1224C70.3746 54.2208 70.3746 54.3436 70.3746 54.4666V58.3995C70.3746 58.5224 70.3746 58.6453 70.3254 58.7437H70.6941V54.1224H70.3254ZM70.9399 54.1716V58.6945H71.8494C72.464 58.6945 73.0048 58.4487 73.3981 58.0308C73.7668 57.6129 73.9634 57.0476 73.9634 56.433C73.9634 55.3269 73.226 54.1962 71.8494 54.1962L70.9399 54.1716ZM73.4964 54.5895C73.9388 55.0319 74.2092 55.671 74.2092 56.433C74.2092 57.0967 73.988 57.7358 73.5947 58.1783C73.5701 58.2029 73.5455 58.2275 73.521 58.252C74.1355 57.8342 74.5288 57.1705 74.5288 56.4085C74.5042 55.6464 74.1109 55.0073 73.4964 54.5895Z" fill="#191411"/>
<path d="M79.4213 58.0059L79.2738 58.8417H76.3732C76.3732 58.8417 76.3732 58.8171 76.3732 58.7925C76.4715 58.7188 76.5207 58.6204 76.5207 58.3746V54.4417C76.5207 54.1958 76.4715 54.0975 76.3486 54.0238C76.3486 53.9992 76.3486 53.9746 76.3486 53.9746H77.209V54.0238C77.1106 54.0975 77.0615 54.1958 77.0615 54.4417V58.7925H77.7006C78.4626 58.7925 79.0525 58.3992 79.3721 57.9567L79.4213 58.0059Z" fill="#191411"/>
<path d="M76.25 58.9641V58.7183L76.3237 58.6937C76.3729 58.6691 76.4221 58.6445 76.4221 58.3987V54.4658C76.4221 54.2199 76.3729 54.1954 76.3237 54.1708L76.25 54.1462V53.9004H77.3561V54.1462L77.307 54.1708C77.2578 54.1954 77.2087 54.2199 77.2087 54.4903V58.7183H77.7249C78.6098 58.7183 79.126 58.1775 79.2981 57.9317L79.3718 57.8334L79.5684 57.9808L79.3964 58.9887L76.25 58.9641ZM76.5941 54.1216C76.6433 54.2199 76.6433 54.3428 76.6433 54.4658V58.3987C76.6433 58.5216 76.6433 58.6445 76.5941 58.7429H76.9629V54.4658C76.9629 54.3428 76.9628 54.2199 77.012 54.1216H76.5941ZM79.2489 58.3004C79.1014 58.4479 78.9048 58.5954 78.6344 58.7183H79.1751L79.2489 58.3004Z" fill="#191411"/>
<path d="M84.0661 58.0059L83.9186 58.8417H81.0918C81.0918 58.8417 81.0918 58.8171 81.0918 58.7925C81.1901 58.7188 81.2393 58.6204 81.2393 58.3746V54.4417C81.2393 54.1958 81.1901 54.0975 81.0918 54.0238C81.0918 53.9992 81.0918 53.9746 81.0918 53.9746H83.6974L83.8449 54.7366L83.8203 54.7612C83.5007 54.3925 83.0583 54.0238 82.2963 54.0238H81.8046V56.064L83.5499 55.9165V56.2607L81.8046 56.1132V58.7679H82.37C83.132 58.7679 83.722 58.3746 84.0415 57.9322L84.0661 58.0059Z" fill="#191411"/>
<path d="M80.9688 58.9641V58.7183L81.0179 58.6937C81.0671 58.6691 81.1162 58.6445 81.1162 58.3987V54.4658C81.1162 54.2199 81.0671 54.1708 81.0179 54.1708L80.9688 54.1462V53.9004H83.7956L83.9676 54.8345L83.7956 54.982L83.7218 54.8836C83.4023 54.5149 83.009 54.1954 82.2961 54.1954H81.9274V55.9898L83.6727 55.8423V56.4568L81.9274 56.3093V58.7183H82.3699C83.2548 58.7183 83.771 58.1775 83.943 57.9317L84.0168 57.8334L84.2134 57.9808L84.0414 58.9887L80.9688 58.9641ZM81.3129 54.097C81.362 54.1954 81.362 54.3183 81.362 54.4412V58.3741C81.362 58.497 81.362 58.62 81.3129 58.7183H81.6816V54.097H81.3129ZM83.8939 58.3004C83.7464 58.4479 83.5497 58.5954 83.2794 58.7183H83.8201L83.8939 58.3004ZM82.9106 56.1127L83.4269 56.1618V56.0635L82.9106 56.1127ZM83.1565 54.097C83.3531 54.1954 83.5252 54.3183 83.6727 54.4412L83.5989 54.097H83.1565Z" fill="#191411"/>
<path d="M90.3344 56.3827C90.3344 57.7593 89.1545 58.8163 87.5568 58.8163H85.8115C85.8115 58.8163 85.8115 58.7917 85.8115 58.7671C85.9098 58.6933 85.959 58.595 85.959 58.3492V54.4163C85.959 54.1705 85.9098 54.0721 85.8115 53.9984C85.8115 53.9738 85.8115 53.9492 85.8115 53.9492H87.5568C89.1545 53.9492 90.3344 55.0062 90.3344 56.3827ZM89.7691 56.3827C89.7691 55.1045 88.9087 53.9984 87.5322 53.9984H86.4998V58.7671H87.5322C88.9333 58.7671 89.7936 57.661 89.7691 56.3827Z" fill="#191411"/>
<path d="M85.6895 58.9641V58.7183L85.7386 58.6937C85.7878 58.6691 85.8369 58.6445 85.8369 58.3987V54.4658C85.8369 54.2199 85.7878 54.1708 85.7386 54.1708L85.6895 54.1462V53.9004H87.5576C89.2045 53.9004 90.4582 55.0065 90.4582 56.4568C90.4582 57.1697 90.1632 57.8088 89.6224 58.2758C89.0816 58.7428 88.3442 59.0132 87.5576 59.0132L85.6895 58.9641ZM86.009 54.097C86.0582 54.1954 86.0582 54.3183 86.0582 54.4412V58.3741C86.0582 58.497 86.0582 58.62 86.009 58.7183H86.3777V54.097H86.009ZM86.6235 54.1462V58.6691H87.533C88.123 58.6691 88.6146 58.4725 89.0079 58.0792C89.4258 57.6613 89.647 57.0713 89.647 56.4077C89.647 55.3015 88.9096 54.1462 87.533 54.1462H86.6235ZM89.1799 54.5395C89.6224 54.982 89.9174 55.6211 89.9174 56.3831C89.9174 57.1205 89.6716 57.7596 89.2045 58.2267C89.3029 58.1529 89.4012 58.1037 89.4749 58.03C89.9665 57.6121 90.2123 57.0222 90.2123 56.3831C90.2123 55.6211 89.8191 54.9574 89.1799 54.5395Z" fill="#191411"/>
<path d="M95.3008 66.8319H6.51422C3.14662 66.8319 0.393555 64.0788 0.393555 60.7112V6.97712C0.393555 3.60952 3.14662 0.856445 6.51422 0.856445H95.3008C98.6684 0.856445 101.422 3.60952 101.422 6.97712V60.7112C101.422 64.0788 98.6684 66.8319 95.3008 66.8319ZM6.51422 2.06091C3.81031 2.06091 1.62261 4.24862 1.62261 6.95253V60.6866C1.62261 63.3905 3.81031 65.5782 6.51422 65.5782H95.3008C98.0047 65.5782 100.192 63.3905 100.192 60.6866V6.97712C100.192 4.2732 98.0047 2.0855 95.3008 2.0855H6.51422V2.06091Z" fill="#191411"/>
<path d="M25.1221 49.084C24.9501 49.084 24.8026 48.9856 24.7042 48.8136C24.6059 48.5923 24.6797 48.3219 24.9255 48.199C25.0975 48.1253 41.9355 40.0381 59.3635 41.0705C59.6093 41.0951 59.8059 41.2918 59.7813 41.5622C59.7568 41.808 59.5847 42.0292 59.2897 42.0046C42.1322 40.9968 25.4663 48.961 25.2942 49.0348C25.245 49.084 25.1959 49.084 25.1221 49.084Z" fill="#191411"/>
<path d="M25.1226 49.2064C24.9014 49.2064 24.7048 49.0835 24.6064 48.8869C24.459 48.5919 24.5819 48.2478 24.8768 48.1003C25.5651 47.7562 42.0344 39.9394 59.364 40.9718C59.5115 40.9718 59.659 41.0455 59.7573 41.1684C59.8556 41.2913 59.9048 41.4388 59.9048 41.5863C59.9048 41.7584 59.831 41.9059 59.7081 42.0042C59.5852 42.1025 59.4623 42.1517 59.2902 42.1271C58.2578 42.0779 57.2254 42.0288 56.2176 42.0288C40.1908 42.0288 25.5159 49.0589 25.3684 49.1573C25.2947 49.1819 25.1964 49.2064 25.1226 49.2064ZM56.2668 41.1193C40.1171 41.1193 25.1472 48.2478 24.9752 48.3215C24.8031 48.3953 24.7293 48.5919 24.8277 48.764C24.9014 48.936 25.098 48.9852 25.2701 48.9115C25.4422 48.8377 42.0589 40.8243 59.3148 41.8567C59.4131 41.8567 59.4869 41.8567 59.5606 41.783C59.6344 41.7338 59.659 41.6355 59.6835 41.5372C59.6835 41.4388 59.659 41.3651 59.6098 41.2913C59.5606 41.2176 59.4623 41.193 59.3886 41.1684C58.307 41.1439 57.2746 41.1193 56.2668 41.1193Z" fill="#191411"/>
<path d="M31.0934 46.3549C30.9951 46.3549 30.8968 46.3303 30.823 46.2566C29.9627 45.6175 28.9794 45.0275 27.7504 44.4376C27.0867 44.0935 26.3984 43.7985 25.7348 43.5527C22.785 42.3728 19.4666 41.4879 15.632 40.8979C13.7146 40.6275 11.994 40.5046 10.4208 40.4801C8.65096 40.5292 6.88113 40.6275 5.06213 40.8242C4.64425 40.8733 4.20179 40.9225 3.78392 40.9717C2.94816 41.07 2.08782 41.1437 1.22748 41.3158C0.981674 41.365 0.73587 41.1929 0.711289 40.9471C0.662127 40.7013 0.834194 40.4555 1.08 40.4063C1.96492 40.2588 2.84983 40.1605 3.68559 40.0622C4.10346 40.013 4.52134 39.9639 4.9638 39.9147C6.80738 39.718 8.60179 39.6197 10.4208 39.5706C12.0431 39.5951 13.7884 39.7426 15.7549 40.013C19.6878 40.6275 23.0554 41.5125 26.0789 42.7415C26.718 43.0119 27.4554 43.3069 28.1437 43.6756C29.4219 44.3147 30.4543 44.9046 31.3638 45.5929C31.5605 45.7404 31.6096 46.0354 31.4621 46.232C31.3884 46.2812 31.2409 46.3549 31.0934 46.3549Z" fill="#191411"/>
<path d="M31.0926 46.4774C30.9697 46.4774 30.8468 46.4283 30.7485 46.3545C29.8881 45.7154 28.9295 45.1501 27.7004 44.5355C27.0367 44.1914 26.3485 43.921 25.7094 43.6506C22.7597 42.4707 19.4658 41.5858 15.6312 40.9959C13.7138 40.7255 12.0177 40.6026 10.4446 40.578C8.67473 40.6271 6.92947 40.7255 5.11048 40.9221C4.6926 40.9713 4.27473 41.0204 3.83228 41.0696C2.97194 41.1679 2.1116 41.2663 1.27585 41.4137C1.12836 41.4383 0.980877 41.4137 0.833391 41.3154C0.710485 41.2171 0.612161 41.0942 0.58758 40.9467C0.538418 40.6271 0.735058 40.3322 1.05461 40.283C1.93953 40.1355 2.79987 40.0372 3.66021 39.9389C4.10266 39.8897 4.52054 39.8406 4.963 39.7914C6.80657 39.5948 8.60099 39.4964 10.42 39.4473C12.0423 39.4718 13.7876 39.6193 15.7786 39.8897C19.7116 40.5042 23.1038 41.3892 26.1272 42.6182C26.7663 42.8886 27.5038 43.1836 28.2166 43.5523C29.5194 44.1914 30.5272 44.8059 31.4367 45.4696C31.6826 45.6663 31.7563 46.035 31.5596 46.2808C31.4613 46.3791 31.2893 46.4774 31.0926 46.4774ZM10.42 40.3322C11.9932 40.3568 13.7138 40.5042 15.6312 40.7501C19.4904 41.3646 22.8088 42.2249 25.7831 43.4294C26.4468 43.6998 27.1105 43.9702 27.7988 44.3389C29.0524 44.9534 30.0356 45.5434 30.896 46.1825C31.0434 46.2808 31.2647 46.2562 31.363 46.1087C31.4613 45.9612 31.4367 45.74 31.2892 45.6417C30.4043 44.978 29.3719 44.3635 28.0937 43.7489C27.3809 43.3802 26.668 43.0853 26.0289 42.8149C23.0055 41.6104 19.6379 40.7255 15.7295 40.111C13.763 39.8406 12.0177 39.6931 10.42 39.6685C8.60099 39.7177 6.83115 39.816 4.98757 40.0126C4.56969 40.0618 4.12725 40.111 3.70937 40.1601C2.84904 40.2584 1.96411 40.3568 1.10378 40.5042C0.931709 40.5288 0.80881 40.7009 0.833391 40.8976C0.857972 40.9959 0.907128 41.0696 0.980871 41.1188C1.05461 41.1679 1.15294 41.1925 1.22668 41.1679C2.06243 41.0205 2.92277 40.9221 3.75852 40.8238C4.22556 40.7746 4.64345 40.7255 5.06133 40.6763C6.88032 40.4797 8.65015 40.3568 10.42 40.3322Z" fill="#191411"/>
<path d="M69.8832 50.3616C69.7357 50.3616 69.5636 50.2878 69.4899 50.1158C69.367 49.8945 69.4407 49.6242 69.6619 49.5013C69.8094 49.4275 84.8776 40.947 100.388 41.8074C100.634 41.832 100.831 42.0286 100.806 42.299C100.782 42.5448 100.585 42.7661 100.339 42.7415C85.148 41.9303 70.2519 50.2387 70.1044 50.337C70.0307 50.337 69.9569 50.3616 69.8832 50.3616Z" fill="#191411"/>
<path d="M69.8826 50.4849C69.6613 50.4849 69.4893 50.362 69.3664 50.1899C69.2189 49.9195 69.3172 49.5508 69.5876 49.4033C69.7351 49.3296 83.4513 41.6357 98.1753 41.6357C98.9127 41.6357 99.6502 41.6603 100.388 41.6849C100.535 41.6849 100.683 41.7586 100.781 41.8816C100.879 42.0045 100.928 42.1519 100.928 42.2994C100.928 42.4715 100.83 42.619 100.707 42.7173C100.584 42.8156 100.437 42.8402 100.289 42.8402C99.5764 42.791 98.8882 42.791 98.1753 42.791C83.8692 42.791 70.2758 50.3374 70.1284 50.4111C70.0792 50.4603 69.9809 50.4849 69.8826 50.4849ZM98.1753 41.857C83.525 41.857 69.858 49.5262 69.7351 49.6C69.563 49.6983 69.5138 49.895 69.6122 50.067C69.7105 50.2145 69.9071 50.2883 70.0546 50.1899C70.2021 50.1162 85.2211 41.7832 100.338 42.5944C100.437 42.5944 100.511 42.5698 100.56 42.5207C100.633 42.4715 100.683 42.3732 100.683 42.2748C100.683 42.1765 100.658 42.1028 100.584 42.029C100.535 41.9553 100.437 41.9307 100.363 41.9307C99.6502 41.8815 98.9127 41.857 98.1753 41.857Z" fill="#191411"/>
<path d="M75.8566 47.6332C75.7583 47.6332 75.6599 47.6086 75.5862 47.5348C74.7259 46.8957 73.7426 46.3058 72.5136 45.7158C71.8499 45.3717 71.1862 45.1013 70.5225 44.8309C67.5482 43.651 64.2544 42.7661 60.3951 42.1516C58.4778 41.8812 56.7571 41.7583 55.184 41.7337C53.4141 41.7829 51.6443 41.8812 49.8253 42.0779C49.4074 42.127 48.965 42.1762 48.5471 42.2253C47.7113 42.3237 46.851 42.3974 45.9907 42.5695C45.7449 42.6186 45.499 42.4466 45.4745 42.2008C45.4499 41.955 45.5974 41.7091 45.8432 41.66C46.7281 41.5125 47.613 41.4142 48.4733 41.3158C48.8912 41.2667 49.3091 41.2175 49.7516 41.1684C51.5951 40.9717 53.3896 40.8734 55.2086 40.8242C56.8309 40.8488 58.5761 40.9963 60.5426 41.2667C64.4756 41.8812 67.8432 42.7661 70.8666 43.9952C71.5549 44.2901 72.2432 44.5605 72.9315 44.9293C74.2097 45.5684 75.2421 46.1583 76.1516 46.8466C76.3482 46.9941 76.3974 47.289 76.2499 47.4857C76.1516 47.5594 76.0041 47.6332 75.8566 47.6332Z" fill="#191411"/>
<path d="M75.8554 47.7559C75.7325 47.7559 75.6096 47.7068 75.5113 47.633C74.651 46.9939 73.6923 46.4286 72.4632 45.814C71.7996 45.4699 71.1359 45.1995 70.4968 44.9291C67.5225 43.7492 64.2286 42.8643 60.394 42.2498C58.4767 41.9794 56.7806 41.8565 55.2074 41.8319C53.4376 41.8811 51.6923 41.9794 49.8733 42.176C49.4554 42.2252 49.013 42.2744 48.5951 42.3235C47.7348 42.4219 46.899 42.5202 46.0387 42.6677C45.8912 42.6922 45.7437 42.6677 45.5962 42.5693C45.4733 42.471 45.375 42.3481 45.3504 42.2006C45.3012 41.8811 45.4979 41.5861 45.8174 41.5369C46.7269 41.3649 47.6364 41.2665 48.4476 41.1928L48.6443 41.1682C48.9884 41.1191 49.3571 41.0945 49.7258 41.0453C51.5694 40.8487 53.3638 40.7503 55.1828 40.7012C56.8051 40.7258 58.5504 40.8733 60.5415 41.1436C64.4744 41.7582 67.8666 42.6431 70.8901 43.8721C71.5783 44.1671 72.2912 44.4375 72.9795 44.8062C74.2823 45.4453 75.2901 46.0598 76.1996 46.7235C76.4454 46.9202 76.5191 47.2889 76.3225 47.5347C76.2241 47.6576 76.0521 47.7559 75.8554 47.7559ZM55.2074 41.5861C56.7806 41.6107 58.5012 41.7582 60.4186 42.004C64.2778 42.6185 67.5962 43.4788 70.5705 44.6833C71.2342 44.9537 71.9225 45.2487 72.5862 45.5682C73.8398 46.1827 74.823 46.7727 75.6834 47.4118C75.8309 47.5101 76.0521 47.4855 76.1504 47.338C76.2487 47.1906 76.2241 46.9693 76.0767 46.871C75.1917 46.2073 74.1593 45.5928 72.8811 44.9783C72.1929 44.6341 71.5046 44.3392 70.8163 44.0442C67.7929 42.8397 64.4253 41.9548 60.5169 41.3403C58.5504 41.0699 56.8052 40.9224 55.2074 40.8978C53.3884 40.947 51.6186 41.0453 49.775 41.242C49.4308 41.2911 49.0621 41.3157 48.6934 41.3649L48.4968 41.3895C47.6856 41.4632 46.7761 41.5615 45.8912 41.7336C45.7191 41.7582 45.5962 41.9302 45.6208 42.1269C45.6454 42.2252 45.6945 42.2989 45.7683 42.3481C45.842 42.3973 45.9403 42.4218 46.0141 42.3973C46.8744 42.2498 47.7348 42.1515 48.5459 42.0531C48.9884 42.004 49.4308 41.9548 49.8487 41.9056C51.6431 41.7336 53.413 41.6353 55.2074 41.5861Z" fill="#191411"/>
<path d="M45.4737 42.5958C45.4491 42.5958 45.4246 42.5958 45.4 42.5958C33.2815 40.3097 15.9028 40.9489 15.7307 40.9734C15.4849 40.9734 15.2637 40.7768 15.2637 40.531C15.2637 40.2852 15.4603 40.0639 15.7061 40.0639C15.8782 40.0639 33.3553 39.4003 45.5721 41.7109C45.8179 41.76 45.9899 42.0058 45.9408 42.2517C45.867 42.4483 45.6704 42.5958 45.4737 42.5958Z" fill="#191411"/>
<path d="M45.4724 42.7184C45.4233 42.7184 45.3987 42.7184 45.3741 42.7184C33.2803 40.4324 15.9261 41.0715 15.754 41.0961C15.4345 41.0961 15.1886 40.8503 15.1641 40.5307C15.1641 40.2112 15.4099 39.9408 15.7294 39.9162C16.4669 39.8916 33.6736 39.3017 45.6199 41.5631C45.9395 41.6123 46.1361 41.9318 46.087 42.2514C45.9886 42.5218 45.7428 42.7184 45.4724 42.7184ZM21.6289 40.7519C27.8233 40.7519 37.6803 41.0223 45.3987 42.4726C45.5708 42.5218 45.7428 42.3743 45.792 42.2022C45.8166 42.0302 45.7183 41.8335 45.5216 41.8089C33.5998 39.5475 16.4177 40.1374 15.7048 40.162C15.5082 40.162 15.3607 40.3341 15.3607 40.5061C15.3607 40.6782 15.5328 40.8503 15.7048 40.8257C15.7786 40.8257 18.1138 40.7519 21.6289 40.7519Z" fill="#191411"/>
</svg>
