<svg width="390" height="1938" viewBox="0 0 390 1938" fill="none" xmlns="http://www.w3.org/2000/svg">
<path d="M-166.144 -103.622C-170.553 -107.558 -177.589 -112.448 -181.272 -120.256L-191.389 -128C-194.647 -121.349 -194.604 -112.714 -195.604 -100.467C-197.575 -76.3226 -197.054 -51.8819 -197.711 -27.3314C-199.73 48.0615 -199.999 123.231 -203.379 198.384C-206.644 270.988 -208.249 343.658 -208.249 416.93C-208.249 565.062 -210.522 712.83 -209.889 861.048C-209.649 917.232 -209.087 973.756 -207.875 1029.83C-206.913 1074.32 -204.544 1118.05 -203.098 1162.34C-201.8 1202.05 -202.243 1242.51 -202.395 1282.36C-202.583 1331.51 -204.372 1380.18 -205.205 1429.21C-205.976 1474.56 -205.72 1520.04 -205.72 1565.44C-205.72 1625.66 -205.533 1685.81 -206.376 1745.99C-206.981 1789.1 -209.901 1832.69 -209.046 1875.91C-208.613 1897.79 -202.33 1894.42 -197.009 1900.86C-191.721 1907.26 -187.608 1906.56 -182.162 1902.15C-176.597 1897.64 -172.593 1901.52 -166.941 1902.87C-155.886 1905.5 -144.095 1903.36 -133.219 1897.71C-126.337 1894.13 -120.031 1893.42 -112.986 1893.12C-107.518 1892.88 -102.213 1889.33 -96.6874 1890.68C-92.3497 1891.74 -89.5999 1903.22 -84.9785 1903.44C-81.8037 1903.6 -78.3811 1904.4 -75.2368 1902.87C-72.9437 1901.75 -71.0932 1897.19 -68.8203 1895.98C-66.7376 1894.88 -66.2019 1899.29 -64.4178 1900.57C-62.138 1902.22 -59.2916 1900.86 -56.9709 1900.86C-49.7548 1900.86 -42.63 1894.55 -35.4734 1895.84C-28.8181 1897.04 -23.114 1905.86 -16.3177 1906.02C-6.17291 1906.26 4.63864 1911.98 14.6874 1907.31C21.2644 1904.26 28.2856 1909.44 34.733 1904.3C39.2966 1900.66 43.0423 1895.88 47.8469 1895.7C50.4987 1895.6 53.0387 1895.59 55.6684 1894.41C70.2095 1887.86 84.934 1893.12 99.5064 1893.12C105.485 1893.12 110.298 1888.1 116.133 1885.95C122.778 1883.5 129.817 1885.37 136.507 1885.37C142.261 1885.37 148.036 1884.91 153.789 1885.37C158.573 1885.76 163.38 1892.01 168.261 1892.97C176.617 1894.62 184.943 1893.52 193.318 1895.7C199.957 1897.43 206.3 1904.66 212.989 1906.6C232.218 1912.17 252.123 1913.16 271.44 1913.77C282.568 1914.11 293.704 1913.77 304.833 1913.77C318.56 1913.77 331.731 1903.94 345.44 1903.44C363.213 1902.79 380.885 1893.12 398.738 1893.12C414.756 1893.12 430.066 1888.94 446.136 1895.7C458.474 1900.89 471.187 1910.71 483.604 1911.19C501.214 1911.86 519.612 1923.23 536.809 1934.42C540.641 1936.91 547.147 1940.68 550.907 1935.13C554.497 1929.84 555.45 1916.35 559.759 1916.35C564.415 1916.35 568.355 1921.9 572.873 1924.67C574.531 1925.68 581.433 1939.91 582.099 1936.28C583.935 1926.29 584.758 1910.03 585.237 1898.57C585.647 1888.75 586.102 1871.68 589.265 1865.87C590.181 1864.19 591.34 1865.89 592.169 1864.44C594.04 1861.16 593.895 1825.95 594.136 1819.41C594.748 1802.77 594.411 1784.91 593.855 1768.36C592.024 1713.89 591.986 1658.95 590.904 1604.3C590.304 1573.98 589.352 1544.41 589.265 1513.96C589.197 1490.23 588.356 1466.57 588.422 1442.83C588.452 1432.1 590.124 1424.71 590.858 1414.44C593.507 1377.35 592.587 1336.22 593.293 1298.28C593.941 1263.47 594.286 1228.91 595.541 1194.32C597.013 1153.77 594.489 1113.64 594.323 1073.14C594.192 1040.95 594.725 1006.93 592.591 975.34C590.779 948.531 590.524 921.424 588.61 894.461C587.936 884.981 586.899 872.214 587.626 862.195C588.279 853.191 589.799 843.736 590.483 834.375C591.702 817.691 591.321 801.765 591.841 785.045C592.625 759.849 592.637 734.694 592.637 709.184C592.637 679.486 594.323 650.574 594.323 621.422C594.323 574.111 592.637 527.138 592.637 480.027C592.637 448.375 590.951 418.609 590.951 386.815L590.951 287.007C590.951 258.361 586.588 229.971 588.844 200.966C589.933 186.956 589.265 170.948 589.265 156.798C589.265 141.235 590.108 125.825 590.108 110.479C590.108 72.7913 592.455 33.1915 589.687 -4.10011C588.117 -25.2479 588.446 -47.1877 587.532 -68.6313C587.366 -72.5407 584.73 -108.127 583.645 -109.358C579.217 -114.379 569.828 -111.764 564.817 -109.358C554.862 -104.576 545.082 -109.931 535.123 -109.931C529.602 -109.931 523.996 -105.81 518.497 -107.493C513.985 -108.875 510.672 -119.951 505.992 -120.256C495.645 -120.93 485.587 -115.094 475.268 -115.094C469.017 -115.094 463.202 -109.931 456.908 -109.931C450.704 -109.931 444.645 -109.137 438.455 -107.924C419.678 -104.244 400.834 -109.931 382.065 -109.931C372.603 -109.931 362.976 -107.624 353.683 -113.66C346.923 -118.05 339.912 -122.837 332.982 -122.837C327.918 -122.837 323.553 -119.045 318.65 -116.241C314.692 -113.977 310.644 -115.876 306.66 -114.52C300.362 -112.378 294.64 -109.931 288.254 -109.931L254.954 -109.931C222.725 -109.931 194.57 -44.6461 161.47 -59.7403C152.81 -63.6892 144.452 -73.6939 135.71 -75.8014C126.667 -77.9818 117.432 -76.375 108.358 -76.375C103.268 -76.375 98.2943 -80.3502 93.3711 -84.1188C86.6262 -89.2818 79.0989 -89.2815 72.1547 -89.2813L72.0141 -89.2813C63.5884 -89.2813 55.2104 -84.1188 46.8166 -84.1188C43.8017 -84.1188 40.8499 -85.2787 37.9179 -87.2736C33.3333 -90.393 30.9747 -103.739 27.052 -111.078C21.676 -121.138 17.0869 -120.256 10.9406 -120.256C2.70671 -120.256 -4.85471 -105.714 -12.8518 -110.505C-21.0183 -115.397 -29.4888 -107.759 -37.7683 -107.35C-49.4799 -106.772 -61.3258 -100.109 -72.9886 -99.6063C-82.2014 -99.209 -91.3514 -97.025 -100.528 -97.025C-105.016 -97.025 -108.955 -102.188 -113.454 -102.188C-119.282 -102.188 -124.323 -94.4438 -130.034 -94.4438C-135.013 -94.4438 -139.765 -93.4296 -144.647 -92.0059C-147.458 -91.1862 -150.177 -91.3447 -152.796 -94.4438C-157.278 -99.7454 -161.696 -99.6489 -166.144 -103.622Z" fill="#F4F1E6"/>
</svg>
