<svg width="51" height="38" viewBox="0 0 51 38" fill="none" xmlns="http://www.w3.org/2000/svg">
<g clip-path="url(#clip0_1_29395)">
<path fill-rule="evenodd" clip-rule="evenodd" d="M26.7698 34.3999L29.7598 36.9299L32.1898 36.8599L37.0898 32.7299L41.6798 28.2799L46.2098 23.7699L50.5298 18.9999L45.9598 14.5199L41.5998 9.83986L37.0598 5.33986L32.1998 1.12986L29.5298 0.859863L27.1498 3.43986L32.8298 8.86986L39.0898 13.7299L45.0998 18.9999L39.0598 24.2299L32.9498 29.2699L26.7598 34.3899L26.7698 34.3999ZM28.5498 3.57986L34.9398 8.44986L41.0298 13.5599L46.6298 18.9999L40.6098 23.9399L34.5698 29.1199L28.7398 34.5499L30.4698 36.1999L31.6998 36.3599L37.4198 30.5999L42.8398 24.5299L48.8798 18.9999L42.9398 13.3799L37.4998 7.32986L31.4698 1.86986L30.5098 1.83986L28.5498 3.57986Z" fill="#191411"/>
<path d="M27.6598 26.2499L29.1198 25.6399L34.2198 20.3999L34.8498 19.0099L34.2098 17.6299L29.0498 12.4499L26.2298 12.4199L21.1498 17.6899L20.5598 19.0199L21.0298 20.4699L26.2198 25.6199L27.6498 26.2599L27.6598 26.2499ZM33.3398 18.4899L33.5598 18.9999L33.4098 19.5899L28.1998 24.7299L27.0498 24.7799L21.8898 19.5999L21.6898 19.0199L21.8198 18.3699L27.0198 13.2299L28.1698 13.3199L33.3298 18.4999L33.3398 18.4899Z" fill="#191411"/>
<path d="M27.6598 22.3203L31.0298 19.0003L27.6598 15.5503L24.5198 19.0003L27.6598 22.3203ZM28.6798 19.0003L27.6598 19.9603L26.7798 19.0003L27.6598 17.8003L28.6798 19.0003Z" fill="#191411"/>
<path d="M21.0098 18.7603L14.0098 18.7903L7.00978 18.9703L0.00978088 18.9803" stroke="#191411" stroke-width="1.5"/>
</g>
<defs>
<clipPath id="clip0_1_29395">
<rect width="50.53" height="37.34" fill="white" transform="matrix(-1 0 0 1 50.5298 0.330078)"/>
</clipPath>
</defs>
</svg>
