<svg width="64" height="64" viewBox="0 0 64 64" fill="none" xmlns="http://www.w3.org/2000/svg">
<mask id="path-1-inside-1_1_28875" fill="white">
<path d="M60.5177 0.755189C60.8004 0.656697 61.2191 0.53896 61.5239 0.369887C61.6593 0.294739 61.7954 0.217043 61.9438 0.17272C62.3062 0.0645092 62.7218 0.151072 62.7949 0.522115C62.8146 0.62207 62.8315 0.73179 62.8569 0.852919C63.0134 1.60085 62.972 2.35797 63.0242 3.11849C63.1845 5.45399 63.2058 7.78258 63.4742 10.1106C63.7335 12.3597 63.861 14.6109 63.861 16.8807C63.861 21.4695 64.0414 26.047 63.9912 30.6385C63.9721 32.3789 63.9275 34.1299 63.8312 35.867C63.7549 37.245 63.5668 38.5998 63.4519 39.9717C63.3489 41.2021 63.384 42.4552 63.3961 43.6899C63.411 45.2124 63.5531 46.7198 63.6193 48.2388C63.6805 49.6438 63.6602 51.0527 63.6602 52.459C63.6602 54.3244 63.6453 56.1879 63.7122 58.0518C63.7602 59.3875 63.9921 60.7378 63.9242 62.0765C63.8898 62.7543 63.391 62.6501 62.9684 62.8495C62.5486 63.0476 62.222 63.0262 61.7895 62.8895C61.3476 62.7497 61.0297 62.87 60.5809 62.9117C59.7031 62.9931 58.7668 62.9269 57.9032 62.7518C57.3568 62.6409 56.8561 62.6189 56.2967 62.6096C55.8625 62.6024 55.4413 62.4922 55.0025 62.5341C54.658 62.567 54.4397 62.9225 54.0727 62.9295C53.8206 62.9342 53.5489 62.959 53.2992 62.9117C53.1171 62.8772 52.9702 62.7359 52.7897 62.6985C52.6243 62.6641 52.5818 62.8008 52.4401 62.8406C52.2591 62.8915 52.0331 62.8495 51.8488 62.8495C51.2758 62.8495 50.7101 62.6541 50.1418 62.694C49.6133 62.7311 49.1604 63.0045 48.6208 63.0094C47.8152 63.0168 46.9567 63.1938 46.1588 63.0494C45.6366 62.9549 45.0791 63.1154 44.5671 62.9561C44.2047 62.8434 43.9073 62.6953 43.5258 62.6896C43.3152 62.6864 43.1135 62.6863 42.9047 62.6496C41.7501 62.4468 40.5809 62.6096 39.4238 62.6096C38.9491 62.6096 38.5669 62.4542 38.1036 62.3875C37.5759 62.3116 37.017 62.3697 36.4858 62.3697C36.0289 62.3697 35.5703 62.3554 35.1135 62.3697C34.7337 62.3817 34.3519 62.5753 33.9644 62.6052C33.3009 62.6563 32.6397 62.622 31.9747 62.6896C31.4476 62.7432 30.9439 62.9671 30.4128 63.0272C28.8859 63.2 27.3054 63.2306 25.7715 63.2493C24.8879 63.2601 24.0036 63.2493 23.1199 63.2493C22.03 63.2493 20.9842 62.9449 19.8956 62.9295C18.4843 62.9094 17.0811 62.6096 15.6634 62.6096C14.3916 62.6096 13.1759 62.4801 11.8999 62.6896C10.9202 62.8504 9.91069 63.1546 8.92471 63.1693C7.52641 63.1902 6.06554 63.5424 4.69999 63.889C4.39571 63.9662 3.8791 64.0829 3.58059 63.9112C3.29548 63.7472 3.21986 63.3293 2.87771 63.3293C2.50798 63.3293 2.19513 63.5012 1.8364 63.5869C1.70474 63.6184 1.1567 64.0591 1.10377 63.9467C0.95799 63.6372 0.89264 63.1336 0.854604 62.7784C0.822049 62.4744 0.78597 61.9456 0.534772 61.7656C0.46203 61.7134 0.370042 61.7661 0.304197 61.7212C0.155629 61.6197 0.167108 60.5289 0.148 60.3263C0.099397 59.811 0.126138 59.2575 0.170316 58.7448C0.315729 57.0575 0.318723 55.3556 0.404611 53.6628C0.452264 52.7236 0.527845 51.8073 0.534773 50.8642C0.54017 50.1292 0.606928 49.396 0.601713 48.6608C0.599355 48.3285 0.466577 48.0993 0.408331 47.7813C0.197939 46.6324 0.270983 45.3582 0.214941 44.183C0.163519 43.1047 0.136129 42.0341 0.0364362 40.9623C-0.0804079 39.7062 0.120001 38.4631 0.133127 37.2086C0.143561 36.2115 0.101214 35.1576 0.270728 34.179C0.414572 33.3485 0.434821 32.5088 0.586833 31.6735C0.64028 31.3799 0.722678 30.9844 0.664935 30.674C0.613043 30.3951 0.492381 30.1022 0.438082 29.8122C0.3413 29.2954 0.371527 28.802 0.330229 28.284C0.268004 27.5036 0.267009 26.7243 0.267009 25.9341C0.267009 25.0141 0.133128 24.1185 0.133128 23.2154C0.133128 21.7498 0.267009 20.2947 0.267009 18.8353C0.267009 17.8548 0.400893 16.9327 0.400893 15.9478L0.400894 12.856C0.400894 11.9686 0.747344 11.0891 0.568244 10.1906C0.481742 9.75663 0.534774 9.26072 0.534774 8.82238C0.534774 8.34027 0.467834 7.86291 0.467834 7.38752C0.467834 6.22006 0.281505 4.99334 0.501304 3.83813C0.62595 3.18303 0.599838 2.50338 0.672375 1.8391C0.6856 1.718 0.894901 0.615606 0.981049 0.577495C1.33268 0.42193 2.07814 0.502936 2.47606 0.577495C3.26659 0.725617 4.0431 0.559726 4.83388 0.559726C5.27226 0.559726 5.71748 0.6874 6.1541 0.635245C6.51238 0.592449 6.77544 0.249326 7.14706 0.239881C7.96865 0.219 8.76727 0.399804 9.58669 0.399804C10.083 0.399804 10.5447 0.559726 11.0445 0.559726C11.5372 0.559726 12.0183 0.584342 12.5098 0.621918C14.0008 0.735901 15.4971 0.559726 16.9874 0.559726C17.7387 0.559726 18.5032 0.631201 19.2411 0.444227C19.7778 0.308223 20.3345 0.15992 20.8848 0.159921C21.2869 0.159921 21.6335 0.27739 22.0229 0.364266C22.3371 0.434391 22.6585 0.375582 22.9749 0.417573C23.475 0.483942 23.9293 0.559727 24.4364 0.559727L27.0806 0.559727C29.6397 0.559727 31.8753 2.58211 34.5036 2.11453C35.1912 1.9922 35.8549 1.68228 36.5491 1.61699C37.2672 1.54945 38.0004 1.59922 38.7209 1.59922C39.1252 1.59922 39.5201 1.47608 39.911 1.35934C40.4466 1.1994 41.0443 1.19941 41.5957 1.19942L41.6068 1.19942C42.2759 1.19942 42.9411 1.35934 43.6076 1.35934C43.847 1.35934 44.0814 1.32341 44.3142 1.26161C44.6783 1.16498 44.8655 0.751558 45.177 0.524189C45.6039 0.212577 45.9683 0.239883 46.4563 0.239883C47.1101 0.239883 47.7105 0.690364 48.3456 0.541959C48.994 0.390411 49.6666 0.627023 50.324 0.639689C51.254 0.657606 52.1946 0.863992 53.1207 0.879573C53.8522 0.89188 54.5788 0.959534 55.3074 0.959534C55.6638 0.959534 55.9766 0.799612 56.3339 0.799612C56.7966 0.799612 57.1969 1.0395 57.6504 1.0395C58.0457 1.0395 58.423 1.07091 58.8107 1.11501C59.0339 1.14041 59.2497 1.1355 59.4578 1.0395C59.8136 0.875265 60.1644 0.878252 60.5177 0.755189Z"/>
</mask>
<path d="M60.5177 0.755189C60.8004 0.656697 61.2191 0.53896 61.5239 0.369887C61.6593 0.294739 61.7954 0.217043 61.9438 0.17272C62.3062 0.0645092 62.7218 0.151072 62.7949 0.522115C62.8146 0.62207 62.8315 0.73179 62.8569 0.852919C63.0134 1.60085 62.972 2.35797 63.0242 3.11849C63.1845 5.45399 63.2058 7.78258 63.4742 10.1106C63.7335 12.3597 63.861 14.6109 63.861 16.8807C63.861 21.4695 64.0414 26.047 63.9912 30.6385C63.9721 32.3789 63.9275 34.1299 63.8312 35.867C63.7549 37.245 63.5668 38.5998 63.4519 39.9717C63.3489 41.2021 63.384 42.4552 63.3961 43.6899C63.411 45.2124 63.5531 46.7198 63.6193 48.2388C63.6805 49.6438 63.6602 51.0527 63.6602 52.459C63.6602 54.3244 63.6453 56.1879 63.7122 58.0518C63.7602 59.3875 63.9921 60.7378 63.9242 62.0765C63.8898 62.7543 63.391 62.6501 62.9684 62.8495C62.5486 63.0476 62.222 63.0262 61.7895 62.8895C61.3476 62.7497 61.0297 62.87 60.5809 62.9117C59.7031 62.9931 58.7668 62.9269 57.9032 62.7518C57.3568 62.6409 56.8561 62.6189 56.2967 62.6096C55.8625 62.6024 55.4413 62.4922 55.0025 62.5341C54.658 62.567 54.4397 62.9225 54.0727 62.9295C53.8206 62.9342 53.5489 62.959 53.2992 62.9117C53.1171 62.8772 52.9702 62.7359 52.7897 62.6985C52.6243 62.6641 52.5818 62.8008 52.4401 62.8406C52.2591 62.8915 52.0331 62.8495 51.8488 62.8495C51.2758 62.8495 50.7101 62.6541 50.1418 62.694C49.6133 62.7311 49.1604 63.0045 48.6208 63.0094C47.8152 63.0168 46.9567 63.1938 46.1588 63.0494C45.6366 62.9549 45.0791 63.1154 44.5671 62.9561C44.2047 62.8434 43.9073 62.6953 43.5258 62.6896C43.3152 62.6864 43.1135 62.6863 42.9047 62.6496C41.7501 62.4468 40.5809 62.6096 39.4238 62.6096C38.9491 62.6096 38.5669 62.4542 38.1036 62.3875C37.5759 62.3116 37.017 62.3697 36.4858 62.3697C36.0289 62.3697 35.5703 62.3554 35.1135 62.3697C34.7337 62.3817 34.3519 62.5753 33.9644 62.6052C33.3009 62.6563 32.6397 62.622 31.9747 62.6896C31.4476 62.7432 30.9439 62.9671 30.4128 63.0272C28.8859 63.2 27.3054 63.2306 25.7715 63.2493C24.8879 63.2601 24.0036 63.2493 23.1199 63.2493C22.03 63.2493 20.9842 62.9449 19.8956 62.9295C18.4843 62.9094 17.0811 62.6096 15.6634 62.6096C14.3916 62.6096 13.1759 62.4801 11.8999 62.6896C10.9202 62.8504 9.91069 63.1546 8.92471 63.1693C7.52641 63.1902 6.06554 63.5424 4.69999 63.889C4.39571 63.9662 3.8791 64.0829 3.58059 63.9112C3.29548 63.7472 3.21986 63.3293 2.87771 63.3293C2.50798 63.3293 2.19513 63.5012 1.8364 63.5869C1.70474 63.6184 1.1567 64.0591 1.10377 63.9467C0.95799 63.6372 0.89264 63.1336 0.854604 62.7784C0.822049 62.4744 0.78597 61.9456 0.534772 61.7656C0.46203 61.7134 0.370042 61.7661 0.304197 61.7212C0.155629 61.6197 0.167108 60.5289 0.148 60.3263C0.099397 59.811 0.126138 59.2575 0.170316 58.7448C0.315729 57.0575 0.318723 55.3556 0.404611 53.6628C0.452264 52.7236 0.527845 51.8073 0.534773 50.8642C0.54017 50.1292 0.606928 49.396 0.601713 48.6608C0.599355 48.3285 0.466577 48.0993 0.408331 47.7813C0.197939 46.6324 0.270983 45.3582 0.214941 44.183C0.163519 43.1047 0.136129 42.0341 0.0364362 40.9623C-0.0804079 39.7062 0.120001 38.4631 0.133127 37.2086C0.143561 36.2115 0.101214 35.1576 0.270728 34.179C0.414572 33.3485 0.434821 32.5088 0.586833 31.6735C0.64028 31.3799 0.722678 30.9844 0.664935 30.674C0.613043 30.3951 0.492381 30.1022 0.438082 29.8122C0.3413 29.2954 0.371527 28.802 0.330229 28.284C0.268004 27.5036 0.267009 26.7243 0.267009 25.9341C0.267009 25.0141 0.133128 24.1185 0.133128 23.2154C0.133128 21.7498 0.267009 20.2947 0.267009 18.8353C0.267009 17.8548 0.400893 16.9327 0.400893 15.9478L0.400894 12.856C0.400894 11.9686 0.747344 11.0891 0.568244 10.1906C0.481742 9.75663 0.534774 9.26072 0.534774 8.82238C0.534774 8.34027 0.467834 7.86291 0.467834 7.38752C0.467834 6.22006 0.281505 4.99334 0.501304 3.83813C0.62595 3.18303 0.599838 2.50338 0.672375 1.8391C0.6856 1.718 0.894901 0.615606 0.981049 0.577495C1.33268 0.42193 2.07814 0.502936 2.47606 0.577495C3.26659 0.725617 4.0431 0.559726 4.83388 0.559726C5.27226 0.559726 5.71748 0.6874 6.1541 0.635245C6.51238 0.592449 6.77544 0.249326 7.14706 0.239881C7.96865 0.219 8.76727 0.399804 9.58669 0.399804C10.083 0.399804 10.5447 0.559726 11.0445 0.559726C11.5372 0.559726 12.0183 0.584342 12.5098 0.621918C14.0008 0.735901 15.4971 0.559726 16.9874 0.559726C17.7387 0.559726 18.5032 0.631201 19.2411 0.444227C19.7778 0.308223 20.3345 0.15992 20.8848 0.159921C21.2869 0.159921 21.6335 0.27739 22.0229 0.364266C22.3371 0.434391 22.6585 0.375582 22.9749 0.417573C23.475 0.483942 23.9293 0.559727 24.4364 0.559727L27.0806 0.559727C29.6397 0.559727 31.8753 2.58211 34.5036 2.11453C35.1912 1.9922 35.8549 1.68228 36.5491 1.61699C37.2672 1.54945 38.0004 1.59922 38.7209 1.59922C39.1252 1.59922 39.5201 1.47608 39.911 1.35934C40.4466 1.1994 41.0443 1.19941 41.5957 1.19942L41.6068 1.19942C42.2759 1.19942 42.9411 1.35934 43.6076 1.35934C43.847 1.35934 44.0814 1.32341 44.3142 1.26161C44.6783 1.16498 44.8655 0.751558 45.177 0.524189C45.6039 0.212577 45.9683 0.239883 46.4563 0.239883C47.1101 0.239883 47.7105 0.690364 48.3456 0.541959C48.994 0.390411 49.6666 0.627023 50.324 0.639689C51.254 0.657606 52.1946 0.863992 53.1207 0.879573C53.8522 0.89188 54.5788 0.959534 55.3074 0.959534C55.6638 0.959534 55.9766 0.799612 56.3339 0.799612C56.7966 0.799612 57.1969 1.0395 57.6504 1.0395C58.0457 1.0395 58.423 1.07091 58.8107 1.11501C59.0339 1.14041 59.2497 1.1355 59.4578 1.0395C59.8136 0.875265 60.1644 0.878252 60.5177 0.755189Z" fill="#F2EFE1" stroke="#191411" stroke-width="3" mask="url(#path-1-inside-1_1_28875)"/>
<path d="M30.8513 23.6289H33.1951V40H30.8513V23.6289Z" fill="#191411"/>
</svg>
