<svg width="56" height="64" viewBox="0 0 56 64" fill="none" xmlns="http://www.w3.org/2000/svg">
<mask id="path-1-inside-1_1_28884" fill="white">
<path d="M52.953 0.755189C53.2043 0.655128 53.5785 0.535204 53.8461 0.361768C53.9566 0.290152 54.0685 0.217872 54.1931 0.175339C54.5101 0.0671795 54.8765 0.150197 54.9379 0.479377C54.9587 0.590588 54.9744 0.714281 54.9998 0.852919C55.1367 1.60085 55.1005 2.35797 55.1462 3.11849C55.2864 5.45399 55.3051 7.78258 55.5399 10.1106C55.7668 12.3597 55.8784 14.6109 55.8784 16.8807C55.8784 21.4695 56.0362 26.047 55.9923 30.6385C55.9756 32.3789 55.9365 34.1299 55.8523 35.867C55.7855 37.245 55.6209 38.5998 55.5204 39.9717C55.4303 41.2021 55.461 42.4552 55.4716 43.6899C55.4847 45.2124 55.609 46.7198 55.6669 48.2388C55.7204 49.6438 55.7027 51.0527 55.7027 52.459C55.7027 54.3244 55.6896 56.1879 55.7482 58.0518C55.7902 59.3875 55.9931 60.7378 55.9337 62.0765C55.9036 62.7543 55.4671 62.6501 55.0974 62.8495C54.73 63.0476 54.4442 63.0262 54.0659 62.8895C53.6792 62.7497 53.401 62.87 53.0083 62.9117C52.2402 62.9931 51.421 62.9269 50.6653 62.7518C50.1872 62.6409 49.7491 62.6189 49.2596 62.6096C48.8797 62.6024 48.5111 62.4922 48.1272 62.5341C47.8258 62.567 47.6347 62.9225 47.3136 62.9295C47.0931 62.9342 46.8553 62.959 46.6368 62.9117C46.4775 62.8772 46.3489 62.736 46.191 62.6985C46.0463 62.6641 46.0091 62.8008 45.8851 62.8406C45.7267 62.8915 45.5289 62.8495 45.3677 62.8495C44.8663 62.8495 44.3713 62.6541 43.8741 62.694C43.4117 62.7311 43.0154 63.0045 42.5432 63.0094C41.8383 63.0168 41.0871 63.1938 40.389 63.0494C39.932 62.9549 39.4442 63.1154 38.9962 62.9561C38.6791 62.8434 38.4189 62.6953 38.0851 62.6896C37.9008 62.6864 37.7243 62.6863 37.5416 62.6496C36.5313 62.4468 35.5083 62.6096 34.4958 62.6096C34.0805 62.6096 33.7461 62.4542 33.3406 62.3875C32.8789 62.3116 32.3899 62.3697 31.9251 62.3697C31.5253 62.3697 31.124 62.3554 30.7243 62.3697C30.3919 62.3817 30.0579 62.5753 29.7188 62.6052C29.1383 62.6563 28.5598 62.622 27.9779 62.6896C27.5166 62.7432 27.0759 62.9671 26.6112 63.0272C25.2752 63.2 23.8922 63.2306 22.5501 63.2493C21.7769 63.2601 21.0032 63.2493 20.2299 63.2493C19.2762 63.2493 18.3611 62.9449 17.4087 62.9295C16.1738 62.9094 14.9459 62.6096 13.7055 62.6096C12.5926 62.6096 11.5289 62.4801 10.4124 62.6896C9.55515 62.8504 8.67185 63.1546 7.80913 63.1693C6.58561 63.1902 5.30735 63.5424 4.11249 63.889C3.84625 63.9662 3.39422 64.0829 3.13301 63.9112C2.88355 63.7472 2.81737 63.3293 2.51799 63.3293C2.19449 63.3293 1.92074 63.5012 1.60685 63.5869C1.49164 63.6184 1.01211 64.0591 0.965795 63.9467C0.838239 63.6372 0.781057 63.1336 0.747777 62.7784C0.719293 62.4744 0.687722 61.9456 0.467923 61.7656C0.404275 61.7134 0.323785 61.7661 0.266172 61.7212C0.136174 61.6197 0.146219 60.5289 0.129499 60.3263C0.0869725 59.811 0.110368 59.2575 0.149026 58.7448C0.276262 57.0575 0.278882 55.3556 0.354032 53.6628C0.395731 52.7236 0.461866 51.8073 0.467924 50.8642C0.472646 50.1292 0.531061 49.396 0.526499 48.6608C0.524435 48.3285 0.408254 48.0993 0.357286 47.7813C0.173197 46.6324 0.237108 45.3582 0.18807 44.183C0.14308 43.1047 0.119112 42.0341 0.0318814 40.9623C-0.07036 39.7062 0.104998 38.4631 0.116488 37.2086C0.125616 36.2115 0.0885643 35.1576 0.236887 34.179C0.36275 33.3485 0.380465 32.5088 0.51348 31.6735C0.560244 31.3799 0.632342 30.9844 0.581816 30.674C0.53641 30.3951 0.430834 30.1022 0.383322 29.8122C0.298636 29.2954 0.325087 28.802 0.288951 28.284C0.2345 27.5036 0.233634 26.7243 0.233634 25.9341C0.233634 25.0141 0.116488 24.1185 0.116488 23.2154C0.116488 21.7498 0.233634 20.2947 0.233634 18.8353C0.233634 17.8548 0.35078 16.9327 0.35078 15.9478L0.35078 12.856C0.35078 11.9686 0.653923 11.0891 0.497211 10.1906C0.421524 9.75663 0.467926 9.26072 0.467926 8.82238C0.467926 8.34027 0.409355 7.86291 0.409355 7.38752C0.409355 6.22006 0.246319 4.99334 0.43864 3.83813C0.547703 3.18303 0.52486 2.50338 0.588329 1.83911C0.599899 1.718 0.783039 0.615607 0.858417 0.577495C1.1661 0.42193 1.81838 0.502936 2.16655 0.577495C2.85826 0.725617 3.53771 0.559726 4.22964 0.559726C4.61323 0.559726 5.00279 0.6874 5.38484 0.635245C5.69833 0.592449 5.92851 0.249326 6.25368 0.239881C6.97257 0.219001 7.67136 0.399804 8.38836 0.399804C8.82264 0.399804 9.22663 0.559726 9.66395 0.559726C10.095 0.559726 10.516 0.584342 10.9461 0.621918C12.2507 0.735901 13.56 0.559726 14.864 0.559727C15.5214 0.559727 16.1903 0.631201 16.8359 0.444227C17.3056 0.308223 17.7927 0.159921 18.2742 0.159921C18.6261 0.159921 18.9293 0.27739 19.27 0.364266C19.545 0.434391 19.8262 0.375582 20.103 0.417574C20.5406 0.483942 20.9381 0.559727 21.3819 0.559727L23.6955 0.559727C25.9348 0.559727 27.8909 2.58211 30.1907 2.11453C30.7923 1.9922 31.373 1.68228 31.9804 1.61699C32.6088 1.54945 33.2504 1.59922 33.8808 1.59922C34.2345 1.59922 34.58 1.47608 34.9221 1.35934C35.3907 1.1994 35.9137 1.19941 36.3962 1.19942L36.406 1.19942C36.9914 1.19942 37.5735 1.35934 38.1567 1.35934C38.3661 1.35934 38.5712 1.32341 38.7749 1.26161C39.0935 1.16498 39.2573 0.751558 39.5299 0.524189C39.9034 0.212577 40.2223 0.239883 40.6493 0.239883C41.2214 0.239883 41.7467 0.690364 42.3024 0.541959C42.8698 0.390411 43.4583 0.627023 44.0335 0.639689C44.8472 0.657606 45.6703 0.863992 46.4806 0.879573C47.1207 0.89188 47.7564 0.959534 48.394 0.959534C48.7058 0.959534 48.9795 0.799612 49.2921 0.799612C49.697 0.799612 50.0473 1.0395 50.4441 1.0395C50.79 1.0395 51.1201 1.07091 51.4593 1.11501C51.6546 1.14041 51.8435 1.1355 52.0255 1.0395C52.3369 0.875265 52.6439 0.878252 52.953 0.755189Z"/>
</mask>
<path d="M52.953 0.755189C53.2043 0.655128 53.5785 0.535204 53.8461 0.361768C53.9566 0.290152 54.0685 0.217872 54.1931 0.175339C54.5101 0.0671795 54.8765 0.150197 54.9379 0.479377C54.9587 0.590588 54.9744 0.714281 54.9998 0.852919C55.1367 1.60085 55.1005 2.35797 55.1462 3.11849C55.2864 5.45399 55.3051 7.78258 55.5399 10.1106C55.7668 12.3597 55.8784 14.6109 55.8784 16.8807C55.8784 21.4695 56.0362 26.047 55.9923 30.6385C55.9756 32.3789 55.9365 34.1299 55.8523 35.867C55.7855 37.245 55.6209 38.5998 55.5204 39.9717C55.4303 41.2021 55.461 42.4552 55.4716 43.6899C55.4847 45.2124 55.609 46.7198 55.6669 48.2388C55.7204 49.6438 55.7027 51.0527 55.7027 52.459C55.7027 54.3244 55.6896 56.1879 55.7482 58.0518C55.7902 59.3875 55.9931 60.7378 55.9337 62.0765C55.9036 62.7543 55.4671 62.6501 55.0974 62.8495C54.73 63.0476 54.4442 63.0262 54.0659 62.8895C53.6792 62.7497 53.401 62.87 53.0083 62.9117C52.2402 62.9931 51.421 62.9269 50.6653 62.7518C50.1872 62.6409 49.7491 62.6189 49.2596 62.6096C48.8797 62.6024 48.5111 62.4922 48.1272 62.5341C47.8258 62.567 47.6347 62.9225 47.3136 62.9295C47.0931 62.9342 46.8553 62.959 46.6368 62.9117C46.4775 62.8772 46.3489 62.736 46.191 62.6985C46.0463 62.6641 46.0091 62.8008 45.8851 62.8406C45.7267 62.8915 45.5289 62.8495 45.3677 62.8495C44.8663 62.8495 44.3713 62.6541 43.8741 62.694C43.4117 62.7311 43.0154 63.0045 42.5432 63.0094C41.8383 63.0168 41.0871 63.1938 40.389 63.0494C39.932 62.9549 39.4442 63.1154 38.9962 62.9561C38.6791 62.8434 38.4189 62.6953 38.0851 62.6896C37.9008 62.6864 37.7243 62.6863 37.5416 62.6496C36.5313 62.4468 35.5083 62.6096 34.4958 62.6096C34.0805 62.6096 33.7461 62.4542 33.3406 62.3875C32.8789 62.3116 32.3899 62.3697 31.9251 62.3697C31.5253 62.3697 31.124 62.3554 30.7243 62.3697C30.3919 62.3817 30.0579 62.5753 29.7188 62.6052C29.1383 62.6563 28.5598 62.622 27.9779 62.6896C27.5166 62.7432 27.0759 62.9671 26.6112 63.0272C25.2752 63.2 23.8922 63.2306 22.5501 63.2493C21.7769 63.2601 21.0032 63.2493 20.2299 63.2493C19.2762 63.2493 18.3611 62.9449 17.4087 62.9295C16.1738 62.9094 14.9459 62.6096 13.7055 62.6096C12.5926 62.6096 11.5289 62.4801 10.4124 62.6896C9.55515 62.8504 8.67185 63.1546 7.80913 63.1693C6.58561 63.1902 5.30735 63.5424 4.11249 63.889C3.84625 63.9662 3.39422 64.0829 3.13301 63.9112C2.88355 63.7472 2.81737 63.3293 2.51799 63.3293C2.19449 63.3293 1.92074 63.5012 1.60685 63.5869C1.49164 63.6184 1.01211 64.0591 0.965795 63.9467C0.838239 63.6372 0.781057 63.1336 0.747777 62.7784C0.719293 62.4744 0.687722 61.9456 0.467923 61.7656C0.404275 61.7134 0.323785 61.7661 0.266172 61.7212C0.136174 61.6197 0.146219 60.5289 0.129499 60.3263C0.0869725 59.811 0.110368 59.2575 0.149026 58.7448C0.276262 57.0575 0.278882 55.3556 0.354032 53.6628C0.395731 52.7236 0.461866 51.8073 0.467924 50.8642C0.472646 50.1292 0.531061 49.396 0.526499 48.6608C0.524435 48.3285 0.408254 48.0993 0.357286 47.7813C0.173197 46.6324 0.237108 45.3582 0.18807 44.183C0.14308 43.1047 0.119112 42.0341 0.0318814 40.9623C-0.07036 39.7062 0.104998 38.4631 0.116488 37.2086C0.125616 36.2115 0.0885643 35.1576 0.236887 34.179C0.36275 33.3485 0.380465 32.5088 0.51348 31.6735C0.560244 31.3799 0.632342 30.9844 0.581816 30.674C0.53641 30.3951 0.430834 30.1022 0.383322 29.8122C0.298636 29.2954 0.325087 28.802 0.288951 28.284C0.2345 27.5036 0.233634 26.7243 0.233634 25.9341C0.233634 25.0141 0.116488 24.1185 0.116488 23.2154C0.116488 21.7498 0.233634 20.2947 0.233634 18.8353C0.233634 17.8548 0.35078 16.9327 0.35078 15.9478L0.35078 12.856C0.35078 11.9686 0.653923 11.0891 0.497211 10.1906C0.421524 9.75663 0.467926 9.26072 0.467926 8.82238C0.467926 8.34027 0.409355 7.86291 0.409355 7.38752C0.409355 6.22006 0.246319 4.99334 0.43864 3.83813C0.547703 3.18303 0.52486 2.50338 0.588329 1.83911C0.599899 1.718 0.783039 0.615607 0.858417 0.577495C1.1661 0.42193 1.81838 0.502936 2.16655 0.577495C2.85826 0.725617 3.53771 0.559726 4.22964 0.559726C4.61323 0.559726 5.00279 0.6874 5.38484 0.635245C5.69833 0.592449 5.92851 0.249326 6.25368 0.239881C6.97257 0.219001 7.67136 0.399804 8.38836 0.399804C8.82264 0.399804 9.22663 0.559726 9.66395 0.559726C10.095 0.559726 10.516 0.584342 10.9461 0.621918C12.2507 0.735901 13.56 0.559726 14.864 0.559727C15.5214 0.559727 16.1903 0.631201 16.8359 0.444227C17.3056 0.308223 17.7927 0.159921 18.2742 0.159921C18.6261 0.159921 18.9293 0.27739 19.27 0.364266C19.545 0.434391 19.8262 0.375582 20.103 0.417574C20.5406 0.483942 20.9381 0.559727 21.3819 0.559727L23.6955 0.559727C25.9348 0.559727 27.8909 2.58211 30.1907 2.11453C30.7923 1.9922 31.373 1.68228 31.9804 1.61699C32.6088 1.54945 33.2504 1.59922 33.8808 1.59922C34.2345 1.59922 34.58 1.47608 34.9221 1.35934C35.3907 1.1994 35.9137 1.19941 36.3962 1.19942L36.406 1.19942C36.9914 1.19942 37.5735 1.35934 38.1567 1.35934C38.3661 1.35934 38.5712 1.32341 38.7749 1.26161C39.0935 1.16498 39.2573 0.751558 39.5299 0.524189C39.9034 0.212577 40.2223 0.239883 40.6493 0.239883C41.2214 0.239883 41.7467 0.690364 42.3024 0.541959C42.8698 0.390411 43.4583 0.627023 44.0335 0.639689C44.8472 0.657606 45.6703 0.863992 46.4806 0.879573C47.1207 0.89188 47.7564 0.959534 48.394 0.959534C48.7058 0.959534 48.9795 0.799612 49.2921 0.799612C49.697 0.799612 50.0473 1.0395 50.4441 1.0395C50.79 1.0395 51.1201 1.07091 51.4593 1.11501C51.6546 1.14041 51.8435 1.1355 52.0255 1.0395C52.3369 0.875265 52.6439 0.878252 52.953 0.755189Z" fill="#DBD6C2" stroke="#191411" stroke-width="3" mask="url(#path-1-inside-1_1_28884)"/>
<path d="M30.1863 43.9224C30.3115 43.9601 30.2489 44 30.0263 44C29.3236 44 29.0662 43.6433 29.6089 43.3832C30.0263 43.1901 29.9915 43.123 29.5115 43.0265C29.1288 42.9594 29.0941 42.9111 29.3863 42.9111C29.6715 42.9111 29.7689 42.8335 29.6089 42.7076C29.4489 42.5733 29.2889 42.5523 29.1915 42.6489C29.0941 42.7265 28.8714 42.7559 28.6488 42.716C28.4262 42.6782 28.4262 42.5817 28.7114 42.4747C28.9688 42.3887 29.3515 42.3404 29.5463 42.3782C29.7411 42.4076 29.9011 42.3887 29.9011 42.3111C29.9011 42.2439 29.7063 42.1852 29.4836 42.1852C29.2262 42.1852 29.2262 42.1076 29.5184 41.9334C29.7759 41.7991 29.8733 41.5663 29.7759 41.4215C29.6506 41.1991 29.6158 41.2096 29.5532 41.4802C29.4906 41.8956 28.8784 42.0194 28.5931 41.6921C28.4679 41.5474 28.6558 41.3439 29.0106 41.2096C29.7758 40.9389 30.0959 40.4291 29.5532 40.3221C29.3306 40.2843 29.2332 40.3515 29.2958 40.4962C29.3932 40.641 29.261 40.7375 28.9132 40.7375C28.2383 40.7375 28.5931 40.2655 29.3584 40.1689C29.6437 40.1396 29.9011 40.062 29.9011 40.0053C29.9011 39.9466 29.6437 39.9277 29.3584 39.9675C29.0384 40.0053 28.6558 39.978 28.5305 39.9004C28.3705 39.8333 28.4958 39.7745 28.7532 39.7745C29.0106 39.7745 29.1358 39.7451 29.0106 39.6969C28.8506 39.6591 29.0106 39.5416 29.3306 39.4451C29.6506 39.3486 29.908 39.1262 29.8732 38.9542C29.8385 38.6646 29.8106 38.6541 29.5184 38.8681C29.101 39.1472 29.0732 39.1283 28.941 38.6562C28.8436 38.415 28.941 38.3562 29.3236 38.4527C29.7063 38.5492 29.8663 38.4716 29.9985 38.1443C30.0611 37.903 29.9985 37.6807 29.8385 37.6534C29.6785 37.624 29.6437 37.5086 29.8106 37.4016C30.0054 37.2463 29.8732 37.2191 29.268 37.2862C28.5305 37.3638 28.5305 37.3533 29.268 37.1897C30.0333 37.0072 29.7828 36.6988 28.9827 36.8435C28.6627 36.9023 28.6627 36.8729 29.0175 36.747C29.2749 36.64 29.4002 36.5246 29.2401 36.4764C29.1149 36.4386 29.2054 36.3987 29.4628 36.3987C29.7202 36.3987 29.908 36.34 29.908 36.2729C29.908 36.2057 29.6854 36.1868 29.3932 36.2246C29.0106 36.2917 29.0106 36.2833 29.3932 36.147C30.0333 35.9435 30.0681 35.4336 29.4558 35.4336C29.1358 35.4336 29.1706 35.3749 29.5184 35.2511C29.9011 35.1063 29.9011 35.0686 29.4558 35.0686C29.0106 35.0686 29.0106 35.0497 29.4558 34.9721C29.8733 34.886 29.8732 34.8567 29.421 34.7979C28.9062 34.7392 28.8436 34.5273 29.0662 33.5244C29.101 33.4384 29.2889 33.409 29.5115 33.4468C30.1167 33.5622 29.9567 32.9936 29.2888 32.7334C28.9688 32.5992 28.7114 32.5593 28.7114 32.6369C28.7114 32.7145 28.5166 32.7817 28.294 32.7817C28.0714 32.7817 28.0992 32.6663 28.3566 32.4817C28.614 32.318 28.9967 32.2215 29.2541 32.2593C29.5393 32.3075 29.5115 32.2781 29.2262 32.1816C28.9062 32.0746 28.8714 31.9299 29.1289 31.718C29.3863 31.5145 29.3863 31.3697 29.1289 31.2942C28.621 31.1389 28.5514 30.927 29.0662 31.0235C29.261 31.0613 29.3236 30.9753 29.1915 30.841C29.0314 30.648 28.9062 30.6291 28.614 30.755C28.3566 30.862 28.3566 30.8137 28.5514 30.6102C28.934 30.1948 29.0314 29.5192 28.6766 29.5884C28.5166 29.6178 28.294 29.5402 28.1688 29.4059C28.0714 29.2716 28.1062 29.1353 28.294 29.1059C28.454 29.0765 28.6766 28.9024 28.8019 28.7387C28.9271 28.5079 28.8366 28.4387 28.4471 28.487C28.127 28.5247 27.9044 28.5058 27.9044 28.4492C27.9044 28.3905 28.1896 28.3044 28.5792 28.2667C29.1845 28.1995 29.1845 28.1702 28.6766 28.0631C28.2314 27.9666 28.2314 27.9289 28.5792 27.8806C29.2193 27.803 29.2541 27.5806 28.6418 27.6288C28.3844 27.6393 28.0992 27.5806 28.0018 27.4841C27.8418 27.3687 27.967 27.3498 28.3566 27.417C28.8019 27.503 28.8019 27.4946 28.3566 27.3204C28.0366 27.205 27.9114 27.1169 28.0714 27.1169C28.2314 27.1169 28.1688 27.0204 27.9461 26.905C27.6887 26.7708 27.7235 26.6155 28.0088 26.4518C28.5862 26.1245 28.774 25.5749 28.3288 25.4867C28.134 25.4574 28.0435 25.5455 28.134 25.6986C28.294 25.9504 28.294 25.9504 27.9392 25.728C27.7444 25.5937 27.6539 25.449 27.7444 25.4007C27.8418 25.3629 27.7096 25.2853 27.487 25.2455C26.9722 25.1489 27.3617 24.937 28.0296 24.9454C28.287 24.9454 28.2523 24.9937 27.9044 25.0608C27.3965 25.1573 27.3965 25.1762 28.0018 25.1762C28.5444 25.1762 28.6766 25.0986 28.6071 24.8279C28.5723 24.6349 28.4123 24.4797 28.2523 24.5007C28.0922 24.5111 27.967 24.4629 27.967 24.3936C27.967 24.3265 28.127 24.2866 28.287 24.2971C28.7323 24.3349 28.5723 23.6887 28.0922 23.5838C27.8348 23.5251 27.8974 23.4978 28.2175 23.4978C28.6627 23.4978 28.6627 23.439 28.1896 23.2187C27.7374 23.0152 27.6748 22.881 27.967 22.7173C28.3218 22.5348 28.2523 22.5138 27.4244 22.583C26.9165 22.6313 26.6869 22.6208 26.9165 22.5641C27.8766 22.3334 28.2592 21.8508 27.7166 21.5319C27.3339 21.3095 27.2991 21.2319 27.6539 21.2717C27.9113 21.3095 28.134 21.234 28.134 21.0976C28.134 20.9633 27.974 20.8857 27.814 20.9235C27.6192 20.9528 27.5287 20.827 27.5565 20.6339C27.6192 20.4514 27.5218 20.229 27.3618 20.143C26.9165 19.9206 25.9564 19.9688 25.9216 20.2101C25.9216 20.3255 25.859 20.9822 25.7964 21.6662C25.699 22.3417 25.7616 22.9292 25.9216 22.9586C26.0469 22.988 26.0816 23.2103 25.9564 23.46C25.7964 23.7118 25.7338 24.4629 25.7616 25.1196C25.859 27.6855 26.4365 33.8874 26.6869 35.0077C26.6869 35.0749 26.6243 35.4315 26.5269 35.7987C26.4295 36.2141 26.5269 36.4932 26.8469 36.5414C27.167 36.6085 27.167 36.6379 26.8469 36.6379C26.4921 36.6379 26.3669 37.5925 26.3669 40.1501" fill="#191411"/>
<path d="M16.0776 34.1863C16.0399 34.3115 16 34.2489 16 34.0263C16 33.3236 16.3567 33.0662 16.6168 33.6089C16.8099 34.0263 16.877 33.9915 16.9735 33.5115C17.0406 33.1288 17.0889 33.0941 17.0889 33.3863C17.0889 33.6715 17.1665 33.7689 17.2924 33.6089C17.4267 33.4489 17.4477 33.2889 17.3511 33.1915C17.2735 33.0941 17.2441 32.8714 17.284 32.6488C17.3218 32.4262 17.4183 32.4262 17.5253 32.7114C17.6113 32.9688 17.6596 33.3515 17.6218 33.5463C17.5924 33.7411 17.6113 33.9011 17.6889 33.9011C17.7561 33.9011 17.8148 33.7063 17.8148 33.4836C17.8148 33.2262 17.8924 33.2262 18.0666 33.5184C18.2009 33.7759 18.4337 33.8733 18.5785 33.7759C18.8009 33.6506 18.7904 33.6158 18.5198 33.5532C18.1044 33.4906 17.9806 32.8784 18.3079 32.5931C18.4526 32.4679 18.6561 32.6558 18.7904 33.0106C19.0611 33.7758 19.5709 34.0959 19.6779 33.5532C19.7157 33.3306 19.6485 33.2332 19.5038 33.2958C19.359 33.3932 19.2625 33.261 19.2625 32.9132C19.2625 32.2383 19.7345 32.5931 19.8311 33.3584C19.8604 33.6437 19.938 33.9011 19.9947 33.9011C20.0534 33.9011 20.0723 33.6437 20.0325 33.3584C19.9947 33.0384 20.022 32.6558 20.0996 32.5305C20.1667 32.3705 20.2255 32.4958 20.2255 32.7532C20.2255 33.0106 20.2549 33.1358 20.3031 33.0106C20.3409 32.8506 20.4584 33.0106 20.5549 33.3306C20.6514 33.6506 20.8738 33.908 21.0458 33.8732C21.3354 33.8385 21.3459 33.8106 21.1319 33.5184C20.8528 33.101 20.8717 33.0732 21.3438 32.941C21.585 32.8436 21.6438 32.941 21.5473 33.3236C21.4508 33.7063 21.5284 33.8663 21.8557 33.9985C22.097 34.0611 22.3193 33.9985 22.3466 33.8385C22.376 33.6785 22.4914 33.6437 22.5984 33.8106C22.7537 34.0054 22.7809 33.8732 22.7138 33.268C22.6362 32.5305 22.6467 32.5305 22.8103 33.268C22.9928 34.0333 23.3012 33.7828 23.1565 32.9827C23.0977 32.6627 23.1271 32.6627 23.253 33.0175C23.36 33.2749 23.4754 33.4002 23.5236 33.2401C23.5614 33.1149 23.6013 33.2054 23.6013 33.4628C23.6013 33.7202 23.66 33.908 23.7271 33.908C23.7943 33.908 23.8132 33.6854 23.7754 33.3932C23.7083 33.0106 23.7167 33.0106 23.853 33.3932C24.0565 34.0333 24.5664 34.0681 24.5664 33.4558C24.5664 33.1358 24.6251 33.1706 24.7489 33.5184C24.8937 33.9011 24.9314 33.9011 24.9314 33.4558C24.9314 33.0106 24.9503 33.0106 25.0279 33.4558C25.114 33.8733 25.1433 33.8732 25.2021 33.421C25.2608 32.9062 25.4727 32.8436 26.4756 33.0662C26.5616 33.101 26.591 33.2889 26.5532 33.5115C26.4378 34.1167 27.0064 33.9567 27.2666 33.2888C27.4008 32.9688 27.4407 32.7114 27.3631 32.7114C27.2855 32.7114 27.2183 32.5166 27.2183 32.294C27.2183 32.0714 27.3337 32.0992 27.5183 32.3566C27.682 32.614 27.7785 32.9967 27.7407 33.2541C27.6925 33.5393 27.7219 33.5115 27.8184 33.2262C27.9254 32.9062 28.0701 32.8714 28.282 33.1289C28.4855 33.3863 28.6303 33.3863 28.7058 33.1289C28.8611 32.621 29.073 32.5514 28.9765 33.0662C28.9387 33.261 29.0247 33.3236 29.159 33.1915C29.352 33.0314 29.3709 32.9062 29.245 32.614C29.138 32.3566 29.1863 32.3566 29.3898 32.5514C29.8052 32.934 30.4808 33.0314 30.4116 32.6766C30.3822 32.5166 30.4598 32.294 30.5941 32.1688C30.7284 32.0714 30.8647 32.1062 30.8941 32.294C30.9235 32.454 31.0976 32.6766 31.2613 32.8019C31.4921 32.9271 31.5613 32.8366 31.513 32.4471C31.4753 32.127 31.4942 31.9044 31.5508 31.9044C31.6095 31.9044 31.6956 32.1896 31.7333 32.5792C31.8005 33.1845 31.8298 33.1845 31.9369 32.6766C32.0334 32.2314 32.0711 32.2314 32.1194 32.5792C32.197 33.2193 32.4194 33.2541 32.3712 32.6418C32.3607 32.3844 32.4194 32.0992 32.5159 32.0018C32.6313 31.8418 32.6502 31.967 32.583 32.3566C32.497 32.8019 32.5054 32.8019 32.6796 32.3566C32.795 32.0366 32.8831 31.9114 32.8831 32.0714C32.8831 32.2314 32.9796 32.1688 33.095 31.9461C33.2292 31.6887 33.3845 31.7235 33.5482 32.0088C33.8755 32.5862 34.4251 32.774 34.5133 32.3288C34.5426 32.134 34.4545 32.0435 34.3014 32.134C34.0496 32.294 34.0496 32.294 34.272 31.9392C34.4063 31.7444 34.551 31.6539 34.5993 31.7444C34.6371 31.8418 34.7147 31.7096 34.7545 31.487C34.8511 30.9722 35.063 31.3617 35.0546 32.0296C35.0546 32.287 35.0063 32.2523 34.9392 31.9044C34.8427 31.3965 34.8238 31.3965 34.8238 32.0018C34.8238 32.5444 34.9014 32.6766 35.1721 32.6071C35.3651 32.5723 35.5203 32.4123 35.4993 32.2523C35.4889 32.0922 35.5371 31.967 35.6064 31.967C35.6735 31.967 35.7134 32.127 35.7029 32.287C35.6651 32.7323 36.3113 32.5723 36.4162 32.0922C36.4749 31.8348 36.5022 31.8974 36.5022 32.2175C36.5022 32.6627 36.561 32.6627 36.7813 32.1896C36.9848 31.7374 37.119 31.6748 37.2827 31.967C37.4652 32.3218 37.4862 32.2523 37.417 31.4244C37.3687 30.9165 37.3792 30.6869 37.4359 30.9165C37.6666 31.8766 38.1492 32.2592 38.4681 31.7166C38.6905 31.3339 38.7681 31.2991 38.7283 31.6539C38.6905 31.9113 38.766 32.134 38.9024 32.134C39.0367 32.134 39.1143 31.974 39.0765 31.814C39.0472 31.6192 39.173 31.5287 39.3661 31.5565C39.5486 31.6192 39.771 31.5218 39.857 31.3618C40.0794 30.9165 40.0312 29.9564 39.7899 29.9216C39.6745 29.9216 39.0178 29.859 38.3338 29.7964C37.6583 29.699 37.0708 29.7616 37.0414 29.9216C37.012 30.0469 36.7897 30.0816 36.54 29.9564C36.2882 29.7964 35.5371 29.7338 34.8804 29.7616C32.3145 29.859 26.1126 30.4365 24.9923 30.6869C24.9251 30.6869 24.5685 30.6243 24.2013 30.5269C23.7859 30.4295 23.5068 30.5269 23.4586 30.8469C23.3915 31.167 23.3621 31.167 23.3621 30.8469C23.3621 30.4921 22.4075 30.3669 19.8499 30.3669" fill="#191411"/>
</svg>
