<svg width="122" height="122" viewBox="0 0 122 122" fill="none" xmlns="http://www.w3.org/2000/svg">
<path d="M70.0277 77.091C70.4678 77.091 70.8245 76.7343 70.8245 76.2942C70.8245 75.8541 70.4678 75.4973 70.0277 75.4973C69.5876 75.4973 69.2308 75.8541 69.2308 76.2942C69.2308 76.7343 69.5876 77.091 70.0277 77.091Z" fill="#191411"/>
<path d="M56.823 41.2876H57.1076C57.7337 41.2876 58.189 41.7999 58.189 42.3691C58.189 42.3691 58.189 42.3691 58.189 42.426C58.189 42.426 58.189 42.426 58.189 42.4829V43.3936H60.1812C60.8073 43.3936 61.2627 43.9059 61.2627 44.4751C61.2627 45.1012 60.7504 45.5566 60.1812 45.5566H58.189V46.4103H60.1812C60.8073 46.4103 61.2627 46.9226 61.2627 47.4918C61.2627 48.061 60.7504 48.5733 60.1812 48.5733H58.189V49.427H60.1812C60.8073 49.427 61.2627 49.9393 61.2627 50.5085C61.2627 51.1346 60.7504 51.59 60.1812 51.59H58.189V52.4437H60.1812C60.8073 52.4437 61.2627 52.956 61.2627 53.5252C61.2627 54.0944 60.7504 54.6066 60.1812 54.6066H58.189V56.2573C58.189 56.5988 58.0752 56.9403 57.9044 57.2249L54.3755 63.3152L63.7671 56.1435V42.4829C63.7671 42.4829 63.7671 42.4829 63.7671 42.426C63.7671 42.426 63.7671 42.426 63.7671 42.3691C63.7671 41.743 64.2794 41.2876 64.8485 41.2876H65.1331V39.1816H56.7661L56.823 41.2876Z" fill="#191411"/>
<path d="M70.3703 68.3824L65.8168 60.4707L48.2858 73.8466L43.1631 82.043C42.8785 82.4983 43.0492 83.0675 43.5046 83.3521C43.6753 83.409 43.7892 83.466 43.9599 83.466H77.9974C78.5097 83.466 78.965 83.0675 78.965 82.4983C78.965 82.3276 78.9081 82.1568 78.8512 82.043L70.3703 68.3824ZM63.8246 70.8869C63.8246 69.8054 64.7353 68.8947 65.8168 68.8947C66.8982 68.8947 67.8089 69.8054 67.8089 70.8869C67.8089 71.9683 66.8982 72.8791 65.8168 72.8791C64.6784 72.8221 63.8246 71.9683 63.8246 70.8869ZM70.0288 79.3109C68.3781 79.3109 67.0121 77.9448 67.0121 76.2942C67.0121 74.6435 68.3781 73.2775 70.0288 73.2775C71.6794 73.2775 73.0455 74.6435 73.0455 76.2942C72.9886 78.0018 71.6794 79.3109 70.0288 79.3109Z" fill="#191411"/>
<path d="M65.7594 70.6592C65.6456 70.6592 65.5317 70.773 65.5317 70.8869C65.5317 71.0007 65.6456 71.1145 65.7594 71.1145C65.8733 71.1145 65.9871 71.0007 65.9871 70.8869C65.9871 70.7161 65.9302 70.6592 65.7594 70.6592Z" fill="#191411"/>
<path d="M81.8097 28.8233C63.8233 17.3257 39.9743 22.6191 28.4767 40.5486C22.9555 49.1433 21.1341 59.6164 23.297 69.5772C27.1675 87.2221 42.8202 99.8581 60.9205 99.915C63.7095 99.915 66.4985 99.6304 69.2875 99.0043C90.1198 94.4508 103.268 73.8461 98.7146 53.0138C96.4947 43.053 90.4044 34.3444 81.8097 28.8233ZM25.46 69.1219C21.1341 49.4848 33.5424 30.1324 53.1795 25.8066C55.7408 25.2374 58.416 24.9528 61.0343 24.9528C71.9627 25.0097 82.265 29.9047 89.2091 38.3857L31.3795 82.5547C28.5336 78.5135 26.5414 73.96 25.46 69.1219ZM91.6567 80.961C86.477 89.1004 78.2238 94.8492 68.8322 96.8983C66.2708 97.4675 63.5956 97.7521 60.9774 97.7521C50.0489 97.6952 39.7466 92.8001 32.8025 84.3192L90.6321 40.1501C99.2268 52.2739 99.6253 68.3819 91.6567 80.961Z" fill="#191411"/>
<path d="M21.8218 41.5754L21.5373 41.4046C21.5942 41.2908 21.5942 41.2339 21.5942 41.12C21.5942 41.0631 21.5942 40.9493 21.5942 40.8923C21.5942 40.6647 21.5372 40.4939 21.4234 40.3801L15.6177 31.6715L15.8454 31.33L26.0338 33.7775C26.3754 33.8913 26.7169 33.8344 26.9446 33.6636L27.2291 33.8344L25.7493 35.9404L25.4647 35.7696C25.6354 35.4281 25.6354 35.1435 25.4647 35.0297L25.237 34.9159L22.5618 34.2328L20.2281 37.591L21.8218 39.8678L21.9357 39.9816C22.1634 40.1524 22.391 40.0386 22.7325 39.754L23.0171 39.9247L21.8218 41.5754ZM17.0406 32.9806L19.8866 37.2495L21.9926 34.2328L17.0406 32.9806Z" fill="#191411"/>
<path d="M21.8204 41.745C21.7635 41.745 21.7635 41.745 21.7066 41.6881L21.422 41.5173C21.3651 41.4604 21.3651 41.4035 21.3651 41.3466C21.422 41.2327 21.422 41.1758 21.422 41.062C21.422 41.005 21.422 40.9481 21.422 40.8912C21.422 40.6635 21.3651 40.5497 21.3082 40.4359L15.4455 31.7273C15.3886 31.6704 15.3886 31.6134 15.4455 31.5565L15.6732 31.215C15.7301 31.1581 15.787 31.1581 15.844 31.1581L26.0324 33.6056C26.374 33.6625 26.6016 33.6625 26.7724 33.5487C26.8293 33.4917 26.8862 33.4917 26.9431 33.5487L27.2277 33.7194C27.2847 33.7764 27.3416 33.8902 27.2846 33.9471L25.8048 36.0531C25.7478 36.11 25.634 36.1669 25.5771 36.11L25.2925 35.9393C25.2356 35.8823 25.1787 35.8254 25.2356 35.7116C25.2925 35.5408 25.4063 35.2562 25.2925 35.1993L25.1217 35.1424L22.5604 34.5163L20.3405 37.7038L21.8204 39.8667L21.9343 39.9236C22.0481 40.0374 22.2758 39.9236 22.5035 39.6959C22.5604 39.639 22.6742 39.639 22.7311 39.6959L23.0157 39.8667C23.0726 39.9236 23.1296 40.0374 23.0727 40.0943L21.9343 41.6881C21.9343 41.745 21.8774 41.745 21.8204 41.745ZM21.7635 41.3466L22.7311 40.0374C22.3896 40.322 22.105 40.3789 21.8204 40.2082L21.7066 40.0943C21.7066 40.0943 21.7066 40.0944 21.6497 40.0374L20.1129 37.7607C20.056 37.7038 20.056 37.6468 20.1129 37.5899L22.4465 34.2317C22.5035 34.1748 22.5604 34.1748 22.6173 34.1748L25.2925 34.8578L25.5202 34.9716C25.6909 35.0855 25.8617 35.3132 25.6909 35.7685L26.9431 33.9471L26.8862 33.8902C26.6585 34.004 26.317 34.0609 25.9755 33.9471L15.9009 31.5565L15.787 31.7273L21.5928 40.322C21.7066 40.4928 21.7635 40.6635 21.7635 40.9481C21.7635 41.005 21.7635 41.1189 21.7635 41.2327C21.7635 41.2327 21.7635 41.2896 21.7635 41.3466ZM19.9421 37.3622C19.8852 37.3622 19.8283 37.3053 19.8283 37.3053L16.9823 33.0364C16.9254 32.9795 16.9254 32.9226 16.9823 32.8656C17.0393 32.8087 17.0962 32.8087 17.1531 32.8087L22.105 34.0609C22.162 34.0609 22.2189 34.1179 22.2189 34.1748C22.2189 34.2317 22.2189 34.2886 22.2189 34.3455L20.1129 37.3622C19.999 37.3622 19.9421 37.3622 19.9421 37.3622ZM17.4377 33.2072L19.9421 36.9069L21.7635 34.2886L17.4377 33.2072Z" fill="#191411"/>
<path d="M28.9319 32.1265L28.7042 31.8988C28.8749 31.5573 28.8749 31.2727 28.7042 31.045L22.8985 24.3855C22.6708 24.1578 22.3862 24.1009 22.0447 24.2717L21.817 24.044L23.0692 22.9625L30.4687 24.3855L27.1674 20.6289C26.9397 20.4012 26.712 20.3443 26.3705 20.4581L26.1428 20.2304L27.2243 19.2628L27.452 19.4905C27.2812 19.7751 27.3381 20.0597 27.5658 20.2874L33.3715 26.9469C33.4854 27.0607 33.5992 27.1745 33.713 27.1745C33.8269 27.1745 33.9407 27.1745 34.1684 27.1176L34.3961 27.3453L33.3146 28.3129L33.0869 28.0852C33.2577 27.8007 33.2577 27.516 33.03 27.2884L31.8916 25.9792L23.5246 24.3855L29.1026 30.7604C29.3303 30.9881 29.558 31.045 29.8426 30.9312L30.0702 31.1589L28.9319 32.1265Z" fill="#191411"/>
<path d="M28.9323 32.2977C28.8754 32.2977 28.8185 32.2977 28.8185 32.2408L28.5908 32.0131C28.5339 31.9562 28.5339 31.8992 28.5908 31.8423C28.8185 31.5008 28.7046 31.3301 28.5908 31.2162L22.7851 24.5567C22.6712 24.4429 22.5005 24.329 22.159 24.4429C22.102 24.4998 21.9882 24.4429 21.9882 24.386L21.7605 24.1583C21.7036 24.1014 21.7036 24.1014 21.7036 24.0444C21.7036 23.9875 21.7036 23.9306 21.7605 23.9306L23.0127 22.8491C23.0697 22.7922 23.1266 22.7922 23.1835 22.7922L30.0707 24.1583L27.1109 20.8001C26.9971 20.6862 26.8263 20.5724 26.5417 20.6862C26.4848 20.7432 26.371 20.6862 26.371 20.6293L26.1433 20.4016C26.0864 20.3447 26.0864 20.3447 26.0864 20.2878C26.0864 20.2309 26.0864 20.1739 26.1433 20.1739L27.2248 19.2063C27.2817 19.1494 27.3386 19.1494 27.3386 19.1494C27.3955 19.1494 27.4524 19.1494 27.4524 19.2063L27.6801 19.434C27.737 19.4909 27.737 19.5478 27.6801 19.6048C27.5663 19.8324 27.5663 20.0601 27.737 20.2309L33.5427 26.8904C33.6566 27.0042 33.7135 27.0611 33.8273 27.0611C33.8843 27.0611 33.9412 27.0611 34.1688 27.0042C34.2258 26.9473 34.3396 27.0042 34.3396 27.0611L34.5673 27.2888C34.6242 27.3457 34.6242 27.4596 34.5673 27.5165L33.4858 28.4841C33.4289 28.541 33.372 28.541 33.372 28.541C33.3151 28.541 33.2581 28.541 33.2581 28.4841L33.0305 28.2564C32.9736 28.1995 32.9736 28.1426 33.0305 28.0857C33.2012 27.7442 33.0874 27.5734 33.0305 27.4596L31.8921 26.1504L24.0373 24.6706L29.3307 30.7039C29.5015 30.8747 29.6723 30.9316 29.8999 30.8178C29.9569 30.8178 30.0138 30.8178 30.0707 30.8747L30.2984 31.1024C30.3553 31.1593 30.3553 31.1593 30.3553 31.2162C30.3553 31.2731 30.3553 31.3301 30.2984 31.3301L29.2169 32.2977C28.9892 32.2977 28.9323 32.2977 28.9323 32.2977ZM28.9323 31.8992L29.7861 31.2162L29.7292 31.1593C29.4446 31.2162 29.16 31.1593 28.9323 30.8747L23.3543 24.4998C23.2973 24.4429 23.2973 24.386 23.3543 24.329C23.4112 24.2721 23.4681 24.2152 23.525 24.2721L31.8921 25.8658C31.949 25.8658 31.949 25.8658 32.0059 25.9228L33.1443 27.2319C33.3151 27.4027 33.4289 27.6872 33.2581 28.1426L33.3151 28.1995L34.1688 27.4596L34.1119 27.4027C33.9412 27.4596 33.8273 27.4596 33.7135 27.4596C33.5427 27.4027 33.4289 27.2888 33.3151 27.175L27.5093 20.5155C27.2817 20.2309 27.2247 19.9463 27.3386 19.6048L27.2817 19.5479L26.4279 20.2878L26.4848 20.3447C26.9401 20.2309 27.1678 20.4016 27.3386 20.5724L30.6399 24.329C30.6968 24.386 30.6968 24.4429 30.6399 24.4998C30.583 24.5567 30.526 24.6136 30.4691 24.5567L23.1266 23.1337L22.0451 24.0444L22.1021 24.1014C22.5574 23.9306 22.842 24.1014 23.0127 24.329L28.8185 30.9885C28.9892 31.1593 29.1031 31.4439 28.9323 31.8992Z" fill="#191411"/>
<path d="M32.068 17.8401L31.8403 16.1894L36.963 13.4004L38.2722 14.4818L38.0445 14.7095C37.6461 14.4249 37.3045 14.2542 36.963 14.2542C36.6215 14.1973 36.28 14.3111 35.8816 14.4818L35.1986 14.8234L39.6952 23.0197C39.8659 23.3043 40.0936 23.4181 40.4351 23.3612L40.6059 23.6458L38.4999 24.7842L38.3291 24.4996C38.6137 24.215 38.6137 23.9304 38.4999 23.6458L34.0033 15.4495L33.3771 15.791C32.9787 16.0187 32.6941 16.2463 32.5803 16.5309C32.4095 16.8155 32.3526 17.214 32.4095 17.7262L32.068 17.8401Z" fill="#191411"/>
<path d="M38.501 24.9545C38.3871 24.9545 38.3871 24.8976 38.3302 24.8407L38.1594 24.5561C38.1025 24.4992 38.1594 24.3853 38.2164 24.3853C38.444 24.1576 38.444 23.9869 38.3302 23.7592L33.9474 15.7336L33.4352 16.0182C33.0937 16.189 32.8091 16.4736 32.6952 16.7013C32.5814 16.9859 32.5245 17.3274 32.5245 17.8396C32.5245 17.8966 32.5245 17.9535 32.4676 17.9535C32.4106 18.0104 32.4106 18.0104 32.3537 18.0104H32.0122C31.9553 18.0104 31.8414 17.9535 31.8414 17.8396L31.6138 16.189C31.6138 16.1321 31.6138 16.0752 31.7276 16.0182L36.8503 13.2292C36.9072 13.1723 36.9641 13.1723 37.0211 13.2292L38.3302 14.3107C38.3871 14.3676 38.3871 14.4814 38.3302 14.5383L38.1025 14.766C38.0456 14.8229 37.9318 14.8229 37.8748 14.8229C37.5333 14.5383 37.1918 14.4245 36.9072 14.3676C36.6226 14.3107 36.2811 14.4245 35.9396 14.5953L35.4273 14.8799L39.8101 22.9054C39.9239 23.1331 40.0947 23.19 40.3793 23.19C40.4362 23.19 40.4931 23.19 40.55 23.3038L40.7208 23.5884C40.7208 23.6454 40.7208 23.7023 40.7208 23.7023C40.7208 23.7592 40.6639 23.7592 40.6639 23.8161L38.5579 24.9545C38.5579 24.9545 38.5579 24.9545 38.501 24.9545ZM38.5579 24.5561L40.3793 23.5884V23.5315C40.0378 23.5315 39.7532 23.4177 39.5824 23.0762L35.0858 14.8799C35.0289 14.8229 35.0858 14.7091 35.1427 14.6522L35.8258 14.3107C36.2242 14.083 36.6226 13.9692 36.9641 14.0261C37.3057 14.083 37.6472 14.1968 37.9887 14.4245L36.9072 13.5138L32.0122 16.189L32.2399 17.5551C32.2399 17.0997 32.2968 16.7013 32.4676 16.4167C32.6383 16.0752 32.9229 15.7906 33.3213 15.5629L33.9474 15.2214C34.0044 15.1645 34.1182 15.2214 34.1751 15.2783L38.6717 23.4746C38.7855 23.8161 38.8425 24.1576 38.5579 24.5561Z" fill="#191411"/>
<path d="M45.102 21.6518L44.9882 21.3672C45.1589 21.2534 45.2158 21.0826 45.2158 20.9688C45.2158 20.8549 45.2159 20.6273 45.102 20.3427L42.2561 12.2602C42.1422 11.9756 41.9146 11.8048 41.63 11.8048L41.5161 11.5202L43.679 10.7803L43.7929 11.0649C43.5083 11.2925 43.4514 11.5202 43.5083 11.8048L46.4681 20.1719L46.6388 20.3427C46.6957 20.3996 46.7526 20.4565 46.8096 20.5134C46.8665 20.5703 46.9803 20.5703 47.208 20.5703L47.3218 20.8549L45.102 21.6518Z" fill="#191411"/>
<path d="M45.102 21.8228C45.0451 21.8228 44.9882 21.7659 44.9312 21.709L44.8174 21.4244C44.8174 21.3675 44.8174 21.3106 44.8743 21.2536C44.9882 21.1398 45.0451 21.026 45.0451 20.9121C45.0451 20.8552 45.0451 20.6845 44.9312 20.3429L42.0853 12.2605C42.0284 12.0328 41.8576 11.9189 41.573 11.9189C41.5161 11.9189 41.4592 11.862 41.4023 11.8051L41.2884 11.4636C41.2315 11.3498 41.2884 11.2928 41.4023 11.2359L43.5652 10.496C43.679 10.439 43.736 10.496 43.7929 10.6098L43.9067 10.8944C43.9067 10.9513 43.9067 11.0652 43.8498 11.0652C43.6221 11.2359 43.5652 11.4067 43.6221 11.6343L46.5819 20.0014L46.6958 20.1722C46.7527 20.2291 46.7526 20.286 46.8096 20.286C46.8096 20.286 46.7526 20.286 47.0942 20.3429C47.1511 20.3429 47.208 20.3998 47.2649 20.4568L47.3788 20.7414C47.3788 20.7983 47.3788 20.8552 47.3788 20.8552C47.3788 20.9121 47.3219 20.9121 47.2649 20.9691L45.102 21.8228ZM45.1589 21.4244L46.9803 20.7983V20.7414C46.8096 20.7414 46.6957 20.6845 46.6388 20.6275C46.5819 20.5706 46.525 20.5137 46.4681 20.3999L46.2973 20.2291V20.1722L43.3375 11.8051C43.2806 11.5774 43.2237 11.2359 43.5652 10.9513V10.8944L41.7438 11.5205V11.5774C42.0853 11.6344 42.313 11.8051 42.4268 12.1466L45.2728 20.2291C45.3866 20.5137 45.4435 20.7414 45.3866 20.9121C45.3866 21.0829 45.3297 21.2536 45.1589 21.4244Z" fill="#191411"/>
<path d="M50.5646 19.774L50.5077 19.4325C50.8492 19.2618 51.02 19.0341 50.9631 18.7495L49.6539 9.98398C49.597 9.69938 49.4263 9.47171 49.0847 9.41479L49.0278 9.07327L51.4753 8.73177C52.7276 8.56102 53.6383 8.56101 54.3782 8.8456C54.7767 8.95944 55.0612 9.18712 55.2889 9.47171C55.5166 9.75631 55.6873 10.0978 55.7443 10.4962C55.915 11.5777 55.232 12.4315 53.6952 13.0576C54.8905 13.0007 55.8581 13.2284 56.655 13.6837C57.3949 14.1391 57.8503 14.8221 57.9641 15.6759C58.0779 16.5866 57.7933 17.3834 56.9965 18.0095C56.1996 18.6926 55.1182 19.091 53.6952 19.3187L50.5646 19.774ZM50.8492 9.35787L51.4184 13.2284L52.2153 13.1145C53.126 13.0007 53.6952 12.6592 53.9798 12.2038C54.2075 11.8054 54.3213 11.2931 54.2074 10.7808C54.0367 9.52862 53.1829 9.01636 51.7599 9.24404L50.8492 9.35787ZM51.5323 13.6837L52.3291 19.0341L53.6952 18.8064C54.3213 18.6926 54.7766 18.5787 55.1182 18.408C55.4597 18.2372 55.7443 18.0095 56.0289 17.668C56.4273 17.0988 56.598 16.4727 56.4842 15.7897C56.3704 14.879 55.915 14.196 55.232 13.8545C54.549 13.456 53.5244 13.3422 52.3291 13.5699L51.5323 13.6837Z" fill="#191411"/>
<path d="M50.5635 19.9453C50.5066 19.9453 50.3928 19.8884 50.3928 19.7746L50.3358 19.4331C50.3358 19.3762 50.3928 19.2623 50.4497 19.2623C50.7912 19.0916 50.7912 18.8639 50.7912 18.75L49.4821 9.98453C49.4251 9.75686 49.3113 9.64303 49.0267 9.58611C48.9698 9.58611 48.9129 9.52919 48.9129 9.47227L48.856 9.13075C48.856 9.07383 48.8559 9.01692 48.9129 9.01692C48.9129 8.96001 48.9698 8.96 49.0267 8.96L51.4742 8.61848C52.7264 8.44773 53.6941 8.44773 54.434 8.73233C54.8324 8.84617 55.1739 9.07383 55.4585 9.41535C55.7431 9.75686 55.9139 10.0984 55.9708 10.4968C56.1416 11.4644 55.6293 12.3182 54.4909 12.9443C55.4016 13.0012 56.1985 13.2289 56.8246 13.5704C57.6215 14.0258 58.0768 14.7657 58.2476 15.6764C58.4183 16.644 58.0199 17.4409 57.223 18.1809C56.4262 18.8639 55.2878 19.3192 53.8079 19.5469L50.5635 19.9453ZM50.6774 19.5469L53.6941 19.1485C55.0601 18.9208 56.1416 18.5224 56.9384 17.8963C57.6784 17.2702 57.963 16.5302 57.8491 15.7333C57.7353 14.9365 57.2799 14.3104 56.5969 13.855C55.857 13.3997 54.8893 13.2289 53.751 13.2858C53.6371 13.2858 53.5802 13.2289 53.5802 13.172C53.5802 13.1151 53.5802 13.0012 53.6941 13.0012C55.117 12.3751 55.8 11.5783 55.6293 10.6106C55.5724 10.2691 55.4585 9.92762 55.1739 9.69994C54.9463 9.41535 54.6617 9.24459 54.3202 9.13075C53.6371 8.90308 52.6695 8.84617 51.4742 9.01692L49.1975 9.35842V9.41535C49.5959 9.52918 49.7667 9.81379 49.8236 10.0984L51.1327 18.8639C51.1896 19.0916 51.0189 19.3762 50.6774 19.5469ZM52.328 19.2054C52.2711 19.2054 52.2711 19.2054 52.2142 19.1485C52.1572 19.1485 52.1572 19.0916 52.1572 19.0346L51.3604 13.6843C51.3604 13.6273 51.3604 13.5704 51.4173 13.5704C51.4742 13.5135 51.4742 13.5135 51.5312 13.5135L52.2711 13.3997C53.5233 13.2289 54.5478 13.3428 55.2878 13.7412C56.0277 14.1396 56.4831 14.8227 56.6539 15.8472C56.7677 16.5871 56.5969 17.2702 56.1985 17.8394C55.9139 18.1809 55.5724 18.4655 55.2309 18.6362C54.8894 18.807 54.3771 18.9208 53.751 19.0346L52.328 19.2054ZM51.7019 13.855L52.4418 18.8639L53.6371 18.6931C54.2632 18.5793 54.7186 18.4655 55.0032 18.3516C55.3447 18.1809 55.6293 17.9532 55.857 17.6686C56.1985 17.1563 56.3693 16.5871 56.2554 15.961C56.1416 15.1072 55.7431 14.4811 55.0601 14.1396C54.3771 13.7412 53.4664 13.6843 52.2142 13.855H51.7019ZM51.4173 13.3997C51.3604 13.3997 51.3604 13.3997 51.3035 13.3427C51.2465 13.3427 51.2466 13.2858 51.2466 13.2289L50.6774 9.35842C50.6774 9.24459 50.7343 9.18767 50.8481 9.18767L51.8157 9.01692C53.751 8.73233 54.3202 9.81379 54.434 10.7245C54.4909 11.2937 54.434 11.8059 54.1494 12.2613C53.8079 12.7736 53.1818 13.1151 52.2711 13.2858L51.4173 13.3997C51.4742 13.3997 51.4742 13.3997 51.4173 13.3997ZM51.0758 9.47227L51.5881 13.0012L52.2142 12.8874C53.0679 12.7736 53.5802 12.489 53.8648 12.0336C54.0925 11.6352 54.1494 11.2368 54.0925 10.7245C53.9217 9.58611 53.1818 9.13076 51.8727 9.30152L51.0758 9.47227Z" fill="#191411"/>
<path d="M61.6059 18.7515V18.4669C61.7766 18.41 61.9474 18.2962 62.0043 18.1823C62.0612 18.0685 62.1182 17.8408 62.1182 17.5562L62.4597 9.01841C62.4597 8.73382 62.3458 8.50614 62.0043 8.3923V8.05078L64.2811 8.16463V8.50613C63.9396 8.61996 63.7688 8.79072 63.7688 9.13224L63.3704 18.0116L63.4273 18.2393C63.4273 18.2962 63.4842 18.3531 63.4842 18.41C63.5412 18.4669 63.655 18.5239 63.8257 18.6377V18.9792L61.6059 18.7515Z" fill="#191411"/>
<path d="M63.8815 18.978L61.6048 18.8641C61.5478 18.8641 61.4909 18.8641 61.4909 18.8072C61.434 18.7503 61.434 18.7503 61.434 18.6934V18.4088C61.434 18.3519 61.4909 18.2949 61.5479 18.238C61.7186 18.1811 61.7755 18.1242 61.8324 18.0103C61.8894 17.9534 61.8894 17.7827 61.9463 17.4411L62.2878 8.90331C62.2878 8.67563 62.174 8.50488 61.9463 8.39104C61.8894 8.39104 61.8324 8.27719 61.8324 8.22027V7.87877C61.8324 7.82186 61.8324 7.76493 61.8893 7.76493C61.9463 7.76493 61.9463 7.70801 62.0032 7.70801L64.28 7.82185C64.3369 7.82185 64.3938 7.82186 64.3938 7.87877C64.4507 7.93569 64.4507 7.93568 64.4507 7.9926V8.33412C64.4507 8.39104 64.3938 8.44795 64.3369 8.50487C64.0523 8.56179 63.9385 8.73256 63.9385 8.96023L63.54 17.7827L63.5969 18.0103C63.5969 18.0673 63.6539 18.1242 63.6539 18.1811C63.6539 18.1811 63.7108 18.238 63.8815 18.2949C63.9384 18.2949 63.9954 18.4088 63.9954 18.4657V18.8072C64.0523 18.921 63.9384 18.978 63.8815 18.978ZM61.7755 18.5795L63.7108 18.6364V18.5795C63.54 18.5226 63.4831 18.4088 63.4262 18.3518C63.3692 18.238 63.3692 18.1811 63.3123 18.1242L63.2554 17.8965V17.8396L63.6539 8.96023C63.6539 8.73256 63.7677 8.39103 64.1661 8.22027V8.16337L62.2309 8.10645V8.16337C62.5155 8.33413 62.6862 8.56179 62.6862 8.90331L62.3447 17.4411C62.3447 17.7257 62.2878 17.9534 62.2309 18.1242C62.0601 18.3519 61.9463 18.4657 61.7755 18.5795Z" fill="#191411"/>
<path d="M68.719 13.6262C69.1744 12.0324 70.0281 10.8941 71.2804 10.1541C72.5326 9.41419 73.9555 9.30034 75.5493 9.69878C77.0292 10.0972 78.1106 10.951 78.7937 12.2032C79.4767 13.4554 79.5905 14.8784 79.1352 16.529C78.7368 18.0659 77.883 19.2612 76.6307 20.0011C75.3785 20.741 74.0125 20.9118 72.4757 20.5134C70.8819 20.058 69.7436 19.2042 69.0605 18.0089C68.3775 16.7567 68.2637 15.2768 68.719 13.6262ZM70.0282 13.1708L69.9712 13.6262C69.7436 15.0491 69.9143 16.3583 70.5974 17.6674C71.2804 18.9766 72.1341 19.7734 73.2725 20.058C74.2971 20.3426 75.2647 20.2288 76.0616 19.6596C76.9153 19.0904 77.4845 18.2366 77.826 17.0982C78.2245 15.6183 78.1107 14.1385 77.4276 12.7155C76.8015 11.2925 75.8339 10.4387 74.5817 10.0972C73.5571 9.81262 72.5895 9.92645 71.7926 10.4956C70.9389 11.0648 70.3128 11.9755 70.0282 13.1708Z" fill="#191411"/>
<path d="M74.0126 20.9123C73.5003 20.9123 72.988 20.8554 72.4188 20.6846C70.7682 20.2293 69.5729 19.3755 68.8899 18.0664C68.2068 16.7572 68.0361 15.2773 68.5483 13.5698C69.0037 11.9191 69.8575 10.7238 71.1666 9.98387C72.4758 9.24392 73.9556 9.07318 75.6063 9.52853C77.1431 9.92696 78.2815 10.8377 78.9645 12.1468C79.6475 13.4559 79.7614 14.9358 79.306 16.5865C78.9076 18.1802 77.9969 19.3755 76.6877 20.1724C75.8909 20.6846 74.9802 20.9123 74.0126 20.9123ZM73.8418 9.64235C72.9311 9.64235 72.1342 9.87004 71.3374 10.3254C70.0852 11.0084 69.2883 12.1468 68.8899 13.6836C68.4345 15.2773 68.5483 16.7003 69.2314 17.8956C69.9144 19.0909 70.9959 19.9447 72.5896 20.3431C74.0695 20.7416 75.3786 20.5708 76.5739 19.8309C77.7692 19.0909 78.623 17.9525 79.0214 16.4726C79.4199 14.9358 79.306 13.5128 78.6799 12.2606C78.0538 11.0653 76.9723 10.2116 75.5494 9.81312C74.9232 9.7562 74.411 9.64235 73.8418 9.64235ZM74.2402 20.4C73.8987 20.4 73.5572 20.3431 73.1588 20.2293C72.0204 19.8878 71.0528 19.0909 70.3697 17.7248C69.6867 16.4157 69.4591 14.9927 69.7437 13.5698L69.8006 13.1144C70.1421 11.8622 70.7682 10.9515 71.622 10.3823C72.4758 9.81312 73.5003 9.64235 74.5818 9.92695C75.8909 10.2685 76.8585 11.1792 77.5415 12.6591C78.2245 14.082 78.3384 15.6188 77.94 17.1557C77.5984 18.351 77.0292 19.2617 76.1185 19.8309C75.5494 20.2293 74.9233 20.4 74.2402 20.4ZM70.1421 13.2283L70.0852 13.6836C69.8575 15.0497 70.0282 16.3588 70.7112 17.611C71.3374 18.8632 72.1911 19.6601 73.2726 19.9447C74.2971 20.2293 75.1509 20.1154 75.9478 19.5463C76.7447 19.034 77.3139 18.1802 77.5985 17.0418C77.9969 15.5619 77.883 14.1389 77.2569 12.7729C76.6308 11.4068 75.7201 10.5531 74.5248 10.2115C73.5572 9.92695 72.6465 10.0977 71.8496 10.61C71.0528 11.1792 70.4836 12.033 70.1421 13.2283Z" fill="#191411"/>
<path d="M83.4614 14.3656L84.7136 13.2842L89.8363 16.0732L89.6656 17.7808L89.324 17.7238C89.324 17.2685 89.2671 16.8701 89.1533 16.5855C88.9825 16.3009 88.7548 16.0163 88.3564 15.8455L87.6734 15.504L83.2337 23.7003C83.063 23.9849 83.1199 24.2695 83.3476 24.4972L83.1768 24.7818L81.0708 23.6434L81.2416 23.3588C81.5831 23.4157 81.8677 23.3019 82.0384 23.0173L86.4781 14.821L85.852 14.4795C85.4536 14.2518 85.112 14.1949 84.7705 14.1949C84.429 14.2518 84.0875 14.4226 83.6322 14.7072L83.4614 14.3656Z" fill="#191411"/>
<path d="M83.1774 24.8969H83.1205L81.0145 23.7585C80.9575 23.7585 80.9575 23.7016 80.9575 23.6447C80.9575 23.5878 80.9575 23.5308 80.9575 23.5308L81.1283 23.2462C81.1852 23.1893 81.2421 23.1324 81.2991 23.1893C81.5836 23.2462 81.8113 23.1893 81.9251 22.9617L86.3079 14.9361L85.7387 14.5946C85.3972 14.4238 85.0557 14.31 84.7711 14.3669C84.4865 14.4238 84.145 14.5376 83.7466 14.8222C83.6896 14.8222 83.6327 14.8792 83.6327 14.8222C83.5758 14.8222 83.5189 14.7653 83.5189 14.7653L83.3481 14.4807C83.2912 14.4238 83.2912 14.31 83.4051 14.2531L84.6572 13.1716C84.7142 13.1147 84.7711 13.1147 84.828 13.1716L89.9507 15.9606C90.0077 16.0175 90.0645 16.0745 90.0645 16.1314L89.8938 17.839C89.8938 17.8959 89.8938 17.9528 89.8369 17.9528C89.78 18.0097 89.78 18.0097 89.723 18.0097L89.3815 17.9528C89.2677 17.9528 89.2108 17.8389 89.2108 17.782C89.2108 17.3267 89.1538 16.9852 89.04 16.7006C88.9262 16.416 88.6416 16.1883 88.3001 16.0175L87.7878 15.7329L83.4051 23.7585C83.2912 23.9862 83.2912 24.157 83.462 24.3846C83.5189 24.4415 83.5189 24.4985 83.462 24.5554L83.2912 24.84C83.2912 24.84 83.2343 24.8969 83.1774 24.8969ZM81.2991 23.5308L83.1205 24.4985V24.4415C82.8928 24.1569 82.8928 23.8724 83.0635 23.5308L87.5032 15.3345C87.5032 15.2776 87.5601 15.2776 87.617 15.2776C87.674 15.2776 87.7309 15.2776 87.7309 15.2776L88.4139 15.6191C88.8123 15.8468 89.0969 16.1314 89.2677 16.416C89.4385 16.7006 89.4954 17.0421 89.4954 17.4974L89.6661 16.1314L84.7711 13.4562L83.6897 14.3669C84.0881 14.0823 84.4296 13.9685 84.7142 13.9115C85.0557 13.8546 85.4541 13.9685 85.9095 14.1961L86.5356 14.5376C86.5925 14.5376 86.5925 14.5946 86.5925 14.6515C86.5925 14.7084 86.5925 14.7653 86.5925 14.7653L82.1528 22.9617C82.039 23.1893 81.8113 23.417 81.4129 23.417C81.4129 23.4739 81.4129 23.4739 81.2991 23.5308Z" fill="#191411"/>
<path d="M87.3911 27.4578L87.5619 27.2301C87.7326 27.287 87.9034 27.287 88.0741 27.2301C88.188 27.1732 88.3587 27.0024 88.5295 26.7747L93.8229 20.0014C93.9937 19.7737 93.9937 19.4891 93.8229 19.2045L94.0506 18.9199L95.8151 20.3429L95.5874 20.6275C95.2459 20.5137 95.0182 20.5706 94.7906 20.7982L89.3263 27.7993L89.2125 28.0269C89.1556 28.0839 89.1556 28.1408 89.1556 28.2546C89.1556 28.3115 89.2125 28.4254 89.3263 28.5961L89.0987 28.8807L87.3911 27.4578Z" fill="#191411"/>
<path d="M89.1546 29.052C89.0977 29.052 89.0977 29.052 89.0408 28.9951L87.2763 27.5721C87.2194 27.5152 87.1625 27.4014 87.2194 27.3445L87.3902 27.1168C87.4471 27.0599 87.504 27.0599 87.5609 27.0599C87.7317 27.1168 87.8455 27.1168 87.9024 27.0599C87.9593 27.003 88.0732 26.9461 88.3008 26.6615L93.5943 19.8881C93.7651 19.7173 93.7651 19.4897 93.5943 19.3189C93.5374 19.262 93.5374 19.2051 93.5943 19.1482L93.822 18.8636C93.822 18.8066 93.8789 18.8066 93.9358 18.8066C93.9927 18.8066 94.0496 18.8066 94.0496 18.8636L95.8141 20.2865C95.8711 20.2865 95.8711 20.3435 95.8711 20.4004C95.8711 20.4573 95.8711 20.5142 95.8141 20.5142L95.5865 20.7988C95.5295 20.8557 95.4726 20.8557 95.4157 20.8557C95.1311 20.7419 94.9604 20.7988 94.8465 20.9696L89.3823 27.9137L89.3254 28.1413C89.3254 28.1983 89.2685 28.2552 89.2685 28.3121C89.2685 28.3121 89.2685 28.369 89.3823 28.5967C89.4392 28.6536 89.4392 28.7105 89.3823 28.7674L89.1546 29.052C89.2685 28.9951 89.2115 29.052 89.1546 29.052C89.2115 29.052 89.1546 29.052 89.1546 29.052ZM87.6178 27.4583L89.1546 28.6536L89.2115 28.5967C89.0977 28.4259 89.0977 28.3121 89.0977 28.2552C89.0977 28.1413 89.1546 28.0844 89.1546 27.9706L89.2115 27.7429V27.686L94.6758 20.685C94.8465 20.5142 95.0742 20.2865 95.5296 20.4004V20.3435L93.9927 19.1482L93.9358 19.2051C94.1066 19.4897 94.0497 19.8312 93.822 20.0589L88.5285 26.8322C88.3578 27.0599 88.187 27.2306 88.0163 27.3445C88.0163 27.4014 87.8455 27.4583 87.6178 27.4583Z" fill="#191411"/>
<path d="M105.949 30.5889L106.177 30.8166L104.925 31.8412L104.697 31.6135C104.754 31.3289 104.754 31.1012 104.754 30.9305C104.754 30.7597 104.697 30.532 104.64 30.3044C104.47 29.7352 104.185 29.166 103.787 28.7106C103.388 28.2553 102.933 27.8568 102.364 27.5722C101.794 27.2876 101.282 27.1169 100.713 27.1169C100.144 27.1169 99.5746 27.1738 98.9485 27.4584C98.3224 27.6861 97.6962 28.0845 97.184 28.5399C95.9887 29.5075 95.3056 30.7028 95.1349 32.0119C94.9641 33.3211 95.3626 34.5163 96.2733 35.5978C96.5009 35.8824 96.7286 36.1101 96.8994 36.2808C97.0701 36.4516 97.3547 36.6793 97.6962 36.85C97.9239 36.9639 98.0947 37.0777 98.2654 37.1915C98.4362 37.3054 98.7208 37.4192 99.0623 37.533L98.9485 37.8176C98.55 37.6469 98.2654 37.5331 98.0377 37.4192C97.8101 37.3054 97.5824 37.1915 97.2978 37.0208C96.5009 36.5654 95.8748 35.9962 95.3626 35.3701C94.2811 34.1179 93.8258 32.7519 93.9396 31.3289C94.0534 29.9059 94.7365 28.6537 95.9318 27.6292C97.184 26.5477 98.607 26.1493 100.201 26.32C101.794 26.4908 103.104 27.2307 104.242 28.5399C104.47 28.8245 104.64 29.0521 104.754 29.166C104.868 29.2798 105.039 29.6213 105.266 30.1336C105.266 30.1905 105.323 30.2474 105.38 30.3044C105.437 30.3613 105.437 30.4182 105.494 30.4182C105.551 30.532 105.722 30.6459 105.949 30.5889Z" fill="#191411"/>
<path d="M98.891 37.9893H98.8341C98.4926 37.8755 98.1511 37.7047 97.9234 37.5909C97.6957 37.477 97.468 37.3632 97.1834 37.1924C96.3865 36.7371 95.7035 36.1679 95.1912 35.4849C94.1098 34.1757 93.5975 32.7528 93.7114 31.3298C93.8252 29.8499 94.5082 28.5977 95.8174 27.5162C97.1265 26.4348 98.6064 25.9794 100.2 26.1502C101.851 26.3209 103.217 27.1178 104.355 28.4269C104.583 28.7115 104.754 28.9392 104.867 29.11C104.981 29.2238 105.095 29.5084 105.38 30.0776C105.437 30.1345 105.437 30.1914 105.437 30.1914C105.494 30.2483 105.494 30.3053 105.494 30.3053C105.664 30.5329 105.835 30.5329 105.892 30.5329C105.949 30.5329 106.006 30.5329 106.063 30.5898L106.29 30.8175C106.347 30.8744 106.347 30.8744 106.347 30.9314C106.347 30.9883 106.347 31.0452 106.29 31.0452L105.038 32.0697C104.981 32.1267 104.867 32.1267 104.811 32.0697L104.583 31.8421C104.526 31.7851 104.526 31.7282 104.526 31.7282C104.583 31.4436 104.583 31.2159 104.583 31.0452C104.583 30.8744 104.526 30.7037 104.469 30.476C104.298 29.9068 104.014 29.3946 103.615 28.9392C103.217 28.4839 102.761 28.0854 102.249 27.8577C101.737 27.5731 101.168 27.4024 100.655 27.4024C100.086 27.4024 99.574 27.5162 98.9479 27.7439C98.3218 27.9716 97.7526 28.3131 97.2403 28.7684C96.102 29.7361 95.4189 30.8744 95.2482 32.1266C95.0774 33.3789 95.4189 34.5742 96.3296 35.5987C96.5573 35.8833 96.785 36.111 96.9558 36.2817C97.1265 36.4525 97.4111 36.6233 97.7526 36.8509C97.9234 36.9648 98.0941 37.0786 98.3218 37.1924C98.4925 37.3063 98.7771 37.4201 99.1187 37.5339C99.1756 37.5339 99.1756 37.5909 99.2325 37.6478C99.2325 37.7047 99.2325 37.7616 99.2325 37.7616L99.1187 38.0462C99.0048 37.9324 98.9479 37.9893 98.891 37.9893ZM99.5171 26.3779C98.208 26.3779 97.0696 26.8332 95.9881 27.687C94.7928 28.7115 94.1098 29.9068 94.0529 31.2729C93.939 32.6958 94.3944 33.9481 95.4758 35.2003C95.9881 35.8264 96.6142 36.3387 97.4111 36.794C97.6388 36.9078 97.8095 37.0217 98.0372 37.1355C97.8664 37.0786 97.7526 36.9648 97.6388 36.9078C97.2973 36.6802 97.0127 36.5094 96.785 36.2817C96.5573 36.111 96.3866 35.8833 96.102 35.5987C95.1913 34.4603 94.7928 33.2081 94.9636 31.8421C95.1343 30.476 95.8174 29.2807 97.0696 28.2562C97.6388 27.8008 98.2649 27.4024 98.891 27.1747C99.574 26.8901 100.2 26.8332 100.769 26.8332C101.339 26.8332 101.908 27.0039 102.477 27.3455C103.046 27.6301 103.558 28.0285 103.957 28.5408C104.355 29.053 104.697 29.6222 104.867 30.1914C104.924 30.476 104.981 30.7037 104.981 30.8744C104.981 31.0452 104.981 31.2729 104.924 31.5006L104.981 31.5575L105.949 30.7037L105.892 30.6468C105.721 30.6468 105.494 30.5898 105.323 30.3053C105.266 30.2483 105.266 30.1914 105.209 30.1345C105.209 30.0776 105.152 30.0207 105.152 30.0207C104.924 29.6222 104.697 29.2238 104.64 29.053C104.526 28.8823 104.412 28.7115 104.128 28.4269C103.046 27.1747 101.737 26.4348 100.2 26.264C99.9155 26.3778 99.7448 26.3779 99.5171 26.3779Z" fill="#191411"/>
<path d="M42.4849 110.447L42.5987 110.163C42.9402 110.163 43.1679 110.049 43.2817 109.764L46.1846 101.568C46.2984 101.283 46.1846 101.056 45.9569 100.828L46.0707 100.486L51.7626 102.535L51.9903 104.072L51.6488 104.129C51.5919 104.015 51.535 103.845 51.478 103.674C51.4211 103.503 51.3073 103.389 51.2504 103.275C51.0227 102.934 50.6243 102.706 50.0551 102.478L47.5507 101.568L46.3553 104.926L48.9736 105.837C49.3151 105.951 49.5997 106.007 49.7705 105.951C49.9412 105.894 50.112 105.78 50.2828 105.552L50.5674 105.666L49.9982 107.26L49.6566 107.146C49.5997 106.918 49.5997 106.747 49.5428 106.69C49.429 106.52 49.2013 106.406 48.9167 106.349L46.1846 105.381L44.477 110.163C44.3632 110.447 44.4201 110.675 44.7047 110.902L44.5909 111.187L42.4849 110.447Z" fill="#191411"/>
<path d="M44.6466 111.357H44.5897L42.4268 110.617C42.3699 110.617 42.3699 110.56 42.313 110.503C42.313 110.446 42.313 110.389 42.313 110.389L42.4268 110.105C42.4268 110.048 42.5407 109.991 42.5976 109.991C42.996 109.991 43.0529 109.82 43.1098 109.706L46.0127 101.51C46.0696 101.282 46.0127 101.111 45.842 100.941C45.785 100.884 45.785 100.827 45.785 100.77L45.8989 100.428C45.8989 100.371 45.9558 100.371 46.0127 100.314C46.0696 100.314 46.1266 100.314 46.1266 100.314L51.8185 102.364C51.8754 102.364 51.9323 102.42 51.9323 102.477L52.16 104.014C52.16 104.071 52.16 104.128 52.103 104.128C52.103 104.185 52.0461 104.185 51.9892 104.185L51.6477 104.242C51.5907 104.242 51.4769 104.185 51.4769 104.128C51.42 104.014 51.3631 103.843 51.3062 103.673C51.2492 103.502 51.1923 103.388 51.1354 103.274C50.9077 102.99 50.5662 102.762 50.0539 102.534L47.7203 101.681L46.6388 104.754L49.0863 105.608C49.4847 105.722 49.6555 105.779 49.8263 105.722C49.997 105.722 50.1109 105.608 50.2247 105.437C50.2816 105.38 50.3385 105.323 50.4524 105.38L50.737 105.494C50.7939 105.494 50.7939 105.551 50.8508 105.608C50.8508 105.665 50.8508 105.722 50.8508 105.722L50.2816 107.316C50.2247 107.372 50.1678 107.429 50.0539 107.429L49.7124 107.316C49.6555 107.316 49.5986 107.259 49.5986 107.202C49.5417 106.917 49.4848 106.803 49.4848 106.803C49.3709 106.689 49.2002 106.632 48.9725 106.519L46.4112 105.608L44.7605 110.218C44.7036 110.446 44.7605 110.617 44.9312 110.788C44.9882 110.844 44.9882 110.901 44.9882 110.958L44.8743 111.243C44.7605 111.3 44.7036 111.357 44.6466 111.357ZM42.7114 110.332L44.5328 110.958V110.901C44.3051 110.674 44.1913 110.389 44.3621 110.048L46.0696 105.266C46.0696 105.209 46.1265 105.209 46.1835 105.153C46.2404 105.153 46.2973 105.153 46.2973 105.153L49.0294 106.12C49.314 106.234 49.5417 106.348 49.7124 106.519C49.7694 106.632 49.8263 106.746 49.8832 106.974H49.9401L50.3955 105.665C50.2247 105.836 50.054 106.006 49.8832 106.006C49.6555 106.063 49.3709 106.006 48.9725 105.893L46.3542 104.982C46.2973 104.982 46.2973 104.925 46.2404 104.868C46.2404 104.811 46.2404 104.754 46.2404 104.754L47.4357 101.396C47.4926 101.282 47.5495 101.282 47.6633 101.282L50.1678 102.193C50.737 102.42 51.1923 102.705 51.42 103.047C51.4769 103.16 51.5907 103.331 51.6477 103.502C51.7046 103.616 51.7615 103.73 51.8185 103.843H51.8754L51.7046 102.591L46.2404 100.656V100.713C46.468 100.941 46.525 101.225 46.4112 101.567L43.5083 109.763C43.3375 109.991 43.1668 110.275 42.7114 110.332Z" fill="#191411"/>
<path d="M53.356 113.749L53.4129 113.407C53.7544 113.35 53.9821 113.18 54.039 112.895L55.1205 104.243C55.1774 103.959 55.0066 103.731 54.6651 103.56L54.722 103.219L57.8526 103.617C58.4218 103.674 58.8771 103.788 59.2186 103.902C59.5601 104.016 59.8447 104.186 60.1862 104.471C60.8693 105.04 61.2108 105.837 61.04 106.805C60.9262 107.658 60.5277 108.228 59.9016 108.626C59.674 108.74 59.4463 108.854 59.2755 108.911C59.0479 108.968 58.7633 109.024 58.3648 109.024L58.7063 109.707C58.934 110.277 59.2186 111.017 59.4463 111.87C59.617 112.383 59.674 112.667 59.7309 112.724C59.7878 113.009 59.9017 113.293 60.0724 113.578C60.1863 113.863 60.357 114.09 60.4708 114.204C60.6416 114.318 60.8124 114.432 61.0969 114.432V114.716C60.6985 114.659 60.4139 114.603 60.1862 114.546C59.9585 114.489 59.7878 114.432 59.5601 114.261C59.2755 114.09 58.9909 113.863 58.8202 113.578C58.6494 113.293 58.4218 112.781 58.251 112.098L57.9664 111.017L57.6818 109.992C57.568 109.707 57.5111 109.537 57.5111 109.48C57.5111 109.48 57.4541 109.366 57.3972 109.252C57.2265 108.968 56.9419 108.854 56.5434 108.797L56.2588 108.74H56.145C56.0881 108.74 56.0312 108.74 56.0312 108.74H55.9742L55.462 112.838C55.405 113.123 55.5758 113.35 55.8604 113.521L55.8035 113.863L53.356 113.749ZM56.4296 103.902L55.8604 108.398L56.7711 108.512C57.3403 108.569 57.7387 108.569 58.0233 108.512C58.3079 108.455 58.5925 108.341 58.8202 108.114C59.2186 107.715 59.4463 107.203 59.5601 106.577C59.6171 106.292 59.5601 106.008 59.5032 105.666C59.4463 105.325 59.3325 105.097 59.2186 104.926C58.934 104.471 58.3648 104.186 57.5111 104.073L56.4296 103.902Z" fill="#191411"/>
<path d="M60.9809 114.943C60.5824 114.886 60.2409 114.829 60.0132 114.772C59.7855 114.715 59.5579 114.601 59.3302 114.488C58.9887 114.317 58.7041 114.032 58.5333 113.748C58.3626 113.463 58.1349 112.951 57.9072 112.268L57.2811 110.219C57.1673 109.934 57.1104 109.763 57.1104 109.763C57.1104 109.763 57.0534 109.706 56.9965 109.593C56.8827 109.365 56.5981 109.251 56.2566 109.194L55.8582 109.137C55.8582 109.137 55.8582 109.137 55.8012 109.137L55.289 113.065C55.232 113.292 55.3459 113.463 55.5736 113.577C55.6305 113.634 55.6874 113.691 55.6874 113.748L55.6305 114.089C55.6305 114.203 55.5736 114.26 55.4597 114.26L53.183 113.975C53.126 113.975 53.126 113.975 53.0691 113.918C53.0691 113.861 53.0122 113.861 53.0122 113.805L53.0691 113.463C53.0691 113.406 53.1261 113.349 53.2399 113.292C53.6383 113.235 53.6952 113.065 53.6952 112.894L54.7767 104.242C54.7767 104.185 54.8336 103.901 54.4352 103.73C54.3783 103.673 54.3213 103.616 54.3213 103.559L54.3783 103.218C54.3783 103.161 54.4352 103.104 54.4352 103.104C54.4921 103.104 54.4921 103.047 54.549 103.047L57.6796 103.445C58.2488 103.502 58.7041 103.616 59.0456 103.73C59.3871 103.844 59.7287 104.071 60.0702 104.299C60.8101 104.925 61.1516 105.779 60.9809 106.804C60.867 107.714 60.4686 108.34 59.7286 108.739C59.501 108.853 59.2733 108.966 59.0456 109.023C58.8748 109.08 58.6472 109.137 58.3626 109.137L58.5903 109.649C58.8179 110.219 59.1025 110.959 59.3302 111.812L59.501 112.382C59.5579 112.552 59.5579 112.666 59.6148 112.723C59.6717 113.008 59.7856 113.292 59.9563 113.52C60.0702 113.805 60.184 113.975 60.3548 114.089C60.4686 114.203 60.6393 114.26 60.867 114.317C60.9808 114.317 61.0378 114.374 61.0378 114.488V114.772C61.0378 114.829 61.0378 114.886 60.9809 114.886C61.0378 114.943 61.0378 114.943 60.9809 114.943ZM55.8582 108.739C55.9151 108.739 55.9151 108.739 56.0289 108.739L56.4273 108.796C56.8827 108.853 57.2242 109.023 57.395 109.365C57.4519 109.479 57.5088 109.593 57.5088 109.593C57.5088 109.593 57.5657 109.763 57.6796 110.105L58.3057 112.211C58.4764 112.894 58.7041 113.349 58.8748 113.634C59.0456 113.918 59.2733 114.089 59.5579 114.26C59.7856 114.374 59.9563 114.431 60.1271 114.488C60.2409 114.544 60.4117 114.544 60.5824 114.601C60.4686 114.544 60.3548 114.488 60.2409 114.431C60.0702 114.317 59.9563 114.089 59.7856 113.748C59.6717 113.463 59.5579 113.178 59.444 112.894C59.444 112.837 59.3871 112.723 59.3302 112.552L59.1594 111.983C58.9318 111.129 58.6472 110.389 58.4195 109.877L58.078 109.194C58.078 109.137 58.078 109.08 58.078 109.023C58.1349 108.966 58.1349 108.966 58.1918 108.966C58.5902 108.91 58.8748 108.909 59.0456 108.853C59.2733 108.796 59.444 108.682 59.6148 108.568C60.2409 108.226 60.5824 107.657 60.6963 106.86C60.8101 105.95 60.5255 105.21 59.8994 104.698C59.6148 104.47 59.2733 104.242 58.9887 104.185C58.7041 104.071 58.2488 103.958 57.6796 103.901L54.7198 103.502V103.559C55.0613 103.73 55.1751 104.014 55.1751 104.356L54.0937 113.008C54.0368 113.235 53.9229 113.577 53.4676 113.691V113.748L55.4028 113.975V113.918C55.1182 113.748 54.9474 113.463 55.0044 113.121L55.5167 109.023C55.5167 108.966 55.5735 108.91 55.6305 108.91C55.7443 108.796 55.8012 108.739 55.8582 108.739ZM57.6226 108.796C57.3949 108.796 57.1104 108.796 56.7688 108.739L55.8582 108.625C55.7443 108.625 55.6874 108.511 55.6874 108.454L56.2566 103.958C56.2566 103.901 56.2566 103.901 56.3135 103.844C56.3704 103.844 56.3704 103.787 56.4273 103.787L57.5657 103.958C58.4195 104.071 59.0456 104.413 59.3871 104.925C59.5579 105.153 59.6148 105.437 59.6717 105.779C59.7286 106.12 59.7286 106.405 59.7286 106.747C59.6148 107.43 59.3871 107.999 58.9318 108.397C58.7041 108.625 58.4195 108.796 58.078 108.853C57.9642 108.739 57.7934 108.796 57.6226 108.796ZM56.0289 108.283L56.7688 108.397C57.2811 108.454 57.7365 108.454 57.9642 108.397C58.1918 108.34 58.4764 108.226 58.6472 108.056C59.0456 107.657 59.2733 107.202 59.3302 106.576C59.3871 106.291 59.3302 106.007 59.2733 105.722C59.2164 105.437 59.1594 105.21 58.9887 105.039C58.7041 104.584 58.1918 104.356 57.395 104.242L56.4273 104.128L56.0289 108.283Z" fill="#191411"/>
<path d="M65.6506 114.66L65.5936 114.318C65.9352 114.204 66.049 113.977 66.049 113.635L65.1383 104.983C65.0814 104.699 64.9106 104.471 64.5691 104.414L64.5122 104.073L70.7163 103.39L71.5132 104.699L71.2286 104.87C71.0579 104.756 70.944 104.642 70.8871 104.585C70.7164 104.471 70.6025 104.357 70.4318 104.3C70.0333 104.13 69.578 104.016 69.0657 104.073L66.3336 104.357L66.732 108.057L69.578 107.772C69.9764 107.715 70.2041 107.659 70.3748 107.545C70.4887 107.431 70.6025 107.26 70.6594 106.976L70.944 106.919L71.1148 108.626L70.8302 108.683C70.7164 108.512 70.6594 108.398 70.5456 108.285C70.3748 108.171 70.0903 108.171 69.6349 108.228L66.789 108.512L67.3582 113.92L70.1472 113.635C70.8871 113.578 71.5132 113.407 72.0255 113.18C72.367 113.009 72.7654 112.724 73.2208 112.326L73.4485 112.497L72.4239 113.863L65.6506 114.66Z" fill="#191411"/>
<path d="M65.6511 114.83C65.5942 114.83 65.5942 114.83 65.5373 114.773C65.4804 114.773 65.4804 114.716 65.4804 114.659L65.4235 114.318C65.4235 114.261 65.4804 114.147 65.5373 114.147C65.8219 114.033 65.8788 113.863 65.8788 113.635L64.9681 104.983C64.9112 104.756 64.7974 104.642 64.5697 104.585C64.5128 104.585 64.4558 104.528 64.4558 104.414L64.3989 104.073C64.3989 104.016 64.3989 103.959 64.4558 103.959C64.4558 103.902 64.5128 103.902 64.5697 103.902L70.7738 103.219C70.8308 103.219 70.8877 103.219 70.9446 103.276L71.7415 104.585C71.7984 104.642 71.7415 104.756 71.6845 104.812L71.3999 104.983C71.343 105.04 71.2292 105.04 71.1723 104.983C71.0015 104.869 70.8877 104.756 70.8308 104.699C70.66 104.585 70.5462 104.471 70.4323 104.414C70.0339 104.243 69.6355 104.186 69.1801 104.243L66.6188 104.528L66.9603 107.886L69.6355 107.602C69.977 107.545 70.2047 107.488 70.3185 107.431C70.4323 107.374 70.4892 107.203 70.5462 106.975C70.5462 106.918 70.6031 106.862 70.7169 106.862H71.0015C71.1153 106.805 71.1723 106.918 71.1723 107.032L71.343 108.74C71.343 108.797 71.343 108.854 71.2861 108.854C71.2861 108.911 71.2292 108.911 71.1723 108.911L70.8877 108.968C70.8308 108.968 70.7738 108.968 70.7169 108.854C70.66 108.683 70.5462 108.569 70.4893 108.512C70.4323 108.455 70.2616 108.398 69.6924 108.455L67.0172 108.74L67.5864 113.806L70.2047 113.521C70.8877 113.464 71.5138 113.293 72.0261 113.066C72.3676 112.895 72.766 112.667 73.1645 112.269C73.2214 112.212 73.3352 112.212 73.3921 112.269L73.6198 112.44C73.6767 112.497 73.6767 112.61 73.6198 112.667L72.5953 114.033C72.5383 114.09 72.5383 114.09 72.4814 114.09L65.6511 114.83ZM65.765 114.489L72.3676 113.806L73.2214 112.667C72.8229 113.009 72.4814 113.236 72.1399 113.407C71.6276 113.635 70.9446 113.806 70.2047 113.863L67.4156 114.147C67.3018 114.147 67.2449 114.09 67.2449 113.976L66.6757 108.569C66.6757 108.455 66.7326 108.398 66.8464 108.398L69.6924 108.114C70.1477 108.057 70.4892 108.114 70.66 108.228C70.7738 108.285 70.8877 108.398 70.9446 108.569L70.7738 107.203C70.7169 107.431 70.6031 107.601 70.4323 107.715C70.2616 107.829 69.977 107.886 69.5785 107.943L66.7326 108.228C66.6757 108.228 66.6188 108.228 66.6188 108.171C66.5619 108.171 66.5618 108.114 66.5618 108.057L66.1634 104.357C66.1634 104.3 66.1634 104.243 66.2203 104.243C66.2773 104.186 66.2773 104.186 66.3342 104.186L69.0663 103.902C69.5786 103.845 70.0908 103.902 70.4893 104.129C70.66 104.186 70.7738 104.3 70.9446 104.414C71.0015 104.471 71.1154 104.528 71.2292 104.642H71.2861L70.6031 103.56L64.6835 104.186V104.243C65.082 104.357 65.2527 104.699 65.2527 104.926L66.1634 113.578C66.2203 113.92 66.1634 114.261 65.765 114.489Z" fill="#191411"/>
<path d="M78.3989 112.668L78.2851 112.383C78.5697 112.156 78.6835 111.928 78.5697 111.644L75.6099 103.447C75.496 103.163 75.2683 102.992 74.9268 103.049L74.813 102.764L80.6756 100.658L81.7571 101.74L81.5294 101.967C81.3587 101.853 81.1879 101.797 81.131 101.74C80.9603 101.626 80.7895 101.569 80.6187 101.569C80.1634 101.455 79.708 101.512 79.2527 101.683L76.6344 102.593L77.8866 106.065L80.5618 105.098C80.9033 104.984 81.131 104.87 81.2448 104.699C81.3587 104.586 81.4156 104.358 81.4156 104.073L81.7002 103.959L82.2694 105.553L81.9848 105.667C81.871 105.496 81.7002 105.382 81.5864 105.382C81.4156 105.326 81.131 105.382 80.7326 105.496L78.0005 106.464L79.8218 111.587L82.497 110.619C83.1801 110.391 83.7493 110.05 84.2046 109.708C84.4892 109.481 84.8307 109.139 85.1722 108.627L85.4568 108.741L84.7738 110.277L78.3989 112.668Z" fill="#191411"/>
<path d="M78.3977 112.838H78.3408C78.2839 112.838 78.2839 112.781 78.227 112.724L78.1132 112.439C78.1132 112.382 78.1132 112.269 78.1701 112.269C78.3978 112.098 78.4547 111.927 78.3977 111.699L75.438 103.503C75.3242 103.275 75.1534 103.162 74.9257 103.218C74.8688 103.218 74.755 103.162 74.755 103.105L74.6411 102.82C74.6411 102.763 74.6411 102.706 74.6411 102.706C74.6411 102.649 74.698 102.649 74.755 102.592L80.6176 100.486C80.6745 100.486 80.7314 100.486 80.7883 100.543L81.8698 101.625C81.9267 101.682 81.9267 101.795 81.8698 101.852L81.6421 102.08C81.5852 102.137 81.5283 102.137 81.4145 102.137C81.2437 102.023 81.073 101.966 81.016 101.909C80.8453 101.852 80.6745 101.795 80.5607 101.739C80.1623 101.625 79.7069 101.682 79.3085 101.852L76.861 102.706L77.9993 105.894L80.5607 104.983C80.9022 104.869 81.1299 104.755 81.1868 104.641C81.3006 104.528 81.3006 104.357 81.3006 104.129C81.3006 104.072 81.3576 104.015 81.4145 103.958L81.6991 103.845C81.756 103.845 81.8129 103.845 81.8129 103.845C81.8698 103.845 81.8698 103.901 81.9267 103.958L82.4959 105.552C82.5528 105.666 82.4959 105.723 82.3821 105.78L82.0975 105.894C82.0406 105.894 81.9267 105.894 81.9267 105.837C81.8129 105.666 81.699 105.609 81.6421 105.609C81.5283 105.552 81.3576 105.552 80.8453 105.723L78.2839 106.634L79.9915 111.415L82.4959 110.504C83.1789 110.276 83.6912 109.992 84.1466 109.65C84.4312 109.423 84.7727 109.081 85.0573 108.569C85.1142 108.512 85.1711 108.455 85.285 108.512L85.5695 108.626C85.6834 108.683 85.6834 108.74 85.6834 108.853L85.0004 110.39C85.0004 110.447 84.9434 110.447 84.8865 110.504L78.4547 112.838C78.3978 112.838 78.3977 112.838 78.3977 112.838ZM78.4547 112.382L84.6588 110.163L85.228 108.91C84.9434 109.309 84.6588 109.65 84.3742 109.878C83.9189 110.219 83.3497 110.561 82.6098 110.789L79.9346 111.756C79.8776 111.756 79.8207 111.756 79.8207 111.756C79.7638 111.756 79.7638 111.699 79.7069 111.642L77.8855 106.52C77.8855 106.463 77.8855 106.406 77.8855 106.406C77.8855 106.349 77.9424 106.349 77.9993 106.292L80.7314 105.324C81.1868 105.154 81.5283 105.097 81.756 105.211C81.8698 105.268 81.9837 105.324 82.1544 105.495L81.6991 104.186C81.6991 104.471 81.6421 104.641 81.4714 104.755C81.3575 104.926 81.1299 105.04 80.6745 105.211L77.9993 106.178C77.9424 106.178 77.8855 106.178 77.8855 106.178C77.8286 106.178 77.8286 106.121 77.7717 106.064L76.5194 102.592C76.5194 102.535 76.5194 102.478 76.5194 102.478C76.5194 102.422 76.5764 102.422 76.6333 102.365L79.2515 101.454C79.7638 101.283 80.2192 101.226 80.6745 101.34C80.8453 101.34 81.016 101.454 81.1868 101.511C81.2437 101.568 81.3575 101.625 81.5283 101.682H81.5852L80.6745 100.771L75.0396 102.763V102.82C75.3811 102.82 75.6657 102.991 75.7795 103.332L78.7393 111.529C78.7962 111.756 78.7962 112.098 78.4547 112.382Z" fill="#191411"/>
<path d="M32.8677 8.44807C32.8108 8.56191 33.9491 8.44806 33.9491 8.50497C33.9491 8.61881 33.323 8.78958 33.2092 8.90341C32.8108 9.35876 35.2013 9.24492 34.9737 9.70027C34.8029 10.0418 32.6969 10.7248 32.9246 11.0094C32.9246 11.0094 32.9815 11.0094 32.9815 10.9525C33.0953 10.8956 33.2092 10.8386 33.323 10.7817C35.3721 9.64335 37.4212 8.61882 39.5841 7.76504C39.641 7.70812 39.7549 7.70811 39.8118 7.70811C40.4948 7.48044 41.2347 7.48044 41.8609 7.19585C41.6332 6.79741 41.2348 6.39899 41.4055 5.88672C40.0395 6.05748 37.1935 6.68358 37.3073 6.96817C36.3966 7.08201 36.852 6.91125 36.9658 6.79741C36.3397 6.91125 35.9982 7.02509 35.8275 7.13892C35.5998 6.79741 35.486 6.7405 35.486 6.34206C35.429 6.34206 35.2583 6.34207 35.0306 6.39899C34.6891 6.56974 34.3476 6.74049 34.063 6.85433C34.0061 6.91125 33.9491 6.91126 33.8922 6.96817C33.5507 7.13893 33.0953 7.70812 32.4692 8.04963C32.8677 8.04963 33.4938 8.04963 33.6076 8.10655C33.7215 8.16347 32.9246 8.33423 32.8677 8.44807ZM36.9658 7.19585C39.1857 6.96817 36.852 7.99271 38.3888 7.99271C36.5674 8.44806 38.0473 7.53736 36.5674 7.76504C36.6812 7.6512 37.0228 7.53735 37.3073 7.3666C37.1935 7.3666 35.9413 7.53736 36.9658 7.19585Z" fill="#191411"/>
<path d="M48.8035 118.642C48.462 118.699 47.6651 118.642 48.5189 118.983C50.0557 119.438 49.9419 118.926 48.8035 118.642Z" fill="#191411"/>
<path d="M50.8532 2.69824C50.7393 2.75516 50.6824 2.81207 50.6255 2.81207C50.7393 2.81207 50.7963 2.75516 50.8532 2.69824Z" fill="#191411"/>
<path d="M114.77 40.7205C114.884 40.9482 114.997 41.1759 115.168 41.4036C115.168 41.4605 115.225 41.5174 115.225 41.6312C115.737 43.0542 116.193 44.4772 116.591 45.9002C116.648 46.014 116.648 46.1278 116.705 46.2417C117.616 47.6077 117.388 49.4291 117.843 50.5106C117.843 50.6244 117.9 50.7383 117.9 50.8521C118.128 52.5597 117.786 54.2672 118.413 55.8041C118.413 55.861 118.413 55.9748 118.413 56.0317C118.526 57.227 118.583 58.3654 118.583 59.5607C118.583 59.6176 118.583 59.6745 118.583 59.7884C118.583 59.8453 118.583 59.9022 118.583 59.9591C118.697 59.9591 118.811 59.9591 118.868 59.9022C118.982 60.5283 118.811 60.756 118.697 61.0975C118.64 60.9837 118.64 60.9267 118.583 60.8698C118.583 61.5528 118.526 62.2359 118.469 62.7481C118.469 62.8051 118.469 62.862 118.469 62.9758C118.469 63.6589 118.413 64.285 118.356 64.968C118.356 65.0249 118.356 65.0818 118.356 65.1957C118.071 66.2771 118.014 66.8463 118.071 68.2124C118.071 68.2693 118.071 68.3831 118.071 68.44C118.014 68.9523 117.9 69.5215 117.843 70.0338C117.843 70.0907 117.843 70.1476 117.786 70.2045C117.616 71.1722 117.559 71.7413 117.217 73.1074C117.217 73.1643 117.16 73.2212 117.16 73.3351C116.933 74.2458 116.762 75.1565 116.477 76.0103C116.477 76.0672 116.42 76.1241 116.42 76.181C116.648 76.6933 116.477 77.0917 116.193 77.5471C116.136 77.6609 116.079 77.7747 116.022 77.8316C115.396 80.1653 113.973 81.8729 113.631 84.0358C113.574 84.1497 113.517 84.2635 113.461 84.3773C113.404 84.4342 113.404 84.4912 113.347 84.5481C112.891 86.0849 111.468 87.7925 110.899 89.2724C110.842 89.3293 110.842 89.3862 110.785 89.4431C110.728 89.5569 110.672 89.6708 110.615 89.7846C110.558 89.8415 110.558 89.8985 110.501 89.9554C107.826 92.9721 106.232 96.501 103.329 99.5747C103.272 99.6316 103.215 99.6885 103.158 99.7454C102.874 100.087 102.532 100.372 102.248 100.713C102.191 100.77 102.134 100.827 102.077 100.884C99.9708 102.648 98.4909 104.982 96.2142 106.12C96.1572 106.177 96.1003 106.177 96.0434 106.234C94.6204 107.316 93.1975 108.34 91.6606 109.251C92.5144 109.194 93.8805 108.966 93.1405 109.535C94.1651 109.308 95.0188 109.023 95.7019 109.023C96.9541 108.682 97.5802 108.169 98.6047 107.999C99.1739 107.999 97.3525 108.397 97.5233 108.511C97.6371 108.568 97.9786 108.511 98.3771 108.454C100.142 107.088 101.849 105.608 103.443 104.014C103.5 103.957 103.557 103.901 103.614 103.844C104.866 103.787 104.467 101.851 105.72 101.681C105.777 101.567 105.89 101.51 105.947 101.396C106.346 100.941 106.801 100.485 107.199 99.9731C107.256 99.8593 107.37 99.8024 107.427 99.6885C107.769 99.6885 108.452 99.1762 108.395 98.5501C108.452 98.4363 108.566 98.3225 108.622 98.2655C108.679 98.2086 108.679 98.1517 108.736 98.0948C108.793 98.0379 108.85 97.981 108.85 97.924C109.305 96.2165 111.241 95.7611 111.468 94.2812C111.525 94.1674 111.582 94.0536 111.696 93.9397C111.81 93.769 111.924 93.6551 111.981 93.4843C112.038 93.4274 112.038 93.3705 112.095 93.3136C112.778 92.2321 113.461 91.6629 113.688 90.6384C113.745 90.5815 113.745 90.5246 113.802 90.4676C115.282 87.9063 116.534 85.1742 117.616 82.3852C117.673 82.2713 117.729 82.1575 117.729 82.0437C118.413 79.8807 119.323 76.864 120.063 74.4165C120.063 74.3596 120.12 74.3027 120.12 74.2458C120.632 71.9121 121.031 69.5784 121.315 67.1309C122.055 60.3006 121.6 53.6411 120.12 47.3231C120.063 47.2093 120.063 47.0954 120.006 46.9247C119.949 46.8108 119.892 46.697 119.836 46.6401C119.836 46.6401 119.835 46.6401 119.779 46.5832H119.722C119.722 46.5263 119.665 46.5263 119.665 46.4693C119.437 46.2417 119.38 46.014 119.323 45.7294C119.266 45.5586 119.209 45.3879 119.096 45.1602L119.266 45.1033C119.266 44.6479 119.266 44.1926 119.039 43.7372C119.039 43.6803 119.039 43.5665 118.982 43.5096C118.982 43.4526 118.982 43.3957 118.925 43.3388C118.925 43.225 118.868 43.1111 118.868 42.9973C118.526 42.7696 118.526 42.7696 118.64 42.0297C118.583 41.9158 118.583 41.8589 118.526 41.7451C118.469 41.6312 118.413 41.5743 118.413 41.4605C118.413 41.4036 118.356 41.3466 118.356 41.2328C118.014 40.2083 117.616 39.1837 117.217 38.1592C116.762 39.9237 115.168 38.3869 114.77 40.7205ZM119.38 59.7884C119.779 58.3654 120.86 59.2192 121.543 58.1377C121.771 59.9022 120.86 60.3576 119.836 59.2761C119.836 59.5038 120.063 60.1299 119.892 60.016C119.608 60.3575 118.697 59.9591 119.38 59.7884Z" fill="#191411"/>
<path d="M46.981 5.25942C47.1517 5.25942 47.2655 5.25942 47.3794 5.2025C51.136 4.23488 55.0634 3.66569 59.0478 3.55185C59.1616 3.55185 59.2185 3.55185 59.2754 3.55185C59.8446 3.72261 60.3569 3.43801 60.9261 3.26726C60.9261 3.21034 61.0968 3.09651 60.983 3.03959C60.9261 3.03959 60.8692 3.03959 60.8123 3.03959C60.8692 3.03959 60.9261 3.03959 60.983 3.03959C61.5522 2.98267 62.0075 2.86883 62.1783 2.69807C62.1783 2.58423 61.4953 2.58423 60.9261 2.64115C61.8368 2.52731 61.5522 2.35656 61.4384 2.1858C60.4138 2.24272 60.7553 2.35656 60.4138 2.41347C59.1047 2.41347 61.666 2.12887 61.7229 2.01504C61.3245 2.01504 60.5277 2.01504 60.2431 2.01504C60.1862 2.01504 60.1861 2.01504 60.1292 2.07196C60.1292 2.07196 60.1862 2.07195 60.2431 2.01504C60.5277 1.9012 61.0968 1.73045 61.5522 1.55969C61.4384 1.33202 61.3814 1.16126 61.3245 0.93358C61.0399 0.93358 60.6984 0.93358 60.2431 0.93358C60.8692 0.819742 60.8122 0.705904 61.1538 0.648985C61.0399 0.42131 60.8123 0.250557 60.4138 0.136719C60.1292 0.136719 59.9016 0.193631 59.6739 0.307469C59.56 0.307469 59.4462 0.307469 59.2754 0.307469C57.454 0.364387 55.6326 0.535155 53.8112 0.76283C53.5836 1.10434 52.9005 1.50276 52.1037 1.95811C52.2175 1.95811 52.3313 1.95813 52.4452 1.90121C52.4452 2.01505 52.9575 1.95812 52.9575 2.07196C52.2175 2.12888 52.1606 2.18579 51.5914 2.24271C51.5345 2.24271 51.4775 2.29963 51.4775 2.29963C52.2175 2.41347 51.876 2.69807 51.9898 2.92574C50.9084 2.98266 52.4452 2.75499 51.4775 2.75499C49.77 2.92575 50.7945 3.15342 49.8269 3.32418C49.77 3.32418 49.7131 3.32418 49.7131 3.32418C49.087 3.72261 48.8593 4.06412 49.2577 4.29179C49.6562 4.23487 50.0546 4.23488 50.3961 4.17796C50.453 4.2918 48.9731 4.40563 49.03 4.51946C48.8024 4.51946 48.6316 4.51946 48.5747 4.51946C48.1763 4.6333 47.7778 4.74714 47.3794 4.86098C47.6071 5.08866 47.4932 5.14558 46.981 5.25942ZM57.9094 2.41347C56.6002 2.58423 57.2264 2.29964 56.9418 2.1858C58.2509 2.1858 57.9663 2.24272 57.9094 2.41347ZM56.7141 1.21817C56.3726 1.44585 57.1694 1.38894 56.6002 1.61661C56.088 1.67353 55.405 1.33201 56.7141 1.21817ZM54.7788 3.09649C55.8034 3.03957 55.0065 3.32417 53.7543 3.38109C53.3559 3.26725 54.665 3.21033 54.7788 3.09649ZM50.2823 4.17796C48.9162 4.23488 50.1684 3.95027 49.3146 3.95027C49.3146 3.83644 50.5668 3.77952 50.3392 3.7226C51.7052 3.7226 49.5992 3.95028 49.77 4.06412C50.0546 4.12104 51.7052 3.89337 51.4206 4.12104C50.9084 4.23488 50.3961 4.06413 50.2823 4.17796Z" fill="#191411"/>
<path d="M62.2918 3.55232C62.4056 3.55232 62.5195 3.55232 62.6902 3.55232C62.804 3.55232 62.861 3.55232 62.9748 3.55232C63.2594 3.15389 62.7471 2.81237 61.438 3.21081C61.6657 3.26773 61.9503 3.32465 62.2918 3.55232Z" fill="#191411"/>
<path d="M48.1777 117.332C47.8362 117.503 47.267 117.73 47.95 118.072C48.9176 118.072 49.316 117.787 48.1777 117.332Z" fill="#191411"/>
<path d="M63.8286 3.43902C64.8532 3.49594 64.8531 3.55286 64.8531 3.66669C65.2516 3.66669 65.7069 3.72362 66.1054 3.78054C66.1623 3.55286 65.5931 3.3252 64.9101 3.3252C64.6824 3.38211 64.3978 3.43902 63.8286 3.43902Z" fill="#191411"/>
<path d="M63.0882 2.92649C65.1942 2.64189 64.1127 3.09724 65.8772 2.86956C65.3649 2.75573 65.7064 2.47113 63.6574 2.58497C64.3404 2.75573 62.7467 2.81265 63.0882 2.92649Z" fill="#191411"/>
<path d="M46.8113 5.37192C46.7544 5.315 46.6974 5.25809 46.6405 5.20117C45.9006 5.42885 45.1037 5.65653 44.3638 5.88421C44.4207 5.94112 44.4776 5.94111 44.5345 5.99803C45.2745 5.82728 46.0144 5.5996 46.8113 5.37192Z" fill="#191411"/>
<path d="M46.6374 118.471C44.1329 117.902 46.0113 117.845 44.6452 117.162C45.2713 117.333 45.499 117.447 45.4421 117.618C46.0113 117.674 45.7836 117.39 46.4666 117.504C45.6698 117.219 45.4421 116.991 45.2713 116.764C44.5314 117.048 45.2713 117.105 43.7345 117.447C43.5638 117.333 44.3606 117.105 44.076 117.048C44.6452 116.878 44.7021 116.935 45.1575 116.764C45.2144 116.707 45.2144 116.65 45.2144 116.593C45.2144 116.593 45.2144 116.536 45.1575 116.536C45.0437 116.422 44.7591 116.365 44.7021 116.195C44.7591 116.195 44.7591 116.195 44.816 116.195C44.7021 116.138 44.5883 116.024 44.3606 115.91C44.4745 115.853 44.4745 115.739 45.0437 115.853C45.0437 115.796 45.1006 115.796 45.1006 115.739C45.0437 115.739 44.9298 115.682 44.8729 115.682C44.076 115.455 43.2792 115.17 42.5392 114.942C42.4823 114.942 42.4254 114.885 42.3685 114.885C40.7178 113.804 38.8964 113.576 36.8473 112.666C36.7335 112.609 36.6197 112.552 36.5058 112.495C35.7659 112.153 35.0259 111.755 34.286 111.356C33.7737 111.186 33.2614 111.015 33.2614 110.844C33.3184 110.844 33.3753 110.901 33.4891 110.901C33.1476 110.73 32.863 110.56 32.5215 110.332C32.2938 110.389 32.18 110.503 32.18 110.56C31.44 110.104 31.3831 109.934 31.5539 109.763C30.8139 109.307 30.1309 108.909 29.4479 108.397C29.334 108.511 29.2202 108.567 29.1633 108.681C29.1064 108.454 29.1064 108.283 29.1064 108.112C26.0897 106.063 23.2437 103.729 20.7393 101.168C20.7962 101.339 20.8531 101.51 20.8531 101.623C19.6578 101.054 18.9179 102.363 17.8364 102.705C17.9503 102.876 18.121 102.989 18.2348 103.16C18.2918 103.217 18.3487 103.274 18.4056 103.331C19.0317 103.786 19.4871 104.355 19.9424 104.925V104.982C20.1701 105.209 20.3978 105.437 20.6254 105.665C20.7393 105.551 20.7962 105.38 20.7393 105.095C20.967 105.551 21.0239 105.778 20.967 105.949C21.0808 106.006 21.1946 106.12 21.3085 106.177C21.4223 106.234 21.4792 106.348 21.5931 106.405C21.8777 106.632 22.1622 106.917 22.4468 107.144C22.5607 107.201 22.6176 107.315 22.7314 107.372C23.3006 107.6 23.3576 107.6 23.5283 107.941C23.756 107.941 24.1544 108.397 24.5528 108.852C24.8944 109.08 25.2359 109.364 25.5205 109.592C25.5774 109.592 25.6343 109.535 25.6343 109.421C25.6912 109.535 25.6912 109.649 25.7481 109.763C26.0897 110.047 26.4881 110.275 26.8296 110.56C26.9434 110.389 26.7727 110.161 26.6589 109.99L26.4881 110.047C26.0897 109.137 25.9189 108.511 26.0897 108.624C26.2035 108.795 26.3173 109.08 26.4312 109.364C26.4312 109.307 26.4881 109.307 26.545 109.307C27.1711 109.706 27.6834 109.763 28.0249 109.592C28.651 109.877 29.334 110.332 28.8787 110.332C29.5617 110.617 31.0985 110.958 31.8385 111.243C33.3184 111.527 31.6108 110.844 32.863 111.072C33.603 111.527 34.0014 112.381 32.7492 112.324C32.9768 112.609 34.969 113.007 34.6844 113.235C36.0505 113.633 35.2536 113.121 36.5058 113.519C37.6442 113.918 34.4567 113.69 37.0181 114.316C36.7335 114.43 36.2212 114.145 35.5382 113.975C34.1721 113.918 34.969 114.829 34.3429 115.056C34.4567 115.113 34.5706 115.17 34.6844 115.227C35.1398 115.341 35.9366 115.455 35.7659 115.341C36.6766 115.739 36.7335 116.024 38.4411 116.479C38.3841 116.593 36.7904 116.081 37.0181 116.308C37.3596 116.422 37.8719 116.593 38.3841 116.764C38.7826 116.821 39.1241 116.935 39.4656 117.162C40.0917 117.39 40.5471 117.618 40.604 117.788C41.5147 118.13 42.4254 118.414 43.393 118.699C43.4499 118.699 43.5068 118.756 43.5638 118.756C43.9053 118.699 44.1899 118.87 44.4175 119.041C44.4745 119.041 44.5314 118.984 44.5314 118.927C45.0437 119.154 45.1006 119.268 44.7591 119.268C44.9867 119.439 45.2144 119.553 45.3852 119.268C45.4421 119.268 45.499 119.325 45.5559 119.325C45.6129 119.325 45.6698 119.325 45.7267 119.382C45.7836 119.325 45.8974 119.325 46.3528 119.382C46.3528 119.268 45.8974 119.154 45.9543 119.041C45.6128 118.984 45.6698 119.041 45.6128 119.097C44.5314 118.357 46.8651 118.813 46.6374 118.471ZM23.6421 105.778C23.9267 105.778 24.0406 105.722 23.9837 105.608C25.3497 106.006 25.0082 105.721 26.1466 106.006C25.4635 106.006 24.6098 105.949 23.6421 105.778Z" fill="#191411"/>
<path d="M48.6333 119.553C48.4625 119.61 48.3487 119.667 48.2349 119.723C48.5195 119.78 48.7471 119.837 49.0317 119.894C48.9179 119.78 48.8041 119.667 48.6333 119.553Z" fill="#191411"/>
<path d="M49.9402 116.763C49.4279 116.535 48.8587 116.307 48.2896 116.193C48.4603 116.364 48.8018 116.592 49.8833 116.876C49.6556 116.763 49.7125 116.706 49.9402 116.763Z" fill="#191411"/>
<path d="M87.621 111.527C86.4826 112.097 85.3442 112.666 84.1489 113.178C84.1489 113.235 84.2058 113.235 84.2058 113.292C86.0842 112.78 86.7672 112.381 88.1902 111.812C87.7917 111.812 87.7348 111.698 87.621 111.527Z" fill="#191411"/>
<path d="M93.7092 111.3C93.6523 111.357 93.4246 111.471 92.9692 111.585C93.0262 111.869 95.4737 110.845 93.7092 111.3Z" fill="#191411"/>
<path d="M68.2687 117.617C68.2117 117.617 68.1548 117.674 68.0979 117.674C68.3256 117.788 68.4394 117.902 68.3256 117.959C68.0979 117.902 67.8133 117.845 67.6426 117.788C66.0488 118.186 64.0567 118.016 62.406 117.959C62.3491 117.959 62.2922 117.959 62.2353 117.959C59.9585 118.016 57.6248 117.902 55.3481 117.674C54.2097 117.56 53.0713 117.39 51.9329 117.219C51.7053 117.219 51.5345 117.219 51.4207 117.276C51.3638 117.39 52.0468 117.617 52.5591 117.788C51.6484 117.617 51.8191 117.902 51.9329 118.129C52.9575 118.414 52.616 118.186 53.0144 118.186C54.2666 118.642 51.7053 118.073 51.5914 118.186C51.9329 118.3 52.7298 118.585 52.9575 118.699C53.0144 118.699 53.0144 118.699 53.0713 118.699C53.0713 118.699 53.0144 118.699 52.9575 118.699C52.1037 118.699 48.8024 118.642 52.616 119.894C51.6483 119.723 52.2745 120.179 50.4531 119.666C50.9084 120.065 51.7053 120.349 50.1685 120.008C50.2254 120.065 50.2823 120.065 50.3392 120.122C51.876 120.406 53.4128 120.634 55.0066 120.805C56.6572 120.975 58.2509 121.089 59.8447 121.089H59.9016C60.3 121.089 60.6984 121.089 61.04 121.089C60.8123 120.805 61.0969 120.634 61.0969 120.406C62.1214 120.691 60.5846 120.463 61.4953 120.748C63.2029 121.146 62.2922 120.577 63.2598 120.691C63.6582 120.862 63.2598 120.918 63.0321 121.032C63.4305 121.032 63.829 121.032 64.2274 120.975C64.4551 120.577 64.3982 120.235 64.0567 120.008C64.1705 119.951 64.2843 119.894 64.3982 119.837C63.9428 119.723 63.5444 119.609 63.0891 119.496C63.0891 119.325 64.512 119.78 64.512 119.609C64.5689 119.609 64.6259 119.666 64.6828 119.666C64.9105 119.552 65.1381 119.439 65.3658 119.325C65.1951 119.325 65.0243 119.268 64.7397 119.211C65.0812 119.211 65.4227 119.211 65.7073 119.154C65.8781 119.097 66.0488 118.983 66.2196 118.926C66.1627 118.869 65.9919 118.756 65.7073 118.642C65.7642 118.585 66.0488 118.699 66.3903 118.812C66.5611 118.756 66.6749 118.699 66.8457 118.585C66.4473 118.585 65.8781 118.528 65.3089 118.414C64.1136 117.959 67.2441 118.585 65.935 118.016C66.9026 118.3 67.2441 118.3 67.0164 118.129C67.2441 118.186 67.358 118.243 67.4718 118.3C67.8703 118.129 68.2687 117.902 68.6671 117.731C68.4963 117.902 68.3825 117.788 68.2687 117.617ZM55.2343 119.154C56.5434 119.439 55.8034 119.496 56.0311 119.723C54.7789 119.325 55.0635 119.325 55.2343 119.154ZM55.9173 120.862C56.3157 120.748 55.5188 120.463 56.2018 120.463C56.6572 120.577 57.1695 121.203 55.9173 120.862ZM58.4217 119.439C57.3972 119.154 58.3079 119.097 59.5032 119.439C59.8447 119.723 58.5355 119.382 58.4217 119.439ZM63.0891 119.78C64.4551 120.179 63.089 120.065 63.8859 120.349C63.8859 120.463 62.6906 120.122 62.8045 120.235C61.5522 119.78 63.6013 120.235 63.4875 120.065C63.2598 119.894 61.6092 119.609 61.9507 119.439C62.4629 119.552 62.8614 119.951 63.0891 119.78ZM65.0243 119.097C64.512 118.926 64.2274 118.756 63.8859 118.585C63.2598 118.414 62.6906 118.528 63.5444 118.756C62.1214 118.528 62.2922 118.016 62.6906 118.016C64.0567 118.243 64.1136 118.756 64.512 118.528C65.7642 118.926 64.9674 118.983 65.0243 119.097Z" fill="#191411"/>
<path d="M80.3921 114.941C79.9937 115.169 79.4814 115.283 78.9122 115.226C78.7984 115.283 78.6846 115.283 78.5707 115.34C78.2861 115.454 77.9446 115.511 77.66 115.624C77.6031 115.624 77.4893 115.681 77.4324 115.681C76.977 115.909 76.5216 116.023 76.0663 116.08C76.0094 116.08 75.9525 116.137 75.8955 116.137C75.6679 116.194 75.4971 116.194 75.3263 116.194C74.9279 116.251 74.5295 116.364 74.188 116.535C74.0741 116.535 73.9603 116.592 73.7895 116.592C72.9927 116.763 72.1958 116.934 71.3989 117.104C71.5697 117.389 71.6266 117.73 71.6266 118.015C72.9927 117.73 75.7817 116.877 75.554 116.478C76.4647 116.307 76.0094 116.535 75.9524 116.706C76.5785 116.535 76.8632 116.364 77.0339 116.251C77.3185 116.763 77.4892 116.82 77.5462 117.389C77.8308 117.389 79.4814 116.934 80.1075 116.592C79.4814 116.307 80.7336 115.454 80.6767 114.998C80.6198 114.998 80.5629 114.941 80.3921 114.941Z" fill="#191411"/>
<path d="M47.0402 118.699C47.211 118.87 45.7311 118.927 47.894 119.382C47.0972 118.984 48.2925 119.098 47.0402 118.699Z" fill="#191411"/>
<path d="M28.0847 111.186C28.1986 111.129 27.9709 110.902 28.4262 111.016C28.1986 110.902 27.8001 110.731 27.231 110.617C27.5156 110.845 27.8001 111.016 28.0847 111.186Z" fill="#191411"/>
<path d="M5.43223 73.3348C5.09071 73.5055 5.03381 74.3593 4.46462 73.904C4.69229 73.7332 4.86305 72.7656 5.3184 72.9364C5.09072 71.9687 4.91997 71.0011 4.74921 69.9766C4.29386 70.1473 3.83851 70.375 3.55391 70.6596C2.98472 71.1719 3.89541 74.1886 5.94449 78.1729C6.34293 78.5713 6.62752 78.7421 6.8552 78.799C6.34293 76.9776 5.83066 75.1562 5.43223 73.3348Z" fill="#191411"/>
<path d="M1.73151 59.8441C1.50383 61.1532 1.73151 63.1454 3.26832 67.1866C3.83751 67.9835 4.23593 68.0973 4.52053 67.9835C4.46361 67.642 4.4067 67.3005 4.4067 66.9589C4.4067 66.8451 4.4067 66.7313 4.34978 66.5605C4.1221 62.1777 3.43907 57.1689 4.52053 53.2415C4.52053 53.1277 4.57745 53.0138 4.57745 52.8431C4.63437 52.3308 4.69129 51.8754 4.80512 51.3631C4.80512 51.2493 4.86205 51.1355 4.86205 51.0216C4.69129 50.6801 4.63438 50.4525 4.6913 50.1679C4.63438 50.2248 4.57746 50.1109 4.63437 49.9402C4.80513 49.6556 4.86205 49.4848 4.97589 49.4279C5.20357 48.9726 5.48816 48.5172 5.48816 47.8342C5.48816 47.7773 5.54508 47.6634 5.54508 47.6065C5.602 47.3788 5.65891 47.1512 5.71583 46.9235C5.77275 46.8096 5.77275 46.7527 5.77275 46.6958C5.20356 45.6713 6.51269 45.159 6.51269 44.0775C6.51269 44.0206 6.56961 43.9637 6.56961 43.7929C6.62653 43.6222 6.68346 43.4514 6.74038 43.2807C6.7973 43.1668 6.79729 43.053 6.85421 42.9392C8.0495 42.2561 7.02496 40.264 7.99259 39.6948C8.0495 39.581 8.10643 39.4671 8.16335 39.3533C8.56179 37.3611 9.92783 36.2797 10.0417 35.1413C10.0986 35.0274 10.1555 34.9705 10.2124 34.8567C10.2693 34.7428 10.3263 34.6859 10.3832 34.5721C10.4401 34.4583 10.497 34.3444 10.5539 34.2306C10.7247 33.4337 11.0662 32.7507 11.5216 32.0107C11.4077 32.0107 11.2939 32.0676 11.18 32.1246C11.6354 31.3277 11.9769 30.9862 12.2046 31.0431C12.8307 30.1893 13.5137 29.3355 14.026 28.4248C14.0829 28.311 14.1398 28.1972 14.2537 28.1402C15.2782 26.6604 16.4166 25.1805 17.6119 23.8144C17.6688 23.7006 17.7826 23.6437 17.8396 23.5298C18.238 22.3345 19.5471 21.8223 20.5717 20.57C20.6286 20.4562 20.7424 20.3993 20.7993 20.2854C21.4254 19.6593 21.9946 19.0901 22.6208 18.521C22.7346 18.464 22.7915 18.3502 22.9053 18.2364C23.0761 17.2118 24.2714 17.9518 24.556 16.8134C24.6698 16.7565 24.7267 16.6426 24.8406 16.5857C26.0359 15.5612 27.2881 14.6505 28.5972 13.7398C28.7111 13.6829 28.8249 13.569 28.8818 13.5121C30.3048 12.4306 31.557 11.9753 32.8092 11.0646C30.8171 11.3492 32.1262 10.8369 32.0124 10.6662C31.6709 10.2108 30.191 9.98311 29.2803 9.6416C28.6541 10.097 27.8004 10.2677 27.0604 10.7231C27.4019 10.9508 27.8004 11.1215 27.9711 11.463C26.8327 11.7476 26.662 11.9184 25.5236 12.146C25.4098 12.203 25.3529 12.2599 25.239 12.3737C25.4098 12.3168 25.5805 12.3168 25.7513 12.2599C25.4667 12.3168 25.2959 12.3737 25.1821 12.4306C25.0683 12.4876 25.0113 12.5445 24.9544 12.6014C25.1252 12.6583 25.5805 12.6583 24.6698 12.886C27.4019 12.9429 24.4422 14.1382 27.5158 14.252C25.239 14.309 24.6129 13.8536 24.0437 13.3413C24.0437 13.3413 24.0437 13.3413 23.9868 13.3413C23.873 13.3982 23.816 13.5121 23.7022 13.569C22.7346 15.3335 20.2302 15.675 19.5471 17.2118C19.4333 17.2687 19.3764 17.3826 19.2625 17.4964C19.0918 17.6672 18.921 17.8379 18.7503 18.0087C18.6933 18.0656 18.6364 18.1225 18.6364 18.1225C18.0103 19.7732 16.132 20.1716 15.0505 22.0499C14.9367 22.1638 14.8798 22.2776 14.7659 22.3345C13.9121 23.3591 13.0584 24.4974 12.2615 25.5789C12.2046 25.6358 12.1477 25.7497 12.0908 25.8066C11.1231 25.8066 11.5785 27.6849 10.4401 28.2541C10.3832 28.3679 10.3263 28.4818 10.2124 28.5956C10.0986 28.8233 9.92784 29.051 9.814 29.2217C9.75708 29.3356 9.70015 29.4494 9.64323 29.5632C9.52939 29.7909 9.41557 30.0186 9.30173 30.2463C10.1555 30.0186 10.8385 30.1893 10.8955 31.84C9.92783 32.2953 9.41556 31.4985 8.6187 31.6123C7.19572 34.4582 5.8866 37.2473 4.74822 40.2071C4.80514 40.2071 4.86205 40.2071 4.91897 40.264C5.14664 40.6055 4.52053 43.2238 5.14664 42.6546C4.17902 44.8744 4.4067 43.3376 4.12211 43.3376C3.95135 43.3376 3.72367 43.3945 3.496 43.5653C3.32524 44.0206 3.21141 44.4191 3.04065 44.8744C3.04065 44.9313 2.98373 44.9882 2.98373 45.1021C2.81297 45.7851 2.64222 46.5251 2.47146 47.2081C2.41454 47.3219 2.41454 47.4358 2.35762 47.5496C2.18686 48.4034 2.01611 49.2002 1.84535 50.054C1.84535 50.1679 1.78843 50.2817 1.78843 50.3956V50.4525C1.95919 50.3386 2.24379 49.8833 1.90227 50.8509C3.55292 48.6311 3.04064 51.7616 4.86205 49.3141C3.49599 51.3632 2.64221 51.477 1.78843 51.6477C1.67459 51.6477 1.61767 51.9324 1.50383 52.2739C1.39 53.0707 1.27616 53.9814 1.21924 54.7783C1.21924 54.8921 1.16232 55.006 1.16232 55.1198C1.16232 55.2337 1.16231 55.4044 1.1054 55.5183C1.33307 55.5183 1.44692 55.5752 1.50383 55.5752C2.58529 55.1767 2.75605 55.1767 2.3007 55.5183C2.81297 55.4044 3.38215 55.3475 3.38215 55.2337C4.29285 55.2906 3.43907 55.689 3.09756 56.0305C3.43907 55.6321 2.35763 55.6321 1.04849 55.6321C0.934652 56.9981 0.87772 58.4211 0.820801 59.7872C0.820801 59.8441 0.820801 59.8441 0.820801 59.901C1.21923 60.0148 1.50383 60.0718 1.73151 59.8441ZM26.662 14.4797C27.2312 14.4228 27.4589 14.4797 27.4019 14.5936C26.4912 14.7643 26.2636 14.5935 26.662 14.4797ZM5.71583 42.3131C5.60199 42.6546 5.43124 43.1099 5.20356 43.736C5.14664 43.6791 5.08972 43.6791 5.08972 43.6222C5.43123 42.7115 5.71583 42.1423 5.71583 42.3131Z" fill="#191411"/>
<path d="M68.8386 3.66513C67.9848 3.72205 67.9279 3.60822 67.9279 3.49438C67.4157 3.60822 67.0172 3.72206 66.7896 3.8359C66.9603 3.8359 67.0741 3.8359 67.2449 3.89282C67.8141 3.94974 68.4402 4.00666 69.0094 4.12049C69.0663 4.12049 69.0663 4.12049 69.1232 4.12049C69.1232 4.12049 69.1232 4.1205 69.0663 4.17742C73.1075 4.74661 76.978 5.71423 80.6777 7.02336C80.7347 7.08028 80.8485 7.08027 80.9054 7.08027C82.2146 7.53562 82.8407 7.59255 83.6945 8.16174C83.8083 8.21866 83.9221 8.27557 84.036 8.33249C85.5159 8.9586 86.9958 9.69855 88.4187 10.4385C88.5326 10.4954 88.6464 10.5523 88.7602 10.6092C90.4678 11.4061 92.2323 12.2599 93.4845 13.5121C93.5414 13.569 93.5984 13.569 93.6553 13.6259C97.0704 15.9596 100.201 18.6917 103.047 21.7084C103.161 21.8223 103.218 21.8792 103.275 21.993C104.014 23.3591 105.779 24.2129 106.177 25.4082C106.234 25.4651 106.234 25.522 106.291 25.5789C106.348 25.6927 106.462 25.7497 106.519 25.8635C106.576 25.9204 106.633 25.9774 106.633 26.0343C108.454 27.5711 108.796 30.0755 110.389 31.5554C110.446 31.6123 110.446 31.6692 110.503 31.7262C110.845 32.2953 111.186 32.9215 111.528 33.4907C111.585 33.6045 111.642 33.7183 111.699 33.7752C112.666 34.7429 113.065 36.6212 113.577 37.7026C113.634 37.7596 113.634 37.8734 113.691 37.9303C113.748 38.1011 113.805 38.2718 113.918 38.3857C113.975 38.4426 113.975 38.4995 113.975 38.5564C114.032 39.0118 114.26 39.8086 114.658 40.5486C114.829 38.4995 115.74 37.6457 116.65 36.8489C116.537 36.5643 116.423 36.2797 116.252 35.9951C116.195 35.8812 116.138 35.7674 116.081 35.6536C116.252 35.0275 116.252 35.0274 115.797 34.9705C115.74 34.8567 115.683 34.7429 115.626 34.629C115.284 33.946 114.943 33.3199 114.601 32.6369C114.545 32.523 114.488 32.4092 114.431 32.2953C113.52 31.6123 113.634 30.417 113.008 29.734C112.951 29.6771 112.951 29.6202 112.894 29.5632C112.837 29.5063 112.837 29.4494 112.78 29.3925C112.723 29.2786 112.666 29.1648 112.609 29.051C112.666 27.7987 111.414 28.311 111.414 27.2296C111.357 27.1157 111.243 27.0019 111.186 26.945C110.959 26.6035 110.674 26.2619 110.446 25.8635C110.389 25.8066 110.389 25.7497 110.333 25.6928C109.422 23.8144 108.283 22.4484 106.69 21.0823C106.633 20.9685 106.519 20.9116 106.462 20.7977C105.665 19.887 104.811 18.9763 103.958 18.1225C103.901 18.0656 103.844 18.0087 103.787 17.9518C102.648 17.5533 102.705 16.9272 101.965 16.1873C101.909 16.1304 101.852 16.0735 101.795 16.0165C101.51 15.7889 101.225 15.5043 100.941 15.2766C100.827 15.2197 100.77 15.1058 100.656 15.0489C100.429 14.8212 99.8594 14.7643 100.087 14.5936C99.9733 14.5366 99.9164 14.4228 99.8025 14.3659C96.8427 11.9184 93.6553 9.69855 90.2971 7.82022C90.2401 7.7633 90.1832 7.7633 90.1263 7.70638C89.5571 6.90951 88.248 7.36487 87.508 6.34033C87.3942 6.28341 87.2803 6.2265 87.1665 6.16958C86.4266 5.82806 85.6866 5.48654 84.9467 5.14503C84.8897 5.14503 84.8328 5.0881 84.7759 5.0881C83.6375 4.40508 82.4422 4.29125 80.9623 3.60823C80.8485 3.55131 80.7347 3.5513 80.6208 3.49438C80.1655 3.32363 79.7101 3.20979 79.2548 3.03904C79.0271 3.94974 80.6777 4.462 80.2224 5.48654C78.7994 4.63276 78.401 3.5513 77.7749 2.58368C74.5874 1.67297 71.2861 1.04687 67.871 0.648438C67.9279 0.705356 68.0987 0.819187 68.554 0.819187C67.871 0.876106 67.6433 0.819198 67.7002 0.70536C67.6433 0.70536 67.5864 0.705363 67.5864 0.762282C67.6433 0.87612 67.5864 0.989947 67.4156 1.1607C68.4971 1.27454 68.0418 1.67298 69.2371 1.78682C69.1232 1.90065 69.2371 2.01449 68.2125 2.07141C68.0987 2.24217 69.6355 2.0714 69.5217 2.24216C68.6679 2.29908 68.4402 2.18525 67.871 2.18525C66.3911 2.52677 67.7572 2.52677 67.4726 2.75444C67.871 2.86828 68.6109 2.6406 69.4078 2.6406C68.6109 2.75444 69.3509 2.9252 67.7002 3.03904C67.9848 3.20979 68.3833 3.20978 67.5295 3.38054C67.7572 3.43746 68.2125 3.43746 68.7248 3.38054C69.8062 3.15286 68.1556 3.15287 68.4402 2.98212C70.3185 3.15287 69.9201 3.2667 68.8386 3.66513ZM82.4422 5.48654C83.5806 5.20195 83.5806 5.48654 82.4422 5.65729C82.4422 5.60038 82.4422 5.54346 82.4422 5.48654ZM80.2224 5.82806C81.0193 5.82806 80.8485 5.99881 80.5639 6.22648C80.0517 6.2834 79.9378 5.99882 80.2224 5.82806ZM77.035 3.32363C78.0595 3.38055 76.1812 3.5513 77.6041 3.5513C77.1488 3.60822 76.9211 3.60821 76.8642 3.66513C75.4412 3.72205 76.6934 3.43747 77.035 3.32363ZM75.8966 5.14503C74.9859 5.08811 75.0428 4.91735 75.2135 4.57584C76.2381 4.462 76.0104 4.91735 75.8966 5.14503ZM75.2135 4.06357C76.0673 3.89281 75.3274 4.29124 75.555 4.29124C75.0428 4.34816 74.4736 4.34817 75.2135 4.06357ZM73.3921 3.8359C73.6198 4.00666 72.1399 4.34817 72.9368 4.34817C71.4569 4.51892 72.8799 3.8359 73.3921 3.8359Z" fill="#191411"/>
<path d="M95.4173 109.706C93.9943 110.047 94.1081 109.933 94.2789 109.592C91.6037 110.446 93.2544 109.307 90.2376 110.275C90.2946 110.559 89.7254 110.958 88.8716 111.413C89.3839 111.413 91.376 110.559 91.4329 110.673C90.2376 111.356 92.0021 111.413 92.2867 111.755C94.1081 111.186 93.8235 111.129 95.1896 110.73C95.4172 110.616 95.588 110.446 95.8157 110.332C95.6449 110.161 94.7342 110.275 95.4173 109.706Z" fill="#191411"/>
<path d="M18.3508 98.6061C16.4725 96.4432 14.708 94.1664 13.1712 91.7758C13.1142 91.7189 13.1142 91.662 13.0573 91.6051C11.7482 89.6699 10.7236 87.6777 9.69911 85.5717C9.64219 85.5148 9.6422 85.4579 9.58528 85.401C9.3576 85.0025 9.18685 84.5471 9.01609 84.0918C8.84533 84.1487 8.73148 84.2626 8.56073 84.3195C7.76386 84.7748 7.08083 85.344 7.08083 87.1654C6.85316 86.9378 6.73933 86.8808 6.62549 86.8808C7.36543 88.4176 8.38997 89.8406 9.18684 91.2636C9.24376 91.3774 9.30067 91.4913 9.35759 91.6051C9.52835 91.9466 9.75602 92.2312 9.92678 92.5727C9.9837 92.6866 10.0406 92.8004 10.1545 92.9142C10.3821 93.085 10.5529 93.3127 10.7237 93.4834C12.3174 94.7926 13.968 96.5001 14.5941 95.3048C15.4479 96.7847 16.3586 98.2646 17.2124 99.6876C17.4401 99.2892 18.0093 99.1753 18.3508 98.6061Z" fill="#191411"/>
<path d="M53.8112 28.3122C53.6973 28.3122 53.5835 28.3691 53.5266 28.3691C53.1281 27.9138 52.502 28.7676 51.9897 28.6537C51.8759 28.6537 51.7621 28.7106 51.7051 28.7106C50.7944 28.9383 49.8837 29.166 48.973 29.4506C48.8592 29.5075 48.7454 29.5075 48.6884 29.5644C48.2331 29.2229 47.607 30.0198 47.2085 30.0767C47.0947 30.1336 47.0378 30.1336 46.9239 30.1905C44.5903 31.1012 42.3135 32.2396 40.2075 33.6057L41.9151 35.3132C44.2488 33.7764 46.7532 32.5811 49.4284 31.7274C49.5422 31.6704 49.656 31.6704 49.7699 31.6135C52.9004 30.4751 56.714 29.9629 60.186 29.9629C60.2999 29.9629 60.4137 29.9629 60.5276 29.9629C61.4952 29.9059 62.0075 29.9629 62.8612 30.0198C62.9751 30.0198 63.0889 30.0198 63.1458 30.0198C63.3166 30.0198 63.4874 30.0198 63.6581 30.0767C63.772 30.0767 63.8858 30.0767 63.9996 30.1336C65.138 30.2475 65.7072 30.3044 66.5041 30.4751C66.561 30.4751 66.6179 30.4751 66.6748 30.4751C66.7886 30.4751 66.9025 30.5321 66.9594 30.5321C68.3255 30.0767 68.7239 30.9874 69.4069 31.0443C69.5207 31.1012 69.6346 31.1012 69.6915 31.1582C71.1145 31.4997 72.4805 31.955 73.7897 32.5242C73.8466 32.5242 73.9035 32.5811 73.9604 32.5811C74.0173 32.5811 74.0743 32.6381 74.1312 32.6381C75.0988 31.5566 74.8142 33.6626 75.2696 33.1503C75.3834 33.2072 75.4403 33.2642 75.5541 33.2642C76.1803 33.5487 76.7494 33.8903 77.3756 34.1749C77.4325 34.2318 77.4894 34.2318 77.5463 34.2887C79.9369 35.4271 81.8721 37.3054 83.6366 38.8991C83.8074 38.3299 84.3766 38.3869 84.6612 38.2161C84.7181 38.1592 84.775 38.1592 84.832 38.1023C85.2873 37.8177 85.7426 37.5331 85.7426 37.5331C83.6366 35.4271 81.1322 33.6057 78.457 32.1827C78.4001 32.1258 78.3432 32.1258 78.2863 32.0689C76.2372 30.3613 73.1067 30.1336 70.773 29.166C70.7161 29.166 70.6591 29.1091 70.6022 29.1091C70.1469 28.9952 69.6915 28.8814 69.2362 28.7676C69.1223 28.7676 69.0085 28.7106 68.9516 28.7106C67.9839 28.8245 67.4717 28.7676 66.7887 28.3122C66.6748 28.3122 66.561 28.2553 66.4471 28.2553C65.7072 28.1415 64.9103 28.0276 64.1135 27.9707C64.0565 27.9707 63.9427 27.9707 63.8858 27.9707C63.8288 27.9707 63.8288 27.9138 63.8858 27.9138C63.6581 27.9138 63.4874 27.8569 63.2597 27.8569C63.1458 27.8569 63.032 27.8569 62.9182 27.8569C62.8043 27.8569 62.6336 27.9138 62.5197 27.8569C62.2921 27.9707 62.1782 28.0845 62.6336 28.1415C62.1213 28.1984 62.1213 28.2553 61.666 28.3122C62.6336 28.3122 61.0968 28.7106 62.9182 28.483C62.8613 28.5968 62.1213 28.7106 62.8043 28.7676C61.7798 28.9952 61.0398 29.0522 60.6983 29.2229C60.9829 29.2229 61.8367 29.0522 62.349 29.1091C62.1213 29.166 62.0644 29.2229 62.1213 29.2798C61.6659 29.2798 60.4706 29.3368 60.8691 29.4506C60.0722 29.4506 60.0722 29.2798 60.186 29.1091C61.8936 29.0522 60.186 28.8814 62.0075 28.7676C61.6659 28.7106 60.8122 28.8245 60.2999 28.8245C60.1291 28.4261 60.3568 28.0845 60.6983 27.743C59.7876 27.6861 58.6493 27.6861 57.7955 27.8569C57.6816 27.8569 57.5678 27.8569 57.4539 27.8569C57.3401 27.8569 57.2263 27.8569 57.1124 27.8569C56.9986 27.8569 56.8847 27.8569 56.7709 27.8569C56.2017 27.743 55.6326 27.6861 55.8033 27.9707C55.6895 27.9707 55.5756 28.0276 55.4618 28.0276C55.0633 28.0845 54.4373 28.1984 53.8112 28.3122ZM65.3087 28.3122C65.0811 28.4261 65.0811 28.426 65.4795 28.483C65.138 28.5399 64.8534 28.5399 64.5119 28.5968C64.8534 28.5399 64.7396 28.483 64.1135 28.5968C64.1135 28.483 64.5119 28.4261 65.3087 28.3122Z" fill="#191411"/>
<path d="M63.3169 23.3027C63.203 23.3027 63.0892 23.3027 62.9754 23.3027C62.8615 23.3027 62.8046 23.3027 62.6908 23.3027C62.6339 23.3027 62.5769 23.3597 62.52 23.3597C62.7477 23.3597 63.0323 23.3027 63.3169 23.3027Z" fill="#191411"/>
<path d="M67.7546 94.8495C67.8684 94.8495 67.9822 94.7926 68.0961 94.7926C68.5514 94.7356 68.9498 94.6787 69.4052 94.5649C69.519 94.5649 69.6329 94.508 69.7467 94.508C72.1942 93.8818 73.9018 93.028 76.0647 92.6296C76.1786 92.5727 76.2924 92.5727 76.3493 92.5158C78.7968 91.4913 81.1305 90.1821 83.2934 88.5884L81.5289 86.5962C81.1874 86.8239 80.9028 87.0516 80.5613 87.2792C80.4475 87.3362 80.3906 87.3931 80.3336 87.45C78.1707 88.5315 76.3493 90.3529 73.6172 90.8082C73.5603 90.8082 73.5034 90.8651 73.4465 90.8651C73.1619 90.979 72.9342 91.0359 72.6496 91.1497C72.5357 91.2066 72.4219 91.2067 72.3081 91.2636C71.7958 91.8897 71.3974 90.8651 71.0559 91.6051C70.942 91.662 70.8282 91.662 70.7143 91.7189C68.6083 92.2312 66.5023 92.5727 64.3963 92.6865C64.2825 92.6865 64.1687 92.6865 64.0548 92.6865C63.6564 92.1174 62.9734 93.028 62.4611 92.7434C62.3472 92.7434 62.2334 92.7434 62.1196 92.7434C61.9488 92.7434 61.7781 92.7434 61.6642 92.7434C61.6073 92.7434 61.5504 92.7434 61.4935 92.7434C61.152 92.9142 60.7535 93.085 60.3551 93.3696C60.3551 93.4265 59.9567 93.3127 59.729 93.2557C59.5013 93.1988 59.3306 93.1419 59.1029 93.085C59.5582 93.0281 59.729 92.9142 59.8428 92.7434C59.5582 92.6865 59.2736 92.6865 58.989 92.5727C58.8752 92.5727 58.7614 92.5727 58.6475 92.5158C57.623 92.402 56.6554 92.2312 55.6308 92.0035C55.517 92.0035 55.4601 91.9466 55.4032 91.9466C54.4925 91.7189 53.3541 92.1173 52.8987 91.2066C52.728 91.0928 52.6141 91.0359 52.4434 90.922C52.1588 90.7513 51.8742 90.6944 51.4757 90.8082C51.4188 90.8082 51.3619 90.7513 51.305 90.7513C50.7358 90.5236 50.1666 90.3528 49.6543 90.0683C49.5405 90.0113 49.4267 90.0114 49.3697 89.9544C48.8006 89.6698 48.8006 89.6698 48.1745 89.3853C48.0606 89.3283 48.0037 89.2714 47.8899 89.2145C44.5886 87.5638 41.6288 85.2871 39.1244 82.498L36.9614 84.0918C37.5306 84.7179 38.0998 85.2871 38.669 85.8563C38.7259 85.9132 38.8398 86.027 38.8967 86.0839C39.8074 87.2792 41.458 87.45 41.9703 88.873C42.0272 88.9299 42.0841 88.9868 42.141 89.0437C42.2549 89.1576 42.4256 89.1576 42.6533 89.1007C42.7102 89.1576 42.7672 89.1576 42.8241 89.2145C43.1656 89.4421 43.564 89.7268 43.9055 89.9544C43.9625 90.0114 44.0194 90.0113 44.0763 90.0683C44.1901 90.0683 44.2471 90.1252 44.304 90.1252C44.3609 90.1252 44.4747 90.1821 44.5317 90.239C44.9301 90.296 45.4424 90.3529 45.5562 90.8651C45.6131 90.9221 45.7269 90.979 45.7839 91.0359C45.9546 91.1497 46.1254 91.2636 46.2961 91.3205C46.41 91.3774 46.4669 91.4343 46.5807 91.4912C50.3374 93.3695 54.4355 94.5649 58.6475 95.0202C58.6475 94.9633 58.8183 94.9633 59.3305 95.0771C59.5013 95.0771 59.6721 95.134 59.8997 95.134C59.4444 95.0202 58.8752 94.7925 58.8183 94.7356C58.6475 94.5649 59.3875 94.6787 59.1029 94.451C58.1353 94.1664 58.5337 94.451 57.5092 94.1664C57.0538 93.7111 59.3306 94.5649 59.3875 94.3941C59.729 94.5079 59.729 94.5649 60.3551 94.7356C60.412 94.8494 59.5013 94.8495 60.2982 95.134C62.2334 95.2479 64.2256 95.2479 66.2178 95.0202C66.3316 95.0202 66.4454 95.0202 66.5593 94.9633C67.1284 94.9064 67.1285 94.9064 67.7546 94.8495ZM60.0705 93.3696C61.2658 93.7111 59.6721 93.768 58.5337 93.3126C59.4444 93.4834 60.0705 93.5403 60.0705 93.3696ZM60.8674 94.3941C59.9567 94.1664 60.2982 94.451 60.2982 94.5649C58.8752 94.1664 60.5828 94.2803 59.2736 93.8818C59.2167 93.768 60.412 94.1664 60.8674 94.2234C60.6397 94.2234 60.1274 94.1095 60.2413 94.2234C60.8105 94.2803 61.6642 94.6218 61.5504 94.7356C61.095 94.6218 60.9243 94.5079 60.8674 94.3941ZM62.8026 94.9633C61.6642 94.7356 62.3473 94.6787 62.1196 94.508C62.6888 94.6787 62.8595 94.8495 62.8026 94.9633Z" fill="#191411"/>
<path d="M63.1439 7.36578L62.9731 7.25195C62.9731 7.25195 62.9731 7.30887 62.9731 7.4227C63.0301 7.4227 63.087 7.36578 63.1439 7.36578Z" fill="#191411"/>
<path d="M63.371 7.53613C63.3141 7.59305 63.2003 7.59304 63.0864 7.64996C63.2003 7.64996 63.371 7.70688 63.5987 7.70688L63.371 7.53613Z" fill="#191411"/>
</svg>
