<svg width="173" height="109" viewBox="0 0 173 109" fill="none" xmlns="http://www.w3.org/2000/svg">
<path d="M156.063 0.00488281H16.8857C7.61656 0.00488281 0.0708008 7.55065 0.0708008 16.8198V91.439C0.0708008 100.708 7.61656 108.254 16.8857 108.254H156.063C165.332 108.254 172.878 100.708 172.878 91.439V16.8198C172.878 7.55065 165.332 0.00488281 156.063 0.00488281ZM171.76 91.439C171.76 100.103 164.68 107.183 156.016 107.183H16.8857C8.22209 107.183 1.14212 100.103 1.14212 91.439V16.8198C1.14212 8.15617 8.22209 1.0762 16.8857 1.0762H156.063C164.727 1.0762 171.807 8.15617 171.807 16.8198V91.439H171.76Z" fill="#191411"/>
<path d="M151.777 4.14941H21.1234C11.8077 4.14941 4.21533 11.7417 4.21533 21.0575V87.1993C4.21533 96.5151 11.8077 104.107 21.1234 104.107H151.777C161.093 104.107 168.685 96.5151 168.685 87.1993V21.0575C168.732 11.7417 161.139 4.14941 151.777 4.14941ZM165.331 65.8663V100.567L165.471 87.1993C165.471 94.7451 159.369 100.847 151.823 100.847H21.1234C13.5777 100.847 7.28952 94.3259 7.28952 86.7801L6.59084 87.0596L6.45111 93.8135L7.3361 95.6767V95.1177V67.8226V65.9128V65.8197L7.47585 21.0575C7.47585 13.5117 13.5777 7.40993 21.1234 7.40993H151.777C159.323 7.40993 165.424 13.5117 165.424 21.0575L165.331 65.8663Z" fill="#191411"/>
<path d="M54.9488 35.4994V35.6391H52.0609V35.4994C52.5267 35.0336 52.1541 34.3349 51.4088 33.0307L49.4059 29.5373C49.1265 29.5373 48.847 29.5839 48.5675 29.5839H46.8441V34.3815C46.8441 35.0336 46.9838 35.3131 47.2633 35.4994C47.2633 35.546 47.2633 35.6391 47.2633 35.6391H44.981C44.981 35.6391 44.981 35.546 44.981 35.4994C45.2604 35.3131 45.4002 35.0336 45.4002 34.3815V23.7615C45.4002 23.1094 45.2604 22.83 44.981 22.6436C44.981 22.5971 44.981 22.5039 44.981 22.5039H48.6141C51.502 22.5039 54.157 23.5752 54.157 26.0439C54.157 27.8139 52.7596 28.8852 50.8965 29.3044L52.5733 32.2389C53.598 34.1952 54.2035 34.8473 54.9488 35.4994ZM52.6199 26.0439C52.6199 24.6 52.1541 22.6436 48.5675 22.6436H46.8441V29.3976H48.5675C52.1075 29.3976 52.6199 27.4878 52.6199 26.0439Z" fill="#191411"/>
<path d="M55.1799 35.8246H51.8263V35.3588L51.8728 35.3122C52.1989 34.9861 51.9194 34.4738 51.2207 33.2161L51.1742 33.1696L49.2644 29.8159C49.0315 29.8159 48.7986 29.8625 48.5657 29.8625H47.0752V34.4272C47.0752 35.0793 47.215 35.219 47.3547 35.3122L47.4479 35.3588V35.8711H44.6997V35.3588L44.7929 35.3122C44.9326 35.219 45.0723 35.0793 45.0723 34.4272V23.8072C45.0723 23.1551 44.9326 23.0154 44.7929 22.9222L44.6997 22.8757V22.3633H48.5657C52.0591 22.3633 54.3415 23.8538 54.3415 26.1362C54.3415 27.7664 53.177 28.9775 51.1742 29.5364L52.7112 32.238C53.8291 34.1943 54.3881 34.7532 55.0868 35.4053L55.1799 35.4519V35.8246ZM52.4318 35.3588H54.4812C53.8757 34.7998 53.2702 34.0546 52.292 32.3777L50.5686 29.3967C50.2892 29.4898 50.0097 29.5364 49.6836 29.583L51.6399 32.9832C52.292 34.1011 52.7113 34.7998 52.4318 35.3588ZM45.3984 35.3588H46.8423C46.7026 35.1259 46.6094 34.7998 46.6094 34.334V22.6893H45.3518C45.4915 22.9222 45.5847 23.2483 45.5847 23.7141V34.334C45.5847 34.8464 45.5381 35.1259 45.3984 35.3588ZM47.0752 29.1638H48.5657C51.1276 29.1638 52.3852 28.1391 52.3852 26.043C52.3852 24.6922 52.0126 22.8757 48.5657 22.8757H47.0752V29.1638ZM51.6865 23.2483C52.4784 23.8538 52.851 24.7854 52.851 26.043C52.851 27.2541 52.4784 28.1856 51.7331 28.7912C52.7578 28.372 53.8757 27.5801 53.8757 26.043C53.8757 24.6457 52.9441 23.7607 51.6865 23.2483Z" fill="#191411"/>
<path d="M66.9132 35.5925H64.0253V35.4994C64.4911 35.0336 64.3513 34.3349 63.839 32.9841L62.9074 30.6086H58.2495L57.7372 32.0526C57.1316 33.776 57.0385 34.661 57.8303 35.4994V35.6391H55.6411V35.4994C56.433 34.661 56.9919 33.776 57.5974 32.0526L60.3921 24.1342L59.7866 22.5039H61.2771L64.9103 32.006C65.6555 33.8691 66.1679 34.6144 66.8666 35.4528V35.5925H66.9132ZM62.9074 30.4223L60.5319 24.3205L58.3427 30.4223H62.9074Z" fill="#191411"/>
<path d="M67.1446 35.8253H63.7909V35.3595L63.8375 35.313C64.2101 34.9403 64.1635 34.4745 63.6046 33.0306L62.7662 30.7948H58.4344L57.9686 32.0524C57.363 33.8224 57.363 34.5677 58.0152 35.2664L58.0617 35.313V35.7787H55.4067V35.313L55.4533 35.2664C56.1986 34.5211 56.7109 33.7293 57.363 31.8661L60.1578 24.0409L59.4591 22.1777H61.4154L65.1417 31.8195C65.887 33.6827 66.3527 34.3814 67.0514 35.2198L67.098 35.2664V35.8253H67.1446ZM64.3964 35.3595H66.5391C65.9335 34.6143 65.4212 33.7759 64.7225 32.099L61.1359 22.7367H60.1578L60.6701 24.0875L63.1854 30.6551L64.0238 32.8443C64.4896 34.0087 64.7691 34.8006 64.3964 35.3595ZM56.1054 35.3595H57.5028C57.1767 34.9403 57.0836 34.4745 57.0836 33.9156C56.8041 34.4745 56.478 34.9403 56.1054 35.3595ZM58.6673 30.1893H62.5333L60.5304 24.9725L58.6673 30.1893Z" fill="#191411"/>
<path d="M70.1329 23.7596V34.3795C70.1329 35.0316 70.2726 35.3111 70.5521 35.4974C70.5521 35.544 70.5521 35.6372 70.5521 35.6372H68.2231C68.2231 35.6372 68.2231 35.544 68.2231 35.4974C68.5026 35.3111 68.6424 35.0316 68.6424 34.3795V23.7596C68.6424 23.1075 68.5026 22.828 68.2231 22.6417C68.2231 22.5951 68.2231 22.502 68.2231 22.502H70.5521C70.5521 22.502 70.5521 22.5951 70.5521 22.6417C70.2726 22.828 70.1329 23.1075 70.1329 23.7596Z" fill="#191411"/>
<path d="M70.7835 35.8242H67.9888V35.3119L68.0819 35.2653C68.2217 35.1721 68.3614 35.0324 68.3614 34.3803V23.7603C68.3614 23.1082 68.2217 22.9685 68.0819 22.8753L67.9888 22.8288V22.3164H70.7835V22.8288L70.6438 22.8753C70.4574 22.9685 70.3177 23.1082 70.3177 23.7603V34.3803C70.3177 35.0324 70.4574 35.1721 70.6438 35.2653L70.7835 35.3119V35.8242ZM68.6875 35.3585H70.1314C69.9451 35.1256 69.8985 34.7529 69.8985 34.3337V23.7138C69.8985 23.2946 69.9451 22.9685 70.1314 22.689H68.6875C68.8272 22.9219 68.9203 23.248 68.9203 23.7138V34.3337C68.8738 34.8461 68.8272 35.1256 68.6875 35.3585Z" fill="#191411"/>
<path d="M81.9584 24.0879L81.3995 26.0442H81.2597C80.1884 23.529 78.8376 22.5974 77.3471 22.5974C75.484 22.5974 74.4127 23.6221 74.3195 24.7866C73.9469 28.5129 82.005 27.3018 82.005 31.9597C82.005 34.1955 80.0021 35.7792 77.3471 35.7792C75.1113 35.7792 73.714 35.0339 72.27 33.916L72.829 31.7734H72.9687C73.9003 33.6831 75.6703 35.4065 78.0924 35.4065C79.676 35.4065 81.0268 34.3818 81.1666 33.2173C81.6324 29.2116 73.6208 30.5158 73.6208 25.8113C73.6208 24.2742 74.8319 22.4111 77.8595 22.4111C79.2568 22.3179 80.8405 23.2029 81.9584 24.0879Z" fill="#191411"/>
<path d="M77.3023 35.9648C75.0666 35.9648 73.6226 35.2195 72.0855 34.055L71.9458 33.9619L72.5979 31.4932H73.0637L73.1103 31.6329C73.6226 32.6577 75.1597 35.1263 78.0476 35.1263C79.4916 35.1263 80.7492 34.2413 80.8889 33.1235C81.1218 31.3535 79.4916 30.7479 77.6284 30.0027C75.6255 29.2108 73.3431 28.3258 73.3431 25.764C73.3431 23.994 74.7405 22.1309 77.8147 22.1309C79.4916 22.1309 81.215 23.2488 82.0534 23.9474L82.1931 24.0406L81.541 26.3229H81.0752L81.0286 26.1832C80.0971 23.994 78.8395 22.8761 77.3489 22.8761C75.5789 22.8761 74.6474 23.9009 74.5542 24.8324C74.4145 26.4161 75.9982 27.0216 77.8147 27.7203C79.8642 28.5122 82.1931 29.3972 82.1931 32.0056C82.1931 34.2413 80.1437 35.9648 77.3023 35.9648ZM72.5047 33.7756C73.8555 34.8003 75.1597 35.4524 77.0695 35.499C75.3926 35.1729 73.9021 34.0085 72.924 32.2385L72.5047 33.7756ZM74.0884 24.5064C73.9021 24.879 73.8089 25.3448 73.8089 25.7174C73.8089 27.9532 75.8584 28.7916 77.8147 29.5369C79.6779 30.2822 81.6342 31.0274 81.4013 33.17C81.4013 33.3098 81.3547 33.4495 81.3081 33.5892C81.5876 33.1235 81.7739 32.5645 81.7739 31.959C81.7739 29.6766 79.6779 28.8848 77.675 28.1395C75.8118 27.4409 73.9021 26.7422 74.0884 24.7393C74.0884 24.6461 74.0884 24.553 74.0884 24.5064ZM78.886 22.7364C79.8176 23.2022 80.6094 24.1803 81.2615 25.5311L81.6342 24.1803C81.1218 23.7611 80.0505 23.0159 78.886 22.7364Z" fill="#191411"/>
<path d="M91.6449 33.3548L91.2256 35.6372H83.6333C83.6333 35.6372 83.6333 35.544 83.6333 35.4974C83.9128 35.3111 84.0525 35.0316 84.0525 34.3795V23.7596C84.0525 23.1075 83.9128 22.828 83.6333 22.6417C83.6333 22.5951 83.6333 22.502 83.6333 22.502H90.6201L90.9927 24.598L90.8996 24.6911C90.0612 23.713 88.8967 22.6883 86.8007 22.6883H85.4965V28.2311L90.2009 27.8119V28.7435L85.4965 28.3709V35.4974H87.0335C89.083 35.4974 90.6667 34.4261 91.5051 33.3082L91.6449 33.3548Z" fill="#191411"/>
<path d="M91.4613 35.8242H83.4497V35.3119L83.5429 35.2653C83.6826 35.1721 83.8223 35.0324 83.8223 34.3803V23.7603C83.8223 23.1082 83.6826 22.9685 83.5429 22.8753L83.4497 22.8288V22.3164H90.8557L91.3215 24.7385L90.9489 25.018L90.8091 24.8317C89.9241 23.8535 88.8529 22.9219 86.8965 22.9219H85.8252V27.9524L90.5297 27.5332V28.9772L85.8252 28.6045V35.2653H87.1294C89.5515 35.2653 90.9489 33.7748 91.4147 33.1693L91.5544 32.9829L91.9736 33.2624L91.4613 35.8242ZM89.0392 35.3585H91.042L91.3215 33.8679C90.8557 34.3803 90.1105 34.9858 89.0392 35.3585ZM84.1018 35.3585H85.3129V22.7356H84.0552C84.195 22.9685 84.2881 23.2945 84.2881 23.7603V34.3803C84.2881 34.8461 84.2416 35.1256 84.1018 35.3585ZM87.4089 28.2319L90.0173 28.4648V27.999L87.4089 28.2319ZM88.7131 22.7356C89.5515 23.0617 90.1571 23.5274 90.716 24.0398L90.4831 22.7356H88.7131Z" fill="#191411"/>
<path d="M105.529 29.0696C105.529 32.7959 102.361 35.6372 98.0295 35.6372H93.3716C93.3716 35.6372 93.3716 35.544 93.3716 35.4974C93.6511 35.3111 93.7908 35.0316 93.7908 34.3795V23.7596C93.7908 23.1075 93.6511 22.828 93.3716 22.6417C93.3716 22.5951 93.3716 22.502 93.3716 22.502H98.0295C102.361 22.502 105.529 25.3898 105.529 29.0696ZM104.038 29.0696C104.038 25.6227 101.756 22.6883 98.0295 22.6883H95.2347V35.4974H98.0295C101.756 35.4974 104.038 32.5164 104.038 29.0696Z" fill="#191411"/>
<path d="M98.028 35.8242H93.1372V35.3119L93.2304 35.2653C93.3701 35.1721 93.5099 35.0324 93.5099 34.3803V23.7603C93.5099 23.1082 93.3701 22.9685 93.2304 22.8753L93.1372 22.8288V22.3164H98.028C102.453 22.3164 105.76 25.2509 105.76 29.1169C105.76 32.9364 102.453 35.8242 98.028 35.8242ZM93.7893 35.3585H95.0004V22.7356H93.7893C93.9291 22.9685 94.0222 23.2945 94.0222 23.7603V34.3803C93.9756 34.8461 93.9291 35.1256 93.7893 35.3585ZM95.4661 35.2653H98.028C101.847 35.2653 103.804 32.1445 103.804 29.0703C103.804 25.9961 101.801 22.9219 98.028 22.9219H95.4661V35.2653ZM101.568 23.4809C103.245 24.6453 104.27 26.6482 104.27 29.0237C104.27 31.3993 103.245 33.4021 101.615 34.5666C103.85 33.4953 105.248 31.4924 105.248 29.0237C105.294 26.6016 103.85 24.5522 101.568 23.4809Z" fill="#191411"/>
<path d="M113.777 23.7596V34.3795C113.777 35.0316 113.917 35.3111 114.197 35.4974C114.197 35.544 114.197 35.6372 114.197 35.6372H111.868C111.868 35.6372 111.868 35.544 111.868 35.4974C112.147 35.3111 112.287 35.0316 112.287 34.3795V23.7596C112.287 23.1075 112.147 22.828 111.868 22.6417C111.868 22.5951 111.868 22.502 111.868 22.502H114.197C114.197 22.502 114.197 22.5951 114.197 22.6417C113.917 22.828 113.777 23.1075 113.777 23.7596Z" fill="#191411"/>
<path d="M114.475 35.8242H111.68V35.3119L111.773 35.2653C111.913 35.1721 112.053 35.0324 112.053 34.3803V23.7603C112.053 23.1082 111.913 22.9685 111.773 22.8753L111.68 22.8288V22.3164H114.475V22.8288L114.335 22.8753C114.149 22.9685 114.009 23.1082 114.009 23.7603V34.3803C114.009 35.0324 114.149 35.1721 114.335 35.2653L114.475 35.3119V35.8242ZM112.332 35.3585H113.776C113.59 35.1256 113.543 34.7529 113.543 34.3337V23.7138C113.543 23.2946 113.59 22.9685 113.776 22.689H112.332C112.472 22.9219 112.565 23.248 112.565 23.7138V34.3337C112.565 34.8461 112.472 35.1256 112.332 35.3585Z" fill="#191411"/>
<path d="M127.79 22.5036C127.79 22.5036 127.79 22.5968 127.79 22.6433C127.184 22.9694 126.625 23.9475 126.625 24.7394V35.5922H126.346L117.449 24.1805V33.3099C117.449 34.1017 118.008 35.1265 118.66 35.4059C118.66 35.4525 118.66 35.5457 118.66 35.5457H116.145C116.145 35.5457 116.145 35.4525 116.145 35.4059C116.797 35.0799 117.356 34.1017 117.356 33.3099V23.9941L116.145 22.457H118.055L126.532 33.2167V24.7394C126.532 23.9475 125.973 22.9694 125.368 22.6433C125.368 22.5968 125.368 22.5036 125.368 22.5036H127.79Z" fill="#191411"/>
<path d="M126.859 35.8259H126.254L126.207 35.7327L117.73 24.8799V33.3572C117.73 34.0559 118.242 34.9875 118.801 35.267L118.941 35.3135V35.8259H115.96V35.3135L116.1 35.267C116.659 34.9875 117.171 34.0559 117.171 33.3572V24.1346L115.727 22.2715H118.196L126.347 32.5654V24.7402C126.347 24.0415 125.835 23.1565 125.276 22.8304L125.136 22.7839V22.2715H128.117V22.7839L127.977 22.8304C127.418 23.1099 126.906 23.9949 126.906 24.7402V35.8259H126.859ZM116.612 35.3601H118.056C117.73 35.0806 117.497 34.6614 117.311 34.2422C117.171 34.6614 116.938 35.0806 116.612 35.3601ZM117.497 23.9483L126.347 35.267V33.497L117.823 22.7373H116.519L117.497 23.9483ZM125.788 22.7373C126.114 23.0167 126.394 23.436 126.533 23.9017C126.673 23.436 126.953 23.0167 127.279 22.7373H125.788Z" fill="#191411"/>
<path d="M24.53 49.8934L24.4369 49.94C23.5985 49.0084 22.434 47.7508 20.3379 47.7508H18.7543V53.8526L23.0395 53.4799V54.4115L18.7543 53.9923V59.442C18.7543 60.0941 18.894 60.3736 19.1735 60.5599C19.1735 60.6065 19.1735 60.6996 19.1735 60.6996H16.8911C16.8911 60.6996 16.8911 60.6065 16.8911 60.5599C17.1706 60.3736 17.3103 60.0941 17.3103 59.442V48.8221C17.3103 48.17 17.1706 47.8905 16.8911 47.7042C16.8911 47.6576 16.8911 47.5645 16.8911 47.5645H23.9245L24.53 49.8934Z" fill="#191411"/>
<path d="M19.4049 60.9317H16.6567V60.4193L16.7499 60.3727C16.8896 60.2796 17.0294 60.1398 17.0294 59.4877V48.8678C17.0294 48.2157 16.8896 48.0759 16.7499 47.9828L16.6567 47.9362V47.4238H24.1093L24.808 50.0323L24.3888 50.2651L24.2491 50.1254C23.3641 49.1007 22.2462 48.0294 20.3365 48.0294H18.9857V53.6654L23.2709 53.2928V54.7367L18.9857 54.3175V59.4877C18.9857 60.1398 19.1254 60.2796 19.2652 60.3727L19.3583 60.4193V60.9317H19.4049ZM17.3088 60.4659H18.7528C18.613 60.233 18.5199 59.907 18.5199 59.4412V47.7965H17.2623C17.402 48.0294 17.4952 48.3554 17.4952 48.8212V59.4412C17.4952 59.9535 17.4486 60.233 17.3088 60.4659ZM20.4762 53.9449L22.8517 54.1777V53.712L20.4762 53.9449ZM22.0599 47.843C22.8983 48.1691 23.5504 48.6815 24.1093 49.287L23.7367 47.843H22.0599Z" fill="#191411"/>
<path d="M35.3819 60.6987H32.494V60.5589C32.9598 60.0931 32.8201 59.3945 32.3077 58.0437L31.3762 55.6682H26.7183L26.2059 57.1121C25.6004 58.8355 25.5072 59.7205 26.2991 60.5589V60.6987H24.1099V60.5589C24.9017 59.7205 25.4607 58.8355 26.0662 57.1121L28.8609 49.1937L28.2554 47.5635H29.7459L33.379 57.0655C34.1243 58.9287 34.6367 59.674 35.3353 60.5124V60.6987H35.3819ZM31.3296 55.5284L28.9541 49.4266L26.7649 55.5284H31.3296Z" fill="#191411"/>
<path d="M35.6175 60.9308H32.2639V60.465L32.3104 60.4184C32.6831 60.0458 32.6365 59.58 32.0776 58.136L31.2391 55.9003H26.9073L26.4415 57.1579C25.836 58.9279 25.836 59.6732 26.4881 60.3719L26.5347 60.4184V60.8842H23.9263V60.4184L23.9729 60.3719C24.7181 59.6266 25.2305 58.8347 25.8826 56.9716L28.6773 49.1464L27.9786 47.2832H29.9349L33.6612 56.925C34.4065 58.7882 34.8723 59.4868 35.571 60.3253L35.6175 60.3719V60.9308ZM32.8694 60.465H35.012C34.4065 59.7197 33.8941 58.8813 33.1954 57.2045L29.6089 47.8422H28.6307L29.1431 49.1929L31.6583 55.7605L32.4968 57.9498C32.9625 59.1142 33.242 59.906 32.8694 60.465ZM24.5784 60.465H25.9757C25.6497 60.0458 25.5565 59.58 25.5565 59.0211C25.2771 59.58 24.951 60.0458 24.5784 60.465ZM27.1402 55.2948H31.0062L29.0034 50.0779L27.1402 55.2948Z" fill="#191411"/>
<path d="M50.1916 48.866V59.486C50.1916 60.1381 50.3314 60.4176 50.6108 60.6039C50.6108 60.6505 50.6108 60.7436 50.6108 60.7436H48.2819C48.2819 60.7436 48.2819 60.6505 48.2819 60.6039C48.5614 60.4176 48.7011 60.1381 48.7011 59.486V48.1673L43.5309 57.1105H43.3446L37.988 48.9592V58.4612C37.988 59.2531 38.5469 60.2778 39.1525 60.5573C39.1525 60.6039 39.1525 60.697 39.1525 60.697H36.6372C36.6372 60.697 36.6372 60.6039 36.6372 60.5573C37.2427 60.2312 37.8017 59.2531 37.8017 58.4612V48.7729L36.9633 47.6084H38.6401L43.9967 55.8994L48.7477 47.6084H50.4711C50.4711 47.6084 50.4711 47.7016 50.4711 47.7481C50.2848 47.9344 50.1916 48.2139 50.1916 48.866Z" fill="#191411"/>
<path d="M50.8428 60.9308H48.0481V60.4184L48.1413 60.3719C48.281 60.2787 48.4673 60.1389 48.4673 59.4868V49.0532L43.6697 57.3442H43.2505L38.2666 49.7519V58.4621C38.2666 59.1608 38.7789 60.0924 39.3379 60.3719L39.4776 60.4184V60.9308H36.4966V60.4184L36.6363 60.3719C37.1953 60.0924 37.7076 59.1608 37.7076 58.4621V48.8669L36.6363 47.3764H38.9187L44.1355 55.4345L48.7934 47.3764H48.9797L49.0263 47.2832V47.3764H50.936V47.8887L50.7963 47.9353C50.61 48.0285 50.4702 48.1682 50.4702 48.8203V59.4403C50.4702 60.0924 50.61 60.2321 50.7963 60.3253L50.936 60.3719V60.9308H50.8428ZM48.7002 60.465H50.1442C49.9578 60.2321 49.9113 59.8595 49.9113 59.4403V48.8203C49.9113 48.3545 49.9578 48.0285 50.1442 47.7956H48.9797L48.9331 47.8887V59.4403C48.9331 59.9061 48.8865 60.2321 48.7002 60.465ZM37.2418 60.465H38.6858C38.3597 60.1855 38.1268 59.7197 37.9405 59.3005C37.8008 59.7663 37.5213 60.1855 37.2418 60.465ZM37.8008 48.1682L43.4834 56.7853L43.9492 55.9934L38.6392 47.7956H37.5213L37.8008 48.2148V48.1682Z" fill="#191411"/>
<path d="M54.3829 48.867V59.487C54.3829 60.1391 54.5226 60.4185 54.8021 60.6049C54.8021 60.6514 54.8021 60.7446 54.8021 60.7446H52.4731C52.4731 60.7446 52.4731 60.6514 52.4731 60.6049C52.7526 60.4185 52.8924 60.1391 52.8924 59.487V48.867C52.8924 48.2149 52.7526 47.9354 52.4731 47.7491C52.4731 47.7025 52.4731 47.6094 52.4731 47.6094H54.8021C54.8021 47.6094 54.8021 47.7025 54.8021 47.7491C54.476 47.9354 54.3829 48.2149 54.3829 48.867Z" fill="#191411"/>
<path d="M55.0335 60.9317H52.2388V60.4193L52.3319 60.3727C52.4717 60.2796 52.6114 60.1398 52.6114 59.4877V48.8678C52.6114 48.2157 52.4717 48.0759 52.3319 47.9828L52.2388 47.9362V47.4238H55.0335V47.9362L54.8938 47.9828C54.7074 48.0759 54.5677 48.2157 54.5677 48.8678V59.4877C54.5677 60.1398 54.7074 60.2796 54.8938 60.3727L55.0335 60.4193V60.9317ZM52.8909 60.4659H54.3348C54.1485 60.233 54.1019 59.8604 54.1019 59.4412V48.8212C54.1019 48.402 54.1485 48.076 54.3348 47.7965H52.8909C53.0306 48.0294 53.1238 48.3554 53.1238 48.8212V59.4412C53.1238 59.9535 53.0306 60.233 52.8909 60.4659Z" fill="#191411"/>
<path d="M64.8621 58.4622L64.4429 60.7446H56.6177C56.6177 60.7446 56.6177 60.6514 56.6177 60.6049C56.8971 60.4185 57.0369 60.1391 57.0369 59.487V48.867C57.0369 48.2149 56.8971 47.9354 56.6177 47.7491C56.6177 47.7025 56.6177 47.6094 56.6177 47.6094H58.9466C58.9466 47.6094 58.9466 47.7025 58.9466 47.7491C58.6671 47.9354 58.5274 48.1683 58.5274 48.867V60.5583H60.2508C62.3469 60.5583 63.884 59.4869 64.7224 58.3691L64.8621 58.4622Z" fill="#191411"/>
<path d="M64.6785 60.9317H56.4341V60.4193L56.5738 60.3727C56.7601 60.2796 56.8999 60.1398 56.8999 59.4877V48.8678C56.8999 48.2157 56.7601 48.0759 56.5738 47.9828L56.4341 47.9362V47.4238H59.2288V47.9362L59.1357 47.9828C58.9493 48.0759 58.8562 48.2157 58.8562 48.8678V60.3262H60.3467C62.7688 60.3262 64.1662 58.8356 64.6319 58.2301L64.7717 58.0438L65.1909 58.3233L64.6785 60.9317ZM62.2564 60.4659H64.2593L64.5388 58.9754C64.073 59.4878 63.3277 60.0933 62.2564 60.4659ZM57.1328 60.4659H58.3438V48.8678C58.3438 48.402 58.3904 48.0759 58.5767 47.843H57.1328C57.2725 48.0759 57.3657 48.402 57.3657 48.8678V59.4877C57.3191 59.9069 57.2725 60.233 57.1328 60.4659Z" fill="#191411"/>
<path d="M75.9524 47.6102V47.75C75.1139 48.4952 74.6947 48.8679 73.7166 50.8707L71.3411 55.9944V59.4412C71.3411 60.0934 71.4808 60.3728 71.7603 60.5591C71.7603 60.6057 71.7603 60.6989 71.7603 60.6989H69.4313C69.4313 60.6989 69.4313 60.6057 69.4313 60.5591C69.7108 60.3728 69.8505 60.0934 69.8505 59.4412V56.2273C69.8505 56.2273 66.7298 50.3118 66.3106 49.5665C65.8913 48.8213 65.2858 48.2157 64.6803 47.75V47.6102H67.9408V47.75C67.475 48.2157 67.475 49.0076 68.1737 50.3584L71.1547 55.9944L73.7166 50.5913C74.5084 48.8213 74.4153 48.3089 73.7166 47.75V47.6102H75.9524Z" fill="#191411"/>
<path d="M71.9913 60.9311H69.1965V60.4187L69.2897 60.3721C69.4294 60.279 69.5692 60.1392 69.5692 59.4871V56.3198C69.2431 55.7142 66.4484 50.4508 66.0758 49.7056C65.6566 48.9603 65.0045 48.4014 64.4921 47.9356L64.3989 47.889V47.3766H68.1252V47.8424L68.0786 47.889C67.7992 48.1685 67.5197 48.6808 68.3581 50.2179L71.1528 55.4348L73.4818 50.4508C74.2736 48.7274 74.0873 48.3548 73.5749 47.889L73.4818 47.8424V47.3301H76.1368V47.8424L76.0436 47.889C75.2052 48.6343 74.786 49.0069 73.8544 50.9632L71.4789 56.0403V59.394C71.4789 60.0461 71.6186 60.1858 71.8049 60.279L71.9447 60.3255V60.9311H71.9913ZM69.8952 60.4653H71.3392C71.1528 60.2324 71.1063 59.8598 71.1063 59.4406V56.3198L67.9855 50.4508C67.3334 49.2864 67.2402 48.4014 67.6129 47.8424H65.1442C65.61 48.2616 66.1689 48.8206 66.5416 49.4727C66.9142 50.218 70.035 56.0869 70.0815 56.1334L70.1281 56.18V59.4406C70.0815 59.9529 70.035 60.2324 69.8952 60.4653ZM74.1805 47.8424C74.46 48.1685 74.5531 48.4945 74.5065 48.9603C74.8326 48.448 75.1121 48.1685 75.4847 47.8424H74.1805Z" fill="#191411"/>
<path d="M84.103 54.084V54.2237H76.8833V54.084H84.103Z" fill="#191411"/>
<path d="M84.3344 53.8516H76.6489V54.4571H84.3344V53.8516Z" fill="#191411"/>
<path d="M99.9374 54.1312C99.9374 57.8109 96.8632 60.8385 93.1369 60.8385C89.4106 60.8385 86.3364 57.8109 86.3364 54.1312C86.3364 50.4049 89.4106 47.4238 93.1369 47.4238C96.8632 47.4238 99.9374 50.4049 99.9374 54.1312ZM98.1208 52.5941C97.0961 49.287 94.348 46.9115 91.2272 47.8896C88.1064 48.8212 87.1283 52.3612 88.153 55.6683C89.1777 58.9754 91.9259 61.3509 95.0467 60.4193C98.1674 59.4412 99.1456 55.9012 98.1208 52.5941Z" fill="#191411"/>
<path d="M93.1354 61.0709C89.2694 61.0709 86.1021 57.9501 86.1021 54.1307C86.1021 50.3112 89.2694 47.1904 93.1354 47.1904C97.0015 47.1904 100.169 50.3112 100.169 54.1307C100.169 57.9501 97.0015 61.0709 93.1354 61.0709ZM88.6639 49.4262C87.4063 50.5907 86.6144 52.2675 86.6144 54.1307C86.6144 57.2515 88.8968 59.8599 91.8778 60.4654C91.4586 60.2791 91.086 60.0928 90.7134 59.8133C89.4557 58.8817 88.4776 57.4378 87.9652 55.7144C87.3597 53.6649 87.4528 51.6154 88.2913 50.0783C88.3844 49.8454 88.4776 49.6125 88.6639 49.4262ZM92.6231 47.8891C92.2039 47.8891 91.7381 47.9357 91.2723 48.0754C90.1078 48.4481 89.1763 49.1933 88.6173 50.2646C87.8255 51.7086 87.7323 53.6649 88.3378 55.5746C88.8502 57.2049 89.7352 58.5557 90.8997 59.4407C92.1573 60.3722 93.5547 60.6051 94.952 60.1859C98.0728 59.2078 98.818 55.7144 97.8865 52.6867C97.1412 50.1249 95.1383 47.8891 92.6231 47.8891ZM94.4862 47.796C96.3494 48.5412 97.7467 50.4509 98.3523 52.547C99.0044 54.7362 98.8646 57.1583 97.6536 58.8351C98.9112 57.6707 99.7031 55.9938 99.7031 54.1772C99.7031 51.0099 97.4673 48.4015 94.4862 47.796Z" fill="#191411"/>
<path d="M117.363 51.1959L114.708 59.0677L115.36 60.698H113.869L110.19 51.1959C110.19 51.1959 110.05 50.8699 109.957 50.6836L107.116 59.0677L107.721 60.698H106.277L102.597 51.1959C101.852 49.3328 101.34 48.5875 100.641 47.7491V47.6094H103.529V47.7491C103.063 48.2149 103.203 48.9136 103.715 50.2644L107.069 58.8814L109.677 51.1959C109.771 50.9631 109.817 50.7302 109.91 50.4973C109.305 49.1465 108.886 48.4944 108.233 47.7491V47.6094H111.121V47.7491C110.656 48.2149 110.795 48.9136 111.308 50.2644L114.661 58.8814L117.27 51.1959C117.829 49.4725 117.922 48.5875 117.083 47.7491V47.6094H119.319V47.7491C118.481 48.5875 117.968 49.426 117.363 51.1959Z" fill="#191411"/>
<path d="M115.685 60.9317H113.729L110.002 51.3365L107.394 59.0685L108.093 60.9317H106.136L102.41 51.2899C101.665 49.4733 101.199 48.7281 100.5 47.9362L100.454 47.8896V47.4238H103.807V47.8896L103.761 47.9362C103.388 48.3088 103.435 48.7746 103.994 50.2186L107.114 58.2301L109.49 51.1501C109.536 50.9638 109.63 50.7309 109.676 50.5446C109.117 49.287 108.651 48.6349 108.093 47.9362L108.046 47.8896V47.4238H111.4V47.8896L111.353 47.9362C110.98 48.3088 111.027 48.7746 111.586 50.2186L114.707 58.2301L117.082 51.1501C117.688 49.4267 117.641 48.6349 116.989 47.9362L116.943 47.8896V47.4238H119.644V47.8896L119.598 47.9362C118.899 48.6815 118.34 49.4733 117.734 51.2899L115.126 59.0685L115.685 60.9317ZM114.055 60.4659H115.033L114.474 59.0685L114.427 58.9288L111.074 50.3117C110.654 49.1938 110.375 48.402 110.748 47.7965H108.605C109.117 48.4486 109.583 49.1007 110.095 50.3583L110.142 50.4514L110.421 51.057L114.055 60.4659ZM106.462 60.4659H107.44L106.928 59.0685L103.528 50.3583C103.109 49.2404 102.829 48.4486 103.202 47.843H101.059C101.665 48.5883 102.177 49.4267 102.876 51.1036L106.462 60.4659ZM117.455 47.843C117.781 48.2623 117.921 48.728 117.921 49.287C118.2 48.728 118.526 48.2623 118.899 47.843H117.455Z" fill="#191411"/>
<path d="M132.309 47.6081C132.309 47.6081 132.309 47.7012 132.309 47.7478C131.704 48.0739 131.145 49.052 131.145 49.8439V60.6967H130.865L121.969 49.2849V58.4144C121.969 59.2062 122.528 60.2309 123.18 60.5104C123.18 60.557 123.18 60.6501 123.18 60.6501H120.665C120.665 60.6501 120.665 60.557 120.665 60.5104C121.317 60.1844 121.876 59.2062 121.876 58.4144V49.0986L120.665 47.5615H122.574L131.052 58.3212V49.8439C131.052 49.052 130.493 48.0739 129.887 47.7478C129.887 47.7012 129.887 47.6081 129.887 47.6081H132.309Z" fill="#191411"/>
<path d="M131.379 60.9304H130.773L130.727 60.8373L122.249 49.9844V58.4617C122.249 59.1604 122.762 60.092 123.321 60.3715L123.461 60.418V60.9304H120.479V60.418L120.619 60.3715C121.178 60.092 121.691 59.1604 121.691 58.4617V49.2391L120.247 47.376H122.715L130.867 57.6699V49.8446C130.867 49.146 130.354 48.261 129.795 47.9349L129.655 47.8883V47.376H132.637V47.8883L132.497 47.9349C131.938 48.2144 131.425 49.0994 131.425 49.8446V60.9304H131.379ZM121.132 60.4646H122.576C122.249 60.1851 122.017 59.7659 121.83 59.3467C121.737 59.7659 121.458 60.1851 121.132 60.4646ZM122.063 49.0528L130.913 60.3715V58.6014L122.389 47.8418H121.085L122.063 49.0528ZM130.308 47.8418C130.634 48.1212 130.913 48.5404 131.053 49.0062C131.193 48.5404 131.472 48.1212 131.798 47.8418H130.308Z" fill="#191411"/>
<path d="M142.188 58.4622L141.769 60.7446H134.176C134.176 60.7446 134.176 60.6514 134.176 60.6049C134.456 60.4185 134.595 60.1391 134.595 59.487V48.867C134.595 48.2149 134.456 47.9354 134.176 47.7491C134.176 47.7025 134.176 47.6094 134.176 47.6094H141.163L141.536 49.7054L141.443 49.7986C140.604 48.8204 139.44 47.7957 137.344 47.7957H136.039V53.3386L140.744 52.9194V53.8509L136.039 53.4783V60.6049H137.577C139.626 60.6049 141.21 59.5335 142.048 58.4157L142.188 58.4622Z" fill="#191411"/>
<path d="M141.953 60.9317H133.942V60.4193L134.035 60.3727C134.175 60.2796 134.315 60.1398 134.315 59.4877V48.8678C134.315 48.2157 134.175 48.0759 134.035 47.9828L133.942 47.9362V47.4238H141.348L141.814 49.8459L141.441 50.1254L141.301 49.9391C140.416 48.9609 139.345 48.0294 137.389 48.0294H136.317V53.0599L141.022 52.6407V54.0846L136.317 53.712V60.3727H137.622C140.044 60.3727 141.441 58.8822 141.907 58.2767L142.047 58.0904L142.466 58.3698L141.953 60.9317ZM139.578 60.4659H141.581L141.86 58.9754C141.394 59.4878 140.603 60.0933 139.578 60.4659ZM134.594 60.4659H135.805V47.843H134.547C134.687 48.0759 134.78 48.402 134.78 48.8678V59.4877C134.827 59.9535 134.78 60.233 134.594 60.4659ZM137.948 53.3393L140.556 53.5722V53.1064L137.948 53.3393ZM139.252 47.843C140.09 48.1691 140.696 48.6349 141.255 49.1472L141.022 47.843H139.252Z" fill="#191411"/>
<path d="M156.068 54.177C156.068 57.9033 152.9 60.7446 148.569 60.7446H143.911C143.911 60.7446 143.911 60.6514 143.911 60.6049C144.19 60.4185 144.33 60.1391 144.33 59.487V48.867C144.33 48.2149 144.19 47.9354 143.911 47.7491C143.911 47.7025 143.911 47.6094 143.911 47.6094H148.569C152.9 47.6094 156.068 50.4972 156.068 54.177ZM154.577 54.177C154.577 50.7301 152.295 47.7957 148.569 47.7957H145.774V60.6049H148.569C152.295 60.5583 154.577 57.6238 154.577 54.177Z" fill="#191411"/>
<path d="M148.571 60.9317H143.633V60.4193L143.726 60.3727C143.866 60.2796 144.006 60.1398 144.006 59.4877V48.8678C144.006 48.2157 143.866 48.0759 143.726 47.9828L143.633 47.9362V47.4238H148.524C152.949 47.4238 156.256 50.3583 156.256 54.2243C156.303 58.0438 152.949 60.9317 148.571 60.9317ZM144.332 60.4659H145.543V47.843H144.285C144.425 48.0759 144.518 48.402 144.518 48.8678V59.4877C144.518 59.9535 144.472 60.233 144.332 60.4659ZM146.009 60.3262H148.571C152.39 60.3262 154.346 57.2054 154.346 54.1312C154.346 51.057 152.344 47.9828 148.571 47.9828H146.009V60.3262ZM152.111 48.5883C153.787 49.7528 154.812 51.7557 154.812 54.1312C154.812 56.5067 153.787 58.5096 152.157 59.6741C154.393 58.6028 155.79 56.5999 155.79 54.1312C155.837 51.7091 154.346 49.6596 152.111 48.5883Z" fill="#191411"/>
<path d="M65.987 74.9972L65.8939 75.0437C65.0555 74.1122 63.891 72.8545 61.7949 72.8545H60.2113V78.9563L64.4965 78.5837V79.5153L60.2113 79.0961V84.5458C60.2113 85.1979 60.351 85.4774 60.6305 85.6637C60.6305 85.7103 60.6305 85.8034 60.6305 85.8034H58.3481C58.3481 85.8034 58.3481 85.7103 58.3481 85.6637C58.6276 85.4774 58.7673 85.1979 58.7673 84.5458V73.9258C58.7673 73.2737 58.6276 72.9943 58.3481 72.8079C58.3481 72.7614 58.3481 72.6682 58.3481 72.6682H65.3815L65.987 74.9972Z" fill="#191411"/>
<path d="M60.8619 86.0364H58.1137V85.5241L58.2069 85.4775C58.3466 85.3843 58.4864 85.2446 58.4864 84.5925V73.9725C58.4864 73.3204 58.3466 73.1807 58.2069 73.0875L58.1137 73.0409V72.5286H65.5663L66.265 75.137L65.8458 75.3699L65.7061 75.2301C64.8211 74.2054 63.7032 73.1341 61.7935 73.1341H60.4427V78.7701L64.7279 78.3975V79.8414L60.4427 79.4222V84.5925C60.4427 85.2446 60.5824 85.3843 60.7222 85.4775L60.8153 85.5241V86.0364H60.8619ZM58.7658 85.5706H60.2098C60.07 85.3377 59.9769 85.0117 59.9769 84.5459V72.9012H58.7658C58.9056 73.1341 58.9987 73.4601 58.9987 73.9259V84.5459C58.9522 85.0117 58.9056 85.3377 58.7658 85.5706ZM61.9332 79.0496L64.3087 79.2825V78.8167L61.9332 79.0496ZM63.5635 72.9478C64.4019 73.2738 65.054 73.7862 65.6129 74.3917L65.2403 72.9478H63.5635Z" fill="#191411"/>
<path d="M76.835 85.8042H73.9472V85.6644C74.413 85.1986 74.2732 84.5 73.7609 83.1492L72.8293 80.7737H68.1714L67.659 82.2176C67.0535 83.941 66.9604 84.826 67.7522 85.6644V85.8042H65.563V85.6644C66.3548 84.826 66.9138 83.941 67.5193 82.2176L70.314 74.2992L69.7085 72.6689H71.199L74.8322 82.171C75.5774 84.0342 76.0898 84.7794 76.7885 85.6178V85.8042H76.835ZM72.7827 80.6339L70.4072 74.5321L68.218 80.6339H72.7827Z" fill="#191411"/>
<path d="M77.0707 86.0362H73.717V85.5705L73.7636 85.5239C74.1362 85.1513 74.0896 84.6855 73.5307 83.2415L72.6923 81.0057H68.3604L67.8946 82.2634C67.2891 84.0334 67.2891 84.7786 67.9412 85.4773L67.9878 85.5239V85.9897H65.3794V85.5239L65.426 85.4773C66.1712 84.732 66.6836 83.9402 67.3357 82.077L70.1304 74.2518L69.4318 72.3887H71.3881L75.1144 82.0305C75.8596 83.8936 76.3254 84.5923 77.0241 85.4307L77.0707 85.4773V86.0362ZM74.3225 85.5705H76.4651C75.8596 84.8252 75.3473 83.9868 74.6486 82.3099L71.062 72.9476H70.0839L70.5962 74.2984L73.1115 80.866L73.9499 83.0552C74.4157 84.2197 74.6952 85.0115 74.3225 85.5705ZM66.0315 85.5705H67.4289C67.1028 85.1512 67.0097 84.6855 67.0097 84.1265C66.7302 84.6855 66.4041 85.1512 66.0315 85.5705ZM68.5933 80.4002H72.4594L70.4565 75.1834L68.5933 80.4002Z" fill="#191411"/>
<path d="M88.1559 85.6626V85.8024H85.268V85.6626C85.7338 85.1968 85.3612 84.4982 84.6159 83.194L82.613 79.7471C82.3336 79.7471 82.0541 79.7937 81.7746 79.7937H80.0512V84.5913C80.0512 85.2434 80.1909 85.5229 80.4704 85.7092C80.4704 85.7558 80.4704 85.8489 80.4704 85.8489H78.188C78.188 85.8489 78.188 85.7558 78.188 85.7092C78.4675 85.5229 78.6073 85.2434 78.6073 84.5913V73.9713C78.6073 73.3192 78.4675 73.0398 78.188 72.8535C78.188 72.8069 78.188 72.7137 78.188 72.7137H81.8212C84.7091 72.7137 87.3641 73.785 87.3641 76.2537C87.3641 78.0237 85.9667 79.095 84.1036 79.5142L85.7804 82.4487C86.8051 84.405 87.4106 85.0105 88.1559 85.6626ZM85.827 76.2537C85.827 74.8098 85.3612 72.8535 81.7746 72.8535H80.0512V79.6074H81.7746C85.3146 79.6074 85.827 77.6977 85.827 76.2537Z" fill="#191411"/>
<path d="M88.387 86.0362H85.0333V85.5704L85.0799 85.5238C85.4059 85.1978 85.1264 84.6854 84.4278 83.4278L82.4715 79.9809C82.2386 79.9809 82.0057 80.0275 81.7728 80.0275H80.2822V84.5922C80.2822 85.2443 80.422 85.3841 80.5617 85.4772L80.6549 85.5238V86.0362H77.9067V85.5238L77.9999 85.4772C78.1396 85.3841 78.2794 85.2443 78.2794 84.5922V73.9723C78.2794 73.3201 78.1396 73.1804 77.9999 73.0873L77.9067 73.0407V72.5283H81.7728C85.2662 72.5283 87.5485 74.0188 87.5485 76.3012C87.5485 77.9314 86.3841 79.1425 84.3812 79.7015L85.9183 82.403C87.0362 84.3593 87.5951 84.9183 88.2938 85.5704L88.387 85.6169V86.0362ZM85.6388 85.5704H87.6883C87.0828 85.0114 86.4772 84.2662 85.4991 82.5893L83.7757 79.6083C83.4962 79.7015 83.2167 79.748 82.8906 79.7946L84.847 83.1949C85.4991 84.2662 85.9183 85.0114 85.6388 85.5704ZM78.6054 85.5704H80.0494C79.9096 85.3375 79.8165 85.0114 79.8165 84.5456V72.9009H78.6054C78.7452 73.1338 78.8383 73.4599 78.8383 73.9257V84.5456C78.7917 85.0114 78.7452 85.3375 78.6054 85.5704ZM80.2822 79.3754H81.7728C84.3346 79.3754 85.5922 78.3507 85.5922 76.2546C85.5922 74.9038 85.2196 73.0873 81.7728 73.0873H80.2822V79.3754ZM84.8936 73.4599C85.6854 74.0654 86.058 74.997 86.058 76.2546C86.058 77.4657 85.6854 78.3973 84.9401 79.0028C85.9649 78.5836 87.0827 77.7917 87.0827 76.2546C87.0827 74.8573 86.1512 73.9723 84.8936 73.4599Z" fill="#191411"/>
<path d="M102.735 73.9715V84.5915C102.735 85.2436 102.875 85.523 103.154 85.7093C103.154 85.7559 103.154 85.8491 103.154 85.8491H100.825C100.825 85.8491 100.825 85.7559 100.825 85.7093C101.105 85.523 101.244 85.2436 101.244 84.5915V73.2728L96.1207 82.2159H95.9344L90.5778 74.0646V83.5667C90.5778 84.3586 91.1368 85.3833 91.7423 85.6628C91.7423 85.7093 91.7423 85.8025 91.7423 85.8025H89.2271C89.2271 85.8025 89.2271 85.7093 89.2271 85.6628C89.8326 85.3367 90.3915 84.3586 90.3915 83.5667V73.8783L89.5531 72.7139H91.2299L96.5865 81.0049L101.338 72.7139H103.061C103.061 72.7139 103.061 72.807 103.061 72.8536C102.875 73.0399 102.735 73.2728 102.735 73.9715Z" fill="#191411"/>
<path d="M103.433 86.0362H100.638V85.5239L100.731 85.4773C100.871 85.3841 101.057 85.2444 101.057 84.5923V74.1587L96.2595 82.4497H95.8403L90.8564 74.8573V83.5676C90.8564 84.2663 91.3688 85.1978 91.9277 85.4773L92.0674 85.5239V86.0362H89.0864V85.5239L89.2262 85.4773C89.7851 85.1978 90.2975 84.2663 90.2975 83.5676V73.9723L89.2262 72.4818H91.5085L96.7253 80.54L101.383 72.4818H101.57L101.616 72.3887V72.4818H103.526V72.9942L103.386 73.0408C103.2 73.1339 103.06 73.2737 103.06 73.9258V84.5457C103.06 85.1978 103.2 85.3376 103.386 85.4307L103.526 85.4773V86.0362H103.433ZM101.29 85.5705H102.734C102.548 85.3376 102.501 84.9649 102.501 84.5457V73.9258C102.501 73.46 102.548 73.1339 102.734 72.901H101.57L101.523 72.9942V84.5457C101.523 85.0115 101.43 85.3376 101.29 85.5705ZM89.7851 85.5705H91.229C90.903 85.291 90.6701 84.8252 90.4838 84.406C90.3906 84.8718 90.1112 85.291 89.7851 85.5705ZM90.3906 73.2737L96.0732 81.8907L96.539 81.0989L91.229 72.901H90.0646L90.344 73.3202V73.2737H90.3906Z" fill="#191411"/>
<path d="M114.564 74.2998L114.005 76.2561H113.865C112.794 73.7409 111.443 72.8093 109.953 72.8093C108.089 72.8093 107.018 73.8806 106.925 74.9985C106.552 78.7248 114.61 77.5137 114.61 82.1716C114.61 84.4074 112.608 85.9911 109.953 85.9911C107.717 85.9911 106.319 85.2458 104.875 84.1279L105.434 81.9853H105.574C106.506 83.895 108.276 85.6184 110.698 85.6184C112.282 85.6184 113.632 84.5937 113.772 83.4293C114.238 79.4235 106.226 80.7277 106.226 76.0232C106.226 74.4861 107.437 72.623 110.465 72.623C111.862 72.5298 113.446 73.4148 114.564 74.2998Z" fill="#191411"/>
<path d="M109.951 86.1776C107.715 86.1776 106.271 85.4324 104.734 84.2679L104.594 84.1748L105.246 81.7061H105.712L105.759 81.8458C106.271 82.8706 107.808 85.3392 110.696 85.3392C112.14 85.3392 113.398 84.4542 113.537 83.3364C113.77 81.5664 112.14 80.9608 110.277 80.2156C108.274 79.4237 105.992 78.5387 105.992 75.9769C105.992 74.2069 107.389 72.3438 110.463 72.3438C112.14 72.3438 113.863 73.4617 114.702 74.1603L114.842 74.2535L114.189 76.5358H113.724L113.677 76.3961C112.746 74.2069 111.488 73.089 109.997 73.089C108.227 73.089 107.296 74.1138 107.203 75.0453C107.063 76.629 108.647 77.2345 110.463 77.9332C112.513 78.725 114.842 79.61 114.842 82.2185C114.842 84.4542 112.746 86.1776 109.951 86.1776ZM105.107 83.9884C106.457 85.0132 107.762 85.6653 109.671 85.7119C107.994 85.3858 106.504 84.2213 105.526 82.4513L105.107 83.9884ZM106.737 74.7193C106.551 75.0919 106.457 75.5577 106.457 75.9303C106.457 78.1661 108.507 79.0045 110.463 79.7498C112.326 80.495 114.283 81.2403 114.05 83.3829C114.05 83.5227 114.003 83.6624 113.957 83.8021C114.236 83.3364 114.422 82.7774 114.422 82.1719C114.422 79.8895 112.326 79.0977 110.323 78.3524C108.46 77.6537 106.551 76.9551 106.737 74.9522C106.69 74.859 106.69 74.7659 106.737 74.7193ZM111.534 72.9027C112.466 73.3685 113.258 74.3466 113.91 75.6974L114.283 74.3467C113.724 73.974 112.652 73.2288 111.534 72.9027Z" fill="#191411"/>
</svg>
