<svg width="51" height="38" viewBox="0 0 51 38" fill="none" xmlns="http://www.w3.org/2000/svg">
<g clip-path="url(#clip0_1_28899)">
<path fill-rule="evenodd" clip-rule="evenodd" d="M26.77 34.3999L29.76 36.9299L32.19 36.8599L37.09 32.7299L41.68 28.2799L46.21 23.7699L50.53 18.9999L45.96 14.5199L41.6 9.83986L37.06 5.33986L32.2 1.12986L29.53 0.859863L27.15 3.43986L32.83 8.86986L39.09 13.7299L45.1 18.9999L39.06 24.2299L32.95 29.2699L26.76 34.3899L26.77 34.3999ZM28.55 3.57986L34.94 8.44986L41.03 13.5599L46.63 18.9999L40.61 23.9399L34.57 29.1199L28.74 34.5499L30.47 36.1999L31.7 36.3599L37.42 30.5999L42.84 24.5299L48.88 18.9999L42.94 13.3799L37.5 7.32986L31.47 1.86986L30.51 1.83986L28.55 3.57986Z" fill="#C54B38"/>
<path d="M27.6603 26.2499L29.1203 25.6399L34.2203 20.3999L34.8503 19.0099L34.2103 17.6299L29.0503 12.4499L26.2303 12.4199L21.1503 17.6899L20.5603 19.0199L21.0303 20.4699L26.2203 25.6199L27.6503 26.2599L27.6603 26.2499ZM33.3403 18.4899L33.5603 18.9999L33.4103 19.5899L28.2003 24.7299L27.0503 24.7799L21.8903 19.5999L21.6903 19.0199L21.8203 18.3699L27.0203 13.2299L28.1703 13.3199L33.3303 18.4999L33.3403 18.4899Z" fill="#C54B38"/>
<path d="M27.66 22.3203L31.03 19.0003L27.66 15.5503L24.52 19.0003L27.66 22.3203ZM28.68 19.0003L27.66 19.9603L26.78 19.0003L27.66 17.8003L28.68 19.0003Z" fill="#C54B38"/>
<path d="M21.0105 18.7603L14.0105 18.7903L7.0105 18.9703L0.010498 18.9803" stroke="#C54B38" stroke-width="1.5"/>
</g>
<defs>
<clipPath id="clip0_1_28899">
<rect width="50.53" height="37.34" fill="white" transform="matrix(-1 0 0 1 50.53 0.330078)"/>
</clipPath>
</defs>
</svg>
