<svg width="110" height="26" viewBox="0 0 110 26" fill="none" xmlns="http://www.w3.org/2000/svg">
<path d="M28.1285 8.29631C27.2466 6.45028 25.5778 5.25707 23.0617 5.25707C22.2878 5.27004 21.5312 5.46026 20.8438 5.81477C20.1564 6.16927 19.5598 6.67509 19.1016 7.29332L19.0108 7.40572V0.15996C19.0108 0.116728 18.9935 0.0778184 18.9632 0.0475557C18.933 0.017293 18.8941 0 18.8508 0H15.2928C15.2496 0 15.2107 0.017293 15.1847 0.0475557C15.1545 0.0778184 15.1415 0.116728 15.1415 0.15996V20.9288C15.1415 20.9721 15.1588 21.011 15.1847 21.0369C15.215 21.0672 15.2539 21.0801 15.2928 21.0801H19.1016C19.1448 21.0801 19.1837 21.0629 19.214 21.0369C19.2442 21.0067 19.2615 20.9677 19.2615 20.9288V12.0748C19.2615 10.3542 20.4072 9.13502 22.2446 9.13502C24.2549 9.13502 24.7607 10.7865 24.7607 12.4726V20.9332C24.7607 20.9764 24.778 21.0153 24.8039 21.0412C24.8342 21.0715 24.8731 21.0845 24.912 21.0845H28.7121C28.7554 21.0845 28.7943 21.0672 28.8246 21.0412C28.8548 21.011 28.8721 20.9721 28.8721 20.9332V11.9667C28.8721 11.6598 28.8721 11.3572 28.8332 11.0675C28.7683 10.1077 28.5306 9.1696 28.1285 8.29631Z" fill="#5A31F4"/>
<path d="M9.10645 11.3746C9.10645 11.3746 7.16531 10.9164 6.45198 10.7348C5.73864 10.5532 4.48923 10.1598 4.48923 9.21732C4.48923 8.27485 5.49654 7.97223 6.51683 7.97223C7.53711 7.97223 8.67413 8.21865 8.76492 9.35134C8.76492 9.39025 8.78653 9.42916 8.81679 9.45942C8.84706 9.48536 8.88597 9.50265 8.9292 9.50265L12.6861 9.48968C12.7077 9.48968 12.7293 9.48536 12.7509 9.47671C12.7726 9.46807 12.7899 9.4551 12.8028 9.43781C12.8158 9.42051 12.8288 9.40322 12.8374 9.3816C12.8461 9.35999 12.8461 9.33837 12.8461 9.31676C12.6126 5.68955 9.43069 4.39258 6.49521 4.39258C3.015 4.39258 0.47293 6.68822 0.47293 9.21732C0.47293 11.0633 0.996043 12.797 5.0988 14.0032C5.82078 14.2107 6.79784 14.483 7.65384 14.7251C8.68277 15.0105 9.23615 15.4471 9.23615 16.1259C9.23615 16.917 8.09049 17.4704 6.96212 17.4704C5.32793 17.4704 4.1693 16.8651 4.07419 15.7757C4.06987 15.7368 4.04825 15.6979 4.01799 15.6719C3.98773 15.646 3.94882 15.633 3.90991 15.633L0.161656 15.6503C0.14004 15.6503 0.118424 15.6546 0.0968074 15.6633C0.0751912 15.6719 0.0578982 15.6849 0.0449285 15.7022C0.0276355 15.7195 0.018989 15.7368 0.0103425 15.7584C0.00169603 15.78 -0.00262722 15.8016 0.00169603 15.8232C0.174626 19.2472 3.47759 21.089 6.56006 21.089C11.1513 21.089 13.2265 18.508 13.2265 16.087C13.2308 14.9499 12.9714 12.3646 9.11077 11.3746H9.10645Z" fill="#5A31F4"/>
<path d="M57.4187 5.24846C55.5121 5.24846 53.9125 6.30334 52.8836 7.57869V5.39978C52.8836 5.36087 52.8663 5.32196 52.8403 5.2917C52.8101 5.26143 52.7755 5.24414 52.7323 5.24414H49.1699C49.1267 5.24414 49.0878 5.26143 49.0618 5.28737C49.0316 5.31764 49.0186 5.35655 49.0186 5.39545V25.7623C49.0186 25.8012 49.0359 25.8401 49.0661 25.8703C49.0964 25.9006 49.1353 25.9136 49.1742 25.9136H52.9873C53.0262 25.9136 53.0651 25.8963 53.0954 25.8703C53.1257 25.8401 53.1386 25.8012 53.1386 25.7623V19.0656H53.1948C53.8001 19.9907 55.4559 21.0975 57.6175 21.0975C61.6857 21.0975 65.0751 17.7254 65.0751 13.1643C65.0751 8.7892 61.703 5.24414 57.4187 5.24414V5.24846ZM57.0641 17.2195C56.26 17.2411 55.4689 17.0207 54.7944 16.5883C54.1157 16.156 53.5839 15.5335 53.2597 14.7985C52.9398 14.0636 52.8447 13.2465 52.9873 12.4553C53.13 11.6642 53.5061 10.9335 54.0681 10.3585C54.6302 9.78355 55.3478 9.38581 56.1347 9.22153C56.9215 9.05724 57.7386 9.13074 58.4822 9.42904C59.2258 9.73167 59.8656 10.2461 60.3152 10.9119C60.7648 11.5777 61.0069 12.3602 61.0069 13.1643C61.0156 13.6874 60.9205 14.2106 60.7259 14.6991C60.5314 15.1876 60.2461 15.6329 59.8786 16.009C59.5111 16.3851 59.0745 16.6878 58.5903 16.891C58.106 17.0985 57.5873 17.2066 57.0641 17.2152V17.2195Z" fill="#5A31F4"/>
<path d="M37.7304 4.35352C34.1767 4.35352 32.4042 5.5597 30.9819 6.52811L30.9386 6.55837C30.8651 6.61025 30.8133 6.68374 30.796 6.77021C30.7743 6.85667 30.7916 6.94746 30.8349 7.02528L32.2399 9.4463C32.2659 9.48953 32.3004 9.52844 32.3437 9.5587C32.3869 9.58897 32.4345 9.60626 32.4863 9.61491C32.5382 9.62355 32.5901 9.62355 32.6377 9.61058C32.6852 9.59761 32.7328 9.57167 32.7717 9.54141L32.8841 9.45062C33.6147 8.83672 34.7906 8.0153 37.631 7.7905C39.2133 7.66512 40.5795 8.07583 41.5825 9.0183C42.6892 10.0386 43.3507 11.6901 43.3507 13.4323C43.3507 16.6359 41.4614 18.6505 38.4308 18.6894C35.932 18.6764 34.2546 17.3708 34.2546 15.447C34.2546 14.4267 34.7171 13.7609 35.6164 13.0951C35.6855 13.0476 35.7331 12.9741 35.7547 12.8919C35.7763 12.8098 35.7634 12.7233 35.7245 12.6498L34.4621 10.2634C34.4405 10.2202 34.4059 10.1813 34.3713 10.151C34.3367 10.1207 34.2891 10.0991 34.2416 10.0861C34.194 10.0732 34.1422 10.0688 34.0946 10.0732C34.047 10.0775 33.9995 10.0948 33.9563 10.1207C32.5382 10.9594 30.8003 12.4985 30.8954 15.4556C31.0121 19.2168 34.1378 22.0875 38.2017 22.2042H38.6816C43.5106 22.0486 46.9995 18.4603 46.9995 13.5966C46.9995 9.1307 43.7441 4.35352 37.7261 4.35352H37.7304Z" fill="#5A31F4"/>
<path d="M80.0942 6.64893H77.6732C77.617 6.64893 77.5608 6.67054 77.5219 6.71377C77.483 6.75268 77.457 6.80889 77.457 6.86509V11.9449C77.457 12.0011 77.4787 12.0573 77.5219 12.0962C77.5608 12.1351 77.617 12.1567 77.6732 12.1567H80.0942C81.5684 12.1567 82.6579 10.9938 82.6579 9.40283C82.6579 7.81188 81.5728 6.64893 80.0942 6.64893Z" fill="#5A31F4"/>
<path d="M87.5343 15.6373C87.5343 16.3766 88.1569 16.783 89.242 16.783C90.7162 16.783 91.5895 15.9875 91.5895 14.5695V14.1631L89.3804 14.2798C88.2131 14.336 87.5343 14.8202 87.5343 15.6373Z" fill="#5A31F4"/>
<path d="M105.467 0.0516865H72.9348C72.403 0.0516865 71.8712 0.155444 71.3784 0.36296C70.8855 0.566153 70.4359 0.86878 70.0598 1.2449C69.6837 1.62102 69.3811 2.07064 69.1779 2.56349C68.9747 3.05634 68.8709 3.58378 68.8709 4.11986V21.9316C68.8709 23.0081 69.2989 24.0414 70.0598 24.8066C70.8207 25.5675 71.8539 25.9955 72.9304 25.9998H105.463C105.999 25.9998 106.526 25.896 107.019 25.6929C107.512 25.4897 107.962 25.1914 108.342 24.8152C108.723 24.4391 109.021 23.9895 109.228 23.4966C109.436 23.0038 109.54 22.4764 109.54 21.9403V4.11986C109.54 3.58378 109.436 3.05202 109.233 2.55917C109.03 2.06632 108.727 1.6167 108.351 1.23626C107.97 0.85581 107.521 0.557506 107.028 0.354314C106.535 0.151121 106.003 0.0473633 105.467 0.0473633V0.0516865ZM80.2194 14.1584H77.6601C77.6039 14.1584 77.5477 14.1801 77.5088 14.2233C77.4698 14.2622 77.4439 14.3184 77.4439 14.3746V18.0191C77.4439 18.0753 77.4223 18.1315 77.3791 18.1704C77.3402 18.2093 77.2839 18.2353 77.2277 18.2353H75.425C75.3688 18.2353 75.3125 18.2136 75.2736 18.1704C75.2347 18.1315 75.2088 18.0753 75.2088 18.0191V4.87211C75.2088 4.8159 75.2304 4.7597 75.2736 4.72079C75.3125 4.68188 75.3688 4.65594 75.425 4.65594H80.2151C82.9301 4.65594 84.8712 6.63167 84.8712 9.40719C84.8712 12.1827 82.9431 14.1628 80.2281 14.1628H80.2151L80.2194 14.1584ZM93.7036 18.0105C93.7036 18.0407 93.6993 18.0667 93.6863 18.0926C93.6734 18.1185 93.6604 18.1445 93.6388 18.1618C93.6172 18.1834 93.5956 18.1964 93.5696 18.2093C93.5437 18.2223 93.5134 18.2266 93.4875 18.2266H91.7884C91.7582 18.2266 91.7322 18.2223 91.7063 18.2093C91.6804 18.1964 91.6544 18.1834 91.6371 18.1618C91.6155 18.1401 91.6025 18.1185 91.5896 18.0926C91.5766 18.0667 91.5723 18.0364 91.5723 18.0105V17.617C91.5723 17.5824 91.5679 17.5479 91.5463 17.5176C91.529 17.4873 91.5031 17.4657 91.4685 17.4528C91.4383 17.4398 91.3993 17.4398 91.3691 17.4484C91.3345 17.4571 91.3042 17.4787 91.2869 17.5046C90.7768 18.058 89.9511 18.4601 88.6368 18.4601C86.6957 18.4601 85.416 17.4484 85.416 15.7062C85.3987 15.2825 85.4851 14.8588 85.671 14.474C85.8569 14.0893 86.138 13.7607 86.4838 13.5143C87.1842 12.9912 88.2693 12.7188 89.8776 12.6539L91.5852 12.5977V12.1006C91.5852 11.0933 90.9065 10.6653 89.8214 10.6653C88.7362 10.6653 88.0488 11.05 87.8889 11.6769C87.8759 11.7201 87.85 11.759 87.811 11.785C87.7721 11.8109 87.7289 11.8239 87.6814 11.8239H85.9953C85.965 11.8239 85.9348 11.8196 85.9045 11.8066C85.8742 11.7936 85.8526 11.7763 85.831 11.7504C85.8094 11.7288 85.7964 11.6985 85.7878 11.6682C85.7791 11.638 85.7748 11.6077 85.7834 11.5775C86.0342 10.0859 87.2706 8.95325 89.8992 8.95325C92.692 8.95325 93.6993 10.2545 93.6993 12.7361L93.708 18.0105H93.7036ZM104.3 9.48501L100.513 19.5884C99.6524 21.936 98.1436 22.5369 96.4965 22.5369C96.1852 22.5455 95.8739 22.5066 95.5756 22.4245C95.528 22.4115 95.4891 22.3856 95.4589 22.3467C95.4286 22.3078 95.4113 22.2602 95.4113 22.2126V20.6779C95.4113 20.6476 95.42 20.613 95.4329 20.5828C95.4459 20.5525 95.4675 20.5266 95.4891 20.5093C95.5151 20.4877 95.541 20.4747 95.5756 20.4661C95.6059 20.4574 95.6404 20.4574 95.6707 20.4661C95.9301 20.5136 96.1938 20.5395 96.4575 20.5395C96.9115 20.5612 97.3654 20.4315 97.7372 20.1677C98.109 19.904 98.3814 19.5236 98.5154 19.0869L98.6278 18.7324C98.6451 18.6849 98.6451 18.633 98.6278 18.5854L95.0871 9.48933C95.0741 9.45475 95.0741 9.42016 95.0784 9.3899C95.0827 9.35531 95.0957 9.32505 95.1173 9.29479C95.139 9.26885 95.1649 9.24291 95.1952 9.22994C95.2254 9.21264 95.26 9.204 95.2946 9.204H97.0152C97.0585 9.204 97.1017 9.21697 97.1363 9.24291C97.1709 9.26885 97.2011 9.30343 97.2184 9.34234L99.6222 15.758C99.6395 15.8013 99.6654 15.8359 99.7043 15.8618C99.7432 15.8877 99.7864 15.9007 99.8297 15.9007C99.8729 15.9007 99.9205 15.8877 99.955 15.8618C99.994 15.8359 100.02 15.8013 100.037 15.758L102.121 9.35963C102.134 9.3164 102.164 9.27749 102.199 9.25155C102.238 9.22561 102.281 9.20832 102.329 9.21264H104.092C104.127 9.21264 104.162 9.22129 104.192 9.23426C104.222 9.25155 104.248 9.27317 104.27 9.29911C104.291 9.32505 104.304 9.35963 104.309 9.3899C104.313 9.42448 104.309 9.45907 104.304 9.48933L104.3 9.48501Z" fill="#5A31F4"/>
</svg>
