<svg width="306" height="24" viewBox="0 0 306 24" fill="none" xmlns="http://www.w3.org/2000/svg">
<path d="M23.5129 16.6414C23.4693 16.5416 23.3965 16.456 23.2947 16.4133L23.0765 16.3277C22.8729 16.2564 22.6547 16.3277 22.5674 16.5131C21.0254 19.465 18.7562 21.2332 15.9778 21.6325C10.6537 22.4453 6.24605 19.6789 4.60228 14.4453C3.61311 11.2368 3.88949 7.85711 5.37325 5.37583C6.42061 3.62182 8.00619 2.46674 9.95544 2.05319C14.1594 1.19757 17.7379 4.17797 19.7308 7.27244C19.8035 7.38652 19.9344 7.45783 20.0654 7.45783H20.2836C20.4727 7.45783 20.6181 7.32948 20.6763 7.15836L21.6218 3.62182C21.6655 3.46496 21.6073 3.29383 21.4473 3.19401C18.7707 1.46852 16.6469 0.527344 13.083 0.527344C6.40606 0.527344 0.761963 5.78937 0.761963 12.0068C0.761963 18.2243 6.27514 23.4863 12.792 23.4863C17.7524 23.4863 21.3455 21.276 23.4838 16.9409C23.542 16.8411 23.5566 16.7412 23.5129 16.6414Z" fill="#C54B38"/>
<path d="M48.5186 22.9015V22.6876C48.5186 22.6021 48.4749 22.5022 48.4313 22.4309C47.2385 21.062 46.453 19.8641 45.1874 16.8124L39.0342 1.08334C38.976 0.940741 38.8305 0.82666 38.656 0.82666H36.1685C36.0376 0.82666 35.9066 0.897961 35.8339 0.997783C35.7612 1.11186 35.7321 1.24021 35.7903 1.36855L36.7794 3.89261L32.0954 16.8267C31.0044 19.8498 30.088 21.1618 28.8661 22.4167C28.7933 22.488 28.7497 22.5878 28.7497 22.6876V22.9015C28.7497 23.1154 28.9388 23.3008 29.157 23.3008H32.8809C33.0991 23.3008 33.2882 23.1154 33.2882 22.9015V22.6876C33.2882 22.5878 33.2446 22.488 33.1719 22.4167C32.0663 21.2473 32.0518 20.0067 33.0991 17.0833L33.8556 14.9871H41.1289L42.5836 18.6662C43.5145 21.0334 43.5873 21.8035 42.9909 22.4024C42.9181 22.4737 42.8745 22.5735 42.8745 22.6734V22.8873C42.8745 23.1012 43.0636 23.2866 43.2818 23.2866H48.1549C48.3295 23.3008 48.5186 23.1154 48.5186 22.9015ZM34.2047 13.9604L37.3177 5.36142L40.6925 13.9604H34.2047Z" fill="#C54B38"/>
<path d="M75.2407 20.8627C75.2407 21.9465 74.9644 22.2032 74.7171 22.3458C74.5861 22.4171 74.5134 22.5454 74.5134 22.688V22.9019C74.5134 23.1158 74.7025 23.3012 74.9207 23.3012H78.8338C79.052 23.3012 79.2411 23.1158 79.2411 22.9019V22.688C79.2411 22.5454 79.1683 22.4171 79.0374 22.3458C78.761 22.2032 78.5137 21.975 78.5137 20.8627V3.30833C78.5137 2.19603 78.7465 1.98213 79.0374 1.82527C79.1683 1.75396 79.2411 1.62562 79.2411 1.48302V1.2406C79.2411 1.02669 79.052 0.841309 78.8338 0.841309H75.8953C75.7499 0.841309 75.6189 0.912609 75.5462 1.04095L67.822 14.2032L59.1085 1.02669C59.0358 0.912609 58.9049 0.841309 58.7739 0.841309H55.9374C55.7919 0.841309 55.6464 0.92687 55.5737 1.05521C55.501 1.18355 55.5155 1.35468 55.6028 1.46876L56.9411 3.27981V19.1943C56.9411 20.3493 56.0828 21.8752 55.1664 22.3458C55.0355 22.4171 54.9482 22.5454 54.9482 22.7023V22.9162C54.9482 23.1301 55.1373 23.3155 55.3555 23.3155H59.5886C59.8068 23.3155 59.9959 23.1301 59.9959 22.9162V22.7023C59.9959 22.5597 59.9086 22.4171 59.7777 22.3458C58.8467 21.8752 58.003 20.3779 58.003 19.1943V4.7914L66.2946 17.1836C66.3673 17.2976 66.4982 17.3689 66.6291 17.3689H66.9055C67.051 17.3689 67.1819 17.2976 67.2546 17.1693L75.2262 3.65058L75.2407 20.8627Z" fill="#C54B38"/>
<path d="M90.9366 23.3008C91.1548 23.3008 91.3439 23.1154 91.3439 22.9015V22.6876C91.3439 22.545 91.2711 22.4167 91.1402 22.3454C90.8929 22.2028 90.6456 21.9604 90.6456 20.8623V14.2883H91.7948C98.7336 14.2883 102.559 11.9069 102.559 7.57176C102.559 3.22238 98.7336 0.82666 91.7948 0.82666H87.0235C86.8053 0.82666 86.6162 1.01204 86.6162 1.22595V1.46837C86.6162 1.61097 86.6889 1.73932 86.8199 1.81062C87.0962 1.96748 87.3435 2.18138 87.3435 3.29368V20.8481C87.3435 21.9604 87.0962 22.1885 86.8199 22.3311C86.6889 22.4024 86.6162 22.5308 86.6162 22.6734V22.8873C86.6162 23.1012 86.8053 23.2866 87.0235 23.2866L90.9366 23.3008ZM91.7803 13.2473H90.6311V1.86766H91.7803C96.7989 1.86766 99.2427 3.73575 99.2427 7.57176C99.2427 11.3365 96.7407 13.2473 91.7803 13.2473Z" fill="#C54B38"/>
<path d="M133.049 12.0068C133.049 5.67529 127.725 0.527344 121.179 0.527344C114.633 0.527344 109.309 5.67529 109.309 12.0068C109.309 18.3384 114.633 23.4863 121.179 23.4863C127.725 23.4863 133.049 18.3384 133.049 12.0068ZM113.615 5.64677C114.575 3.86424 116.117 2.6236 118.066 2.03893C118.837 1.81077 119.593 1.69668 120.321 1.69668C124.554 1.69668 127.9 5.36157 129.223 9.5826C130.765 14.5452 129.558 20.3919 124.277 21.9748C121.892 22.6735 119.55 22.2742 117.455 20.7626C115.491 19.3509 113.949 17.0835 113.106 14.3883C112.146 11.2368 112.32 8.0425 113.615 5.64677Z" fill="#C54B38"/>
<path d="M171.86 12.1923C171.641 12.1923 171.452 12.3777 171.452 12.5916V12.834C171.452 13.0479 171.627 13.2191 171.83 13.2333C173.14 13.3046 173.882 14.3171 173.882 15.9998V19.9642C172.791 21.0765 171.438 21.7467 169.881 21.9606C164.557 22.6166 160.557 19.8929 158.855 14.4312C157.851 11.2226 158.142 7.84295 159.626 5.36167C160.673 3.60766 162.259 2.45258 164.208 2.03903C168.397 1.16915 172.005 4.16381 173.983 7.25828C174.056 7.37236 174.187 7.44367 174.318 7.44367H174.536C174.725 7.44367 174.871 7.31532 174.929 7.1442L175.874 3.60766C175.918 3.45079 175.86 3.27967 175.7 3.17985C173.023 1.45436 170.899 0.513184 167.336 0.513184C160.659 0.513184 155.015 5.77521 155.015 11.9927C155.015 18.3242 160.251 23.4722 166.695 23.4722C172.951 23.4722 176.194 20.1353 177.14 18.1674C177.155 18.1103 177.184 18.0533 177.184 17.9963V14.6451C177.184 13.5328 177.416 13.3189 177.678 13.162C177.795 13.0907 177.867 12.9624 177.867 12.8198V12.5774C177.867 12.3635 177.678 12.1781 177.46 12.1781L171.86 12.1923Z" fill="#C54B38"/>
<path d="M198.625 17.1693L196.051 12.7344C199.44 11.8217 201.36 9.78249 201.36 7.0873C201.36 3.29407 197.549 0.841309 191.643 0.841309H185.519C185.301 0.841309 185.112 1.02669 185.112 1.2406V1.48302C185.112 1.62562 185.184 1.75396 185.301 1.82527C185.562 1.98213 185.795 2.21029 185.795 3.30833V20.8627C185.795 21.9607 185.548 22.2032 185.301 22.3458C185.184 22.4171 185.112 22.5454 185.112 22.688V22.9019C185.112 23.1158 185.301 23.3012 185.519 23.3012H189.403C189.621 23.3012 189.81 23.1158 189.81 22.9019V22.688C189.81 22.5454 189.737 22.4171 189.606 22.3458C189.359 22.2032 189.112 21.9607 189.112 20.8627V13.3048H191.643C192.036 13.3048 192.443 13.2905 192.836 13.262L196.094 18.8377L196.152 18.9233C197.345 20.991 197.811 21.8467 197.243 22.4171C197.171 22.4884 197.127 22.5882 197.127 22.688V22.9019C197.127 23.1158 197.316 23.3012 197.534 23.3012H202.393C202.611 23.3012 202.8 23.1158 202.8 22.9019V22.688C202.8 22.5739 202.757 22.4598 202.669 22.3885C201.476 21.3618 200.502 20.3921 198.625 17.1693ZM189.112 1.86805H191.643C197.403 1.86805 198.058 4.83418 198.058 7.07304C198.058 10.5525 195.963 12.2495 191.643 12.2495H189.112V1.86805Z" fill="#C54B38"/>
<path d="M224.737 16.8129L218.583 1.08383C218.525 0.94123 218.38 0.827148 218.205 0.827148H215.718C215.587 0.827148 215.456 0.89845 215.383 0.998271C215.31 1.11235 215.296 1.2407 215.339 1.36904L216.329 3.8931L211.645 16.8272C210.554 19.8503 209.637 21.1623 208.415 22.4172C208.343 22.4885 208.299 22.5883 208.299 22.6881V22.902C208.299 23.1159 208.488 23.3013 208.706 23.3013H212.43C212.648 23.3013 212.837 23.1159 212.837 22.902V22.6881C212.837 22.5883 212.794 22.4885 212.721 22.4172C211.616 21.2478 211.601 20.0072 212.648 17.0838L213.405 14.9876H220.678L222.133 18.6667C223.064 21.0339 223.136 21.804 222.54 22.4029C222.467 22.4742 222.424 22.574 222.424 22.6739V22.8878C222.424 23.1017 222.613 23.287 222.831 23.287H227.704C227.922 23.287 228.111 23.1017 228.111 22.8878V22.6739C228.111 22.5883 228.068 22.4885 228.024 22.4172C226.802 21.0624 226.002 19.8646 224.737 16.8129ZM213.768 13.9608L216.881 5.36191L220.256 13.9608H213.768Z" fill="#C54B38"/>
<path d="M250.426 0.826761C250.208 0.826761 250.019 1.01214 250.019 1.22605V1.46847C250.019 1.61107 250.106 1.75368 250.237 1.82498C251.168 2.29557 252.011 3.77863 252.011 4.94797V17.8678L238.425 0.983623C238.352 0.883801 238.236 0.841021 238.105 0.841021H234.919C234.774 0.841021 234.628 0.926582 234.556 1.06918C234.483 1.21179 234.497 1.36865 234.599 1.48273L236.534 3.90697V19.194C236.534 20.3776 235.676 21.8749 234.745 22.3455C234.614 22.4168 234.512 22.5451 234.512 22.702V22.9159C234.512 23.1298 234.701 23.3152 234.919 23.3152H239.181C239.4 23.3152 239.589 23.1298 239.589 22.9159V22.702C239.589 22.5594 239.501 22.4168 239.356 22.3455C238.41 21.8891 237.567 20.3918 237.567 19.194V5.1904L251.881 23.1441C251.953 23.2439 252.07 23.3009 252.201 23.3009H252.666C252.884 23.3009 253.073 23.1155 253.073 22.9016V4.93371C253.073 3.76437 253.917 2.28131 254.848 1.81072C254.979 1.73942 255.066 1.61107 255.066 1.45421V1.21179C255.066 0.997883 254.877 0.8125 254.659 0.8125H250.426V0.826761Z" fill="#C54B38"/>
<path d="M270.762 0.827148H262.863C262.645 0.827148 262.456 1.01253 262.456 1.22644V1.46886C262.456 1.61146 262.529 1.7398 262.645 1.81111C262.892 1.95371 263.14 2.19613 263.14 3.29417V20.8485C263.14 21.9466 262.892 22.189 262.645 22.3316C262.529 22.4029 262.456 22.5312 262.456 22.6739V22.8878C262.456 23.1017 262.645 23.287 262.863 23.287H270.762C278.21 23.287 283.84 18.4528 283.84 12.05C283.825 5.66137 278.21 0.827148 270.762 0.827148ZM266.456 1.86815H270.762C277.177 1.86815 280.523 7.00184 280.523 12.0642C280.523 17.1409 277.163 22.2888 270.762 22.2888H266.456V1.86815Z" fill="#C54B38"/>
<path d="M305.049 18.8235L304.859 18.6952C304.685 18.5811 304.438 18.6239 304.307 18.7807C303.478 19.836 301.121 22.2745 297.048 22.2745H294.895V11.2656L302.416 11.8788C302.488 11.8788 302.648 11.8502 302.721 11.7789C302.808 11.7076 302.852 11.5935 302.852 11.4795V9.89658C302.852 9.7825 302.808 9.68268 302.721 9.59712C302.648 9.52581 302.547 9.48303 302.416 9.49729L294.895 10.139V1.82528H296.699C299.986 1.82528 301.819 3.35112 303.318 5.00531C303.463 5.17644 303.71 5.17644 303.87 5.04809L304.03 4.91975C304.147 4.83419 304.205 4.67733 304.176 4.53472L303.507 1.098C303.478 0.912621 303.303 0.77002 303.114 0.77002H291.302C291.084 0.77002 290.895 0.955402 290.895 1.16931V1.41173C290.895 1.55433 290.967 1.68267 291.084 1.75398C291.331 1.89658 291.578 2.139 291.578 3.23704V20.7914C291.578 21.8894 291.331 22.1319 291.084 22.2745C290.967 22.3458 290.895 22.4741 290.895 22.6167V22.8306C290.895 23.0445 291.084 23.2299 291.302 23.2299H304.132C304.321 23.2299 304.496 23.0873 304.525 22.9019L305.223 19.1515C305.238 19.0802 305.18 18.9091 305.049 18.8235Z" fill="#C54B38"/>
</svg>
