<svg width="37" height="30" viewBox="0 0 37 30" fill="none" xmlns="http://www.w3.org/2000/svg">
<g clip-path="url(#clip0_1_28934)">
<path fill-rule="evenodd" clip-rule="evenodd" d="M3.09965 5.76979L0.569648 8.75979L0.639648 11.1898L4.76965 16.0898L9.21965 20.6798L13.7296 25.2098L18.4996 29.5298L22.9796 24.9598L27.6596 20.5998L32.1596 16.0598L36.3696 11.1998L36.6396 8.52979L34.0596 6.14979L28.6296 11.8298L23.7696 18.0898L18.4996 24.0998L13.2696 18.0598L8.22965 11.9498L3.10964 5.75979L3.09965 5.76979ZM33.9196 7.54979L29.0496 13.9398L23.9396 20.0298L18.4996 25.6298L13.5596 19.6098L8.37965 13.5698L2.94965 7.73979L1.29965 9.46979L1.13965 10.6998L6.89965 16.4198L12.9696 21.8398L18.4996 27.8798L24.1196 21.9398L30.1696 16.4998L35.6296 10.4698L35.6596 9.50978L33.9196 7.54979Z" fill="#191411"/>
<path d="M11.2501 6.6601L11.8601 8.1201L17.1001 13.2201L18.4901 13.8501L19.8701 13.2101L25.0501 8.0501L25.0801 5.2301L19.8101 0.150099L18.4801 -0.439901L17.0301 0.0300983L11.8801 5.2201L11.2401 6.6501L11.2501 6.6601ZM19.0101 12.3401L18.5001 12.5601L17.9101 12.4101L12.7701 7.2001L12.7201 6.0501L17.9001 0.890099L18.4801 0.690098L19.1301 0.820099L24.2701 6.0201L24.1801 7.1701L19.0001 12.3301L19.0101 12.3401Z" fill="#191411"/>
<path d="M15.1802 6.66027L18.5002 10.0303L21.9502 6.66027L18.5002 3.52027L15.1802 6.66027ZM18.5002 7.68027L17.5402 6.66027L18.5002 5.78027L19.7002 6.66027L18.5002 7.68027Z" fill="#191411"/>
</g>
<defs>
<clipPath id="clip0_1_28934">
<rect width="30" height="37" fill="white" transform="matrix(-4.37114e-08 -1 -1 4.37114e-08 37 30)"/>
</clipPath>
</defs>
</svg>
