<svg width="114" height="14" viewBox="0 0 114 14" fill="none" xmlns="http://www.w3.org/2000/svg">
<path d="M107.256 8.39918C100.154 7.36974 93.4359 6.44997 86.6131 6.10294C80.519 5.796 74.4281 5.59293 68.3469 5.54295C61.3401 5.4831 54.3411 5.45423 47.3546 5.53593C38.5921 5.63925 29.8281 5.76686 21.119 6.25778C15.2968 6.58403 9.49833 6.99716 3.83993 7.81559C3.32839 7.88685 2.83474 7.98364 2.31464 8.03606C1.33348 8.13244 0.294359 8.06658 0.078345 7.32105C-0.121326 6.62535 0.833771 6.47853 1.74387 6.42643C9.13224 6.00428 16.5121 5.56329 23.8997 5.15329C32.6083 4.66845 41.3926 4.68239 50.152 4.62766C58.0044 4.57645 65.8818 4.74636 73.7377 4.79295C79.956 4.83332 86.1736 5.03831 92.3959 5.47536C96.4441 5.75631 100.411 6.39195 104.435 6.75064C105.055 6.80825 105.736 6.99166 106.451 6.63446C105.138 5.81331 103.558 5.35945 102.007 4.90743C99.4894 4.1685 96.9376 3.5067 94.4092 2.78538C93.4418 2.51062 92.114 2.2313 92.7043 1.37831C93.2624 0.572071 94.3895 0.942339 95.4222 1.26393C100.461 2.83351 105.533 4.35027 110.551 5.94292C111.946 6.38509 113.854 6.74385 113.637 8.02297C113.432 9.26019 111.634 9.46949 110.039 9.71602C108.651 9.92687 107.261 10.156 105.839 10.2975C102.168 10.6687 99.0372 11.6107 96.5505 13.3071C96.1025 13.608 95.5718 14.1355 94.7845 13.6343C94.1095 13.2073 94.6628 12.7849 95.1521 12.45C97.4834 10.8963 100.218 9.74617 103.598 9.18586C104.712 8.99421 105.923 8.96119 107.256 8.39918Z" fill="#C54B38"/>
</svg>
