<svg width="1920" height="1294" viewBox="0 0 1920 1294" fill="none" xmlns="http://www.w3.org/2000/svg">
<path d="M77.1494 -111.221C66.1777 -113.93 48.6668 -117.296 39.4987 -122.67L14.3205 -128C6.21077 -123.422 6.31845 -117.479 3.82955 -109.049C-1.07688 -92.4311 0.219831 -75.6089 -1.41591 -58.7111C-6.43916 -6.81925 -7.10816 44.9191 -15.5204 96.646C-23.6472 146.618 -27.6432 196.636 -27.6432 247.068C-27.6432 349.025 -33.2979 450.732 -31.723 552.748C-31.126 591.419 -29.7272 630.323 -26.7107 668.921C-24.3179 699.538 -18.4208 729.64 -14.821 760.121C-11.5925 787.459 -12.6936 815.302 -13.0725 842.735C-13.5398 876.563 -17.993 910.057 -20.0665 943.806C-21.9844 975.023 -21.3487 1006.33 -21.3487 1037.57C-21.3487 1079.02 -20.8815 1120.42 -22.9806 1161.84C-24.4849 1191.52 -31.7538 1221.52 -29.6249 1251.26C-28.5471 1266.32 -12.9111 1264.01 0.332516 1268.44C13.4934 1272.84 23.7296 1272.36 37.2839 1269.33C51.1354 1266.22 61.0996 1268.89 75.1677 1269.82C102.682 1271.63 132.027 1270.16 159.095 1266.27C176.223 1263.8 191.918 1263.31 209.451 1263.11C223.06 1262.95 236.263 1260.5 250.016 1261.43C260.812 1262.16 267.656 1270.06 279.158 1270.21C287.06 1270.32 295.578 1270.87 303.403 1269.82C309.11 1269.05 313.716 1265.91 319.373 1265.08C324.556 1264.32 325.89 1267.35 330.33 1268.24C336.004 1269.37 343.088 1268.44 348.864 1268.44C366.824 1268.44 384.556 1264.1 402.368 1264.98C418.932 1265.81 433.128 1271.88 450.043 1271.99C475.292 1272.15 502.2 1276.09 527.21 1272.88C543.579 1270.78 561.053 1274.34 577.1 1270.81C588.458 1268.3 597.78 1265.01 609.738 1264.88C616.338 1264.81 622.66 1264.81 629.205 1264C665.395 1259.49 702.042 1263.11 738.31 1263.11C753.189 1263.11 765.168 1259.65 779.691 1258.17C796.229 1256.48 813.747 1257.78 830.397 1257.78C844.72 1257.78 859.093 1257.46 873.41 1257.78C885.317 1258.04 897.282 1262.35 909.429 1263.01C930.225 1264.14 950.948 1263.38 971.791 1264.88C988.316 1266.07 1004.1 1271.05 1020.75 1272.39C1068.61 1276.22 1118.15 1276.9 1166.22 1277.32C1193.92 1277.56 1221.64 1277.32 1249.33 1277.32C1283.5 1277.32 1316.28 1270.56 1350.4 1270.21C1394.63 1269.77 1438.62 1263.11 1483.05 1263.11C1522.91 1263.11 1561.02 1260.23 1601.01 1264.88C1631.72 1268.46 1663.36 1275.22 1694.27 1275.54C1738.09 1276.01 1783.88 1283.83 1826.68 1291.53C1836.22 1293.25 1852.41 1295.84 1861.77 1292.03C1870.71 1288.38 1873.08 1279.1 1883.8 1279.1C1895.39 1279.1 1905.2 1282.92 1916.44 1284.82C1920.57 1285.52 1937.74 1295.31 1939.4 1292.82C1943.97 1285.94 1946.02 1274.75 1947.21 1266.86C1948.23 1260.1 1949.36 1248.35 1957.24 1244.35C1959.52 1243.2 1962.4 1244.37 1964.47 1243.37C1969.12 1241.11 1968.76 1216.88 1969.36 1212.37C1970.88 1200.93 1970.05 1188.63 1968.66 1177.24C1964.1 1139.75 1964.01 1101.93 1961.32 1064.32C1959.82 1043.45 1957.46 1023.09 1957.24 1002.14C1957.07 985.807 1954.98 969.518 1955.14 953.183C1955.21 945.799 1959.38 940.707 1961.2 933.64C1967.8 908.113 1965.51 879.802 1967.26 853.691C1968.87 829.733 1969.73 805.945 1972.86 782.132C1976.52 754.222 1970.24 726.602 1969.83 698.729C1969.5 676.575 1970.83 653.159 1965.51 631.414C1961.01 612.962 1960.37 594.305 1955.61 575.746C1953.93 569.221 1951.35 560.434 1953.16 553.538C1954.79 547.34 1958.57 540.833 1960.27 534.39C1963.3 522.906 1962.35 511.945 1963.65 500.436C1965.6 483.095 1965.63 465.78 1965.63 448.223C1965.63 427.782 1969.83 407.882 1969.83 387.817C1969.83 355.254 1965.63 322.923 1965.63 290.497C1965.63 268.711 1961.43 248.224 1961.43 226.341L1961.43 157.644C1961.43 137.927 1950.58 118.387 1956.19 98.4227C1958.9 88.7803 1957.24 77.7618 1957.24 68.0224C1957.24 57.3106 1959.34 46.7042 1959.34 36.1417C1959.34 10.202 1965.18 -17.054 1958.29 -42.7213C1954.38 -57.277 1955.2 -72.3779 1952.93 -87.1372C1952.51 -89.8281 1945.95 -114.322 1943.25 -115.169C1932.23 -118.625 1908.86 -116.825 1896.39 -115.169C1871.61 -111.878 1847.27 -115.563 1822.49 -115.563C1808.75 -115.563 1794.79 -112.727 1781.11 -113.886C1769.88 -114.836 1761.63 -122.46 1749.98 -122.67C1724.23 -123.134 1699.2 -119.117 1673.52 -119.117C1657.96 -119.117 1643.49 -115.563 1627.82 -115.563C1612.38 -115.563 1597.3 -115.017 1581.9 -114.182C1535.16 -111.649 1488.26 -115.563 1441.55 -115.563C1418 -115.563 1394.04 -113.975 1370.91 -118.13C1354.09 -121.152 1336.64 -124.447 1319.39 -124.447C1306.79 -124.447 1295.92 -121.837 1283.72 -119.906C1273.87 -118.348 1263.8 -119.655 1253.88 -118.722C1238.21 -117.247 1223.97 -115.563 1208.07 -115.563L1125.19 -115.563C1044.98 -115.563 974.908 -70.6286 892.527 -81.0178C870.975 -83.7357 850.173 -90.6218 828.416 -92.0724C805.907 -93.5731 782.924 -92.4672 760.341 -92.4672C747.671 -92.4672 735.293 -95.2033 723.04 -97.7971C706.253 -101.351 687.519 -101.351 670.236 -101.35L669.886 -101.35C648.916 -101.35 628.065 -97.7971 607.174 -97.7971C599.67 -97.7971 592.324 -98.5955 585.026 -99.9686C573.616 -102.116 567.746 -111.301 557.983 -116.353C544.603 -123.277 533.181 -122.67 517.885 -122.67C497.392 -122.67 478.573 -112.661 458.669 -115.958C438.344 -119.326 417.262 -114.068 396.656 -113.787C367.508 -113.389 338.025 -108.803 308.999 -108.457C286.07 -108.184 263.297 -106.68 240.458 -106.68C229.289 -106.68 219.484 -110.234 208.286 -110.234C193.782 -110.234 181.235 -104.904 167.022 -104.904C154.63 -104.904 142.804 -104.206 130.653 -103.226C123.657 -102.662 116.891 -102.771 110.371 -104.904C99.2169 -108.553 88.2209 -108.486 77.1494 -111.221Z" fill="#F4F1E6"/>
</svg>
