<svg width="227" height="211" viewBox="0 0 227 211" fill="none" xmlns="http://www.w3.org/2000/svg">
<g opacity="0.6">
<path fill-rule="evenodd" clip-rule="evenodd" d="M194.177 74.7622C202.253 69.1693 210.864 64.701 218.823 59.2379C221.457 57.429 223.444 57.2758 225.301 60.1169C226.863 62.5097 228.188 64.0306 225.118 67.1621C220.021 72.355 216.036 78.7595 212.111 85.0012C205.163 96.0405 197.316 106.422 189.904 117.116C185.91 122.876 181.823 128.697 178.867 135.032C176.399 140.326 172.044 141.956 167.427 143.818C158.758 147.313 150.396 151.371 142.603 156.577C139.438 158.69 138.966 162.331 137.31 165.281C133.235 172.527 129.318 179.88 126.376 187.726C125.296 190.615 123.086 192.4 120.018 192.622C110.242 193.32 101.096 196.786 91.5269 198.428C79.4633 200.497 67.4477 202.946 55.5653 205.827C50.7036 207.007 45.5138 207.62 41.1349 210.434C40.6426 210.757 39.8965 210.922 39.3157 210.829C36.6623 210.409 32.6064 202.368 33.8974 199.894C36.5764 194.787 39.5094 189.811 42.1803 184.692C44.6586 179.936 47.1207 175.155 48.6464 169.592C38.7472 167.875 29.3418 164.375 19.5216 162.738C16.8989 162.298 13.2238 162.321 13.3373 158.309C13.487 152.823 11.8611 147.142 15.6422 141.996C18.5694 138.017 20.3565 133.188 22.9127 128.899C23.7419 127.52 23.7429 126.623 22.8912 125.433C14.5196 113.81 9.43261 100.215 0.706206 88.8168C-0.299495 87.4998 -0.0703749 86.4002 0.469617 85.2107C3.42313 78.6838 6.33612 72.122 9.42375 65.6653C11.3535 61.6298 13.2324 57.5838 14.7901 53.3707C17.155 46.9667 20.5996 41.0401 23.2225 34.7743C26.4881 26.979 30.2579 19.4152 33.369 11.5457C34.404 8.92383 35.5062 6.31055 36.8481 3.84755C37.7157 2.2584 39.1913 1.1928 41.2036 1.14577C56.4758 0.758483 71.7385 0.0347264 87.0156 0.0572736C98.1505 0.0753008 109.322 0.350435 120.449 1.93832C123.818 2.41527 127.268 2.45234 130.39 0.367033C132.062 -0.74835 133.109 1.00727 133.823 2.32253C139.983 13.7016 145.741 25.3005 152.599 36.3087C153.627 37.9541 154.526 38.2775 156.21 38.4018C164.46 38.9877 172.632 37.6463 180.866 38.1281C186.124 38.437 191.402 39.0314 196.63 38.2351C198.248 37.99 198.708 38.9979 199.244 39.9899C199.993 41.3706 200.276 43.1441 201.302 44.2105C205.389 48.435 204.551 52.4302 202.116 57.0519C199.11 62.7609 196.795 68.8512 194.185 74.7747L194.177 74.7622ZM114.2 109.27C115.456 111.679 114.395 114.274 114.965 116.739C115.105 117.341 115.146 118.14 115.995 117.838C116.298 117.736 116.351 116.945 116.524 116.471C117.349 119.98 117.394 123.791 120.492 126.644C120.801 125.641 121.067 124.798 121.323 123.954C120.797 127.753 123.661 130.425 124.743 133.695C124.976 134.412 125.579 135.009 126.017 135.662C128.252 138.958 130.193 142.465 133.115 145.265C133.611 145.739 134.182 146.542 133.503 147.331C132.98 147.929 132.393 147.84 131.902 147.213C129.146 143.688 126.042 140.462 123.751 136.544C122.334 134.117 121.479 130.776 118.627 129.96C117.098 129.523 116.11 129.521 116.352 127.877C116.9 124.125 113.844 123.187 111.614 122.138C104.028 118.577 96.4375 114.904 87.7857 113.88C89.4959 111.535 91.5728 112.351 93.2804 112.9C97.3367 114.208 101.357 115.637 105.184 117.669C107.833 119.075 110.35 121.043 113.837 121.285C111.584 116.419 107.104 115.283 103.209 113.455C99.2165 111.586 94.844 110.774 90.7537 109.119C98.0626 108.635 104.142 112.421 110.468 115.403C106.023 109.384 99.322 107.816 92.9176 105.668C91.5174 105.199 91.1171 106.279 90.6042 107.134C88.257 111.057 85.9343 114.99 83.3717 119.309C97.2847 121.519 109.336 127.439 121.012 134.317C112.584 130.307 103.933 126.856 95.201 123.617C91.7789 122.349 88.2283 121.595 84.6219 121.186C83.3457 121.04 82.355 121.436 82.062 122.867C81.6967 124.672 83.1937 124.242 84.0241 124.514C85.9841 125.152 88.0959 125.418 89.9273 126.315C94.2648 128.441 98.9338 129.946 103.266 132.989C101.913 133.315 101.357 132.67 100.678 132.36C94.751 129.651 88.7492 127.177 82.3582 125.907C81.3273 125.705 80.1604 125.417 79.7721 126.77C79.2852 128.47 80.8463 128.192 81.6824 128.513C84.9598 129.762 88.5556 130.477 91.0946 134.759C87.5762 133.036 85.1703 130.994 82.1901 130.359C80.807 130.063 78.7793 128.45 78.1116 130.049C77.2234 132.17 80.0081 131.985 81.1494 132.677C82.7191 133.632 84.5025 134.149 84.9939 136.761C82.284 135.746 80.3834 134.059 77.9465 133.62C76.0515 133.282 75.5043 134.608 74.8073 135.787C73.8703 137.377 75.181 137.791 76.2402 138.291C77.0188 138.658 77.9351 138.9 77.838 140.08C72.8445 138.578 72.7348 138.518 70.4416 143.1C67.0618 149.863 63.8405 156.706 60.5948 163.539C59.9784 164.841 59.553 166.245 58.817 168.222C71.5948 165.887 83.6702 163.89 95.637 161.42C108.497 158.767 121.219 155.475 134.352 154.164C136.848 153.914 138.821 152.882 140.369 150.653C148.898 138.346 157.569 126.149 166.198 113.927C170.846 107.352 175.079 100.467 180.216 94.2472C181.091 93.18 182.268 91.9679 181.403 90.4621C180.632 89.1138 179.059 89.8302 177.848 89.6761C176.974 89.5649 176.063 89.6797 175.175 89.709C170.456 89.8723 165.72 90.3984 161.021 90.1091C156.609 89.842 152.43 91.6457 147.989 90.7301C146.217 90.3647 145.892 91.7736 146.027 93.2403C146.192 95.0742 146.518 96.9254 145.127 99.1394C144.809 96.5359 145.356 94.4453 144.6 92.4896C144.187 91.4167 143.416 90.8596 142.199 90.8584C140.489 90.8562 140.906 92.0943 140.892 93.0525C140.869 95.7395 140.888 98.4248 140.892 101.569C138.882 99.5667 140.165 97.4846 139.627 95.7116C139.118 94.0245 139.897 91.764 136.95 90.8166C136.704 100.865 136.898 110.695 134.86 120.267C135.271 112.483 135.768 104.723 135.381 96.9176C135.279 94.8577 135.432 92.5955 132.569 91.039C132.56 103.674 131.661 115.689 130.367 127.682C130.077 127.293 129.959 126.913 129.973 126.544C130.409 116.573 131.296 106.63 130.833 96.617C130.746 94.7142 131.094 92.4818 128.261 91.3454C129.016 100.033 128.406 108.238 127.228 117.334C126.226 114.978 126.696 113.588 126.793 112.206C127.205 106.382 127.476 100.544 126.718 94.6961C126.591 93.6984 126.789 91.9074 124.972 92.3186C123.478 92.6582 124.452 94.1015 124.539 94.9848C125.26 102.508 123.853 109.874 123.769 117.338C122.589 109.667 124.778 101.788 121.642 94.3027C121.677 101.196 121.566 108.054 121.254 114.903C119.784 111.94 120.397 108.795 120.254 105.708C120.056 101.382 120.567 96.9162 117.751 91.9714C117.339 97.9019 117.754 102.946 116.864 107.855C114.954 103.967 117.345 99.48 115.004 95.3923C114.127 100.213 115.918 104.978 114.182 109.457C112.56 104.037 114.305 98.163 111.4 92.8812C111.974 100.072 111.059 107.343 112.998 114.454C114.162 112.793 112.97 110.79 114.221 109.248L114.2 109.27ZM40.7054 100.993C40.1667 101.513 39.4431 101.927 39.1197 102.561C32.2336 115.827 24.9634 128.897 18.9876 142.638C18.0502 144.791 17.2775 147.021 16.4337 149.21C23.0912 138.01 29.1362 126.588 34.5695 114.865C36.683 110.304 39.8461 106.162 40.6118 100.957C41.0863 100.567 41.7579 100.275 41.9966 99.767C44.9936 93.4136 48.4172 87.3075 52.2104 81.4157C52.572 80.8531 52.7867 80.2815 52.0955 79.6983C50.4293 79.5884 50.0655 81.207 49.5499 82.152C46.8745 87.0638 44.3351 92.062 41.9502 97.1346C41.4043 98.3016 40.0554 99.3455 40.7116 100.989L40.7054 100.993ZM89.1072 81.1278C87.9533 78.9414 87.4641 77.5928 86.6301 76.497C78.3307 65.5475 71.5328 53.6121 63.8733 42.2423C56.3652 31.0896 49.9974 19.2057 41.8228 8.47301C39.9831 6.0602 39.3979 6.77843 38.2947 8.73316C35.0082 14.5384 32.679 20.8223 29.9353 26.8774C21.8851 44.6342 14.5341 62.7315 5.94716 80.2343C3.96837 84.2756 4.21643 87.7247 6.68858 91.436C9.01154 94.9201 11.3285 98.3817 13.2267 102.171C16.2095 108.122 19.6552 113.866 23.1278 119.557C25.2428 123.019 25.5012 122.849 27.3219 119.184C34.3748 104.965 42.0392 91.0736 48.6085 76.6007C49.5162 74.5898 51.1327 74.2753 52.6778 75.2469C54.1945 76.2021 55.8187 76.4626 57.3886 76.8819C67.5736 79.5977 78.2044 77.319 89.1011 81.1319L89.1072 81.1278ZM89.6415 75.7852C90.8054 75.1704 90.9625 74.1356 91.2398 73.1362C93.6842 64.1841 96.5909 55.3326 98.4159 46.2422C99.4355 41.1961 102.668 40.3389 106.316 40.2467C119.665 39.909 132.989 39.1837 146.312 38.3892C148.28 38.2746 150.542 38.1251 148.437 35.4559C141.706 26.9481 138.203 16.6105 132.289 7.64488C131.221 6.01758 130.212 5.37947 128.259 5.36976C124.033 5.35862 119.811 5.40664 115.56 4.98146C107.523 4.16857 99.4539 3.48188 91.3937 3.23768C83.4397 2.99412 75.4677 3.21939 67.5177 3.49168C60.125 3.74082 52.754 4.34486 45.3683 4.7388C42.6288 4.88543 42.5269 5.88383 43.9276 8.084C46.6725 12.3984 50.1008 16.2112 52.9095 20.4485C56.4905 25.8485 59.6039 31.5556 63.0474 37.0546C67.6413 44.3996 72.0689 51.8802 77.1123 58.9038C81.1971 64.5881 84.3249 71.0415 89.6455 75.7914L89.6415 75.7852ZM107.437 51.6648C107.098 52.5027 106.647 53.4134 106.352 54.3719C103.201 64.4738 101.551 74.8639 100.443 85.4347C100.049 89.2083 101.102 89.8181 104.091 89.7974C104.862 89.7918 105.631 89.8229 106.403 89.8439C114.088 90.0532 121.686 89.0713 129.329 88.7197C146.491 87.9258 163.717 87.9519 180.848 86.5727C182.539 86.4381 184.071 86.4514 185.12 84.6819C191.186 74.4325 196.387 63.7496 200.614 52.5635C201.443 50.3666 200.878 49.0767 198.386 48.9026C195.57 48.7043 192.72 48.106 189.953 48.332C174.523 49.5788 159.007 48.2805 143.557 48.9338C132.565 49.4019 121.657 50.9225 110.624 50.899C109.626 50.895 108.643 51.356 107.449 51.6567L107.437 51.6648ZM55.6877 166.568C56.4058 166.334 56.2888 165.391 56.6653 164.757C61.8478 156.073 65.3621 146.523 70.5552 137.788C78.6439 124.18 85.5671 109.844 93.7413 96.2594C95.5361 93.2792 94.2811 92.5214 91.7092 91.6088C80.3389 87.5708 68.3753 87.0687 56.7265 84.6989C54.4631 84.2428 53.5658 84.9551 52.5795 86.833C48.8978 93.8469 44.9155 100.671 41.4347 107.817C33.7035 123.686 25.9823 139.583 17.3896 154.998C16.1186 157.274 16.5787 158.43 19.1812 159.094C30.475 161.97 41.6965 165.218 53.275 166.676C54.0353 166.774 54.7874 167.142 55.6816 166.572L55.6877 166.568ZM135.982 157.075C135.407 157.031 134.651 156.833 133.94 156.93C123.584 158.299 113.418 160.615 103.166 162.531C89.2594 165.133 75.5933 168.825 61.5278 170.661C60.1347 170.846 59.0476 171.551 58.5399 172.789C54.1186 183.506 47.9499 193.277 42.917 203.665C42.6017 204.312 41.9605 205.146 42.688 205.784C43.0466 206.103 43.951 206.045 44.5014 205.85C54.3021 202.509 64.4979 200.788 74.6451 198.765C89.2742 195.856 103.967 193.204 118.365 189.234C121.932 188.254 123.411 186.255 124.718 183.471C125.484 181.861 125.939 180.086 126.756 178.513C129.928 172.387 133.32 166.381 135.583 159.807C135.862 158.999 136.668 158.321 135.978 157.069L135.982 157.075ZM143.472 151.26C143.613 151.422 143.755 151.584 143.897 151.746C145.859 150.739 147.824 149.747 149.783 148.734C160.187 143.361 172.026 140.051 178.293 128.739C179.4 126.737 180.658 124.804 181.953 122.926C192.233 108.029 202.611 93.1993 212.767 78.2077C214.132 76.1954 216.226 74.53 217.052 71.2545C215.418 72.2131 214.355 72.8062 213.329 73.4443C205.613 78.2564 198.168 83.4963 190.113 87.7661C188.119 88.8204 185.698 89.707 184.732 91.897C182.563 96.7752 178.874 100.533 175.949 104.836C168.371 115.989 160.498 126.933 152.748 137.972C149.644 142.392 146.568 146.828 143.472 151.26ZM105.053 44.802C106.111 46.1988 107.213 46.495 108.574 46.7437C114.599 47.832 120.634 47.3667 126.593 47.0132C140.555 46.1857 154.504 45.7008 168.516 45.9563C178.342 46.1398 188.171 45.6443 198.042 45.4549C197.854 42.889 196.547 41.8229 194.43 41.9387C190.071 42.1816 185.757 41.701 181.428 41.1163C178.917 40.7791 176.349 40.5842 173.837 40.6873C153.623 41.5424 133.35 41.5041 113.208 43.3402C110.592 43.5814 107.789 43.0936 105.049 44.7958L105.053 44.802ZM96.9254 88.1925C99.1573 83.6247 97.6584 78.6328 98.8482 73.9934C100.705 66.7626 101.809 59.3234 103.235 51.9718C103.55 50.3589 103.906 48.728 101.633 47.6541C98.9463 54.4803 97.4784 61.4993 95.5365 68.3463C93.6595 74.9837 92.8885 81.6154 96.9254 88.1925ZM39.1827 203.692C39.2822 203.495 39.5663 202.922 39.8687 202.363C41.1464 200.003 42.3308 197.582 43.7223 195.289C47.9009 188.414 51.4718 181.218 54.368 173.692C54.6576 172.939 56.0067 171.614 54.2303 170.733C52.4783 169.862 52.0309 171.219 51.4563 172.396C48.2639 178.948 45.0429 185.484 41.8545 192.042C40.3464 195.15 38.1538 197.847 37.072 201.229C36.6661 202.488 36.9261 203.152 37.6154 203.974C38.0398 204.486 38.4727 204.448 39.1929 203.694L39.1827 203.692ZM189.018 84.8114C191.56 84.3903 192.954 83.0266 194.588 82.121C198.605 79.8963 201.427 76.0395 205.704 74.1446C211.217 71.7026 215.956 68.0021 220.779 64.457C221.539 63.8968 222.914 63.3628 221.92 62.1437C221.158 61.2114 220.274 62.2663 219.614 62.7353C212.803 67.5855 204.704 70.434 198.612 76.4201C197.364 77.6441 195.736 78.8535 194.089 79.1882C191.043 79.808 190.061 81.9205 189.024 84.8073L189.018 84.8114ZM57.6698 80.7838C69.402 84.4611 81.7355 84.6413 93.6992 88.4565C92.6145 86.1339 91.3996 84.7843 90.0545 84.4079C79.4373 81.3694 68.5161 81.6768 57.6657 80.7777L57.6698 80.7838ZM109.72 109.153C110.635 102.339 110.168 98.5418 108.161 94.8149C107.706 99.9297 107.86 104.644 109.72 109.153ZM103.768 107.586C101.162 104.086 97.6793 103.719 94.7933 102.274C94.1388 101.948 93.8381 102.295 93.6608 102.789C93.425 103.436 93.8864 103.669 94.4071 103.872C97.3241 105.015 100.227 106.177 103.778 107.588L103.768 107.586Z" fill="#E5E1DD"/>
<path fill-rule="evenodd" clip-rule="evenodd" d="M109.698 124.195C104.672 122.697 99.627 121.264 94.6304 119.65C92.8882 119.089 91.1568 118.706 89.3713 118.454C88.3502 118.307 86.5136 118.837 86.7739 117.154C86.9851 115.732 88.7711 116.44 89.7423 116.699C93.603 117.723 97.4507 118.835 101.236 120.12C104.138 121.106 106.943 122.401 109.793 123.562C109.765 123.774 109.73 123.99 109.698 124.195Z" fill="#E5E1DD"/>
<path fill-rule="evenodd" clip-rule="evenodd" d="M139.773 120.064C138.888 114.854 139.438 109.844 140.932 104.917C140.55 109.966 140.156 115.014 139.773 120.064Z" fill="#E5E1DD"/>
</g>
</svg>
