<svg width="277" height="52" viewBox="0 0 277 52" fill="none" xmlns="http://www.w3.org/2000/svg">
<mask id="path-1-inside-1_1_28839" fill="white">
<path d="M261.928 0.613591C263.443 0.514503 265.861 0.39144 267.127 0.194905L270.399 0.0114801C270.535 0.00384658 270.672 0.009125 270.806 0.03297C271.723 0.195771 271.731 0.404579 272.052 0.692997C272.73 1.30069 272.551 1.91585 272.777 2.53377C273.47 4.43136 273.563 6.32334 274.724 8.2149C275.847 10.0423 276.398 11.8714 276.398 13.7156C276.398 17.444 277.179 21.1632 276.962 24.8938C276.879 26.3079 276.686 27.7305 276.27 29.142C275.939 30.2616 275.125 31.3624 274.628 32.477C274.182 33.4767 274.334 34.4949 274.386 35.4981C274.451 36.7351 275.066 37.9599 275.352 39.194C275.617 40.3356 275.529 41.4803 275.529 42.6229C275.529 44.1386 275.465 45.6527 275.755 47.1671C275.962 48.2524 276.966 49.3495 276.672 50.4372C276.523 50.9878 274.364 50.9032 272.535 51.0652C270.718 51.2262 269.305 51.2088 267.433 51.0977C265.52 50.9842 264.144 51.0819 262.202 51.1158C258.402 51.1819 254.35 51.1281 250.612 50.9858C248.247 50.8958 246.08 50.8779 243.659 50.8703C241.78 50.8645 239.957 50.7749 238.058 50.809C236.567 50.8357 235.622 51.1245 234.034 51.1302C232.942 51.1341 231.766 51.1542 230.686 51.1158C229.897 51.0877 229.262 50.973 228.48 50.9425C227.765 50.9146 227.581 51.0257 226.967 51.058C226.184 51.0993 225.206 51.0652 224.408 51.0652C221.928 51.0652 219.48 50.9065 217.02 50.9389C214.733 50.9691 212.772 51.1912 210.437 51.1952C206.95 51.2011 203.235 51.345 199.781 51.2276C197.521 51.1508 195.108 51.2812 192.892 51.1518C191.324 51.0603 190.036 50.9399 188.385 50.9353L188.186 50.9348C187.346 50.9326 186.535 50.9304 185.697 50.9028C180.7 50.738 175.639 50.8703 170.631 50.8703C168.577 50.8703 166.922 50.744 164.917 50.6898C162.633 50.6281 160.214 50.6754 157.915 50.6754C155.938 50.6754 153.953 50.6637 151.976 50.6754C150.332 50.6851 148.679 50.8424 147.002 50.8667C144.13 50.9082 141.269 50.8804 138.391 50.9353C136.109 50.9788 133.929 51.1608 131.63 51.2096C125.022 51.35 118.181 51.3749 111.542 51.3901C107.718 51.3988 103.891 51.3901 100.066 51.3901C95.3485 51.3901 90.822 51.1428 86.1107 51.1302C80.0025 51.1139 73.929 50.8703 67.7933 50.8703C62.2885 50.8703 57.0271 50.7651 51.5041 50.9353C47.2639 51.0659 42.8947 51.3131 38.6273 51.3251C32.5752 51.3421 26.2524 51.6282 20.3421 51.9098C19.0252 51.9726 16.7892 52.0673 15.4972 51.9279C14.2633 51.7946 13.9359 51.455 12.4551 51.455C10.8549 51.455 9.50082 51.5947 7.94818 51.6644C7.37829 51.6899 5.00634 52.0481 4.77725 51.9567C4.1463 51.7052 3.86343 51.2961 3.69882 51.0075C3.55792 50.7604 3.40176 50.3308 2.31454 50.1845C1.99969 50.1422 1.60159 50.185 1.31659 50.1484C0.673581 50.066 0.723264 49.1797 0.640561 49.0151C0.430203 48.5965 0.545926 48.1467 0.737149 47.7302C1.36651 46.3592 1.37945 44.9764 1.75119 43.6011C1.95746 42.8379 2.28457 42.0935 2.31454 41.3272C2.33792 40.7299 2.62686 40.1343 2.60428 39.5369C2.59408 39.2669 2.01938 39.0807 1.7673 38.8223C0.856687 37.8888 1.17282 36.8535 0.930265 35.8987C0.707731 35.0226 0.58917 34.1527 0.157682 33.2819C-0.348024 32.2613 0.519377 31.2513 0.57617 30.232C0.621336 29.4219 0.438048 28.5656 1.17175 27.7704C1.79431 27.0957 1.88196 26.4134 2.53988 25.7347C2.77118 25.4961 3.12781 25.1748 2.8779 24.9226C2.65332 24.696 2.13107 24.458 1.89606 24.2224C1.47717 23.8025 1.608 23.4016 1.42926 22.9808C1.15994 22.3466 1.15564 21.7135 1.15564 21.0714C1.15564 20.3239 0.576171 19.5962 0.576171 18.8625C0.576171 17.6717 1.15564 16.4894 1.15564 15.3037C1.15564 14.507 1.73511 13.7578 1.73511 12.9576L1.73511 10.4455C1.73511 9.72448 3.23459 9.00991 2.45941 8.27986C2.08502 7.92726 2.31454 7.52433 2.31454 7.16818C2.31454 6.77646 2.02481 6.38861 2.02481 6.00236C2.02481 5.05379 1.21838 4.05709 2.16968 3.11848C2.70917 2.5862 2.59616 2.03399 2.9101 1.49427C2.96735 1.39587 3.87323 0.500173 4.24609 0.469208C5.76797 0.342811 8.99445 0.408629 10.7167 0.469208C14.1382 0.589557 17.499 0.454771 20.9216 0.454771C22.819 0.454771 24.746 0.558506 26.6357 0.51613C28.1864 0.481358 29.3249 0.202571 30.9333 0.194897C34.4893 0.177932 37.9458 0.324834 41.4924 0.324835C43.6405 0.324835 45.6389 0.454772 47.802 0.454772C49.9344 0.454772 52.0165 0.474772 54.1439 0.505303C60.597 0.597914 67.0733 0.454772 73.5236 0.454773C76.7753 0.454773 80.084 0.512846 83.2778 0.36093L83.606 0.345291C85.8274 0.239362 88.1223 0.129931 90.3922 0.129931C92.1324 0.129931 93.6326 0.225375 95.3176 0.295962C96.6777 0.352938 98.0689 0.305156 99.4382 0.339274C101.603 0.393198 103.569 0.454774 105.764 0.454774L117.208 0.454774C128.284 0.454774 137.96 2.09796 149.336 1.71805C152.312 1.61866 155.185 1.36685 158.189 1.3138C161.297 1.25892 164.471 1.29937 167.589 1.29937C169.269 1.29937 170.912 1.20711 172.538 1.11579L172.74 1.10446C175.058 0.974511 177.645 0.974518 180.031 0.974524L180.08 0.974524C182.975 0.974524 185.854 1.10446 188.739 1.10446C189.775 1.10446 190.79 1.07527 191.797 1.02506C193.373 0.946542 194.184 0.610639 195.532 0.425902C197.379 0.172717 198.957 0.194903 201.069 0.194903C203.899 0.194903 206.497 0.560919 209.246 0.44034C212.052 0.317207 214.963 0.509455 217.809 0.519746C221.834 0.534303 225.905 0.701993 229.913 0.714652C233.079 0.724651 236.224 0.77962 239.377 0.77962C240.92 0.779621 242.274 0.649684 243.82 0.649684C245.823 0.649684 247.555 0.844589 249.518 0.844589C251.229 0.844589 252.862 0.870115 254.54 0.905949C255.506 0.92658 256.44 0.922592 257.341 0.84459C258.881 0.711152 260.399 0.71358 261.928 0.613591Z"/>
</mask>
<path d="M261.928 0.613591C263.443 0.514503 265.861 0.39144 267.127 0.194905L270.399 0.0114801C270.535 0.00384658 270.672 0.009125 270.806 0.03297C271.723 0.195771 271.731 0.404579 272.052 0.692997C272.73 1.30069 272.551 1.91585 272.777 2.53377C273.47 4.43136 273.563 6.32334 274.724 8.2149C275.847 10.0423 276.398 11.8714 276.398 13.7156C276.398 17.444 277.179 21.1632 276.962 24.8938C276.879 26.3079 276.686 27.7305 276.27 29.142C275.939 30.2616 275.125 31.3624 274.628 32.477C274.182 33.4767 274.334 34.4949 274.386 35.4981C274.451 36.7351 275.066 37.9599 275.352 39.194C275.617 40.3356 275.529 41.4803 275.529 42.6229C275.529 44.1386 275.465 45.6527 275.755 47.1671C275.962 48.2524 276.966 49.3495 276.672 50.4372C276.523 50.9878 274.364 50.9032 272.535 51.0652C270.718 51.2262 269.305 51.2088 267.433 51.0977C265.52 50.9842 264.144 51.0819 262.202 51.1158C258.402 51.1819 254.35 51.1281 250.612 50.9858C248.247 50.8958 246.08 50.8779 243.659 50.8703C241.78 50.8645 239.957 50.7749 238.058 50.809C236.567 50.8357 235.622 51.1245 234.034 51.1302C232.942 51.1341 231.766 51.1542 230.686 51.1158C229.897 51.0877 229.262 50.973 228.48 50.9425C227.765 50.9146 227.581 51.0257 226.967 51.058C226.184 51.0993 225.206 51.0652 224.408 51.0652C221.928 51.0652 219.48 50.9065 217.02 50.9389C214.733 50.9691 212.772 51.1912 210.437 51.1952C206.95 51.2011 203.235 51.345 199.781 51.2276C197.521 51.1508 195.108 51.2812 192.892 51.1518C191.324 51.0603 190.036 50.9399 188.385 50.9353L188.186 50.9348C187.346 50.9326 186.535 50.9304 185.697 50.9028C180.7 50.738 175.639 50.8703 170.631 50.8703C168.577 50.8703 166.922 50.744 164.917 50.6898C162.633 50.6281 160.214 50.6754 157.915 50.6754C155.938 50.6754 153.953 50.6637 151.976 50.6754C150.332 50.6851 148.679 50.8424 147.002 50.8667C144.13 50.9082 141.269 50.8804 138.391 50.9353C136.109 50.9788 133.929 51.1608 131.63 51.2096C125.022 51.35 118.181 51.3749 111.542 51.3901C107.718 51.3988 103.891 51.3901 100.066 51.3901C95.3485 51.3901 90.822 51.1428 86.1107 51.1302C80.0025 51.1139 73.929 50.8703 67.7933 50.8703C62.2885 50.8703 57.0271 50.7651 51.5041 50.9353C47.2639 51.0659 42.8947 51.3131 38.6273 51.3251C32.5752 51.3421 26.2524 51.6282 20.3421 51.9098C19.0252 51.9726 16.7892 52.0673 15.4972 51.9279C14.2633 51.7946 13.9359 51.455 12.4551 51.455C10.8549 51.455 9.50082 51.5947 7.94818 51.6644C7.37829 51.6899 5.00634 52.0481 4.77725 51.9567C4.1463 51.7052 3.86343 51.2961 3.69882 51.0075C3.55792 50.7604 3.40176 50.3308 2.31454 50.1845C1.99969 50.1422 1.60159 50.185 1.31659 50.1484C0.673581 50.066 0.723264 49.1797 0.640561 49.0151C0.430203 48.5965 0.545926 48.1467 0.737149 47.7302C1.36651 46.3592 1.37945 44.9764 1.75119 43.6011C1.95746 42.8379 2.28457 42.0935 2.31454 41.3272C2.33792 40.7299 2.62686 40.1343 2.60428 39.5369C2.59408 39.2669 2.01938 39.0807 1.7673 38.8223C0.856687 37.8888 1.17282 36.8535 0.930265 35.8987C0.707731 35.0226 0.58917 34.1527 0.157682 33.2819C-0.348024 32.2613 0.519377 31.2513 0.57617 30.232C0.621336 29.4219 0.438048 28.5656 1.17175 27.7704C1.79431 27.0957 1.88196 26.4134 2.53988 25.7347C2.77118 25.4961 3.12781 25.1748 2.8779 24.9226C2.65332 24.696 2.13107 24.458 1.89606 24.2224C1.47717 23.8025 1.608 23.4016 1.42926 22.9808C1.15994 22.3466 1.15564 21.7135 1.15564 21.0714C1.15564 20.3239 0.576171 19.5962 0.576171 18.8625C0.576171 17.6717 1.15564 16.4894 1.15564 15.3037C1.15564 14.507 1.73511 13.7578 1.73511 12.9576L1.73511 10.4455C1.73511 9.72448 3.23459 9.00991 2.45941 8.27986C2.08502 7.92726 2.31454 7.52433 2.31454 7.16818C2.31454 6.77646 2.02481 6.38861 2.02481 6.00236C2.02481 5.05379 1.21838 4.05709 2.16968 3.11848C2.70917 2.5862 2.59616 2.03399 2.9101 1.49427C2.96735 1.39587 3.87323 0.500173 4.24609 0.469208C5.76797 0.342811 8.99445 0.408629 10.7167 0.469208C14.1382 0.589557 17.499 0.454771 20.9216 0.454771C22.819 0.454771 24.746 0.558506 26.6357 0.51613C28.1864 0.481358 29.3249 0.202571 30.9333 0.194897C34.4893 0.177932 37.9458 0.324834 41.4924 0.324835C43.6405 0.324835 45.6389 0.454772 47.802 0.454772C49.9344 0.454772 52.0165 0.474772 54.1439 0.505303C60.597 0.597914 67.0733 0.454772 73.5236 0.454773C76.7753 0.454773 80.084 0.512846 83.2778 0.36093L83.606 0.345291C85.8274 0.239362 88.1223 0.129931 90.3922 0.129931C92.1324 0.129931 93.6326 0.225375 95.3176 0.295962C96.6777 0.352938 98.0689 0.305156 99.4382 0.339274C101.603 0.393198 103.569 0.454774 105.764 0.454774L117.208 0.454774C128.284 0.454774 137.96 2.09796 149.336 1.71805C152.312 1.61866 155.185 1.36685 158.189 1.3138C161.297 1.25892 164.471 1.29937 167.589 1.29937C169.269 1.29937 170.912 1.20711 172.538 1.11579L172.74 1.10446C175.058 0.974511 177.645 0.974518 180.031 0.974524L180.08 0.974524C182.975 0.974524 185.854 1.10446 188.739 1.10446C189.775 1.10446 190.79 1.07527 191.797 1.02506C193.373 0.946542 194.184 0.610639 195.532 0.425902C197.379 0.172717 198.957 0.194903 201.069 0.194903C203.899 0.194903 206.497 0.560919 209.246 0.44034C212.052 0.317207 214.963 0.509455 217.809 0.519746C221.834 0.534303 225.905 0.701993 229.913 0.714652C233.079 0.724651 236.224 0.77962 239.377 0.77962C240.92 0.779621 242.274 0.649684 243.82 0.649684C245.823 0.649684 247.555 0.844589 249.518 0.844589C251.229 0.844589 252.862 0.870115 254.54 0.905949C255.506 0.92658 256.44 0.922592 257.341 0.84459C258.881 0.711152 260.399 0.71358 261.928 0.613591Z" fill="#DBD6C2" stroke="#191411" stroke-width="3" mask="url(#path-1-inside-1_1_28839)"/>
</svg>
