<svg width="277" height="64" viewBox="0 0 277 64" fill="none" xmlns="http://www.w3.org/2000/svg">
<path d="M261.928 0.755188C263.443 0.633234 265.861 0.481773 267.127 0.239883L270.352 0.0173571C270.519 0.00583112 270.688 0.0134162 270.852 0.0506528C271.724 0.24955 271.736 0.503865 272.052 0.852919C272.73 1.60085 272.551 2.35797 272.777 3.11849C273.47 5.45399 273.563 7.78258 274.724 10.1106C275.847 12.3597 276.398 14.6109 276.398 16.8807C276.398 21.4695 277.179 26.047 276.962 30.6385C276.879 32.3789 276.686 34.1299 276.27 35.867C275.939 37.245 275.125 38.5998 274.628 39.9717C274.182 41.2021 274.334 42.4552 274.386 43.6899C274.451 45.2124 275.066 46.7198 275.352 48.2388C275.617 49.6438 275.529 51.0527 275.529 52.459C275.529 54.3244 275.465 56.1879 275.755 58.0518C275.962 59.3875 276.966 60.7378 276.672 62.0765C276.523 62.7543 274.364 62.6501 272.535 62.8495C270.718 63.0476 269.305 63.0262 267.433 62.8895C265.52 62.7497 264.144 62.87 262.202 62.9117C258.402 62.9931 254.35 62.9269 250.612 62.7518C248.247 62.6409 246.08 62.6189 243.659 62.6096C241.78 62.6024 239.957 62.4922 238.058 62.5341C236.567 62.567 235.622 62.9225 234.034 62.9295C232.942 62.9342 231.766 62.959 230.686 62.9117C229.897 62.8772 229.262 62.7359 228.48 62.6985C227.765 62.6641 227.581 62.8008 226.967 62.8406C226.184 62.8915 225.206 62.8495 224.408 62.8495C221.928 62.8495 219.48 62.6541 217.02 62.694C214.733 62.7311 212.772 63.0045 210.437 63.0094C206.95 63.0168 203.235 63.1938 199.781 63.0494C197.521 62.9549 195.108 63.1154 192.892 62.9561C191.324 62.8434 190.036 62.6953 188.385 62.6896L188.186 62.6889C187.346 62.6862 186.535 62.6836 185.697 62.6496C180.7 62.4468 175.639 62.6096 170.631 62.6096C168.577 62.6096 166.922 62.4542 164.917 62.3875C162.633 62.3116 160.214 62.3697 157.915 62.3697C155.938 62.3697 153.953 62.3554 151.976 62.3697C150.332 62.3817 148.679 62.5753 147.002 62.6052C144.13 62.6563 141.269 62.622 138.391 62.6896C136.109 62.7432 133.929 62.9671 131.63 63.0272C125.022 63.2 118.181 63.2306 111.542 63.2493C107.718 63.2601 103.891 63.2493 100.066 63.2493C95.3485 63.2493 90.822 62.9449 86.1107 62.9295C80.0025 62.9094 73.929 62.6096 67.7933 62.6096C62.2885 62.6096 57.0271 62.4801 51.5041 62.6896C47.2639 62.8504 42.8947 63.1546 38.6273 63.1693C32.5752 63.1902 26.2524 63.5424 20.3421 63.889C19.0252 63.9662 16.7892 64.0829 15.4972 63.9112C14.2633 63.7472 13.9359 63.3293 12.4551 63.3293C10.8549 63.3293 9.50082 63.5012 7.94818 63.5869C7.37829 63.6184 5.00634 64.0591 4.77725 63.9467C4.1463 63.6372 3.86343 63.1336 3.69882 62.7784C3.55792 62.4744 3.40176 61.9456 2.31454 61.7656C1.99969 61.7134 1.60159 61.7661 1.31659 61.7211C0.673581 61.6197 0.723264 60.5289 0.640561 60.3263C0.430204 59.811 0.545926 59.2575 0.73715 58.7448C1.36651 57.0575 1.37945 55.3556 1.75119 53.6628C1.95746 52.7236 2.28457 51.8073 2.31454 50.8642C2.33792 50.1291 2.62686 49.396 2.60428 48.6608C2.59408 48.3285 2.01938 48.0993 1.7673 47.7812C0.856687 46.6324 1.17282 45.3582 0.930265 44.183C0.707731 43.1047 0.589171 42.0341 0.157683 40.9623C-0.348024 39.7062 0.519377 38.4631 0.57617 37.2086C0.621336 36.2115 0.438048 35.1576 1.17175 34.179C1.79431 33.3485 1.88196 32.5088 2.53989 31.6735C2.77118 31.3798 3.12781 30.9844 2.8779 30.674C2.65332 30.3951 2.13107 30.1022 1.89606 29.8122C1.47717 29.2954 1.608 28.802 1.42926 28.284C1.15994 27.5036 1.15564 26.7243 1.15564 25.9341C1.15564 25.0141 0.576171 24.1184 0.576171 23.2154C0.576171 21.7498 1.15564 20.2947 1.15564 18.8353C1.15564 17.8548 1.73511 16.9327 1.73511 15.9478L1.73511 12.856C1.73511 11.9686 3.23459 11.0891 2.45941 10.1906C2.08502 9.75662 2.31454 9.26071 2.31454 8.82237C2.31454 8.34026 2.02481 7.8629 2.02481 7.38751C2.02481 6.22005 1.21838 4.99333 2.16968 3.83813C2.70917 3.18302 2.59616 2.50337 2.9101 1.8391C2.96735 1.71799 3.87323 0.615597 4.24609 0.577486C5.76797 0.421921 8.99445 0.502927 10.7167 0.577486C14.1382 0.725608 17.499 0.559717 20.9216 0.559717C22.819 0.559717 24.746 0.687391 26.6357 0.635236C28.1864 0.59244 29.3249 0.249317 30.9333 0.239873C34.4893 0.218992 37.9458 0.399796 41.4924 0.399796C43.6405 0.399796 45.6389 0.559718 47.802 0.559718C49.9344 0.559718 52.0165 0.584334 54.1439 0.621911C60.597 0.735893 67.0733 0.559719 73.5236 0.559719C76.7753 0.55972 80.084 0.631194 83.2778 0.44422L83.606 0.424973C85.8274 0.294599 88.1223 0.159914 90.3922 0.159914C92.1324 0.159914 93.6326 0.277384 95.3176 0.36426C96.6777 0.434385 98.0689 0.375576 99.4382 0.417567C101.603 0.483936 103.569 0.559721 105.764 0.559721L117.208 0.559721C128.284 0.559722 137.96 2.58211 149.336 2.11452C152.312 1.9922 155.185 1.68228 158.189 1.61699C161.297 1.54945 164.471 1.59922 167.589 1.59922C169.269 1.59922 170.912 1.48567 172.538 1.37328L172.74 1.35934C175.058 1.1994 177.645 1.19941 180.031 1.19941L180.08 1.19941C182.975 1.19941 185.854 1.35934 188.739 1.35934C189.775 1.35934 190.79 1.32341 191.797 1.26161C193.373 1.16497 194.184 0.751555 195.532 0.524186C197.379 0.212574 198.957 0.23988 201.069 0.23988C203.899 0.23988 206.497 0.690361 209.246 0.541956C212.052 0.390409 214.963 0.627021 217.809 0.639687C221.834 0.657604 225.905 0.863991 229.913 0.879571C233.079 0.891879 236.224 0.959533 239.377 0.959533C240.92 0.959533 242.274 0.79961 243.82 0.79961C245.823 0.799611 247.555 1.03949 249.518 1.03949C251.229 1.03949 252.862 1.07091 254.54 1.11501C255.506 1.14041 256.44 1.1355 257.341 1.03949C258.881 0.875264 260.399 0.878252 261.928 0.755188Z" fill="#C54B38"/>
</svg>
