<svg width="471" height="86" viewBox="0 0 471 86" fill="none" xmlns="http://www.w3.org/2000/svg">
<path d="M37.4856 50.1285C37.4189 49.9752 37.3077 49.8438 37.152 49.7781L36.8183 49.6467C36.5069 49.5372 36.1732 49.6467 36.0397 49.9314C33.6817 54.4646 30.2115 57.1802 25.9627 57.7933C17.821 59.0416 11.0808 54.7931 8.56712 46.7559C7.05446 41.8285 7.47711 36.6383 9.7461 32.8277C11.3477 30.1341 13.7724 28.3602 16.7533 27.7251C23.1821 26.4111 28.6544 30.9882 31.7019 35.7404C31.8132 35.9156 32.0134 36.0251 32.2136 36.0251H32.5473C32.8364 36.0251 33.0589 35.828 33.1479 35.5652L34.5938 30.1341C34.6605 29.8932 34.5715 29.6304 34.3269 29.4771C30.2338 26.8272 26.986 25.3818 21.536 25.3818C11.3255 25.3818 2.69443 33.4628 2.69443 43.0111C2.69443 52.5593 11.1253 60.6403 21.0911 60.6403C28.6766 60.6403 34.1711 57.2459 37.4412 50.5884C37.5301 50.4351 37.5524 50.2818 37.4856 50.1285Z" fill="#FFFEF5"/>
<path d="M75.7249 59.7425V59.414C75.7249 59.2826 75.6581 59.1293 75.5914 59.0198C73.7673 56.9174 72.5661 55.0779 70.6307 50.3913L61.2211 26.236C61.1321 26.017 60.9097 25.8418 60.6427 25.8418H56.8388C56.6386 25.8418 56.4384 25.9513 56.3272 26.1046C56.216 26.2798 56.1715 26.4769 56.2605 26.674L57.7731 30.5502L50.6102 50.4132C48.9418 55.056 47.5404 57.0707 45.6718 58.9979C45.5606 59.1074 45.4939 59.2607 45.4939 59.414V59.7425C45.4939 60.071 45.783 60.3557 46.1167 60.3557H51.8115C52.1451 60.3557 52.4343 60.071 52.4343 59.7425V59.414C52.4343 59.2607 52.3676 59.1074 52.2564 58.9979C50.5657 57.2021 50.5435 55.2969 52.1451 50.8074L53.3019 47.5882H64.4244L66.6489 53.2383C68.0726 56.8736 68.1838 58.0562 67.2717 58.976C67.1605 59.0855 67.0938 59.2388 67.0938 59.3921V59.7206C67.0938 60.0491 67.383 60.3338 67.7167 60.3338H75.1687C75.4357 60.3557 75.7249 60.071 75.7249 59.7425ZM53.8358 46.0114L58.5962 32.8059L63.757 46.0114H53.8358Z" fill="#FFFEF5"/>
<path d="M116.589 56.6109C116.589 58.2753 116.166 58.6695 115.788 58.8885C115.588 58.998 115.477 59.1951 115.477 59.4141V59.7426C115.477 60.0711 115.766 60.3557 116.1 60.3557H122.083C122.417 60.3557 122.706 60.0711 122.706 59.7426V59.4141C122.706 59.1951 122.595 58.998 122.395 58.8885C121.972 58.6695 121.594 58.3191 121.594 56.6109V29.6524C121.594 27.9442 121.95 27.6157 122.395 27.3748C122.595 27.2653 122.706 27.0683 122.706 26.8493V26.477C122.706 26.1485 122.417 25.8638 122.083 25.8638H117.59C117.368 25.8638 117.167 25.9733 117.056 26.1704L105.244 46.3838L91.9192 26.1485C91.808 25.9733 91.6078 25.8638 91.4076 25.8638H87.0698C86.8474 25.8638 86.6249 25.9952 86.5137 26.1923C86.4025 26.3894 86.4247 26.6522 86.5582 26.8274L88.6047 29.6086V54.0486C88.6047 55.8225 87.2923 58.1658 85.8908 58.8885C85.6906 58.998 85.5571 59.1951 85.5571 59.436V59.7645C85.5571 60.093 85.8463 60.3776 86.18 60.3776H92.6533C92.987 60.3776 93.2762 60.093 93.2762 59.7645V59.436C93.2762 59.217 93.1427 58.998 92.9425 58.8885C91.5188 58.1658 90.2286 55.8663 90.2286 54.0486V31.93L102.908 50.9608C103.019 51.136 103.22 51.2455 103.42 51.2455H103.843C104.065 51.2455 104.265 51.136 104.376 50.9389L116.567 30.178L116.589 56.6109Z" fill="#FFFEF5"/>
<path d="M140.591 60.3557C140.925 60.3557 141.214 60.071 141.214 59.7425V59.414C141.214 59.195 141.103 58.9979 140.903 58.8884C140.525 58.6694 140.146 58.2971 140.146 56.6108V46.5151H141.904C152.515 46.5151 158.365 42.8578 158.365 36.2003C158.365 29.5209 152.515 25.8418 141.904 25.8418H134.607C134.274 25.8418 133.985 26.1265 133.985 26.455V26.8273C133.985 27.0463 134.096 27.2434 134.296 27.3529C134.719 27.5938 135.097 27.9223 135.097 29.6304V56.5889C135.097 58.2971 134.719 58.6475 134.296 58.8665C134.096 58.976 133.985 59.1731 133.985 59.3921V59.7206C133.985 60.0491 134.274 60.3338 134.607 60.3338L140.591 60.3557ZM141.882 44.9164H140.124V27.4405H141.882C149.556 27.4405 153.293 30.3093 153.293 36.2003C153.293 41.9819 149.467 44.9164 141.882 44.9164Z" fill="#FFFEF5"/>
<path d="M204.991 43.0111C204.991 33.2876 196.849 25.3818 186.839 25.3818C176.828 25.3818 168.687 33.2876 168.687 43.0111C168.687 52.7345 176.828 60.6403 186.839 60.6403C196.849 60.6403 204.991 52.7345 204.991 43.0111ZM175.271 33.2438C176.74 30.5064 179.097 28.6011 182.078 27.7032C183.257 27.3528 184.414 27.1776 185.526 27.1776C192 27.1776 197.116 32.8058 199.14 39.2881C201.498 46.9092 199.652 55.8881 191.577 58.3189C187.929 59.392 184.347 58.7788 181.144 56.4575C178.141 54.2894 175.783 50.8074 174.493 46.6683C173.025 41.8285 173.292 36.923 175.271 33.2438Z" fill="#FFFEF5"/>
<path d="M264.34 43.2957C264.007 43.2957 263.718 43.5804 263.718 43.9089V44.2812C263.718 44.6097 263.985 44.8725 264.296 44.8944C266.298 45.0039 267.433 46.5587 267.433 49.1429V55.231C265.764 56.9392 263.695 57.9685 261.315 58.297C253.173 59.3044 247.056 55.1215 244.453 46.7339C242.918 41.8065 243.363 36.6163 245.632 32.8057C247.234 30.1121 249.659 28.3382 252.64 27.7031C259.046 26.3672 264.563 30.9662 267.588 35.7184C267.699 35.8936 267.9 36.0031 268.1 36.0031H268.434C268.723 36.0031 268.945 35.806 269.034 35.5432L270.48 30.1121C270.547 29.8712 270.458 29.6084 270.213 29.4551C266.12 26.8052 262.872 25.3599 257.422 25.3599C247.212 25.3599 238.581 33.4408 238.581 42.9891C238.581 52.7125 246.589 60.6183 256.443 60.6183C266.009 60.6183 270.969 55.4938 272.415 52.4717C272.438 52.3841 272.482 52.2965 272.482 52.2089V47.0624C272.482 45.3543 272.838 45.0258 273.238 44.7849C273.416 44.6754 273.528 44.4783 273.528 44.2593V43.887C273.528 43.5585 273.238 43.2738 272.905 43.2738L264.34 43.2957Z" fill="#FFFEF5"/>
<path d="M305.271 50.9389L301.334 44.1281C306.517 42.7265 309.453 39.5949 309.453 35.4558C309.453 29.6305 303.625 25.8638 294.594 25.8638H285.228C284.895 25.8638 284.606 26.1485 284.606 26.477V26.8493C284.606 27.0683 284.717 27.2653 284.895 27.3748C285.295 27.6157 285.651 27.9661 285.651 29.6524V56.6109C285.651 58.2972 285.273 58.6695 284.895 58.8885C284.717 58.998 284.606 59.1951 284.606 59.4141V59.7426C284.606 60.0711 284.895 60.3557 285.228 60.3557H291.168C291.502 60.3557 291.791 60.0711 291.791 59.7426V59.4141C291.791 59.1951 291.68 58.998 291.479 58.8885C291.101 58.6695 290.723 58.2972 290.723 56.6109V45.0041H294.594C295.194 45.0041 295.817 44.9822 296.418 44.9384L301.401 53.5012L301.49 53.6325C303.314 56.808 304.026 58.122 303.158 58.998C303.047 59.1075 302.98 59.2608 302.98 59.4141V59.7426C302.98 60.0711 303.269 60.3557 303.603 60.3557H311.033C311.366 60.3557 311.656 60.0711 311.656 59.7426V59.4141C311.656 59.2389 311.589 59.0637 311.455 58.9542C309.631 57.3774 308.141 55.8882 305.271 50.9389ZM290.723 27.4405H294.594C303.403 27.4405 304.404 31.9957 304.404 35.4339C304.404 40.7774 301.2 43.3835 294.594 43.3835H290.723V27.4405Z" fill="#FFFEF5"/>
<path d="M345.201 50.3913L335.791 26.236C335.702 26.017 335.48 25.8418 335.213 25.8418H331.409C331.209 25.8418 331.009 25.9513 330.898 26.1046C330.786 26.2798 330.764 26.4769 330.831 26.674L332.343 30.5502L325.181 50.4132C323.512 55.056 322.111 57.0707 320.242 58.9979C320.131 59.1074 320.064 59.2607 320.064 59.414V59.7425C320.064 60.071 320.353 60.3557 320.687 60.3557H326.382C326.715 60.3557 327.005 60.071 327.005 59.7425V59.414C327.005 59.2607 326.938 59.1074 326.827 58.9979C325.136 57.2021 325.114 55.2969 326.715 50.8074L327.872 47.5882H338.995L341.219 53.2383C342.643 56.8736 342.754 58.0562 341.842 58.976C341.731 59.0855 341.664 59.2388 341.664 59.3921V59.7206C341.664 60.0491 341.953 60.3338 342.287 60.3338H349.739C350.073 60.3338 350.362 60.0491 350.362 59.7206V59.3921C350.362 59.2607 350.295 59.1074 350.228 58.9979C348.36 56.9174 347.136 55.0779 345.201 50.3913ZM328.428 46.0114L333.189 32.8059L338.35 46.0114H328.428Z" fill="#FFFEF5"/>
<path d="M384.486 25.8417C384.152 25.8417 383.863 26.1264 383.863 26.4549V26.8272C383.863 27.0462 383.996 27.2652 384.197 27.3747C385.62 28.0974 386.911 30.375 386.911 32.1707V52.0118L366.134 26.0826C366.022 25.9293 365.844 25.8636 365.644 25.8636H360.773C360.55 25.8636 360.328 25.995 360.216 26.214C360.105 26.433 360.127 26.6739 360.283 26.8491L363.242 30.5721V54.0485C363.242 55.8662 361.929 58.1656 360.506 58.8883C360.305 58.9978 360.15 59.1949 360.15 59.4358V59.7643C360.15 60.0928 360.439 60.3775 360.773 60.3775H367.29C367.624 60.3775 367.913 60.0928 367.913 59.7643V59.4358C367.913 59.2168 367.78 58.9978 367.557 58.8883C366.111 58.1875 364.821 55.8881 364.821 54.0485V32.543L386.71 60.1147C386.822 60.268 386.999 60.3556 387.2 60.3556H387.912C388.245 60.3556 388.534 60.0709 388.534 59.7424V32.1488C388.534 30.3531 389.825 28.0755 391.248 27.3528C391.449 27.2433 391.582 27.0462 391.582 26.8053V26.433C391.582 26.1045 391.293 25.8198 390.959 25.8198H384.486V25.8417Z" fill="#FFFEF5"/>
<path d="M415.584 25.8418H403.505C403.172 25.8418 402.882 26.1265 402.882 26.455V26.8273C402.882 27.0463 402.994 27.2434 403.172 27.3529C403.55 27.5719 403.928 27.9442 403.928 29.6304V56.5889C403.928 58.2752 403.55 58.6475 403.172 58.8665C402.994 58.976 402.882 59.1731 402.882 59.3921V59.7206C402.882 60.0491 403.172 60.3338 403.505 60.3338H415.584C426.974 60.3338 435.583 52.9098 435.583 43.0768C435.56 33.2658 426.974 25.8418 415.584 25.8418ZM409 27.4405H415.584C425.394 27.4405 430.511 35.3244 430.511 43.0987C430.511 50.895 425.372 58.8008 415.584 58.8008H409V27.4405Z" fill="#FFFEF5"/>
<path d="M468.016 53.4789L467.727 53.2818C467.46 53.1066 467.082 53.1723 466.881 53.4132C465.613 55.0338 462.01 58.7786 455.781 58.7786H452.489V41.8721L463.99 42.8137C464.101 42.8137 464.345 42.7699 464.457 42.6604C464.59 42.551 464.657 42.3758 464.657 42.2006V39.7697C464.657 39.5945 464.59 39.4412 464.457 39.3098C464.345 39.2003 464.19 39.1346 463.99 39.1565L452.489 40.142V27.3745H455.247C460.275 27.3745 463.077 29.7177 465.369 32.2581C465.591 32.5209 465.969 32.5209 466.214 32.3238L466.459 32.1267C466.637 31.9953 466.726 31.7544 466.681 31.5354L465.658 26.2576C465.613 25.9729 465.346 25.7539 465.057 25.7539H446.994C446.661 25.7539 446.371 26.0386 446.371 26.3671V26.7394C446.371 26.9584 446.483 27.1555 446.661 27.265C447.039 27.484 447.417 27.8563 447.417 29.5425V56.501C447.417 58.1873 447.039 58.5596 446.661 58.7786C446.483 58.8881 446.371 59.0852 446.371 59.3042V59.6327C446.371 59.9612 446.661 60.2459 446.994 60.2459H466.614C466.904 60.2459 467.171 60.0269 467.215 59.7422L468.283 53.9826C468.305 53.8731 468.216 53.6103 468.016 53.4789Z" fill="#FFFEF5"/>
</svg>
