<svg width="1920" height="620" viewBox="0 0 1920 620" fill="none" xmlns="http://www.w3.org/2000/svg">
<path d="M-444.307 16.7794C-462.772 14.0697 -492.242 10.7044 -507.671 5.32992L-550.045 3.40752e-06C-563.693 4.57793 -563.512 10.5209 -567.701 18.9508C-575.958 35.5689 -573.775 52.3911 -576.528 69.2889C-584.982 121.181 -586.108 172.919 -600.265 224.646C-613.943 274.618 -620.668 324.636 -620.668 375.068C-620.668 477.025 -630.184 578.732 -627.534 680.748C-626.529 719.419 -624.175 758.323 -619.098 796.921C-615.071 827.538 -605.147 857.64 -599.088 888.121C-593.655 915.459 -595.508 943.302 -596.146 970.735C-596.932 1004.56 -604.427 1038.06 -607.916 1071.81C-611.144 1103.02 -610.074 1134.33 -610.074 1165.57C-610.074 1207.02 -609.288 1248.42 -612.821 1289.84C-615.352 1319.52 -627.586 1349.52 -624.003 1379.26C-622.189 1394.32 -595.874 1392.01 -573.586 1396.44C-551.437 1400.84 -534.21 1400.36 -511.398 1397.33C-488.087 1394.22 -471.318 1396.89 -447.642 1397.82C-401.337 1399.63 -351.95 1398.16 -306.396 1394.27C-277.572 1391.8 -251.157 1391.31 -221.649 1391.11C-198.746 1390.95 -176.526 1388.5 -153.38 1389.43C-135.211 1390.16 -123.693 1398.06 -104.337 1398.21C-91.0383 1398.32 -76.7026 1398.87 -63.5322 1397.82C-53.9276 1397.05 -46.1766 1393.91 -36.6563 1393.08C-27.9329 1392.32 -25.6888 1395.36 -18.2159 1396.24C-8.66711 1397.37 3.25549 1396.44 12.9758 1396.44C43.2009 1396.44 73.044 1392.1 103.02 1392.98C130.896 1393.81 154.788 1399.88 183.255 1399.99C225.748 1400.15 271.033 1404.09 313.123 1400.88C340.671 1398.78 370.08 1402.34 397.085 1398.81C416.2 1396.3 431.89 1393.01 452.014 1392.88C463.121 1392.81 473.761 1392.81 484.775 1392C545.682 1387.49 607.357 1391.11 668.395 1391.11C693.435 1391.11 713.595 1387.65 738.037 1386.17C765.869 1384.48 795.351 1385.78 823.372 1385.78C847.476 1385.78 871.665 1385.46 895.761 1385.78C915.8 1386.04 935.936 1390.35 956.379 1391.01C991.378 1392.14 1026.25 1391.38 1061.33 1392.88C1089.14 1394.07 1115.71 1399.05 1143.73 1400.39C1224.27 1404.22 1307.64 1404.9 1388.55 1405.32C1435.16 1405.56 1481.81 1405.32 1528.42 1405.32C1585.92 1405.32 1641.09 1398.56 1698.51 1398.21C1772.95 1397.77 1846.97 1391.11 1921.75 1391.11C1988.84 1391.11 2052.97 1388.23 2120.28 1392.88C2171.96 1396.46 2225.21 1403.22 2277.22 1403.54C2350.98 1404.01 2428.04 1411.83 2500.08 1419.53C2516.13 1421.25 2543.38 1423.84 2559.12 1420.03C2574.16 1416.38 2578.15 1407.1 2596.2 1407.1C2615.7 1407.1 2632.21 1410.92 2651.13 1412.82C2658.08 1413.52 2686.98 1423.31 2689.78 1420.82C2697.47 1413.94 2700.91 1402.75 2702.92 1394.86C2704.64 1388.1 2706.54 1376.35 2719.79 1372.35C2723.63 1371.2 2728.48 1372.37 2731.95 1371.37C2739.79 1369.11 2739.18 1344.88 2740.19 1340.37C2742.76 1328.93 2741.35 1316.63 2739.02 1305.24C2731.35 1267.75 2731.19 1229.93 2726.66 1192.32C2724.14 1171.45 2720.16 1151.09 2719.79 1130.14C2719.51 1113.81 2715.98 1097.52 2716.26 1081.18C2716.38 1073.8 2723.39 1068.71 2726.46 1061.64C2737.56 1036.11 2733.71 1007.8 2736.66 981.691C2739.37 957.733 2740.82 933.945 2746.08 910.132C2752.24 882.222 2741.67 854.602 2740.98 826.729C2740.43 804.575 2742.66 781.159 2733.72 759.414C2726.13 740.962 2725.06 722.305 2717.04 703.746C2714.23 697.221 2709.88 688.434 2712.92 681.538C2715.66 675.34 2722.03 668.833 2724.89 662.39C2730 650.906 2728.4 639.945 2730.58 628.436C2733.86 611.095 2733.92 593.78 2733.92 576.223C2733.92 555.782 2740.98 535.882 2740.98 515.817C2740.98 483.254 2733.92 450.923 2733.92 418.497C2733.92 396.711 2726.85 376.224 2726.85 354.341L2726.85 285.644C2726.85 265.928 2708.58 246.387 2718.03 226.423C2722.59 216.78 2719.79 205.762 2719.79 196.023C2719.79 185.311 2723.32 174.704 2723.32 164.142C2723.32 138.202 2733.15 110.946 2721.56 85.2787C2714.98 70.723 2716.36 55.6221 2712.53 40.8628C2711.83 38.172 2700.79 13.6782 2696.25 12.8314C2677.7 9.37496 2638.38 11.1748 2617.39 12.8314C2575.69 16.1225 2534.73 12.4366 2493.01 12.4366C2469.89 12.4366 2446.4 15.2733 2423.37 14.1145C2404.47 13.1637 2390.6 5.53989 2370.99 5.33004C2327.65 4.8661 2285.53 8.88331 2242.3 8.88331C2216.12 8.88331 2191.77 12.4366 2165.4 12.4366C2139.41 12.4366 2114.04 12.9835 2088.11 13.8184C2009.46 16.351 1930.53 12.4366 1851.91 12.4366C1812.28 12.4366 1771.96 14.0246 1733.03 9.87031L1729.03 9.44263C1701.96 6.5459 1673.99 3.55338 1646.32 3.55337C1625.12 3.55337 1606.83 6.1634 1586.29 8.09367C1569.72 9.65176 1552.76 8.34509 1536.07 9.27809C1509.7 10.7527 1485.73 12.4366 1458.98 12.4366L1319.5 12.4365C1184.5 12.4365 1066.58 57.3714 927.933 46.9823C891.663 44.2643 856.654 37.3782 820.037 35.9276C782.157 34.4269 743.477 35.5328 705.472 35.5328C684.996 35.5328 664.974 33.0099 645.156 30.5127L642.696 30.2029C614.444 26.6493 582.915 26.6495 553.829 26.6496L553.24 26.6496C517.948 26.6496 482.857 30.2029 447.698 30.2029C435.07 30.2029 422.706 29.4045 410.425 28.0314C391.222 25.8844 381.343 16.6987 364.913 11.6469C342.395 4.72326 323.173 5.32995 297.429 5.32995C262.94 5.32995 231.269 15.3391 197.772 12.0417C163.566 8.67449 128.086 13.9317 93.4073 14.2131C44.3522 14.6112 -5.26526 19.1969 -54.1158 19.543C-92.7043 19.8165 -131.03 21.3197 -169.466 21.3197C-188.264 21.3197 -204.765 17.7664 -223.611 17.7664C-248.02 17.7664 -269.136 23.0963 -293.056 23.0963C-313.912 23.0963 -333.813 23.7943 -354.263 24.7742C-366.037 25.3384 -377.424 25.2294 -388.397 23.0963C-407.168 19.4473 -425.674 19.5137 -444.307 16.7794Z" fill="#191411"/>
</svg>
