<svg width="55" height="54" viewBox="0 0 55 54" fill="none" xmlns="http://www.w3.org/2000/svg">
<g opacity="0.1">
<mask id="path-1-inside-1_1_29384" fill="white">
<path d="M51.3118 53.3628C51.5503 53.4459 51.9036 53.5453 52.1608 53.6879C52.2751 53.7513 52.3898 53.8169 52.5151 53.8543C52.8208 53.9456 53.1716 53.8725 53.2332 53.5595C53.2498 53.4751 53.2641 53.3826 53.2855 53.2803C53.4176 52.6493 53.3827 52.0105 53.4267 51.3688C53.5619 49.3982 53.5799 47.4335 53.8064 45.4691C54.0251 43.5715 54.1327 41.672 54.1327 39.7569C54.1327 35.8851 54.2849 32.0228 54.2425 28.1488C54.2265 26.6803 54.1888 25.2029 54.1076 23.7372C54.0432 22.5745 53.8845 21.4314 53.7876 20.2739C53.7006 19.2357 53.7303 18.1784 53.7405 17.1366C53.7531 15.852 53.8729 14.5801 53.9288 13.2985C53.9804 12.1131 53.9633 10.9243 53.9633 9.73773C53.9633 8.1638 53.9507 6.59147 54.0072 5.01877C54.0477 3.89178 54.2434 2.75246 54.1861 1.62292C54.157 1.05109 53.7361 1.13897 53.3796 0.970734C53.0253 0.803547 52.7498 0.821632 52.3849 0.937C52.0121 1.0549 51.7438 0.953396 51.3651 0.918259C50.6245 0.849545 49.8345 0.905396 49.1059 1.05319C48.6448 1.14671 48.2223 1.16531 47.7503 1.17313C47.384 1.17921 47.0286 1.27224 46.6583 1.23686C46.3677 1.20909 46.1835 0.909138 45.8739 0.903267C45.6612 0.899235 45.4319 0.878319 45.2212 0.918259C45.0676 0.947388 44.9436 1.06654 44.7913 1.09818C44.6518 1.12716 44.6159 1.01183 44.4963 0.978234C44.3436 0.935307 44.1529 0.970734 43.9974 0.970734C43.514 0.970734 43.0366 1.13561 42.5571 1.10193C42.1113 1.07059 41.7291 0.839955 41.2738 0.835801C40.5941 0.829606 39.8697 0.680222 39.1965 0.802067C38.7559 0.881818 38.2855 0.746407 37.8535 0.88078C37.5477 0.975888 37.2968 1.10086 36.9749 1.10567C36.7972 1.10832 36.627 1.10845 36.4509 1.1394C35.4767 1.31054 34.4901 1.17313 33.5138 1.17313C33.1133 1.17313 32.7908 1.30428 32.3999 1.36055C31.9547 1.42462 31.4831 1.37554 31.0349 1.37554C30.6494 1.37554 30.2625 1.38766 29.877 1.37554C29.5565 1.36546 29.2344 1.20208 28.9074 1.17688C28.3476 1.13374 27.7898 1.16271 27.2287 1.10567C26.7839 1.06045 26.3589 0.871518 25.9108 0.82081C24.6225 0.67502 23.2889 0.649175 21.9947 0.633401C21.2492 0.624315 20.5031 0.633401 19.7574 0.633401C18.8378 0.633402 17.9554 0.890207 17.0369 0.903269C15.8462 0.920202 14.6622 1.17314 13.466 1.17314C12.3929 1.17314 11.3672 1.28238 10.2905 1.10567C9.46389 0.969996 8.61214 0.713289 7.78023 0.700869C6.60041 0.683253 5.3678 0.386122 4.21562 0.0936644C3.95888 0.0284942 3.52299 -0.0699403 3.27112 0.0749229C3.03056 0.213271 2.96675 0.565935 2.67807 0.565935C2.36611 0.565935 2.10214 0.420847 1.79947 0.34854C1.68837 0.321997 1.22597 -0.0499054 1.1813 0.0449356C1.0583 0.306136 1.00316 0.731001 0.971071 1.03071C0.943601 1.28723 0.91316 1.73339 0.701212 1.88529C0.639837 1.92928 0.562223 1.88486 0.506666 1.92278C0.381311 2.00834 0.390997 2.92877 0.374872 3.0997C0.333864 3.53444 0.356428 4.00151 0.393705 4.43406C0.516397 5.85774 0.518923 7.29369 0.591391 8.72198C0.631597 9.51446 0.695368 10.2876 0.701212 11.0833C0.705767 11.7035 0.762095 12.3221 0.757696 12.9424C0.755705 13.2228 0.643671 13.4162 0.594526 13.6846C0.41701 14.6539 0.47864 15.729 0.431357 16.7206C0.387968 17.6304 0.364859 18.5337 0.280741 19.438C0.182154 20.4979 0.351248 21.5468 0.362326 22.6052C0.371131 23.4465 0.335398 24.3357 0.478427 25.1615C0.599795 25.8622 0.616877 26.5707 0.745143 27.2755C0.790236 27.5232 0.859755 27.8569 0.811038 28.1188C0.767253 28.3542 0.665446 28.6013 0.619632 28.846C0.53797 29.282 0.563476 29.6983 0.528632 30.1353C0.476127 30.7939 0.475287 31.4514 0.475287 32.1181C0.475287 32.8944 0.362327 33.6501 0.362327 34.412C0.362327 35.6486 0.475288 36.8764 0.475288 38.1077C0.475288 38.935 0.588252 39.713 0.588252 40.544L0.588253 43.1528C0.588253 43.9015 0.880569 44.6435 0.729454 45.4017C0.656467 45.7678 0.701213 46.1863 0.701214 46.5561C0.701214 46.9629 0.644733 47.3657 0.644733 47.7668C0.644733 48.7518 0.487522 49.7869 0.672973 50.7616C0.778145 51.3143 0.756115 51.8878 0.817314 52.4483C0.828472 52.5504 1.00507 53.4806 1.07776 53.5127C1.37445 53.644 2.00343 53.5756 2.33918 53.5127C3.00618 53.3878 3.66137 53.5277 4.32858 53.5277C4.69847 53.5277 5.07412 53.42 5.44252 53.464C5.74482 53.5001 5.96678 53.7896 6.28033 53.7976C6.97355 53.8152 7.64738 53.6627 8.33877 53.6627C8.75755 53.6627 9.14711 53.5277 9.56881 53.5277C9.9845 53.5277 10.3904 53.507 10.8051 53.4753C12.0631 53.3791 13.3257 53.5277 14.5831 53.5277C15.217 53.5277 15.862 53.4674 16.4847 53.6252C16.9375 53.7399 17.4073 53.8651 17.8716 53.8651C18.2108 53.8651 18.5033 53.766 18.8318 53.6927C19.0969 53.6335 19.3681 53.6831 19.6351 53.6477C20.057 53.5917 20.4403 53.5277 20.8682 53.5277L23.0993 53.5277C25.2585 53.5277 27.1448 51.8213 29.3624 52.2159C29.9426 52.3191 30.5026 52.5806 31.0883 52.6357C31.6942 52.6927 32.3129 52.6507 32.9208 52.6507C33.2618 52.6507 33.595 52.7546 33.9249 52.8531C34.3768 52.988 34.8811 52.988 35.3463 52.988L35.3558 52.988C35.9203 52.988 36.4816 52.8531 37.0439 52.8531C37.2459 52.8531 37.4437 52.8834 37.6401 52.9355C37.9473 53.0171 38.1053 53.3659 38.3681 53.5577C38.7283 53.8206 39.0357 53.7976 39.4475 53.7976C39.9992 53.7976 40.5058 53.4175 41.0416 53.5427C41.5887 53.6706 42.1562 53.4709 42.7109 53.4603C43.4956 53.4451 44.2892 53.271 45.0706 53.2579C45.6878 53.2475 46.3008 53.1904 46.9156 53.1904C47.2163 53.1904 47.4802 53.3253 47.7817 53.3253C48.1721 53.3253 48.5099 53.1229 48.8925 53.1229C49.2261 53.1229 49.5444 53.0964 49.8715 53.0592C50.0598 53.0378 50.242 53.0419 50.4175 53.1229C50.7177 53.2615 51.0137 53.259 51.3118 53.3628Z"/>
</mask>
<path d="M51.3118 53.3628C51.5503 53.4459 51.9036 53.5453 52.1608 53.6879C52.2751 53.7513 52.3898 53.8169 52.5151 53.8543C52.8208 53.9456 53.1716 53.8725 53.2332 53.5595C53.2498 53.4751 53.2641 53.3826 53.2855 53.2803C53.4176 52.6493 53.3827 52.0105 53.4267 51.3688C53.5619 49.3982 53.5799 47.4335 53.8064 45.4691C54.0251 43.5715 54.1327 41.672 54.1327 39.7569C54.1327 35.8851 54.2849 32.0228 54.2425 28.1488C54.2265 26.6803 54.1888 25.2029 54.1076 23.7372C54.0432 22.5745 53.8845 21.4314 53.7876 20.2739C53.7006 19.2357 53.7303 18.1784 53.7405 17.1366C53.7531 15.852 53.8729 14.5801 53.9288 13.2985C53.9804 12.1131 53.9633 10.9243 53.9633 9.73773C53.9633 8.1638 53.9507 6.59147 54.0072 5.01877C54.0477 3.89178 54.2434 2.75246 54.1861 1.62292C54.157 1.05109 53.7361 1.13897 53.3796 0.970734C53.0253 0.803547 52.7498 0.821632 52.3849 0.937C52.0121 1.0549 51.7438 0.953396 51.3651 0.918259C50.6245 0.849545 49.8345 0.905396 49.1059 1.05319C48.6448 1.14671 48.2223 1.16531 47.7503 1.17313C47.384 1.17921 47.0286 1.27224 46.6583 1.23686C46.3677 1.20909 46.1835 0.909138 45.8739 0.903267C45.6612 0.899235 45.4319 0.878319 45.2212 0.918259C45.0676 0.947388 44.9436 1.06654 44.7913 1.09818C44.6518 1.12716 44.6159 1.01183 44.4963 0.978234C44.3436 0.935307 44.1529 0.970734 43.9974 0.970734C43.514 0.970734 43.0366 1.13561 42.5571 1.10193C42.1113 1.07059 41.7291 0.839955 41.2738 0.835801C40.5941 0.829606 39.8697 0.680222 39.1965 0.802067C38.7559 0.881818 38.2855 0.746407 37.8535 0.88078C37.5477 0.975888 37.2968 1.10086 36.9749 1.10567C36.7972 1.10832 36.627 1.10845 36.4509 1.1394C35.4767 1.31054 34.4901 1.17313 33.5138 1.17313C33.1133 1.17313 32.7908 1.30428 32.3999 1.36055C31.9547 1.42462 31.4831 1.37554 31.0349 1.37554C30.6494 1.37554 30.2625 1.38766 29.877 1.37554C29.5565 1.36546 29.2344 1.20208 28.9074 1.17688C28.3476 1.13374 27.7898 1.16271 27.2287 1.10567C26.7839 1.06045 26.3589 0.871518 25.9108 0.82081C24.6225 0.67502 23.2889 0.649175 21.9947 0.633401C21.2492 0.624315 20.5031 0.633401 19.7574 0.633401C18.8378 0.633402 17.9554 0.890207 17.0369 0.903269C15.8462 0.920202 14.6622 1.17314 13.466 1.17314C12.3929 1.17314 11.3672 1.28238 10.2905 1.10567C9.46389 0.969996 8.61214 0.713289 7.78023 0.700869C6.60041 0.683253 5.3678 0.386122 4.21562 0.0936644C3.95888 0.0284942 3.52299 -0.0699403 3.27112 0.0749229C3.03056 0.213271 2.96675 0.565935 2.67807 0.565935C2.36611 0.565935 2.10214 0.420847 1.79947 0.34854C1.68837 0.321997 1.22597 -0.0499054 1.1813 0.0449356C1.0583 0.306136 1.00316 0.731001 0.971071 1.03071C0.943601 1.28723 0.91316 1.73339 0.701212 1.88529C0.639837 1.92928 0.562223 1.88486 0.506666 1.92278C0.381311 2.00834 0.390997 2.92877 0.374872 3.0997C0.333864 3.53444 0.356428 4.00151 0.393705 4.43406C0.516397 5.85774 0.518923 7.29369 0.591391 8.72198C0.631597 9.51446 0.695368 10.2876 0.701212 11.0833C0.705767 11.7035 0.762095 12.3221 0.757696 12.9424C0.755705 13.2228 0.643671 13.4162 0.594526 13.6846C0.41701 14.6539 0.47864 15.729 0.431357 16.7206C0.387968 17.6304 0.364859 18.5337 0.280741 19.438C0.182154 20.4979 0.351248 21.5468 0.362326 22.6052C0.371131 23.4465 0.335398 24.3357 0.478427 25.1615C0.599795 25.8622 0.616877 26.5707 0.745143 27.2755C0.790236 27.5232 0.859755 27.8569 0.811038 28.1188C0.767253 28.3542 0.665446 28.6013 0.619632 28.846C0.53797 29.282 0.563476 29.6983 0.528632 30.1353C0.476127 30.7939 0.475287 31.4514 0.475287 32.1181C0.475287 32.8944 0.362327 33.6501 0.362327 34.412C0.362327 35.6486 0.475288 36.8764 0.475288 38.1077C0.475288 38.935 0.588252 39.713 0.588252 40.544L0.588253 43.1528C0.588253 43.9015 0.880569 44.6435 0.729454 45.4017C0.656467 45.7678 0.701213 46.1863 0.701214 46.5561C0.701214 46.9629 0.644733 47.3657 0.644733 47.7668C0.644733 48.7518 0.487522 49.7869 0.672973 50.7616C0.778145 51.3143 0.756115 51.8878 0.817314 52.4483C0.828472 52.5504 1.00507 53.4806 1.07776 53.5127C1.37445 53.644 2.00343 53.5756 2.33918 53.5127C3.00618 53.3878 3.66137 53.5277 4.32858 53.5277C4.69847 53.5277 5.07412 53.42 5.44252 53.464C5.74482 53.5001 5.96678 53.7896 6.28033 53.7976C6.97355 53.8152 7.64738 53.6627 8.33877 53.6627C8.75755 53.6627 9.14711 53.5277 9.56881 53.5277C9.9845 53.5277 10.3904 53.507 10.8051 53.4753C12.0631 53.3791 13.3257 53.5277 14.5831 53.5277C15.217 53.5277 15.862 53.4674 16.4847 53.6252C16.9375 53.7399 17.4073 53.8651 17.8716 53.8651C18.2108 53.8651 18.5033 53.766 18.8318 53.6927C19.0969 53.6335 19.3681 53.6831 19.6351 53.6477C20.057 53.5917 20.4403 53.5277 20.8682 53.5277L23.0993 53.5277C25.2585 53.5277 27.1448 51.8213 29.3624 52.2159C29.9426 52.3191 30.5026 52.5806 31.0883 52.6357C31.6942 52.6927 32.3129 52.6507 32.9208 52.6507C33.2618 52.6507 33.595 52.7546 33.9249 52.8531C34.3768 52.988 34.8811 52.988 35.3463 52.988L35.3558 52.988C35.9203 52.988 36.4816 52.8531 37.0439 52.8531C37.2459 52.8531 37.4437 52.8834 37.6401 52.9355C37.9473 53.0171 38.1053 53.3659 38.3681 53.5577C38.7283 53.8206 39.0357 53.7976 39.4475 53.7976C39.9992 53.7976 40.5058 53.4175 41.0416 53.5427C41.5887 53.6706 42.1562 53.4709 42.7109 53.4603C43.4956 53.4451 44.2892 53.271 45.0706 53.2579C45.6878 53.2475 46.3008 53.1904 46.9156 53.1904C47.2163 53.1904 47.4802 53.3253 47.7817 53.3253C48.1721 53.3253 48.5099 53.1229 48.8925 53.1229C49.2261 53.1229 49.5444 53.0964 49.8715 53.0592C50.0598 53.0378 50.242 53.0419 50.4175 53.1229C50.7177 53.2615 51.0137 53.259 51.3118 53.3628Z" stroke="#E5D9CF" stroke-width="3" mask="url(#path-1-inside-1_1_29384)"/>
</g>
<path fill-rule="evenodd" clip-rule="evenodd" d="M27.6677 16C24.7707 16 24.4072 16.0127 23.2694 16.0644C22.1338 16.1164 21.3587 16.2962 20.6805 16.56C19.9789 16.8325 19.3838 17.1969 18.7909 17.79C18.1976 18.3829 17.8331 18.978 17.5598 19.6794C17.2953 20.3578 17.1153 21.1332 17.0642 22.2683C17.0133 23.4061 17 23.7699 17 26.6668C17 29.5637 17.0129 29.9261 17.0644 31.0639C17.1167 32.1995 17.2964 32.9746 17.56 33.6529C17.8327 34.3544 18.1971 34.9495 18.7902 35.5424C19.3829 36.1358 19.978 36.5011 20.6791 36.7735C21.3578 37.0373 22.1332 37.2171 23.2685 37.2691C24.4063 37.3209 24.7696 37.3336 27.6663 37.3336C30.5635 37.3336 30.9259 37.3209 32.0637 37.2691C33.1993 37.2171 33.9753 37.0373 34.654 36.7735C35.3553 36.5011 35.9495 36.1358 36.5422 35.5424C37.1355 34.9495 37.5 34.3544 37.7733 33.6531C38.0356 32.9746 38.2156 32.1993 38.2689 31.0642C38.32 29.9264 38.3333 29.5637 38.3333 26.6668C38.3333 23.7699 38.32 23.4063 38.2689 22.2685C38.2156 21.1329 38.0356 20.3578 37.7733 19.6796C37.5 18.978 37.1355 18.3829 36.5422 17.79C35.9489 17.1967 35.3555 16.8322 34.6533 16.56C33.9733 16.2962 33.1977 16.1164 32.0622 16.0644C30.9244 16.0127 30.5621 16 27.6643 16H27.6677ZM26.7107 17.9222C26.9947 17.9218 27.3116 17.9222 27.6676 17.9222C30.5157 17.9222 30.8532 17.9324 31.9779 17.9835C33.0179 18.0311 33.5823 18.2049 33.9584 18.3509C34.4561 18.5442 34.811 18.7753 35.1841 19.1487C35.5575 19.522 35.7886 19.8776 35.9824 20.3753C36.1284 20.7509 36.3024 21.3154 36.3497 22.3554C36.4008 23.4798 36.4119 23.8176 36.4119 26.6643C36.4119 29.511 36.4008 29.8488 36.3497 30.9732C36.3022 32.0132 36.1284 32.5777 35.9824 32.9533C35.789 33.451 35.5575 33.8055 35.1841 34.1786C34.8108 34.5519 34.4564 34.7831 33.9584 34.9764C33.5828 35.1231 33.0179 35.2964 31.9779 35.344C30.8534 35.3951 30.5157 35.4062 27.6676 35.4062C24.8194 35.4062 24.4818 35.3951 23.3574 35.344C22.3173 35.2959 21.7529 35.1222 21.3767 34.9762C20.8789 34.7828 20.5233 34.5517 20.15 34.1784C19.7766 33.805 19.5455 33.4504 19.3518 32.9524C19.2058 32.5768 19.0318 32.0124 18.9844 30.9723C18.9333 29.8479 18.9231 29.5101 18.9231 26.6616C18.9231 23.8132 18.9333 23.4772 18.9844 22.3527C19.032 21.3127 19.2058 20.7482 19.3518 20.3722C19.5451 19.8745 19.7766 19.5189 20.15 19.1456C20.5233 18.7722 20.8789 18.5411 21.3767 18.3473C21.7527 18.2007 22.3173 18.0273 23.3574 17.9795C24.3414 17.9351 24.7227 17.9218 26.7107 17.9195V17.9222ZM33.3615 19.6933C32.6548 19.6933 32.0815 20.266 32.0815 20.9729C32.0815 21.6796 32.6548 22.2529 33.3615 22.2529C34.0681 22.2529 34.6415 21.6796 34.6415 20.9729C34.6415 20.2662 34.0681 19.6933 33.3615 19.6933ZM27.6677 21.1889C24.6425 21.1889 22.1898 23.6416 22.1898 26.6667C22.1898 29.6919 24.6425 32.1435 27.6677 32.1435C30.6928 32.1435 33.1446 29.6919 33.1446 26.6667C33.1446 23.6416 30.6928 21.1889 27.6677 21.1889ZM27.6676 23.1112C29.6312 23.1112 31.2232 24.703 31.2232 26.6667C31.2232 28.6303 29.6312 30.2223 27.6676 30.2223C25.7038 30.2223 24.1121 28.6303 24.1121 26.6667C24.1121 24.703 25.7038 23.1112 27.6676 23.1112Z" fill="#E5D9CF"/>
</svg>
