<svg width="54" height="54" viewBox="0 0 54 54" fill="none" xmlns="http://www.w3.org/2000/svg">
<g opacity="0.1">
<mask id="path-1-inside-1_1_29387" fill="white">
<path d="M51.0618 53.3628C51.3003 53.4459 51.6536 53.5453 51.9108 53.6879C52.0251 53.7513 52.1398 53.8169 52.2651 53.8543C52.5708 53.9456 52.9216 53.8725 52.9832 53.5595C52.9998 53.4751 53.0141 53.3826 53.0355 53.2803C53.1676 52.6493 53.1327 52.0105 53.1767 51.3688C53.3119 49.3982 53.3299 47.4335 53.5564 45.4691C53.7751 43.5715 53.8827 41.672 53.8827 39.7569C53.8827 35.8851 54.0349 32.0228 53.9925 28.1488C53.9765 26.6803 53.9388 25.2029 53.8576 23.7372C53.7932 22.5745 53.6345 21.4314 53.5376 20.2739C53.4506 19.2357 53.4803 18.1784 53.4905 17.1366C53.5031 15.852 53.6229 14.5801 53.6788 13.2985C53.7304 12.1131 53.7133 10.9243 53.7133 9.73773C53.7133 8.1638 53.7007 6.59147 53.7572 5.01877C53.7977 3.89178 53.9934 2.75246 53.9361 1.62292C53.907 1.05109 53.4861 1.13897 53.1296 0.970734C52.7753 0.803547 52.4998 0.821632 52.1349 0.937C51.7621 1.0549 51.4938 0.953396 51.1151 0.918259C50.3745 0.849545 49.5845 0.905396 48.8559 1.05319C48.3948 1.14671 47.9723 1.16531 47.5003 1.17313C47.134 1.17921 46.7786 1.27224 46.4083 1.23686C46.1177 1.20909 45.9335 0.909138 45.6239 0.903267C45.4112 0.899235 45.1819 0.878319 44.9712 0.918259C44.8176 0.947388 44.6936 1.06654 44.5413 1.09818C44.4018 1.12716 44.3659 1.01183 44.2463 0.978234C44.0936 0.935307 43.9029 0.970734 43.7474 0.970734C43.264 0.970734 42.7866 1.13561 42.3071 1.10193C41.8613 1.07059 41.4791 0.839955 41.0238 0.835801C40.3441 0.829606 39.6197 0.680222 38.9465 0.802067C38.5059 0.881818 38.0355 0.746407 37.6035 0.88078C37.2977 0.975888 37.0468 1.10086 36.7249 1.10567C36.5472 1.10832 36.377 1.10845 36.2009 1.1394C35.2267 1.31054 34.2401 1.17313 33.2638 1.17313C32.8633 1.17313 32.5408 1.30428 32.1499 1.36055C31.7047 1.42462 31.2331 1.37554 30.7849 1.37554C30.3994 1.37554 30.0125 1.38766 29.627 1.37554C29.3065 1.36546 28.9844 1.20208 28.6574 1.17688C28.0976 1.13374 27.5398 1.16271 26.9787 1.10567C26.5339 1.06045 26.1089 0.871518 25.6608 0.82081C24.3725 0.67502 23.0389 0.649175 21.7447 0.633401C20.9992 0.624315 20.2531 0.633401 19.5074 0.633401C18.5878 0.633402 17.7054 0.890207 16.7869 0.903269C15.5962 0.920202 14.4122 1.17314 13.216 1.17314C12.1429 1.17314 11.1172 1.28238 10.0405 1.10567C9.21389 0.969996 8.36214 0.713289 7.53023 0.700869C6.35041 0.683253 5.1178 0.386122 3.96562 0.0936644C3.70888 0.0284942 3.27299 -0.0699403 3.02112 0.0749229C2.78056 0.213271 2.71675 0.565935 2.42807 0.565935C2.11611 0.565935 1.85214 0.420847 1.54947 0.34854C1.43837 0.321997 0.975965 -0.0499054 0.931303 0.0449356C0.808301 0.306136 0.753164 0.731001 0.721071 1.03071C0.693601 1.28723 0.66316 1.73339 0.451212 1.88529C0.389837 1.92928 0.312223 1.88486 0.256666 1.92278C0.131311 2.00834 0.140997 2.92877 0.124872 3.0997C0.0838639 3.53444 0.106428 4.00151 0.143705 4.43406C0.266397 5.85774 0.268923 7.29369 0.341391 8.72198C0.381597 9.51446 0.445368 10.2876 0.451212 11.0833C0.455767 11.7035 0.512095 12.3221 0.507696 12.9424C0.505705 13.2228 0.393671 13.4162 0.344526 13.6846C0.16701 14.6539 0.22864 15.729 0.181357 16.7206C0.137968 17.6304 0.114859 18.5337 0.0307411 19.438C-0.0678459 20.4979 0.101248 21.5468 0.112326 22.6052C0.121131 23.4465 0.0853983 24.3357 0.228427 25.1615C0.349795 25.8622 0.366877 26.5707 0.495143 27.2755C0.540236 27.5232 0.609755 27.8569 0.561038 28.1188C0.517253 28.3542 0.415446 28.6013 0.369632 28.846C0.28797 29.282 0.313476 29.6983 0.278632 30.1353C0.226127 30.7939 0.225287 31.4514 0.225287 32.1181C0.225287 32.8944 0.112327 33.6501 0.112327 34.412C0.112327 35.6486 0.225288 36.8764 0.225288 38.1077C0.225288 38.935 0.338252 39.713 0.338252 40.544L0.338253 43.1528C0.338253 43.9015 0.630569 44.6435 0.479454 45.4017C0.406467 45.7678 0.451213 46.1863 0.451214 46.5561C0.451214 46.9629 0.394733 47.3657 0.394733 47.7668C0.394733 48.7518 0.237522 49.7869 0.422973 50.7616C0.528145 51.3143 0.506115 51.8878 0.567314 52.4483C0.578472 52.5504 0.755074 53.4806 0.827759 53.5127C1.12445 53.644 1.75343 53.5756 2.08918 53.5127C2.75618 53.3878 3.41137 53.5277 4.07858 53.5277C4.44847 53.5277 4.82412 53.42 5.19252 53.464C5.49482 53.5001 5.71678 53.7896 6.03033 53.7976C6.72355 53.8152 7.39738 53.6627 8.08877 53.6627C8.50755 53.6627 8.89711 53.5277 9.31881 53.5277C9.7345 53.5277 10.1404 53.507 10.5551 53.4753C11.8131 53.3791 13.0757 53.5277 14.3331 53.5277C14.967 53.5277 15.612 53.4674 16.2347 53.6252C16.6875 53.7399 17.1573 53.8651 17.6216 53.8651C17.9608 53.8651 18.2533 53.766 18.5818 53.6927C18.8469 53.6335 19.1181 53.6831 19.3851 53.6477C19.807 53.5917 20.1903 53.5277 20.6182 53.5277L22.8493 53.5277C25.0085 53.5277 26.8948 51.8213 29.1124 52.2159C29.6926 52.3191 30.2526 52.5806 30.8383 52.6357C31.4442 52.6927 32.0629 52.6507 32.6708 52.6507C33.0118 52.6507 33.345 52.7546 33.6749 52.8531C34.1268 52.988 34.6311 52.988 35.0963 52.988L35.1058 52.988C35.6703 52.988 36.2316 52.8531 36.7939 52.8531C36.9959 52.8531 37.1937 52.8834 37.3901 52.9355C37.6973 53.0171 37.8553 53.3659 38.1181 53.5577C38.4783 53.8206 38.7857 53.7976 39.1975 53.7976C39.7492 53.7976 40.2558 53.4175 40.7916 53.5427C41.3387 53.6706 41.9062 53.4709 42.4609 53.4603C43.2456 53.4451 44.0392 53.271 44.8206 53.2579C45.4378 53.2475 46.0508 53.1904 46.6656 53.1904C46.9663 53.1904 47.2302 53.3253 47.5317 53.3253C47.9221 53.3253 48.2599 53.1229 48.6425 53.1229C48.9761 53.1229 49.2944 53.0964 49.6215 53.0592C49.8098 53.0378 49.992 53.0419 50.1675 53.1229C50.4677 53.2615 50.7637 53.259 51.0618 53.3628Z"/>
</mask>
<path d="M51.0618 53.3628C51.3003 53.4459 51.6536 53.5453 51.9108 53.6879C52.0251 53.7513 52.1398 53.8169 52.2651 53.8543C52.5708 53.9456 52.9216 53.8725 52.9832 53.5595C52.9998 53.4751 53.0141 53.3826 53.0355 53.2803C53.1676 52.6493 53.1327 52.0105 53.1767 51.3688C53.3119 49.3982 53.3299 47.4335 53.5564 45.4691C53.7751 43.5715 53.8827 41.672 53.8827 39.7569C53.8827 35.8851 54.0349 32.0228 53.9925 28.1488C53.9765 26.6803 53.9388 25.2029 53.8576 23.7372C53.7932 22.5745 53.6345 21.4314 53.5376 20.2739C53.4506 19.2357 53.4803 18.1784 53.4905 17.1366C53.5031 15.852 53.6229 14.5801 53.6788 13.2985C53.7304 12.1131 53.7133 10.9243 53.7133 9.73773C53.7133 8.1638 53.7007 6.59147 53.7572 5.01877C53.7977 3.89178 53.9934 2.75246 53.9361 1.62292C53.907 1.05109 53.4861 1.13897 53.1296 0.970734C52.7753 0.803547 52.4998 0.821632 52.1349 0.937C51.7621 1.0549 51.4938 0.953396 51.1151 0.918259C50.3745 0.849545 49.5845 0.905396 48.8559 1.05319C48.3948 1.14671 47.9723 1.16531 47.5003 1.17313C47.134 1.17921 46.7786 1.27224 46.4083 1.23686C46.1177 1.20909 45.9335 0.909138 45.6239 0.903267C45.4112 0.899235 45.1819 0.878319 44.9712 0.918259C44.8176 0.947388 44.6936 1.06654 44.5413 1.09818C44.4018 1.12716 44.3659 1.01183 44.2463 0.978234C44.0936 0.935307 43.9029 0.970734 43.7474 0.970734C43.264 0.970734 42.7866 1.13561 42.3071 1.10193C41.8613 1.07059 41.4791 0.839955 41.0238 0.835801C40.3441 0.829606 39.6197 0.680222 38.9465 0.802067C38.5059 0.881818 38.0355 0.746407 37.6035 0.88078C37.2977 0.975888 37.0468 1.10086 36.7249 1.10567C36.5472 1.10832 36.377 1.10845 36.2009 1.1394C35.2267 1.31054 34.2401 1.17313 33.2638 1.17313C32.8633 1.17313 32.5408 1.30428 32.1499 1.36055C31.7047 1.42462 31.2331 1.37554 30.7849 1.37554C30.3994 1.37554 30.0125 1.38766 29.627 1.37554C29.3065 1.36546 28.9844 1.20208 28.6574 1.17688C28.0976 1.13374 27.5398 1.16271 26.9787 1.10567C26.5339 1.06045 26.1089 0.871518 25.6608 0.82081C24.3725 0.67502 23.0389 0.649175 21.7447 0.633401C20.9992 0.624315 20.2531 0.633401 19.5074 0.633401C18.5878 0.633402 17.7054 0.890207 16.7869 0.903269C15.5962 0.920202 14.4122 1.17314 13.216 1.17314C12.1429 1.17314 11.1172 1.28238 10.0405 1.10567C9.21389 0.969996 8.36214 0.713289 7.53023 0.700869C6.35041 0.683253 5.1178 0.386122 3.96562 0.0936644C3.70888 0.0284942 3.27299 -0.0699403 3.02112 0.0749229C2.78056 0.213271 2.71675 0.565935 2.42807 0.565935C2.11611 0.565935 1.85214 0.420847 1.54947 0.34854C1.43837 0.321997 0.975965 -0.0499054 0.931303 0.0449356C0.808301 0.306136 0.753164 0.731001 0.721071 1.03071C0.693601 1.28723 0.66316 1.73339 0.451212 1.88529C0.389837 1.92928 0.312223 1.88486 0.256666 1.92278C0.131311 2.00834 0.140997 2.92877 0.124872 3.0997C0.0838639 3.53444 0.106428 4.00151 0.143705 4.43406C0.266397 5.85774 0.268923 7.29369 0.341391 8.72198C0.381597 9.51446 0.445368 10.2876 0.451212 11.0833C0.455767 11.7035 0.512095 12.3221 0.507696 12.9424C0.505705 13.2228 0.393671 13.4162 0.344526 13.6846C0.16701 14.6539 0.22864 15.729 0.181357 16.7206C0.137968 17.6304 0.114859 18.5337 0.0307411 19.438C-0.0678459 20.4979 0.101248 21.5468 0.112326 22.6052C0.121131 23.4465 0.0853983 24.3357 0.228427 25.1615C0.349795 25.8622 0.366877 26.5707 0.495143 27.2755C0.540236 27.5232 0.609755 27.8569 0.561038 28.1188C0.517253 28.3542 0.415446 28.6013 0.369632 28.846C0.28797 29.282 0.313476 29.6983 0.278632 30.1353C0.226127 30.7939 0.225287 31.4514 0.225287 32.1181C0.225287 32.8944 0.112327 33.6501 0.112327 34.412C0.112327 35.6486 0.225288 36.8764 0.225288 38.1077C0.225288 38.935 0.338252 39.713 0.338252 40.544L0.338253 43.1528C0.338253 43.9015 0.630569 44.6435 0.479454 45.4017C0.406467 45.7678 0.451213 46.1863 0.451214 46.5561C0.451214 46.9629 0.394733 47.3657 0.394733 47.7668C0.394733 48.7518 0.237522 49.7869 0.422973 50.7616C0.528145 51.3143 0.506115 51.8878 0.567314 52.4483C0.578472 52.5504 0.755074 53.4806 0.827759 53.5127C1.12445 53.644 1.75343 53.5756 2.08918 53.5127C2.75618 53.3878 3.41137 53.5277 4.07858 53.5277C4.44847 53.5277 4.82412 53.42 5.19252 53.464C5.49482 53.5001 5.71678 53.7896 6.03033 53.7976C6.72355 53.8152 7.39738 53.6627 8.08877 53.6627C8.50755 53.6627 8.89711 53.5277 9.31881 53.5277C9.7345 53.5277 10.1404 53.507 10.5551 53.4753C11.8131 53.3791 13.0757 53.5277 14.3331 53.5277C14.967 53.5277 15.612 53.4674 16.2347 53.6252C16.6875 53.7399 17.1573 53.8651 17.6216 53.8651C17.9608 53.8651 18.2533 53.766 18.5818 53.6927C18.8469 53.6335 19.1181 53.6831 19.3851 53.6477C19.807 53.5917 20.1903 53.5277 20.6182 53.5277L22.8493 53.5277C25.0085 53.5277 26.8948 51.8213 29.1124 52.2159C29.6926 52.3191 30.2526 52.5806 30.8383 52.6357C31.4442 52.6927 32.0629 52.6507 32.6708 52.6507C33.0118 52.6507 33.345 52.7546 33.6749 52.8531C34.1268 52.988 34.6311 52.988 35.0963 52.988L35.1058 52.988C35.6703 52.988 36.2316 52.8531 36.7939 52.8531C36.9959 52.8531 37.1937 52.8834 37.3901 52.9355C37.6973 53.0171 37.8553 53.3659 38.1181 53.5577C38.4783 53.8206 38.7857 53.7976 39.1975 53.7976C39.7492 53.7976 40.2558 53.4175 40.7916 53.5427C41.3387 53.6706 41.9062 53.4709 42.4609 53.4603C43.2456 53.4451 44.0392 53.271 44.8206 53.2579C45.4378 53.2475 46.0508 53.1904 46.6656 53.1904C46.9663 53.1904 47.2302 53.3253 47.5317 53.3253C47.9221 53.3253 48.2599 53.1229 48.6425 53.1229C48.9761 53.1229 49.2944 53.0964 49.6215 53.0592C49.8098 53.0378 49.992 53.0419 50.1675 53.1229C50.4677 53.2615 50.7637 53.259 51.0618 53.3628Z" stroke="#E5D9CF" stroke-width="3" mask="url(#path-1-inside-1_1_29387)"/>
</g>
<path fill-rule="evenodd" clip-rule="evenodd" d="M35.0014 19.4578C35.9193 19.7097 36.6422 20.4518 36.8875 21.3943C37.3333 23.1025 37.3333 26.6667 37.3333 26.6667C37.3333 26.6667 37.3333 30.2307 36.8875 31.939C36.6422 32.8815 35.9193 33.6237 35.0014 33.8757C33.3378 34.3333 26.6667 34.3333 26.6667 34.3333C26.6667 34.3333 19.9955 34.3333 18.3319 33.8757C17.414 33.6237 16.691 32.8815 16.4457 31.939C16 30.2307 16 26.6667 16 26.6667C16 26.6667 16 23.1025 16.4457 21.3943C16.691 20.4518 17.414 19.7097 18.3319 19.4578C19.9955 19 26.6667 19 26.6667 19C26.6667 19 33.3378 19 35.0014 19.4578ZM24.6667 23.6666V30.3333L30 27.0001L24.6667 23.6666Z" fill="#E5D9CF"/>
</svg>
