<svg width="54" height="54" viewBox="0 0 54 54" fill="none" xmlns="http://www.w3.org/2000/svg">
<g opacity="0.1">
<mask id="path-1-inside-1_1_29375" fill="white">
<path d="M51.0618 0.637191C51.3003 0.554088 51.6536 0.454747 51.9108 0.312092C52.0251 0.248686 52.1398 0.18313 52.2651 0.145732C52.5708 0.0544297 52.9216 0.127467 52.9832 0.440534C52.9998 0.524871 53.0141 0.617448 53.0355 0.719651C53.1676 1.35072 53.1327 1.98953 53.1767 2.63122C53.3119 4.6018 53.3299 6.56655 53.5564 8.53086C53.7751 10.4285 53.8827 12.328 53.8827 14.2431C53.8827 18.1149 54.0349 21.9772 53.9925 25.8512C53.9765 27.3197 53.9388 28.7971 53.8576 30.2628C53.7932 31.4255 53.6345 32.5686 53.5376 33.7261C53.4506 34.7643 53.4803 35.8216 53.4905 36.8634C53.5031 38.148 53.6229 39.4199 53.6788 40.7015C53.7304 41.8869 53.7133 43.0757 53.7133 44.2623C53.7133 45.8362 53.7007 47.4085 53.7572 48.9812C53.7977 50.1082 53.9934 51.2475 53.9361 52.3771C53.907 52.9489 53.4861 52.861 53.1296 53.0293C52.7753 53.1965 52.4998 53.1784 52.1349 53.063C51.7621 52.9451 51.4938 53.0466 51.1151 53.0817C50.3745 53.1505 49.5845 53.0946 48.8559 52.9468C48.3948 52.8533 47.9723 52.8347 47.5003 52.8269C47.134 52.8208 46.7786 52.7278 46.4083 52.7631C46.1177 52.7909 45.9335 53.0909 45.6239 53.0967C45.4112 53.1008 45.1819 53.1217 44.9712 53.0817C44.8176 53.0526 44.6936 52.9335 44.5413 52.9018C44.4018 52.8728 44.3659 52.9882 44.2463 53.0218C44.0936 53.0647 43.9029 53.0293 43.7474 53.0293C43.264 53.0293 42.7866 52.8644 42.3071 52.8981C41.8613 52.9294 41.4791 53.16 41.0238 53.1642C40.3441 53.1704 39.6197 53.3198 38.9465 53.1979C38.5059 53.1182 38.0355 53.2536 37.6035 53.1192C37.2977 53.0241 37.0468 52.8991 36.7249 52.8943C36.5472 52.8917 36.377 52.8915 36.2009 52.8606C35.2267 52.6895 34.2401 52.8269 33.2638 52.8269C32.8633 52.8269 32.5408 52.6957 32.1499 52.6395C31.7047 52.5754 31.2331 52.6245 30.7849 52.6245C30.3994 52.6245 30.0125 52.6123 29.627 52.6245C29.3065 52.6345 28.9844 52.7979 28.6574 52.8231C28.0976 52.8663 27.5398 52.8373 26.9787 52.8943C26.5339 52.9396 26.1089 53.1285 25.6608 53.1792C24.3725 53.325 23.0389 53.3508 21.7447 53.3666C20.9992 53.3757 20.2531 53.3666 19.5074 53.3666C18.5878 53.3666 17.7054 53.1098 16.7869 53.0967C15.5962 53.0798 14.4122 52.8269 13.216 52.8269C12.1429 52.8269 11.1172 52.7176 10.0405 52.8943C9.21389 53.03 8.36214 53.2867 7.53023 53.2991C6.35041 53.3167 5.1178 53.6139 3.96562 53.9063C3.70888 53.9715 3.27299 54.0699 3.02112 53.9251C2.78056 53.7867 2.71675 53.4341 2.42807 53.4341C2.11611 53.4341 1.85214 53.5792 1.54947 53.6515C1.43837 53.678 0.975965 54.0499 0.931303 53.9551C0.808301 53.6939 0.753164 53.269 0.721071 52.9693C0.693601 52.7128 0.66316 52.2666 0.451212 52.1147C0.389837 52.0707 0.312223 52.1151 0.256666 52.0772C0.131311 51.9917 0.140997 51.0712 0.124872 50.9003C0.0838639 50.4656 0.106428 49.9985 0.143705 49.5659C0.266397 48.1423 0.268923 46.7063 0.341391 45.278C0.381597 44.4855 0.445368 43.7124 0.451212 42.9167C0.455767 42.2965 0.512095 41.6779 0.507696 41.0576C0.505705 40.7772 0.393671 40.5838 0.344526 40.3154C0.16701 39.3461 0.22864 38.271 0.181357 37.2794C0.137968 36.3696 0.114859 35.4663 0.0307411 34.562C-0.0678459 33.5021 0.101248 32.4532 0.112326 31.3948C0.121131 30.5535 0.0853983 29.6643 0.228427 28.8385C0.349795 28.1378 0.366877 27.4293 0.495143 26.7245C0.540236 26.4768 0.609755 26.1431 0.561038 25.8812C0.517253 25.6458 0.415446 25.3987 0.369632 25.154C0.28797 24.718 0.313476 24.3017 0.278632 23.8647C0.226127 23.2061 0.225287 22.5486 0.225287 21.8819C0.225287 21.1056 0.112327 20.3499 0.112327 19.588C0.112327 18.3514 0.225288 17.1236 0.225288 15.8923C0.225288 15.065 0.338252 14.287 0.338252 13.456L0.338253 10.8472C0.338253 10.0985 0.630569 9.35645 0.479454 8.59832C0.406467 8.23216 0.451213 7.81373 0.451214 7.44389C0.451214 7.0371 0.394733 6.63433 0.394733 6.23322C0.394733 5.24817 0.237522 4.21313 0.422973 3.23843C0.528145 2.68568 0.506115 2.11222 0.567314 1.55174C0.578472 1.44956 0.755074 0.519418 0.827759 0.487261C1.12445 0.356003 1.75343 0.424352 2.08918 0.487261C2.75618 0.612239 3.41137 0.472269 4.07858 0.472269C4.44847 0.472269 4.82412 0.579993 5.19252 0.535988C5.49482 0.499878 5.71678 0.210369 6.03033 0.2024C6.72355 0.184782 7.39738 0.337334 8.08877 0.337334C8.50755 0.337334 8.89711 0.472269 9.31881 0.472269C9.7345 0.472269 10.1404 0.493038 10.5551 0.524743C11.8131 0.620916 13.0757 0.472269 14.3331 0.472269C14.967 0.472269 15.612 0.532576 16.2347 0.374816C16.6875 0.260063 17.1573 0.134933 17.6216 0.134933C17.9608 0.134933 18.2533 0.234048 18.5818 0.307349C18.8469 0.366517 19.1181 0.316897 19.3851 0.352328C19.807 0.408326 20.1903 0.472269 20.6182 0.472269L22.8493 0.472269C25.0085 0.47227 26.8948 2.17866 29.1124 1.78413C29.6926 1.68092 30.2526 1.41942 30.8383 1.36434C31.4442 1.30735 32.0629 1.34934 32.6708 1.34934C33.0118 1.34934 33.345 1.24544 33.6749 1.14694C34.1268 1.012 34.6311 1.012 35.0963 1.01201L35.1058 1.01201C35.6703 1.01201 36.2316 1.14694 36.7939 1.14694C36.9959 1.14694 37.1937 1.11663 37.3901 1.06448C37.6973 0.982949 37.8553 0.634127 38.1181 0.442285C38.4783 0.179362 38.7857 0.202401 39.1975 0.202401C39.7492 0.202401 40.2558 0.582494 40.7916 0.457277C41.3387 0.329409 41.9062 0.529051 42.4609 0.539738C43.2456 0.554855 44.0392 0.728994 44.8206 0.742139C45.4378 0.752524 46.0508 0.809607 46.6656 0.809607C46.9663 0.809607 47.2302 0.674672 47.5317 0.674672C47.9221 0.674672 48.2599 0.877074 48.6425 0.877074C48.9761 0.877074 49.2944 0.903581 49.6215 0.940793C49.8098 0.962218 49.992 0.958076 50.1675 0.877074C50.4677 0.738504 50.7637 0.741025 51.0618 0.637191Z"/>
</mask>
<path d="M51.0618 0.637191C51.3003 0.554088 51.6536 0.454747 51.9108 0.312092C52.0251 0.248686 52.1398 0.18313 52.2651 0.145732C52.5708 0.0544297 52.9216 0.127467 52.9832 0.440534C52.9998 0.524871 53.0141 0.617448 53.0355 0.719651C53.1676 1.35072 53.1327 1.98953 53.1767 2.63122C53.3119 4.6018 53.3299 6.56655 53.5564 8.53086C53.7751 10.4285 53.8827 12.328 53.8827 14.2431C53.8827 18.1149 54.0349 21.9772 53.9925 25.8512C53.9765 27.3197 53.9388 28.7971 53.8576 30.2628C53.7932 31.4255 53.6345 32.5686 53.5376 33.7261C53.4506 34.7643 53.4803 35.8216 53.4905 36.8634C53.5031 38.148 53.6229 39.4199 53.6788 40.7015C53.7304 41.8869 53.7133 43.0757 53.7133 44.2623C53.7133 45.8362 53.7007 47.4085 53.7572 48.9812C53.7977 50.1082 53.9934 51.2475 53.9361 52.3771C53.907 52.9489 53.4861 52.861 53.1296 53.0293C52.7753 53.1965 52.4998 53.1784 52.1349 53.063C51.7621 52.9451 51.4938 53.0466 51.1151 53.0817C50.3745 53.1505 49.5845 53.0946 48.8559 52.9468C48.3948 52.8533 47.9723 52.8347 47.5003 52.8269C47.134 52.8208 46.7786 52.7278 46.4083 52.7631C46.1177 52.7909 45.9335 53.0909 45.6239 53.0967C45.4112 53.1008 45.1819 53.1217 44.9712 53.0817C44.8176 53.0526 44.6936 52.9335 44.5413 52.9018C44.4018 52.8728 44.3659 52.9882 44.2463 53.0218C44.0936 53.0647 43.9029 53.0293 43.7474 53.0293C43.264 53.0293 42.7866 52.8644 42.3071 52.8981C41.8613 52.9294 41.4791 53.16 41.0238 53.1642C40.3441 53.1704 39.6197 53.3198 38.9465 53.1979C38.5059 53.1182 38.0355 53.2536 37.6035 53.1192C37.2977 53.0241 37.0468 52.8991 36.7249 52.8943C36.5472 52.8917 36.377 52.8915 36.2009 52.8606C35.2267 52.6895 34.2401 52.8269 33.2638 52.8269C32.8633 52.8269 32.5408 52.6957 32.1499 52.6395C31.7047 52.5754 31.2331 52.6245 30.7849 52.6245C30.3994 52.6245 30.0125 52.6123 29.627 52.6245C29.3065 52.6345 28.9844 52.7979 28.6574 52.8231C28.0976 52.8663 27.5398 52.8373 26.9787 52.8943C26.5339 52.9396 26.1089 53.1285 25.6608 53.1792C24.3725 53.325 23.0389 53.3508 21.7447 53.3666C20.9992 53.3757 20.2531 53.3666 19.5074 53.3666C18.5878 53.3666 17.7054 53.1098 16.7869 53.0967C15.5962 53.0798 14.4122 52.8269 13.216 52.8269C12.1429 52.8269 11.1172 52.7176 10.0405 52.8943C9.21389 53.03 8.36214 53.2867 7.53023 53.2991C6.35041 53.3167 5.1178 53.6139 3.96562 53.9063C3.70888 53.9715 3.27299 54.0699 3.02112 53.9251C2.78056 53.7867 2.71675 53.4341 2.42807 53.4341C2.11611 53.4341 1.85214 53.5792 1.54947 53.6515C1.43837 53.678 0.975965 54.0499 0.931303 53.9551C0.808301 53.6939 0.753164 53.269 0.721071 52.9693C0.693601 52.7128 0.66316 52.2666 0.451212 52.1147C0.389837 52.0707 0.312223 52.1151 0.256666 52.0772C0.131311 51.9917 0.140997 51.0712 0.124872 50.9003C0.0838639 50.4656 0.106428 49.9985 0.143705 49.5659C0.266397 48.1423 0.268923 46.7063 0.341391 45.278C0.381597 44.4855 0.445368 43.7124 0.451212 42.9167C0.455767 42.2965 0.512095 41.6779 0.507696 41.0576C0.505705 40.7772 0.393671 40.5838 0.344526 40.3154C0.16701 39.3461 0.22864 38.271 0.181357 37.2794C0.137968 36.3696 0.114859 35.4663 0.0307411 34.562C-0.0678459 33.5021 0.101248 32.4532 0.112326 31.3948C0.121131 30.5535 0.0853983 29.6643 0.228427 28.8385C0.349795 28.1378 0.366877 27.4293 0.495143 26.7245C0.540236 26.4768 0.609755 26.1431 0.561038 25.8812C0.517253 25.6458 0.415446 25.3987 0.369632 25.154C0.28797 24.718 0.313476 24.3017 0.278632 23.8647C0.226127 23.2061 0.225287 22.5486 0.225287 21.8819C0.225287 21.1056 0.112327 20.3499 0.112327 19.588C0.112327 18.3514 0.225288 17.1236 0.225288 15.8923C0.225288 15.065 0.338252 14.287 0.338252 13.456L0.338253 10.8472C0.338253 10.0985 0.630569 9.35645 0.479454 8.59832C0.406467 8.23216 0.451213 7.81373 0.451214 7.44389C0.451214 7.0371 0.394733 6.63433 0.394733 6.23322C0.394733 5.24817 0.237522 4.21313 0.422973 3.23843C0.528145 2.68568 0.506115 2.11222 0.567314 1.55174C0.578472 1.44956 0.755074 0.519418 0.827759 0.487261C1.12445 0.356003 1.75343 0.424352 2.08918 0.487261C2.75618 0.612239 3.41137 0.472269 4.07858 0.472269C4.44847 0.472269 4.82412 0.579993 5.19252 0.535988C5.49482 0.499878 5.71678 0.210369 6.03033 0.2024C6.72355 0.184782 7.39738 0.337334 8.08877 0.337334C8.50755 0.337334 8.89711 0.472269 9.31881 0.472269C9.7345 0.472269 10.1404 0.493038 10.5551 0.524743C11.8131 0.620916 13.0757 0.472269 14.3331 0.472269C14.967 0.472269 15.612 0.532576 16.2347 0.374816C16.6875 0.260063 17.1573 0.134933 17.6216 0.134933C17.9608 0.134933 18.2533 0.234048 18.5818 0.307349C18.8469 0.366517 19.1181 0.316897 19.3851 0.352328C19.807 0.408326 20.1903 0.472269 20.6182 0.472269L22.8493 0.472269C25.0085 0.47227 26.8948 2.17866 29.1124 1.78413C29.6926 1.68092 30.2526 1.41942 30.8383 1.36434C31.4442 1.30735 32.0629 1.34934 32.6708 1.34934C33.0118 1.34934 33.345 1.24544 33.6749 1.14694C34.1268 1.012 34.6311 1.012 35.0963 1.01201L35.1058 1.01201C35.6703 1.01201 36.2316 1.14694 36.7939 1.14694C36.9959 1.14694 37.1937 1.11663 37.3901 1.06448C37.6973 0.982949 37.8553 0.634127 38.1181 0.442285C38.4783 0.179362 38.7857 0.202401 39.1975 0.202401C39.7492 0.202401 40.2558 0.582494 40.7916 0.457277C41.3387 0.329409 41.9062 0.529051 42.4609 0.539738C43.2456 0.554855 44.0392 0.728994 44.8206 0.742139C45.4378 0.752524 46.0508 0.809607 46.6656 0.809607C46.9663 0.809607 47.2302 0.674672 47.5317 0.674672C47.9221 0.674672 48.2599 0.877074 48.6425 0.877074C48.9761 0.877074 49.2944 0.903581 49.6215 0.940793C49.8098 0.962218 49.992 0.958076 50.1675 0.877074C50.4677 0.738504 50.7637 0.741025 51.0618 0.637191Z" stroke="#E5D9CF" stroke-width="3" mask="url(#path-1-inside-1_1_29375)"/>
</g>
<path d="M35.1906 17.8751H19.3094C19.1308 17.8727 18.9536 17.9054 18.7877 17.9714C18.6218 18.0374 18.4706 18.1355 18.3426 18.26C18.2146 18.3845 18.1124 18.533 18.0418 18.697C17.9713 18.8609 17.9337 19.0372 17.9312 19.2158V35.2845C17.9337 35.463 17.9713 35.6393 18.0418 35.8033C18.1124 35.9673 18.2146 36.1158 18.3426 36.2403C18.4706 36.3648 18.6218 36.4628 18.7877 36.5289C18.9536 36.5949 19.1308 36.6276 19.3094 36.6251H35.1906C35.3691 36.6276 35.5464 36.5949 35.7123 36.5289C35.8781 36.4628 36.0294 36.3648 36.1574 36.2403C36.2853 36.1158 36.3875 35.9673 36.4581 35.8033C36.5287 35.6393 36.5663 35.463 36.5687 35.2845V19.2158C36.5663 19.0372 36.5287 18.8609 36.4581 18.697C36.3875 18.533 36.2853 18.3845 36.1574 18.26C36.0294 18.1355 35.8781 18.0374 35.7123 17.9714C35.5464 17.9054 35.3691 17.8727 35.1906 17.8751ZM23.5844 33.5689H20.7719V25.1314H23.5844V33.5689ZM22.1781 23.9501C21.7902 23.9501 21.4182 23.796 21.144 23.5218C20.8697 23.2475 20.7156 22.8755 20.7156 22.4876C20.7156 22.0998 20.8697 21.7278 21.144 21.4535C21.4182 21.1792 21.7902 21.0251 22.1781 21.0251C22.3841 21.0018 22.5926 21.0222 22.7902 21.085C22.9877 21.1479 23.1697 21.2517 23.3243 21.3898C23.479 21.5279 23.6027 21.697 23.6874 21.8862C23.7721 22.0754 23.8158 22.2803 23.8158 22.4876C23.8158 22.6949 23.7721 22.8999 23.6874 23.0891C23.6027 23.2782 23.479 23.4474 23.3243 23.5855C23.1697 23.7235 22.9877 23.8274 22.7902 23.8902C22.5926 23.9531 22.3841 23.9735 22.1781 23.9501ZM33.7281 33.5689H30.9156V29.0408C30.9156 27.9064 30.5125 27.1658 29.4906 27.1658C29.1743 27.1681 28.8664 27.2673 28.6083 27.45C28.3501 27.6327 28.1542 27.8901 28.0469 28.1876C27.9735 28.408 27.9417 28.64 27.9531 28.872V33.5595H25.1406C25.1406 33.5595 25.1406 25.8908 25.1406 25.122H27.9531V26.3126C28.2086 25.8693 28.5802 25.5041 29.0279 25.2563C29.4756 25.0085 29.9824 24.8875 30.4937 24.9064C32.3687 24.9064 33.7281 26.1158 33.7281 28.7126V33.5689Z" fill="#E5D9CF"/>
</svg>
