<svg width="55" height="54" viewBox="0 0 55 54" fill="none" xmlns="http://www.w3.org/2000/svg">
<g opacity="0.1">
<mask id="path-1-inside-1_1_29381" fill="white">
<path d="M51.5618 53.3628C51.8003 53.4459 52.1537 53.5453 52.4108 53.6879C52.5251 53.7513 52.6398 53.8169 52.7651 53.8543C53.0708 53.9456 53.4216 53.8725 53.4832 53.5595C53.4998 53.4751 53.5141 53.3826 53.5355 53.2803C53.6676 52.6493 53.6327 52.0105 53.6767 51.3688C53.8119 49.3982 53.8299 47.4335 54.0564 45.4691C54.2752 43.5715 54.3827 41.672 54.3827 39.7569C54.3827 35.8851 54.5349 32.0228 54.4925 28.1488C54.4765 26.6803 54.4388 25.2029 54.3576 23.7372C54.2932 22.5745 54.1345 21.4314 54.0376 20.2739C53.9506 19.2357 53.9803 18.1784 53.9905 17.1366C54.0031 15.852 54.1229 14.5801 54.1788 13.2985C54.2304 12.1131 54.2133 10.9243 54.2133 9.73773C54.2133 8.1638 54.2007 6.59147 54.2572 5.01877C54.2977 3.89178 54.4934 2.75246 54.4361 1.62292C54.4071 1.05109 53.9861 1.13897 53.6296 0.970734C53.2754 0.803547 52.9998 0.821632 52.6349 0.937C52.2621 1.0549 51.9938 0.953396 51.6151 0.918259C50.8745 0.849545 50.0845 0.905396 49.3559 1.05319C48.8948 1.14671 48.4723 1.16531 48.0003 1.17313C47.634 1.17921 47.2786 1.27224 46.9083 1.23686C46.6177 1.20909 46.4335 0.909138 46.1239 0.903267C45.9112 0.899235 45.6819 0.878319 45.4712 0.918259C45.3176 0.947388 45.1936 1.06654 45.0413 1.09818C44.9018 1.12716 44.8659 1.01183 44.7463 0.978234C44.5936 0.935307 44.4029 0.970734 44.2474 0.970734C43.764 0.970734 43.2866 1.13561 42.8071 1.10193C42.3613 1.07059 41.9791 0.839955 41.5238 0.835801C40.8441 0.829606 40.1197 0.680222 39.4465 0.802067C39.0059 0.881818 38.5355 0.746407 38.1035 0.88078C37.7977 0.975888 37.5468 1.10086 37.2249 1.10567C37.0472 1.10832 36.8771 1.10845 36.7009 1.1394C35.7267 1.31054 34.7402 1.17313 33.7638 1.17313C33.3633 1.17313 33.0408 1.30428 32.6499 1.36055C32.2047 1.42462 31.7331 1.37554 31.2849 1.37554C30.8994 1.37554 30.5125 1.38766 30.1271 1.37554C29.8065 1.36546 29.4844 1.20208 29.1575 1.17688C28.5976 1.13374 28.0398 1.16271 27.4787 1.10567C27.0339 1.06045 26.6089 0.871518 26.1608 0.82081C24.8725 0.67502 23.5389 0.649175 22.2447 0.633401C21.4992 0.624315 20.7531 0.633401 20.0074 0.633401C19.0878 0.633402 18.2054 0.890207 17.2869 0.903269C16.0962 0.920202 14.9122 1.17314 13.716 1.17314C12.6429 1.17314 11.6172 1.28238 10.5405 1.10567C9.7139 0.969996 8.86215 0.713289 8.03023 0.700869C6.85041 0.683253 5.6178 0.386122 4.46562 0.0936644C4.20889 0.0284942 3.773 -0.0699403 3.52112 0.0749229C3.28057 0.213271 3.21676 0.565935 2.92807 0.565935C2.61611 0.565935 2.35215 0.420847 2.04947 0.34854C1.93838 0.321997 1.47597 -0.0499054 1.43131 0.0449356C1.30831 0.306136 1.25317 0.731001 1.22107 1.03071C1.19361 1.28723 1.16316 1.73339 0.951215 1.88529C0.889841 1.92928 0.812227 1.88486 0.75667 1.92278C0.631315 2.00834 0.641 2.92877 0.624876 3.0997C0.583868 3.53444 0.606432 4.00151 0.643709 4.43406C0.766401 5.85774 0.768926 7.29369 0.841394 8.72198C0.881601 9.51446 0.945372 10.2876 0.951216 11.0833C0.955771 11.7035 1.0121 12.3221 1.0077 12.9424C1.00571 13.2228 0.893675 13.4162 0.84453 13.6846C0.667013 14.6539 0.728644 15.729 0.681361 16.7206C0.637972 17.6304 0.614863 18.5337 0.530745 19.438C0.432158 20.4979 0.601252 21.5468 0.61233 22.6052C0.621134 23.4465 0.585402 24.3357 0.72843 25.1615C0.849799 25.8622 0.866881 26.5707 0.995147 27.2755C1.04024 27.5232 1.10976 27.8569 1.06104 28.1188C1.01726 28.3542 0.91545 28.6013 0.869635 28.846C0.787974 29.282 0.813479 29.6983 0.778636 30.1353C0.72613 30.7939 0.725291 31.4514 0.725291 32.1181C0.725291 32.8944 0.612331 33.6501 0.612331 34.412C0.612331 35.6486 0.725291 36.8764 0.725292 38.1077C0.725292 38.935 0.838256 39.713 0.838256 40.544L0.838256 43.1528C0.838256 43.9015 1.13057 44.6435 0.979457 45.4017C0.906471 45.7678 0.951217 46.1863 0.951217 46.5561C0.951217 46.9629 0.894737 47.3657 0.894737 47.7668C0.894737 48.7518 0.737526 49.7869 0.922977 50.7616C1.02815 51.3143 1.00612 51.8878 1.06732 52.4483C1.07848 52.5504 1.25508 53.4806 1.32776 53.5127C1.62445 53.644 2.25344 53.5756 2.58918 53.5127C3.25618 53.3878 3.91137 53.5277 4.57859 53.5277C4.94847 53.5277 5.32413 53.42 5.69253 53.464C5.99482 53.5001 6.21678 53.7896 6.53033 53.7976C7.22355 53.8152 7.89738 53.6627 8.58878 53.6627C9.00755 53.6627 9.39711 53.5277 9.81881 53.5277C10.2345 53.5277 10.6404 53.507 11.0551 53.4753C12.3131 53.3791 13.5757 53.5277 14.8331 53.5277C15.467 53.5277 16.112 53.4674 16.7347 53.6252C17.1876 53.7399 17.6573 53.8651 18.1216 53.8651C18.4608 53.8651 18.7533 53.766 19.0818 53.6927C19.3469 53.6335 19.6181 53.6831 19.8851 53.6477C20.307 53.5917 20.6904 53.5277 21.1183 53.5277L23.3493 53.5277C25.5085 53.5277 27.3948 51.8213 29.6124 52.2159C30.1926 52.3191 30.7526 52.5806 31.3383 52.6357C31.9442 52.6927 32.5629 52.6507 33.1708 52.6507C33.5119 52.6507 33.845 52.7546 34.1749 52.8531C34.6268 52.988 35.1311 52.988 35.5963 52.988L35.6058 52.988C36.1703 52.988 36.7316 52.8531 37.2939 52.8531C37.4959 52.8531 37.6937 52.8834 37.8901 52.9355C38.1973 53.0171 38.3553 53.3659 38.6181 53.5577C38.9783 53.8206 39.2857 53.7976 39.6975 53.7976C40.2492 53.7976 40.7558 53.4175 41.2916 53.5427C41.8387 53.6706 42.4062 53.4709 42.9609 53.4603C43.7456 53.4451 44.5392 53.271 45.3206 53.2579C45.9378 53.2475 46.5508 53.1904 47.1656 53.1904C47.4663 53.1904 47.7302 53.3253 48.0317 53.3253C48.4221 53.3253 48.7599 53.1229 49.1425 53.1229C49.4761 53.1229 49.7944 53.0964 50.1215 53.0592C50.3098 53.0378 50.492 53.0419 50.6675 53.1229C50.9677 53.2615 51.2637 53.259 51.5618 53.3628Z"/>
</mask>
<path d="M51.5618 53.3628C51.8003 53.4459 52.1537 53.5453 52.4108 53.6879C52.5251 53.7513 52.6398 53.8169 52.7651 53.8543C53.0708 53.9456 53.4216 53.8725 53.4832 53.5595C53.4998 53.4751 53.5141 53.3826 53.5355 53.2803C53.6676 52.6493 53.6327 52.0105 53.6767 51.3688C53.8119 49.3982 53.8299 47.4335 54.0564 45.4691C54.2752 43.5715 54.3827 41.672 54.3827 39.7569C54.3827 35.8851 54.5349 32.0228 54.4925 28.1488C54.4765 26.6803 54.4388 25.2029 54.3576 23.7372C54.2932 22.5745 54.1345 21.4314 54.0376 20.2739C53.9506 19.2357 53.9803 18.1784 53.9905 17.1366C54.0031 15.852 54.1229 14.5801 54.1788 13.2985C54.2304 12.1131 54.2133 10.9243 54.2133 9.73773C54.2133 8.1638 54.2007 6.59147 54.2572 5.01877C54.2977 3.89178 54.4934 2.75246 54.4361 1.62292C54.4071 1.05109 53.9861 1.13897 53.6296 0.970734C53.2754 0.803547 52.9998 0.821632 52.6349 0.937C52.2621 1.0549 51.9938 0.953396 51.6151 0.918259C50.8745 0.849545 50.0845 0.905396 49.3559 1.05319C48.8948 1.14671 48.4723 1.16531 48.0003 1.17313C47.634 1.17921 47.2786 1.27224 46.9083 1.23686C46.6177 1.20909 46.4335 0.909138 46.1239 0.903267C45.9112 0.899235 45.6819 0.878319 45.4712 0.918259C45.3176 0.947388 45.1936 1.06654 45.0413 1.09818C44.9018 1.12716 44.8659 1.01183 44.7463 0.978234C44.5936 0.935307 44.4029 0.970734 44.2474 0.970734C43.764 0.970734 43.2866 1.13561 42.8071 1.10193C42.3613 1.07059 41.9791 0.839955 41.5238 0.835801C40.8441 0.829606 40.1197 0.680222 39.4465 0.802067C39.0059 0.881818 38.5355 0.746407 38.1035 0.88078C37.7977 0.975888 37.5468 1.10086 37.2249 1.10567C37.0472 1.10832 36.8771 1.10845 36.7009 1.1394C35.7267 1.31054 34.7402 1.17313 33.7638 1.17313C33.3633 1.17313 33.0408 1.30428 32.6499 1.36055C32.2047 1.42462 31.7331 1.37554 31.2849 1.37554C30.8994 1.37554 30.5125 1.38766 30.1271 1.37554C29.8065 1.36546 29.4844 1.20208 29.1575 1.17688C28.5976 1.13374 28.0398 1.16271 27.4787 1.10567C27.0339 1.06045 26.6089 0.871518 26.1608 0.82081C24.8725 0.67502 23.5389 0.649175 22.2447 0.633401C21.4992 0.624315 20.7531 0.633401 20.0074 0.633401C19.0878 0.633402 18.2054 0.890207 17.2869 0.903269C16.0962 0.920202 14.9122 1.17314 13.716 1.17314C12.6429 1.17314 11.6172 1.28238 10.5405 1.10567C9.7139 0.969996 8.86215 0.713289 8.03023 0.700869C6.85041 0.683253 5.6178 0.386122 4.46562 0.0936644C4.20889 0.0284942 3.773 -0.0699403 3.52112 0.0749229C3.28057 0.213271 3.21676 0.565935 2.92807 0.565935C2.61611 0.565935 2.35215 0.420847 2.04947 0.34854C1.93838 0.321997 1.47597 -0.0499054 1.43131 0.0449356C1.30831 0.306136 1.25317 0.731001 1.22107 1.03071C1.19361 1.28723 1.16316 1.73339 0.951215 1.88529C0.889841 1.92928 0.812227 1.88486 0.75667 1.92278C0.631315 2.00834 0.641 2.92877 0.624876 3.0997C0.583868 3.53444 0.606432 4.00151 0.643709 4.43406C0.766401 5.85774 0.768926 7.29369 0.841394 8.72198C0.881601 9.51446 0.945372 10.2876 0.951216 11.0833C0.955771 11.7035 1.0121 12.3221 1.0077 12.9424C1.00571 13.2228 0.893675 13.4162 0.84453 13.6846C0.667013 14.6539 0.728644 15.729 0.681361 16.7206C0.637972 17.6304 0.614863 18.5337 0.530745 19.438C0.432158 20.4979 0.601252 21.5468 0.61233 22.6052C0.621134 23.4465 0.585402 24.3357 0.72843 25.1615C0.849799 25.8622 0.866881 26.5707 0.995147 27.2755C1.04024 27.5232 1.10976 27.8569 1.06104 28.1188C1.01726 28.3542 0.91545 28.6013 0.869635 28.846C0.787974 29.282 0.813479 29.6983 0.778636 30.1353C0.72613 30.7939 0.725291 31.4514 0.725291 32.1181C0.725291 32.8944 0.612331 33.6501 0.612331 34.412C0.612331 35.6486 0.725291 36.8764 0.725292 38.1077C0.725292 38.935 0.838256 39.713 0.838256 40.544L0.838256 43.1528C0.838256 43.9015 1.13057 44.6435 0.979457 45.4017C0.906471 45.7678 0.951217 46.1863 0.951217 46.5561C0.951217 46.9629 0.894737 47.3657 0.894737 47.7668C0.894737 48.7518 0.737526 49.7869 0.922977 50.7616C1.02815 51.3143 1.00612 51.8878 1.06732 52.4483C1.07848 52.5504 1.25508 53.4806 1.32776 53.5127C1.62445 53.644 2.25344 53.5756 2.58918 53.5127C3.25618 53.3878 3.91137 53.5277 4.57859 53.5277C4.94847 53.5277 5.32413 53.42 5.69253 53.464C5.99482 53.5001 6.21678 53.7896 6.53033 53.7976C7.22355 53.8152 7.89738 53.6627 8.58878 53.6627C9.00755 53.6627 9.39711 53.5277 9.81881 53.5277C10.2345 53.5277 10.6404 53.507 11.0551 53.4753C12.3131 53.3791 13.5757 53.5277 14.8331 53.5277C15.467 53.5277 16.112 53.4674 16.7347 53.6252C17.1876 53.7399 17.6573 53.8651 18.1216 53.8651C18.4608 53.8651 18.7533 53.766 19.0818 53.6927C19.3469 53.6335 19.6181 53.6831 19.8851 53.6477C20.307 53.5917 20.6904 53.5277 21.1183 53.5277L23.3493 53.5277C25.5085 53.5277 27.3948 51.8213 29.6124 52.2159C30.1926 52.3191 30.7526 52.5806 31.3383 52.6357C31.9442 52.6927 32.5629 52.6507 33.1708 52.6507C33.5119 52.6507 33.845 52.7546 34.1749 52.8531C34.6268 52.988 35.1311 52.988 35.5963 52.988L35.6058 52.988C36.1703 52.988 36.7316 52.8531 37.2939 52.8531C37.4959 52.8531 37.6937 52.8834 37.8901 52.9355C38.1973 53.0171 38.3553 53.3659 38.6181 53.5577C38.9783 53.8206 39.2857 53.7976 39.6975 53.7976C40.2492 53.7976 40.7558 53.4175 41.2916 53.5427C41.8387 53.6706 42.4062 53.4709 42.9609 53.4603C43.7456 53.4451 44.5392 53.271 45.3206 53.2579C45.9378 53.2475 46.5508 53.1904 47.1656 53.1904C47.4663 53.1904 47.7302 53.3253 48.0317 53.3253C48.4221 53.3253 48.7599 53.1229 49.1425 53.1229C49.4761 53.1229 49.7944 53.0964 50.1215 53.0592C50.3098 53.0378 50.492 53.0419 50.6675 53.1229C50.9677 53.2615 51.2637 53.259 51.5618 53.3628Z" stroke="#E5D9CF" stroke-width="3" mask="url(#path-1-inside-1_1_29381)"/>
</g>
<path fill-rule="evenodd" clip-rule="evenodd" d="M27.401 23.2563L27.443 23.9483L26.7435 23.8636C24.1974 23.5387 21.9731 22.4371 20.0845 20.5869L19.1611 19.6689L18.9233 20.3468C18.4197 21.858 18.7415 23.454 19.7907 24.5274C20.3503 25.1205 20.2244 25.2053 19.2591 24.8522C18.9233 24.7392 18.6295 24.6545 18.6016 24.6968C18.5036 24.7957 18.8394 26.0809 19.1052 26.5894C19.4689 27.2955 20.2104 27.9876 21.0218 28.3972L21.7073 28.722L20.8959 28.7361C20.1124 28.7361 20.0845 28.7502 20.1684 29.0468C20.4482 29.9649 21.5534 30.9394 22.7845 31.3631L23.6518 31.6597L22.8964 32.1116C21.7772 32.7613 20.4622 33.1285 19.1472 33.1567C18.5176 33.1709 18 33.2273 18 33.2697C18 33.411 19.7067 34.2019 20.7 34.5126C23.6798 35.4306 27.2192 35.0351 29.8772 33.4674C31.7658 32.3517 33.6544 30.1343 34.5357 27.9876C35.0114 26.8436 35.487 24.7533 35.487 23.7506C35.487 23.1009 35.529 23.0162 36.3124 22.2394C36.774 21.7874 37.2077 21.2931 37.2917 21.1519C37.4315 20.8835 37.4176 20.8835 36.7041 21.1236C35.515 21.5473 35.3471 21.4908 35.9347 20.8553C36.3683 20.4033 36.886 19.5842 36.886 19.3441C36.886 19.3017 36.6761 19.3723 36.4383 19.4994C36.1865 19.6407 35.6269 19.8525 35.2072 19.9796L34.4518 20.2197L33.7663 19.7537C33.3886 19.4994 32.857 19.217 32.5772 19.1322C31.8637 18.9345 30.7725 18.9627 30.129 19.1887C28.3803 19.8243 27.2751 21.4626 27.401 23.2563Z" fill="#E5D9CF"/>
</svg>
