<svg width="123" height="123" viewBox="0 0 123 123" fill="none" xmlns="http://www.w3.org/2000/svg">
<path d="M32.5764 8.87804C32.5195 8.99188 33.6578 8.87804 33.6578 8.93496C33.6578 9.0488 33.0317 9.21955 32.9179 9.33338C32.4625 9.78873 34.91 9.67491 34.6824 10.1303C34.5116 10.4718 32.4056 11.1548 32.6333 11.4394C32.6333 11.4394 32.6902 11.4394 32.6902 11.3825C32.804 11.3255 32.9179 11.2686 33.0317 11.2117C35.0808 10.0733 37.1868 9.0488 39.3497 8.1381C39.4636 8.08118 39.5205 8.08118 39.5774 8.08118C40.2604 7.8535 41.0004 7.85351 41.6834 7.56891C41.4557 7.17048 41.0573 6.71512 41.228 6.25977C39.862 6.43052 36.9591 7.05663 37.1299 7.34122C36.2192 7.45506 36.6745 7.28431 36.7884 7.17047C36.1623 7.28431 35.8208 7.39815 35.65 7.51199C35.4223 7.17048 35.3085 7.11356 35.3085 6.71513C35.2516 6.71513 35.0808 6.71511 34.8531 6.77203C34.5116 6.94279 34.1701 7.11356 33.8286 7.22739C33.7717 7.28431 33.7148 7.2843 33.6578 7.34122C33.3163 7.51198 32.861 8.08117 32.2349 8.4796C32.6333 8.4796 33.2594 8.4796 33.3732 8.53652C33.4302 8.59344 32.6333 8.7642 32.5764 8.87804ZM36.7315 7.62582C39.0082 7.39814 36.6176 8.42269 38.1544 8.42269C36.333 8.87805 37.8129 7.96733 36.333 8.195C36.4469 8.08117 36.7884 7.96734 37.073 7.79658C36.9022 7.73966 35.7069 7.96733 36.7315 7.62582Z" fill="#191411"/>
<path d="M48.6316 119.927C48.2901 119.984 47.4932 119.927 48.347 120.268C49.8838 120.724 49.77 120.211 48.6316 119.927Z" fill="#191411"/>
<path d="M50.6813 3.07227C50.5675 3.12918 50.5105 3.18611 50.4536 3.18611C50.6244 3.18611 50.6813 3.12918 50.6813 3.07227Z" fill="#191411"/>
<path d="M62.0044 122.489C62.0613 122.489 62.1751 122.489 62.232 122.489H62.1751C62.1182 122.432 62.0613 122.432 62.0044 122.489Z" fill="#191411"/>
<path d="M115.115 41.3794C115.228 41.6071 115.342 41.8917 115.513 42.0624C115.513 42.1194 115.57 42.1763 115.57 42.2901C116.082 43.7131 116.538 45.1361 116.936 46.616C116.993 46.7298 116.993 46.8437 117.05 46.9575C117.961 48.3235 117.79 50.2019 118.188 51.2833C118.188 51.3972 118.245 51.511 118.245 51.6248C118.473 53.3324 118.131 55.0969 118.757 56.6337C118.757 56.6906 118.757 56.8044 118.757 56.8614C118.871 58.0567 118.928 59.2519 118.928 60.4472C118.928 60.5042 118.928 60.5611 118.928 60.6749C118.928 60.7319 118.928 60.7888 118.928 60.8457C119.042 60.8457 119.156 60.8457 119.213 60.7888C119.327 61.4718 119.156 61.6425 119.042 61.9841C118.985 61.8702 118.985 61.8133 118.928 61.7564C118.928 62.4394 118.871 63.1225 118.814 63.6347C118.814 63.6916 118.814 63.7485 118.814 63.8624C118.814 64.5454 118.757 65.2284 118.7 65.8545C118.7 65.9115 118.7 65.9684 118.7 66.0822C118.416 67.1637 118.359 67.7898 118.416 69.0989C118.416 69.1558 118.416 69.2697 118.416 69.3266C118.359 69.8389 118.245 70.4081 118.188 70.9203C118.188 70.9773 118.188 71.0342 118.131 71.0911C117.961 72.0587 117.904 72.6848 117.562 74.0509C117.562 74.1078 117.505 74.1647 117.505 74.2786C117.278 75.1893 117.107 76.0999 116.822 76.9537C116.822 77.0106 116.765 77.0676 116.765 77.1245C116.993 77.6368 116.822 78.0352 116.538 78.4905C116.481 78.6044 116.424 78.7182 116.367 78.7751C115.741 81.1657 114.318 82.8733 113.919 85.0362C113.862 85.1501 113.805 85.2639 113.749 85.3778C113.692 85.4347 113.692 85.4916 113.635 85.5485C113.179 87.0853 111.756 88.7929 111.187 90.3297C111.13 90.3866 111.13 90.4435 111.073 90.5005C111.016 90.6143 110.959 90.7281 110.903 90.8419C110.846 90.8989 110.846 90.9558 110.789 91.0127C108.057 94.0294 106.463 97.6153 103.56 100.689C103.503 100.746 103.446 100.803 103.389 100.86C103.105 101.201 102.763 101.486 102.479 101.827C102.422 101.884 102.365 101.941 102.308 101.998C100.202 103.763 98.665 106.096 96.3882 107.292C96.3313 107.348 96.2744 107.348 96.2175 107.405C94.7945 108.487 93.3146 109.511 91.7778 110.479C92.6316 110.422 93.9977 110.194 93.2577 110.764C94.2822 110.536 95.193 110.194 95.8191 110.251C97.0713 109.91 97.6974 109.398 98.7219 109.227C99.2911 109.227 97.4697 109.625 97.6405 109.739C97.7543 109.796 98.0958 109.739 98.4943 109.682C100.259 108.316 101.966 106.836 103.617 105.242C103.674 105.186 103.731 105.129 103.788 105.072C105.04 105.015 104.641 103.08 105.894 102.909C106.008 102.795 106.064 102.738 106.178 102.624C106.634 102.169 107.032 101.657 107.431 101.201C107.487 101.087 107.601 101.03 107.658 100.917C108 100.917 108.683 100.404 108.626 99.7782C108.683 99.6644 108.797 99.5505 108.854 99.4936C108.91 99.4367 108.91 99.3798 108.967 99.3229C109.024 99.266 109.081 99.209 109.081 99.1521C109.537 97.3876 111.472 96.9892 111.756 95.4524C111.813 95.3385 111.87 95.2247 111.984 95.1109C112.098 94.9401 112.212 94.8263 112.269 94.6555C112.326 94.5986 112.326 94.5417 112.382 94.4848C113.122 93.4033 113.805 92.8341 114.033 91.8096C114.09 91.7527 114.09 91.6957 114.147 91.6388C115.627 89.0206 116.936 86.2884 118.017 83.4425C118.074 83.3287 118.131 83.2148 118.131 83.101C118.814 80.8812 119.725 77.8645 120.465 75.4169C120.465 75.36 120.522 75.3031 120.522 75.2462C121.034 72.9125 121.433 70.5219 121.717 68.0744C122.457 61.1872 122.002 54.4708 120.522 48.0959C120.465 47.982 120.465 47.8682 120.408 47.6974C120.351 47.5836 120.294 47.4697 120.237 47.3559C120.237 47.3559 120.237 47.3559 120.18 47.299H120.123C120.123 47.2421 120.067 47.2421 120.067 47.1851C119.839 46.9575 119.782 46.7298 119.725 46.4452C119.668 46.2745 119.611 46.1037 119.497 45.876L119.668 45.8191C119.668 45.3638 119.668 44.9084 119.44 44.453C119.44 44.3961 119.44 44.2823 119.383 44.2254C119.383 44.1685 119.383 44.1115 119.327 44.0546C119.327 43.9408 119.27 43.8269 119.27 43.7131C118.928 43.4854 118.928 43.4854 119.042 42.7455C118.985 42.6316 118.985 42.5178 118.928 42.4609C118.871 42.347 118.814 42.2901 118.814 42.1763C118.814 42.1194 118.757 42.0625 118.757 41.9486C118.416 40.9241 118.017 39.8995 117.619 38.875C117.164 40.5826 115.57 39.0458 115.115 41.3794ZM119.782 60.618C120.18 59.1951 121.319 60.0488 121.945 58.9674C122.173 60.7319 121.262 61.1872 120.237 60.1626C120.237 60.3903 120.465 61.0165 120.294 60.9026C120.01 61.1872 119.042 60.7888 119.782 60.618Z" fill="#191411"/>
<path d="M46.8091 5.69106C46.9798 5.69106 47.0937 5.69106 47.2075 5.63414C51.0211 4.66652 54.9485 4.09733 58.9897 3.98349C59.1035 3.98349 59.1605 3.98349 59.2174 3.98349C59.7866 4.15425 60.2989 3.86966 60.8681 3.6989C60.8681 3.64198 61.0388 3.52815 60.925 3.47123C60.868 3.47123 60.8111 3.47123 60.7542 3.47123C60.8111 3.47123 60.868 3.47123 60.925 3.47123C61.4942 3.41431 61.9495 3.30047 62.1202 3.12971C62.1202 3.01587 61.4372 3.01587 60.8681 3.07279C61.7788 2.95895 61.4941 2.7882 61.3803 2.61744C60.3558 2.67436 60.6973 2.7882 60.3558 2.84512C59.0466 2.84512 61.608 2.56053 61.6649 2.44669C61.2665 2.44669 60.4696 2.44669 60.185 2.44669C60.1281 2.44669 60.1281 2.44668 60.0712 2.5036C60.0712 2.5036 60.1281 2.50361 60.185 2.44669C60.4696 2.33286 61.0388 2.16209 61.4942 1.99133C61.3803 1.76366 61.3234 1.5929 61.2665 1.36522C60.9819 1.36522 60.6404 1.36522 60.185 1.36522C60.8111 1.25138 60.7542 1.13754 61.1527 1.08063C61.0388 0.85295 60.8111 0.682197 60.3558 0.568359C60.0712 0.568359 59.8435 0.625289 59.6158 0.739127C59.502 0.739127 59.3882 0.739127 59.2174 0.739127C57.3391 0.796045 55.5177 0.966795 53.6963 1.19447C53.4686 1.53598 52.7856 1.93442 51.9887 2.38977C52.1025 2.38977 52.2164 2.38977 52.3302 2.33285C52.3302 2.44669 52.8425 2.38976 52.8425 2.5036C52.1025 2.56052 52.0456 2.61745 51.4764 2.67437C51.4195 2.67437 51.3626 2.73129 51.3626 2.73129C52.1025 2.84513 51.761 3.12971 51.8748 3.35738C50.7934 3.4143 52.3302 3.18663 51.3626 3.18663C49.5981 3.35739 50.6226 3.58506 49.7119 3.75582C49.655 3.75582 49.5981 3.75582 49.5981 3.75582C48.972 4.15425 48.6874 4.49577 49.1427 4.72345C49.5412 4.66653 49.9396 4.66652 50.2811 4.6096C50.338 4.72344 48.8582 4.83728 48.9151 4.95112C48.6874 4.95112 48.5166 4.95112 48.4028 4.95112C48.0044 5.06496 47.606 5.1788 47.2075 5.29264C47.4352 5.4634 47.3214 5.57722 46.8091 5.69106ZM57.8513 2.78819C56.4853 2.95895 57.1683 2.67436 56.8837 2.56052C58.136 2.5036 57.9082 2.61744 57.8513 2.78819ZM56.656 1.59291C56.3145 1.82059 57.1114 1.76366 56.5422 1.99133C55.973 2.04825 55.29 1.70675 56.656 1.59291ZM54.6639 3.47123C55.6884 3.41431 54.8916 3.6989 53.6393 3.75582C53.184 3.64198 54.55 3.58506 54.6639 3.47123ZM50.1104 4.55268C48.6874 4.6096 49.9965 4.32501 49.1427 4.32501C49.1427 4.21117 50.395 4.15426 50.1673 4.09734C51.5333 4.09734 49.4273 4.32502 49.5981 4.43886C49.8827 4.49577 51.5333 4.26808 51.2487 4.49576C50.7934 4.6096 50.2811 4.43884 50.1104 4.55268Z" fill="#191411"/>
<path d="M62.2332 3.92633C62.347 3.92633 62.4609 3.92633 62.6316 3.92633C62.7455 3.92633 62.8024 3.92633 62.9162 3.92633C63.2008 3.5279 62.6885 3.1864 61.3794 3.58483C61.6071 3.64175 61.8917 3.69866 62.2332 3.92633Z" fill="#191411"/>
<path d="M48.0019 118.562C47.6604 118.733 47.0912 118.961 47.7742 119.302C48.7988 119.359 49.1972 119.075 48.0019 118.562Z" fill="#191411"/>
<path d="M63.8247 3.81306C64.8492 3.86998 64.9062 3.9269 64.8493 4.04074C65.2477 4.04074 65.703 4.09766 66.1015 4.15458C66.1584 3.9269 65.5323 3.69922 64.9062 3.69922C64.6216 3.75614 64.337 3.81306 63.8247 3.81306Z" fill="#191411"/>
<path d="M63.032 3.29953C65.138 3.01494 64.0565 3.47029 65.8779 3.24261C65.3656 3.12877 65.7071 2.84418 63.6581 2.95802C64.3411 3.12877 62.6905 3.1857 63.032 3.29953Z" fill="#191411"/>
<path d="M46.6355 5.80358C46.5786 5.74666 46.5216 5.68973 46.4647 5.63281C45.6679 5.86049 44.9279 6.08817 44.188 6.31585C44.2449 6.37277 44.3018 6.37277 44.3587 6.42969C45.0987 6.20202 45.8386 5.97434 46.6355 5.80358Z" fill="#191411"/>
<path d="M46.4688 119.755C43.9644 119.186 45.8428 119.072 44.4198 118.446C45.1028 118.617 45.2736 118.788 45.2166 118.902C45.7858 118.958 45.5582 118.674 46.2412 118.788C45.4443 118.503 45.2166 118.275 45.0459 118.048C44.3059 118.332 45.0459 118.389 43.4522 118.731C43.2814 118.617 44.1352 118.389 43.7937 118.332C44.3629 118.162 44.4198 118.219 44.932 118.048C44.989 117.991 44.989 117.934 44.989 117.877C44.989 117.877 44.989 117.82 44.932 117.82C44.8182 117.706 44.5336 117.649 44.4767 117.479C44.5336 117.479 44.5336 117.479 44.5905 117.479C44.4767 117.422 44.3629 117.308 44.1352 117.194C44.249 117.137 44.249 117.023 44.8182 117.137C44.8182 117.08 44.8751 117.08 44.8751 117.023C44.8182 117.023 44.7044 116.966 44.6475 116.909C43.8506 116.682 43.0537 116.397 42.2569 116.169C42.1999 116.169 42.143 116.113 42.0861 116.113C40.4355 114.974 38.5571 114.803 36.5081 113.836C36.3942 113.779 36.2804 113.722 36.1665 113.665C35.4266 113.324 34.6866 112.925 33.9467 112.527C33.4344 112.356 32.9222 112.185 32.9222 112.014C32.9791 112.014 33.036 112.071 33.1498 112.071C32.8083 111.901 32.5237 111.73 32.1822 111.502C31.9545 111.559 31.8407 111.673 31.8407 111.73C31.1008 111.274 31.0438 111.104 31.2146 110.933C30.4746 110.478 29.7916 110.022 29.1086 109.567C28.9948 109.681 28.8809 109.738 28.824 109.851C28.7671 109.624 28.7671 109.453 28.7671 109.282C25.6935 107.233 22.9044 104.843 20.2862 102.281C20.3431 102.452 20.4 102.623 20.4 102.737C19.2047 102.167 18.4078 103.477 17.3833 103.818C17.4971 103.989 17.6679 104.103 17.7817 104.273C17.8387 104.33 17.8956 104.387 17.9525 104.444C18.5786 104.9 19.0339 105.526 19.5462 106.095V106.152C19.7739 106.379 20.0016 106.664 20.2862 106.835C20.4 106.721 20.4569 106.55 20.4 106.266C20.6277 106.721 20.6846 106.949 20.6277 107.119C20.7415 107.176 20.8553 107.29 20.9692 107.347C21.083 107.404 21.1399 107.518 21.2538 107.575C21.5384 107.802 21.823 108.087 22.1076 108.315C22.2214 108.372 22.2783 108.485 22.3922 108.542C22.9613 108.77 23.0183 108.77 23.189 109.112C23.4167 109.112 23.8151 109.567 24.2136 110.022C24.5551 110.25 24.8966 110.535 25.2381 110.762C25.295 110.762 25.3519 110.705 25.3519 110.591C25.4089 110.705 25.4089 110.819 25.4658 110.933C25.8073 111.218 26.2057 111.445 26.6042 111.73C26.718 111.559 26.5472 111.331 26.4334 111.104L26.2627 111.161C25.8642 110.25 25.6935 109.624 25.8642 109.681C25.9781 109.851 26.0919 110.136 26.2057 110.421C26.2057 110.364 26.2627 110.364 26.3196 110.364C26.9457 110.762 27.5149 110.819 27.7995 110.648C28.4256 110.933 29.1086 111.388 28.6532 111.388C29.3363 111.673 30.93 112.014 31.6699 112.299C33.1498 112.584 31.4423 111.901 32.6945 112.128C33.4344 112.584 33.8898 113.437 32.5807 113.38C32.8083 113.665 34.8574 114.063 34.5159 114.291C35.8819 114.69 35.0851 114.177 36.3373 114.576C37.4757 115.031 34.2882 114.746 36.8496 115.373C36.565 115.486 36.0527 115.202 35.3697 115.031C34.0036 114.974 34.8005 115.885 34.1744 116.113C34.2882 116.169 34.4021 116.226 34.5159 116.283C34.9712 116.397 35.7681 116.511 35.6543 116.397C36.565 116.796 36.6219 117.08 38.3294 117.536C38.2725 117.649 36.6788 117.137 36.9065 117.365C37.248 117.479 37.7603 117.649 38.3294 117.82C38.7279 117.877 39.0694 117.991 39.4109 118.219C40.037 118.446 40.4924 118.674 40.5493 118.845C41.46 119.186 42.3707 119.471 43.3383 119.755C43.3952 119.755 43.4522 119.812 43.5091 119.812C43.8506 119.755 44.1352 119.926 44.3629 120.097C44.4198 120.097 44.4767 120.04 44.4767 119.983C44.989 120.211 45.0459 120.325 44.7044 120.325C44.932 120.495 45.1597 120.609 45.3305 120.325C45.3874 120.325 45.4443 120.381 45.5013 120.381C45.5582 120.381 45.6151 120.381 45.672 120.438C45.7289 120.381 45.8427 120.381 46.2981 120.438C46.2981 120.325 45.8427 120.211 45.8997 120.097C45.5581 120.04 45.6151 120.097 45.5582 120.154C44.3059 119.642 46.6965 120.097 46.4688 119.755ZM23.2459 106.949C23.5305 106.949 23.6444 106.892 23.5875 106.778C25.0104 107.176 24.612 106.892 25.8073 107.176C25.1243 107.233 24.2705 107.119 23.2459 106.949Z" fill="#191411"/>
<path d="M65.1373 2.16211C65.0799 2.16211 65.1373 2.16211 65.1373 2.16211C65.0799 2.21951 65.0799 2.21951 65.1373 2.16211C65.1373 2.21951 65.1373 2.16211 65.1373 2.16211Z" fill="#191411"/>
<path d="M48.4575 120.839C48.2867 120.896 48.1729 120.953 48.0591 121.01C48.3437 121.067 48.5713 121.123 48.8559 121.18C48.7421 121.123 48.6282 121.01 48.4575 120.839Z" fill="#191411"/>
<path d="M49.7722 117.993C49.26 117.765 48.6339 117.538 48.1216 117.424C48.2923 117.595 48.6338 117.822 49.7153 118.107C49.4876 117.993 49.6015 117.993 49.7722 117.993Z" fill="#191411"/>
<path d="M87.7912 112.812C86.6528 113.382 85.4575 113.951 84.2622 114.463C84.2622 114.52 84.3191 114.52 84.3191 114.577C86.2544 114.065 86.8805 113.666 88.3034 113.097C87.9619 113.04 87.8481 112.926 87.7912 112.812Z" fill="#191411"/>
<path d="M93.8811 112.529C93.8242 112.586 93.5965 112.699 93.1411 112.813C93.198 113.098 95.7025 112.073 93.8811 112.529Z" fill="#191411"/>
<path d="M68.2709 118.904C68.214 118.904 68.157 118.961 68.1001 118.961C68.3278 119.074 68.4417 119.188 68.3278 119.245C68.1001 119.188 67.8155 119.131 67.6448 119.074C66.0511 119.473 64.0589 119.302 62.3513 119.245C62.2944 119.245 62.2375 119.245 62.1806 119.245C59.9038 119.302 57.5701 119.188 55.2365 118.904C54.0981 118.79 52.9597 118.619 51.8213 118.448C51.5937 118.448 51.4229 118.448 51.3091 118.562C51.2521 118.676 51.9352 118.904 52.4474 119.074C51.5367 118.904 51.7075 119.188 51.8213 119.416C52.8459 119.7 52.5044 119.473 52.9028 119.473C54.155 119.928 51.5937 119.359 51.4798 119.473C51.8214 119.587 52.6182 119.928 52.9028 119.985C52.9597 119.985 52.9597 119.985 53.0166 119.985C53.0166 119.985 52.9597 119.985 52.9028 119.985C52.049 119.985 48.6908 119.928 52.5613 121.18C51.5367 121.01 52.2198 121.465 50.3984 120.953C50.9106 121.351 51.7075 121.636 50.1138 121.294C50.1707 121.351 50.2276 121.351 50.2845 121.408C51.8213 121.693 53.4151 121.92 55.0088 122.091C56.6594 122.262 58.3101 122.376 59.9038 122.433H59.9607C60.3592 122.433 60.7576 122.433 61.1561 122.433C60.9284 122.148 61.213 121.977 61.213 121.75C62.2375 122.091 60.7007 121.806 61.6114 122.091C63.319 122.546 62.4082 121.92 63.3759 122.034C63.7743 122.205 63.3759 122.262 63.1482 122.376C63.5466 122.376 63.9451 122.376 64.3435 122.319C64.5712 121.92 64.5143 121.579 64.1727 121.351C64.2866 121.294 64.4004 121.237 64.5142 121.18C64.0589 121.067 63.6605 120.953 63.2051 120.839C63.2051 120.668 64.6281 121.123 64.6281 120.953C64.685 120.953 64.7419 121.01 64.7988 121.01C65.0265 120.896 65.2542 120.782 65.4819 120.668C65.3111 120.668 65.1404 120.611 64.8558 120.554C65.1973 120.554 65.5388 120.554 65.8234 120.497C65.9941 120.44 66.1649 120.327 66.3357 120.27C66.2787 120.213 66.108 120.099 65.8234 119.985C65.8803 119.928 66.1649 120.042 66.5633 120.156C66.7341 120.099 66.8479 120.042 67.0187 119.928C66.5633 119.928 66.0511 119.871 65.4819 119.757C64.2866 119.245 67.474 119.928 66.108 119.359C67.0756 119.644 67.4171 119.644 67.1894 119.473C67.4171 119.53 67.5309 119.587 67.6448 119.644C68.0432 119.473 68.4417 119.245 68.8401 119.074C68.4986 119.188 68.3848 119.074 68.2709 118.904ZM55.1226 120.44C56.4318 120.725 55.6918 120.839 55.9195 121.01C54.6673 120.611 54.9519 120.611 55.1226 120.44ZM55.8057 122.148C56.2041 122.034 55.4072 121.75 56.0903 121.75C56.6025 121.863 57.1148 122.489 55.8057 122.148ZM58.367 120.725C57.3425 120.383 58.2532 120.383 59.4485 120.725C59.79 121.01 58.4808 120.668 58.367 120.725ZM63.0344 121.123C64.4004 121.522 63.0343 121.408 63.8312 121.693C63.8312 121.806 62.6359 121.408 62.7498 121.579C61.4406 121.123 63.5466 121.579 63.4328 121.408C63.2051 121.237 61.5545 120.953 61.896 120.782C62.4083 120.839 62.8636 121.237 63.0344 121.123ZM65.0265 120.383C64.5143 120.213 64.2297 120.042 63.8882 119.871C63.262 119.7 62.6928 119.814 63.5466 120.042C62.1236 119.814 62.2944 119.302 62.6928 119.302C64.0589 119.53 64.1158 120.042 64.5712 119.814C65.7665 120.213 64.9127 120.27 65.0265 120.383Z" fill="#191411"/>
<path d="M80.5037 116.228C80.0484 116.455 79.593 116.569 79.0238 116.512C78.91 116.569 78.7962 116.569 78.6823 116.626C78.3977 116.74 78.0562 116.797 77.7716 116.911C77.7147 116.911 77.6009 116.968 77.5439 116.968C77.0886 117.195 76.6332 117.309 76.1779 117.366C76.121 117.366 76.064 117.423 76.0071 117.48C75.7794 117.537 75.6087 117.537 75.4379 117.537C75.0395 117.594 74.6411 117.707 74.2996 117.878C74.1857 117.935 74.0719 117.935 73.9011 117.935C73.1043 118.106 72.3074 118.277 71.4536 118.447C71.6244 118.732 71.6813 119.073 71.6813 119.358C73.0474 119.073 75.8364 118.163 75.6656 117.821C76.5763 117.651 76.1209 117.878 76.064 118.049C76.6901 117.878 77.0317 117.707 77.1455 117.594C77.4301 118.106 77.6009 118.163 77.6578 118.732C77.9424 118.732 79.593 118.277 80.2191 117.935C79.593 117.651 80.8452 116.797 80.7883 116.341C80.7314 116.228 80.6176 116.228 80.5037 116.228Z" fill="#191411"/>
<path d="M46.8684 119.984C47.0391 120.212 45.5592 120.212 47.7221 120.667C46.9253 120.269 48.1206 120.383 46.8684 119.984Z" fill="#191411"/>
<path d="M27.741 112.414C27.8548 112.357 27.6271 112.129 28.0825 112.243C27.8548 112.129 27.3995 111.959 26.8872 111.845C27.1718 112.072 27.4564 112.243 27.741 112.414Z" fill="#191411"/>
<path d="M4.92009 74.2215C4.57858 74.3922 4.52165 75.3029 3.95246 74.7907C4.18014 74.6199 4.3509 73.6523 4.80625 73.823C4.57857 72.8554 4.40782 71.8878 4.23706 70.8633C3.78171 71.034 3.32635 71.2617 3.04176 71.5463C2.47257 72.0586 3.38328 75.1322 5.48928 79.1165C5.88771 79.515 6.17231 79.6857 6.39999 79.7426C5.8308 77.9212 5.31853 76.0998 4.92009 74.2215Z" fill="#191411"/>
<path d="M1.1584 60.6741C0.93072 61.9833 1.1584 64.0324 2.69521 68.0736C3.2644 68.8705 3.66282 68.9843 3.94742 68.8705C3.8905 68.529 3.83359 68.1874 3.83359 67.8459C3.83359 67.7321 3.83359 67.6183 3.77667 67.4475C3.54899 63.0648 2.86596 57.9989 4.00434 54.0146C4.00434 53.9008 4.06126 53.73 4.06126 53.6162C4.11818 53.1039 4.1751 52.6486 4.28894 52.1363C4.28894 52.0225 4.34586 51.9086 4.34586 51.7948C4.1751 51.4533 4.11817 51.2256 4.17509 50.941C4.11817 50.9979 4.06127 50.8841 4.11819 50.7133C4.28894 50.4287 4.40277 50.258 4.45969 50.201C4.68736 49.7457 4.97196 49.2904 5.02887 48.5504C5.02887 48.4935 5.0858 48.3797 5.0858 48.3227C5.14272 48.0951 5.19964 47.8674 5.25656 47.5828C5.31348 47.469 5.31347 47.412 5.31347 47.3551C4.74428 46.2736 6.05342 45.8183 6.05342 44.7369C6.05342 44.6799 6.11035 44.623 6.11035 44.4523C6.16727 44.2815 6.22418 44.1107 6.2811 43.94C6.33802 43.8261 6.33802 43.7123 6.39494 43.5985C7.59024 42.9154 6.56568 40.9233 7.59022 40.3541C7.64714 40.2402 7.70407 40.1264 7.76099 40.0126C8.15942 38.0204 9.52547 36.882 9.69623 35.7437C9.75315 35.6298 9.81006 35.5729 9.86698 35.4591C9.9239 35.3452 9.98083 35.2883 10.0377 35.1745C10.0947 35.0606 10.1516 34.9468 10.2085 34.833C10.3793 34.0361 10.7777 33.2962 11.233 32.6131C11.1192 32.6131 11.0054 32.67 10.8346 32.727C11.29 31.9301 11.6315 31.5886 11.9161 31.6455C12.5422 30.7917 13.2821 29.9379 13.7375 29.0272C13.7944 28.9134 13.8513 28.7996 13.9651 28.7426C14.9897 27.2058 16.1281 25.7829 17.3234 24.3599C17.3803 24.2461 17.4941 24.1891 17.551 24.0753C17.9495 22.8231 19.2586 22.3677 20.2831 21.1155C20.397 21.0017 20.4539 20.9447 20.5677 20.8309C21.1939 20.2048 21.763 19.6356 22.4461 19.0664C22.5599 19.0095 22.6168 18.8957 22.7307 18.7818C22.9014 17.7573 24.0967 18.4972 24.3813 17.3589C24.4951 17.3019 24.5521 17.1881 24.6659 17.1312C25.8612 16.1066 27.1703 15.139 28.4795 14.2283C28.5933 14.1714 28.7071 14.0576 28.7641 14.0006C30.187 12.9192 31.4393 12.4069 32.7484 11.5531C30.7562 11.8377 32.0654 11.3255 31.9515 11.0978C31.61 10.6424 30.1301 10.4148 29.1625 10.0732C28.5364 10.5286 27.6826 10.6993 26.9427 11.1547C27.2842 11.3824 27.7395 11.5531 27.8534 11.8946C26.715 12.1792 26.5442 12.35 25.3489 12.5777C25.2351 12.6346 25.1782 12.6915 25.0643 12.8053C25.2351 12.7484 25.4058 12.7484 25.5766 12.6915C25.292 12.7484 25.1213 12.8053 25.0074 12.8623C24.8936 12.9192 24.8367 12.9761 24.7228 13.033C24.8936 13.0899 25.3489 13.0899 24.4382 13.3176C27.2272 13.3745 24.2105 14.5698 27.2842 14.6837C25.0074 14.7406 24.3244 14.2852 23.8121 13.773C23.8121 13.773 23.8121 13.773 23.7552 13.773C23.6414 13.8299 23.5275 13.9437 23.4706 14.0006C22.503 15.7651 19.9985 16.1636 19.2586 17.7004C19.1448 17.8142 19.0878 17.8711 18.974 17.985C18.8032 18.1557 18.6325 18.3265 18.4617 18.4972C18.4048 18.5542 18.3479 18.6111 18.3479 18.6111C17.7218 20.2617 15.7865 20.6602 14.7051 22.5954C14.5912 22.7092 14.5343 22.8231 14.4205 22.88C13.5667 23.9615 12.7129 25.0429 11.9161 26.1813C11.8591 26.2382 11.8022 26.352 11.7453 26.409C10.7777 26.409 11.233 28.3442 10.0947 28.8565C10.0378 28.9703 9.98082 29.0842 9.86698 29.198C9.75314 29.4257 9.5824 29.6533 9.46856 29.8241C9.41164 29.9379 9.35471 30.0518 9.29779 30.1656C9.18395 30.3933 9.07013 30.621 8.95629 30.9056C9.81008 30.6779 10.4931 30.8486 10.55 32.4993C9.58239 32.9546 9.07012 32.1578 8.27326 32.2716C6.85029 35.1745 5.54115 37.9635 4.34586 40.9233C4.40278 40.9233 4.45969 40.9233 4.51661 40.9802C4.74428 41.3217 4.11817 43.94 4.74428 43.3708C3.71974 45.5906 4.00434 44.0538 3.71975 44.0538C3.54899 44.0538 3.32131 44.1107 3.09364 44.2815C2.92288 44.7369 2.80905 45.1922 2.63829 45.6475C2.63829 45.7045 2.58137 45.7614 2.58137 45.8752C2.41061 46.5583 2.23986 47.2982 2.0691 47.9812C2.01218 48.0951 2.01218 48.2089 1.95526 48.3227C1.7845 49.1765 1.61375 50.0303 1.44299 50.8272C1.44299 50.941 1.38607 51.0548 1.38607 51.1687V51.2256C1.55682 51.1118 1.84143 50.6564 1.55684 51.624C3.20748 49.3473 2.6952 52.5348 4.51661 50.0872C3.15055 52.1363 2.29677 52.307 1.38607 52.4778C1.27223 52.4778 1.21531 52.7624 1.10147 53.1039C0.987636 53.9577 0.873798 54.8115 0.816879 55.6083C0.816879 55.7222 0.759957 55.836 0.759957 55.9499C0.759957 56.0637 0.75997 56.2345 0.703052 56.3483C0.930727 56.3483 1.04455 56.4052 1.10147 56.4052C2.18293 56.0068 2.35369 56.0068 1.89833 56.3483C2.4106 56.2345 2.97981 56.1776 2.97981 56.0637C3.89051 56.1206 3.03673 56.5191 2.69521 56.8606C3.03673 56.4621 1.95526 56.4621 0.646129 56.4621C0.532291 57.8851 0.475376 59.2512 0.418457 60.6172C0.418457 60.6742 0.418457 60.6741 0.418457 60.731C0.646133 60.8449 0.987639 60.9018 1.1584 60.6741ZM26.3166 14.9113C26.8857 14.8544 27.1134 14.9113 27.0565 15.0252C26.1458 15.1959 25.9181 15.0821 26.3166 14.9113ZM5.25656 43.0293C5.14273 43.3708 4.97196 43.8831 4.74428 44.5092C4.68736 44.4523 4.63045 44.4523 4.63045 44.3953C4.91505 43.4277 5.19964 42.8585 5.25656 43.0293Z" fill="#191411"/>
<path d="M68.8387 4.03987C67.9849 4.09679 67.9279 3.98296 67.9279 3.86912C67.4157 3.98296 67.0172 4.09678 66.7896 4.21062C66.9603 4.21062 67.0741 4.21062 67.2449 4.26754C67.8141 4.32446 68.4402 4.38137 69.0094 4.49521C69.0663 4.49521 69.0663 4.49521 69.1232 4.49521C69.1232 4.49521 69.1232 4.49522 69.0663 4.55213C73.1075 5.12132 77.035 6.08894 80.7347 7.39808C80.7916 7.455 80.9055 7.455 80.9624 7.455C82.3284 7.91035 82.9545 7.96727 83.8083 8.53646C83.9222 8.59338 84.036 8.65031 84.1498 8.70722C85.6866 9.39025 87.1665 10.0733 88.5895 10.8701C88.7033 10.9271 88.8172 10.984 88.931 11.0409C90.6386 11.8947 92.46 12.6915 93.7122 14.0007C93.7691 14.0576 93.826 14.0576 93.883 14.1145C97.355 16.5051 100.486 19.2372 103.331 22.2539C103.445 22.3678 103.502 22.4247 103.616 22.5385C104.356 23.9615 106.121 24.7583 106.519 25.9536C106.576 26.0106 106.576 26.0675 106.69 26.1244C106.747 26.2382 106.86 26.2952 106.917 26.409C106.974 26.4659 107.031 26.5228 107.031 26.5798C108.853 28.1166 109.251 30.621 110.845 32.1578C110.902 32.2147 110.902 32.2717 110.959 32.3286C111.3 32.8978 111.642 33.5239 111.983 34.15C112.04 34.2638 112.097 34.3776 112.154 34.4346C113.122 35.4022 113.577 37.2805 114.089 38.362C114.146 38.4189 114.146 38.5327 114.203 38.5896C114.26 38.7604 114.317 38.9312 114.431 39.045C114.488 39.1019 114.488 39.1588 114.488 39.2157C114.545 39.6711 114.829 40.468 115.171 41.2648C115.341 39.1588 116.252 38.305 117.22 37.5082C117.106 37.2236 116.992 36.939 116.821 36.6544C116.764 36.5406 116.707 36.4267 116.651 36.3129C116.821 35.6868 116.821 35.6868 116.309 35.6299C116.252 35.516 116.195 35.4022 116.138 35.2883C115.797 34.6053 115.455 33.9223 115.114 33.2962C115.057 33.1823 115 33.0685 114.943 32.9547C114.032 32.2716 114.146 31.0763 113.463 30.3933C113.406 30.3364 113.406 30.2795 113.349 30.2226C113.292 30.1656 113.292 30.1087 113.235 30.0518C113.178 29.938 113.122 29.8241 113.065 29.7103C113.122 28.4581 111.869 28.9703 111.869 27.832C111.812 27.7181 111.699 27.6043 111.642 27.5474C111.414 27.2059 111.129 26.8074 110.902 26.4659C110.845 26.409 110.845 26.3521 110.788 26.2952C109.82 24.4168 108.739 23.0508 107.145 21.6847C107.088 21.5709 106.974 21.4571 106.917 21.4001C106.121 20.4894 105.267 19.5787 104.356 18.668C104.299 18.6111 104.242 18.5542 104.185 18.4973C103.047 18.0988 103.104 17.4727 102.364 16.7328C102.307 16.6759 102.25 16.6189 102.193 16.562C101.909 16.3344 101.624 16.0498 101.339 15.8221C101.225 15.7652 101.169 15.6513 101.055 15.5944C100.827 15.3667 100.201 15.3098 100.486 15.0821C100.372 15.0252 100.315 14.9114 100.201 14.8545C97.2412 12.35 94.0537 10.1871 90.5816 8.25186C90.5247 8.19494 90.4678 8.19495 90.4109 8.13804C89.8417 7.34117 88.5326 7.79651 87.7926 6.77197C87.6788 6.71505 87.5649 6.65814 87.4511 6.60122C86.7112 6.25971 85.9712 5.9182 85.2313 5.57669C85.1744 5.57669 85.1174 5.51976 85.0036 5.51976C83.8652 4.83674 82.613 4.72289 81.1331 4.03987C81.0193 3.98295 80.9055 3.98294 80.7916 3.92602C80.3363 3.75527 79.8809 3.64144 79.3686 3.47068C79.141 4.38138 80.7916 4.89365 80.3362 5.97511C78.9133 5.12132 78.5148 4.03987 77.8887 3.01533C74.6444 2.10463 71.3431 1.42159 67.871 1.08008C67.9279 1.137 68.0987 1.25085 68.5541 1.25085C67.871 1.30776 67.6433 1.25084 67.6433 1.137C67.5864 1.137 67.5295 1.137 67.5295 1.19392C67.5864 1.30776 67.5295 1.42161 67.3587 1.59236C68.4402 1.7062 67.9849 2.10462 69.1802 2.21846C69.0663 2.33229 69.1802 2.44613 68.1556 2.50305C68.0418 2.67381 69.5786 2.50306 69.4647 2.67382C68.611 2.73074 68.3833 2.6169 67.7572 2.6169C66.2773 2.95841 67.6433 2.95841 67.3587 3.18608C67.7572 3.29992 68.4971 3.07224 69.294 3.07224C68.4971 3.18608 69.2371 3.35684 67.5295 3.47068C67.871 3.64144 68.2125 3.64144 67.3587 3.8122C67.5864 3.86911 68.0418 3.86911 68.611 3.8122C69.6924 3.58452 68.0418 3.58451 68.3264 3.41376C70.3185 3.52759 69.9201 3.64144 68.8387 4.03987ZM82.5561 5.86128C83.6945 5.57669 83.6945 5.86127 82.5561 6.03203C82.5561 5.97511 82.5561 5.9182 82.5561 5.86128ZM80.3362 6.2597C81.1331 6.2597 80.9624 6.43047 80.6778 6.65814C80.1655 6.65814 79.9947 6.37354 80.3362 6.2597ZM77.0919 3.69835C78.1734 3.75527 76.2381 3.92602 77.6611 3.92602C77.2057 3.98294 76.978 3.98295 76.9211 4.03987C75.4981 4.15371 76.7504 3.81219 77.0919 3.69835ZM75.9535 5.57669C75.0428 5.51977 75.0997 5.29209 75.2705 5.0075C76.295 4.89366 76.0674 5.34901 75.9535 5.57669ZM75.2705 4.43831C76.1243 4.26755 75.3843 4.66598 75.612 4.66598C75.0997 4.77982 74.5305 4.7229 75.2705 4.43831ZM73.3922 4.21062C73.6198 4.38137 72.1399 4.7229 72.9368 4.7229C71.5138 4.95058 72.9368 4.21062 73.3922 4.21062Z" fill="#191411"/>
<path d="M95.6438 110.934C94.2208 111.276 94.3347 111.162 94.5054 110.82C91.8303 111.674 93.4809 110.536 90.4642 111.503C90.5211 111.788 89.9519 112.186 89.0981 112.699C89.6104 112.699 91.6595 111.845 91.6595 111.959C90.4073 112.642 92.2287 112.699 92.5133 113.04C94.3347 112.471 94.107 112.414 95.4161 112.016C95.6438 111.902 95.8146 111.731 96.0423 111.617C95.8715 111.333 94.9608 111.503 95.6438 110.934Z" fill="#191411"/>
<path d="M17.949 99.7219C16.0137 97.559 14.3062 95.2822 12.7124 92.8347C12.6555 92.7778 12.6555 92.7209 12.5986 92.664C11.2895 90.6718 10.2649 88.7365 9.18348 86.5736C9.12656 86.5167 9.12655 86.4598 9.06964 86.4029C8.84196 85.9475 8.6712 85.5491 8.50045 85.0938C8.32969 85.1507 8.21586 85.2645 8.0451 85.3214C7.24824 85.7768 6.50829 86.346 6.56521 88.2243C6.33753 87.9966 6.2237 87.9397 6.10986 87.9397C6.84981 89.4765 7.87435 90.8995 8.67121 92.3794C8.72813 92.4932 8.78504 92.607 8.84196 92.7209C9.01272 93.0624 9.2404 93.347 9.41115 93.6885C9.46807 93.8023 9.52499 93.9162 9.63882 94.03C9.8665 94.2007 10.0373 94.4284 10.208 94.6561C11.8017 95.9653 13.5093 97.6728 14.1354 96.4775C15.0461 97.9574 15.8999 99.4373 16.7537 100.917C17.0383 100.405 17.6075 100.291 17.949 99.7219Z" fill="#191411"/>
<path d="M51.7581 28.345C51.6443 28.345 51.5304 28.4019 51.4166 28.4019C50.9612 27.7758 50.2213 28.9142 49.5952 28.8573C49.4813 28.9142 49.3675 28.9142 49.2537 28.9711C48.1722 29.2557 47.0908 29.6542 46.0662 30.0526C45.9524 30.1095 45.8385 30.1664 45.7247 30.1664C45.2124 29.6541 44.4156 30.8495 44.0171 30.9064C43.9033 30.9633 43.7895 31.0202 43.6756 31.0771C40.9435 32.3293 38.2683 33.98 35.8208 35.9721L37.813 38.4766C40.5451 36.2567 43.5048 34.5492 46.5785 33.297C46.6923 33.24 46.8062 33.1831 46.9769 33.1262C50.6197 31.5325 55.0594 30.7356 59.1576 30.7356C59.2714 30.7356 59.4421 30.7356 59.556 30.7356C60.6943 30.6787 61.2636 30.7356 62.2881 30.8494C62.4019 30.8494 62.5158 30.8494 62.6296 30.8494C62.8573 30.8494 63.028 30.9064 63.2557 30.9064C63.3695 30.9064 63.4834 30.9064 63.6541 30.9633C65.0202 31.134 65.5894 31.191 66.6139 31.4756C66.6708 31.4756 66.7278 31.4756 66.8416 31.4756C66.9555 31.4756 67.0693 31.5325 67.1831 31.5325C68.7768 30.9064 69.2891 32.1586 70.0291 32.2724C70.1429 32.3293 70.2567 32.3862 70.3706 32.3862C72.0212 32.8985 73.615 33.5816 75.1518 34.3215C75.2087 34.3215 75.2656 34.3784 75.3225 34.4353C75.3794 34.4923 75.4363 34.4923 75.4933 34.5492C76.6316 32.9554 76.2902 36.0291 76.8024 35.2891C76.9163 35.346 77.0301 35.403 77.1439 35.4599C77.8839 35.8583 78.5669 36.3137 79.2499 36.769C79.3069 36.8259 79.3638 36.8829 79.4776 36.8829C82.3235 38.5335 84.4865 41.2087 86.5924 43.4854C86.5924 43.4854 86.5924 43.4854 86.5924 43.5424C86.8201 42.7455 87.4462 42.8024 87.8447 42.5747C87.9016 42.5178 87.9585 42.4609 88.0154 42.404C88.5846 41.9486 89.0969 41.5502 89.0969 41.5502C86.5925 38.4766 83.7465 35.9152 80.616 33.8092C80.559 33.7523 80.5021 33.6954 80.4452 33.6385C78.0546 31.191 74.4118 30.7925 71.6797 29.4265C71.6228 29.4265 71.5659 29.3696 71.452 29.3696C70.9398 29.1988 70.3706 29.028 69.8583 28.8573C69.7445 28.8004 69.6306 28.8004 69.5168 28.7434C68.3784 28.9142 67.7523 28.8573 66.9554 28.1743C66.8416 28.1743 66.7278 28.1173 66.6139 28.1173C65.7032 27.9466 64.8494 27.8327 63.9387 27.7189C63.8818 27.7189 63.768 27.7189 63.6541 27.7758C63.5972 27.7758 63.5972 27.7189 63.6541 27.7189C63.4265 27.7189 63.1988 27.662 62.9711 27.662C62.8573 27.662 62.7435 27.662 62.5727 27.662C62.4589 27.7189 62.2312 27.7189 62.0604 27.7189C61.7758 27.8897 61.662 28.0604 62.1743 28.1173C61.5482 28.1742 61.5481 28.2312 61.0928 28.345C62.2312 28.2881 60.4098 28.9142 62.5727 28.6296C62.5158 28.8004 61.6051 28.9711 62.4589 29.028C61.2636 29.3696 60.4098 29.4265 60.0114 29.7111C60.3529 29.7111 61.3205 29.4834 61.9466 29.5403C61.662 29.5972 61.6051 29.7111 61.7189 29.768C61.1497 29.8249 59.7837 29.8818 60.239 30.0526C59.2714 30.0526 59.3283 29.8249 59.4422 29.5972C61.4343 29.5403 59.4991 29.3126 61.6051 29.085C61.2066 29.028 60.1821 29.1419 59.556 29.1988C59.3852 28.6296 59.6129 28.1173 60.0114 27.6051C58.9299 27.5481 57.6207 27.4912 56.6531 27.7758C56.5393 27.7758 56.4255 27.7758 56.3116 27.8327C56.1978 27.8327 56.0839 27.8327 55.9701 27.8897C55.8563 27.8897 55.7424 27.8897 55.6286 27.9466C54.9456 27.7758 54.3194 27.662 54.5471 28.0604C54.4333 28.0604 54.3195 28.1173 54.2056 28.1173C53.238 28.0604 52.4981 28.1743 51.7581 28.345ZM65.191 28.345C64.9633 28.5158 64.9633 28.5158 65.4186 28.6296C65.0202 28.6865 64.6787 28.7434 64.2803 28.8004C64.6787 28.6865 64.5648 28.6865 63.8249 28.7434C63.768 28.6296 64.2233 28.5158 65.191 28.345Z" fill="#191411"/>
<path d="M63.3152 23.8477C63.2014 23.8477 63.0875 23.8477 62.9168 23.8477C62.8029 23.8477 62.746 23.8477 62.6322 23.8477C62.5753 23.8477 62.5183 23.9046 62.4614 23.9046C62.746 23.8477 62.9737 23.8477 63.3152 23.8477Z" fill="#191411"/>
<path d="M67.2421 95.2246C67.3559 95.2246 67.4697 95.1676 67.6405 95.1676C68.1528 95.1107 68.6081 94.9969 69.1204 94.883C69.2342 94.883 69.3481 94.8261 69.4619 94.8261C72.2509 94.0293 74.2431 92.9478 76.6906 92.4355C76.8045 92.3786 76.9183 92.3217 77.0321 92.2648C79.8211 90.9557 82.5533 89.305 85.0577 87.3128L83.0655 84.8084C82.724 85.093 82.3256 85.3776 81.9272 85.6622C81.8133 85.7761 81.7564 85.776 81.6995 85.833C79.195 87.2559 77.0891 89.4758 73.9585 90.1019C73.9016 90.1588 73.8447 90.1588 73.7308 90.1588C73.4462 90.2726 73.1616 90.3865 72.8201 90.5003C72.7063 90.5572 72.5924 90.5572 72.4786 90.6141C71.9094 91.411 71.3971 90.1588 71.0556 91.0695C70.9418 91.1264 70.828 91.1264 70.7141 91.1833C68.3235 91.8663 65.876 92.2648 63.4285 92.4355C63.3147 92.4355 63.2008 92.4355 63.087 92.4355C62.6316 91.6956 61.8348 92.834 61.2656 92.4925C61.1517 92.4925 61.0379 92.4925 60.8672 92.4925C60.6964 92.4925 60.5257 92.4925 60.298 92.4925C60.2411 92.4925 60.1841 92.4925 60.0703 92.4925C59.6719 92.7202 59.2165 92.9478 58.8181 93.2324C58.8181 93.2893 58.3627 93.1755 58.0781 93.1186C57.8504 93.0617 57.5659 93.0047 57.3382 92.8909C57.9074 92.834 58.0212 92.6632 58.135 92.4355C57.7935 92.3786 57.5089 92.3217 57.1674 92.2648C57.0536 92.2648 56.9397 92.2079 56.8259 92.2079C55.6875 92.0371 54.5491 91.8664 53.4108 91.5818C53.2969 91.5248 53.1831 91.5249 53.1262 91.5249C52.0447 91.2403 50.7356 91.6956 50.2233 90.6141C50.0526 90.5003 49.8818 90.3865 49.711 90.2726C49.3695 90.1019 49.028 89.9311 48.5727 90.1019C48.5157 90.1019 48.4588 90.0449 48.345 90.0449C47.7189 89.7603 47.0928 89.5327 46.4097 89.1912C46.2959 89.1342 46.1821 89.0773 46.0683 89.0204C45.3852 88.6789 45.3852 88.6789 44.7022 88.3374C44.5883 88.2805 44.4745 88.2235 44.3607 88.1666C40.604 86.0606 37.132 83.2147 34.286 79.6857L31.7816 81.6779C32.4077 82.4748 33.0907 83.2147 33.7737 83.9546C33.8876 84.0685 33.9445 84.1254 34.0583 84.2392C35.1398 85.7191 36.9612 85.9468 37.5873 87.7682C37.6442 87.882 37.7012 87.939 37.7581 87.9959C37.8719 88.1097 38.0996 88.1666 38.3273 88.0528C38.3842 88.1097 38.4411 88.1097 38.498 88.1666C38.8965 88.4512 39.3518 88.7928 39.7502 89.0773C39.8072 89.1343 39.8641 89.1912 39.921 89.1912C40.0348 89.1912 40.0918 89.2481 40.2056 89.305C40.3194 89.3619 40.3764 89.3619 40.4902 89.4188C40.9455 89.4758 41.5717 89.5327 41.6855 90.2157C41.7424 90.2726 41.8562 90.3296 41.9701 90.3865C42.1408 90.5003 42.3116 90.6711 42.5393 90.7849C42.6531 90.8418 42.7669 90.8987 42.8808 90.9557C47.2066 93.3463 51.9309 94.8261 56.769 95.3953C56.769 95.3384 56.9397 95.3384 57.5658 95.4522C57.7935 95.4522 57.9643 95.5092 58.192 95.5092C57.6797 95.3384 57.0536 95.1108 56.9397 95.0538C56.7121 94.8262 57.5659 94.9969 57.2243 94.7123C56.086 94.3708 56.5413 94.7123 55.4029 94.3139C54.8907 93.7447 57.5089 94.8261 57.5658 94.5985C57.9643 94.7692 57.9643 94.8262 58.7042 95.0538C58.7611 95.2246 57.7366 95.2246 58.6473 95.5661C60.9241 95.7368 63.1439 95.6799 65.4207 95.4522C65.5345 95.4522 65.6483 95.4523 65.8191 95.3953C66.5021 95.2815 66.5021 95.2815 67.2421 95.2246ZM58.3627 93.3463C59.7288 93.7447 57.9074 93.8585 56.5982 93.2893C57.6797 93.517 58.3627 93.5739 58.3627 93.3463ZM59.2734 94.7123C58.2489 94.4277 58.6473 94.7692 58.5904 94.94C56.9398 94.4277 58.875 94.5985 57.3951 94.0862C57.3382 93.9154 58.7042 94.4277 59.2165 94.5415C58.9888 94.5415 58.3627 94.3708 58.5335 94.5415C59.2165 94.5985 60.1841 95.0538 60.0703 95.2246C59.558 94.9969 59.3872 94.8261 59.2734 94.7123ZM61.4933 95.3384C60.1841 95.0538 60.9241 94.94 60.6964 94.7692C61.3794 94.9969 61.5502 95.2246 61.4933 95.3384Z" fill="#191411"/>
<path d="M63.0892 7.79744L62.9185 7.68359C62.9185 7.68359 62.9185 7.74052 62.9185 7.85436C62.9754 7.79744 63.0323 7.79744 63.0892 7.79744Z" fill="#191411"/>
<path d="M63.371 7.96777C63.3141 8.02469 63.2003 8.0247 63.0864 8.08162C63.2003 8.08162 63.371 8.13854 63.5987 8.13854L63.371 7.96777Z" fill="#191411"/>
<path d="M36.4575 74.7925V73.9387C37.3682 73.6541 37.8805 73.0849 37.8805 72.288V49.2359C37.8805 48.3821 37.4251 47.8698 36.4575 47.5852V46.7314H40.7834L52.7933 62.2134V49.2359C52.7933 48.439 52.3379 47.8698 51.4841 47.5852V46.7314H55.2408V47.5852C54.4439 47.8698 54.0455 48.4959 54.0455 49.3497V72.288C54.0455 72.7434 54.1593 73.0849 54.2731 73.3126C54.4439 73.5403 54.7854 73.7679 55.2408 73.9387V74.7925H51.4841V73.9387C52.3379 73.6541 52.7933 73.0849 52.7933 72.288V67.6776L39.1327 50.1466V72.288C39.1327 73.0849 39.5311 73.6541 40.328 73.9387V74.7925H36.4575Z" fill="#191411"/>
<path d="M59.1685 60.6764C59.1685 56.4075 60.5345 52.8785 63.2097 50.2033C65.8849 47.5281 69.4139 46.1621 73.6828 46.1621C77.724 46.1621 81.0253 47.5282 83.5866 50.2603C86.148 52.9924 87.4002 56.5213 87.4002 60.8472C87.4002 65.0592 86.0911 68.5312 83.4159 71.2633C80.7407 73.9954 77.4394 75.4184 73.3412 75.4184C69.0154 75.4184 65.5433 74.1093 62.982 71.4341C60.4776 68.702 59.1685 65.1161 59.1685 60.6764ZM62.1282 58.6274L62.2421 59.7657C62.5836 63.4655 64.0065 66.7098 66.6248 69.5558C69.1862 72.4017 71.9752 73.8247 74.9919 73.8247C77.7809 73.8247 80.0007 72.8571 81.7652 70.9218C83.5297 68.9866 84.3835 66.4252 84.3835 63.2378C84.3835 59.1965 83.0744 55.6106 80.4561 52.4801C77.8378 49.3496 74.8781 47.8128 71.4629 47.8128C68.6739 47.8128 66.3971 48.7804 64.6896 50.7725C62.982 52.7647 62.1282 55.383 62.1282 58.6274Z" fill="#191411"/>
<path d="M23.7661 23.5651L24.0507 23.2236L25.5306 24.5328L25.246 24.8743C24.9045 24.8174 24.6199 24.8174 24.3922 24.8174C24.1646 24.8174 23.88 24.9312 23.5954 25.045C23.0262 25.3296 22.457 25.6711 22.0586 26.1834C21.034 27.3218 20.6356 28.6309 20.8064 29.997C20.9771 31.42 21.774 32.6722 23.14 33.9244C24.4492 35.1197 25.8721 35.7458 27.2951 35.7458C28.7181 35.8027 29.9703 35.2335 30.9379 34.1521C31.7348 33.2413 32.1901 32.2168 32.2471 31.0215C32.304 29.8831 31.9055 28.9155 31.1087 28.2325C30.4826 27.7202 29.9134 27.7771 29.3442 28.4032L28.9457 28.8586L28.6612 28.574L31.0518 25.8988C31.6209 26.3542 32.0194 26.8664 32.2471 27.2649C32.4178 27.5495 32.6455 28.0048 32.8162 28.6309C33.1008 29.6555 33.1577 30.68 32.9301 31.7045C32.7024 32.7291 32.1901 33.6967 31.3933 34.5505C30.198 35.9165 28.6612 36.6565 26.8967 36.8272C25.1322 36.9411 23.5385 36.4288 22.1724 35.2335C21.4325 34.6074 20.8633 33.7536 20.4648 32.786C20.0664 31.8184 19.8956 30.8508 19.9526 29.8262C20.0095 28.3463 20.5787 26.9803 21.6032 25.8419C22.1724 25.2158 22.6847 24.7604 23.3108 24.4189L23.7092 24.0774C23.7092 23.9636 23.7661 23.7928 23.7661 23.5651Z" fill="#191411"/>
<path d="M26.2725 37.169C24.6218 37.169 23.1419 36.5999 21.8897 35.4615C21.1498 34.7785 20.5236 33.9247 20.1252 32.957C19.7268 31.9325 19.4991 30.908 19.556 29.8834C19.6129 28.3466 20.1821 26.9236 21.2636 25.7283C21.8328 25.1022 22.402 24.59 23.0281 24.2485L23.4265 23.9639C23.4834 23.9069 23.4834 23.7931 23.4834 23.6223C23.4834 23.5654 23.4834 23.4516 23.5403 23.3947L23.8249 23.0532C23.9388 22.9393 24.1095 22.9393 24.2234 23.0532L25.7033 24.3623C25.8171 24.4761 25.8171 24.6469 25.7033 24.7607L25.4187 25.1022C25.3618 25.1592 25.2479 25.2161 25.191 25.2161C24.8495 25.1592 24.5649 25.1592 24.3941 25.1592C24.1664 25.1592 23.9388 25.2161 23.6542 25.3299C23.085 25.5576 22.6296 25.956 22.1743 26.4114C21.2067 27.4928 20.8082 28.6881 20.979 29.9973C21.1497 31.3064 21.8897 32.5586 23.1988 33.7539C24.4511 34.8923 25.8171 35.4615 27.1832 35.5184C27.2401 35.5184 27.297 35.5184 27.3539 35.5184C28.663 35.5184 29.6876 35.0061 30.5983 34.0385C31.3952 33.1847 31.7936 32.1602 31.7936 31.0787C31.8505 29.9973 31.509 29.1435 30.7121 28.5174C30.1999 28.062 29.8014 28.1189 29.3461 28.6881L28.9476 29.1435C28.8338 29.2573 28.6631 29.2573 28.5492 29.1435L28.2646 28.8589C28.2077 28.802 28.1508 28.745 28.1508 28.6881C28.1508 28.6312 28.1508 28.5174 28.2077 28.4604L30.5983 25.7853C30.7121 25.6714 30.8829 25.6714 30.9967 25.7853C31.5659 26.2406 31.9643 26.7529 32.2489 27.2651C32.4766 27.6067 32.6474 28.062 32.8751 28.6881C33.2166 29.7696 33.2166 30.851 32.9889 31.9325C32.7043 33.014 32.192 34.0385 31.3952 34.8923C30.1429 36.3153 28.5492 37.1121 26.6709 37.226C26.614 37.169 26.4432 37.169 26.2725 37.169ZM24.0526 23.6793C24.0526 23.9639 23.9957 24.1915 23.8249 24.3623L23.3696 24.7038C22.8004 25.0453 22.2312 25.5576 21.7189 26.1268C20.7513 27.2651 20.1821 28.5174 20.1252 29.9403C20.0683 30.908 20.2391 31.8187 20.6375 32.7294C21.0359 33.6401 21.5482 34.4369 22.2881 35.063C23.5973 36.2014 25.0772 36.7137 26.7847 36.5999C28.4923 36.486 29.9722 35.7461 31.1106 34.4369C31.8505 33.5831 32.3059 32.7294 32.5335 31.7048C32.7612 30.7372 32.7612 29.7127 32.4766 28.745C32.3059 28.1759 32.1351 27.7205 31.9074 27.4359C31.6798 27.0375 31.3382 26.696 30.9398 26.2975L29.6876 27.7205C30.1999 27.4928 30.7121 27.6067 31.2244 28.062C32.0782 28.8589 32.4766 29.8265 32.4766 31.0787C32.4197 32.274 31.9643 33.4124 31.1106 34.38C30.086 35.5184 28.8907 36.0876 27.4108 36.0876C27.3539 36.0876 27.297 36.0876 27.2401 36.0876C25.7602 36.0307 24.2803 35.4046 22.9142 34.1523C21.4913 32.9001 20.6944 31.5341 20.5236 30.0542C20.3529 28.5743 20.7513 27.2082 21.8328 26.0129C22.2881 25.5007 22.8573 25.1022 23.4834 24.8176C23.825 24.7038 24.1095 24.59 24.3941 24.59C24.6218 24.59 24.8495 24.59 25.191 24.6469L24.0526 23.6793Z" fill="#191411"/>
<path d="M38.5082 27.7194L38.3375 27.3779C38.6221 27.0933 38.7359 26.7518 38.5651 26.4672L33.6132 17.3602C33.4424 17.0756 33.1578 16.9617 32.7025 17.0187L32.5317 16.6772L35.833 14.9127C36.4591 14.5712 36.9145 14.3435 37.3129 14.2866C37.7114 14.1727 38.1667 14.1158 38.6221 14.1727C39.7035 14.2296 40.5573 14.7988 41.0696 15.8234C41.5249 16.6772 41.5818 17.5309 41.2403 18.3847C41.1265 18.6693 40.9557 18.897 40.8419 19.0677C40.6711 19.2385 40.4435 19.5231 40.1019 19.8077L40.9557 20.263C41.5818 20.6615 42.3218 21.1738 43.1187 21.7999C43.6309 22.1983 43.9155 22.426 43.9724 22.4829C44.257 22.7106 44.5416 22.8813 44.8831 23.0521C45.2246 23.2228 45.5092 23.3367 45.7369 23.3936C45.9646 23.3936 46.2492 23.3367 46.4769 23.2228L46.6476 23.5074C46.2492 23.7351 45.9077 23.9059 45.68 23.9628C45.4523 24.0197 45.1677 24.1335 44.8831 24.1335C44.4847 24.1904 44.0863 24.1335 43.6878 23.9628C43.2894 23.792 42.7771 23.4505 42.0941 22.9382L41.0696 22.1414L40.1019 21.4014C39.7604 21.1738 39.6466 21.0599 39.5897 21.0599C39.5897 21.0599 39.4758 21.003 39.3051 20.9461C38.9636 20.8322 38.5651 20.8322 38.1667 21.0599L37.8821 21.2307L37.7683 21.2876C37.7113 21.3445 37.6544 21.3445 37.6544 21.3445L37.5975 21.4014L39.9312 25.6703C40.102 26.0119 40.3865 26.1257 40.785 26.0688L40.9557 26.4103L38.5082 27.7194ZM34.6946 16.1649L37.256 20.8892L38.2236 20.3769C38.7928 20.0354 39.1912 19.8077 39.4758 19.5231C39.7035 19.2954 39.8743 18.9539 39.9312 18.6124C40.045 17.9294 39.9312 17.2464 39.5328 16.6202C39.362 16.3356 39.1343 16.0511 38.8497 15.7665C38.5651 15.4819 38.2805 15.3111 38.0529 15.1973C37.4268 14.9696 36.6868 15.0834 35.833 15.5388L34.6946 16.1649Z" fill="#191411"/>
<path d="M38.5082 28.0043C38.3944 28.0043 38.3375 27.9474 38.2806 27.8335L38.1098 27.492C38.0529 27.3782 38.0529 27.2643 38.1667 27.1505C38.4513 26.8659 38.3944 26.6952 38.3375 26.5244L33.3855 17.4174C33.3286 17.3035 33.2148 17.1328 32.7594 17.1897C32.6456 17.1897 32.5317 17.1328 32.4748 17.0189L32.3041 16.6774C32.2472 16.5636 32.3041 16.3928 32.4179 16.279L35.7192 14.5145C36.3453 14.173 36.8576 13.9453 37.256 13.8315C37.7114 13.7176 38.1667 13.6607 38.679 13.7176C39.8743 13.8315 40.785 14.4007 41.3542 15.4821C41.8664 16.4498 41.9234 17.3605 41.5249 18.2712C41.4111 18.5557 41.2403 18.8403 41.0696 19.068C40.9557 19.1819 40.785 19.3526 40.5573 19.5803L41.0127 19.8649C41.6957 20.2633 42.4356 20.7756 43.2325 21.4586L43.6878 21.8001C43.9155 21.9709 44.0294 22.0847 44.0863 22.0847C44.3709 22.3124 44.6555 22.4832 44.9401 22.6539C45.2247 22.8247 45.4523 22.9385 45.68 22.9385C45.8508 22.9385 46.0784 22.8816 46.2492 22.7677C46.363 22.7108 46.5338 22.7108 46.5907 22.8247L46.8184 23.1093C46.8753 23.1662 46.8753 23.28 46.8753 23.3369C46.8753 23.3939 46.8184 23.5077 46.7614 23.5077C46.363 23.7354 46.0215 23.9061 45.7369 24.02C45.4523 24.1338 45.1677 24.1907 44.8831 24.2476C44.4278 24.3046 43.9724 24.2476 43.574 24.0769C43.1756 23.9061 42.6064 23.5646 41.9234 23.0523L39.8743 21.4586C39.5897 21.2879 39.4189 21.174 39.4189 21.1171L39.1912 21.0033C38.9636 20.8894 38.6221 20.9463 38.2806 21.1171L37.8821 21.2878L40.1019 25.386C40.2158 25.6137 40.3865 25.6706 40.6711 25.6137C40.785 25.6137 40.8988 25.6706 40.9557 25.7275L41.1265 26.069C41.1834 26.126 41.1834 26.1829 41.1265 26.2967C41.1265 26.3536 41.0696 26.4106 41.0127 26.4675L38.6221 27.7766C38.6221 28.0043 38.5651 28.0043 38.5082 28.0043ZM33.044 16.6774C33.4994 16.6774 33.727 16.962 33.8409 17.1897L38.7928 26.2967C38.9067 26.4675 39.0205 26.8659 38.7928 27.2074L40.4435 26.2967C40.102 26.2398 39.8743 26.069 39.7035 25.7845L37.3698 21.5155C37.3129 21.4586 37.3129 21.3448 37.3698 21.2309C37.3698 21.174 37.4268 21.1171 37.4837 21.0602C37.4837 21.0602 37.5406 21.0033 37.6544 20.9463L38.0529 20.7187C38.5651 20.4341 39.0205 20.3772 39.4189 20.5479L39.6466 20.6618H39.7035C39.7604 20.6618 39.9312 20.7756 40.2727 21.0033L42.3218 22.597C42.9479 23.1093 43.4602 23.4508 43.8017 23.5646C44.1432 23.6784 44.4847 23.7354 44.8262 23.6784C45.1108 23.6215 45.3385 23.5646 45.5662 23.5077C45.5662 23.5077 45.6231 23.5077 45.68 23.4508C45.3954 23.3939 45.1108 23.28 44.7124 23.1093C44.3709 22.9385 44.0863 22.7108 43.8017 22.4831C43.7448 22.4262 43.6309 22.3693 43.4033 22.1416L42.9479 21.8001C42.151 21.174 41.4111 20.6617 40.785 20.2633L39.9881 19.808C39.9312 19.7511 39.8743 19.6941 39.8174 19.5803C39.8174 19.4664 39.8174 19.4095 39.9312 19.3526C40.2727 19.0111 40.5004 18.7834 40.6711 18.6127C40.785 18.4419 40.9557 18.2142 41.0696 17.9866C41.4111 17.2466 41.3542 16.4497 40.8988 15.6529C40.3865 14.7422 39.6466 14.2299 38.679 14.173C38.2236 14.1161 37.8252 14.173 37.4837 14.2868C37.1422 14.4007 36.6299 14.5714 36.0607 14.9129L33.044 16.6774ZM37.256 21.174C37.1422 21.174 37.0853 21.1171 37.0283 21.0033L34.467 16.279C34.4101 16.2221 34.4101 16.1652 34.467 16.0513C34.467 15.9944 34.5239 15.9375 34.5808 15.8806L35.7761 15.2545C36.6868 14.7422 37.5406 14.6283 38.2236 14.9129C38.5082 15.0268 38.7928 15.1975 39.1343 15.5391C39.4189 15.8236 39.7035 16.1651 39.8743 16.4497C40.2727 17.1897 40.3866 17.9296 40.2727 18.6127C40.2158 19.0111 40.045 19.4095 39.7604 19.6941C39.4758 19.9787 39.0774 20.2633 38.4513 20.6048L37.4837 21.1171C37.3698 21.174 37.3129 21.174 37.256 21.174ZM35.0931 16.279L37.4268 20.5479L38.1667 20.1495C38.7359 19.8649 39.1343 19.5803 39.3051 19.3526C39.5328 19.1249 39.6466 18.8973 39.7035 18.5557C39.8174 17.9296 39.7035 17.3604 39.362 16.7343C39.1913 16.4497 39.0205 16.1652 38.7359 15.9375C38.5082 15.7098 38.2236 15.539 37.996 15.4821C37.4268 15.2545 36.8007 15.3683 36.0038 15.8236L35.0931 16.279Z" fill="#191411"/>
<path d="M47.4997 16.2229C47.1581 14.3446 47.4996 12.694 48.5242 11.271C49.4918 9.84802 50.9717 8.99424 52.85 8.70964C54.6145 8.42505 56.2082 8.76656 57.5174 9.7911C58.8265 10.8156 59.6803 12.2386 60.0218 14.1738C60.3633 16.0522 60.0218 17.6459 59.0542 19.0689C58.0866 20.4918 56.7205 21.3456 54.956 21.6302C53.0208 21.9717 51.4271 21.6302 50.061 20.6626C48.6949 19.6381 47.8412 18.1582 47.4997 16.2229ZM48.638 15.0846L48.7518 15.5968C49.1503 17.1905 50.061 18.5566 51.427 19.5811C52.7931 20.6057 54.1022 21.061 55.4683 20.8334C56.7205 20.6057 57.6312 20.0365 58.2573 19.012C58.8834 18.0443 59.0542 16.849 58.8265 15.4261C58.5419 13.6616 57.6881 12.1817 56.2651 10.9864C54.8991 9.7911 53.4192 9.33574 51.9393 9.62033C50.6871 9.84801 49.7764 10.4172 49.1503 11.4417C48.5811 12.4094 48.4104 13.6616 48.638 15.0846Z" fill="#191411"/>
<path d="M53.5325 22.0277C52.1664 22.0277 50.9142 21.6293 49.8327 20.8893C48.4667 19.8648 47.556 18.328 47.2145 16.2789C46.873 14.3436 47.2145 12.5791 48.239 11.1562C49.2636 9.67628 50.8004 8.76557 52.7356 8.48098C54.6139 8.13947 56.2646 8.53791 57.6306 9.56245C58.9967 10.6439 59.9074 12.1807 60.2489 14.116C60.5904 16.0512 60.2489 17.7588 59.2244 19.2387C58.1998 20.7186 56.7769 21.6293 54.8985 21.9708C54.5001 21.9708 53.9878 22.0277 53.5325 22.0277ZM49.4913 10.5301C49.2067 10.8147 48.922 11.0993 48.6944 11.4408C47.7268 12.7499 47.4421 14.3436 47.7267 16.165C48.0683 18.0434 48.8651 19.4663 50.1173 20.4339C51.4265 21.4016 52.9633 21.6862 54.7847 21.3447C56.4923 21.0601 57.8014 20.2632 58.7121 18.8971C59.6228 17.5311 59.9074 15.9374 59.6228 14.1729C59.2813 12.3515 58.4844 10.9285 57.2322 9.96087C55.98 8.99325 54.4432 8.65175 52.7925 8.93634C51.9388 9.1071 51.1988 9.33477 50.5158 9.7332C50.9142 9.56245 51.3126 9.39168 51.8249 9.33476C53.4186 9.05017 54.8985 9.56244 56.3784 10.7577C57.8014 11.953 58.7121 13.5468 58.9967 15.3682C59.2244 16.8481 59.0536 18.1003 58.3706 19.1248C57.6876 20.2063 56.7199 20.8324 55.4108 21.0601C53.9878 21.2877 52.5649 20.8893 51.1419 19.7509C49.7189 18.6695 48.8082 17.2465 48.3529 15.5958L48.239 15.0836C48.239 15.0836 48.239 15.0836 48.239 15.0267C47.9544 13.5468 48.1821 12.2376 48.8082 11.1562C49.1497 10.9854 49.3205 10.7577 49.4913 10.5301ZM48.9221 15.0267L49.0359 15.482C49.4343 17.0188 50.2881 18.328 51.5972 19.3525C52.9064 20.377 54.1586 20.7186 55.4108 20.5478C56.5492 20.377 57.403 19.8079 57.9721 18.8971C58.5413 17.9864 58.7121 16.8481 58.4844 15.482C58.1998 13.7744 57.3461 12.3515 56.0369 11.2131C54.7278 10.0747 53.3617 9.67628 51.9388 9.90395C50.7435 10.1316 49.9466 10.6439 49.3774 11.6115C48.8651 12.5222 48.6944 13.6606 48.9221 15.0267Z" fill="#191411"/>
<path d="M65.5435 8.1953L65.6004 7.79688L68.5602 8.42299L68.5032 8.82141C68.0479 8.82141 67.7633 8.99218 67.7064 9.27677V9.3906L68.6171 18.7253L72.4876 12.2935L72.886 12.3504L73.6259 19.6929L78.2933 11.6674L78.3502 11.4966C78.4071 11.212 78.1795 10.9843 77.7241 10.7566L77.781 10.3582L80.0578 10.8136L80.0009 11.212C79.5455 11.212 79.204 11.3828 78.9763 11.7243L72.886 22.1404L72.3737 22.0266L71.6338 14.7979L67.8202 21.059L67.308 20.9451L66.1126 8.93525C66.0557 8.70758 65.9988 8.53682 65.9419 8.42299C65.885 8.42299 65.7711 8.30913 65.5435 8.1953Z" fill="#191411"/>
<path d="M72.8291 22.4831H72.7721L72.2599 22.3692C72.1461 22.3692 72.0322 22.2554 72.0322 22.1415L71.4061 15.7666L68.0479 21.3447C67.991 21.4585 67.8771 21.5154 67.7633 21.4585L67.251 21.3447C67.1372 21.3447 67.0234 21.2308 67.0234 21.117L65.828 9.10711C65.7711 8.93636 65.7711 8.76561 65.7142 8.70869C65.7142 8.65177 65.6004 8.59484 65.4296 8.481C65.3158 8.42408 65.2589 8.31024 65.3158 8.19641L65.3727 7.79798C65.3727 7.74107 65.4296 7.68414 65.4865 7.62722C65.5435 7.5703 65.6004 7.57031 65.7142 7.57031L68.674 8.19641C68.8447 8.25333 68.9017 8.36717 68.9017 8.53792L68.8448 8.93636C68.8448 9.0502 68.7309 9.16403 68.5602 9.16403C68.3325 9.16403 68.0479 9.22095 68.0479 9.39171V9.44863L68.8448 17.8726L72.3168 12.1807C72.3737 12.0669 72.4876 12.0669 72.6014 12.0669L72.9998 12.1238C73.1137 12.1238 73.2275 12.2377 73.2275 12.3515L73.9105 18.8402L78.1794 11.4408C78.1794 11.3839 78.0087 11.2131 77.6672 11.0424C77.5534 10.9854 77.4964 10.8716 77.4964 10.7578L77.5533 10.3593C77.5533 10.3024 77.6103 10.2455 77.6672 10.1886C77.7241 10.1316 77.8379 10.1317 77.8948 10.1317L80.1716 10.587C80.2285 10.587 80.2854 10.6439 80.3424 10.7009C80.3993 10.7578 80.3993 10.8147 80.3993 10.9285L80.3424 11.3269C80.3424 11.4408 80.2285 11.5546 80.0578 11.5546C79.6593 11.5546 79.4317 11.6685 79.2609 11.9531L73.1706 22.3692C73.0567 22.4261 72.9429 22.4831 72.8291 22.4831ZM72.6014 21.8569H72.7152L78.7486 11.6115C78.9763 11.27 79.204 11.0993 79.6024 10.9854L78.3502 10.7009C78.6917 10.9285 78.8056 11.2131 78.7486 11.4977L78.6917 11.6685L73.9675 19.751C73.9105 19.8648 73.7967 19.9217 73.6829 19.8648C73.569 19.8648 73.4552 19.7509 73.4552 19.6371L72.7152 12.5222L71.463 14.6283C71.5199 14.5144 71.6338 14.5144 71.7476 14.5144C71.8615 14.5144 71.9753 14.6282 71.9753 14.7421L72.6014 21.8569ZM67.5356 20.8324H67.6494L71.1784 15.0267L68.8448 18.8402C68.7878 18.9541 68.674 19.011 68.5602 18.9541C68.4463 18.9541 68.3325 18.8402 68.3325 18.7264L67.4218 9.27788C67.4787 8.99329 67.6495 8.76561 67.991 8.65177L65.9419 8.19641C65.9988 8.25333 66.0557 8.36718 66.1126 8.4241C66.1695 8.59485 66.2265 8.7656 66.2834 9.05019L67.5356 20.8324Z" fill="#191411"/>
<path d="M83.7047 14.7424L85.1846 13.4902L91.1041 16.8484L90.8195 18.7837L90.4211 18.7268C90.478 18.1576 90.4211 17.7591 90.2504 17.3607C90.0796 17.0192 89.795 16.7346 89.3397 16.45L88.5428 15.9947L83.1924 25.5001C83.0216 25.8416 83.0216 26.1262 83.3062 26.4677L83.1355 26.8093L80.688 25.4432L80.8587 25.1017C81.3141 25.2155 81.5987 25.1017 81.7694 24.7602L87.1198 15.2547L86.3799 14.8563C85.9245 14.5717 85.5261 14.4578 85.1277 14.5148C84.7292 14.5717 84.3308 14.7424 83.8185 15.084L83.7047 14.7424Z" fill="#191411"/>
<path d="M83.1913 27.0365C83.1344 27.0365 83.0775 27.0365 83.0775 26.9796L80.6299 25.6135C80.573 25.5566 80.5161 25.4997 80.5161 25.4428C80.5161 25.3859 80.5161 25.272 80.5161 25.2151L80.6869 24.8736C80.7438 24.7598 80.8576 24.7028 80.9715 24.7597C81.3699 24.8167 81.4837 24.7028 81.5976 24.5321L86.7772 15.3112L86.2649 15.0266C85.8665 14.7989 85.5249 14.6851 85.1834 14.742C84.8419 14.7989 84.4435 14.9697 83.9882 15.2543C83.9312 15.3112 83.8743 15.3112 83.7605 15.3112C83.7035 15.3112 83.6466 15.2543 83.5897 15.1974L83.419 14.8559C83.362 14.742 83.362 14.5713 83.4759 14.5143L84.9558 13.2621C85.0696 13.2052 85.1834 13.1483 85.2973 13.2052L91.2169 16.5634C91.3307 16.6203 91.3876 16.7342 91.3307 16.848L91.0461 18.7833C91.0461 18.8402 90.9892 18.8971 90.9323 18.954C90.8753 19.0109 90.8184 19.0109 90.7046 19.0109L90.3061 18.954C90.1354 18.954 90.0785 18.7833 90.0785 18.6694C90.1354 18.1572 90.0785 17.7587 89.9077 17.4741C89.737 17.1895 89.5093 16.9049 89.1109 16.6773L88.5986 16.3927L83.419 25.6135C83.3051 25.8412 83.3051 26.012 83.4759 26.2396C83.5328 26.3535 83.5897 26.4673 83.5328 26.5812L83.3621 26.9227C83.3051 26.9796 83.2482 27.0365 83.1913 27.0365C83.2482 27.0365 83.2482 27.0365 83.1913 27.0365ZM81.313 25.3859L83.0205 26.3535C82.8498 26.0689 82.9067 25.7274 83.0775 25.3859L88.4278 15.8804C88.4847 15.8235 88.5417 15.7666 88.5986 15.7666C88.6555 15.7666 88.7693 15.7666 88.8263 15.7666L89.6231 16.2219C90.1354 16.5065 90.4769 16.848 90.6477 17.2465C90.7046 17.4172 90.7615 17.588 90.8184 17.7587L90.9323 16.9619L87.5171 15.0266C87.574 15.0835 87.631 15.1405 87.631 15.1974C87.631 15.2543 87.631 15.3681 87.631 15.4251L82.2806 24.9305C81.996 25.1013 81.7683 25.3289 81.313 25.3859ZM85.4111 14.1728C85.8096 14.1728 86.208 14.2867 86.6633 14.5713L86.9479 14.742L85.2404 13.7744L84.5573 14.3436C84.785 14.2298 85.0127 14.1728 85.2404 14.1728C85.2404 14.1728 85.3542 14.1728 85.4111 14.1728Z" fill="#191411"/>
<path d="M87.9146 29.7694L88.1991 29.4848C88.5976 29.6556 88.8821 29.6556 89.1667 29.371L96.5662 22.1992C96.8508 21.9715 96.8508 21.63 96.68 21.2885L96.9646 21.0039L98.843 22.9392L98.5584 23.2238C98.2168 23.053 97.9323 23.1099 97.6477 23.3376L94.8017 26.0697L98.6722 30.054L101.518 27.3219C101.803 27.0942 101.86 26.8096 101.689 26.4681L101.973 26.1835L103.795 28.0619L103.51 28.3465C103.169 28.1757 102.827 28.1757 102.6 28.4603L95.1432 35.689C94.9155 35.9167 94.8586 36.2582 95.0863 36.6566L94.8017 36.9412L92.9234 35.006L93.208 34.7214C93.5495 34.8921 93.8341 34.8352 94.0618 34.5506L98.2738 30.5094L94.4033 26.525L90.2482 30.5663C90.0775 30.737 90.0205 30.8509 89.9636 30.9647C89.9067 31.0786 89.9636 31.2493 90.0205 31.4201L89.7359 31.7047L87.9146 29.7694Z" fill="#191411"/>
<path d="M94.8581 37.1693C94.8011 37.1693 94.6873 37.1693 94.6304 37.1124L92.7521 35.1771C92.6383 35.0633 92.6383 34.8925 92.7521 34.7787L93.0367 34.4941C93.0936 34.4372 93.2644 34.3803 93.3213 34.4372C93.549 34.551 93.7197 34.4941 93.8905 34.3234L97.8748 30.4529L94.4027 26.867L90.4184 30.6805C90.2476 30.8513 90.1907 30.9651 90.1907 30.9651C90.1907 31.022 90.1907 31.079 90.2477 31.2497C90.3046 31.3636 90.2477 31.4774 90.1907 31.5343L89.9062 31.8189C89.8492 31.8758 89.7923 31.8758 89.7354 31.8758C89.6784 31.8758 89.5646 31.8189 89.5646 31.8189L87.6863 29.8837C87.6294 29.8268 87.6294 29.7698 87.6294 29.7129C87.6294 29.656 87.6863 29.5422 87.6863 29.5422L87.9709 29.2576C88.0278 29.2006 88.1986 29.1437 88.3124 29.2007C88.6539 29.3714 88.8247 29.2576 88.9385 29.1437L96.338 21.9719C96.4518 21.8581 96.5656 21.6874 96.3949 21.4028C96.338 21.2889 96.3949 21.1751 96.4518 21.0612L96.7364 20.7766C96.7933 20.7197 96.8502 20.7197 96.9072 20.7197C96.9641 20.7197 97.0779 20.7197 97.1348 20.7766L99.0132 22.7119C99.0701 22.7688 99.0701 22.8257 99.0701 22.8827C99.0701 22.9396 99.0132 23.0534 98.9562 23.0534L98.6716 23.338C98.6147 23.3949 98.444 23.4518 98.3301 23.3949C98.1025 23.2811 97.9317 23.2811 97.761 23.4518L95.1427 26.0132L98.6147 29.5991L101.233 27.0377C101.404 26.867 101.461 26.6962 101.347 26.4685C101.29 26.3547 101.347 26.2409 101.404 26.1839L101.688 25.8994C101.802 25.7855 101.973 25.7855 102.087 25.8994L103.908 27.7777C104.022 27.8915 104.022 28.0623 103.908 28.1761L103.624 28.4607C103.51 28.5745 103.396 28.5745 103.282 28.5176C103.054 28.4038 102.884 28.4038 102.713 28.5745L95.3704 35.8602C95.3134 35.9171 95.1427 36.0878 95.3704 36.4863C95.4273 36.6001 95.3704 36.714 95.3134 36.8278L95.0289 37.1124C94.9719 37.1124 94.915 37.1693 94.8581 37.1693ZM93.4351 35.0633L94.7443 36.3724C94.6304 35.9171 94.8012 35.6325 95.0289 35.4617L102.485 28.233C102.77 27.9484 103.054 27.8915 103.396 27.9484L102.087 26.5824C102.144 26.9239 102.03 27.2085 101.745 27.4931L98.8993 30.2252C98.8424 30.2821 98.7855 30.2821 98.7286 30.2821C98.6717 30.2821 98.5578 30.2252 98.5578 30.2252L94.6873 26.2409C94.6304 26.1839 94.6304 26.127 94.6304 26.0701C94.6304 26.0132 94.6873 25.8994 94.6873 25.8994L97.5333 23.1672C97.8179 22.8827 98.1025 22.8257 98.444 22.8827L97.0779 21.5166C97.1348 21.915 96.9641 22.2565 96.7933 22.4273L89.3939 29.5991C89.1662 29.7698 88.8816 29.9975 88.4262 29.8837L89.7354 31.1928C89.7354 31.079 89.7354 30.9651 89.7354 30.8513C89.7923 30.6805 89.9061 30.5098 90.0769 30.339L94.232 26.2978C94.3458 26.184 94.5166 26.184 94.6304 26.2978L98.5009 30.2821C98.6147 30.396 98.6147 30.5667 98.5009 30.6805L94.2889 34.7218C94.0043 35.0064 93.7197 35.1202 93.4351 35.0633Z" fill="#191411"/>
<path d="M12.7778 80.8267L13.1193 80.6559C13.4039 80.9405 13.7455 81.0544 14.087 80.8836L23.4786 76.5008C23.8201 76.3301 23.9339 76.0455 23.9339 75.704L24.2755 75.5332L25.4138 77.9807L25.0723 78.1515C24.7877 77.8669 24.5031 77.81 24.1616 77.9807L20.5757 79.6883L22.9094 84.6972L26.4953 82.9896C26.8368 82.8188 26.9506 82.5912 26.9506 82.2497L27.2922 82.0789L28.4305 84.4695L28.089 84.6402C27.8044 84.3556 27.5198 84.2418 27.1783 84.4126L17.7298 88.8522C17.4452 89.023 17.2744 89.3076 17.3313 89.706L16.9898 89.8768L15.8514 87.4293L16.193 87.2585C16.4776 87.4862 16.7622 87.5431 17.0467 87.3724L22.3402 84.8679L20.0065 79.8591L14.77 82.3066C14.5423 82.4204 14.4285 82.4773 14.3716 82.5912C14.3147 82.705 14.2577 82.8757 14.2577 83.0465L13.9162 83.2173L12.7778 80.8267Z" fill="#191411"/>
<path d="M16.9876 90.1031C16.8738 90.1031 16.7599 90.0461 16.7599 89.9323L15.6215 87.4848C15.5646 87.3709 15.6216 87.2002 15.7354 87.1433L16.0769 86.9725C16.1907 86.9156 16.3046 86.9156 16.4184 87.0294C16.5892 87.2002 16.7599 87.2002 16.9876 87.0864L22.0534 84.6958L19.9474 80.1422L14.9385 82.4759C14.7109 82.5897 14.6539 82.6467 14.6539 82.7036C14.597 82.7605 14.597 82.8744 14.597 82.9882C14.597 83.102 14.5401 83.2159 14.4262 83.2728L14.0847 83.4435C13.9709 83.5005 13.8001 83.4435 13.7432 83.3297L12.6049 80.8822C12.5479 80.7683 12.6048 80.5976 12.7187 80.4837L13.0602 80.313C13.174 80.2561 13.2879 80.313 13.4017 80.3699C13.6863 80.6545 13.914 80.5976 14.0278 80.5407L23.4194 76.1579C23.5902 76.101 23.704 75.9872 23.704 75.6456C23.704 75.5318 23.7609 75.418 23.8748 75.361L24.2163 75.1903C24.3301 75.1334 24.5009 75.1903 24.6147 75.3041L25.7531 77.7516C25.81 77.8086 25.81 77.9224 25.7531 77.9793C25.7531 78.0363 25.6962 78.0932 25.5824 78.1501L25.2408 78.3208C25.127 78.3778 25.0132 78.3209 24.8993 78.2639C24.7286 78.0932 24.5578 78.0362 24.3301 78.1501L20.9719 79.7438L23.0779 84.2973L26.4361 82.7036C26.6638 82.5898 26.7777 82.4759 26.7207 82.1913C26.7207 82.0775 26.7777 81.9636 26.8915 81.9067L27.233 81.736C27.4038 81.6791 27.5176 81.736 27.6314 81.8498L28.7698 84.2404C28.8267 84.3543 28.7698 84.525 28.656 84.6388L28.2006 84.8665C28.0868 84.9234 27.9729 84.8665 27.8591 84.8096C27.6884 84.5819 27.5176 84.5819 27.2899 84.6388L17.8414 89.0785C17.7845 89.1354 17.5568 89.1924 17.6137 89.6477C17.6137 89.7615 17.5568 89.8754 17.443 89.9323L17.1014 90.1031C17.0445 90.1031 17.0445 90.1031 16.9876 90.1031ZM16.2477 87.6556L17.0445 89.3631C17.1014 88.9078 17.3291 88.6801 17.6137 88.5662L27.0622 84.1266C27.4038 83.9558 27.7453 84.0127 28.0299 84.1835L27.233 82.4759C27.1761 82.8174 26.9484 83.0451 26.6069 83.2158L23.021 84.9234C22.9641 84.9803 22.8503 84.9803 22.7933 84.9234C22.7364 84.9234 22.6795 84.8665 22.6226 84.7527L20.2889 79.7438C20.232 79.63 20.2889 79.4592 20.4027 79.3454L23.9886 77.6378C24.3301 77.467 24.6716 77.524 24.9562 77.6947L24.1594 75.9302C24.1025 76.2717 23.9317 76.5564 23.5902 76.7271L14.1986 81.1099C13.8571 81.2806 13.5156 81.2237 13.174 81.0529L13.9709 82.7605C13.9709 82.6467 14.0278 82.5328 14.0847 82.4759C14.1986 82.3052 14.3693 82.1913 14.597 82.0775L19.8335 79.63C19.8905 79.573 19.9474 79.573 20.0612 79.63C20.1181 79.63 20.1751 79.6869 20.232 79.8007L22.5657 84.8665C22.6226 84.9803 22.5657 85.1511 22.4518 85.2649L17.1584 87.7694C16.8738 87.7694 16.5323 87.7694 16.2477 87.6556Z" fill="#191411"/>
<path d="M25.4145 91.2964C26.7805 89.9304 28.3173 89.1904 30.0249 89.1904C31.7325 89.1904 33.2693 89.8165 34.6922 91.1826C36.0014 92.4348 36.6275 93.9147 36.5706 95.6223C36.5137 97.2729 35.8306 98.8097 34.4646 100.233C33.1554 101.599 31.6186 102.282 29.9111 102.339C28.2035 102.396 26.6667 101.77 25.3575 100.517C23.9346 99.1513 23.2515 97.6144 23.3085 95.9638C23.2515 94.3131 23.9915 92.7763 25.4145 91.2964ZM26.9513 91.581L26.6098 91.9795C25.5283 93.2886 25.016 94.7685 24.9591 96.4761C24.9022 98.1836 25.3576 99.5497 26.3252 100.46C27.2359 101.314 28.2604 101.713 29.4557 101.656C30.651 101.599 31.7325 101.03 32.7001 100.005C33.9523 98.6959 34.6922 97.1591 34.8061 95.3377C34.9199 93.5163 34.4646 92.0933 33.3831 91.0118C32.4724 90.1011 31.4479 89.7596 30.2526 89.8166C29.1142 89.9873 28.0327 90.5565 26.9513 91.581Z" fill="#191411"/>
<path d="M29.6818 102.681C27.9742 102.681 26.4374 102.055 25.1283 100.746C23.7053 99.3231 22.9653 97.7294 22.9653 95.9649C22.9653 94.2004 23.7053 92.6067 25.1852 91.1268C26.6082 89.7038 28.2019 88.9639 29.9664 88.9639H30.0233C31.7878 88.9639 33.3815 89.6469 34.8045 91.0699C36.1705 92.379 36.8536 93.9727 36.7966 95.7372C36.7397 97.5017 35.9998 99.0954 34.6337 100.518C33.2677 101.941 31.6739 102.681 29.8525 102.738C29.7956 102.681 29.7387 102.681 29.6818 102.681ZM30.0802 89.4761H30.0233C28.3726 89.4761 26.8927 90.1591 25.6405 91.4683C24.2745 92.8343 23.5914 94.3712 23.5914 95.9649C23.5914 97.5586 24.2176 99.0385 25.5836 100.291C26.7789 101.486 28.2019 102.055 29.7387 102.055C29.7956 102.055 29.8525 102.055 29.9094 102.055C31.5601 101.998 33.04 101.315 34.2922 100.006C35.6013 98.6401 36.2844 97.1602 36.3413 95.5664C36.3982 93.9727 35.7721 92.5498 34.5199 91.3545C33.8938 90.7284 33.2107 90.273 32.5277 89.9315C32.9262 90.1592 33.2677 90.3868 33.6661 90.7283C34.8045 91.8667 35.3167 93.3466 35.146 95.2819C34.9752 97.1602 34.2353 98.8108 32.9261 100.12C31.9016 101.201 30.7063 101.771 29.511 101.828C28.2588 101.884 27.1204 101.486 26.2097 100.575C25.1852 99.5508 24.7298 98.1278 24.7867 96.3633C24.8437 94.5988 25.4129 93.0051 26.5512 91.696L26.8928 91.2975C27.9742 90.2161 29.1126 89.59 30.3648 89.4761C30.7063 89.4761 31.0478 89.4761 31.3324 89.5331C30.8771 89.5331 30.4786 89.4761 30.0802 89.4761ZM27.1773 91.7529L26.8928 92.1513C25.8682 93.4035 25.3559 94.8834 25.299 96.5341C25.2421 98.1847 25.6405 99.4369 26.5512 100.348C27.405 101.145 28.3726 101.543 29.4541 101.486C30.5356 101.429 31.5601 100.917 32.5277 99.9492C33.723 98.697 34.463 97.1602 34.5768 95.4526C34.6906 93.745 34.2353 92.3221 33.2107 91.3545C32.357 90.5576 31.4463 90.1592 30.3079 90.273C29.1695 90.2161 28.145 90.7853 27.1773 91.7529Z" fill="#191411"/>
<path d="M36.0005 108.431L36.1712 108.089C36.6266 108.146 36.9112 108.032 37.025 107.691L41.4647 98.2425C41.6354 97.9009 41.5216 97.6164 41.1801 97.3318L41.3509 96.9902L44.766 98.584C45.3921 98.8686 45.8474 99.1532 46.189 99.3808C46.5305 99.6085 46.8151 99.95 47.0427 100.348C47.6119 101.259 47.6688 102.284 47.1566 103.308C46.7581 104.219 46.0751 104.731 45.1644 104.959C44.8798 105.016 44.5952 105.073 44.3676 105.016C44.1399 105.016 43.7415 104.959 43.2861 104.845L43.3999 105.756C43.4569 106.496 43.4569 107.406 43.4569 108.431C43.4569 109.057 43.4569 109.455 43.4569 109.512C43.4569 109.854 43.4569 110.195 43.5138 110.594C43.5707 110.992 43.6276 111.277 43.7414 111.448C43.8553 111.675 44.083 111.846 44.3676 111.96L44.2537 112.301C43.7984 112.074 43.5138 111.903 43.2861 111.789C43.0584 111.675 42.8877 111.505 42.66 111.277C42.3754 110.992 42.2046 110.594 42.0908 110.195C41.977 109.797 41.977 109.171 41.977 108.317L42.0339 107.008V105.756C42.0339 105.357 42.0339 105.187 41.977 105.13C41.977 105.13 41.977 105.016 41.9201 104.845C41.8062 104.504 41.5785 104.219 41.1232 103.991L40.8386 103.877L40.7248 103.821C40.6678 103.764 40.6109 103.764 40.554 103.764C40.554 103.764 40.4971 103.764 40.4402 103.764L38.3341 108.203C38.1634 108.545 38.2203 108.829 38.5618 109.114L38.3911 109.455L36.0005 108.431ZM43.1154 98.4701L40.7817 103.365L41.8062 103.821C42.3754 104.105 42.8877 104.276 43.2292 104.333C43.5707 104.39 43.9122 104.333 44.2537 104.162C44.8798 103.877 45.3352 103.365 45.6767 102.682C45.8475 102.341 45.9044 101.999 45.9613 101.658C46.0182 101.259 46.0182 100.975 45.9044 100.69C45.7336 100.064 45.2213 99.4947 44.3106 99.0962L43.1154 98.4701Z" fill="#191411"/>
<path d="M44.2509 112.701C44.194 112.701 44.194 112.701 44.1371 112.701C43.6818 112.473 43.3402 112.302 43.1695 112.188C42.9418 112.075 42.7141 111.847 42.4865 111.619C42.1449 111.278 41.9742 110.879 41.8603 110.424C41.7465 109.969 41.6896 109.342 41.7465 108.489L41.8034 105.927C41.8034 105.643 41.8034 105.415 41.8034 105.358C41.8034 105.301 41.7465 105.244 41.7465 105.074C41.6896 104.789 41.4619 104.561 41.1204 104.391L40.722 104.22L38.7298 108.432C38.616 108.659 38.6729 108.83 38.9006 109.001C39.0144 109.058 39.0144 109.229 38.9575 109.342L38.7867 109.684C38.7298 109.798 38.5591 109.912 38.4452 109.798L35.9408 108.603C35.8839 108.546 35.8269 108.489 35.77 108.432C35.77 108.375 35.77 108.261 35.77 108.204L35.9408 107.863C35.9977 107.749 36.1115 107.692 36.2254 107.692C36.6238 107.749 36.7377 107.635 36.7946 107.464L41.2342 98.0156C41.2912 97.9018 41.3481 97.6741 41.0635 97.3895C41.0066 97.3326 40.9496 97.1619 41.0066 97.048L41.1773 96.7065C41.2342 96.5926 41.405 96.5357 41.5758 96.5926L44.9909 98.1864C45.617 98.471 46.1293 98.7556 46.4708 99.0402C46.8123 99.3248 47.1538 99.6663 47.3815 100.122C48.0076 101.146 48.0645 102.228 47.5522 103.366C47.0969 104.334 46.3569 104.96 45.3893 105.187C45.0478 105.244 44.7632 105.301 44.4786 105.244C44.3079 105.244 44.0802 105.187 43.7387 105.13L43.7956 105.7C43.8525 106.44 43.8525 107.35 43.8525 108.432V109.229C43.8525 109.399 43.8525 109.513 43.8525 109.513C43.8525 109.855 43.8525 110.196 43.9094 110.595C43.9664 110.936 44.0233 111.164 44.1371 111.335C44.194 111.505 44.3648 111.619 44.5924 111.733C44.7063 111.79 44.7632 111.961 44.7063 112.075L44.5924 112.416C44.5924 112.473 44.5355 112.53 44.4217 112.587C44.3648 112.701 44.3079 112.701 44.2509 112.701ZM42.3157 105.244C42.3157 105.301 42.3157 105.358 42.3726 105.927L42.3157 108.546C42.3157 109.342 42.3157 109.969 42.4295 110.367C42.5434 110.709 42.7141 111.05 42.9418 111.278C43.1126 111.449 43.3402 111.619 43.511 111.733L43.5679 111.79C43.4541 111.562 43.3402 111.221 43.2833 110.822C43.2264 110.424 43.2264 110.082 43.2264 109.684C43.2264 109.627 43.2264 109.513 43.2264 109.342V108.546C43.2833 107.521 43.2833 106.61 43.1695 105.87L43.0556 104.96C43.0556 104.846 43.0556 104.789 43.1695 104.732C43.2264 104.675 43.3402 104.675 43.3972 104.675C43.9094 104.789 44.194 104.846 44.4217 104.846C44.6494 104.846 44.877 104.846 45.1616 104.789C45.9585 104.618 46.5846 104.106 46.9261 103.309C47.3815 102.341 47.3246 101.488 46.8123 100.634C46.5846 100.235 46.3 99.9509 46.0154 99.7232C45.7308 99.4955 45.2755 99.2109 44.6494 98.9263L41.6327 97.5034C41.8604 97.9018 41.8034 98.2433 41.6896 98.471L37.2499 107.92C37.1361 108.147 36.9653 108.432 36.51 108.489L38.2175 109.286C38.0468 109.001 38.0468 108.659 38.1606 108.318L40.2666 103.878C40.3235 103.821 40.3805 103.764 40.4943 103.708C40.5512 103.708 40.6651 103.708 40.722 103.708C40.7789 103.708 40.8358 103.764 40.8927 103.764L41.2912 103.935C41.8034 104.163 42.145 104.504 42.2588 104.96C42.2588 105.074 42.3157 105.187 42.3157 105.244ZM43.4541 104.618C43.3402 104.618 43.2833 104.618 43.1695 104.618C42.771 104.561 42.3157 104.391 41.6896 104.106L40.665 103.651C40.5512 103.594 40.4943 103.423 40.5512 103.252L42.8849 98.3571C42.9418 98.2433 43.1126 98.1864 43.2833 98.2433L44.4786 98.8125C45.4462 99.2678 46.0154 99.8939 46.2431 100.577C46.3 100.862 46.3569 101.26 46.3 101.658C46.2431 102.057 46.1293 102.455 45.9585 102.797C45.617 103.537 45.1047 104.106 44.4217 104.447C44.0802 104.561 43.7956 104.618 43.4541 104.618ZM41.1773 103.195L41.9173 103.537C42.4865 103.821 42.9418 103.935 43.2833 103.992C43.6248 104.049 43.8525 103.992 44.1371 103.821C44.7063 103.537 45.1047 103.081 45.4462 102.455C45.5601 102.171 45.6739 101.829 45.7308 101.488C45.7877 101.146 45.7878 100.862 45.6739 100.634C45.5032 100.065 45.0478 99.6094 44.2509 99.2109L43.2833 98.7556L41.1773 103.195Z" fill="#191411"/>
<path d="M49.8874 114.007L49.9444 113.609C50.3428 113.552 50.6274 113.267 50.6843 112.869L51.9934 102.623C52.0504 102.282 51.8796 101.997 51.4812 101.826L51.5381 101.428L53.8718 101.713L56.0916 108.087L59.7913 102.509L61.9542 102.794L61.8973 103.192C61.4989 103.249 61.2712 103.477 61.2143 103.819L59.9052 114.064C59.8483 114.462 60.019 114.747 60.4174 114.918L60.3605 115.316L57.6284 114.975L57.6853 114.576C58.0838 114.519 58.3684 114.292 58.3684 113.893L59.6775 103.705L55.4655 110.194H55.2378L52.5626 102.794L51.2535 112.983C51.1966 113.381 51.3674 113.666 51.7658 113.893L51.7088 114.292L49.8874 114.007Z" fill="#191411"/>
<path d="M60.3614 115.659C60.3045 115.659 60.3045 115.659 60.3614 115.659L57.5724 115.317C57.5154 115.317 57.4585 115.26 57.4016 115.203C57.3447 115.146 57.3447 115.089 57.3447 114.976L57.4016 114.577C57.4016 114.463 57.5155 114.349 57.6293 114.349C57.9139 114.293 58.0846 114.179 58.0846 113.894L59.223 104.901L55.6371 110.365C55.5802 110.422 55.5233 110.479 55.4094 110.479H55.1818C55.0679 110.479 54.9541 110.422 54.9541 110.308L52.6773 103.99L51.4821 113.04C51.4251 113.325 51.539 113.496 51.8236 113.666C51.9374 113.723 51.9943 113.837 51.9943 113.951L51.9374 114.349C51.9374 114.52 51.7666 114.634 51.6528 114.577L49.8883 114.349C49.8314 114.349 49.7745 114.292 49.7175 114.236C49.6606 114.179 49.6606 114.122 49.6606 114.008L49.7175 113.609C49.7175 113.496 49.8314 113.382 49.9452 113.382C50.2298 113.325 50.4006 113.154 50.4575 112.87L51.7667 102.624C51.7667 102.453 51.7666 102.283 51.4251 102.112C51.3113 102.055 51.2544 101.941 51.2544 101.827L51.3113 101.429C51.3113 101.372 51.3682 101.315 51.4251 101.258C51.482 101.201 51.539 101.201 51.6528 101.201L53.9865 101.486C54.1003 101.486 54.1572 101.543 54.2142 101.657L56.2632 107.462L59.6784 102.34C59.7353 102.226 59.8491 102.226 59.963 102.226L62.1259 102.51C62.2966 102.51 62.4105 102.681 62.3536 102.795L62.2966 103.193C62.2966 103.307 62.1828 103.421 62.069 103.421C61.6705 103.478 61.6136 103.649 61.6136 103.819L60.3045 114.065C60.2476 114.349 60.3614 114.52 60.646 114.634C60.7598 114.691 60.8167 114.805 60.8167 114.919L60.7598 115.317C60.7598 115.374 60.7029 115.431 60.646 115.488C60.4752 115.602 60.4183 115.659 60.3614 115.659ZM58.0846 114.805L59.963 115.032C59.6784 114.805 59.5645 114.463 59.6215 114.065L60.9306 103.819C60.9306 103.592 61.1013 103.25 61.4998 103.023L59.906 102.795L56.3202 108.259C56.2632 108.373 56.2063 108.373 56.0356 108.373C55.9217 108.373 55.8648 108.316 55.8079 108.202L53.645 101.998L51.8805 101.77C52.2789 102.055 52.2789 102.453 52.222 102.681L50.9129 112.926C50.8559 113.325 50.6283 113.609 50.3437 113.78L51.2544 113.894C50.9698 113.666 50.8559 113.325 50.9129 112.926L52.222 102.738C52.222 102.624 52.3358 102.51 52.4496 102.51C52.6204 102.453 52.6773 102.567 52.7342 102.681L55.2956 109.796L59.3938 103.535C59.4507 103.421 59.6215 103.364 59.7353 103.421C59.8491 103.478 59.906 103.592 59.906 103.706L58.5969 113.894C58.5969 114.349 58.3692 114.634 58.0846 114.805Z" fill="#191411"/>
<path d="M66.2243 108.999C65.7689 107.121 65.9966 105.47 66.9073 103.99C67.818 102.511 69.184 101.543 71.0624 101.088C72.8268 100.632 74.4206 100.917 75.8436 101.828C77.2665 102.738 78.1772 104.161 78.6326 106.04C79.0879 107.861 78.8603 109.569 78.0065 111.048C77.1527 112.528 75.8436 113.496 74.0222 113.894C72.1438 114.35 70.4932 114.122 69.0702 113.211C67.6472 112.358 66.6796 110.935 66.2243 108.999ZM67.3057 107.804L67.4765 108.259C67.9887 109.853 69.0133 111.105 70.4363 112.073C71.8592 113.041 73.2253 113.382 74.5344 113.041C75.7297 112.756 76.6404 112.073 77.2096 111.048C77.7788 110.024 77.8926 108.829 77.5511 107.406C77.0958 105.641 76.1851 104.218 74.7052 103.137C73.2253 102.055 71.7454 101.714 70.2655 102.055C69.0133 102.34 68.1595 103.023 67.5903 104.047C67.0211 105.129 66.9642 106.381 67.3057 107.804Z" fill="#191411"/>
<path d="M72.1433 114.463C70.948 114.463 69.8665 114.178 68.8989 113.552C67.419 112.642 66.4514 111.105 65.9391 109.113C65.4837 107.177 65.7114 105.413 66.6221 103.876C67.5328 102.339 69.0127 101.315 70.948 100.859C72.8263 100.404 74.4769 100.689 75.8999 101.656C77.3798 102.624 78.3474 104.104 78.8028 106.039C79.2581 107.974 79.0305 109.682 78.1198 111.219C77.2091 112.755 75.843 113.78 73.9647 114.235C73.3955 114.349 72.7694 114.463 72.1433 114.463ZM67.8744 103.193C67.5898 103.478 67.3621 103.819 67.1344 104.161C66.2806 105.527 66.0529 107.177 66.5083 108.942C66.9636 110.82 67.8743 112.186 69.1835 113.04C70.5495 113.894 72.0863 114.121 73.9077 113.666C75.6153 113.268 76.8675 112.357 77.7213 110.934C78.5182 109.511 78.7458 107.917 78.3474 106.153C77.8921 104.331 76.9814 102.965 75.6723 102.112C74.3631 101.258 72.8263 101.03 71.1187 101.428C70.3219 101.656 69.5819 101.941 68.9558 102.339C69.3542 102.112 69.7527 101.941 70.208 101.884C71.7448 101.485 73.3386 101.884 74.8754 103.022C76.4122 104.161 77.3798 105.641 77.8352 107.462C78.1767 108.885 78.0628 110.194 77.4936 111.275C76.9244 112.357 75.9568 113.097 74.6477 113.438C73.2247 113.78 71.8018 113.438 70.3219 112.414C68.842 111.389 67.8174 110.08 67.2482 108.43L67.0775 107.974C66.736 106.494 66.8498 105.185 67.419 104.047C67.4759 103.648 67.6467 103.421 67.8744 103.193ZM67.5328 107.747L67.7036 108.202C68.2159 109.739 69.1835 110.934 70.5496 111.902C71.9156 112.812 73.1678 113.154 74.42 112.812C75.5584 112.528 76.3553 111.902 76.8675 110.934C77.3798 109.966 77.4936 108.828 77.1521 107.519C76.7537 105.811 75.7861 104.445 74.42 103.421C72.9971 102.396 71.631 102.055 70.208 102.396C69.0696 102.681 68.2728 103.307 67.7605 104.274C67.3052 105.185 67.2482 106.38 67.5328 107.747Z" fill="#191411"/>
<path d="M86.2565 109.171L86.0288 108.829C86.3134 108.488 86.3704 108.146 86.1427 107.862L80.5077 99.1532C80.337 98.8117 79.9955 98.7548 79.597 98.8686L79.4263 98.5271L81.0769 97.5026L89.3871 100.405L86.1996 95.5105C86.0289 95.2259 85.6873 95.112 85.2889 95.2259L85.0613 94.8843L86.4842 93.9736L86.7119 94.3151C86.4842 94.6566 86.4842 94.9412 86.7119 95.2828L92.2899 103.991C92.4038 104.162 92.5176 104.276 92.6315 104.333C92.7453 104.39 92.916 104.39 93.1437 104.333L93.3714 104.674L91.9484 105.585L91.7207 105.244C91.9484 104.902 92.0054 104.617 91.7777 104.333L90.6393 102.568L81.1907 99.2671L86.598 107.634C86.7688 107.919 87.0534 108.033 87.4518 107.976L87.6795 108.317L86.2565 109.171Z" fill="#191411"/>
<path d="M86.2582 109.399H86.2013C86.1444 109.399 86.0874 109.342 86.0305 109.285L85.8028 108.944C85.7459 108.83 85.7459 108.716 85.8028 108.602C86.0874 108.261 85.9736 108.09 85.9167 107.976L80.2817 99.2675C80.1679 99.0967 80.054 98.9829 79.6556 99.0968C79.5418 99.1537 79.4279 99.0967 79.371 98.9829L79.1433 98.6414C79.0864 98.5845 79.0864 98.5276 79.0864 98.4137C79.0864 98.3568 79.1433 98.2999 79.2002 98.243L80.8509 97.2184C80.9078 97.1615 81.0217 97.1615 81.0786 97.2184L88.6488 99.8936L85.9167 95.6816C85.8029 95.5678 85.689 95.397 85.3475 95.5109C85.2337 95.5678 85.1198 95.5109 85.0629 95.397L84.8352 95.0555C84.7783 94.9417 84.7783 94.7709 84.8921 94.6571L86.3151 93.7464C86.4289 93.6894 86.5997 93.6895 86.7135 93.8033L86.9412 94.1448C86.9981 94.2586 86.9981 94.3725 86.9412 94.4863C86.7705 94.714 86.7705 94.8847 86.9412 95.1693L92.5193 103.878C92.5762 103.992 92.69 104.049 92.747 104.106C92.8039 104.106 92.8608 104.163 93.0885 104.106C93.2023 104.049 93.3161 104.106 93.3731 104.219L93.6007 104.561C93.6577 104.618 93.6577 104.675 93.6577 104.789C93.6577 104.846 93.6007 104.902 93.5438 104.959L92.1208 105.87C92.0639 105.927 92.007 105.927 91.8932 105.927C91.8363 105.927 91.7793 105.87 91.7224 105.813L91.4947 105.472C91.4378 105.358 91.4378 105.244 91.4947 105.13C91.7224 104.846 91.6655 104.675 91.5516 104.504L90.4702 102.853L81.8754 99.8367L86.8274 107.521C86.9412 107.748 87.112 107.805 87.3966 107.748C87.5104 107.748 87.6242 107.748 87.6812 107.862L87.9089 108.204C87.9658 108.261 87.9658 108.318 87.9658 108.431C87.9658 108.488 87.9088 108.545 87.8519 108.602L86.4289 109.513C86.372 109.399 86.3151 109.399 86.2582 109.399ZM79.9402 98.5276C80.3956 98.5276 80.6802 98.8122 80.794 98.9829L86.4289 107.691C86.5428 107.862 86.7136 108.204 86.4859 108.659L87.2258 108.147C86.8843 108.147 86.5997 107.976 86.4289 107.691L81.0216 99.3244C80.9647 99.2106 80.9647 99.0967 81.0216 98.9829C81.0786 98.8691 81.1924 98.8691 81.3062 98.8691L90.7548 102.17C90.8117 102.17 90.8686 102.227 90.9256 102.284L92.0639 104.049C92.2347 104.276 92.3485 104.618 92.1778 105.016L92.8608 104.561C92.7469 104.561 92.6331 104.561 92.5193 104.504C92.3485 104.447 92.1778 104.276 92.0639 104.049L86.4859 95.3401C86.2582 94.9986 86.2013 94.6571 86.372 94.3156L85.6321 94.7709C85.9736 94.7709 86.2582 94.9417 86.4859 95.2263L89.6733 100.121C89.7302 100.235 89.7302 100.349 89.6733 100.463C89.6164 100.577 89.4457 100.577 89.3887 100.577L81.1924 97.6738L79.9402 98.5276Z" fill="#191411"/>
<path d="M98.5556 100.007L98.271 99.7794C98.4418 99.381 98.3849 99.0964 98.1003 98.8118L90.1316 92.0954C89.847 91.8677 89.5055 91.8677 89.164 92.0954L88.8794 91.8677L93.6606 86.1758L95.4251 86.6311L95.3113 87.0296C95.0836 87.0296 94.9128 87.0296 94.7421 87.0865C94.5144 87.0865 94.2867 87.1434 94.1159 87.2003C93.6037 87.3711 93.1483 87.6557 92.8068 88.111L90.7008 90.6154L94.059 93.4614L96.2789 90.8431C96.5634 90.5016 96.7342 90.217 96.7911 90.0463C96.8481 89.8186 96.7911 89.5909 96.6204 89.3063L96.848 89.0217L98.3849 90.3309L98.1572 90.6154C97.9295 90.5016 97.7588 90.5016 97.588 90.5585C97.3603 90.6155 97.0757 90.8431 96.7342 91.2416L94.5144 93.8598L99.4663 98.0149L101.629 95.4536C102.198 94.7705 102.597 94.1444 102.825 93.5183C102.995 93.1199 103.109 92.5507 103.166 91.8108H103.508L103.735 93.8029L98.5556 100.007Z" fill="#191411"/>
<path d="M98.555 100.291C98.4981 100.291 98.4412 100.291 98.3843 100.234L98.0997 100.007C97.9859 99.9496 97.9859 99.7788 98.0428 99.665C98.2136 99.3235 98.0997 99.1528 97.929 99.0389L89.9603 92.3225C89.8465 92.2086 89.6757 92.0948 89.3342 92.3225C89.2204 92.3794 89.1065 92.3794 88.9927 92.3225L88.7081 92.0948C88.6512 92.0379 88.5942 91.981 88.5942 91.924C88.5942 91.8671 88.5943 91.7533 88.6512 91.6964L93.4323 86.0045C93.4893 85.9476 93.6031 85.8906 93.7169 85.8906L95.4814 86.346C95.6522 86.4029 95.7091 86.5167 95.7091 86.6875L95.5953 87.0859C95.5953 87.1998 95.4815 87.3136 95.3107 87.3136C95.1399 87.3136 94.9692 87.3136 94.8553 87.3136H94.7415C94.5138 87.3136 94.3431 87.3705 94.2292 87.4274C93.7739 87.5982 93.3755 87.8828 93.0339 88.2812L91.0987 90.558L94.0585 93.0624L96.0506 90.6718C96.3921 90.2734 96.4491 90.1026 96.506 89.9888C96.506 89.875 96.506 89.6473 96.3352 89.4765C96.2783 89.3627 96.2783 89.2488 96.3352 89.135L96.5629 88.8504C96.6767 88.7366 96.8475 88.7366 96.9613 88.7935L98.4981 90.1026C98.612 90.2165 98.612 90.3872 98.555 90.5011L98.3274 90.7857C98.2705 90.8995 98.1566 90.8995 97.9859 90.8426C97.7582 90.7287 97.6444 90.7857 97.5875 90.7857C97.4736 90.7857 97.3029 90.8995 96.9044 91.3549L94.8553 93.7454L99.4088 97.559L101.401 95.1684C101.97 94.5423 102.312 93.9162 102.596 93.2901C102.767 92.8916 102.881 92.3225 102.938 91.6395C102.938 91.5256 103.052 91.4118 103.222 91.3549H103.564C103.678 91.3549 103.849 91.4687 103.849 91.5825L104.076 93.5747C104.076 93.6316 104.076 93.7454 104.019 93.8024L98.7827 100.063C98.7258 100.291 98.6689 100.291 98.555 100.291ZM89.6757 91.6964C89.9034 91.6964 90.131 91.7533 90.3018 91.924L98.2705 98.6405C98.555 98.8681 98.6689 99.1527 98.612 99.4943L99.6934 98.1851C99.6365 98.242 99.5796 98.242 99.5227 98.242C99.4658 98.242 99.3519 98.242 99.295 98.1851L94.3431 94.03C94.2292 93.9162 94.2292 93.7455 94.2861 93.6316L96.506 91.0133C96.9044 90.558 97.189 90.3303 97.4736 90.2734C97.5874 90.2734 97.7013 90.2734 97.8151 90.2734L96.9613 89.5904C97.0182 89.7611 97.0183 89.9319 97.0183 90.1026C96.9613 90.3303 96.7906 90.6718 96.4491 91.0703L94.2292 93.6885C94.1154 93.8024 93.9446 93.8023 93.8308 93.7454L90.4726 90.8995C90.4157 90.8426 90.3587 90.7857 90.3587 90.7287C90.3587 90.6718 90.3587 90.558 90.4157 90.5011L92.5217 87.9966C92.9201 87.4844 93.4323 87.1429 94.0015 86.9721C94.1723 86.9152 94.4 86.8583 94.6846 86.8583H94.7415L93.66 86.5737L89.2773 91.8102C89.5049 91.6964 89.6188 91.6964 89.6757 91.6964ZM103.45 92.7209C103.393 93.0624 103.279 93.347 103.222 93.5747C102.995 94.2008 102.539 94.8838 101.97 95.5668L100.604 97.2175L103.564 93.6885L103.45 92.7209Z" fill="#191411"/>
<path d="M105.666 87.5428L105.553 87.1444C105.837 86.9736 106.122 86.8598 106.349 86.6891C106.577 86.5752 106.748 86.4045 106.976 86.2337C107.431 85.8353 107.886 85.3799 108.285 84.8676C108.683 84.3554 108.968 83.9 109.195 83.4447C109.537 82.5909 109.594 81.8509 109.366 81.1679C109.139 80.4849 108.626 79.9726 107.943 79.688C107.716 79.5742 107.431 79.5173 107.146 79.5173C106.748 79.4603 106.349 79.5173 106.008 79.688C105.666 79.8019 105.268 80.0865 104.756 80.4849L103.333 81.7371C101.967 82.8755 100.999 83.5016 100.373 83.6724C99.8038 83.8431 99.1777 83.7862 98.4947 83.5016C97.6978 83.1601 97.1855 82.6478 96.9579 81.851C96.7302 81.111 96.7871 80.2572 97.1856 79.3465C97.2994 79.0619 97.4132 78.8342 97.584 78.6066C97.6978 78.3789 97.8686 78.1512 98.0962 77.9235L98.3239 77.5251C98.3809 77.3543 98.3239 77.1836 98.1532 77.0128L98.267 76.6713L100.487 76.3867L100.544 76.7852C100.259 76.899 100.032 77.0128 99.8608 77.0698C99.69 77.1836 99.5192 77.2405 99.3485 77.4113C98.6085 77.8666 98.0963 78.5497 97.7547 79.4034C97.4702 80.0296 97.4132 80.6557 97.5271 81.1679C97.6409 81.6802 97.9255 82.0217 98.3808 82.2494C98.8931 82.4771 99.4623 82.4201 100.032 82.0786C100.259 81.9648 100.544 81.794 100.771 81.5664C100.999 81.3387 101.511 80.9402 102.194 80.371C102.877 79.8019 103.447 79.3465 103.845 79.005C104.3 78.6635 104.642 78.4358 104.983 78.322C105.439 78.0943 105.894 77.9805 106.406 77.9805C106.919 77.9805 107.431 78.0943 107.943 78.322C108.968 78.7773 109.651 79.4604 109.992 80.428C110.334 81.3956 110.277 82.4201 109.765 83.5585C109.48 84.1846 109.082 84.8676 108.512 85.6076L108.285 85.8922C108.228 86.0629 108.285 86.2906 108.512 86.5183L108.399 86.8029L105.666 87.5428Z" fill="#191411"/>
<path d="M105.665 87.8269C105.551 87.8269 105.437 87.7699 105.381 87.5992L105.267 87.2007C105.21 87.0869 105.267 86.9162 105.437 86.8592C105.722 86.7454 105.95 86.5746 106.177 86.4608C106.405 86.347 106.576 86.1762 106.804 86.0055C107.259 85.607 107.657 85.1517 108.056 84.6963C108.397 84.241 108.682 83.7856 108.91 83.3303C109.251 82.5334 109.308 81.8504 109.08 81.2243C108.853 80.5982 108.454 80.1997 107.771 79.9151C107.543 79.8013 107.316 79.7444 107.031 79.7444C106.633 79.6875 106.348 79.7444 106.064 79.8582C105.779 79.9721 105.381 80.2566 104.925 80.6551L103.502 81.9073C102.079 83.1026 101.112 83.7287 100.429 83.8995C99.8025 84.1271 99.1195 84.0702 98.3795 83.7287C97.5257 83.3872 96.9566 82.7611 96.7289 81.9073C96.4443 81.1104 96.5581 80.1997 96.9566 79.2321C97.0704 78.9475 97.1842 78.7199 97.355 78.4353C97.5257 78.2076 97.6965 77.9799 97.8673 77.6953L98.0949 77.3538C98.0949 77.3538 98.038 77.24 97.9811 77.183C97.9242 77.1261 97.8673 76.9554 97.9242 76.8984L98.038 76.5569C98.0949 76.4431 98.1518 76.3862 98.2657 76.3862L100.486 76.1016C100.656 76.1016 100.77 76.2154 100.77 76.3293L100.827 76.7277C100.827 76.8415 100.77 76.9554 100.656 77.0123C100.372 77.1261 100.144 77.24 99.9732 77.2969C99.8594 77.3538 99.6887 77.4676 99.5179 77.5815C98.8349 78.0368 98.3226 78.6629 98.038 79.4029C97.8103 79.9721 97.6965 80.5413 97.8103 80.9966C97.9242 81.395 98.1518 81.6796 98.5503 81.8504C99.0056 82.0211 99.461 81.9642 99.9732 81.6796C100.201 81.5658 100.429 81.395 100.713 81.1674C100.941 80.9397 101.453 80.5413 102.079 79.9721C102.705 79.4598 103.275 78.9475 103.73 78.606C104.185 78.2645 104.584 78.0368 104.925 77.8661C105.381 77.6384 105.893 77.4676 106.462 77.4676C107.031 77.4676 107.6 77.5815 108.113 77.8091C109.194 78.2645 109.934 79.0613 110.332 80.0859C110.674 81.1104 110.617 82.2488 110.105 83.4441C109.82 84.1271 109.365 84.8102 108.796 85.5501L108.568 85.8347C108.568 85.8347 108.625 85.8916 108.796 86.1193C108.853 86.1762 108.91 86.2901 108.853 86.4039L108.739 86.6885C108.682 86.7454 108.625 86.8023 108.568 86.8592L105.836 87.5992C105.722 87.8269 105.665 87.8269 105.665 87.8269ZM106.804 79.2321C106.917 79.2321 106.974 79.2321 107.088 79.2321C107.43 79.2321 107.714 79.346 107.999 79.4598C108.796 79.8013 109.365 80.3705 109.593 81.1105C109.82 81.8504 109.763 82.7042 109.422 83.6149C109.194 84.1271 108.91 84.6394 108.511 85.0948C108.113 85.607 107.657 86.0624 107.202 86.4608C106.974 86.6316 106.747 86.8023 106.519 86.9162C106.462 86.9731 106.405 86.9731 106.348 87.03L108.226 86.5177C107.999 86.2332 107.942 86.0055 108.056 85.7209L108.34 85.3794C108.91 84.6963 109.308 84.0133 109.593 83.3872C110.048 82.3058 110.105 81.3381 109.82 80.4274C109.536 79.5167 108.853 78.8906 107.942 78.4922C107.487 78.2645 107.031 78.2076 106.519 78.2076C106.064 78.2076 105.608 78.3214 105.21 78.5491C104.925 78.6629 104.584 78.8906 104.128 79.2321C103.673 79.5736 103.104 80.029 102.478 80.5982C101.795 81.1674 101.339 81.5658 101.055 81.7935C100.77 82.0211 100.486 82.1919 100.258 82.3626C99.5748 82.7611 98.9487 82.818 98.3226 82.5334C97.7534 82.3058 97.4119 81.8504 97.2981 81.2812C97.1842 80.8259 97.2411 80.3136 97.4119 79.8013C97.1273 80.5412 97.0704 81.2243 97.2981 81.8504C97.5258 82.5334 97.9811 82.9888 98.6641 83.3303C99.2902 83.6149 99.8594 83.6149 100.372 83.501C100.998 83.3303 101.908 82.7042 103.218 81.6227L104.641 80.3705C105.21 79.9151 105.608 79.6305 105.95 79.5167C106.12 79.289 106.462 79.2321 106.804 79.2321ZM98.4934 77.0123C98.6641 77.2969 98.6072 77.5246 98.5503 77.6953L98.4365 77.8661C98.6641 77.6384 98.8918 77.4107 99.1764 77.2399C99.3472 77.1261 99.5179 77.0123 99.6887 76.8984C99.7456 76.8415 99.8025 76.8415 99.9163 76.7846L98.4934 77.0123Z" fill="#191411"/>
</svg>
