<svg width="170" height="133" viewBox="0 0 170 133" fill="none" xmlns="http://www.w3.org/2000/svg">
<path d="M85.0913 132.475C83.7405 132.475 82.3897 132.242 81.1321 131.73L7.30471 102.711C3.1592 101.081 0.457642 97.1218 0.457642 92.6503V40.482C0.457642 36.0105 3.1592 32.0513 7.30471 30.421L81.1321 1.40246C83.6939 0.377728 86.4886 0.377728 89.0505 1.40246L162.878 30.421C167.023 32.0513 169.725 36.0105 169.725 40.482V92.6037C169.725 97.0753 167.023 101.034 162.878 102.665L89.0505 131.683C87.7462 132.242 86.3955 132.475 85.0913 132.475ZM85.0913 1.58877C83.8802 1.58877 82.6226 1.82167 81.4581 2.28745L7.63077 31.306C3.81131 32.7966 1.38922 36.3831 1.38922 40.482V92.6037C1.38922 96.7026 3.85789 100.289 7.63077 101.78L81.4581 130.798C83.7871 131.73 86.3489 131.73 88.6778 130.798L162.505 101.78C166.325 100.289 168.747 96.7026 168.747 92.6037V40.482C168.747 36.3831 166.278 32.7966 162.505 31.306L88.6778 2.24089C87.5134 1.82168 86.3023 1.58877 85.0913 1.58877Z" fill="#191411"/>
<path d="M85.0958 127.863C83.745 127.863 82.3942 127.63 81.09 127.118L13.644 100.568C9.45188 98.8909 6.70374 94.9317 6.70374 90.4135V42.7169C6.70374 38.1987 9.4053 34.193 13.644 32.5627L81.09 6.01281C83.6519 4.98808 86.5398 4.98808 89.1016 6.01281L156.548 32.5627C160.74 34.2395 163.488 38.1987 163.488 42.7169V90.367C163.488 94.8851 160.786 98.8909 156.548 100.521L89.1016 127.071C87.7974 127.583 86.4466 127.863 85.0958 127.863ZM85.0958 8.20202C84.1176 8.20202 83.1395 8.38834 82.1613 8.76097L14.7153 35.3109C11.6411 36.5219 9.63819 39.4098 9.63819 42.7169V90.367C9.63819 93.6741 11.6411 96.5619 14.7153 97.773L82.1613 124.323C84.0245 125.068 86.1205 125.068 87.9837 124.323L155.43 97.773C158.504 96.5619 160.507 93.6741 160.507 90.367V42.7169C160.507 39.4098 158.504 36.5219 155.43 35.3109L87.9837 8.76097C87.0521 8.38834 86.074 8.20202 85.0958 8.20202Z" fill="#191411"/>
<path d="M62.3639 41.4611V41.0885C62.7831 40.9488 62.9694 40.6693 62.9694 40.2966V29.9096C62.9694 29.537 62.7831 29.3041 62.3639 29.1643V28.7451H64.7394L67.8136 34.8004L70.7947 28.7451H72.9839V29.1643C72.5647 29.3041 72.3783 29.537 72.3783 29.9096V40.3432C72.3783 40.7624 72.5647 40.9953 72.9839 41.1351V41.5077H70.2357V41.1351C70.6549 40.9953 70.8413 40.7624 70.8413 40.3432V30.0027L67.441 36.9895H67.2081L63.6215 29.9562V40.2966C63.6215 40.7159 63.8079 40.9953 64.2271 41.1351V41.5077H62.3639V41.4611Z" fill="#191411"/>
<path d="M73.0295 41.6014H70.0485V40.9958L70.1417 40.9493C70.5143 40.8561 70.654 40.6232 70.654 40.2506V30.4225L67.4401 37.0366L67.0675 37.0832L67.0209 37.0366L63.6672 30.4225V40.2972C63.6672 40.6698 63.8535 40.9027 64.1796 40.9958L64.2727 41.0424V41.6014H62.2233V40.9958L62.3164 40.9493C62.689 40.8561 62.8288 40.6232 62.8288 40.2506V29.8635C62.8288 29.5375 62.6425 29.3512 62.3164 29.258H62.2233V28.6525H64.7851L64.8317 28.699L67.7661 34.568L70.654 28.6525H73.0295V29.258L72.9364 29.3046C72.6103 29.3977 72.424 29.6306 72.424 29.9101V40.3437C72.424 40.6698 72.6103 40.9027 72.9364 41.0424L73.0295 41.089V41.6014ZM70.2814 41.3685H72.7967V41.1822C72.424 41.0424 72.1911 40.7164 72.1911 40.2972V29.8635C72.1911 29.584 72.2843 29.258 72.7967 29.0717V28.8854H70.7938L67.7661 35.0803L67.673 34.8475L64.6454 28.8388H62.4562V29.0251C62.9685 29.2114 63.0617 29.5375 63.0617 29.8169V40.204C63.0617 40.6232 62.8754 40.9493 62.4562 41.089V41.2753H64.0398V41.089C63.6672 40.9027 63.4343 40.6232 63.4343 40.1574V29.3046L67.2072 36.7106H67.3003L70.8869 29.3046V40.1574C70.8869 40.5766 70.654 40.8561 70.2814 41.0424V41.3685Z" fill="#191411"/>
<path d="M76.1061 35.0814C76.1061 33.1251 76.7116 31.5414 77.9227 30.3304C79.1337 29.1193 80.7174 28.5138 82.6737 28.5138C84.4902 28.5138 85.9808 29.1193 87.1453 30.3769C88.3097 31.6346 88.8687 33.2182 88.8687 35.1746C88.8687 37.0843 88.2631 38.668 87.0521 39.9256C85.841 41.1832 84.3505 41.7887 82.4874 41.7887C80.5311 41.7887 78.9474 41.1832 77.7829 39.9722C76.665 38.7145 76.1061 37.1309 76.1061 35.0814ZM77.4103 34.1964L77.4569 34.7088C77.5966 36.3856 78.2487 37.8761 79.4132 39.1337C80.5776 40.438 81.8353 41.0435 83.1861 41.0435C84.4437 41.0435 85.4684 40.6243 86.2602 39.7393C87.0521 38.8543 87.4247 37.6898 87.4247 36.2459C87.4247 34.4293 86.8192 32.799 85.6547 31.4017C84.4903 30.0043 83.1395 29.3056 81.6024 29.3056C80.3447 29.3056 79.32 29.7714 78.5282 30.6564C77.8295 31.4948 77.4103 32.7059 77.4103 34.1964Z" fill="#191411"/>
<path d="M82.533 41.881C80.5302 41.881 78.9465 41.2755 77.7354 40.0179C76.571 38.8068 75.9655 37.13 75.9655 35.0805C75.9655 33.1242 76.6176 31.4939 77.8286 30.2363C79.0862 28.9787 80.7165 28.3732 82.6728 28.3732C84.5359 28.3732 86.0731 29.0253 87.2375 30.2829C88.402 31.5405 89.0075 33.1708 89.0075 35.1737C89.0075 37.0834 88.402 38.7137 87.1909 39.9713C85.9799 41.2289 84.3962 41.881 82.533 41.881ZM82.6728 28.6061C80.7631 28.6061 79.226 29.2116 78.0149 30.4226C76.8039 31.6337 76.1983 33.1708 76.1983 35.0805C76.1983 37.0834 76.7573 38.6671 77.9218 39.8315C79.0397 40.996 80.6233 41.6015 82.533 41.6015C84.3496 41.6015 85.8402 40.996 87.0046 39.785C88.1691 38.5739 88.7746 36.9902 88.7746 35.1271C88.7746 33.2174 88.2157 31.6337 87.0978 30.4226C85.9333 29.2582 84.4894 28.6061 82.6728 28.6061ZM83.2317 41.1358C81.8344 41.1358 80.5302 40.4837 79.3657 39.1794C78.2012 37.8752 77.5026 36.3847 77.3628 34.6613L77.3162 34.1489C77.3162 32.6584 77.7354 31.4008 78.5273 30.5158C79.3191 29.5842 80.3904 29.1184 81.6946 29.1184C83.2317 29.1184 84.6291 29.8637 85.8402 31.2611C87.0512 32.705 87.6567 34.3353 87.6567 36.1984C87.6567 37.6424 87.2375 38.8534 86.4457 39.7384C85.6073 40.7166 84.5359 41.1358 83.2317 41.1358ZM77.5491 34.1489L77.5957 34.6613C77.7354 36.2916 78.3876 37.7821 79.552 39.0397C80.6699 40.2973 81.9275 40.9029 83.2783 40.9029C84.4894 40.9029 85.5141 40.4837 86.2593 39.5987C87.0046 38.7602 87.4238 37.5958 87.4238 36.1984C87.4238 34.3818 86.8183 32.7982 85.7004 31.4008C84.5359 30.05 83.1851 29.3513 81.7412 29.3513C80.5302 29.3513 79.5054 29.7705 78.7602 30.6555C77.9218 31.5405 77.5491 32.705 77.5491 34.1489Z" fill="#191411"/>
<path d="M91.1022 39.5507L91.3816 39.3178C91.6611 39.5507 91.894 39.737 92.0803 39.8768C92.3132 40.0165 92.4995 40.1562 92.7324 40.296C93.2914 40.5754 93.8969 40.8083 94.5024 40.9481C95.1079 41.1344 95.6669 41.181 96.1792 41.181C97.1108 41.181 97.8095 40.9481 98.3684 40.4357C98.9274 39.9699 99.1603 39.3178 99.1603 38.526C99.1603 38.2465 99.1137 37.967 99.0206 37.6876C98.8808 37.2683 98.6945 36.9423 98.4616 36.7094C98.2287 36.4765 97.8095 36.197 97.204 35.9176L95.5272 35.0792C93.9435 34.2873 92.9653 33.6352 92.5461 33.1228C92.1269 32.6571 91.9406 32.0515 91.9406 31.3063C91.9406 30.4679 92.2201 29.7692 92.8256 29.2568C93.4311 28.7444 94.2229 28.465 95.2477 28.465C95.5271 28.465 95.8066 28.465 96.0861 28.5115C96.3656 28.5581 96.645 28.6047 96.9245 28.6979L97.3903 28.791C97.5766 28.791 97.7163 28.6979 97.8095 28.465H98.1822L99.3 30.3747L98.9274 30.6076C98.6945 30.3747 98.5082 30.1884 98.3684 30.0952C98.2287 30.0021 98.0424 29.8623 97.8561 29.7226C97.1108 29.2568 96.319 29.0239 95.3874 29.0239C94.6887 29.0239 94.0832 29.1637 93.664 29.4897C93.2448 29.8158 93.0119 30.1884 93.0119 30.7473C93.0119 31.3063 93.2914 31.8186 93.8037 32.2378C94.0366 32.4242 94.2695 32.5639 94.5956 32.7502C94.8751 32.89 95.434 33.1694 96.2258 33.5886C97.0177 33.9613 97.6698 34.3339 98.1356 34.5668C98.6013 34.8463 98.974 35.0792 99.2069 35.312C99.5795 35.6381 99.9056 36.0107 100.092 36.4765C100.325 36.9423 100.418 37.5012 100.418 38.0136C100.418 39.1315 100.045 40.0631 99.3 40.7618C98.5548 41.4604 97.53 41.7865 96.2724 41.7865C95.5737 41.7865 94.7819 41.6468 93.8503 41.4139L93.4777 41.3207C93.2914 41.3207 93.1516 41.4604 93.0119 41.7865H92.6858L91.1022 39.5507Z" fill="#191411"/>
<path d="M96.4149 41.8804C95.7162 41.8804 94.8778 41.7407 93.9928 41.5078L93.6201 41.4146C93.527 41.4146 93.3873 41.5544 93.2941 41.7873L93.2475 41.8804H92.7817L90.9186 39.5049L91.3844 39.1323L91.4775 39.1788C91.757 39.4117 91.9899 39.5981 92.1762 39.7378C92.4091 39.8775 92.5954 40.0173 92.8283 40.157C93.3873 40.4365 93.9462 40.6694 94.5517 40.8091C96.182 41.2283 97.4862 41.0886 98.3246 40.3433C98.837 39.8775 99.1165 39.272 99.1165 38.5267C99.1165 38.2939 99.0699 38.0144 98.9767 37.7349C98.837 37.3623 98.6507 37.0362 98.4178 36.8033C98.1849 36.5704 97.7657 36.291 97.2067 36.0115L95.5299 35.1731C93.8996 34.3347 92.9215 33.6826 92.5023 33.1702C92.0831 32.7044 91.8968 32.0523 91.8968 31.307C91.8968 30.422 92.2228 29.7234 92.8283 29.1644C93.4338 28.652 94.2723 28.3726 95.297 28.3726C95.5765 28.3726 95.9025 28.3726 96.1354 28.4191C96.4149 28.4657 96.6943 28.5123 96.9738 28.6055L97.393 28.652C97.4396 28.652 97.5793 28.652 97.6725 28.3726L97.7191 28.2794H98.2315L98.278 28.326L99.4891 30.3289L98.9301 30.6549L98.8836 30.6084C98.6507 30.3755 98.4644 30.1891 98.3246 30.096C98.1849 30.0028 97.9986 29.8631 97.8588 29.7699C97.1601 29.3041 96.3683 29.0712 95.4833 29.0712C94.7846 29.0712 94.2257 29.211 93.853 29.4905C93.4804 29.7699 93.2475 30.1426 93.2475 30.6084C93.2475 31.1207 93.527 31.5865 94.0394 32.0057C94.2723 32.192 94.5051 32.3318 94.7846 32.4715C95.1107 32.6112 95.6696 32.9373 96.4149 33.3099C97.2067 33.6825 97.8588 34.0552 98.3246 34.2881C98.7904 34.5675 99.163 34.8004 99.4425 35.0799C99.8617 35.406 100.141 35.8252 100.374 36.291C100.607 36.8033 100.7 37.3157 100.7 37.8746C100.7 39.0391 100.281 39.9707 99.5357 40.6694C98.7438 41.5078 97.7191 41.8804 96.4149 41.8804ZM93.6667 41.1817L94.0859 41.2749C94.9709 41.5078 95.7628 41.6475 96.4615 41.6475C97.6725 41.6475 98.6507 41.3215 99.3959 40.6228C100.141 39.9707 100.514 39.0857 100.514 37.9678C100.514 37.4554 100.421 36.9431 100.188 36.4773C100.001 36.0115 99.6754 35.6389 99.3028 35.3594C99.0233 35.1265 98.6972 34.8936 98.2315 34.6141C97.7657 34.3347 97.1136 34.0086 96.3217 33.636C95.5765 33.2633 94.9709 32.9839 94.6449 32.7976C94.3654 32.6578 94.0859 32.4715 93.853 32.2852C93.2941 31.8194 93.0146 31.307 93.0146 30.7015C93.0146 30.1426 93.2475 29.6768 93.7133 29.3507C94.1325 29.0247 94.738 28.8849 95.4833 28.8849C96.4149 28.8849 97.2533 29.1178 97.9986 29.6302C98.1849 29.7234 98.3712 29.8631 98.5109 30.0028C98.6506 30.096 98.7904 30.2823 99.0233 30.4686L99.2096 30.3755L98.1849 28.6055H97.952C97.8123 28.8849 97.6259 28.9315 97.4862 28.9315L97.0204 28.8384C96.7409 28.7452 96.4614 28.6986 96.182 28.652C95.9491 28.6055 95.6696 28.6055 95.3436 28.6055C94.3654 28.6055 93.5736 28.8384 93.0146 29.3507C92.4557 29.8631 92.1762 30.4686 92.1762 31.307C92.1762 32.0057 92.3625 32.6112 92.7352 33.0304C93.1078 33.5428 94.0859 34.1949 95.6696 34.9868L97.3464 35.8252C97.952 36.1512 98.3712 36.3841 98.6041 36.6636C98.8835 36.9431 99.0699 37.2691 99.2096 37.6883C99.3028 37.9678 99.3494 38.2939 99.3494 38.5733C99.3494 39.4117 99.0699 40.0638 98.5109 40.5762C97.6259 41.368 96.2286 41.5544 94.5051 41.0886C93.8996 40.9023 93.2941 40.7159 92.7352 40.3899C92.5023 40.2502 92.2694 40.1104 92.0365 39.9707C91.8502 39.831 91.6173 39.6912 91.3844 39.5049L91.2446 39.5981L92.8749 41.6941H93.0612C93.2475 41.3215 93.4338 41.1817 93.6667 41.1817Z" fill="#191411"/>
<path d="M101.215 30.6094L101.868 28.7462H108.715L109.46 30.6094L109.087 30.7491C108.854 30.2367 108.575 29.8641 108.249 29.6778C107.923 29.4449 107.504 29.3517 106.991 29.3517H106.106V40.3443C106.106 40.717 106.293 40.9964 106.665 41.1362V41.5088H103.87V41.1362C104.29 40.9964 104.523 40.7635 104.523 40.3443V29.3517H103.638C103.125 29.3517 102.706 29.4449 102.38 29.6778C102.054 29.9107 101.774 30.2833 101.495 30.8423L101.215 30.6094Z" fill="#191411"/>
<path d="M106.851 41.6011H103.823V40.9955L103.916 40.949C104.289 40.8558 104.475 40.6229 104.475 40.2969V29.3974H103.73C103.218 29.3974 102.845 29.4906 102.519 29.7235C102.24 29.9098 101.96 30.2824 101.681 30.8414L101.634 30.9345L101.122 30.6085L101.168 30.5153L101.867 28.6056H108.9L109.739 30.6551L109.18 30.888L109.133 30.7948C108.9 30.329 108.621 29.9564 108.341 29.7701C108.015 29.5372 107.643 29.444 107.177 29.444H106.385V40.3434C106.385 40.6695 106.525 40.9024 106.851 40.9955L106.944 41.0421V41.6011H106.851ZM104.056 41.3682H106.618V41.1819C106.245 41.0421 106.059 40.7161 106.059 40.3434V29.2111H107.084C107.596 29.2111 108.062 29.3509 108.388 29.5837C108.714 29.8166 108.993 30.1427 109.226 30.6085L109.366 30.5619L108.714 28.8851H102.007L101.401 30.5619L101.541 30.6551C101.82 30.1427 102.1 29.7701 102.379 29.5837C102.705 29.3509 103.171 29.2577 103.73 29.2577H104.708V40.39C104.708 40.8092 104.475 41.0887 104.056 41.2284V41.3682Z" fill="#191411"/>
<path d="M20.0201 59.347V58.9744C20.3928 58.8346 20.6257 58.6017 20.6257 58.2291V47.7489C20.6257 47.3762 20.4394 47.1433 20.0201 47.0036V46.631H24.2588C25.2835 46.631 26.0754 46.6776 26.6809 46.8639C27.2864 47.0036 27.8454 47.2831 28.4043 47.6557C28.8701 47.9818 29.2893 48.401 29.5688 48.9133C29.8483 49.4257 29.988 49.9381 29.988 50.5436C29.988 51.8012 29.4756 52.7328 28.4043 53.4315C27.3796 54.1302 25.8891 54.4562 23.9793 54.4562H22.0696V58.2757C22.0696 58.6483 22.2559 58.8812 22.6751 59.0209V59.4401H20.0201V59.347ZM22.1628 47.1899V53.8041H23.8396C24.7712 53.8041 25.4698 53.7575 25.9356 53.6178C26.4014 53.5246 26.8672 53.2918 27.2399 53.0123C27.9385 52.4068 28.2646 51.5683 28.2646 50.497C28.2646 48.2612 26.9138 47.1899 24.1656 47.1899H22.1628Z" fill="#191411"/>
<path d="M22.8609 59.4875H19.9264V58.882L20.0196 58.8354C20.3456 58.7422 20.5319 58.5093 20.5319 58.2299V47.7496C20.5319 47.4236 20.3456 47.2373 20.0196 47.0975L19.9264 47.051V46.4454H24.3048C25.3761 46.4454 26.168 46.492 26.7735 46.6783C27.379 46.8181 27.9845 47.0975 28.5435 47.4702C29.0558 47.7962 29.4285 48.262 29.7079 48.7744C29.9874 49.2867 30.1271 49.8457 30.1271 50.4512C30.1271 51.7088 29.5682 52.7336 28.4969 53.4322C27.4256 54.1309 25.9351 54.457 24.0253 54.457H22.2553V58.1833C22.2553 58.5093 22.3951 58.6956 22.7677 58.7888L22.8609 58.8354V59.4875ZM20.1593 59.2546H22.628V59.0683C22.2553 58.9285 22.0224 58.6491 22.0224 58.2764V54.3172H24.0253C25.8885 54.3172 27.3324 53.9912 28.3572 53.2925C29.3819 52.6404 29.8942 51.7088 29.8942 50.4978C29.8942 49.9388 29.7545 49.4265 29.475 48.9141C29.1956 48.4483 28.8229 48.0291 28.3572 47.7031C27.7982 47.3304 27.2393 47.0975 26.6803 46.9578C26.0748 46.8181 25.283 46.7249 24.2582 46.7249H20.1127V46.9112C20.4853 47.051 20.7182 47.3304 20.7182 47.7496V58.2299C20.7182 58.6025 20.5319 58.882 20.1127 59.0683V59.2546H20.1593ZM23.839 53.898H22.069V47.051H24.1651C26.9598 47.051 28.4037 48.2154 28.4037 50.4978C28.4037 51.6157 28.0311 52.5007 27.3324 53.1062C26.9132 53.4322 26.494 53.6186 25.9816 53.7583C25.4693 53.8514 24.7706 53.898 23.839 53.898ZM22.3019 53.6651H23.839C24.7706 53.6651 25.4693 53.6186 25.935 53.4788C26.4008 53.3857 26.8201 53.1528 27.1927 52.8733C27.8448 52.3144 28.1708 51.4759 28.1708 50.4512C28.1708 48.3086 26.8666 47.2373 24.1651 47.2373H22.3019V53.6651Z" fill="#191411"/>
<path d="M32.5983 59.3489V58.9763C33.0175 58.8366 33.2504 58.6037 33.2504 58.2311V47.7508C33.2504 47.3782 33.0175 47.1453 32.5983 47.0056V46.6329H36.3711C37.0698 46.6329 37.6288 46.6795 38.0014 46.7727C38.4206 46.8658 38.7932 47.0521 39.2124 47.285C40.144 47.8906 40.6098 48.7756 40.6098 49.94C40.6098 50.9182 40.2372 51.71 39.5385 52.269C39.3056 52.4553 39.0727 52.595 38.8398 52.6882C38.6069 52.7813 38.2809 52.8745 37.8151 52.9676L38.3274 53.7595C38.7001 54.4116 39.1193 55.2034 39.4919 56.1816C39.7714 56.7871 39.9111 57.1132 39.9111 57.2063C40.0509 57.5324 40.2372 57.8584 40.4235 58.1845C40.6098 58.5105 40.8427 58.7434 41.029 58.8831C41.2153 59.0229 41.4948 59.0695 41.7743 59.0695L41.8209 59.4421C41.3551 59.4421 40.9824 59.4421 40.7496 59.3955C40.5167 59.3489 40.2372 59.3024 39.9577 59.1626C39.5851 59.0229 39.259 58.79 38.9795 58.464C38.7001 58.1379 38.4206 57.5789 38.0946 56.7871L37.5822 55.5761L37.0698 54.4116C36.8835 54.0855 36.7904 53.8992 36.7904 53.8526C36.7904 53.8526 36.6972 53.7595 36.604 53.6197C36.3711 53.3403 35.9985 53.2005 35.5327 53.2005H35.2067H35.0669C34.9738 53.2005 34.9272 53.2005 34.9272 53.2005C34.8806 53.2005 34.8806 53.2005 34.834 53.2471V58.1845C34.834 58.5571 35.0204 58.79 35.4396 58.9297V59.3024H32.5983V59.3489ZM34.7875 47.1919V52.6416H35.9054C36.5575 52.6416 37.0698 52.595 37.3959 52.5019C37.7219 52.4087 38.048 52.1758 38.2343 51.8963C38.6535 51.3374 38.8864 50.6853 38.8864 49.94C38.8864 49.5674 38.8398 49.2413 38.7001 48.8687C38.5604 48.4961 38.4206 48.2166 38.2343 47.9837C37.8151 47.4713 37.0698 47.1919 36.0917 47.1919H34.7875Z" fill="#191411"/>
<path d="M41.9594 59.5809H41.8197C41.3539 59.5809 40.9813 59.5809 40.7018 59.5344C40.4689 59.4878 40.1894 59.4412 39.8634 59.3015C39.4442 59.1617 39.1181 58.8822 38.8386 58.5562C38.5592 58.2301 38.2331 57.6712 37.9071 56.8794L36.8823 54.5039C36.6494 54.0381 36.6029 53.9915 36.6029 53.9915L36.4165 53.7586C36.1836 53.5257 35.9042 53.386 35.4384 53.386H34.9726C34.8794 53.386 34.8794 53.386 34.8329 53.386V58.2302C34.8329 58.5562 34.9726 58.7425 35.3452 58.8357L35.4384 58.8823V59.4878H32.4108V58.8823H32.5039C32.8765 58.7891 33.0629 58.6028 33.0629 58.2767V47.7965C33.0629 47.517 32.8765 47.2841 32.5039 47.1444L32.4108 47.0978V46.4923H36.3234C37.0221 46.4923 37.581 46.5389 38.0002 46.632C38.4194 46.7252 38.8386 46.9115 39.2578 47.191C40.236 47.7965 40.7018 48.7281 40.7018 49.9391C40.7018 50.9639 40.3292 51.8023 39.5839 52.3612C39.351 52.5475 39.0715 52.6873 38.8386 52.7804C38.6523 52.8736 38.3263 52.9667 37.9536 53.0599L38.3728 53.712C38.7455 54.3641 39.1647 55.2025 39.5839 56.1807C39.8634 56.7862 40.0031 57.1123 40.0031 57.2054C40.1428 57.5315 40.3292 57.8575 40.5155 58.137C40.7018 58.4631 40.8881 58.6494 41.0744 58.7891C41.2607 58.9288 41.4936 58.9754 41.7731 58.9754H41.8663L41.9594 59.5809ZM35.0192 53.1065H35.485C35.9973 53.1065 36.37 53.2462 36.6494 53.5723L36.8357 53.8052C36.8823 53.8518 37.0221 54.1312 37.1152 54.3641L38.1399 56.7396C38.466 57.4849 38.792 58.0438 39.0249 58.3699C39.2578 58.6959 39.5839 58.8823 39.9565 59.0686C40.236 59.1617 40.4689 59.2549 40.7018 59.2549C40.9347 59.3015 41.2607 59.3015 41.6334 59.3015V59.1617C41.3539 59.1617 41.121 59.0686 40.8881 58.9288C40.7018 58.7891 40.4689 58.5562 40.2826 58.1836C40.0963 57.8575 39.9099 57.5315 39.7702 57.2054C39.7236 57.1123 39.5839 56.7862 39.351 56.1807C38.9318 55.2025 38.5592 54.4107 38.1865 53.7586L37.581 52.827L37.7207 52.7804C38.1865 52.6873 38.5126 52.5941 38.7455 52.501C38.9784 52.4078 39.2113 52.2681 39.4441 52.0818C40.1428 51.5228 40.5155 50.7775 40.5155 49.846C40.5155 48.7281 40.0497 47.8897 39.1647 47.2841C38.7921 47.0512 38.3728 46.8649 38.0002 46.7718C37.6276 46.6786 37.0686 46.632 36.37 46.632H32.6902V46.8184C33.2026 47.0047 33.3423 47.3773 33.3423 47.6568V58.137C33.3423 58.4165 33.2492 58.7891 32.6902 58.9288V59.1151H35.2055V58.9288C34.8329 58.7891 34.6 58.5096 34.6 58.0904V53.1065L34.6465 53.0599C34.6931 53.0133 34.7397 53.0133 34.7863 53.0133C34.8794 53.1065 34.926 53.1065 35.0192 53.1065ZM35.9042 52.7804H34.6465V47.0978H36.1371C37.1618 47.0978 37.9071 47.3773 38.3728 47.9362C38.5592 48.1691 38.7455 48.4486 38.8386 48.8678C38.9784 49.2404 39.0249 49.6131 39.0249 49.9857C39.0249 50.7776 38.7921 51.4762 38.3728 52.0352C38.1399 52.3612 37.8139 52.5475 37.4413 52.6873C37.1152 52.7339 36.6029 52.7804 35.9042 52.7804ZM34.926 52.5475H35.9507C36.6028 52.5475 37.0686 52.501 37.4413 52.4078C37.7673 52.3146 38.0468 52.1283 38.2331 51.8489C38.6523 51.3365 38.8386 50.6844 38.8386 49.9391C38.8386 49.6131 38.7921 49.2404 38.6523 48.8678C38.5592 48.4952 38.3728 48.2157 38.2331 48.0294C37.8139 47.517 37.1152 47.2841 36.1836 47.2841H34.926V52.5475Z" fill="#191411"/>
<path d="M43.9652 59.347V58.9744C44.1981 58.8812 44.3378 58.7415 44.3844 58.6017C44.4775 58.462 44.4775 58.1825 44.4775 57.8565V47.7489C44.4775 47.3762 44.2912 47.1433 43.9186 47.0036V46.631H46.6202V47.0036C46.2475 47.1433 46.0146 47.3762 46.0146 47.7489V58.2291L46.1078 58.5086C46.1078 58.6017 46.1544 58.6483 46.2009 58.7415C46.2475 58.788 46.3873 58.8812 46.5736 58.9744V59.347H43.9652Z" fill="#191411"/>
<path d="M46.8062 59.4875H43.8717V58.9286L43.9649 58.882C44.1512 58.7888 44.2909 58.6956 44.3375 58.5559C44.3841 58.4162 44.4307 58.1833 44.4307 57.8572V47.7496C44.4307 47.4236 44.2909 47.2373 43.9649 47.0975L43.8717 47.051V46.4454H46.8062V47.051L46.713 47.0975C46.387 47.1907 46.2006 47.4236 46.2006 47.7496V58.1833L46.2938 58.4628C46.2938 58.5559 46.3404 58.6025 46.387 58.6491C46.387 58.6491 46.4335 58.7422 46.713 58.8354L46.8062 58.882V59.4875ZM44.1046 59.2546H46.5733V59.0683C46.387 58.9751 46.2472 58.9285 46.2006 58.8354C46.1541 58.7422 46.1075 58.6491 46.0609 58.5559L45.9677 58.2299V47.7496C45.9677 47.377 46.1541 47.0975 46.5733 46.9112V46.7249H44.1046V46.9112C44.4772 47.051 44.6635 47.3304 44.6635 47.7496V57.8572C44.6635 58.2298 44.617 58.4627 44.5238 58.6491C44.4307 58.7888 44.2909 58.9285 44.1046 59.0683V59.2546Z" fill="#191411"/>
<path d="M49.2233 59.3489L55.1388 47.1919H53.6948C53.1825 47.1919 52.8098 47.1919 52.5769 47.2385C52.344 47.285 52.1112 47.3316 51.8317 47.4713C51.5522 47.5645 51.3193 47.7042 51.1796 47.7974C51.0398 47.8906 50.807 48.1235 50.5275 48.4495L50.248 48.2166L51.5522 46.6329H57.2348L51.2727 58.7434H52.5304C53.3222 58.7434 54.0209 58.6968 54.5798 58.6503C55.1388 58.5571 55.6046 58.4639 56.0238 58.2776C56.3498 58.1379 56.6293 58.0447 56.8622 57.8584C57.0951 57.7187 57.4677 57.4392 57.8869 57.0666L58.1198 57.3926L56.1635 59.3489H49.2233Z" fill="#191411"/>
<path d="M56.2128 59.4878H49.0397L49.1328 59.3015L54.9552 47.3307H53.6975C53.1852 47.3307 52.8591 47.3307 52.6262 47.3773C52.3933 47.4239 52.1605 47.4705 51.881 47.6102C51.6015 47.7499 51.4152 47.8431 51.2289 47.9362C51.0891 48.0294 50.8563 48.2623 50.5768 48.5418L50.4836 48.6349L50.0178 48.2157L50.111 48.1226L51.4618 46.4923H57.3773L57.2841 46.6786L51.4152 58.6494H52.4399C53.2318 58.6494 53.9304 58.6028 54.4428 58.5562C54.9552 58.5096 55.4675 58.3699 55.8868 58.1836C56.2128 58.0904 56.4923 57.9507 56.7252 57.7644C56.9581 57.6246 57.2841 57.3452 57.7499 56.9725L57.8431 56.8794L58.2157 57.3917L56.2128 59.4878ZM49.4123 59.2549H56.1197L57.9828 57.3917L57.8896 57.252C57.4704 57.578 57.191 57.8109 56.9581 57.9507C56.6786 58.137 56.3991 58.2767 56.0731 58.3699C55.6073 58.5562 55.1415 58.6959 54.5825 58.7425C54.0236 58.7891 53.3715 58.8357 52.5331 58.8357H51.0891L51.1823 58.6494L57.0512 46.6786H51.6481L50.437 48.1226L50.5302 48.2157C50.7631 47.9362 50.996 47.7499 51.1357 47.6568C51.322 47.517 51.5549 47.4239 51.8344 47.2841C52.1139 47.191 52.3933 47.0978 52.6262 47.0512C52.8591 47.0047 53.2318 47.0047 53.7441 47.0047H55.3744L55.2812 47.191L49.4123 59.2549Z" fill="#191411"/>
<path d="M60.692 59.3489V58.9763C61.1112 58.8366 61.2975 58.6037 61.2975 58.2311V47.7508C61.2975 47.3782 61.1112 47.1453 60.692 47.0056V46.6329H68.1912L68.983 48.3098L68.6104 48.4961C68.4241 48.3098 68.3309 48.17 68.2378 48.0769C68.0515 47.8906 67.9117 47.7508 67.7254 47.7042C67.2596 47.4248 66.7473 47.285 66.1417 47.285H62.8346V51.71H66.2815C66.7473 51.71 67.0267 51.6634 67.213 51.5703C67.3994 51.4771 67.5391 51.2442 67.6322 50.9648H68.0049V53.0142H67.6322C67.5391 52.7813 67.4459 52.595 67.3062 52.5019C67.1199 52.3621 66.7938 52.269 66.2815 52.269H62.8346V58.79H66.2349C67.1199 58.79 67.8652 58.6968 68.5173 58.464C68.9365 58.3242 69.4488 58.0447 70.0544 57.6255L70.2872 57.8584L68.8899 59.3489H60.692Z" fill="#191411"/>
<path d="M68.9824 59.4878H60.5983V58.8822H60.6914C61.064 58.7891 61.2038 58.6028 61.2038 58.2767V47.7965C61.2038 47.4705 61.0175 47.2841 60.6914 47.1444L60.5983 47.0978V46.4923H68.2838L69.1688 48.3089L68.6564 48.5884L68.6098 48.5418C68.4235 48.3555 68.3303 48.2157 68.2372 48.1226C68.0509 47.9363 67.9111 47.8431 67.7714 47.7499C67.3522 47.4705 66.8398 47.3307 66.2343 47.3307H63.0204V51.5228H66.3274C66.7467 51.5228 67.0727 51.4762 67.2124 51.3831C67.3522 51.2899 67.4919 51.1036 67.5851 50.8241L67.6316 50.731H68.1906V53.0133H67.6316L67.5851 52.9202C67.4919 52.6873 67.3988 52.5475 67.3056 52.501C67.2124 52.4078 66.933 52.3147 66.3274 52.3147H63.0204V58.6028H66.2809C67.1659 58.6028 67.9111 58.5096 68.5167 58.2767C68.9359 58.137 69.4482 57.8575 70.0072 57.4383L70.1003 57.3917L70.5195 57.8109L70.4264 57.9041L68.9824 59.4878ZM60.8312 59.2549H68.8893L70.1935 57.9041L70.1003 57.8109C69.5414 58.2302 69.029 58.5096 68.6098 58.6028C67.9577 58.8357 67.1659 58.9288 66.2809 58.9288H62.7875V52.1749H66.3274C66.8864 52.1749 67.259 52.2681 67.4453 52.4078C67.5851 52.501 67.6782 52.6407 67.7714 52.8736H67.9577V51.057H67.818C67.7248 51.3365 67.5385 51.5228 67.3522 51.6625C67.1659 51.7557 66.8398 51.8489 66.3274 51.8489H62.7875V47.1444H66.2343C66.8398 47.1444 67.3988 47.2841 67.8645 47.5636C68.0043 47.6568 68.1906 47.7965 68.3769 47.9828C68.4701 48.076 68.5632 48.1691 68.703 48.3089L68.8893 48.2157L68.1906 46.7252H60.8777V46.9115C61.2504 47.0513 61.4833 47.3307 61.4833 47.7499V58.2302C61.4833 58.5096 61.3901 58.8823 60.8777 59.0686V59.2549H60.8312Z" fill="#191411"/>
<path d="M72.7506 59.3486V58.9294C73.1698 58.8363 73.4027 58.5568 73.4027 58.1376V47.8437C73.4027 47.5642 73.3561 47.3779 73.3096 47.2847C73.2164 47.1916 73.0767 47.0984 72.7972 47.0053V46.5861H75.3124C76.7098 46.5861 77.8743 46.7258 78.7593 47.0053C79.6443 47.2847 80.4361 47.7505 81.1348 48.4026C82.439 49.6137 83.0445 51.1042 83.0445 52.9674C83.0445 54.9237 82.3459 56.4608 80.9485 57.6718C80.2964 58.2308 79.5977 58.65 78.8059 58.9294C78.014 59.2089 77.129 59.3021 76.1043 59.3021H72.7506V59.3486ZM74.9398 47.1916V58.7431H75.5919C76.7098 58.7431 77.6414 58.6034 78.3867 58.2773C79.1319 57.9513 79.6909 57.4855 80.1566 56.7868C80.8553 55.7621 81.228 54.5044 81.228 53.1071C81.228 52.3618 81.1348 51.6631 80.9019 50.9645C80.669 50.2658 80.3895 49.6603 80.0169 49.1479C79.0853 47.8437 77.688 47.1916 75.7317 47.1916H74.9398Z" fill="#191411"/>
<path d="M76.0571 59.4887H72.6569V58.8832H72.75C73.1227 58.7901 73.309 58.5572 73.309 58.1845V47.8906C73.309 47.5646 73.2624 47.4249 73.2158 47.3783C73.1692 47.3317 73.0761 47.2385 72.7966 47.1454L72.7035 47.0988V46.4933H75.3119C76.7558 46.4933 77.8737 46.633 78.7587 46.9125C79.6437 47.192 80.4355 47.6578 81.1808 48.3564C82.485 49.5675 83.1371 51.1046 83.1371 53.0143C83.1371 54.9706 82.3918 56.6009 80.9945 57.8119C80.3424 58.3709 79.5971 58.7901 78.8519 59.0696C78.0134 59.349 77.0819 59.4887 76.0571 59.4887ZM72.8432 59.2559H76.0105C77.0353 59.2559 77.9203 59.1161 78.6655 58.8832C79.4108 58.6503 80.1095 58.2311 80.7616 57.6722C82.1589 56.5077 82.8576 54.924 82.8576 53.0609C82.8576 51.2443 82.2055 49.7538 80.9479 48.5893C80.2492 47.9372 79.4574 47.4714 78.619 47.192C77.7805 46.9125 76.6161 46.7727 75.2187 46.7727H72.8432V46.9591C73.0761 47.0522 73.2624 47.1454 73.309 47.2385C73.4021 47.3783 73.4487 47.5646 73.4487 47.8906V58.1845C73.4487 58.6503 73.2158 58.9298 72.7966 59.0696V59.2559H72.8432ZM75.5913 58.8832H74.7995V47.0988H75.7311C77.6874 47.0988 79.1779 47.7975 80.1095 49.1483C80.4821 49.6606 80.7616 50.2662 80.9945 51.0114C81.2274 51.7101 81.3205 52.4554 81.3205 53.2006C81.3205 54.6446 80.9479 55.9022 80.2492 56.9269C79.7834 57.6256 79.1313 58.138 78.3861 58.464C77.6874 58.6969 76.7558 58.8832 75.5913 58.8832ZM75.0324 58.6503H75.5913C76.7092 58.6503 77.6408 58.5106 78.3395 58.1845C79.0382 57.9051 79.6437 57.3927 80.0629 56.7406C80.7616 55.7159 81.0876 54.5048 81.0876 53.154C81.0876 52.4554 80.9945 51.7101 80.7616 51.058C80.5753 50.3593 80.2492 49.7538 79.9232 49.288C79.0382 48.0304 77.6408 47.3783 75.7311 47.3783H75.0324V58.6503Z" fill="#191411"/>
<path d="M92.9694 59.3489V58.9763C93.3886 58.8366 93.6214 58.6037 93.6214 58.2311V47.7974C93.6214 47.4248 93.4351 47.1919 93.0159 47.0521V46.6329H95.9504C97.3943 46.6329 98.5122 46.8192 99.3041 47.2385C99.7233 47.4713 100.049 47.7508 100.282 48.1235C100.515 48.4961 100.655 48.9153 100.655 49.3811C100.655 50.6387 99.7233 51.5237 97.8135 52.0361C99.2109 52.1758 100.329 52.595 101.121 53.2471C101.912 53.8992 102.332 54.7376 102.332 55.7624C102.332 56.8337 101.819 57.6721 100.795 58.3242C99.7699 58.9763 98.4191 59.3024 96.6957 59.3024H92.9694V59.3489ZM95.1586 47.1919V51.8032H96.1367C97.208 51.8032 97.9533 51.5703 98.3725 51.0579C98.7451 50.5921 98.8849 50.0798 98.8849 49.4742C98.8849 47.9837 98.0465 47.2385 96.323 47.2385H95.1586V47.1919ZM95.1586 52.4087V58.7434H96.7422C97.4875 58.7434 98.0464 58.6968 98.4656 58.5571C98.8849 58.4174 99.3041 58.1845 99.6767 57.8584C100.236 57.2995 100.515 56.6008 100.515 55.7624C100.515 54.6911 100.142 53.8526 99.3507 53.2471C98.6054 52.6882 97.4875 52.3621 95.997 52.3621H95.1586V52.4087Z" fill="#191411"/>
<path d="M96.7882 59.4878H92.8756V58.8822H92.9688C93.3414 58.7891 93.5277 58.5562 93.5277 58.2767V47.7965C93.5277 47.4705 93.388 47.2841 93.0153 47.1444L92.9222 47.0978V46.4923H95.9498C97.4403 46.4923 98.5582 46.7252 99.3966 47.1444C99.8158 47.3773 100.188 47.6568 100.421 48.076C100.701 48.4952 100.794 48.9144 100.794 49.3802C100.794 50.5912 100.002 51.4762 98.4185 51.9886C99.583 52.1749 100.561 52.5941 101.26 53.1531C102.098 53.8517 102.517 54.7367 102.517 55.7615C102.517 56.8794 102.005 57.7644 100.934 58.4165C99.909 59.1617 98.5117 59.4878 96.7882 59.4878ZM93.0619 59.2549H96.7416C98.4185 59.2549 99.7693 58.9288 100.747 58.3233C101.726 57.7178 102.238 56.8794 102.238 55.8546C102.238 54.8765 101.865 54.0381 101.073 53.4325C100.282 52.7804 99.2103 52.3612 97.8129 52.2215L97.2074 52.1749L97.8129 51.9886C99.6295 51.4762 100.561 50.6378 100.561 49.4268C100.561 49.0076 100.468 48.5883 100.188 48.2157C99.9556 47.8431 99.6295 47.5636 99.2569 47.3773C98.5116 46.9581 97.3937 46.7718 95.9498 46.7718H93.1551V46.9581C93.5277 47.0978 93.7606 47.3773 93.7606 47.7965V58.2302C93.7606 58.5096 93.6674 58.8823 93.1085 59.0686V59.2549H93.0619ZM96.7416 58.8822H95.0182V52.3147H95.9964C97.4869 52.3147 98.6514 52.5941 99.4432 53.1996C100.235 53.8052 100.654 54.6902 100.654 55.8081C100.654 56.6931 100.375 57.3917 99.7693 57.9973C99.3966 58.3233 98.9774 58.6028 98.5116 58.696C98.0924 58.7891 97.4869 58.8822 96.7416 58.8822ZM95.2511 58.6494H96.7416C97.4403 58.6494 98.0459 58.6028 98.4651 58.4631C98.8843 58.3233 99.2569 58.137 99.6295 57.8109C100.142 57.2986 100.421 56.5999 100.421 55.8081C100.421 54.7368 100.049 53.9449 99.3035 53.386C98.5582 52.827 97.4403 52.5475 95.9964 52.5475H95.2511V58.6494ZM96.1361 51.942H95.0648V47.0978H96.369C98.139 47.0978 99.024 47.8897 99.024 49.4733C99.024 50.1255 98.8377 50.6844 98.4651 51.1502C97.9993 51.6626 97.2074 51.942 96.1361 51.942ZM95.2511 51.7091H96.0896C97.1143 51.7091 97.813 51.4762 98.2322 51.0104C98.5582 50.5912 98.7445 50.0789 98.7445 49.4733C98.7445 48.0294 97.9527 47.3307 96.3225 47.3307H95.2511V51.7091Z" fill="#191411"/>
<path d="M105.305 59.3489V58.9763C105.725 58.8366 105.957 58.6037 105.957 58.2311V47.7508C105.957 47.3782 105.725 47.1453 105.305 47.0056V46.6329H109.078C109.777 46.6329 110.336 46.6795 110.708 46.7727C111.128 46.8658 111.5 47.0521 111.919 47.285C112.851 47.8906 113.317 48.7756 113.317 49.94C113.317 50.9182 112.944 51.71 112.246 52.269C112.013 52.4553 111.78 52.595 111.547 52.6882C111.314 52.7813 110.988 52.8745 110.522 52.9676L111.034 53.7595C111.407 54.4116 111.826 55.2034 112.199 56.1816C112.478 56.7871 112.618 57.1132 112.618 57.2063C112.758 57.5324 112.944 57.8584 113.131 58.1845C113.317 58.5105 113.55 58.7434 113.736 58.8831C113.922 59.0229 114.202 59.0695 114.481 59.0695L114.528 59.4421C114.062 59.4421 113.689 59.4421 113.457 59.3955C113.224 59.3489 112.944 59.3024 112.665 59.1626C112.292 59.0229 111.966 58.79 111.687 58.464C111.407 58.1379 111.128 57.5789 110.802 56.7871L110.289 55.5761L109.777 54.4116C109.591 54.0855 109.497 53.8992 109.497 53.8526C109.497 53.8526 109.404 53.7595 109.311 53.6197C109.078 53.3403 108.706 53.2005 108.24 53.2005H107.914H107.774C107.681 53.2005 107.634 53.2005 107.634 53.2005C107.588 53.2005 107.588 53.2005 107.541 53.2471V58.1845C107.541 58.5571 107.727 58.79 108.147 58.9297V59.3024H105.305V59.3489ZM107.495 47.1919V52.6416H108.612C109.264 52.6416 109.777 52.595 110.103 52.5019C110.429 52.4087 110.755 52.1758 110.941 51.8963C111.361 51.3374 111.593 50.6853 111.593 49.94C111.593 49.5674 111.547 49.2413 111.407 48.8687C111.267 48.4961 111.128 48.2166 110.941 47.9837C110.522 47.4713 109.777 47.1919 108.799 47.1919H107.495Z" fill="#191411"/>
<path d="M114.67 59.5819H114.531C114.065 59.5819 113.692 59.5819 113.413 59.5353C113.18 59.4888 112.9 59.4422 112.574 59.3024C112.155 59.1161 111.829 58.8832 111.55 58.5572C111.27 58.2311 110.991 57.6722 110.618 56.8803L109.593 54.5048C109.36 54.0391 109.314 53.9925 109.314 53.9925L109.127 53.7596C108.941 53.5267 108.569 53.3869 108.149 53.3869H107.684C107.637 53.3869 107.59 53.3869 107.544 53.3869V58.2311C107.544 58.5572 107.684 58.7435 108.056 58.8367L108.149 58.8832V59.4887H105.122V58.8832H105.215C105.587 58.7901 105.774 58.6038 105.774 58.2777V47.7975C105.774 47.518 105.587 47.2851 105.215 47.1454L105.122 47.0988V46.4933H109.034C109.733 46.4933 110.292 46.5399 110.711 46.633C111.13 46.7262 111.55 46.9125 111.969 47.192C112.947 47.7975 113.413 48.7291 113.413 49.9401C113.413 50.9648 113.04 51.8033 112.295 52.3622C112.015 52.5485 111.782 52.6883 111.55 52.7814C111.363 52.8746 111.037 52.9677 110.665 53.0609L111.084 53.713C111.456 54.3651 111.876 55.2035 112.295 56.1817L112.481 56.5543C112.621 56.8803 112.714 57.1132 112.761 57.1598C112.9 57.4859 113.087 57.7653 113.273 58.0914C113.459 58.4174 113.646 58.6038 113.832 58.7435C114.018 58.8832 114.251 58.9298 114.531 58.9298H114.624L114.67 59.5819ZM107.73 53.1075H108.196C108.708 53.1075 109.081 53.2472 109.36 53.5733L109.547 53.8062C109.547 53.8062 109.593 53.8527 109.826 54.3651L110.851 56.7406C111.177 57.4859 111.503 58.0448 111.736 58.3709C111.969 58.6969 112.295 58.8832 112.667 59.0696C112.947 59.1627 113.18 59.2559 113.413 59.2559C113.646 59.3024 113.972 59.3024 114.344 59.3024V59.1627C114.065 59.1627 113.785 59.0696 113.599 58.9298C113.413 58.7901 113.18 58.5572 112.994 58.1845C112.807 57.8585 112.621 57.5325 112.481 57.2064C112.435 57.1598 112.388 56.9269 112.202 56.6009L112.015 56.2282C111.596 55.2501 111.224 54.4583 110.851 53.8062L110.245 52.8746L110.385 52.828C110.851 52.7348 111.177 52.6417 111.41 52.5485C111.643 52.4554 111.876 52.3156 112.109 52.1293C112.807 51.5704 113.18 50.8251 113.18 49.8935C113.18 48.7756 112.761 47.9372 111.829 47.3317C111.456 47.0988 111.037 46.9125 110.665 46.8193C110.292 46.7262 109.733 46.6796 109.034 46.6796H105.355V46.8659C105.867 47.0522 106.007 47.4249 106.007 47.7043V58.1845C106.007 58.464 105.914 58.8367 105.355 58.9764V59.1627H107.87V58.9764C107.497 58.8367 107.264 58.5572 107.264 58.138V53.154L107.311 53.1075C107.357 53.0609 107.404 53.0609 107.451 53.0609C107.59 53.1075 107.637 53.1075 107.73 53.1075ZM108.615 52.7814H107.357V47.0988H108.848C109.873 47.0988 110.618 47.3783 111.084 47.9372C111.27 48.1701 111.456 48.4496 111.55 48.8688C111.689 49.2414 111.736 49.6141 111.736 49.9867C111.736 50.7785 111.503 51.4772 111.084 52.0362C110.851 52.3622 110.525 52.5485 110.152 52.6883C109.78 52.7348 109.267 52.7814 108.615 52.7814ZM107.59 52.5485H108.615C109.267 52.5485 109.78 52.5019 110.106 52.4088C110.432 52.3156 110.711 52.1293 110.897 51.8498C111.317 51.3375 111.503 50.6854 111.503 49.9401C111.503 49.6141 111.456 49.2414 111.317 48.8688C111.224 48.4962 111.037 48.2167 110.897 48.0304C110.478 47.518 109.78 47.2851 108.848 47.2851H107.59V52.5485Z" fill="#191411"/>
<path d="M116.63 59.3489V58.9763C117.049 58.8366 117.235 58.6037 117.235 58.2311V47.7508C117.235 47.3782 117.049 47.1453 116.63 47.0056V46.6329H124.129L124.921 48.3098L124.548 48.4961C124.362 48.3098 124.268 48.17 124.175 48.0769C123.989 47.8906 123.849 47.7508 123.663 47.7042C123.197 47.4248 122.685 47.285 122.079 47.285H118.772V51.71H122.219C122.685 51.71 122.964 51.6634 123.151 51.5703C123.337 51.4771 123.477 51.2442 123.57 50.9648H123.942V53.0142H123.616C123.523 52.7813 123.43 52.595 123.29 52.5019C123.104 52.3621 122.778 52.269 122.266 52.269H118.819V58.79H122.219C123.104 58.79 123.849 58.6968 124.501 58.464C124.921 58.3242 125.433 58.0447 126.038 57.6255L126.271 57.8584L124.874 59.3489H116.63Z" fill="#191411"/>
<path d="M124.92 59.4878H116.536V58.8822H116.629C117.002 58.7891 117.141 58.5562 117.141 58.2767V47.7965C117.141 47.4705 116.955 47.2841 116.629 47.1444L116.536 47.0978V46.4923H124.221L125.106 48.3089L124.547 48.5884L124.501 48.5418C124.314 48.3555 124.221 48.2157 124.128 48.1226C123.942 47.9363 123.802 47.8431 123.662 47.7499C123.243 47.4705 122.731 47.3307 122.125 47.3307H118.911V51.5228H122.218C122.731 51.5228 123.01 51.4297 123.103 51.3831C123.243 51.2899 123.383 51.1036 123.476 50.8241L123.523 50.731H124.082V53.0133H123.523L123.476 52.9202C123.383 52.6873 123.29 52.5475 123.197 52.501C123.103 52.4078 122.824 52.3147 122.218 52.3147H118.911V58.6028H122.172C123.057 58.6028 123.802 58.5096 124.408 58.2767C124.827 58.137 125.339 57.8575 125.898 57.4383L125.991 57.3917L126.41 57.8109L126.317 57.9041L124.92 59.4878ZM116.769 59.2549H124.827L126.131 57.9041L126.038 57.8109C125.479 58.2302 124.967 58.5096 124.547 58.6028C123.895 58.8357 123.103 58.9288 122.218 58.9288H118.725V52.1749H122.265C122.824 52.1749 123.197 52.2681 123.383 52.4078C123.523 52.501 123.616 52.6407 123.709 52.8736H123.895V51.057H123.755C123.662 51.3365 123.476 51.5694 123.29 51.6625C123.103 51.7557 122.777 51.8489 122.265 51.8489H118.725V47.1444H122.172C122.777 47.1444 123.336 47.2841 123.802 47.5636C123.942 47.6568 124.128 47.7965 124.314 47.9828C124.408 48.076 124.501 48.1691 124.64 48.3089L124.827 48.2157L124.128 46.7252H116.815V46.9115C117.188 47.0513 117.421 47.3307 117.421 47.7499V58.2302C117.421 58.5096 117.328 58.8823 116.815 59.0686V59.2549H116.769Z" fill="#191411"/>
<path d="M128.688 59.3489V58.9763C129.107 58.8366 129.294 58.6037 129.294 58.2311V47.7508C129.294 47.3782 129.107 47.1453 128.688 47.0056V46.6329H136.187L136.979 48.3098L136.607 48.4961C136.42 48.3098 136.327 48.17 136.234 48.0769C136.048 47.8906 135.908 47.7508 135.721 47.7042C135.256 47.4248 134.743 47.285 134.138 47.285H130.831V51.71H134.278C134.743 51.71 135.023 51.6634 135.209 51.5703C135.395 51.4771 135.535 51.2442 135.628 50.9648H136.001V53.0142H135.628C135.535 52.7813 135.442 52.595 135.302 52.5019C135.116 52.3621 134.79 52.269 134.278 52.269H130.831V58.79H134.231C135.116 58.79 135.861 58.6968 136.513 58.464C136.933 58.3242 137.445 58.0447 138.05 57.6255L138.283 57.8584L136.886 59.3489H128.688Z" fill="#191411"/>
<path d="M136.932 59.4878H128.547V58.8822H128.641C129.013 58.7891 129.153 58.6028 129.153 58.2767V47.7965C129.153 47.4705 128.967 47.2841 128.641 47.1444L128.547 47.0978V46.4923H136.233L137.118 48.3089L136.606 48.5884L136.559 48.5418C136.373 48.3555 136.28 48.2157 136.186 48.1226C136 47.9363 135.86 47.8431 135.721 47.7499C135.301 47.4705 134.789 47.3307 134.184 47.3307H130.97V51.5228H134.277C134.696 51.5228 135.022 51.4762 135.162 51.3831C135.301 51.2899 135.441 51.1036 135.534 50.8241L135.581 50.731H136.14V53.0133H135.581L135.534 52.9202C135.441 52.6873 135.348 52.5475 135.255 52.501C135.162 52.4078 134.882 52.3147 134.277 52.3147H130.97V58.6028H134.23C135.115 58.6028 135.86 58.5096 136.466 58.2767C136.885 58.137 137.397 57.8575 137.956 57.4383L138.05 57.3917L138.469 57.8109L138.376 57.9041L136.932 59.4878ZM128.78 59.2549H136.839L138.143 57.9041L138.05 57.8109C137.491 58.2302 136.978 58.5096 136.559 58.6028C135.907 58.8357 135.115 58.9288 134.23 58.9288H130.737V52.1749H134.277C134.836 52.1749 135.208 52.2681 135.395 52.4078C135.534 52.501 135.627 52.6407 135.721 52.8736H135.907V51.057H135.767C135.674 51.3365 135.488 51.5228 135.301 51.6625C135.115 51.7557 134.789 51.8489 134.277 51.8489H130.737V47.1444H134.184C134.789 47.1444 135.348 47.2841 135.814 47.5636C135.954 47.6568 136.14 47.7965 136.326 47.9828C136.419 48.076 136.512 48.1691 136.652 48.3089L136.839 48.2157L136.14 46.7252H128.827V46.9115C129.2 47.0513 129.432 47.3307 129.432 47.7499V58.2302C129.432 58.5096 129.339 58.8823 128.827 59.0686V59.2549H128.78Z" fill="#191411"/>
<path d="M140.712 59.3477V58.9285C141.131 58.8353 141.364 58.5558 141.364 58.1366V47.8427C141.364 47.5632 141.317 47.3769 141.27 47.2838C141.177 47.1906 141.038 47.0974 140.758 47.0043V46.5851H143.273C144.671 46.5851 145.835 46.7248 146.72 47.0043C147.605 47.2838 148.397 47.7495 149.096 48.4017C150.4 49.6127 151.005 51.1032 151.005 52.9664C151.005 54.9227 150.307 56.4598 148.909 57.6708C148.257 58.2298 147.559 58.649 146.767 58.9285C145.975 59.2079 145.09 59.3011 144.065 59.3011H140.712V59.3477ZM142.901 47.1906V58.7421H143.553C144.671 58.7421 145.602 58.6024 146.348 58.2764C147.093 57.9503 147.652 57.4845 148.118 56.7858C148.816 55.7611 149.189 54.5035 149.189 53.1061C149.189 52.3608 149.096 51.6622 148.863 50.9635C148.63 50.2648 148.35 49.6593 147.978 49.1469C147.046 47.8427 145.649 47.1906 143.693 47.1906H142.901Z" fill="#191411"/>
<path d="M144.018 59.4878H140.618V58.8822H140.711C141.084 58.7891 141.27 58.5562 141.27 58.1836V47.8897C141.27 47.5636 141.223 47.4239 141.177 47.3773C141.13 47.3307 141.037 47.2376 140.758 47.1444L140.664 47.0978V46.4923H143.273C144.717 46.4923 145.835 46.632 146.72 46.9115C147.605 47.191 148.396 47.6568 149.142 48.3555C150.446 49.5665 151.098 51.1036 151.098 53.0133C151.098 54.9696 150.353 56.5999 148.955 57.8109C148.303 58.3699 147.558 58.7891 146.813 59.0686C145.974 59.348 145.043 59.4878 144.018 59.4878ZM140.851 59.2549H144.018C145.043 59.2549 145.928 59.1151 146.673 58.8822C147.418 58.6494 148.117 58.2302 148.769 57.6712C150.166 56.5067 150.865 54.9231 150.865 53.0599C150.865 51.2433 150.213 49.7528 148.955 48.5884C148.257 47.9363 147.465 47.4705 146.626 47.191C145.788 46.9115 144.624 46.7718 143.226 46.7718H140.851V46.9581C141.084 47.0513 141.27 47.1444 141.316 47.2376C141.41 47.3773 141.456 47.5636 141.456 47.8897V58.1836C141.456 58.6494 141.223 58.9288 140.804 59.0686V59.2549H140.851ZM143.599 58.8822H142.807V47.0978H143.739C145.695 47.0978 147.185 47.7965 148.117 49.1473C148.49 49.6597 148.769 50.2652 149.002 51.0104C149.235 51.7091 149.328 52.4544 149.328 53.1996C149.328 54.6436 148.955 55.9012 148.257 56.9259C147.791 57.6246 147.139 58.137 146.394 58.4631C145.695 58.696 144.717 58.8822 143.599 58.8822ZM143.04 58.6494H143.599C144.717 58.6494 145.648 58.5096 146.347 58.1836C147.046 57.9041 147.651 57.3917 148.07 56.7396C148.769 55.7149 149.095 54.5039 149.095 53.1531C149.095 52.4544 149.002 51.7091 148.769 51.057C148.583 50.3583 148.257 49.7528 147.931 49.287C147.046 48.0294 145.648 47.3773 143.739 47.3773H143.04V58.6494Z" fill="#191411"/>
<path d="M44.2428 70.8508C44.2428 68.8945 44.8483 67.3108 46.0594 66.0998C47.2704 64.8887 48.8541 64.2832 50.8104 64.2832C52.627 64.2832 54.1175 64.8887 55.282 66.1464C56.4464 67.404 57.0054 68.9877 57.0054 70.944C57.0054 72.8537 56.3999 74.4374 55.1888 75.695C53.9778 76.9526 52.4873 77.5582 50.6241 77.5582C48.6678 77.5582 47.0841 76.9526 45.9197 75.7416C44.8018 74.4839 44.2428 72.8537 44.2428 70.8508ZM45.547 69.9192L45.5936 70.4316C45.7333 72.1084 46.3854 73.5989 47.5499 74.8566C48.7144 76.1608 49.972 76.7663 51.3228 76.7663C52.5804 76.7663 53.6051 76.3471 54.397 75.4621C55.1888 74.5771 55.5615 73.4126 55.5615 71.9687C55.5615 70.1521 54.9559 68.5219 53.7915 67.1245C52.627 65.7271 51.2762 65.0285 49.7391 65.0285C48.4815 65.0285 47.4567 65.4943 46.6649 66.3792C45.9196 67.2177 45.547 68.4287 45.547 69.9192Z" fill="#191411"/>
<path d="M50.6698 77.6056C48.6669 77.6056 47.0832 77.0001 45.8722 75.7425C44.7077 74.5314 44.1022 72.8546 44.1022 70.8051C44.1022 68.8488 44.7543 67.2186 45.9653 65.9609C47.223 64.7033 48.8532 64.0978 50.8095 64.0978C52.6727 64.0978 54.2098 64.7499 55.3742 66.0075C56.5387 67.2651 57.1442 68.8954 57.1442 70.8983C57.1442 72.808 56.5387 74.4383 55.3277 75.6959C54.07 77.0001 52.5329 77.6056 50.6698 77.6056ZM50.8095 64.3772C48.8998 64.3772 47.3627 64.9828 46.1516 66.1938C44.9406 67.4049 44.3351 68.942 44.3351 70.8517C44.3351 72.8546 44.894 74.4383 46.0585 75.6027C47.1764 76.7672 48.7601 77.3727 50.6698 77.3727C52.4864 77.3727 53.9769 76.7672 55.1413 75.5561C56.3058 74.3451 56.9113 72.7614 56.9113 70.8983C56.9113 68.9885 56.3524 67.4049 55.2345 66.1938C54.07 64.9828 52.6261 64.3772 50.8095 64.3772ZM51.3685 76.9069C49.9711 76.9069 48.6669 76.2548 47.5024 74.9506C46.338 73.6464 45.6393 72.1559 45.4995 70.4325L45.453 69.9201C45.453 68.4296 45.8722 67.172 46.664 66.287C47.4558 65.3554 48.5272 64.8896 49.8314 64.8896C51.3685 64.8896 52.7658 65.6349 53.9769 67.0322C55.1879 68.4762 55.7934 70.1065 55.7934 71.9696C55.7934 73.4135 55.3742 74.6246 54.5824 75.5096C53.744 76.4412 52.6727 76.9069 51.3685 76.9069ZM45.6859 69.9201L45.7324 70.4325C45.8722 72.0627 46.5243 73.5533 47.6887 74.8109C48.8066 76.0685 50.0643 76.674 51.415 76.674C52.6261 76.674 53.6508 76.2548 54.3961 75.3698C55.1413 74.5314 55.5606 73.367 55.5606 71.9696C55.5606 70.153 54.955 68.5693 53.8371 67.172C52.6727 65.8212 51.3219 65.1225 49.878 65.1225C48.6669 65.1225 47.6422 65.5417 46.8969 66.4267C46.0585 67.3117 45.6859 68.4762 45.6859 69.9201Z" fill="#191411"/>
<path d="M60.1725 77.2337V76.8611C60.5917 76.7213 60.778 76.4884 60.778 76.1158V65.6822C60.778 65.3095 60.5917 65.0766 60.2191 64.9369V64.5177H67.4854L68.3704 66.148L67.9977 66.3343C67.858 66.1945 67.7648 66.0548 67.5785 65.9151C67.4388 65.7287 67.299 65.6356 67.2059 65.5424C66.7867 65.2629 66.2743 65.1232 65.5756 65.1232H62.3617V69.4085H65.6688C66.088 69.4085 66.4141 69.3619 66.6469 69.2221C66.8798 69.0824 66.973 68.8961 67.0662 68.57H67.4388V70.6195H67.0196C66.8798 70.3866 66.7867 70.2003 66.6935 70.1537C66.4606 70.0606 66.2277 70.014 65.8551 70.014H62.3617V76.0692C62.3617 76.4419 62.548 76.6747 62.9206 76.8145V77.1871H60.1725V77.2337Z" fill="#191411"/>
<path d="M63.0132 77.3273H60.0787V76.7218L60.1719 76.6752C60.5445 76.5355 60.6843 76.3492 60.6843 76.0231V65.5895C60.6843 65.2634 60.5445 65.0771 60.2185 64.9374L60.1253 64.8908V64.2853H67.5779L68.5095 66.1018L67.9505 66.3813L67.904 66.3347C67.8108 66.2416 67.7177 66.1018 67.5779 66.0087L67.4848 65.9155C67.345 65.7758 67.2053 65.636 67.1121 65.5429C66.7395 65.31 66.2271 65.1703 65.5284 65.1703H62.4543V69.2226H65.6216C66.0408 69.2226 66.3203 69.176 66.5066 69.0829C66.6929 68.9897 66.7861 68.8034 66.8327 68.5239V68.4308H67.4382V70.7131H66.8327L66.7861 70.6665C66.6463 70.4337 66.5532 70.2939 66.46 70.2008C66.2737 70.1076 66.0408 70.061 65.7148 70.061H62.3611V76.0231C62.3611 76.3492 62.5008 76.5355 62.8269 76.6287L62.92 76.6752V77.3273H63.0132ZM60.3116 77.0944H62.7803V76.9081C62.4077 76.7684 62.2214 76.4889 62.2214 76.0697V69.8747H65.8079C66.1805 69.8747 66.46 69.9213 66.6929 70.061C66.7861 70.1542 66.9258 70.2939 67.0655 70.5268H67.2984V68.7103H67.1121C67.019 68.9897 66.8792 69.2226 66.6929 69.3158C66.46 69.4555 66.134 69.5021 65.6682 69.5021H62.2679V64.984H65.575C66.2737 64.984 66.8792 65.1237 67.2984 65.4032C67.4382 65.4963 67.5313 65.636 67.7176 65.7758L67.8108 65.8689C67.904 65.9621 67.9971 66.0553 68.0437 66.1484L68.23 66.0553L67.4382 64.5647H60.3582V64.7511C60.7308 64.8908 60.9171 65.1703 60.9171 65.5895V76.0231C60.9171 76.3026 60.824 76.6287 60.3116 76.8615V77.0944Z" fill="#191411"/>
<path d="M77.3639 77.2337V76.8611C77.7365 76.7213 77.9694 76.4884 77.9694 76.1158V65.6356C77.9694 65.2629 77.7831 65.0301 77.3639 64.8903V64.5177H81.6025C82.6273 64.5177 83.4191 64.5643 84.0246 64.7506C84.6302 64.8903 85.1891 65.1698 85.7481 65.5424C86.2139 65.8685 86.6331 66.2877 86.9125 66.8C87.192 67.3124 87.3317 67.8248 87.3317 68.4303C87.3317 69.6879 86.8194 70.6195 85.7481 71.3182C84.7233 72.0169 83.2328 72.3429 81.3231 72.3429H79.4133V76.1624C79.4133 76.535 79.5997 76.7679 80.0189 76.9076V77.3269H77.3639V77.2337ZM79.5065 65.0301V71.6442H81.1834C82.1149 71.6442 82.8136 71.5977 83.2794 71.4579C83.7452 71.3648 84.211 71.1319 84.5836 70.8524C85.2823 70.2469 85.6083 69.4084 85.6083 68.3371C85.6083 66.1014 84.2575 65.0301 81.5094 65.0301H79.5065Z" fill="#191411"/>
<path d="M80.2046 77.3273H77.2701V76.7218L77.3633 76.6752C77.6894 76.5821 77.8757 76.3492 77.8757 76.0697V65.5895C77.8757 65.2634 77.6894 65.0771 77.3633 64.9374L77.2701 64.8908V64.2853H81.6486C82.7199 64.2853 83.5117 64.3319 84.1172 64.5182C84.7228 64.6579 85.3283 64.9374 85.8872 65.31C86.3996 65.636 86.7722 66.1019 87.0517 66.6142C87.3312 67.1266 87.4709 67.6855 87.4709 68.291C87.4709 69.5487 86.912 70.5734 85.8406 71.2721C84.7693 71.9708 83.2788 72.2968 81.3691 72.2968H79.5991V76.0231C79.5991 76.3492 79.7388 76.5355 80.1114 76.6287L80.2046 76.6752V77.3273ZM77.4565 77.0944H79.9251V76.9081C79.5525 76.7684 79.3196 76.4889 79.3196 76.1163V72.1571H81.3225C83.1857 72.1571 84.6296 71.831 85.6543 71.1323C86.6791 70.4802 87.1914 69.5487 87.1914 68.3376C87.1914 67.7787 87.0517 67.2663 86.7722 66.7539C86.4927 66.2882 86.1201 65.8689 85.6543 65.5429C85.0954 65.1703 84.5364 64.9374 83.9775 64.7976C83.372 64.6579 82.5801 64.5647 81.5554 64.5647H77.4099V64.7511C77.7825 64.8908 78.0154 65.1703 78.0154 65.5895V76.0697C78.0154 76.4423 77.8291 76.7218 77.4099 76.9081V77.0944H77.4565ZM81.1362 71.7844H79.3662V64.9374H81.4622C84.257 64.9374 85.7009 66.1018 85.7009 68.3842C85.7009 69.5021 85.3283 70.3871 84.6296 70.9926C84.2104 71.3187 83.7912 71.505 83.2788 71.6447C82.813 71.7379 82.0677 71.7844 81.1362 71.7844ZM79.5991 71.5516H81.1362C82.0677 71.5516 82.7664 71.505 83.2322 71.3652C83.698 71.2721 84.1172 71.0392 84.4899 70.7597C85.142 70.2008 85.468 69.3623 85.468 68.3376C85.468 66.195 84.1638 65.1237 81.4622 65.1237H79.5991V71.5516Z" fill="#191411"/>
<path d="M89.8481 70.8508C89.8481 68.8945 90.4537 67.3108 91.6647 66.0998C92.8758 64.8887 94.4594 64.2832 96.4157 64.2832C98.2323 64.2832 99.7228 64.8887 100.887 66.1464C102.052 67.404 102.611 68.9877 102.611 70.944C102.611 72.8537 102.005 74.4374 100.794 75.695C99.5831 76.9526 98.0926 77.5582 96.2294 77.5582C94.2731 77.5582 92.6894 76.9526 91.5249 75.7416C90.4536 74.4839 89.8481 72.8537 89.8481 70.8508ZM91.1989 69.9192L91.2455 70.4316C91.3852 72.1084 92.0373 73.5989 93.2018 74.8566C94.3663 76.1608 95.6239 76.7663 96.9747 76.7663C98.2323 76.7663 99.257 76.3471 100.049 75.4621C100.841 74.5771 101.213 73.4126 101.213 71.9687C101.213 70.1521 100.608 68.5219 99.4433 67.1245C98.2789 65.7271 96.9281 65.0285 95.391 65.0285C94.1334 65.0285 93.1086 65.4943 92.3168 66.3792C91.5715 67.2177 91.1989 68.4287 91.1989 69.9192Z" fill="#191411"/>
<path d="M96.2752 77.6056C94.2723 77.6056 92.6887 77.0001 91.4776 75.7425C90.3132 74.5314 89.7076 72.8546 89.7076 70.8051C89.7076 68.8488 90.3597 67.2186 91.5708 65.9609C92.8284 64.7033 94.4587 64.0978 96.415 64.0978C98.2781 64.0978 99.8152 64.7499 100.98 66.0075C102.144 67.2651 102.75 68.8954 102.75 70.8983C102.75 72.808 102.144 74.4383 100.933 75.6959C99.7221 77.0001 98.1384 77.6056 96.2752 77.6056ZM96.4616 64.3772C94.5518 64.3772 93.0147 64.9828 91.8037 66.1938C90.5926 67.4049 89.9871 68.942 89.9871 70.8517C89.9871 72.8546 90.5461 74.4383 91.7105 75.6027C92.8284 76.7672 94.4121 77.3727 96.3218 77.3727C98.1384 77.3727 99.6289 76.7672 100.793 75.5561C101.958 74.3451 102.563 72.7614 102.563 70.8983C102.563 68.9885 102.004 67.4049 100.887 66.1938C99.7221 64.9828 98.2316 64.3772 96.4616 64.3772ZM97.0205 76.9069C95.6232 76.9069 94.3189 76.2548 93.1545 74.9506C91.99 73.6464 91.2913 72.1559 91.1516 70.4325L91.105 69.9201C91.105 68.4296 91.5242 67.172 92.316 66.287C93.1079 65.3554 94.1792 64.8896 95.4834 64.8896C97.0205 64.8896 98.4179 65.6349 99.6289 67.0322C100.84 68.4762 101.445 70.1065 101.445 71.9696C101.445 73.4135 101.026 74.6246 100.234 75.5096C99.3494 76.4412 98.2781 76.9069 97.0205 76.9069ZM91.2913 69.9201L91.3379 70.4325C91.4776 72.0627 92.1297 73.5533 93.2942 74.8109C94.4121 76.0685 95.6697 76.674 97.0205 76.674C98.2316 76.674 99.2563 76.2548 100.002 75.3698C100.747 74.5314 101.166 73.367 101.166 71.9696C101.166 70.153 100.56 68.5693 99.4426 67.172C98.2781 65.8212 96.9273 65.1225 95.4834 65.1225C94.2723 65.1225 93.2476 65.5417 92.5024 66.4267C91.6639 67.3117 91.2913 68.4762 91.2913 69.9201Z" fill="#191411"/>
<path d="M105.774 77.2337V76.8611C106.193 76.7213 106.426 76.4884 106.426 76.1158V65.6356C106.426 65.2629 106.193 65.0301 105.774 64.8903V64.5177H109.547C110.246 64.5177 110.805 64.5643 111.177 64.6574C111.596 64.7506 111.969 64.9369 112.388 65.1698C113.32 65.7753 113.786 66.6603 113.786 67.8248C113.786 68.8029 113.413 69.5948 112.714 70.1537C112.481 70.34 112.248 70.4798 112.016 70.5729C111.783 70.6661 111.457 70.7592 110.991 70.8524L111.503 71.6442C111.876 72.2963 112.295 73.0882 112.668 74.0663C112.947 74.6719 113.087 74.9979 113.087 75.0911C113.227 75.4171 113.413 75.7432 113.599 76.0692C113.786 76.3953 114.018 76.6282 114.205 76.7679C114.391 76.9076 114.671 76.9542 114.95 76.9542L114.997 77.3269C114.531 77.3269 114.158 77.3268 113.925 77.2803C113.692 77.2337 113.413 77.1871 113.133 77.0474C112.761 76.9076 112.435 76.6747 112.155 76.3487C111.876 76.0226 111.596 75.4637 111.27 74.6719L110.758 73.4608L110.246 72.2963C110.059 71.9703 109.966 71.784 109.966 71.7374C109.966 71.7374 109.873 71.6443 109.78 71.5045C109.547 71.225 109.174 71.0853 108.709 71.0853H108.382H108.243C108.15 71.0853 108.103 71.0853 108.103 71.0853C108.056 71.0853 108.056 71.0853 108.01 71.1319V76.0692C108.01 76.4419 108.196 76.6747 108.615 76.8145V77.1871H105.774V77.2337ZM107.963 65.0766V70.5263H109.081C109.733 70.5263 110.246 70.4798 110.572 70.3866C110.898 70.2935 111.224 70.0606 111.41 69.7811C111.829 69.2221 112.062 68.57 112.062 67.8248C112.062 67.4522 112.016 67.1261 111.876 66.7535C111.736 66.3808 111.596 66.1014 111.41 65.8685C110.991 65.3561 110.246 65.0766 109.267 65.0766H107.963Z" fill="#191411"/>
<path d="M115.139 77.4667H114.999C114.534 77.4667 114.161 77.4667 113.881 77.4201C113.649 77.3735 113.369 77.3269 113.043 77.1872C112.624 77.0009 112.298 76.768 112.018 76.442C111.739 76.1159 111.459 75.557 111.087 74.7651L110.062 72.3896C109.829 71.9238 109.783 71.8773 109.783 71.8773L109.596 71.6444C109.41 71.4115 109.037 71.2717 108.618 71.2717H108.152C108.106 71.2717 108.059 71.2717 108.013 71.2717V76.1159C108.013 76.442 108.152 76.6283 108.525 76.7214L108.618 76.768V77.3735H105.59V76.768H105.684C106.056 76.6749 106.243 76.4886 106.243 76.1625V65.6823C106.243 65.4028 106.056 65.1699 105.684 65.0302L105.59 64.9836V64.3781H109.503C110.202 64.3781 110.761 64.4247 111.18 64.5178C111.599 64.611 112.018 64.7973 112.438 65.0767C113.416 65.6823 113.881 66.6138 113.881 67.8249C113.881 68.8496 113.509 69.688 112.764 70.247C112.484 70.4333 112.251 70.573 112.018 70.6662C111.832 70.7593 111.506 70.8525 111.133 70.9457L111.553 71.5978C111.925 72.2499 112.344 73.0883 112.764 74.0665L112.95 74.4391C113.09 74.7651 113.183 74.998 113.229 75.0446C113.369 75.3707 113.555 75.6501 113.742 75.9762C113.928 76.3022 114.114 76.4886 114.301 76.6283C114.487 76.768 114.72 76.8146 114.999 76.8146H115.093L115.139 77.4667ZM108.199 70.9922H108.665C109.177 70.9922 109.55 71.132 109.829 71.458L110.015 71.6909C110.015 71.6909 110.062 71.7375 110.295 72.2499L111.32 74.6254C111.646 75.3706 111.972 75.9296 112.205 76.2556C112.438 76.5817 112.764 76.768 113.136 76.9543C113.416 77.0475 113.649 77.1406 113.881 77.1406C114.114 77.1872 114.44 77.1872 114.813 77.1872V77.0475C114.534 77.0475 114.254 76.9543 114.068 76.8146C113.881 76.6749 113.649 76.442 113.462 76.0693C113.276 75.7433 113.09 75.4172 112.95 75.0912C112.903 75.0446 112.857 74.8117 112.67 74.4857L112.484 74.113C112.065 73.1349 111.692 72.343 111.32 71.6909L110.714 70.7593L110.854 70.7128C111.32 70.6196 111.646 70.5264 111.879 70.4333C112.111 70.3401 112.344 70.2004 112.577 70.0141C113.276 69.4552 113.649 68.7099 113.649 67.7783C113.649 66.6604 113.229 65.822 112.298 65.2165C111.925 64.9836 111.506 64.7973 111.133 64.7041C110.761 64.611 110.202 64.5644 109.503 64.5644H105.823V64.7507C106.336 64.937 106.475 65.3096 106.475 65.5891V76.0693C106.475 76.3488 106.382 76.7214 105.823 76.8612V77.0475H108.339V76.8612C107.966 76.7214 107.733 76.442 107.733 76.0227V71.0854L107.78 71.0388C107.826 70.9923 107.873 70.9922 107.919 70.9922C108.059 70.9922 108.106 70.9922 108.199 70.9922ZM109.084 70.6662H107.826V64.9836H109.317C110.341 64.9836 111.087 65.2631 111.553 65.822C111.739 66.0549 111.925 66.3344 112.018 66.7536C112.158 67.1262 112.205 67.4988 112.205 67.8715C112.205 68.6633 111.972 69.362 111.553 69.9209C111.32 70.247 110.994 70.4333 110.621 70.5731C110.248 70.5731 109.736 70.6662 109.084 70.6662ZM108.059 70.4333H109.084C109.736 70.4333 110.248 70.3867 110.574 70.2936C110.9 70.2004 111.18 70.0141 111.366 69.7346C111.785 69.2222 111.972 68.5702 111.972 67.8249C111.972 67.4988 111.925 67.1262 111.785 66.7536C111.692 66.381 111.506 66.1015 111.366 65.9152C110.947 65.4028 110.248 65.1699 109.317 65.1699H108.059V70.4333Z" fill="#191411"/>
<path d="M117.09 77.2327V76.8601C117.463 76.7204 117.696 76.4409 117.696 76.1148V65.6812C117.696 65.3086 117.51 65.0757 117.09 64.9359V64.5167H119.792V64.8893C119.419 65.0291 119.233 65.262 119.233 65.6346V70.7117L124.636 65.6812C124.776 65.5415 124.823 65.4483 124.823 65.3085C124.823 65.2154 124.776 65.1222 124.729 65.0756C124.683 65.0291 124.496 64.9825 124.264 64.8893V64.5167H126.825V64.8893C126.36 65.0291 125.94 65.262 125.521 65.6812L121.096 69.7801L126.593 76.0683C126.825 76.3011 126.965 76.4874 127.151 76.5806C127.338 76.6738 127.524 76.7669 127.757 76.8601V77.2327H124.031V76.8135C124.31 76.7669 124.496 76.6738 124.543 76.6272C124.636 76.5806 124.636 76.4874 124.636 76.3477C124.636 76.208 124.59 76.1148 124.543 76.0683L120.025 70.9446L119.233 71.6898V76.1148C119.233 76.4874 119.419 76.7669 119.745 76.8601V77.2793H117.09V77.2327Z" fill="#191411"/>
<path d="M127.803 77.3267H123.844V76.7211H123.937C124.263 76.6745 124.356 76.5814 124.403 76.5814C124.449 76.5348 124.496 76.4882 124.496 76.3951C124.496 76.3485 124.496 76.2553 124.449 76.2088L119.978 71.1317L119.326 71.7372V76.1156C119.326 76.4417 119.465 76.6745 119.745 76.7211L119.838 76.7677V77.3732H116.997V76.7677L117.09 76.7211C117.416 76.5814 117.602 76.3951 117.602 76.069V65.6354C117.602 65.3093 117.462 65.123 117.09 64.9833L116.997 64.9367V64.3312H119.931V64.9367L119.838 64.9833C119.512 65.0764 119.326 65.3093 119.326 65.6354V70.433L124.542 65.5888C124.636 65.4957 124.682 65.4025 124.682 65.3093C124.682 65.2162 124.636 65.2162 124.636 65.2162C124.589 65.1696 124.496 65.123 124.216 65.0764L124.123 65.0299V64.4243H126.918V65.0299H126.825C126.406 65.1696 125.986 65.4025 125.567 65.7751L121.235 69.8275L126.685 76.0224C126.871 76.2553 127.058 76.3951 127.197 76.5348C127.337 76.628 127.524 76.7211 127.803 76.7677H127.896V77.3267H127.803ZM124.077 77.0938H127.57V76.9074C127.337 76.8609 127.151 76.7677 127.011 76.6745C126.871 76.5814 126.639 76.3951 126.452 76.1622L120.863 69.7809L120.956 69.6877L125.381 65.5888C125.8 65.2162 126.219 64.9367 126.639 64.797V64.6106H124.31V64.797C124.542 64.8435 124.682 64.9367 124.729 64.9833C124.775 65.0299 124.869 65.123 124.869 65.3093C124.869 65.4956 124.775 65.6354 124.636 65.7751L119 70.9919V65.6354C119 65.2627 119.186 64.9833 119.559 64.797V64.6106H117.09V64.797C117.462 64.9367 117.695 65.2162 117.695 65.6354V76.069C117.695 76.3485 117.602 76.6745 117.09 76.9074V77.0938H119.465V76.9074C119.139 76.7677 118.953 76.4882 118.953 76.069V71.5975L119.838 70.759L119.931 70.8522L124.449 75.9759C124.542 76.069 124.589 76.1622 124.589 76.3485C124.589 76.5348 124.542 76.6745 124.449 76.7211C124.356 76.7677 124.216 76.8609 123.984 76.9074V77.0938H124.077Z" fill="#191411"/>
<path d="M21.3753 95.0726V94.6999C21.6082 94.6068 21.7479 94.4671 21.7945 94.3273C21.8877 94.1876 21.8877 93.9081 21.8877 93.582V83.4744C21.8877 83.1018 21.7014 82.8689 21.3287 82.7292V82.3566H24.0303V82.7292C23.6577 82.8689 23.4248 83.1018 23.4248 83.4744V93.9547L23.5179 94.2342C23.5179 94.3273 23.5645 94.3739 23.6111 94.467C23.6577 94.5136 23.7974 94.6068 23.9837 94.6999V95.0726H21.3753Z" fill="#191411"/>
<path d="M24.1694 95.2127H21.235V94.6537L21.3281 94.6072C21.5144 94.514 21.6542 94.4208 21.7008 94.2811C21.7474 94.1414 21.7939 93.9085 21.7939 93.5824V83.4748C21.7939 83.1488 21.6542 82.9625 21.3281 82.8227L21.235 82.7761V82.2638H24.1694V82.8693L24.0763 82.9159C23.7502 83.0091 23.5639 83.2419 23.5639 83.568V94.0016L23.6571 94.2811C23.6571 94.3743 23.7037 94.4209 23.7502 94.4674C23.7502 94.4674 23.7968 94.5606 24.0763 94.6537L24.1694 94.7003V95.2127ZM21.5144 94.9798H23.9831V94.7935C23.7968 94.7003 23.6571 94.6538 23.6105 94.5606C23.5639 94.4674 23.5173 94.3743 23.4708 94.2811L23.3776 93.9551V83.4748C23.3776 83.1022 23.5639 82.8227 23.9831 82.6364V82.4501H21.5144V82.6364C21.8871 82.7762 22.0734 83.0556 22.0734 83.4748V93.5824C22.0734 93.9551 22.0268 94.188 21.9337 94.3743C21.8405 94.514 21.7008 94.6538 21.5144 94.7935V94.9798Z" fill="#191411"/>
<path d="M27.3326 95.0738V94.7012C27.7519 94.5615 27.9848 94.3286 27.9848 93.9559V83.5223C27.9848 83.1497 27.7519 82.8702 27.3326 82.777V82.4044H29.289L34.7387 89.3912V83.5223C34.7387 83.1497 34.5524 82.9168 34.1331 82.777V82.4044H35.81V82.777C35.4374 82.9168 35.251 83.1963 35.251 83.5689V93.9559C35.251 94.1423 35.2976 94.3286 35.3442 94.4217C35.4374 94.5149 35.5771 94.6081 35.7634 94.7012V95.0738H34.1797V94.7012C34.5524 94.5615 34.7852 94.3286 34.7852 93.9559V91.8599L28.5903 83.9415V93.9559C28.5903 94.3286 28.7766 94.5615 29.1026 94.7012V95.0738H27.3326Z" fill="#191411"/>
<path d="M35.9963 95.2127H34.0866V94.6072L34.1797 94.5606C34.5058 94.4674 34.6921 94.2345 34.6921 93.9551V91.9056L28.73 84.2667V93.9551C28.73 94.2811 28.8697 94.4674 29.1958 94.6072L29.289 94.6537V95.2593H27.3326V94.6537L27.4258 94.6072C27.7984 94.4674 27.9848 94.2811 27.9848 94.0016V83.568C27.9848 83.2419 27.7984 83.0556 27.4258 82.9159L27.3326 82.8693V82.2638H29.4753L29.5218 82.3104L34.7387 89.0643V83.5214C34.7387 83.1954 34.5989 83.009 34.2263 82.8693L34.1331 82.8227V82.2638H36.0429V82.8693L35.9497 82.9159C35.6237 83.0556 35.4839 83.2885 35.4839 83.6146V94.0016C35.4839 94.188 35.5305 94.3277 35.5771 94.4208C35.6237 94.514 35.7634 94.6072 35.9497 94.6537L36.0429 94.7003V95.2127H35.9963ZM34.2729 94.9798H35.7168V94.7935C35.5305 94.7003 35.3908 94.6072 35.2976 94.514C35.2045 94.3743 35.1579 94.188 35.1579 94.0016V83.6146C35.1579 83.1954 35.3442 82.8693 35.7168 82.7296V82.5433H34.2729V82.7296C34.6455 82.8693 34.8784 83.1488 34.8784 83.568V89.7164L34.6455 89.4369L29.2424 82.4967H27.4724V82.683C27.9848 82.8693 28.1245 83.242 28.1245 83.5214V93.9551C28.1245 94.3277 27.8916 94.6072 27.4724 94.7935V94.9798H28.9629V94.7935C28.5903 94.6538 28.4505 94.3743 28.4505 93.9551V83.568L28.6834 83.8475L34.925 91.8124V93.9551C34.925 94.3277 34.7387 94.6072 34.3195 94.7935V94.9798H34.2729Z" fill="#191411"/>
<path d="M45.0865 84.2217L45.7386 82.3585H52.5857L53.331 84.2217L52.9584 84.3614C52.7255 83.849 52.446 83.4764 52.1199 83.2901C51.7939 83.0572 51.3747 82.964 50.8623 82.964H50.0239V93.91C50.0239 94.2827 50.2102 94.5622 50.5829 94.7019V95.0745H47.7881V94.7019C48.2073 94.5622 48.4402 94.3293 48.4402 93.91V82.9175H47.5552C47.0429 82.9175 46.6237 83.0106 46.2976 83.2435C45.9715 83.4764 45.6921 83.849 45.4126 84.408L45.0865 84.2217Z" fill="#191411"/>
<path d="M50.722 95.2143H47.6944V94.6088L47.7875 94.5622C48.1602 94.4691 48.3465 94.2362 48.3465 93.9101V83.0107H47.6012C47.0888 83.0107 46.7162 83.1039 46.3902 83.3367C46.1107 83.5231 45.8312 83.8957 45.5517 84.4546L45.5052 84.5478L44.9928 84.2218L45.0394 84.1286L45.738 82.2189H52.7714L53.6099 84.2683L53.0509 84.5012L53.0043 84.4081C52.7714 83.9423 52.492 83.5697 52.2125 83.3833C51.933 83.1504 51.5138 83.0573 51.048 83.0573H50.2562V93.9101C50.2562 94.2362 50.3959 94.4691 50.722 94.5622L50.8151 94.6088V95.2143H50.722ZM47.8807 94.9814H50.4425V94.7951C50.0699 94.6554 49.8836 94.3293 49.8836 93.9567V82.8244H50.9083C51.4207 82.8244 51.8865 82.9641 52.2125 83.197C52.5386 83.4299 52.818 83.756 53.0509 84.2218L53.1906 84.1752L52.5385 82.4983H45.8312L45.2257 84.1752L45.3654 84.2683C45.6449 83.756 45.9244 83.3833 46.2038 83.197C46.5299 82.9641 46.9957 82.871 47.5546 82.871H48.5328V93.9101C48.5328 94.3293 48.2999 94.6088 47.8807 94.7485V94.9814Z" fill="#191411"/>
<path d="M55.61 95.0733V94.7006C56.0292 94.5609 56.2155 94.2814 56.2155 93.9088V83.4751C56.2155 83.1025 56.0292 82.8696 55.6566 82.7299V82.3107H58.3581V82.7299C57.9855 82.8696 57.7992 83.1025 57.7992 83.4751V87.4809H63.3886V83.4751C63.3886 83.1025 63.2023 82.8696 62.8763 82.7299V82.3107H65.5313V82.7299C65.1586 82.8696 64.9723 83.1025 64.9723 83.4751V93.9554C64.9723 94.2814 65.2052 94.5609 65.6244 94.7006V95.0733H62.9229V94.7006C63.2489 94.5609 63.4352 94.328 63.4352 93.9554V88.0399H57.8458V93.9088C57.8458 94.1417 57.8923 94.2814 57.9389 94.4211C57.9855 94.5143 58.1252 94.6075 58.3115 94.7006V95.0733H55.61Z" fill="#191411"/>
<path d="M65.7633 95.2127H62.8288V94.6537L62.922 94.6072C63.2014 94.514 63.3412 94.2811 63.3412 93.9551V88.1793H57.938V93.9085C57.938 94.0948 57.9846 94.2811 58.0312 94.3743C58.0778 94.4674 58.1709 94.5606 58.3572 94.6072L58.4038 94.6537V95.2127H55.4694V94.6072L55.5625 94.5606C55.9351 94.4209 56.1215 94.2345 56.1215 93.9085V83.4748C56.1215 83.1488 55.9817 82.9625 55.6557 82.8227L55.5625 82.7761V82.2638H58.497V82.8693L58.4038 82.9159C58.0778 83.0091 57.938 83.2419 57.938 83.568V87.434H63.2946V83.568C63.2946 83.2419 63.1549 83.0556 62.8754 82.9159L62.7822 82.8693V82.2638H65.6701V82.8693L65.5769 82.9159C65.2509 83.0091 65.0646 83.1954 65.0646 83.568V94.0482C65.0646 94.3277 65.2509 94.514 65.6235 94.6537L65.7167 94.7003V95.2127H65.7633ZM63.0617 94.9798H65.5304V94.7935C65.1112 94.6538 64.8783 94.3743 64.8783 94.0016V83.5214C64.8783 83.1022 65.0646 82.8228 65.4838 82.683V82.4967H63.0617V82.7296C63.3877 82.8693 63.5741 83.1488 63.5741 83.568V87.6669H57.7517V83.568C57.7517 83.1954 57.938 82.9159 58.3107 82.7296V82.5433H55.842V82.7296C56.2146 82.8693 56.4009 83.1488 56.4009 83.568V93.9085C56.4009 94.3277 56.2146 94.6072 55.7954 94.7469V94.9332H58.2641V94.7469C58.0778 94.6537 57.9846 94.5606 57.8914 94.4208C57.7983 94.2811 57.7983 94.0948 57.7983 93.8619V87.8998H63.5275V93.9085C63.5275 94.2811 63.3412 94.5606 63.0151 94.7469V94.9798H63.0617Z" fill="#191411"/>
<path d="M68.8874 95.0724V94.6998C69.3066 94.5601 69.4929 94.3272 69.4929 93.9545V83.4743C69.4929 83.1017 69.3066 82.8688 68.8874 82.7291V82.3564H76.3865L77.1784 84.0333L76.8057 84.2196C76.6194 84.0333 76.5263 83.8935 76.4331 83.8004C76.2468 83.6141 76.107 83.4743 75.9207 83.4278C75.4549 83.1483 74.9426 83.0085 74.3371 83.0085H71.03V87.4335H74.4768C74.9426 87.4335 75.2221 87.3869 75.4084 87.2938C75.5947 87.2006 75.7344 86.9677 75.8276 86.6883H76.2002V88.7377H75.8276C75.7344 88.5048 75.6413 88.3185 75.5015 88.2254C75.3152 88.0856 74.9892 87.9925 74.4768 87.9925H71.03V94.5135H74.4302C75.3152 94.5135 76.0605 94.4203 76.7126 94.1874C77.1318 94.0477 77.6441 93.7682 78.2497 93.349L78.4826 93.5819L77.0852 95.0724H68.8874Z" fill="#191411"/>
<path d="M77.1309 95.2127H68.7467V94.6072H68.8399C69.2125 94.514 69.3522 94.3277 69.3522 94.0016V83.5214C69.3522 83.1954 69.1659 83.009 68.8399 82.8693L68.7467 82.8227V82.2638H76.4322L77.3172 84.0804L76.8048 84.3598L76.7583 84.3133C76.5719 84.127 76.4788 83.9872 76.3856 83.8941C76.1993 83.7077 76.0596 83.6146 75.9198 83.5214C75.5006 83.242 74.9882 83.1022 74.3827 83.1022H71.1688V87.2943H74.4759C74.8951 87.2943 75.2212 87.2477 75.3609 87.1546C75.5006 87.0614 75.6404 86.8751 75.7335 86.5956L75.7801 86.5025H76.339V88.7848H75.7801L75.7335 88.6917C75.6404 88.4588 75.5472 88.319 75.454 88.2725C75.3609 88.1793 75.0814 88.0861 74.4759 88.0861H71.1688V94.3743H74.4293C75.3143 94.3743 76.0596 94.2811 76.6651 94.0482C77.0843 93.9085 77.5967 93.629 78.1556 93.2098L78.2488 93.1632L78.668 93.5824L78.5748 93.6756L77.1309 95.2127ZM68.9796 94.9798H77.0377L78.3419 93.629L78.2488 93.5359C77.6898 93.9551 77.1775 94.2345 76.7583 94.3277C76.1062 94.5606 75.3143 94.6537 74.4293 94.6537H70.9359V87.8998H74.4759C75.0348 87.8998 75.4075 87.993 75.5938 88.1327C75.7335 88.2259 75.8267 88.3656 75.9198 88.5985H76.1061V86.7819H75.9664C75.8733 87.0614 75.6869 87.2477 75.5006 87.3875C75.3143 87.4806 74.9883 87.5738 74.4759 87.5738H70.9359V82.8693H74.3827C74.9882 82.8693 75.5472 83.0091 76.013 83.2885C76.1527 83.3817 76.339 83.5214 76.5254 83.7077C76.6185 83.8009 76.7117 83.894 76.8514 84.0338L77.0377 83.9406L76.339 82.4501H69.0262V82.6364C69.3988 82.7762 69.6317 83.0556 69.6317 83.4748V93.9551C69.6317 94.2345 69.5385 94.6072 69.0262 94.7935V94.9798H68.9796Z" fill="#191411"/>
<path d="M86.817 82.7299V82.3573H89.8912V82.7299C89.4254 82.8696 89.1925 83.0559 89.1925 83.3354L89.2391 83.4751L92.0804 92.5114L94.5957 85.3383H94.9683L97.2507 92.4183L100.232 83.4751V83.3354C100.232 83.0559 99.9522 82.8696 99.4399 82.7299V82.3107H101.769V82.7299C101.303 82.823 101.024 83.1025 100.837 83.4751L96.9712 95.0733H96.4588L94.2231 88.0864L91.801 95.0733H91.242L87.5623 83.4751C87.4691 83.2422 87.376 83.1025 87.2828 83.0094C87.1896 82.9162 87.0499 82.823 86.817 82.7299Z" fill="#191411"/>
<path d="M91.8466 95.2127H91.1479L91.1014 95.1195L87.4216 83.5214C87.3285 83.3351 87.2819 83.1954 87.1887 83.1022C87.0956 83.009 86.9559 82.9159 86.7696 82.8693L86.6764 82.8227V82.2638H89.9835V82.8693H89.8903C89.2848 83.009 89.2848 83.2885 89.2848 83.3351V83.4748L91.9864 92.1385L94.4085 85.2448H94.9674L95.014 85.338L97.1566 92.0919L99.9979 83.5214V83.3817C99.9979 83.1954 99.765 83.0091 99.2992 82.9159H99.2061V82.2638H101.768V82.8693H101.675C101.256 82.9625 100.976 83.1954 100.836 83.5214L96.9237 95.1661H96.225L96.1784 95.073L94.0358 88.4122L91.8466 95.2127ZM91.3343 94.9798H91.7069L94.2222 87.7135L94.3153 88.0396L96.5045 94.9332H96.8306L100.65 83.4283C100.79 83.0091 101.116 82.7762 101.582 82.6364V82.4501H99.4856V82.6364C99.9979 82.7762 100.277 83.0091 100.277 83.2885V83.4748L97.2032 92.7906L97.11 92.4646L94.8742 85.4311H94.6413L92.0329 92.8372L89.0985 83.4748L89.0519 83.3351C89.0519 83.009 89.2848 82.7762 89.7506 82.6364V82.4501H86.9093V82.6364C87.0956 82.7296 87.2353 82.7762 87.3285 82.9159C87.4216 83.0091 87.5148 83.1954 87.608 83.4283L91.3343 94.9798Z" fill="#191411"/>
<path d="M102.985 88.6937C102.985 86.7374 103.59 85.1537 104.802 83.9427C106.013 82.7316 107.596 82.1261 109.553 82.1261C111.369 82.1261 112.86 82.7316 114.024 83.9892C115.189 85.2469 115.748 86.8305 115.748 88.7869C115.748 90.6966 115.142 92.2803 113.931 93.5379C112.72 94.7955 111.229 95.401 109.366 95.401C107.41 95.401 105.826 94.7955 104.662 93.5845C103.544 92.3268 102.985 90.7432 102.985 88.6937ZM104.289 87.7621L104.336 88.2745C104.475 89.9513 105.128 91.4419 106.292 92.6995C107.457 94.0037 108.714 94.6092 110.065 94.6092C111.323 94.6092 112.347 94.19 113.139 93.305C113.931 92.42 114.304 91.2555 114.304 89.8116C114.304 87.995 113.698 86.3648 112.534 84.9674C111.369 83.57 110.018 82.8713 108.481 82.8713C107.224 82.8713 106.199 83.3371 105.407 84.2221C104.662 85.1071 104.289 86.3182 104.289 87.7621Z" fill="#191411"/>
<path d="M109.412 95.4933C107.409 95.4933 105.825 94.8878 104.614 93.6302C103.45 92.4191 102.844 90.7423 102.844 88.6928C102.844 86.7365 103.496 85.1063 104.708 83.8486C105.965 82.591 107.595 81.9855 109.552 81.9855C111.415 81.9855 112.952 82.6376 114.116 83.8952C115.281 85.1528 115.886 86.7831 115.886 88.786C115.886 90.6957 115.281 92.3259 114.07 93.5836C112.812 94.8412 111.275 95.4933 109.412 95.4933ZM109.552 82.2184C107.642 82.2184 106.105 82.8239 104.894 84.0349C103.683 85.246 103.077 86.7831 103.077 88.6928C103.077 90.6957 103.636 92.2794 104.801 93.4438C105.919 94.6083 107.502 95.2138 109.412 95.2138C111.229 95.2138 112.719 94.6083 113.884 93.3973C115.048 92.1862 115.654 90.6025 115.654 88.7394C115.654 86.8297 115.095 85.246 113.977 84.0349C112.812 82.8239 111.322 82.2184 109.552 82.2184ZM110.111 94.748C108.713 94.748 107.409 94.0959 106.245 92.7917C105.08 91.4875 104.381 89.997 104.242 88.2736L104.195 87.7612C104.195 86.2707 104.614 85.0131 105.406 84.1281C106.198 83.1965 107.269 82.7307 108.574 82.7307C110.111 82.7307 111.508 83.476 112.719 84.8733C113.93 86.3173 114.536 87.9475 114.536 89.8107C114.536 91.2546 114.116 92.4657 113.325 93.3507C112.486 94.2823 111.415 94.748 110.111 94.748ZM104.428 87.7612L104.475 88.2736C104.614 89.9039 105.266 91.3944 106.431 92.652C107.549 93.9096 108.806 94.5151 110.157 94.5151C111.368 94.5151 112.393 94.0959 113.138 93.2109C113.884 92.3725 114.303 91.2081 114.303 89.8107C114.303 87.9941 113.697 86.4105 112.579 85.0131C111.415 83.6623 110.064 82.9636 108.62 82.9636C107.409 82.9636 106.384 83.3828 105.639 84.2678C104.801 85.1528 104.428 86.3173 104.428 87.7612Z" fill="#191411"/>
<path d="M118.856 95.0726V94.6999C119.275 94.5602 119.508 94.3273 119.508 93.9547V83.4744C119.508 83.1018 119.275 82.8689 118.856 82.7292V82.3566H122.629C123.328 82.3566 123.887 82.4031 124.259 82.4963C124.678 82.5895 125.051 82.7758 125.47 83.0087C126.402 83.6142 126.868 84.4992 126.868 85.6636C126.868 86.6418 126.495 87.4336 125.796 87.9926C125.563 88.1789 125.331 88.3186 125.098 88.4118C124.865 88.505 124.539 88.5981 124.073 88.6913L124.585 89.4831C124.958 90.1352 125.377 90.9271 125.75 91.9052C126.029 92.5107 126.169 92.8368 126.169 92.93C126.309 93.256 126.495 93.582 126.681 93.9081C126.868 94.2341 127.101 94.467 127.287 94.6068C127.473 94.7465 127.753 94.7931 128.032 94.7931L128.079 95.1657C127.613 95.1657 127.24 95.1657 127.007 95.1191C126.774 95.0726 126.495 95.026 126.216 94.8862C125.843 94.7465 125.517 94.5136 125.237 94.1876C124.958 93.8615 124.678 93.3026 124.352 92.5107L123.84 91.2997L123.328 90.1352C123.141 89.8092 123.048 89.6229 123.048 89.5763C123.048 89.5763 122.955 89.4831 122.862 89.3434C122.629 89.0639 122.256 88.9242 121.791 88.9242H121.465H121.278C121.185 88.9242 121.138 88.9242 121.138 88.9242C121.092 88.9242 121.092 88.9242 121.045 88.9708V93.9081C121.045 94.2807 121.232 94.5136 121.651 94.6533V95.026H118.856V95.0726ZM121.045 82.9621V88.4118H122.163C122.815 88.4118 123.328 88.3652 123.654 88.2721C123.98 88.1789 124.306 87.946 124.492 87.6665C124.911 87.1076 125.144 86.4555 125.144 85.7102C125.144 85.3376 125.098 85.0115 124.958 84.6389C124.818 84.2663 124.678 83.9868 124.492 83.7539C124.073 83.2416 123.328 82.9621 122.349 82.9621H121.045Z" fill="#191411"/>
<path d="M128.221 95.3058H128.081C127.616 95.3058 127.243 95.3059 126.964 95.2593C126.731 95.2127 126.451 95.1661 126.125 95.0264C125.706 94.8401 125.38 94.6072 125.1 94.2811C124.821 93.9551 124.541 93.3961 124.169 92.6043L123.144 90.2288C122.911 89.763 122.865 89.7164 122.865 89.7164L122.678 89.4835C122.492 89.2506 122.119 89.1109 121.7 89.1109H121.234C121.188 89.1109 121.141 89.1109 121.095 89.1109V93.9551C121.095 94.2811 121.234 94.4674 121.607 94.5606L121.7 94.6072V95.2127H118.672V94.6072H118.766C119.138 94.514 119.325 94.3277 119.325 94.0016V83.5214C119.325 83.242 119.138 83.009 118.766 82.8693L118.672 82.8227V82.2638H122.585C123.284 82.2638 123.843 82.3104 124.262 82.4035C124.681 82.4967 125.1 82.683 125.52 82.9625C126.498 83.568 126.964 84.4996 126.964 85.7106C126.964 86.7354 126.591 87.5738 125.846 88.1327C125.566 88.319 125.333 88.4588 125.1 88.5519C124.914 88.6451 124.588 88.7382 124.215 88.8314L124.635 89.4835C125.007 90.1356 125.426 90.974 125.846 91.9522L126.032 92.3248C126.172 92.6508 126.265 92.8838 126.311 92.9303C126.451 93.2564 126.637 93.5359 126.824 93.8619C127.01 94.188 127.196 94.3743 127.383 94.514C127.569 94.6537 127.802 94.7003 128.081 94.7003H128.175L128.221 95.3058ZM121.281 88.878H121.747C122.259 88.878 122.632 89.0177 122.911 89.3438L123.097 89.5767C123.097 89.5767 123.144 89.6233 123.377 90.1356L124.402 92.5111C124.728 93.2564 125.054 93.8153 125.287 94.1414C125.52 94.4674 125.846 94.6537 126.218 94.8401C126.498 94.9332 126.731 95.0264 126.964 95.0264C127.196 95.073 127.522 95.073 127.895 95.073V94.9332C127.616 94.9332 127.336 94.8401 127.15 94.7003C126.963 94.5606 126.731 94.3277 126.544 93.9551C126.358 93.629 126.172 93.303 126.032 92.9769C125.985 92.9303 125.939 92.6974 125.752 92.3714L125.566 91.9988C125.147 91.0206 124.774 90.2288 124.402 89.5767L123.796 88.6451L123.936 88.5985C124.402 88.5053 124.728 88.4122 124.961 88.319C125.194 88.2259 125.426 88.0861 125.659 87.8998C126.358 87.3409 126.731 86.5956 126.731 85.664C126.731 84.5461 126.311 83.7077 125.38 83.1022C125.007 82.8693 124.588 82.683 124.215 82.5899C123.843 82.4967 123.284 82.4501 122.585 82.4501H118.905V82.6364C119.418 82.8227 119.557 83.1954 119.557 83.4748V93.9551C119.557 94.2345 119.464 94.6072 118.905 94.7469V94.9332H121.421V94.7469C121.048 94.6072 120.815 94.3277 120.815 93.9085V88.9246L120.862 88.878C120.908 88.8314 120.955 88.8314 121.001 88.8314C121.141 88.878 121.188 88.878 121.281 88.878ZM122.166 88.5054H120.908V82.8227H122.399C123.424 82.8227 124.169 83.1022 124.635 83.6612C124.821 83.8941 125.007 84.1735 125.1 84.5927C125.24 84.9654 125.287 85.338 125.287 85.7106C125.287 86.5025 125.054 87.2011 124.635 87.7601C124.402 88.0861 124.076 88.2725 123.703 88.4122C123.377 88.4588 122.865 88.5054 122.166 88.5054ZM121.188 88.2725H122.212C122.865 88.2725 123.377 88.2259 123.703 88.1327C124.029 88.0395 124.309 87.8533 124.495 87.5738C124.914 87.0614 125.1 86.4093 125.1 85.664C125.1 85.338 125.054 84.9654 124.914 84.5927C124.821 84.2201 124.635 83.9406 124.495 83.7543C124.076 83.242 123.377 83.009 122.445 83.009H121.188V88.2725Z" fill="#191411"/>
<path d="M130.227 95.0724V94.6998C130.646 94.5601 130.879 94.3272 130.879 93.9545V83.5209C130.879 83.1483 130.693 82.9154 130.274 82.7756V82.3564H132.975V82.7756C132.742 82.8222 132.603 82.9154 132.51 83.0085C132.416 83.1017 132.416 83.288 132.416 83.5209V94.4669H134.512C135.258 94.4669 135.77 94.3738 136.05 94.234C136.329 94.0943 136.608 93.7217 136.795 93.2093H137.121V95.0724H130.227Z" fill="#191411"/>
<path d="M137.26 95.2127H130.087V94.6072L130.18 94.5606C130.552 94.4674 130.739 94.2345 130.739 93.9551V83.5214C130.739 83.1954 130.599 83.009 130.226 82.8693L130.133 82.8227V82.2638H133.068V82.8693H132.974C132.742 82.9159 132.648 83.0091 132.602 83.0556C132.555 83.1488 132.509 83.2885 132.509 83.4748V94.3743H134.512C135.21 94.3743 135.723 94.2811 136.002 94.1414C136.282 94.0016 136.514 93.6756 136.701 93.1632L136.747 93.0701H137.26V95.2127ZM130.319 94.9798H136.98V93.3495H136.84C136.608 93.8619 136.375 94.188 136.049 94.3743C135.723 94.5606 135.21 94.6072 134.465 94.6072H132.229V83.5214C132.229 83.242 132.276 83.0556 132.369 82.9625C132.462 82.8693 132.602 82.7762 132.788 82.7296V82.5433H130.319V82.7296C130.692 82.8693 130.925 83.1488 130.925 83.568V94.0016C130.925 94.2811 130.832 94.6537 130.273 94.8401V94.9798H130.319Z" fill="#191411"/>
<path d="M139.356 95.0733V94.654C139.775 94.5609 140.008 94.2814 140.008 93.8622V83.5683C140.008 83.2888 139.962 83.1025 139.915 83.0094C139.822 82.9162 139.682 82.823 139.403 82.7299V82.3107H141.918C143.315 82.3107 144.48 82.4504 145.365 82.7299C146.25 83.0094 147.042 83.4751 147.74 84.1273C149.044 85.3383 149.65 86.8288 149.65 88.692C149.65 90.6483 148.951 92.1854 147.554 93.3964C146.902 93.9554 146.203 94.3746 145.411 94.654C144.619 94.9335 143.734 95.0267 142.71 95.0267H139.356V95.0733ZM141.545 82.9162V94.4677H142.197C143.315 94.4677 144.247 94.328 144.992 94.002C145.737 93.6759 146.296 93.2101 146.762 92.5114C147.461 91.4867 147.833 90.2291 147.833 88.8317C147.833 88.0864 147.74 87.3878 147.507 86.6891C147.274 85.9904 146.995 85.3849 146.622 84.8725C145.691 83.5683 144.293 82.9162 142.337 82.9162H141.545Z" fill="#191411"/>
<path d="M142.663 95.2127H139.262V94.6072H139.355C139.728 94.514 139.914 94.2811 139.914 93.9085V83.6146C139.914 83.2885 139.868 83.1488 139.821 83.1022C139.775 83.0556 139.682 82.9625 139.402 82.8693L139.309 82.8227V82.2638H141.917C143.361 82.2638 144.479 82.4035 145.364 82.683C146.249 82.9625 147.041 83.4283 147.786 84.1269C149.09 85.338 149.743 86.8751 149.743 88.7848C149.743 90.7411 148.997 92.3714 147.6 93.5824C146.948 94.1414 146.203 94.5606 145.457 94.8401C144.619 95.073 143.687 95.2127 142.663 95.2127ZM139.495 94.9798H142.663C143.687 94.9798 144.572 94.8401 145.318 94.6072C146.063 94.3743 146.762 93.9551 147.414 93.3961C148.811 92.2317 149.51 90.648 149.51 88.7848C149.51 86.9682 148.858 85.4777 147.6 84.3133C146.901 83.6612 146.109 83.1954 145.271 82.9159C144.433 82.6364 143.268 82.4967 141.871 82.4967H139.495V82.683C139.728 82.7762 139.914 82.8693 139.961 82.9625C140.054 83.1022 140.101 83.2885 140.101 83.6146V93.9085C140.101 94.3743 139.868 94.6538 139.449 94.7935V94.9798H139.495ZM142.197 94.6072H141.405V82.8227H142.337C144.293 82.8227 145.783 83.5214 146.715 84.8722C147.088 85.3846 147.367 85.9901 147.6 86.7353C147.833 87.434 147.926 88.1793 147.926 88.9246C147.926 90.3685 147.553 91.6261 146.855 92.6509C146.389 93.3495 145.737 93.8619 144.992 94.1879C144.293 94.4674 143.361 94.6072 142.197 94.6072ZM141.684 94.3743H142.243C143.361 94.3743 144.293 94.2345 144.992 93.9085C145.69 93.629 146.296 93.1167 146.715 92.4646C147.414 91.4398 147.74 90.2288 147.74 88.878C147.74 88.1793 147.647 87.434 147.414 86.7819C147.227 86.0833 146.901 85.4777 146.575 85.012C145.69 83.7543 144.293 83.1022 142.383 83.1022H141.684V94.3743Z" fill="#191411"/>
</svg>
