<svg width="247" height="60" viewBox="0 0 247 60" fill="none" xmlns="http://www.w3.org/2000/svg">
<path d="M230.129 0.499756H16.9841C7.80807 0.499756 0.308899 7.6263 0.308899 16.3831V43.1193C0.308899 51.8761 7.7615 59.0027 16.9841 59.0027H230.129C239.305 59.0027 246.804 51.8761 246.804 43.1193V16.3831C246.757 7.6263 239.305 0.499756 230.129 0.499756ZM245.686 43.1193C245.686 51.3172 238.699 57.9314 230.129 57.9314H16.9841C8.4136 57.9314 1.42679 51.2706 1.42679 43.1193V16.3831C1.42679 8.18524 8.4136 1.57106 16.9841 1.57106H230.129C238.699 1.57106 245.686 8.23182 245.686 16.3831V43.1193Z" fill="#191411"/>
<path d="M225.889 4.41187H21.1749C11.9523 4.41187 4.40656 11.585 4.40656 20.3884V39.113C4.40656 47.9164 11.9057 55.0896 21.1749 55.0896H225.889C235.111 55.0896 242.657 47.9164 242.657 39.113V20.3884C242.657 11.585 235.111 4.41187 225.889 4.41187ZM239.303 29.7507V22.4844L239.443 39.113C239.443 46.193 233.388 51.9688 225.935 51.9688H21.1749C13.7223 51.9688 7.66707 46.193 7.66707 39.113L7.52734 22.4844H7.48076V17.8731V17.3608V31.6139V29.7973V29.7507L7.62049 20.3884C7.62049 13.3084 13.6757 7.53263 21.1283 7.53263H225.889C233.341 7.53263 239.396 13.3084 239.396 20.3884L239.303 29.7507Z" fill="#191411"/>
<path d="M14.7933 36.6915V36.2722C14.933 36.2257 15.0262 36.1791 15.1193 36.1325C15.2125 36.0859 15.3056 36.0393 15.3988 35.9462C15.6317 35.7599 15.7714 35.5736 15.818 35.3872L20.7088 22.7644H21.2677L26.2051 35.3872C26.3914 35.853 26.6243 36.1325 26.9969 36.2722V36.6915H23.6898V36.2722C24.2022 36.1791 24.4351 35.9928 24.4351 35.7133L24.3885 35.4338L23.1309 32.0802H17.8675L16.6099 35.4338V35.6201C16.6099 35.9462 16.8893 36.1791 17.4483 36.2722V36.6915H14.7933ZM20.3827 25.2797L18.0072 31.4746H22.7582L20.3827 25.2797Z" fill="#191411"/>
<path d="M27.8362 36.6908V36.2716C28.302 36.1318 28.5349 35.8989 28.5349 35.4797V24.0214C28.5349 23.6487 28.302 23.3693 27.8362 23.2295V22.8103H31.9818C32.727 22.8103 33.3325 22.8569 33.7983 22.9501C34.2175 23.0432 34.6833 23.2295 35.1491 23.509C36.1738 24.1611 36.6862 25.1392 36.6862 26.3969C36.6862 27.5148 36.267 28.3532 35.4752 28.9587C35.1957 29.145 34.9628 29.3313 34.6833 29.4245C34.4504 29.5177 34.0778 29.6574 33.5654 29.7506L34.1244 30.6356C34.5436 31.3342 34.9628 32.2192 35.4286 33.2905C35.7081 33.9426 35.8944 34.3153 35.8944 34.4084C36.0341 34.7345 36.2204 35.1071 36.4533 35.4797C36.6862 35.8524 36.8725 36.0853 37.1054 36.225C37.3383 36.3647 37.6178 36.4579 37.9438 36.4579L37.9904 36.8305C37.4781 36.8305 37.0588 36.8305 36.7794 36.7839C36.4999 36.7374 36.2204 36.6442 35.8944 36.551C35.4752 36.3647 35.1025 36.1319 34.8231 35.7592C34.5436 35.3866 34.2175 34.7811 33.8449 33.9426L33.286 32.5918L32.727 31.3342C32.5407 30.9616 32.4475 30.7753 32.401 30.7287C32.401 30.6821 32.3078 30.6355 32.2147 30.4958C31.9818 30.1697 31.5626 30.03 31.0502 30.03H30.6776H30.5378C30.4447 30.03 30.3981 30.03 30.3981 30.03C30.3515 30.03 30.3515 30.0766 30.3049 30.0766V35.4797C30.3049 35.8989 30.5378 36.1784 30.957 36.2716V36.6908H27.8362ZM30.2583 23.4158V29.3779H31.516C32.2147 29.3779 32.7736 29.3313 33.1462 29.1916C33.5189 29.0984 33.8449 28.8656 34.0778 28.5395C34.5436 27.934 34.7765 27.2353 34.7765 26.3969C34.7765 26.0242 34.7299 25.605 34.5902 25.2324C34.4504 24.8132 34.3107 24.4872 34.0778 24.2543C33.612 23.6953 32.8202 23.4158 31.7489 23.4158H30.2583Z" fill="#191411"/>
<path d="M37.6644 24.8129L38.4096 22.7634H45.9088L46.7006 24.8129L46.328 24.9526C46.0485 24.3937 45.7691 24.021 45.3964 23.7416C45.0238 23.4621 44.6046 23.3689 44.0457 23.3689H43.0675V35.3863C43.0675 35.8055 43.2538 36.085 43.673 36.2247V36.6439H40.5988V36.2713C41.0646 36.1315 41.2975 35.8521 41.2975 35.4329V23.4155H40.3659C39.807 23.4155 39.3412 23.5553 38.9686 23.7882C38.6425 24.0211 38.3165 24.4403 38.037 25.0458L37.6644 24.8129Z" fill="#191411"/>
<path d="M47.6331 36.6908V36.2716C47.866 36.1784 48.0523 36.0387 48.0989 35.8524C48.1921 35.666 48.2387 35.4332 48.2387 35.0605V24.0214C48.2387 23.6022 48.0523 23.3693 47.6331 23.2295V22.8103H50.5676V23.2295C50.1484 23.3693 49.9155 23.6487 49.9155 24.0214V35.4797L50.0086 35.8058C50.0552 35.8989 50.0552 35.9921 50.1018 36.0387C50.1484 36.1318 50.2881 36.1784 50.521 36.2716V36.6908H47.6331Z" fill="#191411"/>
<path d="M51.637 34.5945L51.9631 34.315C52.2426 34.5479 52.522 34.7808 52.7549 34.9206C52.9878 35.0603 53.2207 35.2466 53.5002 35.3863C54.1057 35.7124 54.7578 35.9453 55.4099 36.1316C56.062 36.3179 56.6675 36.4111 57.2731 36.4111C58.2978 36.4111 59.0896 36.1316 59.6486 35.6192C60.2541 35.1069 60.5336 34.4082 60.5336 33.5232C60.5336 33.2437 60.487 32.9177 60.3938 32.6382C60.2541 32.219 60.0212 31.8464 59.7883 31.5669C59.5088 31.2874 59.0431 31.008 58.4375 30.6819L56.5744 29.7969C54.851 28.9119 53.7796 28.2132 53.3139 27.6543C52.8947 27.1419 52.6618 26.4898 52.6618 25.698C52.6618 24.7664 52.9878 24.0211 53.6399 23.4622C54.292 22.9032 55.177 22.6238 56.2483 22.6238C56.5744 22.6238 56.8538 22.6703 57.1799 22.6703C57.4594 22.7169 57.7854 22.8101 58.1115 22.9032L58.6238 22.9964C58.8102 22.9964 58.9499 22.8567 59.0896 22.6238H59.4623L60.7199 24.7198L60.3473 24.9527C60.1144 24.6732 59.8815 24.4869 59.7417 24.3938C59.602 24.254 59.4157 24.1609 59.1828 24.0211C58.391 23.5088 57.5059 23.2293 56.4812 23.2293C55.6894 23.2293 55.0838 23.4156 54.6181 23.7417C54.1523 24.0677 53.9194 24.5335 53.9194 25.0924C53.9194 25.698 54.1989 26.2569 54.8044 26.7227C55.0373 26.909 55.3167 27.0953 55.6428 27.2817C55.9689 27.468 56.5744 27.7474 57.4594 28.1666C58.3444 28.5858 59.043 28.9585 59.5554 29.238C60.0678 29.5174 60.4404 29.7969 60.7199 30.0764C61.1391 30.4024 61.4651 30.8216 61.698 31.3806C61.9309 31.9395 62.0241 32.4519 62.0241 33.0574C62.0241 34.315 61.6049 35.2932 60.7665 36.0385C59.928 36.7837 58.8567 37.1564 57.4594 37.1564C56.7141 37.1564 55.8291 37.0166 54.851 36.7371L54.4318 36.644C54.2454 36.644 54.0591 36.8303 53.9194 37.1564H53.5468L51.637 34.5945Z" fill="#191411"/>
<path d="M62.0706 36.6905V36.2713C62.2104 36.2247 62.3035 36.1781 62.3967 36.1315C62.4898 36.085 62.583 36.0384 62.6762 35.9452C62.909 35.7589 63.0488 35.5726 63.0954 35.3863L67.9861 22.7634H68.5451L73.4824 35.3863C73.6687 35.852 73.9016 36.1315 74.2743 36.2713V36.6905H70.9672V36.2713C71.4795 36.1781 71.7124 35.9918 71.7124 35.7123L71.6658 35.4329L70.3151 32.0792H65.0517L63.794 35.4329V35.6192C63.794 35.9452 64.0735 36.1781 64.6324 36.2713V36.6905H62.0706ZM67.6601 25.2787L65.2846 31.4737H70.0356L67.6601 25.2787Z" fill="#191411"/>
<path d="M75.1136 36.6898V36.2706C75.5794 36.1309 75.8123 35.8514 75.8123 35.4788V24.067C75.8123 23.6477 75.5794 23.3683 75.1136 23.2285V22.8093H77.2562L83.2183 30.4483V24.0204C83.2183 23.6012 82.9854 23.3683 82.5662 23.2285V22.8093H84.4293V23.2285C84.0101 23.3683 83.8238 23.6943 83.8238 24.1136V35.4788C83.8238 35.7116 83.8704 35.8514 83.9636 35.9911C84.0567 36.1309 84.1964 36.224 84.4293 36.2706V36.6898H82.5662V36.2706C82.9854 36.1309 83.2183 35.8514 83.2183 35.4788V33.1964L76.4644 24.5327V35.4788C76.4644 35.898 76.6507 36.1309 77.0233 36.2706V36.6898H75.1136Z" fill="#191411"/>
<path d="M85.4066 36.6915V36.2722C85.5463 36.2257 85.6395 36.1791 85.7326 36.1325C85.8258 36.0859 85.9189 36.0393 86.0121 35.9462C86.245 35.7599 86.3847 35.5736 86.4313 35.3872L91.3221 22.7644H91.881L96.8184 35.3872C97.0047 35.853 97.2376 36.1325 97.6102 36.2722V36.6915H94.3031V36.2722C94.8155 36.1791 95.0484 35.9928 95.0484 35.7133L95.0018 35.4338L93.7442 32.0802H88.4808L87.2231 35.4338V35.6201C87.2231 35.9462 87.5026 36.1791 88.0616 36.2722V36.6915H85.4066ZM91.0426 25.2797L88.6671 31.4746H93.4181L91.0426 25.2797Z" fill="#191411"/>
<path d="M98.4927 36.6908V36.2716C98.9585 36.1318 99.1914 35.8524 99.1914 35.4797V24.0679C99.1914 23.6487 98.9585 23.3692 98.5393 23.2761V22.8103H101.474V23.2761C101.241 23.3227 101.055 23.4158 100.961 23.5556C100.868 23.6487 100.822 23.8351 100.822 24.1145V36.0853H103.104C103.896 36.0853 104.455 35.9921 104.781 35.8524C105.107 35.666 105.386 35.2934 105.619 34.7345H105.992V36.7839H98.4927V36.6908Z" fill="#191411"/>
<path d="M106.926 36.6908V36.2716C107.392 36.1318 107.625 35.8524 107.625 35.4797V24.0679C107.625 23.6487 107.392 23.3692 106.973 23.2761V22.8103H109.907V23.2761C109.674 23.3227 109.488 23.4158 109.395 23.5556C109.302 23.6487 109.255 23.8351 109.255 24.1145V36.0853H111.538C112.329 36.0853 112.888 35.9921 113.214 35.8524C113.541 35.666 113.82 35.2934 114.053 34.7345H114.426V36.7839H106.926V36.6908Z" fill="#191411"/>
<path d="M112.469 23.1357V22.8097H116.102V23.1823C115.683 23.3221 115.45 23.4618 115.45 23.6481C115.45 23.7413 115.497 23.8344 115.59 23.9742L118.525 28.7252L121.506 23.9742C121.599 23.881 121.599 23.7879 121.599 23.6481C121.599 23.5084 121.552 23.4152 121.506 23.3221C121.412 23.2755 121.273 23.1823 120.993 23.0892V22.7166H123.369V23.0892C123.089 23.1823 122.856 23.2755 122.717 23.3686C122.577 23.4618 122.391 23.6481 122.251 23.9276L118.804 29.3307V35.386C118.804 35.7586 118.99 36.0381 119.41 36.1778V36.597H116.382V36.1312C116.848 35.9915 117.081 35.712 117.081 35.3394V29.7499L113.494 24.0208C113.261 23.555 112.889 23.2755 112.469 23.1357Z" fill="#191411"/>
<path d="M121.645 32.5451V31.3806H126.536V32.5451H121.645Z" fill="#191411"/>
<path d="M128.071 36.6908V36.2716C128.537 36.1318 128.77 35.8524 128.77 35.4797V24.0679C128.77 23.6487 128.537 23.4158 128.117 23.2761V22.8103H131.331C132.915 22.8103 134.173 23.0432 135.011 23.509C135.477 23.7419 135.803 24.0679 136.082 24.4872C136.362 24.9064 136.502 25.3722 136.502 25.8845C136.502 27.2819 135.477 28.26 133.427 28.819C134.965 29.0053 136.176 29.4245 137.061 30.1698C137.946 30.915 138.365 31.8 138.365 32.9179C138.365 34.0824 137.806 35.0139 136.688 35.7126C135.57 36.4113 134.08 36.7839 132.216 36.7839H128.071V36.6908ZM130.446 23.4158V28.4464H131.518C132.682 28.4464 133.474 28.1669 133.94 27.6079C134.312 27.0956 134.499 26.5366 134.499 25.8379C134.499 24.2077 133.567 23.3693 131.704 23.3693H130.446V23.4158ZM130.446 29.0984V36.0387H132.216C133.008 36.0387 133.66 35.9455 134.126 35.8058C134.592 35.6661 135.058 35.4332 135.43 35.0605C136.036 34.455 136.362 33.6632 136.362 32.7782C136.362 31.5671 135.943 30.6821 135.104 30.03C134.266 29.3779 133.055 29.0984 131.425 29.0984H130.446Z" fill="#191411"/>
<path d="M140.001 23.2292V22.81H143.028V23.1826C142.562 23.369 142.329 23.6484 142.329 24.1142V32.6381C142.329 33.3834 142.423 33.9889 142.562 34.4547C142.749 34.9205 143.028 35.2931 143.447 35.6192C144.006 36.0849 144.752 36.3178 145.59 36.3178C146.661 36.3178 147.5 35.9918 148.059 35.3397C148.664 34.6876 148.944 33.756 148.944 32.5915V24.0676C148.944 23.7882 148.897 23.6018 148.851 23.5087C148.757 23.4155 148.618 23.2758 148.385 23.1826V22.7634H150.248V23.1361C149.829 23.3224 149.642 23.6018 149.642 24.0676V32.3121C149.642 33.1505 149.549 33.8492 149.363 34.4081C149.177 34.9671 148.897 35.4328 148.478 35.852C147.686 36.5973 146.615 36.97 145.124 36.97C143.867 36.97 142.795 36.6439 141.957 36.0849C141.491 35.7589 141.118 35.3397 140.932 34.7807C140.746 34.2684 140.606 33.5697 140.606 32.7313V24.0676C140.606 23.8347 140.559 23.6018 140.466 23.5087C140.42 23.4155 140.233 23.2758 140.001 23.2292Z" fill="#191411"/>
<path d="M151.176 24.8129L151.922 22.7634H159.421L160.213 24.8129L159.84 24.9526C159.561 24.3937 159.281 24.021 158.908 23.7416C158.536 23.5087 158.117 23.3689 157.558 23.3689H156.579V35.3863C156.579 35.8055 156.766 36.085 157.185 36.2247V36.6439H154.111V36.2713C154.577 36.1315 154.809 35.8521 154.809 35.4329V23.4155H153.878C153.319 23.4155 152.853 23.5553 152.481 23.7882C152.155 24.0211 151.828 24.4403 151.549 25.0458L151.176 24.8129Z" fill="#191411"/>
<path d="M171.158 22.5307H171.578V24.6267H171.158C170.879 24.3473 170.693 24.1144 170.506 23.9746C170.32 23.8349 170.087 23.6952 169.761 23.5554C169.062 23.2294 168.271 23.0896 167.432 23.0896C166.64 23.0896 165.848 23.2294 165.103 23.5554C164.358 23.8815 163.752 24.3007 163.24 24.8131C162.774 25.3254 162.355 26.0241 162.076 26.8625C161.796 27.7009 161.656 28.5859 161.656 29.5175C161.656 31.5204 162.215 33.1507 163.38 34.4083C164.544 35.6659 166.035 36.318 167.851 36.318C168.317 36.318 168.736 36.2714 169.062 36.2249C169.388 36.1783 169.808 36.0851 170.32 35.8988C170.646 35.8057 170.926 35.7125 171.158 35.6193C171.391 35.5262 171.717 35.3864 172.183 35.1535L172.369 35.4796C171.904 35.7125 171.484 35.9454 171.205 36.0385C170.926 36.1783 170.599 36.318 170.227 36.4112C169.109 36.7838 168.038 36.9701 166.966 36.9701C164.824 36.9701 163.1 36.318 161.75 35.0138C160.445 33.7096 159.747 32.0328 159.747 29.9367C159.747 27.7941 160.492 26.0241 161.982 24.6267C163.473 23.2294 165.336 22.4841 167.525 22.4841C167.991 22.4841 168.364 22.4841 168.55 22.5307C168.783 22.5773 169.202 22.6238 169.901 22.8102C169.947 22.8102 170.041 22.8568 170.134 22.8568C170.227 22.8568 170.273 22.8568 170.367 22.8568C170.832 22.8568 171.065 22.7636 171.158 22.5307Z" fill="#191411"/>
<path d="M174.047 36.6908V36.2716C174.513 36.1318 174.746 35.8524 174.746 35.4332V24.0679C174.746 23.6487 174.56 23.4158 174.141 23.2761V22.8103H177.122V23.2761C176.702 23.4158 176.516 23.6953 176.516 24.0679V28.4464H182.571V24.0679C182.571 23.6487 182.385 23.4158 182.012 23.2761V22.8103H184.947V23.2761C184.528 23.4158 184.295 23.6953 184.295 24.0679V35.5263C184.295 35.899 184.528 36.1784 184.993 36.3181V36.7374H182.012V36.3181C182.385 36.1784 182.571 35.899 182.571 35.5263V29.0984H176.47V35.4797C176.47 35.7126 176.516 35.8989 176.563 36.0387C176.656 36.1784 176.749 36.2716 176.982 36.3647V36.7839H174.047V36.6908Z" fill="#191411"/>
<path d="M186.997 36.6908V36.2716C187.462 36.1318 187.695 35.8524 187.695 35.4797V24.0214C187.695 23.6022 187.462 23.3227 187.043 23.2295V22.8103H195.241L196.126 24.6269L195.753 24.8132C195.567 24.6269 195.427 24.4872 195.334 24.3474C195.148 24.1611 194.962 24.0214 194.775 23.9282C194.263 23.6022 193.704 23.4624 193.052 23.4624H189.419V28.3066H193.192C193.704 28.3066 194.03 28.26 194.216 28.1203C194.403 28.0271 194.589 27.7942 194.682 27.4682H195.055V29.704H194.636C194.542 29.4711 194.449 29.2848 194.31 29.145C194.123 29.0053 193.751 28.9121 193.192 28.9121H189.419V36.0387H193.145C194.123 36.0387 194.962 35.9455 195.614 35.7126C196.08 35.5729 196.638 35.2468 197.291 34.7811L197.57 35.0605L196.033 36.6908H186.997Z" fill="#191411"/>
<path d="M198.594 36.6908V36.2716C199.06 36.1318 199.293 35.8989 199.293 35.4797V24.0214C199.293 23.6487 199.06 23.3693 198.594 23.2295V22.8103H202.74C203.485 22.8103 204.091 22.8569 204.556 22.9501C204.976 23.0432 205.441 23.2295 205.907 23.509C206.932 24.1611 207.444 25.1392 207.444 26.3969C207.444 27.5148 207.025 28.3532 206.233 28.9587C205.954 29.145 205.721 29.3313 205.441 29.4245C205.208 29.5177 204.836 29.6574 204.323 29.7506L204.882 30.6356C205.302 31.3342 205.721 32.2192 206.187 33.2905C206.466 33.9426 206.652 34.3153 206.652 34.4084C206.792 34.7345 206.978 35.1071 207.211 35.4797C207.444 35.8524 207.631 36.0853 207.863 36.225C208.096 36.3647 208.376 36.4579 208.702 36.4579L208.748 36.8305C208.236 36.8305 207.817 36.8305 207.537 36.7839C207.258 36.7374 206.978 36.6442 206.652 36.551C206.233 36.3647 205.861 36.1319 205.581 35.7592C205.302 35.3866 204.976 34.7811 204.603 33.9426L204.044 32.5918L203.485 31.3342C203.299 30.9616 203.206 30.7753 203.159 30.7287C203.159 30.6821 203.066 30.6355 202.973 30.4958C202.74 30.1697 202.321 30.03 201.808 30.03H201.436H201.296C201.203 30.03 201.156 30.03 201.156 30.03C201.11 30.03 201.11 30.0766 201.063 30.0766V35.4797C201.063 35.8989 201.296 36.1784 201.715 36.2716V36.6908H198.594ZM200.97 23.4158V29.3779H202.227C202.926 29.3779 203.485 29.3313 203.858 29.1916C204.23 29.0984 204.556 28.8656 204.789 28.5395C205.255 27.934 205.488 27.2353 205.488 26.3969C205.488 26.0242 205.441 25.605 205.302 25.2324C205.162 24.8132 205.022 24.4872 204.789 24.2543C204.323 23.6953 203.532 23.4158 202.46 23.4158H200.97Z" fill="#191411"/>
<path d="M209.446 36.6908V36.2716C209.912 36.1318 210.145 35.8524 210.145 35.4797V24.0214C210.145 23.6022 209.912 23.3227 209.492 23.2295V22.8103H217.69L218.575 24.6269L218.203 24.8132C218.016 24.6269 217.877 24.4872 217.783 24.3474C217.597 24.1611 217.411 24.0214 217.225 23.9282C216.712 23.6022 216.153 23.4624 215.501 23.4624H211.868V28.3066H215.641C216.153 28.3066 216.479 28.26 216.666 28.1203C216.852 28.0271 217.038 27.7942 217.131 27.4682H217.504V29.704H217.085C216.992 29.4711 216.898 29.2848 216.759 29.145C216.572 29.0053 216.2 28.9121 215.641 28.9121H211.868V36.0387H215.594C216.572 36.0387 217.411 35.9455 218.063 35.7126C218.529 35.5729 219.088 35.2468 219.74 34.7811L220.019 35.0605L218.482 36.6908H209.446Z" fill="#191411"/>
<path d="M221.09 36.6905V36.2247C221.556 36.1315 221.789 35.8055 221.789 35.3397V24.1608C221.789 23.8813 221.742 23.6484 221.696 23.5553C221.603 23.4621 221.416 23.3224 221.137 23.2292V22.7634H223.885C225.422 22.7634 226.68 22.9032 227.611 23.2292C228.543 23.5087 229.428 24.021 230.22 24.7663C231.617 26.0705 232.316 27.7474 232.316 29.7502C232.316 31.8929 231.524 33.5697 229.987 34.9205C229.288 35.526 228.496 35.9918 227.658 36.2713C226.82 36.5507 225.841 36.6905 224.677 36.6905H221.09ZM223.466 23.4155V36.0384H224.211C225.422 36.0384 226.447 35.8521 227.239 35.526C228.031 35.2 228.683 34.641 229.195 33.8958C229.987 32.7779 230.36 31.4271 230.36 29.89C230.36 29.0981 230.266 28.3063 230.034 27.5145C229.801 26.7226 229.475 26.0705 229.102 25.5116C228.077 24.0676 226.54 23.3689 224.397 23.3689H223.466V23.4155Z" fill="#191411"/>
</svg>
