<svg width="174" height="123" viewBox="0 0 174 123" fill="none" xmlns="http://www.w3.org/2000/svg">
<path d="M65.2682 122.945C29.7124 122.945 0.840332 95.3914 0.840332 61.4724C0.840332 27.5535 29.7578 0 65.2682 0C100.778 0 129.696 27.5535 129.696 61.4724C129.696 95.3914 100.824 122.945 65.2682 122.945ZM65.2682 1.77324C30.7581 1.77324 2.65904 28.5538 2.65904 61.4724C2.65904 94.3911 30.7581 121.217 65.2682 121.217C99.7782 121.217 127.877 94.4365 127.877 61.5179C127.877 28.5992 99.7782 1.77324 65.2682 1.77324Z" fill="#191411"/>
<path d="M65.2631 118.031C32.5718 118.031 5.97314 92.6605 5.97314 61.4696C5.97314 30.2787 32.5718 4.95312 65.2631 4.95312C97.9545 4.95312 124.553 30.3241 124.553 61.515C124.553 92.7059 97.9545 118.031 65.2631 118.031ZM65.2631 6.5445C33.5266 6.5445 7.65546 31.188 7.65546 61.4696C7.65546 91.7511 33.4812 116.395 65.2631 116.395C97.0451 116.395 122.871 91.7511 122.871 61.4696C122.871 31.188 97.0451 6.5445 65.2631 6.5445Z" fill="#191411"/>
<path d="M37.8865 59.1071L37.7956 58.516C38.3412 58.2432 38.614 57.834 38.5231 57.2884L36.3861 41.8294C36.2951 41.2838 35.9769 40.9655 35.4313 40.8291L35.3403 40.238L46.0707 38.7375L47.7076 41.0109L47.162 41.3747C46.9801 41.1928 46.7073 41.0109 46.4799 40.8291C46.2071 40.6017 46.0253 40.4653 45.8434 40.3744C45.2068 40.0561 44.343 39.9652 43.3427 40.1016L38.614 40.7381L39.4779 47.1036L44.3884 46.4216C45.025 46.3307 45.4796 46.1943 45.7979 45.9669C46.0707 45.7396 46.2526 45.4213 46.2526 44.9212L46.8437 44.8302L47.2529 47.8766L46.6618 47.9675C46.389 47.6492 46.2071 47.4219 46.0707 47.331C45.7525 47.24 45.2978 47.1946 44.7976 47.2855L39.6598 48.013L40.8874 57.0156C40.9783 57.5612 41.2966 57.9249 41.8877 58.0159L41.9786 58.607L37.8865 59.1071Z" fill="#191411"/>
<path d="M50.4384 57.3354L50.3475 56.7443C50.9385 56.4715 51.2113 56.0623 51.1204 55.5167L48.9834 39.9667C48.8925 39.4211 48.5288 39.1028 47.8922 39.0119L47.8013 38.4208L53.4393 37.6478C54.485 37.5114 55.3034 37.466 55.8945 37.5114C56.4856 37.5569 57.1676 37.7388 57.8042 38.057C59.3046 38.7391 60.1685 39.9667 60.3958 41.6945C60.6232 43.1949 60.214 44.4225 59.2592 45.3774C58.9409 45.6956 58.6226 45.9684 58.3043 46.1503C57.986 46.3322 57.4859 46.5595 56.8494 46.7869L57.7587 47.8781C58.4407 48.742 59.2137 49.8787 60.0321 51.2427C60.5323 52.0611 60.805 52.5158 60.896 52.6522C61.1688 53.1069 61.4871 53.5161 61.8508 53.9708C62.2146 54.4255 62.5328 54.6983 62.8511 54.8801C63.1694 55.062 63.5786 55.1075 64.0333 55.0165L64.1697 55.5167C63.4422 55.6076 62.8966 55.6531 62.5328 55.6531C62.1691 55.6531 61.7599 55.6076 61.3052 55.5167C60.7141 55.3803 60.1685 55.062 59.7138 54.6528C59.2592 54.2436 58.7135 53.4706 58.0315 52.3794L56.9858 50.6971L55.9855 49.1057C55.6672 48.651 55.4853 48.3782 55.4398 48.3328C55.3944 48.2873 55.3034 48.1964 55.1216 48.0145C54.7124 47.6507 54.1668 47.5144 53.4393 47.6053L52.9391 47.6962L52.7573 47.7417C52.6663 47.7417 52.5754 47.7871 52.5299 47.7871C52.4845 47.7871 52.439 47.8326 52.3935 47.8781L53.3938 55.1529C53.4847 55.6985 53.803 56.0623 54.3941 56.1532L54.485 56.7443L50.4384 57.3354ZM51.1659 38.9209L52.3026 47.0142L53.9849 46.7869C54.9397 46.6505 55.7127 46.4686 56.1674 46.2412C56.6675 46.0139 57.0312 45.6502 57.304 45.1955C57.8042 44.2861 57.986 43.2858 57.8496 42.1491C57.7587 41.6035 57.6223 41.1034 57.3495 40.5578C57.0767 40.0122 56.8039 39.6484 56.4856 39.3756C55.7127 38.6936 54.6214 38.4663 53.1665 38.6481L51.1659 38.9209Z" fill="#191411"/>
<path d="M64.6234 55.3801L64.5325 54.789C65.1235 54.5162 65.3509 54.107 65.3054 53.5614L63.1684 38.0569C63.0775 37.5113 62.7592 37.193 62.1227 37.1021L62.0317 36.511L73.1259 34.9651L74.6263 37.2385L74.1262 37.5567C73.8534 37.3294 73.626 37.1475 73.4442 37.0566C73.1259 36.8293 72.8531 36.6929 72.6257 36.6019C71.8982 36.2837 71.0798 36.1927 70.2159 36.2837L65.3054 36.9657L66.2148 43.5585L71.3072 42.831C71.9892 42.7401 72.4439 42.6037 72.6712 42.4218C72.944 42.2399 73.0804 41.9216 73.1713 41.4215L73.717 41.3306L74.1262 44.3769L73.5806 44.4678C73.3987 44.1496 73.2168 43.9222 72.9895 43.7858C72.7167 43.604 72.1711 43.5585 71.3981 43.6949L66.3057 44.4224L67.6243 54.0615L72.6257 53.3795C73.9443 53.1976 75.0355 52.8794 75.9449 52.4247C76.5814 52.1519 77.2634 51.6063 78.0364 50.8333L78.4456 51.1516L76.6724 53.6523L64.6234 55.3801Z" fill="#191411"/>
<path d="M79.8539 53.2874L79.7629 52.6962C80.354 52.4234 80.6268 52.0143 80.5359 51.4686L78.3989 35.9641C78.308 35.4185 77.9897 35.1002 77.3531 35.0093L77.2622 34.4182L88.3564 32.8723L89.8568 35.1457L89.3566 35.464C89.0838 35.2366 88.8565 35.0548 88.7201 34.9638C88.4018 34.7365 88.129 34.6001 87.9017 34.5092C87.1742 34.1909 86.3558 34.0999 85.4919 34.1909L80.5813 34.8729L81.4907 41.4657L86.5831 40.7382C87.2651 40.6473 87.7198 40.5109 87.9471 40.329C88.2199 40.1472 88.3564 39.8289 88.4473 39.3287L88.9929 39.2378L89.4021 42.2841L88.8565 42.3751C88.6746 42.0568 88.4928 41.8295 88.2654 41.6931C87.9926 41.5112 87.447 41.4657 86.674 41.6021L81.5816 42.3296L82.9002 51.9688L87.9017 51.2868C89.2202 51.1049 90.3115 50.7866 91.2208 50.3319C91.8574 50.0591 92.5394 49.5135 93.3123 48.7406L93.7215 49.0588L91.9483 51.5596L79.8539 53.2874Z" fill="#191411"/>
<path d="M26.0204 90.6177L25.9295 90.0266C26.5206 89.7538 26.7934 89.3446 26.7025 88.799L24.5655 73.249C24.4745 72.7489 24.1108 72.3852 23.4742 72.2942L23.3833 71.7031L29.0213 70.9302C30.0671 70.7938 30.8855 70.7483 31.4766 70.7938C32.0677 70.8393 32.7042 71.0211 33.3862 71.3394C34.8866 72.0214 35.7505 73.249 35.9779 74.9768C36.1597 76.4772 35.796 77.7049 34.8412 78.7052C34.5229 79.0234 34.2046 79.2962 33.8864 79.4781C33.5681 79.66 33.0679 79.8873 32.4314 80.1147L33.3408 81.2059C34.0228 82.0698 34.7957 83.2065 35.6141 84.5705C36.1143 85.3889 36.3871 85.8436 36.478 85.98C36.7508 86.4347 37.0691 86.8894 37.4329 87.2986C37.7966 87.7533 38.1149 88.0261 38.4331 88.2079C38.7514 88.3898 39.1606 88.4353 39.6153 88.3443L39.7517 88.8445C39.0242 88.9354 38.4786 88.9809 38.1149 88.9809C37.7511 88.9809 37.3419 88.9354 36.8872 88.8445C36.2962 88.7081 35.7505 88.3898 35.2959 87.9806C34.8412 87.5714 34.2956 86.7984 33.6135 85.7072L32.5678 84.0249L31.5675 82.4335C31.2492 81.9788 31.0674 81.706 31.0219 81.6606C30.9764 81.6151 30.8855 81.5242 30.7036 81.3423C30.2944 80.9785 29.7488 80.8422 29.0213 80.9331L28.5212 81.024L28.3393 81.0695C28.2484 81.0695 28.1574 81.1149 28.112 81.1149C28.0665 81.1149 28.021 81.1604 27.9755 81.2059L28.9758 88.5262C29.0668 89.0718 29.385 89.3901 29.9761 89.5265L30.0671 90.1176L26.0204 90.6177ZM26.7479 72.1578L27.8846 80.2511L29.5669 80.0237C30.5672 79.8873 31.2947 79.7055 31.7948 79.4781C32.295 79.2508 32.6587 78.887 32.9315 78.4324C33.4317 77.523 33.6136 76.5227 33.4772 75.386C33.3862 74.8859 33.2498 74.3403 32.977 73.7946C32.7042 73.249 32.4314 72.8853 32.1131 72.6125C31.3856 71.9305 30.2489 71.7031 28.794 71.885L26.7479 72.1578Z" fill="#191411"/>
<path d="M38.7985 88.8425L38.7075 88.2515C38.8894 88.1605 39.0258 88.1151 39.1622 88.0241C39.2986 87.9332 39.3895 87.8423 39.4805 87.7513C39.7533 87.4785 39.8897 87.2057 39.9352 86.8874L44.1637 68.8822L44.9366 68.7913L53.9847 84.9323C54.303 85.5234 54.7122 85.8417 55.2123 85.9781L55.3033 86.5691L50.8019 87.2057L50.711 86.6146C51.393 86.3873 51.6658 86.069 51.6204 85.7053L51.484 85.3415L49.1196 81.0221L41.9812 82.0224L40.89 86.7965V87.0693C40.9354 87.524 41.3901 87.7513 42.1631 87.7968L42.254 88.3879L38.7985 88.8425ZM44.2546 72.2923L42.2085 81.113L48.665 80.2037L44.2546 72.2923Z" fill="#191411"/>
<path d="M55.9814 86.4347L55.8904 85.8436C56.4815 85.5254 56.7543 85.1161 56.6634 84.616L54.5264 69.1115C54.4355 68.5659 54.0717 68.2021 53.4352 68.1112L53.3442 67.5201L56.2542 67.1109L65.7569 76.3863L64.5293 67.6565C64.4384 67.1109 64.1201 66.7926 63.529 66.6562L63.4381 66.0652L65.9388 65.7014L66.0297 66.2925C65.5296 66.5653 65.3023 67.02 65.3932 67.6111L67.5302 83.0246C67.5757 83.2974 67.6666 83.5248 67.803 83.7066C67.9394 83.843 68.1667 83.9795 68.485 84.0249L68.5759 84.616L66.0752 84.9797L65.9843 84.3887C66.5299 84.1159 66.7572 83.7066 66.7117 83.161L66.3026 80.0692L55.4812 69.5662L57.5273 84.4341C57.6182 84.9798 57.891 85.298 58.4821 85.4344L58.573 86.0255L55.9814 86.4347Z" fill="#191411"/>
<path d="M82.9925 63.2455L83.6291 63.1545L84.0383 66.1554L83.4017 66.2464C83.038 65.8372 82.7652 65.5189 82.4469 65.2915C82.1741 65.0642 81.7649 64.9278 81.3102 64.7459C80.3554 64.4731 79.4006 64.3822 78.4003 64.5186C76.0814 64.8368 74.3536 65.8826 73.1715 67.7013C72.0348 69.4746 71.6256 71.748 71.9893 74.476C72.3531 77.1586 73.3534 79.2047 74.9447 80.6596C76.5361 82.1146 78.4912 82.7057 80.7191 82.3874C82.5833 82.1146 84.0838 81.3417 85.2659 80.0686C86.4481 78.75 86.9027 77.3405 86.6754 75.7037C86.4935 74.476 85.766 73.9759 84.4475 74.1577L83.5836 74.2941L83.4927 73.7031L88.8579 72.9756C88.9943 74.0668 89.0397 74.9762 88.9033 75.7491C88.8124 76.2947 88.5851 77.0222 88.2213 77.8861C87.5848 79.3411 86.5845 80.5687 85.2659 81.5235C83.9473 82.4784 82.4469 83.0694 80.7191 83.3422C77.9456 83.706 75.4903 83.1149 73.3079 81.5235C71.1254 79.9322 69.8523 77.7497 69.4886 75.0671C69.3067 73.6121 69.4431 72.1117 69.8978 70.6113C70.3979 69.1108 71.1254 67.7923 72.1712 66.701C73.7171 65.0187 75.6267 64.0184 77.9911 63.7002C79.2187 63.5183 80.3099 63.5183 81.3557 63.7002L82.1741 63.7456C82.5378 63.7002 82.8107 63.5183 82.9925 63.2455Z" fill="#191411"/>
<path d="M92.3578 81.386L92.2668 80.7949C92.8579 80.5221 93.0853 80.1129 93.0398 79.5673L90.9028 64.0627C90.8119 63.5171 90.4936 63.1989 89.8571 63.1079L89.7661 62.5169L100.86 60.9709L102.361 63.2898L101.861 63.6081C101.588 63.3807 101.36 63.1989 101.179 63.1079C100.86 62.8806 100.587 62.7442 100.36 62.6533C99.6326 62.335 98.8142 62.244 97.9503 62.335L93.0398 63.017L93.9492 69.6098L99.0415 68.8823C99.7236 68.7914 100.178 68.655 100.406 68.4731C100.633 68.2913 100.815 67.973 100.906 67.4728L101.451 67.3819L101.861 70.4282L101.315 70.5192C101.133 70.2009 100.951 69.9736 100.724 69.8372C100.451 69.6553 99.9054 69.6098 99.1325 69.7462L94.0401 70.4737L95.3586 80.1129L100.36 79.4309C101.679 79.249 102.77 78.9307 103.679 78.476C104.316 78.2032 104.998 77.6576 105.771 76.8847L106.18 77.2029L104.407 79.7037L92.3578 81.386Z" fill="#191411"/>
<path d="M168.105 45.2818C168.014 45.2363 167.923 45.2363 167.833 45.2363C167.878 45.2363 167.969 45.2363 168.105 45.2818Z" fill="#191411"/>
<path d="M113.816 53.2381C113.68 53.2381 113.498 53.2836 113.361 53.2836C113.225 53.2836 113.088 53.3291 112.952 53.3291C112.725 53.3745 112.452 53.42 112.134 53.4655L112.043 53.6019C111.952 53.5564 111.906 53.5564 111.815 53.5109C111.315 53.5564 110.815 53.5564 110.36 53.5564C110.269 53.5564 110.179 53.5564 110.088 53.5564C109.406 53.6928 108.587 53.5109 107.769 53.4655C107.45 53.7837 107.405 54.3294 107.223 54.784C108.042 54.2384 108.769 54.2384 109.86 54.8295C109.997 54.8295 110.133 54.8295 110.315 54.8295C110.36 54.8295 110.36 54.8295 110.406 54.8295C110.36 54.6476 110.315 54.4658 110.406 54.3294C110.633 54.102 111.679 54.2839 111.543 53.8292C112.316 54.3293 111.679 54.3294 111.634 54.5567C111.634 54.6022 111.588 54.6476 111.588 54.6931C112.316 54.6476 113.088 54.6022 113.68 54.6476C113.771 54.6476 113.816 54.6476 113.907 54.6022C114.089 54.6022 114.225 54.5567 114.407 54.5567C114.543 54.1475 114.998 53.9201 114.589 53.1927C114.362 53.1472 114.089 53.1927 113.816 53.2381Z" fill="#191411"/>
<path d="M169.741 44.9162C169.877 44.7798 170.059 44.5979 170.196 44.3706C169.605 44.2342 169.013 44.1432 168.422 44.0068C168.741 44.3706 169.423 44.4615 169.741 44.9162Z" fill="#191411"/>
<path d="M165.921 43.6444C162.374 43.2352 158.873 43.3261 155.418 43.6898C155.281 43.6898 155.145 43.7353 155.009 43.7353C151.69 44.5082 148.78 44.7356 145.415 45.5085C145.324 45.5085 145.279 45.554 145.188 45.554C145.097 45.554 145.051 45.5995 144.96 45.5995C144.824 45.6449 144.687 45.6904 144.506 45.6904C143.369 45.8723 141.959 46.7362 141.05 46.5998C140.959 46.5998 140.914 46.6452 140.823 46.6452C140.368 46.7816 139.959 46.8726 139.504 47.009C139.413 47.009 139.368 47.0544 139.277 47.0544C138.413 47.691 137.322 47.7819 136.276 47.9183C136.185 47.9638 136.14 47.9638 136.049 47.9638C135.412 48.1457 134.73 48.3276 134.093 48.5094C133.957 48.5549 133.821 48.6004 133.639 48.6458C132.639 48.5094 131.638 49.3278 130.592 49.5097C130.456 49.5552 130.274 49.6006 130.138 49.6461C125.091 51.0556 120.044 52.3742 114.952 53.0107C114.952 53.0562 114.906 53.0562 114.861 53.0562C114.861 53.0562 114.861 53.0562 114.815 53.0107C114.77 53.0107 114.679 53.0107 114.633 53.0562C114.952 53.5109 115.043 53.9655 115.043 54.3747C122.226 53.4654 129.365 51.2829 136.458 49.2369C136.594 49.1914 136.731 49.146 136.867 49.1005C137.776 49.1914 138.458 48.4185 139.004 48.4639C139.14 48.4185 139.277 48.373 139.459 48.3275C140.05 48.1457 140.595 48.0093 141.186 47.8729C141.323 47.8274 141.459 47.7819 141.596 47.7365C142.369 47.3727 143.46 47.2818 144.187 47.0544C144.324 47.009 144.46 46.9635 144.642 46.9635C145.097 46.8726 145.506 46.7362 145.961 46.6452C146.097 46.5998 146.233 46.5543 146.415 46.5543C147.052 45.9178 147.825 46.236 148.598 46.0996C148.734 46.0542 148.871 46.0541 149.052 46.0087C149.189 45.9632 149.325 45.9632 149.507 45.9178C151.508 45.9632 153.554 44.6901 155.281 45.0539C155.418 45.0084 155.554 45.0084 155.645 44.9629C155.782 44.9629 155.918 44.9175 156.1 44.9175C159.919 44.5537 163.738 44.5537 167.603 45.1448C167.649 45.0539 167.785 44.872 167.831 44.7811C166.921 44.6447 166.057 44.6447 165.921 43.6444Z" fill="#191411"/>
<path d="M99.5396 52.9199C99.5396 53.1473 99.6305 53.4201 99.8124 53.7384C99.6305 53.7384 99.585 53.7838 99.585 53.8748C100.722 54.1021 101.858 54.3294 102.995 54.5568C103.723 54.4204 104.359 54.284 104.359 53.7384C104.996 53.9202 105.632 54.0566 106.269 54.2385C106.269 54.0566 106.36 53.8748 106.405 53.6474C106.36 53.6474 106.269 53.6474 106.223 53.6474C104.041 52.8745 101.722 53.3746 99.5396 52.9199Z" fill="#191411"/>
<path d="M168.061 43.9158C167.515 43.8249 167.015 43.7339 166.469 43.6885C166.833 43.9158 167.151 44.2796 167.651 44.2796C167.697 44.2796 167.879 44.0977 168.061 43.9158Z" fill="#191411"/>
<path d="M94.6763 43.6907C94.9491 43.918 95.0855 43.7816 95.2674 43.6907C95.0855 43.6452 94.9036 43.5997 94.7218 43.5088C94.6763 43.5543 94.6763 43.5997 94.6763 43.6907Z" fill="#191411"/>
<path d="M171.7 38.0962C171.745 38.0962 171.791 38.1417 171.836 38.1417C171.882 38.0962 171.882 38.0507 171.927 38.0507C171.836 38.0507 171.927 37.9143 171.927 37.8689C171.882 37.7325 171.836 37.8689 171.7 38.0962Z" fill="#191411"/>
<path d="M166.65 35.7323C163.331 35.1867 160.467 35.7778 156.966 35.4141C156.829 35.4141 156.693 35.4141 156.511 35.4141C154.965 35.5505 153.419 35.7323 151.919 35.9597C151.782 35.9597 151.646 36.0051 151.464 36.0506C146.372 37.2782 141.688 38.0057 136.778 39.5516C136.687 39.5516 136.642 39.5971 136.551 39.6426C136.46 39.688 136.414 39.688 136.323 39.7335C135.687 40.7338 134.914 40.4155 133.732 40.461C133.595 40.5065 133.459 40.5519 133.322 40.5974C128.275 42.0524 123.274 43.5073 118.182 44.4167C118.045 44.4621 117.909 44.4621 117.727 44.5076C116.727 45.5079 115.59 45.2351 114.226 45.0532C114.089 45.0532 113.953 45.0987 113.817 45.0987C111.953 45.326 110.088 45.4624 108.179 45.5079C108.088 45.5079 108.042 45.5079 107.951 45.5534C106.678 45.9626 105.269 45.1896 103.814 45.326C103.677 45.326 103.541 45.3715 103.405 45.3715C102.086 44.5531 100.676 45.3715 99.6307 44.8714C99.4943 44.8259 99.3579 44.8259 99.2215 44.7804C98.8123 44.6895 98.3576 44.5986 97.9484 44.5076C97.903 44.5986 97.8575 44.644 97.812 44.735C97.6756 44.644 97.6301 44.5531 97.6301 44.4621C97.3119 44.3712 96.9936 44.3257 96.6299 44.2348C96.6753 44.644 96.9481 44.8714 96.7663 45.2351C96.5389 45.4624 96.7208 44.735 96.5844 44.7804C96.4935 44.8259 96.448 44.9168 96.4025 45.0078C96.3571 45.1442 96.3116 45.2806 96.2661 45.417C97.4028 45.7352 98.494 46.008 99.6307 46.1899C99.7671 46.2354 99.9036 46.2354 100.04 46.2354C100.131 46.1899 100.267 46.1445 100.358 46.099C100.313 46.099 100.222 46.0535 100.085 45.9626C100.085 45.8716 100.358 46.0081 100.313 45.8716C100.495 45.9171 100.495 45.9626 100.586 46.008C100.631 46.008 100.676 46.008 100.767 46.008C100.813 45.9171 100.722 45.7807 100.767 45.6898C100.858 45.7352 100.949 45.8262 101.131 45.9171C100.495 45.417 101.722 45.7352 101.54 45.2351C101.859 45.5988 101.768 45.9171 101.586 46.1899C101.995 46.3263 102.404 46.5082 102.859 46.6446C102.995 46.6446 103.132 46.6901 103.268 46.6901C103.405 46.6901 103.541 46.7355 103.677 46.7355C103.814 46.7355 103.95 46.7355 104.087 46.781C105.542 46.8719 107.36 46.6901 108.679 46.9174C108.77 46.9174 108.815 46.9174 108.906 46.9174C110.634 46.8719 112.407 46.7355 114.135 46.5082C114.271 46.5082 114.317 46.4627 114.408 46.4627C115.681 46.0535 116.727 45.5988 118.091 45.8716C118.227 45.8262 118.363 45.8262 118.545 45.7807C123.592 44.8259 128.594 43.3709 133.595 41.9159C133.686 41.8705 133.777 41.8705 133.868 41.825C140.006 39.688 146.053 38.0967 152.555 37.3237C152.692 37.3237 152.874 37.2782 153.01 37.2782C153.965 37.1418 154.965 37.0509 155.92 36.96C156.102 36.96 156.238 36.9145 156.375 36.9145C159.83 36.6872 163.058 36.0506 166.014 37.0509C166.105 37.0509 166.15 37.0964 166.241 37.0964C166.969 37.1873 167.696 37.3237 168.423 37.4601C168.423 37.4146 168.423 37.3692 168.423 37.3692C168.605 37.2328 168.605 37.3692 168.651 37.5056C168.787 37.5511 168.878 37.551 169.015 37.5965C169.196 37.4601 169.287 37.5965 169.424 37.551C169.378 37.5965 169.333 37.642 169.287 37.642C170.106 37.8239 170.879 38.0057 171.697 38.2331C171.924 37.8238 171.333 38.3695 171.606 37.8238C170.56 38.3695 170.924 37.0964 169.742 37.6875C170.606 37.1873 171.152 37.3692 171.652 37.5056C171.743 37.5511 171.924 37.1418 172.015 37.0964C172.152 37.1418 171.97 37.642 172.061 37.7329C172.197 37.8239 172.561 37.4601 172.788 37.4146C172.97 37.3692 173.061 37.5056 173.198 37.551C173.198 37.5056 173.198 37.4146 173.198 37.3692C171.106 36.6872 169.015 36.2325 166.923 35.9142C166.832 35.7323 166.741 35.7323 166.65 35.7323ZM97.5847 45.0078C97.3119 44.8259 97.6302 44.8259 97.5847 44.6895C97.7666 44.8259 97.903 45.0532 97.5847 45.0078ZM169.878 37.2782C169.697 37.4146 169.606 37.4601 169.56 37.3692C169.787 37.0964 169.969 37.1418 169.878 37.2782Z" fill="#191411"/>
<path d="M147.191 28.5942C147.055 28.6397 146.919 28.6397 146.737 28.6852C145.691 28.9125 144.236 29.0489 143.281 29.4581C143.19 29.4581 143.145 29.5036 143.054 29.5036C142.417 29.6855 141.735 29.8219 141.099 30.0037C140.962 30.0492 140.826 30.0947 140.644 30.1401C140.007 30.1401 139.371 30.4584 138.734 30.6858C138.598 30.7312 138.462 30.7767 138.325 30.8222C137.188 31.777 135.688 31.5042 134.597 31.8225C134.46 31.8679 134.324 31.9134 134.188 31.9589C130.687 32.9591 127.14 34.0049 123.594 34.9143C123.457 34.9597 123.321 35.0052 123.184 35.0507C117.683 36.1419 111.908 37.5059 106.361 37.415C106.179 37.6423 105.543 37.4605 106.089 37.415C105.907 37.415 105.725 37.415 105.588 37.415C105.497 37.6878 105.043 37.6423 104.861 37.6878C104.952 37.5059 105.043 37.4605 105.179 37.3695C104.679 37.3241 104.133 37.2786 103.633 37.2331C103.497 37.2331 103.36 37.2331 103.224 37.1877C100.769 37.0058 98.268 36.5966 95.8128 35.9146C95.7218 36.0055 95.6764 36.0055 95.5854 35.8691C95.4945 35.8236 95.3581 35.8236 95.2672 35.7781C95.1308 35.96 95.0853 35.8236 94.858 35.7781C94.858 36.051 94.9034 36.1419 94.9944 36.2328C94.5397 36.2783 94.3124 36.3238 94.0396 36.3238C94.0396 36.4602 94.0395 36.5966 94.085 36.733C94.6306 36.9148 95.2217 37.0513 95.7673 37.2331C95.8128 37.1877 95.8583 37.1876 95.9037 37.1422C95.9947 37.1422 96.0401 37.1877 96.0856 37.2786C96.1765 37.3241 96.2675 37.3241 96.4039 37.3695C96.5403 37.2331 96.6767 37.0058 96.7676 37.0058C96.9495 37.0058 97.0404 37.2786 97.2223 37.324C97.9043 37.5059 98.6318 36.5966 99.3593 36.6875C99.9049 36.7784 100.405 37.7787 101.042 37.5059C100.814 38.4153 100.36 37.8697 99.9504 37.9151C99.7685 37.9151 99.5412 37.9606 99.3593 38.0515C100.86 38.3243 102.315 38.5062 103.77 38.5972C103.906 38.5972 104.042 38.5972 104.179 38.6426C105.725 39.0973 107.862 38.1879 109.499 38.6426C109.59 38.6426 109.68 38.6426 109.771 38.6426C109.862 38.6426 109.953 38.6426 109.999 38.6426C110.817 38.6881 111.499 38.6426 112.227 38.5517C112.363 38.5517 112.454 38.5517 112.59 38.5062C112.727 38.5062 112.818 38.4607 112.909 38.4607C113 38.4607 113.136 38.4153 113.227 38.4153C114.091 38.779 114.364 37.6423 115.137 38.0515C115.273 38.0515 115.409 38.0061 115.591 38.0061C115.728 38.0061 115.864 37.9606 116 37.9151C116.091 37.9151 116.137 37.8697 116.228 37.8697C116.319 37.9151 116.455 37.9151 116.546 37.9151C116.682 37.9151 116.773 37.9151 116.91 37.9151C119.411 37.2331 121.957 36.6875 124.367 36.1419C124.457 36.1419 124.503 36.0964 124.594 36.0964C128.004 35.2325 131.414 34.2322 134.824 33.2319C134.961 33.1865 135.097 33.141 135.233 33.0956C136.188 32.2771 136.87 31.8679 138.416 32.1862C138.507 32.1862 138.598 32.1407 138.689 32.1407C140.417 31.6406 142.144 31.1859 143.872 30.7767C144.009 30.7312 144.145 30.6858 144.327 30.6858C145.555 30.5039 146.646 30.413 147.782 29.9128C147.873 29.9128 147.919 29.8673 148.01 29.8673C156.103 28.2305 164.287 27.8213 172.699 30.5494C172.653 30.0947 172.608 29.64 172.608 29.1853C163.878 26.3663 155.466 26.8665 147.191 28.5942ZM101.633 37.8242C101.633 37.4605 101.633 37.1877 101.815 37.2331C101.86 37.3695 101.905 37.5514 101.86 37.8242H101.633Z" fill="#191411"/>
<path d="M100.541 30.2305C100.677 30.2305 100.814 30.276 100.996 30.276C102.041 30.2305 102.86 31.2308 104.087 30.5488C104.224 30.5488 104.406 30.5488 104.542 30.5488C111.408 30.8216 118.182 29.4576 124.912 27.6843C125.003 27.6843 125.048 27.6389 125.139 27.6389C126.276 27.5479 127.321 26.775 128.595 26.6841C128.686 26.6841 128.731 26.6386 128.822 26.6386C128.958 26.5931 129.095 26.5476 129.277 26.5022C131.05 26.002 133.05 25.4564 135.006 24.8653C135.142 24.8199 135.278 24.7744 135.415 24.7289C136.597 24.1833 137.324 24.1379 138.37 23.8651C138.507 23.8196 138.643 23.7741 138.779 23.7286C138.916 23.6832 139.052 23.6377 139.189 23.5922C139.325 23.5468 139.507 23.5013 139.643 23.4558C140.143 23.3194 140.644 23.183 141.144 23.0466C141.235 23.0012 141.326 23.0012 141.416 23.0012C144.781 22.0463 148.055 21.7735 151.283 20.9551C151.419 20.9551 151.601 20.9097 151.738 20.9097C152.147 20.8642 152.556 20.8187 152.965 20.7278C153.102 20.7278 153.238 20.6823 153.375 20.6823C155.239 20.8187 157.285 19.1819 159.194 20.3186C159.331 20.3186 159.513 20.364 159.649 20.364C163.696 20.4095 167.833 20.9551 171.971 22.3191C171.925 21.8645 171.88 21.4098 171.88 20.9551C167.924 19.682 163.968 19.0909 160.104 19C160.013 19 159.967 19 159.876 19C158.012 19.1364 155.83 19.3183 154.147 19.1364C154.011 19.1364 153.829 19.1364 153.693 19.1819C149.282 19.5001 145.236 21.2734 141.235 21.6826C141.098 21.7281 140.962 21.7735 140.78 21.7735C140.371 21.8645 139.916 22.0009 139.507 22.1373C139.37 22.1827 139.234 22.2282 139.052 22.2737C138.916 22.3192 138.779 22.4101 138.643 22.4556C138.507 22.501 138.37 22.5465 138.234 22.6374C137.143 23.0466 136.097 23.5013 134.869 23.6832C134.778 23.6832 134.733 23.7286 134.596 23.7741C131.232 24.5925 127.822 25.0472 124.73 26.3658C124.593 26.4113 124.457 26.4567 124.275 26.5022C114.136 29.1393 103.86 30.7307 93.2661 27.3206C93.3116 27.7753 93.3571 28.23 93.3571 28.6846C95.8123 29.4121 98.2221 29.9123 100.541 30.2305Z" fill="#191411"/>
<path d="M163.923 11.7256C163.832 11.9984 163.923 12.3167 163.969 12.635C164.378 12.6804 164.833 12.7259 165.242 12.8168C165.06 12.3167 164.742 11.7711 164.923 11.4983C164.878 11.4528 164.833 11.4528 164.787 11.4528C164.56 11.4073 164.332 11.3619 164.06 11.3619C163.923 11.3619 163.741 11.3164 163.605 11.3164C163.559 11.3164 163.469 11.3164 163.423 11.3164C163.423 11.4073 163.378 11.4528 163.423 11.5437C163.469 11.5892 163.741 11.5892 163.923 11.7256Z" fill="#191411"/>
<path d="M167.88 13.317C167.88 13.1806 168.016 13.0442 167.743 12.9078C167.834 12.8623 167.97 12.8623 168.107 12.8623C168.107 12.7713 167.652 12.544 168.061 12.5895C168.652 12.9987 168.061 13.0896 168.061 13.3624C168.562 13.4534 169.062 13.5898 169.516 13.7262C169.562 13.4534 169.607 13.1805 169.789 12.9987C169.335 12.7259 168.289 12.3167 168.198 12.544C167.88 12.3621 168.061 12.4076 168.152 12.3167C167.925 12.2257 167.789 12.1803 167.698 12.2257C167.698 12.1348 167.743 12.0439 167.743 11.9984C167.288 11.9075 166.788 11.8165 166.334 11.7256C166.334 11.7256 166.334 11.7256 166.334 11.7711C166.288 11.9075 166.697 12.1803 166.697 12.3167C166.697 12.4076 166.425 12.2712 166.379 12.3167C166.334 12.3621 166.697 12.6349 166.697 12.6804C166.652 12.7713 166.425 12.6804 166.334 12.7713C166.243 12.8168 166.243 12.9532 166.288 13.0896C166.834 13.0896 167.334 13.226 167.88 13.317Z" fill="#191411"/>
<path d="M171.335 14.2735C171.335 14.1825 171.335 14.0916 171.335 14.0007C171.108 13.9552 170.88 13.9097 170.653 13.8643C170.653 13.9097 170.653 14.0007 170.653 14.0461C170.88 14.1371 171.108 14.1825 171.335 14.2735Z" fill="#191411"/>
<path d="M104.952 21.8188C105.089 22.0461 105.089 21.6824 105.407 21.4551C104.907 22.228 105.907 21.7279 105.589 22.3189C105.725 22.3189 105.862 22.3644 105.953 22.4099C107.635 22.3644 109.363 22.228 111.136 22.0461C111.227 22.0461 111.272 22.0461 111.363 22.0007C112.773 21.3641 114.228 21.0004 115.683 20.773C115.637 20.7276 115.637 20.7276 115.592 20.6821C115.319 20.5912 115.137 20.4548 114.955 20.3184C113.637 20.5457 112.318 20.7276 110.999 20.864C110.954 20.864 110.863 20.864 110.772 20.9094C108.862 21.1823 107.044 21.3187 105.225 21.3187C105.134 21.3641 105.043 21.4551 104.907 21.546C104.998 21.5915 104.907 21.7279 104.952 21.8188Z" fill="#191411"/>
<path d="M115.454 20.3645C115.59 20.4555 115.727 20.6373 115.772 20.7737C117.818 20.4555 119.864 20.3191 121.91 20.0008C122.047 19.9553 122.183 19.9553 122.32 19.9098C122.956 19.7734 123.593 19.637 124.184 19.5006C124.32 19.4552 124.457 19.4552 124.548 19.4097C125.639 19.5916 127.003 18.7731 128.14 18.5003C128.276 18.4549 128.412 18.4094 128.503 18.4094C128.958 18.273 129.413 18.1366 129.867 18.0002C130.004 17.9547 130.14 17.9093 130.322 17.8638C131.004 17.6819 131.732 17.5455 132.459 17.3636C132.595 17.3182 132.777 17.2727 132.914 17.2272C133.505 17.1363 134.505 16.3179 135.46 16.5907C135.596 16.5452 135.733 16.4998 135.869 16.4543C139.688 15.4085 143.508 14.2718 147.327 13.4534C147.418 13.4534 147.463 13.408 147.554 13.408C147.691 13.3625 147.827 13.3625 148.009 13.317C148.1 13.317 148.145 13.2715 148.236 13.2715C149.191 12.9533 150.282 12.8623 151.283 12.7714C151.374 12.7714 151.465 12.7714 151.51 12.7259C151.874 12.6805 152.237 12.635 152.601 12.5895C152.738 12.5895 152.874 12.5441 153.056 12.5441C153.92 12.5441 154.647 12.4986 155.238 12.3622C155.375 12.3622 155.557 12.3622 155.693 12.3167C155.829 12.3167 155.966 12.3167 156.148 12.2713C156.284 12.2713 156.421 12.2713 156.602 12.2258C158.421 12.4531 160.285 11.7711 162.104 12.1803C161.968 12.0439 161.786 11.9075 161.695 11.8166C161.558 11.5892 161.877 11.4983 161.695 11.2255C161.649 11.18 161.604 11.0891 161.513 11.0436C158.33 10.8618 155.284 10.6799 152.101 11.271C151.965 11.271 151.828 11.3164 151.646 11.3164C151.51 11.3164 151.374 11.3619 151.192 11.3619C151.01 11.3619 150.919 11.4074 150.737 11.4074C150.237 12.0439 149.1 11.7711 148.555 11.7711C148.418 11.7711 148.236 11.8166 148.1 11.862C147.645 11.953 147.236 12.0439 146.781 12.0894C146.645 12.1348 146.509 12.1349 146.327 12.1803C142.644 12.5895 139.188 13.7717 135.824 14.8629C135.687 14.9084 135.551 14.9539 135.414 14.9993C133.687 15.5904 131.868 15.7268 130.186 16.4998C130.049 16.5452 129.913 16.5452 129.776 16.5907C129.685 16.6362 129.64 16.6362 129.549 16.6362C129.458 16.6362 129.413 16.6816 129.322 16.6816C128.776 16.8635 128.231 16.9999 127.685 17.1818C127.549 17.2272 127.412 17.2727 127.276 17.3182C126.594 17.9547 125.866 18.0002 124.82 18.0002C124.684 18.0457 124.548 18.0911 124.411 18.0911C123.593 18.3185 122.774 18.5458 121.956 18.7277C121.865 18.7277 121.82 18.7731 121.729 18.7731C119.455 19.3188 117.273 19.8189 115.09 20.1372C115.09 20.1826 115.09 20.1827 115.09 20.2281C115.227 20.3645 115.409 20.2281 115.454 20.3645Z" fill="#191411"/>
<path d="M96.6312 21.5485C99.3593 22.1396 102.087 22.4124 104.861 22.4124C104.861 22.276 104.815 22.0941 104.724 22.0032C104.452 21.7304 103.997 21.9577 103.633 21.8213C103.315 21.7304 103.133 21.4121 102.86 21.1848C102.133 21.1393 101.405 21.0938 100.723 20.9574C100.587 21.0029 100.451 21.0484 100.269 21.0484C99.8594 21.3666 99.9504 21.8668 99.4957 21.9577C99.1774 21.9123 99.8139 21.594 99.6775 21.503C99.4502 21.4121 99.041 21.6394 98.7227 21.7304C98.6318 21.0484 98.0862 20.7756 97.5406 20.5027C97.4496 20.5027 97.4042 20.5027 97.3132 20.5027C97.1768 20.6392 97.2223 21.0029 96.904 21.0029C96.9495 20.7756 96.8131 20.5937 96.5857 20.4573C95.8583 20.4118 95.1308 20.4573 94.5397 20.5482C94.3578 20.5937 94.176 20.6846 94.0396 20.8665C94.7216 21.0484 95.4036 21.2302 96.1311 21.4121C96.3584 21.503 96.4948 21.5485 96.6312 21.5485Z" fill="#191411"/>
</svg>
