<svg width="22" height="22" viewBox="0 0 22 22" fill="none" xmlns="http://www.w3.org/2000/svg">
<path d="M10.4387 15.596L15.6269 10.4847L10.4387 5.17334L5.60452 10.4847L10.4387 15.596ZM12.009 10.4847L10.4387 11.9627L9.08388 10.4847L10.4387 8.6373L12.009 10.4847Z" fill="#191411"/>
<path d="M10.9308 21.638L13.1785 20.6989L21.0302 12.6317L22.0001 10.4917L21.0148 8.36718L13.0707 0.392377L8.72924 0.346191L0.908388 8.45956L6.10352e-05 10.5071L0.723642 12.7395L8.71385 20.6681L10.9154 21.6534L10.9308 21.638ZM19.6754 9.69119L20.0141 10.4764L19.7831 11.3847L11.7621 19.2979L9.99166 19.3749L2.04765 11.4001L1.73974 10.5071L1.93988 9.50644L9.94548 1.59322L11.7159 1.73178L19.66 9.70658L19.6754 9.69119Z" fill="#191411"/>
</svg>
