<svg width="37" height="30" viewBox="0 0 37 30" fill="none" xmlns="http://www.w3.org/2000/svg">
<g clip-path="url(#clip0_1_28917)">
<path fill-rule="evenodd" clip-rule="evenodd" d="M3.09965 23.76L0.569648 20.77L0.639648 18.34L4.76965 13.44L9.21965 8.85L13.7296 4.32L18.4996 -7.92925e-07L22.9796 4.57L27.6596 8.93L32.1596 13.47L36.3696 18.33L36.6396 21L34.0596 23.38L28.6296 17.7L23.7696 11.44L18.4996 5.43L13.2696 11.47L8.22965 17.58L3.10964 23.77L3.09965 23.76ZM33.9196 21.98L29.0496 15.59L23.9396 9.5L18.4996 3.9L13.5596 9.92L8.37965 15.96L2.94965 21.79L1.29965 20.06L1.13965 18.83L6.89965 13.11L12.9696 7.69L18.4996 1.65L24.1196 7.59L30.1696 13.03L35.6296 19.06L35.6596 20.02L33.9196 21.98Z" fill="#191411"/>
<path d="M11.2501 22.8702L11.8601 21.4102L17.1001 16.3102L18.4901 15.6802L19.8701 16.3202L25.0501 21.4802L25.0801 24.3002L19.8101 29.3802L18.4801 29.9702L17.0301 29.5002L11.8801 24.3102L11.2401 22.8802L11.2501 22.8702ZM19.0101 17.1902L18.5001 16.9702L17.9101 17.1202L12.7701 22.3302L12.7201 23.4802L17.9001 28.6402L18.4801 28.8402L19.1301 28.7102L24.2701 23.5102L24.1801 22.3602L19.0001 17.2002L19.0101 17.1902Z" fill="#191411"/>
<path d="M15.1802 22.87L18.5002 19.5L21.9502 22.87L18.5002 26.01L15.1802 22.87ZM18.5002 21.85L17.5402 22.87L18.5002 23.75L19.7002 22.87L18.5002 21.85Z" fill="#191411"/>
</g>
<defs>
<clipPath id="clip0_1_28917">
<rect width="30" height="37" fill="white" transform="translate(37) rotate(90)"/>
</clipPath>
</defs>
</svg>
