<svg width="22" height="22" viewBox="0 0 22 22" fill="none" xmlns="http://www.w3.org/2000/svg">
<path d="M4.63368 20.357L5.00385 18.7827L5.02873 17.1533L5.54386 15.61L5.63967 13.9528L4.38233 12.9457L3.45908 11.6214L2.20796 10.6403L1.0819 9.53867L0 8.34512L1.57214 8.19746L3.11815 8.06406L4.63865 7.71564L6.15231 7.33938L7.73192 7.25066L8.47537 5.79742L8.95006 4.2425L9.86833 2.92202L10.6373 1.51347L11.1244 0L11.7092 1.45713L12.4234 2.89094L13.3038 4.23732L13.8923 5.72942L14.4939 7.27138L16.0909 7.34521L17.5841 7.83415L19.1195 8.07765L20.6867 8.07377L22 8.42413L21.157 9.53996L20.0739 10.6875L18.8781 11.7159L17.8391 12.9231L16.5582 13.9385L16.7535 15.601L17.3178 17.1345L17.3626 18.7568L17.6164 20.3518L17.9542 21.9035L16.5215 21.3401L15.2573 20.3881L13.9085 19.5864L12.4869 18.9284L11.1195 18.3475L9.82167 19.0637L8.36774 19.6408L6.9107 20.2204L5.53204 20.9632L4.20938 22L4.63368 20.357Z" fill="#C54B38"/>
</svg>
