<svg width="30" height="37" viewBox="0 0 30 37" fill="none" xmlns="http://www.w3.org/2000/svg">
<path fill-rule="evenodd" clip-rule="evenodd" d="M23.76 34.3999L20.77 36.9299L18.34 36.8599L13.44 32.7299L8.85 28.2799L4.32 23.7699L0 18.9999L4.57 14.5199L8.93 9.83986L13.47 5.33986L18.33 1.12986L21 0.859863L23.38 3.43986L17.7 8.86986L11.44 13.7299L5.43 18.9999L11.47 24.2299L17.58 29.2699L23.77 34.3899L23.76 34.3999ZM21.98 3.57986L15.59 8.44986L9.5 13.5599L3.9 18.9999L9.92 23.9399L15.96 29.1199L21.79 34.5499L20.06 36.1999L18.83 36.3599L13.11 30.5999L7.69 24.5299L1.65 18.9999L7.59 13.3799L13.03 7.32986L19.06 1.86986L20.02 1.83986L21.98 3.57986Z" fill="#191411"/>
<path d="M22.8697 26.2499L21.4097 25.6399L16.3097 20.3999L15.6797 19.0099L16.3197 17.6299L21.4797 12.4499L24.2997 12.4199L29.3797 17.6899L29.9697 19.0199L29.4997 20.4699L24.3097 25.6199L22.8797 26.2599L22.8697 26.2499ZM17.1897 18.4899L16.9697 18.9999L17.1197 19.5899L22.3297 24.7299L23.4797 24.7799L28.6397 19.5999L28.8397 19.0199L28.7097 18.3699L23.5097 13.2299L22.3597 13.3199L17.1997 18.4999L17.1897 18.4899Z" fill="#191411"/>
<path d="M22.87 22.3198L19.5 18.9998L22.87 15.5498L26.01 18.9998L22.87 22.3198ZM21.85 18.9998L22.87 19.9598L23.75 18.9998L22.87 17.7998L21.85 18.9998Z" fill="#191411"/>
</svg>
